  0
SECTION
  2
HEADER
  9
$ACADVER
  1
AC1032
  9
$ACADMAINTVER
 90
       55
  9
$DWGCODEPAGE
  3
ANSI_1252
  9
$LASTSAVEDBY
  1
cipulot
  9
$REQUIREDVERSIONS
160
                 0
  9
$INSBASE
 10
0.0
 20
0.0
 30
0.0
  9
$EXTMIN
 10
1.000000000000000E+20
 20
1.000000000000000E+20
 30
1.000000000000000E+20
  9
$EXTMAX
 10
-1.000000000000000E+20
 20
-1.000000000000000E+20
 30
-1.000000000000000E+20
  9
$LIMMIN
 10
0.0
 20
0.0
  9
$LIMMAX
 10
420.0
 20
297.0
  9
$ORTHOMODE
 70
     0
  9
$REGENMODE
 70
     1
  9
$FILLMODE
 70
     1
  9
$QTEXTMODE
 70
     0
  9
$MIRRTEXT
 70
     1
  9
$LTSCALE
 40
1.0
  9
$ATTMODE
 70
     1
  9
$TEXTSIZE
 40
2.5
  9
$TRACEWID
 40
0.05
  9
$TEXTSTYLE
  7
STANDARD
  9
$CLAYER
  8
0
  9
$CELTYPE
  6
ByBlock
  9
$CECOLOR
 62
   256
  9
$CELTSCALE
 40
1.0
  9
$DISPSILH
 70
     0
  9
$DIMSCALE
 40
1.0
  9
$DIMASZ
 40
0.18
  9
$DIMEXO
 40
0.0625
  9
$DIMDLI
 40
0.38
  9
$DIMRND
 40
0.0
  9
$DIMDLE
 40
0.0
  9
$DIMEXE
 40
0.18
  9
$DIMTP
 40
0.0
  9
$DIMTM
 40
0.0
  9
$DIMTXT
 40
0.18
  9
$DIMCEN
 40
0.09
  9
$DIMTSZ
 40
0.0
  9
$DIMTOL
 70
     0
  9
$DIMLIM
 70
     0
  9
$DIMTIH
 70
     1
  9
$DIMTOH
 70
     1
  9
$DIMSE1
 70
     0
  9
$DIMSE2
 70
     0
  9
$DIMTAD
 70
     0
  9
$DIMZIN
 70
     0
  9
$DIMBLK
  1

  9
$DIMASO
 70
     1
  9
$DIMSHO
 70
     1
  9
$DIMPOST
  1

  9
$DIMAPOST
  1

  9
$DIMALT
 70
     0
  9
$DIMALTD
 70
     2
  9
$DIMALTF
 40
25.4
  9
$DIMLFAC
 40
1.0
  9
$DIMTOFL
 70
     0
  9
$DIMTVP
 40
0.0
  9
$DIMTIX
 70
     0
  9
$DIMSOXD
 70
     0
  9
$DIMSAH
 70
     0
  9
$DIMBLK1
  1

  9
$DIMBLK2
  1

  9
$DIMSTYLE
  2
Standard
  9
$DIMCLRD
 70
     0
  9
$DIMCLRE
 70
     0
  9
$DIMCLRT
 70
     0
  9
$DIMTFAC
 40
1.0
  9
$DIMGAP
 40
0.09
  9
$DIMJUST
 70
     0
  9
$DIMSD1
 70
     0
  9
$DIMSD2
 70
     0
  9
$DIMTOLJ
 70
     1
  9
$DIMTZIN
 70
     0
  9
$DIMALTZ
 70
     0
  9
$DIMALTTZ
 70
     0
  9
$DIMUPT
 70
     0
  9
$DIMDEC
 70
     4
  9
$DIMTDEC
 70
     4
  9
$DIMALTU
 70
     2
  9
$DIMALTTD
 70
     2
  9
$DIMTXSTY
  7
STANDARD
  9
$DIMAUNIT
 70
     0
  9
$DIMADEC
 70
     0
  9
$DIMALTRND
 40
0.0
  9
$DIMAZIN
 70
     0
  9
$DIMDSEP
 70
    46
  9
$DIMATFIT
 70
     3
  9
$DIMFRAC
 70
     0
  9
$DIMLDRBLK
  1

  9
$DIMLUNIT
 70
     2
  9
$DIMLWD
 70
    -2
  9
$DIMLWE
 70
    -2
  9
$DIMTMOVE
 70
     0
  9
$DIMFXL
 40
1.0
  9
$DIMFXLON
 70
     0
  9
$DIMJOGANG
 40
0.7853981633974483
  9
$DIMTFILL
 70
     0
  9
$DIMTFILLCLR
 70
     0
  9
$DIMARCSYM
 70
     0
  9
$DIMLTYPE
  6

  9
$DIMLTEX1
  6

  9
$DIMLTEX2
  6

  9
$DIMTXTDIRECTION
 70
     0
  9
$LUNITS
 70
     2
  9
$LUPREC
 70
     4
  9
$SKETCHINC
 40
0.1
  9
$FILLETRAD
 40
0.0
  9
$AUNITS
 70
     0
  9
$AUPREC
 70
     0
  9
$MENU
  1
.
  9
$ELEVATION
 40
0.0
  9
$PELEVATION
 40
0.0
  9
$THICKNESS
 40
0.0
  9
$LIMCHECK
 70
     0
  9
$CHAMFERA
 40
0.0
  9
$CHAMFERB
 40
0.0
  9
$CHAMFERC
 40
0.0
  9
$CHAMFERD
 40
0.0
  9
$SKPOLY
 70
     0
  9
$TDCREATE
 40
2460600.785590278
  9
$TDUCREATE
 40
2460600.743923611
  9
$TDUPDATE
 40
2460600.787807697
  9
$TDUUPDATE
 40
2460600.74614103
  9
$TDINDWG
 40
0.0
  9
$TDUSRTIMER
 40
0.0
  9
$USRTIMER
 70
     1
  9
$ANGBASE
 50
0.0
  9
$ANGDIR
 70
     0
  9
$PDMODE
 70
     0
  9
$PDSIZE
 40
0.0
  9
$PLINEWID
 40
0.0
  9
$SPLFRAME
 70
     0
  9
$SPLINETYPE
 70
     6
  9
$SPLINESEGS
 70
     8
  9
$HANDSEED
  5
100D0
  9
$SURFTAB1
 70
     6
  9
$SURFTAB2
 70
     6
  9
$SURFTYPE
 70
     6
  9
$SURFU
 70
     6
  9
$SURFV
 70
     6
  9
$UCSBASE
  2

  9
$UCSNAME
  2

  9
$UCSORG
 10
0.0
 20
0.0
 30
0.0
  9
$UCSXDIR
 10
1.0
 20
0.0
 30
0.0
  9
$UCSYDIR
 10
0.0
 20
1.0
 30
0.0
  9
$UCSORTHOREF
  2

  9
$UCSORTHOVIEW
 70
     0
  9
$UCSORGTOP
 10
0.0
 20
0.0
 30
0.0
  9
$UCSORGBOTTOM
 10
0.0
 20
0.0
 30
0.0
  9
$UCSORGLEFT
 10
0.0
 20
0.0
 30
0.0
  9
$UCSORGRIGHT
 10
0.0
 20
0.0
 30
0.0
  9
$UCSORGFRONT
 10
0.0
 20
0.0
 30
0.0
  9
$UCSORGBACK
 10
0.0
 20
0.0
 30
0.0
  9
$PUCSBASE
  2

  9
$PUCSNAME
  2

  9
$PUCSORG
 10
0.0
 20
0.0
 30
0.0
  9
$PUCSXDIR
 10
1.0
 20
0.0
 30
0.0
  9
$PUCSYDIR
 10
0.0
 20
1.0
 30
0.0
  9
$PUCSORTHOREF
  2

  9
$PUCSORTHOVIEW
 70
     0
  9
$PUCSORGTOP
 10
0.0
 20
0.0
 30
0.0
  9
$PUCSORGBOTTOM
 10
0.0
 20
0.0
 30
0.0
  9
$PUCSORGLEFT
 10
0.0
 20
0.0
 30
0.0
  9
$PUCSORGRIGHT
 10
0.0
 20
0.0
 30
0.0
  9
$PUCSORGFRONT
 10
0.0
 20
0.0
 30
0.0
  9
$PUCSORGBACK
 10
0.0
 20
0.0
 30
0.0
  9
$USERI1
 70
     0
  9
$USERI2
 70
     0
  9
$USERI3
 70
     0
  9
$USERI4
 70
     0
  9
$USERI5
 70
     0
  9
$USERR1
 40
0.0
  9
$USERR2
 40
0.0
  9
$USERR3
 40
0.0
  9
$USERR4
 40
0.0
  9
$USERR5
 40
0.0
  9
$WORLDVIEW
 70
     1
  9
$SHADEDGE
 70
     3
  9
$SHADEDIF
 70
    70
  9
$TILEMODE
 70
     1
  9
$MAXACTVP
 70
    64
  9
$PINSBASE
 10
0.0
 20
0.0
 30
0.0
  9
$PLIMCHECK
 70
     0
  9
$PEXTMIN
 10
1.000000000000000E+20
 20
1.000000000000000E+20
 30
1.000000000000000E+20
  9
$PEXTMAX
 10
-1.000000000000000E+20
 20
-1.000000000000000E+20
 30
-1.000000000000000E+20
  9
$PLIMMIN
 10
0.0
 20
0.0
  9
$PLIMMAX
 10
420.0
 20
297.0
  9
$UNITMODE
 70
     0
  9
$VISRETAIN
 70
     1
  9
$PLINEGEN
 70
     0
  9
$PSLTSCALE
 70
     1
  9
$TREEDEPTH
 70
  3020
  9
$CMLSTYLE
  2
Standard
  9
$CMLJUST
 70
     0
  9
$CMLSCALE
 40
1.0
  9
$PROXYGRAPHICS
 70
     1
  9
$MEASUREMENT
 70
     0
  9
$CELWEIGHT
370
    -1
  9
$ENDCAPS
280
     0
  9
$JOINSTYLE
280
     0
  9
$LWDISPLAY
290
     0
  9
$INSUNITS
 70
     4
  9
$HYPERLINKBASE
  1

  9
$STYLESHEET
  1

  9
$XEDIT
290
     1
  9
$CEPSNTYPE
380
     0
  9
$PSTYLEMODE
290
     1
  9
$FINGERPRINTGUID
  2
{9049E1EC-2E3F-442A-AC3A-77032D965641}
  9
$VERSIONGUID
  2
{E9231B52-F837-48AF-AA67-1539ABCDA4CE}
  9
$EXTNAMES
290
     1
  9
$PSVPSCALE
 40
0.0
  9
$OLESTARTUP
290
     0
  9
$SORTENTS
280
   127
  9
$INDEXCTL
280
     0
  9
$HIDETEXT
280
     1
  9
$XCLIPFRAME
280
     2
  9
$HALOGAP
280
     0
  9
$OBSCOLOR
 70
   257
  9
$OBSLTYPE
280
     0
  9
$INTERSECTIONDISPLAY
280
     0
  9
$INTERSECTIONCOLOR
 70
   257
  9
$DIMASSOC
280
     2
  9
$PROJECTNAME
  1

  9
$CAMERADISPLAY
290
     0
  9
$LENSLENGTH
 40
50.0
  9
$CAMERAHEIGHT
 40
0.0
  9
$STEPSPERSEC
 40
2.0
  9
$STEPSIZE
 40
6.0
  9
$3DDWFPREC
 40
2.0
  9
$PSOLWIDTH
 40
0.25
  9
$PSOLHEIGHT
 40
4.0
  9
$LOFTANG1
 40
1.570796326794897
  9
$LOFTANG2
 40
1.570796326794897
  9
$LOFTMAG1
 40
0.0
  9
$LOFTMAG2
 40
0.0
  9
$LOFTPARAM
 70
     7
  9
$LOFTNORMALS
280
     1
  9
$LATITUDE
 40
37.795
  9
$LONGITUDE
 40
-122.394
  9
$NORTHDIRECTION
 40
0.0
  9
$TIMEZONE
 70
 -8000
  9
$LIGHTGLYPHDISPLAY
280
     1
  9
$TILEMODELIGHTSYNCH
280
     1
  9
$CMATERIAL
347
10067
  9
$SOLIDHIST
280
     0
  9
$SHOWHIST
280
     1
  9
$DWFFRAME
280
     2
  9
$DGNFRAME
280
     2
  9
$REALWORLDSCALE
290
     1
  9
$INTERFERECOLOR
 62
   256
  9
$CSHADOW
280
     0
  9
$SHADOWPLANELOCATION
 40
0.0
  0
ENDSEC
  0
SECTION
  2
CLASSES
  0
CLASS
  1
ACDBDICTIONARYWDFLT
  2
AcDbDictionaryWithDefault
  3
ObjectDBX Classes
 90
        0
 91
        3
280
     0
281
     0
  0
CLASS
  1
SUN
  2
AcDbSun
  3
SCENEOE
 90
     1153
 91
        3
280
     0
281
     0
  0
CLASS
  1
VISUALSTYLE
  2
AcDbVisualStyle
  3
ObjectDBX Classes
 90
     4095
 91
        3
280
     0
281
     0
  0
CLASS
  1
MATERIAL
  2
AcDbMaterial
  3
ObjectDBX Classes
 90
     1153
 91
        3
280
     0
281
     0
  0
CLASS
  1
SCALE
  2
AcDbScale
  3
ObjectDBX Classes
 90
     1153
 91
        3
280
     0
281
     0
  0
CLASS
  1
TABLESTYLE
  2
AcDbTableStyle
  3
ObjectDBX Classes
 90
     4095
 91
        3
280
     0
281
     0
  0
CLASS
  1
MLEADERSTYLE
  2
AcDbMLeaderStyle
  3
ACDB_MLEADERSTYLE_CLASS
 90
     4095
 91
        3
280
     0
281
     0
  0
CLASS
  1
DICTIONARYVAR
  2
AcDbDictionaryVar
  3
ObjectDBX Classes
 90
        0
 91
        3
280
     0
281
     0
  0
CLASS
  1
CELLSTYLEMAP
  2
AcDbCellStyleMap
  3
ObjectDBX Classes
 90
     1152
 91
        3
280
     0
281
     0
  0
CLASS
  1
MENTALRAYRENDERSETTINGS
  2
AcDbMentalRayRenderSettings
  3
SCENEOE
 90
     1024
 91
        3
280
     0
281
     0
  0
CLASS
  1
ACDBDETAILVIEWSTYLE
  2
AcDbDetailViewStyle
  3
ObjectDBX Classes
 90
     1025
 91
        3
280
     0
281
     0
  0
CLASS
  1
ACDBSECTIONVIEWSTYLE
  2
AcDbSectionViewStyle
  3
ObjectDBX Classes
 90
     1025
 91
        3
280
     0
281
     0
  0
CLASS
  1
RASTERVARIABLES
  2
AcDbRasterVariables
  3
ISM
 90
        0
 91
        3
280
     0
281
     0
  0
CLASS
  1
ACDBPLACEHOLDER
  2
AcDbPlaceHolder
  3
ObjectDBX Classes
 90
        0
 91
        1
280
     0
281
     0
  0
CLASS
  1
LAYOUT
  2
AcDbLayout
  3
ObjectDBX Classes
 90
        0
 91
        1
280
     0
281
     0
  0
ENDSEC
  0
SECTION
  2
TABLES
  0
TABLE
  2
VPORT
  5
8
330
0
100
AcDbSymbolTable
 70
     1
  0
VPORT
  5
1006A
330
8
100
AcDbSymbolTableRecord
100
AcDbViewportTableRecord
  2
*Active
 70
     0
 10
0.0
 20
0.0
 11
1.0
 21
1.0
 12
0.0
 22
0.0
 13
0.0
 23
0.0
 14
0.5
 24
0.5
 15
0.5
 25
0.5
 16
0.0
 26
0.0
 36
1.0
 17
0.0
 27
0.0
 37
0.0
 40
1000.0
 41
1.34
 42
50.0
 43
0.0
 44
0.0
 50
0.0
 51
0.0
 71
     0
 72
  1000
 73
     1
 74
     3
 75
     0
 76
     0
 77
     0
 78
     0
281
     0
 65
     0
110
0.0
120
0.0
130
0.0
111
1.0
121
0.0
131
0.0
112
0.0
122
1.0
132
0.0
 79
     0
146
0.0
 60
     3
 61
     5
292
     1
282
     1
141
0.0
142
0.0
 63
   256
  0
ENDTAB
  0
TABLE
  2
LTYPE
  5
5
330
0
100
AcDbSymbolTable
 70
     1
  0
LTYPE
  5
10099
330
5
100
AcDbSymbolTableRecord
100
AcDbLinetypeTableRecord
  2
ByBlock
 70
     0
  3

 72
    65
 73
     0
 40
0.0
  0
LTYPE
  5
1009A
330
5
100
AcDbSymbolTableRecord
100
AcDbLinetypeTableRecord
  2
ByLayer
 70
     0
  3

 72
    65
 73
     0
 40
0.0
  0
LTYPE
  5
1006B
330
5
100
AcDbSymbolTableRecord
100
AcDbLinetypeTableRecord
  2
Continuous
 70
     0
  3

 72
    65
 73
     0
 40
0.0
  0
ENDTAB
  0
TABLE
  2
LAYER
  5
2
330
0
100
AcDbSymbolTable
 70
     2
  0
LAYER
  5
50
330
2
100
AcDbSymbolTableRecord
100
AcDbLayerTableRecord
  2
0
 70
     0
 62
     7
  6
Continuous
370
    -3
390
10060
347
10068
348
0
  0
LAYER
  5
1006C
330
2
100
AcDbSymbolTableRecord
100
AcDbLayerTableRecord
  2
Defpoints
 70
     0
 62
     7
  6
Continuous
290
     0
370
    -3
390
10060
347
10068
348
0
  0
ENDTAB
  0
TABLE
  2
STYLE
  5
3
330
0
100
AcDbSymbolTable
 70
     1
  0
STYLE
  5
11
330
3
100
AcDbSymbolTableRecord
100
AcDbTextStyleTableRecord
  2
STANDARD
 70
     0
 40
0.0
 41
1.0
 50
0.0
 71
     0
 42
2.5
  3
txt
  4

  0
ENDTAB
  0
TABLE
  2
VIEW
  5
6
330
0
100
AcDbSymbolTable
 70
     0
  0
ENDTAB
  0
TABLE
  2
UCS
  5
7
330
0
100
AcDbSymbolTable
 70
     0
  0
ENDTAB
  0
TABLE
  2
APPID
  5
9
330
0
100
AcDbSymbolTable
 70
     3
  0
APPID
  5
12
330
9
100
AcDbSymbolTableRecord
100
AcDbRegAppTableRecord
  2
ACAD
 70
     0
  0
APPID
  5
10095
330
9
100
AcDbSymbolTableRecord
100
AcDbRegAppTableRecord
  2
HATCHBACKGROUNDCOLOR
 70
     0
  0
APPID
  5
10096
330
9
100
AcDbSymbolTableRecord
100
AcDbRegAppTableRecord
  2
EZDXF
 70
     0
  0
ENDTAB
  0
TABLE
  2
DIMSTYLE
  5
A
330
0
100
AcDbSymbolTable
 70
     1
100
AcDbDimStyleTable
  0
DIMSTYLE
105
1006D
330
A
100
AcDbSymbolTableRecord
100
AcDbDimStyleTableRecord
  2
Standard
 70
     0
 41
2.5
 42
0.625
 43
3.75
 44
1.25
 73
     0
 74
     0
 77
     1
 78
     8
 79
     3
140
2.5
141
2.5
143
0.03937007874
147
0.625
171
     3
172
     1
178
     0
179
     2
271
     2
272
     2
274
     3
278
    44
283
     0
284
     8
340
11
  0
ENDTAB
  0
TABLE
  2
BLOCK_RECORD
  5
1
330
0
100
AcDbSymbolTable
 70
    20
  0
BLOCK_RECORD
  5
1F
330
1
100
AcDbSymbolTableRecord
100
AcDbBlockTableRecord
  2
*MODEL_SPACE
340
10064
 70
     0
280
     1
281
     0
  0
BLOCK_RECORD
  5
1B
330
1
100
AcDbSymbolTableRecord
100
AcDbBlockTableRecord
  2
*PAPER_SPACE
340
10065
 70
     0
280
     1
281
     0
  0
BLOCK_RECORD
  5
FFFF
330
1
100
AcDbSymbolTableRecord
100
AcDbBlockTableRecord
  2
_CLOSEDFILLED
340
0
 70
     0
280
     1
281
     0
  0
BLOCK_RECORD
  5
10003
330
1
100
AcDbSymbolTableRecord
100
AcDbBlockTableRecord
  2
_NONE
340
0
 70
     0
280
     1
281
     0
  0
BLOCK_RECORD
  5
10006
330
1
100
AcDbSymbolTableRecord
100
AcDbBlockTableRecord
  2
_DATUMFILLED
340
0
 70
     0
280
     1
281
     0
  0
BLOCK_RECORD
  5
1000A
330
1
100
AcDbSymbolTableRecord
100
AcDbBlockTableRecord
  2
_ORIGIN2
340
0
 70
     0
280
     1
281
     0
  0
BLOCK_RECORD
  5
10010
330
1
100
AcDbSymbolTableRecord
100
AcDbBlockTableRecord
  2
_CLOSED
340
0
 70
     0
280
     1
281
     0
  0
BLOCK_RECORD
  5
10015
330
1
100
AcDbSymbolTableRecord
100
AcDbBlockTableRecord
  2
_OBLIQUE
340
0
 70
     0
280
     1
281
     0
  0
BLOCK_RECORD
  5
10019
330
1
100
AcDbSymbolTableRecord
100
AcDbBlockTableRecord
  2
_OPEN90
340
0
 70
     0
280
     1
281
     0
  0
BLOCK_RECORD
  5
1001E
330
1
100
AcDbSymbolTableRecord
100
AcDbBlockTableRecord
  2
_ORIGIN
340
0
 70
     0
280
     1
281
     0
  0
BLOCK_RECORD
  5
10023
330
1
100
AcDbSymbolTableRecord
100
AcDbBlockTableRecord
  2
_OPEN
340
0
 70
     0
280
     1
281
     0
  0
BLOCK_RECORD
  5
10028
330
1
100
AcDbSymbolTableRecord
100
AcDbBlockTableRecord
  2
_DOT
340
0
 70
     0
280
     1
281
     0
  0
BLOCK_RECORD
  5
1002D
330
1
100
AcDbSymbolTableRecord
100
AcDbBlockTableRecord
  2
_SMALL
340
0
 70
     0
280
     1
281
     0
  0
BLOCK_RECORD
  5
10031
330
1
100
AcDbSymbolTableRecord
100
AcDbBlockTableRecord
  2
_DOTBLANK
340
0
 70
     0
280
     1
281
     0
  0
BLOCK_RECORD
  5
10036
330
1
100
AcDbSymbolTableRecord
100
AcDbBlockTableRecord
  2
_OPEN30
340
0
 70
     0
280
     1
281
     0
  0
BLOCK_RECORD
  5
1003B
330
1
100
AcDbSymbolTableRecord
100
AcDbBlockTableRecord
  2
_INTEGRAL
340
0
 70
     0
280
     1
281
     0
  0
BLOCK_RECORD
  5
10040
330
1
100
AcDbSymbolTableRecord
100
AcDbBlockTableRecord
  2
_BOXFILLED
340
0
 70
     0
280
     1
281
     0
  0
BLOCK_RECORD
  5
10045
330
1
100
AcDbSymbolTableRecord
100
AcDbBlockTableRecord
  2
_DATUMBLANK
340
0
 70
     0
280
     1
281
     0
  0
BLOCK_RECORD
  5
10049
330
1
100
AcDbSymbolTableRecord
100
AcDbBlockTableRecord
  2
_CLOSEDBLANK
340
0
 70
     0
280
     1
281
     0
  0
BLOCK_RECORD
  5
1004D
330
1
100
AcDbSymbolTableRecord
100
AcDbBlockTableRecord
  2
_DOTSMALL
340
0
 70
     0
280
     1
281
     0
  0
BLOCK_RECORD
  5
10051
330
1
100
AcDbSymbolTableRecord
100
AcDbBlockTableRecord
  2
_ARCHTICK
340
0
 70
     0
280
     1
281
     0
  0
BLOCK_RECORD
  5
10055
330
1
100
AcDbSymbolTableRecord
100
AcDbBlockTableRecord
  2
_BOXBLANK
340
0
 70
     0
280
     1
281
     0
  0
ENDTAB
  0
ENDSEC
  0
SECTION
  2
BLOCKS
  0
BLOCK
  5
20
330
1F
100
AcDbEntity
  8
0
100
AcDbBlockBegin
  2
*MODEL_SPACE
 70
     0
 10
0.0
 20
0.0
 30
0.0
  3
*MODEL_SPACE
  1

  0
ENDBLK
  5
21
330
1F
100
AcDbEntity
  8
0
100
AcDbBlockEnd
  0
BLOCK
  5
1C
330
1B
100
AcDbEntity
 67
     1
  8
0
100
AcDbBlockBegin
  2
*PAPER_SPACE
 70
     0
 10
0.0
 20
0.0
 30
0.0
  3
*PAPER_SPACE
  1

  0
ENDBLK
  5
1D
330
1B
100
AcDbEntity
 67
     1
  8
0
100
AcDbBlockEnd
  0
BLOCK
  5
10000
330
FFFF
100
AcDbEntity
  8
0
100
AcDbBlockBegin
  2
_CLOSEDFILLED
 70
     0
 10
0.0
 20
0.0
 30
0.0
  3
_CLOSEDFILLED
  1

  0
SOLID
  5
10002
330
FFFF
100
AcDbEntity
  8
0
 62
     0
100
AcDbTrace
 10
-1.0
 20
0.1643989837240254
 30
0.0
 11
0.0
 21
0.0
 31
0.0
 12
-1.0
 22
-0.1643989837240254
 32
0.0
 13
-1.0
 23
-0.1643989837240254
 33
0.0
  0
ENDBLK
  5
10001
330
FFFF
100
AcDbEntity
  8
0
100
AcDbBlockEnd
  0
BLOCK
  5
10004
330
10003
100
AcDbEntity
  8
0
100
AcDbBlockBegin
  2
_NONE
 70
     0
 10
0.0
 20
0.0
 30
0.0
  3
_NONE
  1

  0
ENDBLK
  5
10005
330
10003
100
AcDbEntity
  8
0
100
AcDbBlockEnd
  0
BLOCK
  5
10007
330
10006
100
AcDbEntity
  8
0
100
AcDbBlockBegin
  2
_DATUMFILLED
 70
     0
 10
0.0
 20
0.0
 30
0.0
  3
_DATUMFILLED
  1

  0
SOLID
  5
10009
330
10006
100
AcDbEntity
  8
0
 62
     0
100
AcDbTrace
 10
0.0
 20
0.577350269
 30
0.0
 11
0.0
 21
-0.577350269
 31
0.0
 12
-1.0
 22
0.0
 32
0.0
 13
-1.0
 23
0.0
 33
0.0
  0
ENDBLK
  5
10008
330
10006
100
AcDbEntity
  8
0
100
AcDbBlockEnd
  0
BLOCK
  5
1000B
330
1000A
100
AcDbEntity
  8
0
100
AcDbBlockBegin
  2
_ORIGIN2
 70
     0
 10
0.0
 20
0.0
 30
0.0
  3
_ORIGIN2
  1

  0
CIRCLE
  5
1000D
330
1000A
100
AcDbEntity
  8
0
 62
     0
100
AcDbCircle
 10
0.0
 20
0.0
 30
0.0
 40
0.5
  0
CIRCLE
  5
1000E
330
1000A
100
AcDbEntity
  8
0
 62
     0
100
AcDbCircle
 10
0.0
 20
0.0
 30
0.0
 40
0.25
  0
LINE
  5
1000F
330
1000A
100
AcDbEntity
  8
0
 62
     0
100
AcDbLine
 10
-0.5
 20
0.0
 30
0.0
 11
-1.0
 21
0.0
 31
0.0
  0
ENDBLK
  5
1000C
330
1000A
100
AcDbEntity
  8
0
100
AcDbBlockEnd
  0
BLOCK
  5
10011
330
10010
100
AcDbEntity
  8
0
100
AcDbBlockBegin
  2
_CLOSED
 70
     0
 10
0.0
 20
0.0
 30
0.0
  3
_CLOSED
  1

  0
LWPOLYLINE
  5
10013
330
10010
100
AcDbEntity
  8
0
 62
     0
100
AcDbPolyline
 90
        3
 70
     1
 43
0.0
 10
-1.0
 20
0.1643989837240254
 10
0.0
 20
0.0
 10
-1.0
 20
-0.1643989837240254
  0
LINE
  5
10014
330
10010
100
AcDbEntity
  8
0
 62
     0
100
AcDbLine
 10
0.0
 20
0.0
 30
0.0
 11
-1.0
 21
0.0
 31
0.0
  0
ENDBLK
  5
10012
330
10010
100
AcDbEntity
  8
0
100
AcDbBlockEnd
  0
BLOCK
  5
10016
330
10015
100
AcDbEntity
  8
0
100
AcDbBlockBegin
  2
_OBLIQUE
 70
     0
 10
0.0
 20
0.0
 30
0.0
  3
_OBLIQUE
  1

  0
LINE
  5
10018
330
10015
100
AcDbEntity
  8
0
 62
     0
100
AcDbLine
 10
-0.5
 20
-0.5
 30
0.0
 11
0.5
 21
0.5
 31
0.0
  0
ENDBLK
  5
10017
330
10015
100
AcDbEntity
  8
0
100
AcDbBlockEnd
  0
BLOCK
  5
1001A
330
10019
100
AcDbEntity
  8
0
100
AcDbBlockBegin
  2
_OPEN90
 70
     0
 10
0.0
 20
0.0
 30
0.0
  3
_OPEN90
  1

  0
LWPOLYLINE
  5
1001C
330
10019
100
AcDbEntity
  8
0
 62
     0
100
AcDbPolyline
 90
        3
 70
     0
 43
0.0
 10
-1.0
 20
0.7071067811865475
 10
0.0
 20
0.0
 10
-1.0
 20
-0.7071067811865475
  0
LINE
  5
1001D
330
10019
100
AcDbEntity
  8
0
 62
     0
100
AcDbLine
 10
0.0
 20
0.0
 30
0.0
 11
-1.0
 21
0.0
 31
0.0
  0
ENDBLK
  5
1001B
330
10019
100
AcDbEntity
  8
0
100
AcDbBlockEnd
  0
BLOCK
  5
1001F
330
1001E
100
AcDbEntity
  8
0
100
AcDbBlockBegin
  2
_ORIGIN
 70
     0
 10
0.0
 20
0.0
 30
0.0
  3
_ORIGIN
  1

  0
CIRCLE
  5
10021
330
1001E
100
AcDbEntity
  8
0
 62
     0
100
AcDbCircle
 10
0.0
 20
0.0
 30
0.0
 40
0.5
  0
LINE
  5
10022
330
1001E
100
AcDbEntity
  8
0
 62
     0
100
AcDbLine
 10
0.0
 20
0.0
 30
0.0
 11
-1.0
 21
0.0
 31
0.0
  0
ENDBLK
  5
10020
330
1001E
100
AcDbEntity
  8
0
100
AcDbBlockEnd
  0
BLOCK
  5
10024
330
10023
100
AcDbEntity
  8
0
100
AcDbBlockBegin
  2
_OPEN
 70
     0
 10
0.0
 20
0.0
 30
0.0
  3
_OPEN
  1

  0
LWPOLYLINE
  5
10026
330
10023
100
AcDbEntity
  8
0
 62
     0
100
AcDbPolyline
 90
        3
 70
     0
 43
0.0
 10
-1.0
 20
0.1643989837240254
 10
0.0
 20
0.0
 10
-1.0
 20
-0.1643989837240254
  0
LINE
  5
10027
330
10023
100
AcDbEntity
  8
0
 62
     0
100
AcDbLine
 10
0.0
 20
0.0
 30
0.0
 11
-1.0
 21
0.0
 31
0.0
  0
ENDBLK
  5
10025
330
10023
100
AcDbEntity
  8
0
100
AcDbBlockEnd
  0
BLOCK
  5
10029
330
10028
100
AcDbEntity
  8
0
100
AcDbBlockBegin
  2
_DOT
 70
     0
 10
0.0
 20
0.0
 30
0.0
  3
_DOT
  1

  0
LINE
  5
1002B
330
10028
100
AcDbEntity
  8
0
 62
     0
100
AcDbLine
 10
-0.5
 20
0.0
 30
0.0
 11
-1.0
 21
0.0
 31
0.0
  0
LWPOLYLINE
  5
1002C
330
10028
100
AcDbEntity
  8
0
 62
     0
100
AcDbPolyline
 90
        2
 70
     1
 43
0.5
 10
-0.25
 20
0.0
 42
1.0
 10
0.25
 20
0.0
 42
1.0
  0
ENDBLK
  5
1002A
330
10028
100
AcDbEntity
  8
0
100
AcDbBlockEnd
  0
BLOCK
  5
1002E
330
1002D
100
AcDbEntity
  8
0
100
AcDbBlockBegin
  2
_SMALL
 70
     0
 10
0.0
 20
0.0
 30
0.0
  3
_SMALL
  1

  0
CIRCLE
  5
10030
330
1002D
100
AcDbEntity
  8
0
 62
     0
100
AcDbCircle
 10
0.0
 20
0.0
 30
0.0
 40
0.25
  0
ENDBLK
  5
1002F
330
1002D
100
AcDbEntity
  8
0
100
AcDbBlockEnd
  0
BLOCK
  5
10032
330
10031
100
AcDbEntity
  8
0
100
AcDbBlockBegin
  2
_DOTBLANK
 70
     0
 10
0.0
 20
0.0
 30
0.0
  3
_DOTBLANK
  1

  0
CIRCLE
  5
10034
330
10031
100
AcDbEntity
  8
0
 62
     0
100
AcDbCircle
 10
0.0
 20
0.0
 30
0.0
 40
0.5
  0
LINE
  5
10035
330
10031
100
AcDbEntity
  8
0
 62
     0
100
AcDbLine
 10
-0.5
 20
0.0
 30
0.0
 11
-1.0
 21
0.0
 31
0.0
  0
ENDBLK
  5
10033
330
10031
100
AcDbEntity
  8
0
100
AcDbBlockEnd
  0
BLOCK
  5
10037
330
10036
100
AcDbEntity
  8
0
100
AcDbBlockBegin
  2
_OPEN30
 70
     0
 10
0.0
 20
0.0
 30
0.0
  3
_OPEN30
  1

  0
LWPOLYLINE
  5
10039
330
10036
100
AcDbEntity
  8
0
 62
     0
100
AcDbPolyline
 90
        3
 70
     0
 43
0.0
 10
-1.0
 20
0.2588190451025207
 10
0.0
 20
0.0
 10
-1.0
 20
-0.2588190451025207
  0
LINE
  5
1003A
330
10036
100
AcDbEntity
  8
0
 62
     0
100
AcDbLine
 10
0.0
 20
0.0
 30
0.0
 11
-1.0
 21
0.0
 31
0.0
  0
ENDBLK
  5
10038
330
10036
100
AcDbEntity
  8
0
100
AcDbBlockEnd
  0
BLOCK
  5
1003C
330
1003B
100
AcDbEntity
  8
0
100
AcDbBlockBegin
  2
_INTEGRAL
 70
     0
 10
0.0
 20
0.0
 30
0.0
  3
_INTEGRAL
  1

  0
ARC
  5
1003E
330
1003B
100
AcDbEntity
  8
0
 62
     0
100
AcDbCircle
 10
-0.3535534
 20
0.0
 30
0.0
 40
0.3535534
100
AcDbArc
 50
-90.0
 51
0.0
  0
ARC
  5
1003F
330
1003B
100
AcDbEntity
  8
0
 62
     0
100
AcDbCircle
 10
0.3535534
 20
0.0
 30
0.0
 40
0.3535534
100
AcDbArc
 50
90.0
 51
180.0
  0
ENDBLK
  5
1003D
330
1003B
100
AcDbEntity
  8
0
100
AcDbBlockEnd
  0
BLOCK
  5
10041
330
10040
100
AcDbEntity
  8
0
100
AcDbBlockBegin
  2
_BOXFILLED
 70
     0
 10
0.0
 20
0.0
 30
0.0
  3
_BOXFILLED
  1

  0
SOLID
  5
10043
330
10040
100
AcDbEntity
  8
0
 62
     0
100
AcDbTrace
 10
-0.5
 20
-0.5
 30
0.0
 11
0.5
 21
-0.5
 31
0.0
 12
-0.5
 22
0.5
 32
0.0
 13
0.5
 23
0.5
 33
0.0
  0
LINE
  5
10044
330
10040
100
AcDbEntity
  8
0
 62
     0
100
AcDbLine
 10
-0.5
 20
0.0
 30
0.0
 11
-1.0
 21
0.0
 31
0.0
  0
ENDBLK
  5
10042
330
10040
100
AcDbEntity
  8
0
100
AcDbBlockEnd
  0
BLOCK
  5
10046
330
10045
100
AcDbEntity
  8
0
100
AcDbBlockBegin
  2
_DATUMBLANK
 70
     0
 10
0.0
 20
0.0
 30
0.0
  3
_DATUMBLANK
  1

  0
LWPOLYLINE
  5
10048
330
10045
100
AcDbEntity
  8
0
 62
     0
100
AcDbPolyline
 90
        3
 70
     1
 43
0.0
 10
0.0
 20
0.577350269
 10
0.0
 20
-0.577350269
 10
-1.0
 20
0.0
  0
ENDBLK
  5
10047
330
10045
100
AcDbEntity
  8
0
100
AcDbBlockEnd
  0
BLOCK
  5
1004A
330
10049
100
AcDbEntity
  8
0
100
AcDbBlockBegin
  2
_CLOSEDBLANK
 70
     0
 10
0.0
 20
0.0
 30
0.0
  3
_CLOSEDBLANK
  1

  0
LWPOLYLINE
  5
1004C
330
10049
100
AcDbEntity
  8
0
 62
     0
100
AcDbPolyline
 90
        3
 70
     1
 43
0.0
 10
-1.0
 20
0.1643989837240254
 10
0.0
 20
0.0
 10
-1.0
 20
-0.1643989837240254
  0
ENDBLK
  5
1004B
330
10049
100
AcDbEntity
  8
0
100
AcDbBlockEnd
  0
BLOCK
  5
1004E
330
1004D
100
AcDbEntity
  8
0
100
AcDbBlockBegin
  2
_DOTSMALL
 70
     0
 10
0.0
 20
0.0
 30
0.0
  3
_DOTSMALL
  1

  0
LWPOLYLINE
  5
10050
330
1004D
100
AcDbEntity
  8
0
 62
     0
100
AcDbPolyline
 90
        2
 70
     1
 43
0.125
 10
-0.0625
 20
0.0
 42
1.0
 10
0.0625
 20
0.0
 42
1.0
  0
ENDBLK
  5
1004F
330
1004D
100
AcDbEntity
  8
0
100
AcDbBlockEnd
  0
BLOCK
  5
10052
330
10051
100
AcDbEntity
  8
0
100
AcDbBlockBegin
  2
_ARCHTICK
 70
     0
 10
0.0
 20
0.0
 30
0.0
  3
_ARCHTICK
  1

  0
LWPOLYLINE
  5
10054
330
10051
100
AcDbEntity
  8
0
 62
     0
100
AcDbPolyline
 90
        2
 70
     0
 43
0.15
 10
-0.5
 20
-0.5
 10
0.5
 20
0.5
  0
ENDBLK
  5
10053
330
10051
100
AcDbEntity
  8
0
100
AcDbBlockEnd
  0
BLOCK
  5
10056
330
10055
100
AcDbEntity
  8
0
100
AcDbBlockBegin
  2
_BOXBLANK
 70
     0
 10
0.0
 20
0.0
 30
0.0
  3
_BOXBLANK
  1

  0
LWPOLYLINE
  5
10058
330
10055
100
AcDbEntity
  8
0
 62
     0
100
AcDbPolyline
 90
        4
 70
     1
 43
0.0
 10
-0.5
 20
-0.5
 10
0.5
 20
-0.5
 10
0.5
 20
0.5
 10
-0.5
 20
0.5
  0
LINE
  5
10059
330
10055
100
AcDbEntity
  8
0
 62
     0
100
AcDbLine
 10
-0.5
 20
0.0
 30
0.0
 11
-1.0
 21
0.0
 31
0.0
  0
ENDBLK
  5
10057
330
10055
100
AcDbEntity
  8
0
100
AcDbBlockEnd
  0
ENDSEC
  0
SECTION
  2
ENTITIES
  0
LINE
  5
100
330
1F
100
AcDbEntity
  8
0
100
AcDbLine
 10
304.830393
 20
-113.444607
 30
0.0
 11
307.29816
 21
-110.97684
 31
0.0
  0
ARC
  5
101
330
1F
100
AcDbEntity
  8
0
100
AcDbCircle
 10
21.812529
 20
13.725023
 30
0.0
 40
0.4999770008410372
100
AcDbArc
 50
-0.0026357599288734
 51
90.00332330999998
  0
LINE
  5
102
330
1F
100
AcDbEntity
  8
0
100
AcDbLine
 10
193.7625
 20
9.775
 30
0.0
 11
193.7625
 21
13.725
 31
0.0
  0
ARC
  5
103
330
1F
100
AcDbEntity
  8
0
100
AcDbCircle
 10
295.9517290000001
 20
-112.737577
 30
0.0
 40
0.9999230001125015
100
AcDbArc
 50
224.9962725300009
 51
269.9991405000006
  0
LINE
  5
104
330
1F
100
AcDbEntity
  8
0
100
AcDbLine
 10
317.0875
 20
14.225
 30
0.0
 11
315.001714
 21
14.225
 31
0.0
  0
LINE
  5
105
330
1F
100
AcDbEntity
  8
0
100
AcDbLine
 10
36.60005199999999
 20
-113.2375
 30
0.0
 11
36.60005199999999
 21
-109.7125
 31
0.0
  0
LINE
  5
106
330
1F
100
AcDbEntity
  8
0
100
AcDbLine
 10
301.5375
 20
-109.7125
 30
0.0
 11
301.5375
 21
-113.2375
 31
0.0
  0
ARC
  5
107
330
1F
100
AcDbEntity
  8
0
100
AcDbCircle
 10
34.13382900000001
 20
10.524923
 30
0.0
 40
1.499923000027003
100
AcDbArc
 50
224.9976771099998
 51
269.99965621
  0
LINE
  5
108
330
1F
100
AcDbEntity
  8
0
100
AcDbLine
 10
184.94118
 20
9.024999999999999
 30
0.0
 11
119.85882
 21
9.024999999999999
 31
0.0
  0
ARC
  5
109
330
1F
100
AcDbEntity
  8
0
100
AcDbCircle
 10
204.787552
 20
-109.7125
 30
0.0
 40
1.499999999999986
100
AcDbArc
 50
0.0
 51
180.0
  0
LINE
  5
110
330
1F
100
AcDbEntity
  8
0
100
AcDbLine
 10
34.014265
 20
-113.7375
 30
0.0
 11
36.10005199999999
 21
-113.7375
 31
0.0
  0
ARC
  5
111
330
1F
100
AcDbEntity
  8
0
100
AcDbCircle
 10
304.123229
 20
-112.737477
 30
0.0
 40
1.000056878280428
100
AcDbArc
 50
270.0032657800014
 51
315.0013774056182
  0
ARC
  5
112
330
1F
100
AcDbEntity
  8
0
100
AcDbCircle
 10
300.0375
 20
-109.7125
 30
0.0
 40
1.500000000000021
100
AcDbArc
 50
0.0
 51
180.0
  0
LINE
  5
113
330
1F
100
AcDbEntity
  8
0
100
AcDbLine
 10
107.5375
 20
14.225
 30
0.0
 11
105.451714
 21
14.225
 31
0.0
  0
ARC
  5
114
330
1F
100
AcDbEntity
  8
0
100
AcDbCircle
 10
196.466129
 20
-112.037677
 30
0.0
 40
1.500177003467582
100
AcDbArc
 50
45.00199844000083
 51
89.99610435000032
  0
LINE
  5
115
330
1F
100
AcDbEntity
  8
0
100
AcDbLine
 10
-10.025
 20
-107.5375
 30
0.0
 11
-7.024999999999999
 21
-110.5375
 31
0.0
  0
ARC
  5
116
330
1F
100
AcDbEntity
  8
0
100
AcDbCircle
 10
23.8125
 20
9.775
 30
0.0
 40
1.499999999999999
100
AcDbArc
 50
-180.0
 51
0.0
  0
LINE
  5
117
330
1F
100
AcDbEntity
  8
0
100
AcDbLine
 10
111.0375
 20
13.725
 30
0.0
 11
111.0375
 21
9.775
 31
0.0
  0
ARC
  5
118
330
1F
100
AcDbEntity
  8
0
100
AcDbCircle
 10
195.2625
 20
9.775
 30
0.0
 40
1.500000000000021
100
AcDbArc
 50
-180.0
 51
0.0
  0
ARC
  5
119
330
1F
100
AcDbEntity
  8
0
100
AcDbCircle
 10
197.262529
 20
13.725023
 30
0.0
 40
0.5000290005289698
100
AcDbArc
 50
90.00332330999878
 51
180.0026354500321
  0
LINE
  5
120
330
1F
100
AcDbEntity
  8
0
100
AcDbLine
 10
104.744607
 20
13.932107
 30
0.0
 11
100.27684
 21
9.464340000000002
 31
0.0
  0
ARC
  5
121
330
1F
100
AcDbEntity
  8
0
100
AcDbCircle
 10
119.858829
 20
10.524923
 30
0.0
 40
1.499923000026999
100
AcDbArc
 50
224.9976771100002
 51
269.9996562076758
  0
LINE
  5
122
330
1F
100
AcDbEntity
  8
0
100
AcDbLine
 10
323.173286
 20
14.225
 30
0.0
 11
321.0875
 21
14.225
 31
0.0
  0
ARC
  5
123
330
1F
100
AcDbEntity
  8
0
100
AcDbCircle
 10
19.726729
 20
13.224923
 30
0.0
 40
1.000065364233757
100
AcDbArc
 50
90.00085936999996
 51
134.9974882799998
  0
LINE
  5
124
330
1F
100
AcDbEntity
  8
0
100
AcDbLine
 10
204.52316
 20
9.464340000000002
 30
0.0
 11
200.055393
 21
13.932107
 31
0.0
  0
LINE
  5
125
330
1F
100
AcDbEntity
  8
0
100
AcDbLine
 10
292.77684
 20
-110.97684
 30
0.0
 11
295.244607
 21
-113.444607
 31
0.0
  0
ARC
  5
126
330
1F
100
AcDbEntity
  8
0
100
AcDbCircle
 10
99.21612900000001
 20
10.525123
 30
0.0
 40
1.500122794510503
100
AcDbArc
 50
270.0019479000001
 51
314.9980554759409
  0
ARC
  5
127
330
1F
100
AcDbEntity
  8
0
100
AcDbCircle
 10
202.787529
 20
-113.237477
 30
0.0
 40
0.5000230005289832
100
AcDbArc
 50
270.002635480002
 51
359.9973645199585
  0
ARC
  5
128
330
1F
100
AcDbEntity
  8
0
100
AcDbCircle
 10
34.014329
 20
-112.737377
 30
0.0
 40
1.000123002047751
100
AcDbArc
 50
225.0023900200005
 51
269.9963335210929
  0
LINE
  5
129
330
1F
100
AcDbEntity
  8
0
100
AcDbLine
 10
295.9517140000502
 20
-113.7375
 30
0.0
 11
298.0375
 21
-113.7375
 31
0.0
  0
ARC
  5
130
330
1F
100
AcDbEntity
  8
0
100
AcDbCircle
 10
323.173329
 20
13.225023
 30
0.0
 40
0.9999770009245192
100
AcDbArc
 50
45.00081031999952
 51
90.00246377518467
  0
LINE
  5
131
330
1F
100
AcDbEntity
  8
0
100
AcDbLine
 10
213.108872
 20
-110.5375
 30
0.0
 11
291.71618
 21
-110.5375
 31
0.0
  0
ARC
  5
132
330
1F
100
AcDbEntity
  8
0
100
AcDbCircle
 10
40.100129
 20
-113.237377
 30
0.0
 40
0.5001230059275441
100
AcDbArc
 50
180.0140925899806
 51
269.9911786200006
  0
ARC
  5
133
330
1F
100
AcDbEntity
  8
0
100
AcDbCircle
 10
111.537529
 20
13.725023
 30
0.0
 40
0.5000290005289698
100
AcDbArc
 50
90.0033233100004
 51
180.0026354529363
  0
LINE
  5
134
330
1F
100
AcDbEntity
  8
0
100
AcDbLine
 10
39.60005199999999
 20
-109.7125
 30
0.0
 11
39.60005199999999
 21
-113.2375
 31
0.0
  0
LINE
  5
135
330
1F
100
AcDbEntity
  8
0
100
AcDbLine
 10
-7.025
 20
9.024999999999999
 30
0.0
 11
-10.025
 21
6.025
 31
0.0
  0
ARC
  5
136
330
1F
100
AcDbEntity
  8
0
100
AcDbCircle
 10
36.100029
 20
-113.237477
 30
0.0
 40
0.5000230005289851
100
AcDbArc
 50
270.0026354846224
 51
359.9973645155331
  0
ARC
  5
137
330
1F
100
AcDbEntity
  8
0
100
AcDbCircle
 10
13.491129
 20
10.525123
 30
0.0
 40
1.500122794510503
100
AcDbArc
 50
270.0019479
 51
314.99805548
  0
ARC
  5
138
330
1F
100
AcDbEntity
  8
0
100
AcDbCircle
 10
319.0875
 20
9.775
 30
0.0
 40
1.499999999999986
100
AcDbArc
 50
-180.0
 51
0.0
  0
ARC
  5
139
330
1F
100
AcDbEntity
  8
0
100
AcDbCircle
 10
42.185929
 20
-112.737677
 30
0.0
 40
0.9998108066809397
100
AcDbArc
 50
269.9947851599998
 51
315.0034848799996
  0
LINE
  5
140
330
1F
100
AcDbEntity
  8
0
100
AcDbLine
 10
42.89294499995728
 20
-113.4446070000427
 30
0.0
 11
45.36071199999999
 21
-110.97684
 31
0.0
  0
LINE
  5
141
330
1F
100
AcDbEntity
  8
0
100
AcDbLine
 10
308.76618
 20
9.024999999999999
 30
0.0
 11
205.58382
 21
9.024999999999999
 31
0.0
  0
LINE
  5
142
330
1F
100
AcDbEntity
  8
0
100
AcDbLine
 10
335.6375
 20
9.024999999999999
 30
0.0
 11
329.40882
 21
9.024999999999999
 31
0.0
  0
LINE
  5
143
330
1F
100
AcDbEntity
  8
0
100
AcDbLine
 10
199.348286
 20
14.225
 30
0.0
 11
197.2625
 21
14.225
 31
0.0
  0
ARC
  5
144
330
1F
100
AcDbEntity
  8
0
100
AcDbCircle
 10
302.0375289999999
 20
-113.237477
 30
0.0
 40
0.5000290005289245
100
AcDbArc
 50
180.0026354529363
 51
269.9966770000033
  0
LINE
  5
145
330
1F
100
AcDbEntity
  8
0
100
AcDbLine
 10
46.421372
 20
-110.5375
 30
0.0
 11
196.4662309999133
 21
-110.5375
 31
0.0
  0
LINE
  5
146
330
1F
100
AcDbEntity
  8
0
100
AcDbLine
 10
13.49118000007742
 20
9.025000206356427
 30
0.0
 11
-7.025
 21
9.024999999999999
 31
0.0
  0
LINE
  5
147
330
1F
100
AcDbEntity
  8
0
100
AcDbLine
 10
118.79816
 20
9.464340000000002
 30
0.0
 11
114.330393
 21
13.932107
 31
0.0
  0
LINE
  5
148
330
1F
100
AcDbEntity
  8
0
100
AcDbLine
 10
338.6374999999999
 20
6.025
 30
0.0
 11
335.6375
 21
9.024999999999999
 31
0.0
  0
ARC
  5
149
330
1F
100
AcDbEntity
  8
0
100
AcDbCircle
 10
308.766129
 20
10.525123
 30
0.0
 40
1.500123000866929
100
AcDbArc
 50
270.0019478967747
 51
314.9980554799993
  0
LINE
  5
150
330
1F
100
AcDbEntity
  8
0
100
AcDbLine
 10
25.3125
 20
13.725
 30
0.0
 11
25.3125
 21
9.775
 31
0.0
  0
LINE
  5
151
330
1F
100
AcDbEntity
  8
0
100
AcDbLine
 10
19.01960700002041
 20
13.93210700002041
 30
0.0
 11
14.55184000007514
 21
9.464340000075136
 31
0.0
  0
LINE
  5
152
330
1F
100
AcDbEntity
  8
0
100
AcDbLine
 10
308.35882
 20
-110.5375
 30
0.0
 11
335.6375
 21
-110.5375
 31
0.0
  0
ARC
  5
153
330
1F
100
AcDbEntity
  8
0
100
AcDbCircle
 10
213.108829
 20
-112.037377
 30
0.0
 40
1.499877000616389
100
AcDbArc
 50
89.99835738629541
 51
135.0021609299997
  0
ARC
  5
154
330
1F
100
AcDbEntity
  8
0
100
AcDbCircle
 10
107.537529
 20
13.725023
 30
0.0
 40
0.4999770008410417
100
AcDbArc
 50
-0.0026357599288734
 51
90.00332330808159
  0
LINE
  5
155
330
1F
100
AcDbEntity
  8
0
100
AcDbLine
 10
196.7625
 20
13.72500000002618
 30
0.0
 11
196.7625
 21
9.775
 31
0.0
  0
ARC
  5
156
330
1F
100
AcDbEntity
  8
0
100
AcDbCircle
 10
206.787629
 20
-113.237377
 30
0.0
 40
0.5001230059275485
100
AcDbArc
 50
180.0140925899806
 51
269.9911786200022
  0
ARC
  5
157
330
1F
100
AcDbEntity
  8
0
100
AcDbCircle
 10
308.3588290000001
 20
-112.037577
 30
0.0
 40
1.500060569020468
100
AcDbArc
 50
90.00034376000073
 51
134.9981634288766
  0
ARC
  5
158
330
1F
100
AcDbEntity
  8
0
100
AcDbCircle
 10
298.037529
 20
-113.237477
 30
0.0
 40
0.4999710005290389
100
AcDbArc
 50
269.9966769999975
 51
359.9973642400711
  0
LINE
  5
159
330
1F
100
AcDbEntity
  8
0
100
AcDbLine
 10
203.287552
 20
-113.2374999999596
 30
0.0
 11
203.287552
 21
-109.7125
 31
0.0
  0
ARC
  5
160
330
1F
100
AcDbEntity
  8
0
100
AcDbCircle
 10
38.100052
 20
-109.7125
 30
0.0
 40
1.499999999999999
100
AcDbArc
 50
0.0
 51
180.0
  0
LINE
  5
161
330
1F
100
AcDbEntity
  8
0
100
AcDbLine
 10
-10.025
 20
6.025
 30
0.0
 11
-10.025
 21
-107.5375
 31
0.0
  0
ARC
  5
162
330
1F
100
AcDbEntity
  8
0
100
AcDbCircle
 10
25.812529
 20
13.725023
 30
0.0
 40
0.5000290005289698
100
AcDbArc
 50
90.00332330999957
 51
180.0026354529363
  0
LINE
  5
163
330
1F
100
AcDbEntity
  8
0
100
AcDbLine
 10
193.2625
 20
14.225
 30
0.0
 11
191.176714
 21
14.225
 31
0.0
  0
ARC
  5
164
330
1F
100
AcDbEntity
  8
0
100
AcDbCircle
 10
199.348329
 20
13.225023
 30
0.0
 40
0.9999770009245192
100
AcDbArc
 50
45.00081032000068
 51
90.00246377518303
  0
LINE
  5
165
330
1F
100
AcDbEntity
  8
0
100
AcDbLine
 10
27.898286
 20
14.225
 30
0.0
 11
25.8125
 21
14.225
 31
0.0
  0
ARC
  5
166
330
1F
100
AcDbEntity
  8
0
100
AcDbCircle
 10
208.873429
 20
-112.737677
 30
0.0
 40
0.9998108066809397
100
AcDbArc
 50
269.9947851599994
 51
315.0034848800013
  0
LINE
  5
167
330
1F
100
AcDbEntity
  8
0
100
AcDbLine
 10
99.21618000007743
 20
9.025000206356427
 30
0.0
 11
34.13382000006087
 21
9.025
 31
0.0
  0
LINE
  5
168
330
1F
100
AcDbEntity
  8
0
100
AcDbLine
 10
314.294607
 20
13.932107
 30
0.0
 11
309.8268400000752
 21
9.464340000075136
 31
0.0
  0
ARC
  5
169
330
1F
100
AcDbEntity
  8
0
100
AcDbCircle
 10
29.778629
 20
-112.037677
 30
0.0
 40
1.500177003467585
100
AcDbArc
 50
45.00199843999997
 51
89.99610434999991
  0
LINE
  5
170
330
1F
100
AcDbEntity
  8
0
100
AcDbLine
 10
328.34816
 20
9.464340000000002
 30
0.0
 11
323.880393
 21
13.932107
 31
0.0
  0
LINE
  5
171
330
1F
100
AcDbEntity
  8
0
100
AcDbLine
 10
206.287552
 20
-109.7125
 30
0.0
 11
206.287552
 21
-113.2375
 31
0.0
  0
LINE
  5
172
330
1F
100
AcDbEntity
  8
0
100
AcDbLine
 10
40.10005199999927
 20
-113.7375
 30
0.0
 11
42.185838
 21
-113.7375
 31
0.0
  0
LINE
  5
173
330
1F
100
AcDbEntity
  8
0
100
AcDbLine
 10
302.0375000000205
 20
-113.7375
 30
0.0
 11
304.123286
 21
-113.7375
 31
0.0
  0
LINE
  5
174
330
1F
100
AcDbEntity
  8
0
100
AcDbLine
 10
338.6374999999999
 20
-107.5375
 30
0.0
 11
338.6374999999999
 21
6.025
 31
0.0
  0
LINE
  5
175
330
1F
100
AcDbEntity
  8
0
100
AcDbLine
 10
206.7875519999993
 20
-113.7375
 30
0.0
 11
208.873338
 21
-113.7375
 31
0.0
  0
ARC
  5
176
330
1F
100
AcDbEntity
  8
0
100
AcDbCircle
 10
193.262529
 20
13.725023
 30
0.0
 40
0.4999710005290187
100
AcDbArc
 50
-0.002635758684386
 51
90.00332330807834
  0
ARC
  5
177
330
1F
100
AcDbEntity
  8
0
100
AcDbCircle
 10
109.5375
 20
9.775
 30
0.0
 40
1.500000000000004
100
AcDbArc
 50
-180.0
 51
0.0
  0
ARC
  5
178
330
1F
100
AcDbEntity
  8
0
100
AcDbCircle
 10
317.087529
 20
13.725023
 30
0.0
 40
0.4999770008410238
100
AcDbArc
 50
-0.0026357599288734
 51
90.00332330807181
  0
LINE
  5
179
330
1F
100
AcDbEntity
  8
0
100
AcDbLine
 10
335.6375
 20
-110.5375
 30
0.0
 11
338.6374999999999
 21
-107.5375
 31
0.0
  0
ARC
  5
180
330
1F
100
AcDbEntity
  8
0
100
AcDbCircle
 10
205.583829
 20
10.524923
 30
0.0
 40
1.499923000027012
100
AcDbArc
 50
224.9976771099998
 51
269.9996562076747
  0
LINE
  5
181
330
1F
100
AcDbEntity
  8
0
100
AcDbLine
 10
33.07316
 20
9.464340000000002
 30
0.0
 11
28.605393
 21
13.932107
 31
0.0
  0
LINE
  5
182
330
1F
100
AcDbEntity
  8
0
100
AcDbLine
 10
209.5804449999573
 20
-113.4446070000427
 30
0.0
 11
212.0482119999743
 21
-110.9768400000258
 31
0.0
  0
LINE
  5
183
330
1F
100
AcDbEntity
  8
0
100
AcDbLine
 10
320.5875
 20
13.725
 30
0.0
 11
320.5875
 21
9.775
 31
0.0
  0
ARC
  5
184
330
1F
100
AcDbEntity
  8
0
100
AcDbCircle
 10
113.623329
 20
13.225023
 30
0.0
 40
0.9999770009245192
100
AcDbArc
 50
45.00081032000011
 51
90.00246377999927
  0
LINE
  5
185
330
1F
100
AcDbEntity
  8
0
100
AcDbLine
 10
190.469607
 20
13.932107
 30
0.0
 11
186.00184
 21
9.464340000000002
 31
0.0
  0
ARC
  5
186
330
1F
100
AcDbEntity
  8
0
100
AcDbCircle
 10
184.941129
 20
10.525123
 30
0.0
 40
1.500123000866929
100
AcDbArc
 50
270.0019478967768
 51
314.9980554759413
  0
ARC
  5
187
330
1F
100
AcDbEntity
  8
0
100
AcDbCircle
 10
321.087529
 20
13.725023
 30
0.0
 40
0.5000290005289698
100
AcDbArc
 50
90.00332330999878
 51
180.0026354529363
  0
LINE
  5
188
330
1F
100
AcDbEntity
  8
0
100
AcDbLine
 10
317.5875
 20
9.775
 30
0.0
 11
317.587506000312
 21
13.72499999971289
 31
0.0
  0
ARC
  5
189
330
1F
100
AcDbEntity
  8
0
100
AcDbCircle
 10
191.176729
 20
13.224923
 30
0.0
 40
1.000065364233757
100
AcDbArc
 50
90.00085937000038
 51
134.9974882816536
  0
ARC
  5
190
330
1F
100
AcDbEntity
  8
0
100
AcDbCircle
 10
200.701829
 20
-112.737377
 30
0.0
 40
1.000123002047748
100
AcDbArc
 50
225.0023900200014
 51
269.9963335200016
  0
LINE
  5
191
330
1F
100
AcDbEntity
  8
0
100
AcDbLine
 10
22.3125
 20
9.775
 30
0.0
 11
22.31250600031199
 21
13.72499999971289
 31
0.0
  0
LINE
  5
192
330
1F
100
AcDbEntity
  8
0
100
AcDbLine
 10
113.623285999916
 20
14.225
 30
0.0
 11
111.5375
 21
14.225
 31
0.0
  0
LINE
  5
193
330
1F
100
AcDbEntity
  8
0
100
AcDbLine
 10
197.526892
 20
-110.97684
 30
0.0
 11
199.9946647435277
 21
-113.4446002558344
 31
0.0
  0
ARC
  5
194
330
1F
100
AcDbEntity
  8
0
100
AcDbCircle
 10
105.451729
 20
13.224923
 30
0.0
 40
1.000065364233757
100
AcDbArc
 50
90.00085936999956
 51
134.997488281653
  0
LINE
  5
195
330
1F
100
AcDbEntity
  8
0
100
AcDbLine
 10
21.81249999998325
 20
14.225
 30
0.0
 11
19.726714
 21
14.225
 31
0.0
  0
ARC
  5
196
330
1F
100
AcDbEntity
  8
0
100
AcDbCircle
 10
329.4088290000001
 20
10.524923
 30
0.0
 40
1.499923000026987
100
AcDbArc
 50
224.9976771099998
 51
269.9996562076714
  0
LINE
  5
197
330
1F
100
AcDbEntity
  8
0
100
AcDbLine
 10
108.0375
 20
9.775
 30
0.0
 11
108.037506000312
 21
13.72499999971289
 31
0.0
  0
LINE
  5
198
330
1F
100
AcDbEntity
  8
0
100
AcDbLine
 10
200.7017649999809
 20
-113.7375
 30
0.0
 11
202.7875519999597
 21
-113.7375
 31
0.0
  0
ARC
  5
199
330
1F
100
AcDbEntity
  8
0
100
AcDbCircle
 10
315.001729
 20
13.224923
 30
0.0
 40
1.000065364233757
100
AcDbArc
 50
90.00085936999874
 51
134.9974882816525
  0
LINE
  5
200
330
1F
100
AcDbEntity
  8
0
100
AcDbLine
 10
-7.024999999999999
 20
-110.5375
 30
0.0
 11
29.77873099991324
 21
-110.5375
 31
0.0
  0
ARC
  5
201
330
1F
100
AcDbEntity
  8
0
100
AcDbCircle
 10
46.421329
 20
-112.037377
 30
0.0
 40
1.499877000616389
100
AcDbArc
 50
89.99835738629349
 51
135.0021609286075
  0
LINE
  5
202
330
1F
100
AcDbEntity
  8
0
100
AcDbLine
 10
298.5375
 20
-113.2375000000111
 30
0.0
 11
298.5375
 21
-109.7125
 31
0.0
  0
LINE
  5
203
330
1F
100
AcDbEntity
  8
0
100
AcDbLine
 10
30.839392
 20
-110.97684
 30
0.0
 11
33.30716474352773
 21
-113.4446002558344
 31
0.0
  0
ARC
  5
204
330
1F
100
AcDbEntity
  8
0
100
AcDbCircle
 10
291.716229
 20
-112.037377
 30
0.0
 40
1.499878135612987
100
AcDbArc
 50
44.99800113538417
 51
90.00187181561859
  0
ARC
  5
205
330
1F
100
AcDbEntity
  8
0
100
AcDbCircle
 10
27.898329
 20
13.225023
 30
0.0
 40
0.9999770009245192
100
AcDbArc
 50
45.00081032000011
 51
90.00246377518425
  0
ARC
  5
206
330
1F
100
AcDbEntity
  8
0
100
AcDbCircle
 10
193.262529
 20
13.725023
 30
0.0
 40
0.4999710005290187
100
AcDbArc
 50
-0.002635758684386
 51
90.00332330807834
  0
ARC
  5
207
330
1F
100
AcDbEntity
  8
0
100
AcDbCircle
 10
184.941129
 20
10.525123
 30
0.0
 40
1.500123000866929
100
AcDbArc
 50
270.0019478967768
 51
314.9980554759413
  0
ARC
  5
208
330
1F
100
AcDbEntity
  8
0
100
AcDbCircle
 10
191.176729
 20
13.224923
 30
0.0
 40
1.000065364233757
100
AcDbArc
 50
90.00085937000038
 51
134.9974882816536
  0
ARC
  5
209
330
1F
100
AcDbEntity
  8
0
100
AcDbCircle
 10
200.701829
 20
-112.737377
 30
0.0
 40
1.000123002047748
100
AcDbArc
 50
225.0023900200014
 51
269.9963335200016
  0
ARC
  5
210
330
1F
100
AcDbEntity
  8
0
100
AcDbCircle
 10
113.623329
 20
13.225023
 30
0.0
 40
0.9999770009245192
100
AcDbArc
 50
45.00081032000011
 51
90.00246377999927
  0
ARC
  5
211
330
1F
100
AcDbEntity
  8
0
100
AcDbCircle
 10
208.873429
 20
-112.737677
 30
0.0
 40
0.9998108066809397
100
AcDbArc
 50
269.9947851599994
 51
315.0034848800013
  0
LINE
  5
212
330
1F
100
AcDbEntity
  8
0
100
AcDbLine
 10
107.5375
 20
14.225
 30
0.0
 11
105.451714
 21
14.225
 31
0.0
  0
LINE
  5
213
330
1F
100
AcDbEntity
  8
0
100
AcDbLine
 10
118.79816
 20
9.464340000000002
 30
0.0
 11
114.330393
 21
13.932107
 31
0.0
  0
LINE
  5
214
330
1F
100
AcDbEntity
  8
0
100
AcDbLine
 10
113.623285999916
 20
14.225
 30
0.0
 11
111.5375
 21
14.225
 31
0.0
  0
LINE
  5
215
330
1F
100
AcDbEntity
  8
0
100
AcDbLine
 10
200.7017649999809
 20
-113.7375
 30
0.0
 11
202.7875519999597
 21
-113.7375
 31
0.0
  0
LINE
  5
216
330
1F
100
AcDbEntity
  8
0
100
AcDbLine
 10
203.287552
 20
-113.2374999999596
 30
0.0
 11
203.287552
 21
-109.7125
 31
0.0
  0
LINE
  5
217
330
1F
100
AcDbEntity
  8
0
100
AcDbLine
 10
197.526892
 20
-110.97684
 30
0.0
 11
199.9946647435277
 21
-113.4446002558344
 31
0.0
  0
LINE
  5
218
330
1F
100
AcDbEntity
  8
0
100
AcDbLine
 10
206.287552
 20
-109.7125
 30
0.0
 11
206.287552
 21
-113.2375
 31
0.0
  0
LINE
  5
219
330
1F
100
AcDbEntity
  8
0
100
AcDbLine
 10
193.2625
 20
14.225
 30
0.0
 11
191.176714
 21
14.225
 31
0.0
  0
ARC
  5
220
330
1F
100
AcDbEntity
  8
0
100
AcDbCircle
 10
197.262529
 20
13.725023
 30
0.0
 40
0.5000290005289698
100
AcDbArc
 50
90.00332330999878
 51
180.0026354500321
  0
LINE
  5
221
330
1F
100
AcDbEntity
  8
0
100
AcDbLine
 10
338.6374999999999
 20
-107.5375
 30
0.0
 11
338.6374999999999
 21
6.025
 31
0.0
  0
LINE
  5
222
330
1F
100
AcDbEntity
  8
0
100
AcDbLine
 10
193.7625
 20
9.775
 30
0.0
 11
193.7625
 21
13.725
 31
0.0
  0
ARC
  5
223
330
1F
100
AcDbEntity
  8
0
100
AcDbCircle
 10
205.583829
 20
10.524923
 30
0.0
 40
1.499923000027012
100
AcDbArc
 50
224.9976771099998
 51
269.9996562076747
  0
ARC
  5
224
330
1F
100
AcDbEntity
  8
0
100
AcDbCircle
 10
302.0375289999999
 20
-113.237477
 30
0.0
 40
0.5000290005289245
100
AcDbArc
 50
180.0026354529363
 51
269.9966770000033
  0
LINE
  5
225
330
1F
100
AcDbEntity
  8
0
100
AcDbLine
 10
301.5375
 20
-109.7125
 30
0.0
 11
301.5375
 21
-113.2375
 31
0.0
  0
LINE
  5
226
330
1F
100
AcDbEntity
  8
0
100
AcDbLine
 10
314.294607
 20
13.932107
 30
0.0
 11
309.8268400000752
 21
9.464340000075136
 31
0.0
  0
LINE
  5
227
330
1F
100
AcDbEntity
  8
0
100
AcDbLine
 10
335.6375
 20
-110.5375
 30
0.0
 11
338.6374999999999
 21
-107.5375
 31
0.0
  0
ARC
  5
228
330
1F
100
AcDbEntity
  8
0
100
AcDbCircle
 10
300.0375
 20
-109.7125
 30
0.0
 40
1.500000000000021
100
AcDbArc
 50
0.0
 51
180.0
  0
ARC
  5
229
330
1F
100
AcDbEntity
  8
0
100
AcDbCircle
 10
295.9517290000001
 20
-112.737577
 30
0.0
 40
0.9999230001125015
100
AcDbArc
 50
224.9962725300009
 51
269.9991405000006
  0
ARC
  5
230
330
1F
100
AcDbEntity
  8
0
100
AcDbCircle
 10
317.087529
 20
13.725023
 30
0.0
 40
0.4999770008410238
100
AcDbArc
 50
-0.0026357599288734
 51
90.00332330807181
  0
LINE
  5
231
330
1F
100
AcDbEntity
  8
0
100
AcDbLine
 10
338.6374999999999
 20
6.025
 30
0.0
 11
335.6375
 21
9.024999999999999
 31
0.0
  0
LINE
  5
232
330
1F
100
AcDbEntity
  8
0
100
AcDbLine
 10
295.9517140000502
 20
-113.7375
 30
0.0
 11
298.0375
 21
-113.7375
 31
0.0
  0
LINE
  5
233
330
1F
100
AcDbEntity
  8
0
100
AcDbLine
 10
302.0375000000205
 20
-113.7375
 30
0.0
 11
304.123286
 21
-113.7375
 31
0.0
  0
ARC
  5
234
330
1F
100
AcDbEntity
  8
0
100
AcDbCircle
 10
298.037529
 20
-113.237477
 30
0.0
 40
0.4999710005290389
100
AcDbArc
 50
269.9966769999975
 51
359.9973642400711
  0
ARC
  5
235
330
1F
100
AcDbEntity
  8
0
100
AcDbCircle
 10
308.766129
 20
10.525123
 30
0.0
 40
1.500123000866929
100
AcDbArc
 50
270.0019478967747
 51
314.9980554799993
  0
LINE
  5
236
330
1F
100
AcDbEntity
  8
0
100
AcDbLine
 10
304.830393
 20
-113.444607
 30
0.0
 11
307.29816
 21
-110.97684
 31
0.0
  0
ARC
  5
237
330
1F
100
AcDbEntity
  8
0
100
AcDbCircle
 10
304.123229
 20
-112.737477
 30
0.0
 40
1.000056878280428
100
AcDbArc
 50
270.0032657800014
 51
315.0013774056182
  0
ARC
  5
238
330
1F
100
AcDbEntity
  8
0
100
AcDbCircle
 10
321.087529
 20
13.725023
 30
0.0
 40
0.5000290005289698
100
AcDbArc
 50
90.00332330999878
 51
180.0026354529363
  0
LINE
  5
239
330
1F
100
AcDbEntity
  8
0
100
AcDbLine
 10
328.34816
 20
9.464340000000002
 30
0.0
 11
323.880393
 21
13.932107
 31
0.0
  0
LINE
  5
240
330
1F
100
AcDbEntity
  8
0
100
AcDbLine
 10
308.35882
 20
-110.5375
 30
0.0
 11
335.6375
 21
-110.5375
 31
0.0
  0
LINE
  5
241
330
1F
100
AcDbEntity
  8
0
100
AcDbLine
 10
292.77684
 20
-110.97684
 30
0.0
 11
295.244607
 21
-113.444607
 31
0.0
  0
ARC
  5
242
330
1F
100
AcDbEntity
  8
0
100
AcDbCircle
 10
319.0875
 20
9.775
 30
0.0
 40
1.499999999999986
100
AcDbArc
 50
-180.0
 51
0.0
  0
ARC
  5
243
330
1F
100
AcDbEntity
  8
0
100
AcDbCircle
 10
291.716229
 20
-112.037377
 30
0.0
 40
1.499878135612987
100
AcDbArc
 50
44.99800113538417
 51
90.00187181561859
  0
LINE
  5
244
330
1F
100
AcDbEntity
  8
0
100
AcDbLine
 10
320.5875
 20
13.725
 30
0.0
 11
320.5875
 21
9.775
 31
0.0
  0
LINE
  5
245
330
1F
100
AcDbEntity
  8
0
100
AcDbLine
 10
335.6375
 20
9.024999999999999
 30
0.0
 11
329.40882
 21
9.024999999999999
 31
0.0
  0
ARC
  5
246
330
1F
100
AcDbEntity
  8
0
100
AcDbCircle
 10
308.3588290000001
 20
-112.037577
 30
0.0
 40
1.500060569020468
100
AcDbArc
 50
90.00034376000073
 51
134.9981634288766
  0
ARC
  5
247
330
1F
100
AcDbEntity
  8
0
100
AcDbCircle
 10
323.173329
 20
13.225023
 30
0.0
 40
0.9999770009245192
100
AcDbArc
 50
45.00081031999952
 51
90.00246377518467
  0
LINE
  5
248
330
1F
100
AcDbEntity
  8
0
100
AcDbLine
 10
317.5875
 20
9.775
 30
0.0
 11
317.587506000312
 21
13.72499999971289
 31
0.0
  0
ARC
  5
249
330
1F
100
AcDbEntity
  8
0
100
AcDbCircle
 10
315.001729
 20
13.224923
 30
0.0
 40
1.000065364233757
100
AcDbArc
 50
90.00085936999874
 51
134.9974882816525
  0
ARC
  5
250
330
1F
100
AcDbEntity
  8
0
100
AcDbCircle
 10
329.4088290000001
 20
10.524923
 30
0.0
 40
1.499923000026987
100
AcDbArc
 50
224.9976771099998
 51
269.9996562076714
  0
LINE
  5
251
330
1F
100
AcDbEntity
  8
0
100
AcDbLine
 10
323.173286
 20
14.225
 30
0.0
 11
321.0875
 21
14.225
 31
0.0
  0
LINE
  5
252
330
1F
100
AcDbEntity
  8
0
100
AcDbLine
 10
317.0875
 20
14.225
 30
0.0
 11
315.001714
 21
14.225
 31
0.0
  0
ARC
  5
253
330
1F
100
AcDbEntity
  8
0
100
AcDbCircle
 10
195.2625
 20
9.775
 30
0.0
 40
1.500000000000021
100
AcDbArc
 50
-180.0
 51
0.0
  0
LINE
  5
254
330
1F
100
AcDbEntity
  8
0
100
AcDbLine
 10
196.7625
 20
13.72500000002618
 30
0.0
 11
196.7625
 21
9.775
 31
0.0
  0
ARC
  5
255
330
1F
100
AcDbEntity
  8
0
100
AcDbCircle
 10
199.348329
 20
13.225023
 30
0.0
 40
0.9999770009245192
100
AcDbArc
 50
45.00081032000068
 51
90.00246377518303
  0
LINE
  5
256
330
1F
100
AcDbEntity
  8
0
100
AcDbLine
 10
199.348286
 20
14.225
 30
0.0
 11
197.2625
 21
14.225
 31
0.0
  0
LINE
  5
257
330
1F
100
AcDbEntity
  8
0
100
AcDbLine
 10
204.52316
 20
9.464340000000002
 30
0.0
 11
200.055393
 21
13.932107
 31
0.0
  0
LINE
  5
258
330
1F
100
AcDbEntity
  8
0
100
AcDbLine
 10
298.5375
 20
-113.2375000000111
 30
0.0
 11
298.5375
 21
-109.7125
 31
0.0
  0
ARC
  5
259
330
1F
100
AcDbEntity
  8
0
100
AcDbCircle
 10
46.421329
 20
-112.037377
 30
0.0
 40
1.499877000616389
100
AcDbArc
 50
89.99835738629349
 51
135.0021609286075
  0
ARC
  5
260
330
1F
100
AcDbEntity
  8
0
100
AcDbCircle
 10
42.185929
 20
-112.737677
 30
0.0
 40
0.9998108066809397
100
AcDbArc
 50
269.9947851599998
 51
315.0034848799996
  0
LINE
  5
261
330
1F
100
AcDbEntity
  8
0
100
AcDbLine
 10
30.839392
 20
-110.97684
 30
0.0
 11
33.30716474352773
 21
-113.4446002558344
 31
0.0
  0
LINE
  5
262
330
1F
100
AcDbEntity
  8
0
100
AcDbLine
 10
40.10005199999927
 20
-113.7375
 30
0.0
 11
42.185838
 21
-113.7375
 31
0.0
  0
LINE
  5
263
330
1F
100
AcDbEntity
  8
0
100
AcDbLine
 10
36.60005199999999
 20
-113.2375
 30
0.0
 11
36.60005199999999
 21
-109.7125
 31
0.0
  0
ARC
  5
264
330
1F
100
AcDbEntity
  8
0
100
AcDbCircle
 10
38.100052
 20
-109.7125
 30
0.0
 40
1.499999999999999
100
AcDbArc
 50
0.0
 51
180.0
  0
ARC
  5
265
330
1F
100
AcDbEntity
  8
0
100
AcDbCircle
 10
40.100129
 20
-113.237377
 30
0.0
 40
0.5001230059275441
100
AcDbArc
 50
180.0140925899806
 51
269.9911786200006
  0
ARC
  5
266
330
1F
100
AcDbEntity
  8
0
100
AcDbCircle
 10
34.014329
 20
-112.737377
 30
0.0
 40
1.000123002047751
100
AcDbArc
 50
225.0023900200005
 51
269.9963335210929
  0
ARC
  5
267
330
1F
100
AcDbEntity
  8
0
100
AcDbCircle
 10
36.100029
 20
-113.237477
 30
0.0
 40
0.5000230005289851
100
AcDbArc
 50
270.0026354846224
 51
359.9973645155331
  0
ARC
  5
268
330
1F
100
AcDbEntity
  8
0
100
AcDbCircle
 10
29.778629
 20
-112.037677
 30
0.0
 40
1.500177003467585
100
AcDbArc
 50
45.00199843999997
 51
89.99610434999991
  0
LINE
  5
269
330
1F
100
AcDbEntity
  8
0
100
AcDbLine
 10
34.014265
 20
-113.7375
 30
0.0
 11
36.10005199999999
 21
-113.7375
 31
0.0
  0
LINE
  5
270
330
1F
100
AcDbEntity
  8
0
100
AcDbLine
 10
42.89294499995728
 20
-113.4446070000427
 30
0.0
 11
45.36071199999999
 21
-110.97684
 31
0.0
  0
LINE
  5
271
330
1F
100
AcDbEntity
  8
0
100
AcDbLine
 10
39.60005199999999
 20
-109.7125
 30
0.0
 11
39.60005199999999
 21
-113.2375
 31
0.0
  0
LINE
  5
272
330
1F
100
AcDbEntity
  8
0
100
AcDbLine
 10
46.421372
 20
-110.5375
 30
0.0
 11
196.4662309999133
 21
-110.5375
 31
0.0
  0
LINE
  5
273
330
1F
100
AcDbEntity
  8
0
100
AcDbLine
 10
-10.025
 20
-107.5375
 30
0.0
 11
-7.024999999999999
 21
-110.5375
 31
0.0
  0
LINE
  5
274
330
1F
100
AcDbEntity
  8
0
100
AcDbLine
 10
184.94118
 20
9.024999999999999
 30
0.0
 11
119.85882
 21
9.024999999999999
 31
0.0
  0
ARC
  5
275
330
1F
100
AcDbEntity
  8
0
100
AcDbCircle
 10
21.812529
 20
13.725023
 30
0.0
 40
0.4999770008410372
100
AcDbArc
 50
-0.0026357599288734
 51
90.00332330999998
  0
LINE
  5
276
330
1F
100
AcDbEntity
  8
0
100
AcDbLine
 10
13.49118000007742
 20
9.025000206356427
 30
0.0
 11
-7.025
 21
9.024999999999999
 31
0.0
  0
LINE
  5
277
330
1F
100
AcDbEntity
  8
0
100
AcDbLine
 10
22.3125
 20
9.775
 30
0.0
 11
22.31250600031199
 21
13.72499999971289
 31
0.0
  0
LINE
  5
278
330
1F
100
AcDbEntity
  8
0
100
AcDbLine
 10
21.81249999998325
 20
14.225
 30
0.0
 11
19.726714
 21
14.225
 31
0.0
  0
ARC
  5
279
330
1F
100
AcDbEntity
  8
0
100
AcDbCircle
 10
23.8125
 20
9.775
 30
0.0
 40
1.499999999999999
100
AcDbArc
 50
-180.0
 51
0.0
  0
LINE
  5
280
330
1F
100
AcDbEntity
  8
0
100
AcDbLine
 10
99.21618000007743
 20
9.025000206356427
 30
0.0
 11
34.13382000006087
 21
9.025
 31
0.0
  0
ARC
  5
281
330
1F
100
AcDbEntity
  8
0
100
AcDbCircle
 10
25.812529
 20
13.725023
 30
0.0
 40
0.5000290005289698
100
AcDbArc
 50
90.00332330999957
 51
180.0026354529363
  0
LINE
  5
282
330
1F
100
AcDbEntity
  8
0
100
AcDbLine
 10
-7.024999999999999
 20
-110.5375
 30
0.0
 11
29.77873099991324
 21
-110.5375
 31
0.0
  0
ARC
  5
283
330
1F
100
AcDbEntity
  8
0
100
AcDbCircle
 10
13.491129
 20
10.525123
 30
0.0
 40
1.500122794510503
100
AcDbArc
 50
270.0019479
 51
314.99805548
  0
LINE
  5
284
330
1F
100
AcDbEntity
  8
0
100
AcDbLine
 10
19.01960700002041
 20
13.93210700002041
 30
0.0
 11
14.55184000007514
 21
9.464340000075136
 31
0.0
  0
ARC
  5
285
330
1F
100
AcDbEntity
  8
0
100
AcDbCircle
 10
206.787629
 20
-113.237377
 30
0.0
 40
0.5001230059275485
100
AcDbArc
 50
180.0140925899806
 51
269.9911786200022
  0
LINE
  5
286
330
1F
100
AcDbEntity
  8
0
100
AcDbLine
 10
206.7875519999993
 20
-113.7375
 30
0.0
 11
208.873338
 21
-113.7375
 31
0.0
  0
LINE
  5
287
330
1F
100
AcDbEntity
  8
0
100
AcDbLine
 10
209.5804449999573
 20
-113.4446070000427
 30
0.0
 11
212.0482119999743
 21
-110.9768400000258
 31
0.0
  0
LINE
  5
288
330
1F
100
AcDbEntity
  8
0
100
AcDbLine
 10
104.744607
 20
13.932107
 30
0.0
 11
100.27684
 21
9.464340000000002
 31
0.0
  0
LINE
  5
289
330
1F
100
AcDbEntity
  8
0
100
AcDbLine
 10
-10.025
 20
6.025
 30
0.0
 11
-10.025
 21
-107.5375
 31
0.0
  0
LINE
  5
290
330
1F
100
AcDbEntity
  8
0
100
AcDbLine
 10
213.108872
 20
-110.5375
 30
0.0
 11
291.71618
 21
-110.5375
 31
0.0
  0
LINE
  5
291
330
1F
100
AcDbEntity
  8
0
100
AcDbLine
 10
-7.025
 20
9.024999999999999
 30
0.0
 11
-10.025
 21
6.025
 31
0.0
  0
ARC
  5
292
330
1F
100
AcDbEntity
  8
0
100
AcDbCircle
 10
27.898329
 20
13.225023
 30
0.0
 40
0.9999770009245192
100
AcDbArc
 50
45.00081032000011
 51
90.00246377518425
  0
ARC
  5
293
330
1F
100
AcDbEntity
  8
0
100
AcDbCircle
 10
19.726729
 20
13.224923
 30
0.0
 40
1.000065364233757
100
AcDbArc
 50
90.00085936999996
 51
134.9974882799998
  0
ARC
  5
294
330
1F
100
AcDbEntity
  8
0
100
AcDbCircle
 10
34.13382900000001
 20
10.524923
 30
0.0
 40
1.499923000027003
100
AcDbArc
 50
224.9976771099998
 51
269.99965621
  0
LINE
  5
295
330
1F
100
AcDbEntity
  8
0
100
AcDbLine
 10
33.07316
 20
9.464340000000002
 30
0.0
 11
28.605393
 21
13.932107
 31
0.0
  0
LINE
  5
296
330
1F
100
AcDbEntity
  8
0
100
AcDbLine
 10
27.898286
 20
14.225
 30
0.0
 11
25.8125
 21
14.225
 31
0.0
  0
LINE
  5
297
330
1F
100
AcDbEntity
  8
0
100
AcDbLine
 10
308.76618
 20
9.024999999999999
 30
0.0
 11
205.58382
 21
9.024999999999999
 31
0.0
  0
LINE
  5
298
330
1F
100
AcDbEntity
  8
0
100
AcDbLine
 10
25.3125
 20
13.725
 30
0.0
 11
25.3125
 21
9.775
 31
0.0
  0
LINE
  5
299
330
1F
100
AcDbEntity
  8
0
100
AcDbLine
 10
111.0375
 20
13.725
 30
0.0
 11
111.0375
 21
9.775
 31
0.0
  0
ARC
  5
300
330
1F
100
AcDbEntity
  8
0
100
AcDbCircle
 10
109.5375
 20
9.775
 30
0.0
 40
1.500000000000004
100
AcDbArc
 50
-180.0
 51
0.0
  0
ARC
  5
301
330
1F
100
AcDbEntity
  8
0
100
AcDbCircle
 10
213.108829
 20
-112.037377
 30
0.0
 40
1.499877000616389
100
AcDbArc
 50
89.99835738629541
 51
135.0021609299997
  0
ARC
  5
302
330
1F
100
AcDbEntity
  8
0
100
AcDbCircle
 10
202.787529
 20
-113.237477
 30
0.0
 40
0.5000230005289832
100
AcDbArc
 50
270.002635480002
 51
359.9973645199585
  0
LINE
  5
303
330
1F
100
AcDbEntity
  8
0
100
AcDbLine
 10
190.469607
 20
13.932107
 30
0.0
 11
186.00184
 21
9.464340000000002
 31
0.0
  0
ARC
  5
304
330
1F
100
AcDbEntity
  8
0
100
AcDbCircle
 10
119.858829
 20
10.524923
 30
0.0
 40
1.499923000026999
100
AcDbArc
 50
224.9976771100002
 51
269.9996562076758
  0
ARC
  5
305
330
1F
100
AcDbEntity
  8
0
100
AcDbCircle
 10
105.451729
 20
13.224923
 30
0.0
 40
1.000065364233757
100
AcDbArc
 50
90.00085936999956
 51
134.997488281653
  0
ARC
  5
306
330
1F
100
AcDbEntity
  8
0
100
AcDbCircle
 10
111.537529
 20
13.725023
 30
0.0
 40
0.5000290005289698
100
AcDbArc
 50
90.0033233100004
 51
180.0026354529363
  0
ARC
  5
307
330
1F
100
AcDbEntity
  8
0
100
AcDbCircle
 10
196.466129
 20
-112.037677
 30
0.0
 40
1.500177003467582
100
AcDbArc
 50
45.00199844000083
 51
89.99610435000032
  0
ARC
  5
308
330
1F
100
AcDbEntity
  8
0
100
AcDbCircle
 10
107.537529
 20
13.725023
 30
0.0
 40
0.4999770008410417
100
AcDbArc
 50
-0.0026357599288734
 51
90.00332330808159
  0
ARC
  5
309
330
1F
100
AcDbEntity
  8
0
100
AcDbCircle
 10
99.21612900000001
 20
10.525123
 30
0.0
 40
1.500122794510503
100
AcDbArc
 50
270.0019479000001
 51
314.9980554759409
  0
ARC
  5
310
330
1F
100
AcDbEntity
  8
0
100
AcDbCircle
 10
204.787552
 20
-109.7125
 30
0.0
 40
1.499999999999986
100
AcDbArc
 50
0.0
 51
180.0
  0
LINE
  5
311
330
1F
100
AcDbEntity
  8
0
100
AcDbLine
 10
108.0375
 20
9.775
 30
0.0
 11
108.037506000312
 21
13.72499999971289
 31
0.0
  0
LWPOLYLINE
  5
312
330
1F
100
AcDbEntity
  8
0
100
AcDbPolyline
 90
        8
 70
     1
 43
0.0
 10
97.2875
 20
-68.91250000000001
 42
0.4142135623730951
 10
97.78750000000001
 20
-68.41250000000001
 10
97.78750000000001
 20
-55.41250000000001
 42
0.4142135623730951
 10
97.2875
 20
-54.91250000000001
 10
83.6875
 20
-54.91250000000001
 42
0.4142123908030605
 10
83.1875
 20
-55.41250000000001
 10
83.1875
 20
-68.41250000000001
 42
0.4142123908030605
 10
83.6875
 20
-68.91250000000001
  0
LWPOLYLINE
  5
313
330
1F
100
AcDbEntity
  8
0
100
AcDbPolyline
 90
        8
 70
     1
 43
0.0
 10
93.2125
 20
-73.9625
 42
0.4142123908030501
 10
92.7125
 20
-74.4625
 10
92.7125
 20
-87.4625
 42
0.4142123908030658
 10
93.2125
 20
-87.9625
 10
106.8125
 20
-87.9625
 42
0.4142135623730951
 10
107.3125
 20
-87.4625
 10
107.3125
 20
-74.4625
 42
0.4142135623730951
 10
106.8125
 20
-73.9625
  0
LWPOLYLINE
  5
314
330
1F
100
AcDbEntity
  8
0
100
AcDbPolyline
 90
        8
 70
     1
 43
0.0
 10
102.2375
 20
-68.41250000000001
 42
0.4142123908030397
 10
102.7375
 20
-68.91250000000001
 10
116.3375
 20
-68.91250000000001
 42
0.4142135623730951
 10
116.8375
 20
-68.41250000000001
 10
116.8375
 20
-55.41250000000001
 42
0.4142135623730951
 10
116.3375
 20
-54.91250000000001
 10
102.7375
 20
-54.91250000000001
 42
0.4142123908030397
 10
102.2375
 20
-55.41250000000001
  0
LWPOLYLINE
  5
315
330
1F
100
AcDbEntity
  8
0
100
AcDbPolyline
 90
        8
 70
     1
 43
0.0
 10
97.975
 20
-49.86250000000001
 10
111.575
 20
-49.86250000000001
 42
0.4142135623730951
 10
112.075
 20
-49.36250000000001
 10
112.075
 20
-36.3625
 42
0.4142135623730951
 10
111.575
 20
-35.8625
 10
97.975
 20
-35.8625
 42
0.4142123908030397
 10
97.47500000000001
 20
-36.3625
 10
97.47500000000001
 20
-49.36250000000001
 42
0.4142123908030397
  0
LWPOLYLINE
  5
316
330
1F
100
AcDbEntity
  8
0
100
AcDbPolyline
 90
        8
 70
     1
 43
0.0
 10
78.42499999999998
 20
-49.36250000000001
 42
0.4142123908030449
 10
78.92499999999998
 20
-49.86250000000001
 10
92.525
 20
-49.86250000000001
 42
0.4142135623730951
 10
93.025
 20
-49.36250000000001
 10
93.025
 20
-36.3625
 42
0.4142135623730951
 10
92.525
 20
-35.8625
 10
78.92499999999998
 20
-35.8625
 42
0.4142123908030449
 10
78.42499999999998
 20
-36.3625
  0
LWPOLYLINE
  5
317
330
1F
100
AcDbEntity
  8
0
100
AcDbPolyline
 90
        8
 70
     1
 43
0.0
 10
64.63750000000002
 20
-54.91250000000001
 42
0.4142123908030501
 10
64.1375
 20
-55.41250000000001
 10
64.1375
 20
-68.41250000000001
 42
0.4142123908030501
 10
64.63750000000002
 20
-68.91250000000001
 10
78.23749999999998
 20
-68.91250000000001
 42
0.4142135623730951
 10
78.73749999999998
 20
-68.41250000000001
 10
78.73749999999998
 20
-55.41250000000001
 42
0.4142135623730951
 10
78.23749999999998
 20
-54.91250000000001
  0
LWPOLYLINE
  5
318
330
1F
100
AcDbEntity
  8
0
100
AcDbPolyline
 90
        8
 70
     1
 43
0.0
 10
159.2
 20
-16.8125
 10
145.6
 20
-16.8125
 42
0.4142123908030527
 10
145.1
 20
-17.31250000000001
 10
145.1
 20
-30.3125
 42
0.4142123908030527
 10
145.6
 20
-30.81250000000001
 10
159.2
 20
-30.81250000000001
 42
0.4142135623730951
 10
159.7
 20
-30.3125
 10
159.7
 20
-17.31250000000001
 42
0.4142135623730951
  0
LWPOLYLINE
  5
319
330
1F
100
AcDbEntity
  8
0
100
AcDbPolyline
 90
        8
 70
     1
 43
0.0
 10
112.2625
 20
-73.9625
 42
0.4142123908030397
 10
111.7625
 20
-74.4625
 10
111.7625
 20
-87.4625
 42
0.4142123908030554
 10
112.2625
 20
-87.9625
 10
125.8625
 20
-87.9625
 42
0.4142135623730951
 10
126.3625
 20
-87.4625
 10
126.3625
 20
-74.4625
 42
0.4142135623730951
 10
125.8625
 20
-73.9625
  0
LWPOLYLINE
  5
320
330
1F
100
AcDbEntity
  8
0
100
AcDbPolyline
 90
        8
 70
     1
 43
0.0
 10
69.21249999999999
 20
-74.4625
 42
0.4142135623730951
 10
68.7125
 20
-73.9625
 10
55.1125
 20
-73.9625
 42
0.4142123908030449
 10
54.6125
 20
-74.4625
 10
54.6125
 20
-87.4625
 42
0.4142123908030605
 10
55.1125
 20
-87.9625
 10
68.7125
 20
-87.9625
 42
0.4142135623730951
 10
69.21249999999999
 20
-87.4625
  0
LWPOLYLINE
  5
321
330
1F
100
AcDbEntity
  8
0
100
AcDbPolyline
 90
        8
 70
     1
 43
0.0
 10
73.47499999999998
 20
-49.86250000000001
 42
0.4142135623730951
 10
73.97499999999998
 20
-49.36250000000001
 10
73.97499999999998
 20
-36.3625
 42
0.4142135623730951
 10
73.47499999999998
 20
-35.8625
 10
59.87500000000001
 20
-35.8625
 42
0.4142123908030501
 10
59.375
 20
-36.3625
 10
59.375
 20
-49.36250000000001
 42
0.4142123908030501
 10
59.87500000000001
 20
-49.86250000000001
  0
LWPOLYLINE
  5
322
330
1F
100
AcDbEntity
  8
0
100
AcDbPolyline
 90
        8
 70
     1
 43
0.0
 10
87.76250000000002
 20
-73.9625
 10
74.16249999999998
 20
-73.9625
 42
0.4142123908030397
 10
73.66249999999998
 20
-74.4625
 10
73.66249999999998
 20
-87.4625
 42
0.4142123908030554
 10
74.16249999999998
 20
-87.9625
 10
87.76250000000002
 20
-87.9625
 42
0.4142135623730951
 10
88.2625
 20
-87.4625
 10
88.2625
 20
-74.4625
 42
0.4142135623730951
  0
LWPOLYLINE
  5
323
330
1F
100
AcDbEntity
  8
0
100
AcDbPolyline
 90
        8
 70
     1
 43
0.0
 10
121.2875
 20
-68.41250000000001
 42
0.4142123908030397
 10
121.7875
 20
-68.91250000000001
 10
135.3875
 20
-68.91250000000001
 42
0.4142135623730951
 10
135.8875
 20
-68.41250000000001
 10
135.8875
 20
-55.41250000000001
 42
0.4142135623730951
 10
135.3875
 20
-54.91250000000001
 10
121.7875
 20
-54.91250000000001
 42
0.4142123908030397
 10
121.2875
 20
-55.41250000000001
  0
LWPOLYLINE
  5
324
330
1F
100
AcDbEntity
  8
0
100
AcDbPolyline
 90
        8
 70
     1
 43
0.0
 10
116.525
 20
-49.36250000000001
 42
0.4142123908030397
 10
117.025
 20
-49.86250000000001
 10
130.625
 20
-49.86250000000001
 42
0.4142135623730951
 10
131.125
 20
-49.36250000000001
 10
131.125
 20
-36.3625
 42
0.4142135623730951
 10
130.625
 20
-35.8625
 10
117.025
 20
-35.8625
 42
0.4142123908030397
 10
116.525
 20
-36.3625
  0
CIRCLE
  5
325
330
1F
100
AcDbEntity
  8
0
100
AcDbCircle
 10
90.4875
 20
-80.9625
 30
0.0
 40
1.0
  0
LWPOLYLINE
  5
326
330
1F
100
AcDbEntity
  8
0
100
AcDbPolyline
 90
        8
 70
     1
 43
0.0
 10
131.3125
 20
-73.9625
 42
0.4142123908030501
 10
130.8125
 20
-74.4625
 10
130.8125
 20
-87.4625
 42
0.4142123908030658
 10
131.3125
 20
-87.9625
 10
144.9125
 20
-87.9625
 42
0.4142135623730951
 10
145.4125
 20
-87.4625
 10
145.4125
 20
-74.4625
 42
0.4142135623730951
 10
144.9125
 20
-73.9625
  0
LWPOLYLINE
  5
327
330
1F
100
AcDbEntity
  8
0
100
AcDbPolyline
 90
        8
 70
     1
 43
0.0
 10
26.5375
 20
-54.91250000000001
 42
0.4142123908030501
 10
26.0375
 20
-55.41250000000001
 10
26.0375
 20
-68.41250000000001
 42
0.4142123908030501
 10
26.5375
 20
-68.91250000000001
 10
40.13750000000001
 20
-68.91250000000001
 42
0.4142135623730951
 10
40.6375
 20
-68.41250000000001
 10
40.6375
 20
-55.41250000000001
 42
0.4142135623730951
 10
40.13750000000001
 20
-54.91250000000001
  0
LWPOLYLINE
  5
328
330
1F
100
AcDbEntity
  8
0
100
AcDbPolyline
 90
        8
 70
     1
 43
0.0
 10
163.9625
 20
-73.9625
 10
150.3625
 20
-73.9625
 42
0.4142123908030501
 10
149.8625
 20
-74.4625
 10
149.8625
 20
-87.4625
 42
0.4142123908030658
 10
150.3625
 20
-87.9625
 10
163.9625
 20
-87.9625
 42
0.4142135623730951
 10
164.4625
 20
-87.4625
 10
164.4625
 20
-74.4625
 42
0.4142135623730951
  0
LWPOLYLINE
  5
329
330
1F
100
AcDbEntity
  8
0
100
AcDbPolyline
 90
        8
 70
     1
 43
0.0
 10
283.7125
 20
-93.01249999999999
 42
0.4142123908029929
 10
283.2125
 20
-93.51249999999996
 10
283.2125
 20
-106.5125
 42
0.4142123908030345
 10
283.7125
 20
-107.0125
 10
297.3125
 20
-107.0125
 42
0.4142135623730743
 10
297.8125
 20
-106.5125
 10
297.8125
 20
-93.51249999999996
 42
0.4142135623730951
 10
297.3125
 20
-93.01249999999999
  0
LWPOLYLINE
  5
330
330
1F
100
AcDbEntity
  8
0
100
AcDbPolyline
 90
        8
 70
     1
 43
0.0
 10
187.775
 20
-49.86250000000001
 42
0.4142135623730951
 10
188.275
 20
-49.36250000000001
 10
188.275
 20
-36.3625
 42
0.4142135623730951
 10
187.775
 20
-35.8625
 10
174.175
 20
-35.8625
 42
0.4142123908030605
 10
173.675
 20
-36.3625
 10
173.675
 20
-49.36250000000001
 42
0.4142123908030605
 10
174.175
 20
-49.86250000000001
  0
LWPOLYLINE
  5
331
330
1F
100
AcDbEntity
  8
0
100
AcDbPolyline
 90
        8
 70
     1
 43
0.0
 10
297.8125
 20
-49.36249999999998
 10
297.8125
 20
-36.36249999999998
 42
0.4142135623730951
 10
297.3125
 20
-35.86249999999997
 10
283.7125
 20
-35.86249999999997
 42
0.4142123908029929
 10
283.2125
 20
-36.36249999999998
 10
283.2125
 20
-49.36249999999998
 42
0.4142123908030138
 10
283.7125
 20
-49.86249999999999
 10
297.3125
 20
-49.86249999999999
 42
0.4142135623730743
  0
LWPOLYLINE
  5
332
330
1F
100
AcDbEntity
  8
0
100
AcDbPolyline
 90
        8
 70
     1
 43
0.0
 10
126.55
 20
-30.81250000000001
 10
140.15
 20
-30.81250000000001
 42
0.4142135623730951
 10
140.65
 20
-30.3125
 10
140.65
 20
-17.31250000000001
 42
0.4142135623730951
 10
140.15
 20
-16.8125
 10
126.55
 20
-16.8125
 42
0.4142123908030527
 10
126.05
 20
-17.31250000000001
 10
126.05
 20
-30.3125
 42
0.4142123908030527
  0
LWPOLYLINE
  5
333
330
1F
100
AcDbEntity
  8
0
100
AcDbPolyline
 90
        8
 70
     1
 43
0.0
 10
45.0875
 20
-55.41250000000001
 10
45.0875
 20
-68.41250000000001
 42
0.4142123908030449
 10
45.5875
 20
-68.91250000000001
 10
59.1875
 20
-68.91250000000001
 42
0.4142135623730951
 10
59.6875
 20
-68.41250000000001
 10
59.6875
 20
-55.41250000000001
 42
0.4142135623730951
 10
59.1875
 20
-54.91250000000001
 10
45.5875
 20
-54.91250000000001
 42
0.4142123908030449
  0
LWPOLYLINE
  5
334
330
1F
100
AcDbEntity
  8
0
100
AcDbPolyline
 90
        8
 70
     1
 43
0.0
 10
-6.800000000000001
 20
-30.81250000000001
 10
6.800000000000001
 20
-30.81250000000001
 42
0.4142135623730951
 10
7.3
 20
-30.3125
 10
7.3
 20
-17.31250000000001
 42
0.4142135623730951
 10
6.800000000000001
 20
-16.8125
 10
-6.800000000000001
 20
-16.8125
 42
0.4142123908030488
 10
-7.3
 20
-17.31250000000001
 10
-7.3
 20
-30.3125
 42
0.4142123908030488
  0
CIRCLE
  5
335
330
1F
100
AcDbEntity
  8
0
100
AcDbCircle
 10
33.33750000000001
 20
-80.9625
 30
0.0
 40
1.0
  0
LWPOLYLINE
  5
336
330
1F
100
AcDbEntity
  8
0
100
AcDbPolyline
 90
        8
 70
     1
 43
0.0
 10
150.175
 20
-6.499999999999994
 10
150.175
 20
6.500000000000013
 42
0.4142135623730951
 10
149.675
 20
7.000000000000003
 10
136.075
 20
7.000000000000003
 42
0.4142123908030345
 10
135.575
 20
6.500000000000013
 10
135.575
 20
-6.499999999999994
 42
0.4142123908030345
 10
136.075
 20
-7.000000000000001
 10
149.675
 20
-7.000000000000001
 42
0.4142135623730951
  0
CIRCLE
  5
337
330
1F
100
AcDbEntity
  8
0
100
AcDbCircle
 10
195.2625
 20
0.00000000000001
 30
0.0
 40
0.999999999999983
  0
CIRCLE
  5
338
330
1F
100
AcDbEntity
  8
0
100
AcDbCircle
 10
16.04875
 20
-42.5125
 30
0.0
 40
0.9999999999999989
  0
LWPOLYLINE
  5
339
330
1F
100
AcDbEntity
  8
0
100
AcDbPolyline
 90
        8
 70
     1
 43
0.0
 10
168.725
 20
7.000000000000003
 10
155.125
 20
7.000000000000003
 42
0.4142123908030449
 10
154.625
 20
6.500000000000013
 10
154.625
 20
-6.499999999999994
 42
0.4142123908030449
 10
155.125
 20
-7.000000000000001
 10
168.725
 20
-7.000000000000001
 42
0.4142135623730951
 10
169.225
 20
-6.499999999999994
 10
169.225
 20
6.500000000000013
 42
0.4142135623730951
  0
LWPOLYLINE
  5
340
330
1F
100
AcDbEntity
  8
0
100
AcDbPolyline
 90
        8
 70
     1
 43
0.0
 10
183.5125
 20
-87.4625
 10
183.5125
 20
-74.4625
 42
0.4142135623730951
 10
183.0125
 20
-73.9625
 10
169.4125
 20
-73.9625
 42
0.4142123908030397
 10
168.9125
 20
-74.4625
 10
168.9125
 20
-87.4625
 42
0.4142123908030554
 10
169.4125
 20
-87.9625
 10
183.0125
 20
-87.9625
 42
0.4142135623730951
  0
LWPOLYLINE
  5
341
330
1F
100
AcDbEntity
  8
0
100
AcDbPolyline
 90
        8
 70
     1
 43
0.0
 10
88.45
 20
-30.81250000000001
 10
102.05
 20
-30.81250000000001
 42
0.4142135623730951
 10
102.55
 20
-30.3125
 10
102.55
 20
-17.31250000000001
 42
0.4142135623730951
 10
102.05
 20
-16.8125
 10
88.45
 20
-16.8125
 42
0.4142123908030527
 10
87.95
 20
-17.31250000000001
 10
87.95
 20
-30.3125
 42
0.4142123908030527
  0
CIRCLE
  5
342
330
1F
100
AcDbEntity
  8
0
100
AcDbCircle
 10
138.1125
 20
-61.9125
 30
0.0
 40
1.000000000000001
  0
LWPOLYLINE
  5
343
330
1F
100
AcDbEntity
  8
0
100
AcDbPolyline
 90
        8
 70
     1
 43
0.0
 10
192.5375
 20
-54.91250000000001
 10
178.9375
 20
-54.91250000000001
 42
0.4142123908030397
 10
178.4375
 20
-55.41250000000001
 10
178.4375
 20
-68.41250000000001
 42
0.4142123908030397
 10
178.9375
 20
-68.91250000000001
 10
192.5375
 20
-68.91250000000001
 42
0.4142135623730951
 10
193.0375
 20
-68.41250000000001
 10
193.0375
 20
-55.41250000000001
 42
0.4142135623730951
  0
LWPOLYLINE
  5
344
330
1F
100
AcDbEntity
  8
0
100
AcDbPolyline
 90
        8
 70
     1
 43
0.0
 10
321.3125
 20
-49.36249999999998
 42
0.4142123908030345
 10
321.8125
 20
-49.86249999999999
 10
335.4125
 20
-49.86249999999999
 42
0.4142135623730951
 10
335.9125
 20
-49.36249999999998
 10
335.9125
 20
-36.36249999999998
 42
0.4142135623730951
 10
335.4125
 20
-35.86249999999997
 10
321.8125
 20
-35.86249999999997
 42
0.4142123908030345
 10
321.3125
 20
-36.36249999999998
  0
LWPOLYLINE
  5
345
330
1F
100
AcDbEntity
  8
0
100
AcDbPolyline
 90
        8
 70
     1
 43
0.0
 10
140.3375
 20
-55.41250000000001
 10
140.3375
 20
-68.41250000000001
 42
0.4142123908030501
 10
140.8375
 20
-68.91250000000001
 10
154.4375
 20
-68.91250000000001
 42
0.4142135623730951
 10
154.9375
 20
-68.41250000000001
 10
154.9375
 20
-55.41250000000001
 42
0.4142135623730951
 10
154.4375
 20
-54.91250000000001
 10
140.8375
 20
-54.91250000000001
 42
0.4142123908030501
  0
LWPOLYLINE
  5
346
330
1F
100
AcDbEntity
  8
0
100
AcDbPolyline
 90
        8
 70
     1
 43
0.0
 10
169.225
 20
-49.36250000000001
 10
169.225
 20
-36.3625
 42
0.4142135623730951
 10
168.725
 20
-35.8625
 10
155.125
 20
-35.8625
 42
0.4142123908030501
 10
154.625
 20
-36.3625
 10
154.625
 20
-49.36250000000001
 42
0.4142123908030501
 10
155.125
 20
-49.86250000000001
 10
168.725
 20
-49.86250000000001
 42
0.4142135623730951
  0
LWPOLYLINE
  5
347
330
1F
100
AcDbEntity
  8
0
100
AcDbPolyline
 90
        8
 70
     1
 43
0.0
 10
130.625
 20
-7.000000000000001
 42
0.4142135623730951
 10
131.125
 20
-6.499999999999994
 10
131.125
 20
6.500000000000013
 42
0.4142135623730951
 10
130.625
 20
7.000000000000003
 10
117.025
 20
7.000000000000003
 42
0.4142123908030449
 10
116.525
 20
6.500000000000013
 10
116.525
 20
-6.499999999999994
 42
0.4142123908030449
 10
117.025
 20
-7.000000000000001
  0
LWPOLYLINE
  5
348
330
1F
100
AcDbEntity
  8
0
100
AcDbPolyline
 90
        8
 70
     1
 43
0.0
 10
6.799999999999998
 20
7.000000000000003
 10
-6.799999999999998
 20
7.000000000000003
 42
0.4142123908030417
 10
-7.3
 20
6.500000000000013
 10
-7.3
 20
-6.499999999999994
 42
0.4142123908030417
 10
-6.799999999999998
 20
-7.000000000000001
 10
6.799999999999998
 20
-7.000000000000001
 42
0.4142135623730951
 10
7.3
 20
-6.499999999999994
 10
7.3
 20
6.500000000000013
 42
0.4142135623730951
  0
LWPOLYLINE
  5
349
330
1F
100
AcDbEntity
  8
0
100
AcDbPolyline
 90
        8
 70
     1
 43
0.0
 10
31.3
 20
-16.8125
 42
0.4142123908030501
 10
30.8
 20
-17.31250000000001
 10
30.8
 20
-30.3125
 42
0.4142123908030501
 10
31.3
 20
-30.81250000000001
 10
44.90000000000001
 20
-30.81250000000001
 42
0.4142135623730951
 10
45.4
 20
-30.3125
 10
45.4
 20
-17.31250000000001
 42
0.4142135623730951
 10
44.90000000000001
 20
-16.8125
  0
CIRCLE
  5
350
330
1F
100
AcDbEntity
  8
0
100
AcDbCircle
 10
114.3
 20
0.00000000000001
 30
0.0
 40
0.9999999999999942
  0
LWPOLYLINE
  5
351
330
1F
100
AcDbEntity
  8
0
100
AcDbPolyline
 90
        8
 70
     1
 43
0.0
 10
164.65
 20
-16.8125
 42
0.4142123908030423
 10
164.15
 20
-17.31250000000001
 10
164.15
 20
-30.3125
 42
0.4142123908030423
 10
164.65
 20
-30.81250000000001
 10
178.25
 20
-30.81250000000001
 42
0.4142135623730951
 10
178.75
 20
-30.3125
 10
178.75
 20
-17.31250000000001
 42
0.4142135623730951
 10
178.25
 20
-16.8125
  0
LWPOLYLINE
  5
352
330
1F
100
AcDbEntity
  8
0
100
AcDbPolyline
 90
        8
 70
     1
 43
0.0
 10
183.7
 20
-30.81250000000001
 10
197.3
 20
-30.81250000000001
 42
0.4142135623730951
 10
197.8
 20
-30.3125
 10
197.8
 20
-17.31250000000001
 42
0.4142135623730951
 10
197.3
 20
-16.8125
 10
183.7
 20
-16.8125
 42
0.4142123908030632
 10
183.2
 20
-17.31250000000001
 10
183.2
 20
-30.3125
 42
0.4142123908030632
  0
CIRCLE
  5
353
330
1F
100
AcDbEntity
  8
0
100
AcDbCircle
 10
185.7375
 20
-80.9625
 30
0.0
 40
1.0
  0
LWPOLYLINE
  5
354
330
1F
100
AcDbEntity
  8
0
100
AcDbPolyline
 90
        8
 70
     1
 43
0.0
 10
173.4875
 20
-68.91250000000001
 42
0.4142135623730951
 10
173.9875
 20
-68.41250000000001
 10
173.9875
 20
-55.41250000000001
 42
0.4142135623730951
 10
173.4875
 20
-54.91250000000001
 10
159.8875
 20
-54.91250000000001
 42
0.4142123908030293
 10
159.3875
 20
-55.41250000000001
 10
159.3875
 20
-68.41250000000001
 42
0.4142123908030293
 10
159.8875
 20
-68.91250000000001
  0
LWPOLYLINE
  5
355
330
1F
100
AcDbEntity
  8
0
100
AcDbPolyline
 90
        8
 70
     1
 43
0.0
 10
49.85
 20
-17.31250000000001
 10
49.85
 20
-30.3125
 42
0.4142123908030476
 10
50.35
 20
-30.81250000000001
 10
63.95
 20
-30.81250000000001
 42
0.4142135623730951
 10
64.45
 20
-30.3125
 10
64.45
 20
-17.31250000000001
 42
0.4142135623730951
 10
63.95
 20
-16.8125
 10
50.35
 20
-16.8125
 42
0.4142123908030476
  0
LWPOLYLINE
  5
356
330
1F
100
AcDbEntity
  8
0
100
AcDbPolyline
 90
        8
 70
     1
 43
0.0
 10
192.725
 20
-36.3625
 10
192.725
 20
-49.36250000000001
 42
0.4142123908030605
 10
193.225
 20
-49.86250000000001
 10
206.825
 20
-49.86250000000001
 42
0.4142135623730951
 10
207.325
 20
-49.36250000000001
 10
207.325
 20
-36.3625
 42
0.4142135623730951
 10
206.825
 20
-35.8625
 10
193.225
 20
-35.8625
 42
0.4142123908030605
  0
LWPOLYLINE
  5
357
330
1F
100
AcDbEntity
  8
0
100
AcDbPolyline
 90
        8
 70
     1
 43
0.0
 10
40.325
 20
-36.3625
 10
40.325
 20
-49.36250000000001
 42
0.4142123908030501
 10
40.825
 20
-49.86250000000001
 10
54.425
 20
-49.86250000000001
 42
0.4142135623730951
 10
54.925
 20
-49.36250000000001
 10
54.925
 20
-36.3625
 42
0.4142135623730951
 10
54.425
 20
-35.8625
 10
40.825
 20
-35.8625
 42
0.4142123908030501
  0
LWPOLYLINE
  5
358
330
1F
100
AcDbEntity
  8
0
100
AcDbPolyline
 90
        8
 70
     1
 43
0.0
 10
21.775
 20
-49.86250000000001
 10
35.375
 20
-49.86250000000001
 42
0.4142135623730951
 10
35.875
 20
-49.36250000000001
 10
35.875
 20
-36.3625
 42
0.4142135623730951
 10
35.375
 20
-35.8625
 10
21.775
 20
-35.8625
 42
0.4142123908030449
 10
21.275
 20
-36.3625
 10
21.275
 20
-49.36250000000001
 42
0.4142123908030449
  0
LWPOLYLINE
  5
359
330
1F
100
AcDbEntity
  8
0
100
AcDbPolyline
 90
        8
 70
     1
 43
0.0
 10
136.075
 20
-35.8625
 42
0.4142123908030501
 10
135.575
 20
-36.3625
 10
135.575
 20
-49.36250000000001
 42
0.4142123908030501
 10
136.075
 20
-49.86250000000001
 10
149.675
 20
-49.86250000000001
 42
0.4142135623730951
 10
150.175
 20
-49.36250000000001
 10
150.175
 20
-36.3625
 42
0.4142135623730951
 10
149.675
 20
-35.8625
  0
LWPOLYLINE
  5
360
330
1F
100
AcDbEntity
  8
0
100
AcDbPolyline
 90
        8
 70
     1
 43
0.0
 10
211.775
 20
-36.3625
 10
211.775
 20
-49.36250000000001
 42
0.4142123908030605
 10
212.275
 20
-49.86250000000001
 10
225.875
 20
-49.86250000000001
 42
0.4142135623730951
 10
226.375
 20
-49.36250000000001
 10
226.375
 20
-36.3625
 42
0.4142135623730951
 10
225.875
 20
-35.8625
 10
212.275
 20
-35.8625
 42
0.4142123908030605
  0
LWPOLYLINE
  5
361
330
1F
100
AcDbEntity
  8
0
100
AcDbPolyline
 90
        8
 70
     1
 43
0.0
 10
230.825
 20
-36.3625
 10
230.825
 20
-49.36250000000001
 42
0.4142123908030397
 10
231.325
 20
-49.86250000000001
 10
244.925
 20
-49.86250000000001
 42
0.4142135623730951
 10
245.425
 20
-49.36250000000001
 10
245.425
 20
-36.3625
 42
0.4142135623730951
 10
244.925
 20
-35.8625
 10
231.325
 20
-35.8625
 42
0.4142123908030397
  0
LWPOLYLINE
  5
362
330
1F
100
AcDbEntity
  8
0
100
AcDbPolyline
 90
        8
 70
     1
 43
0.0
 10
316.3625
 20
-87.96249999999998
 42
0.4142135623730951
 10
316.8625
 20
-87.4625
 10
316.8625
 20
-74.46249999999996
 42
0.4142135623730743
 10
316.3625
 20
-73.96249999999999
 10
302.7625
 20
-73.96249999999999
 42
0.4142123908030345
 10
302.2625
 20
-74.4625
 10
302.2625
 20
-87.4625
 42
0.4142123908030138
 10
302.7625
 20
-87.96249999999998
  0
LWPOLYLINE
  5
363
330
1F
100
AcDbEntity
  8
0
100
AcDbPolyline
 90
        8
 70
     1
 43
0.0
 10
283.7125
 20
-30.81249999999998
 10
297.3125
 20
-30.81249999999998
 42
0.4142135623730743
 10
297.8125
 20
-30.31249999999997
 10
297.8125
 20
-17.3125
 42
0.4142135623730951
 10
297.3125
 20
-16.81249999999999
 10
283.7125
 20
-16.81249999999999
 42
0.4142123908030138
 10
283.2125
 20
-17.3125
 10
283.2125
 20
-30.31249999999997
 42
0.4142123908030345
  0
LWPOLYLINE
  5
364
330
1F
100
AcDbEntity
  8
0
100
AcDbPolyline
 90
        8
 70
     1
 43
0.0
 10
197.4875
 20
-68.41250000000001
 42
0.4142123908030397
 10
197.9875
 20
-68.91250000000001
 10
211.5875
 20
-68.91250000000001
 42
0.4142135623730951
 10
212.0875
 20
-68.41250000000001
 10
212.0875
 20
-55.41250000000001
 42
0.4142135623730951
 10
211.5875
 20
-54.91250000000001
 10
197.9875
 20
-54.91250000000001
 42
0.4142123908030397
 10
197.4875
 20
-55.41250000000001
  0
LWPOLYLINE
  5
365
330
1F
100
AcDbEntity
  8
0
100
AcDbPolyline
 90
        8
 70
     1
 43
0.0
 10
235.4
 20
-30.81250000000001
 42
0.4142135623730951
 10
235.9
 20
-30.3125
 10
235.9
 20
-17.31250000000001
 42
0.4142135623730951
 10
235.4
 20
-16.8125
 10
221.8
 20
-16.8125
 42
0.4142123908030632
 10
221.3
 20
-17.31250000000001
 10
221.3
 20
-30.3125
 42
0.4142123908030632
 10
221.8
 20
-30.81250000000001
  0
LWPOLYLINE
  5
366
330
1F
100
AcDbEntity
  8
0
100
AcDbPolyline
 90
        8
 70
     1
 43
0.0
 10
274.0
 20
6.500000000000013
 42
0.4142135623730951
 10
273.5
 20
7.000000000000003
 10
259.9
 20
7.000000000000003
 42
0.4142123908030138
 10
259.3999999999999
 20
6.500000000000013
 10
259.3999999999999
 20
-6.499999999999994
 42
0.4142123908030138
 10
259.9
 20
-7.000000000000001
 10
273.5
 20
-7.000000000000001
 42
0.4142135623730951
 10
274.0
 20
-6.499999999999994
  0
LWPOLYLINE
  5
367
330
1F
100
AcDbEntity
  8
0
100
AcDbPolyline
 90
        8
 70
     1
 43
0.0
 10
302.7625
 20
-16.81249999999999
 42
0.4142123908030345
 10
302.2625
 20
-17.3125
 10
302.2625
 20
-30.31249999999997
 42
0.4142123908030345
 10
302.7625
 20
-30.81249999999998
 10
316.3625
 20
-30.81249999999998
 42
0.4142135623730951
 10
316.8625
 20
-30.31249999999997
 10
316.8625
 20
-17.3125
 42
0.4142135623730951
 10
316.3625
 20
-16.81249999999999
  0
LWPOLYLINE
  5
368
330
1F
100
AcDbEntity
  8
0
100
AcDbPolyline
 90
        8
 70
     1
 43
0.0
 10
316.8625
 20
-106.5125
 10
316.8625
 20
-93.51249999999996
 42
0.4142135623730951
 10
316.3625
 20
-93.01249999999999
 10
302.7625
 20
-93.01249999999999
 42
0.4142123908030138
 10
302.2625
 20
-93.51249999999996
 10
302.2625
 20
-106.5125
 42
0.4142123908030345
 10
302.7625
 20
-107.0125
 10
316.3625
 20
-107.0125
 42
0.4142135623730951
  0
LWPOLYLINE
  5
369
330
1F
100
AcDbEntity
  8
0
100
AcDbPolyline
 90
        8
 70
     1
 43
0.0
 10
221.6125
 20
-74.4625
 42
0.4142135623730951
 10
221.1125
 20
-73.9625
 10
207.5125
 20
-73.9625
 42
0.4142123908030397
 10
207.0125
 20
-74.4625
 10
207.0125
 20
-87.4625
 42
0.4142123908030554
 10
207.5125
 20
-87.9625
 10
221.1125
 20
-87.9625
 42
0.4142135623730951
 10
221.6125
 20
-87.4625
  0
LWPOLYLINE
  5
370
330
1F
100
AcDbEntity
  8
0
100
AcDbPolyline
 90
        8
 70
     1
 43
0.0
 10
335.4125
 20
-30.81249999999998
 42
0.4142135623730951
 10
335.9125
 20
-30.31249999999997
 10
335.9125
 20
-17.3125
 42
0.4142135623730951
 10
335.4125
 20
-16.81249999999999
 10
321.8125
 20
-16.81249999999999
 42
0.4142123908030554
 10
321.3125
 20
-17.3125
 10
321.3125
 20
-30.31249999999997
 42
0.4142123908030554
 10
321.8125
 20
-30.81249999999998
  0
LWPOLYLINE
  5
371
330
1F
100
AcDbEntity
  8
0
100
AcDbPolyline
 90
        8
 70
     1
 43
0.0
 10
230.6375
 20
-54.91250000000001
 10
217.0375
 20
-54.91250000000001
 42
0.4142123908030397
 10
216.5375
 20
-55.41250000000001
 10
216.5375
 20
-68.41250000000001
 42
0.4142123908030397
 10
217.0375
 20
-68.91250000000001
 10
230.6375
 20
-68.91250000000001
 42
0.4142135623730951
 10
231.1375
 20
-68.41250000000001
 10
231.1375
 20
-55.41250000000001
 42
0.4142135623730951
  0
LWPOLYLINE
  5
372
330
1F
100
AcDbEntity
  8
0
100
AcDbPolyline
 90
        8
 70
     1
 43
0.0
 10
302.7625
 20
7.000000000000003
 42
0.4142123908030138
 10
302.2625
 20
6.500000000000013
 10
302.2625
 20
-6.499999999999994
 42
0.4142123908030138
 10
302.7625
 20
-7.000000000000001
 10
316.3625
 20
-7.000000000000001
 42
0.4142135623730951
 10
316.8625
 20
-6.499999999999994
 10
316.8625
 20
6.500000000000013
 42
0.4142135623730951
 10
316.3625
 20
7.000000000000003
  0
CIRCLE
  5
373
330
1F
100
AcDbEntity
  8
0
100
AcDbCircle
 10
300.0375
 20
-23.81249999999999
 30
0.0
 40
1.000000000000003
  0
CIRCLE
  5
374
330
1F
100
AcDbEntity
  8
0
100
AcDbCircle
 10
319.0875
 20
-100.0125
 30
0.0
 40
1.00000000000002
  0
LWPOLYLINE
  5
375
330
1F
100
AcDbEntity
  8
0
100
AcDbPolyline
 90
        8
 70
     1
 43
0.0
 10
297.3125
 20
-7.000000000000001
 42
0.4142135623730743
 10
297.8125
 20
-6.499999999999994
 10
297.8125
 20
6.500000000000013
 42
0.4142135623730951
 10
297.3125
 20
7.000000000000003
 10
283.7125
 20
7.000000000000003
 42
0.4142123908029929
 10
283.2125
 20
6.500000000000013
 10
283.2125
 20
-6.499999999999994
 42
0.4142123908030138
 10
283.7125
 20
-7.000000000000001
  0
LWPOLYLINE
  5
376
330
1F
100
AcDbEntity
  8
0
100
AcDbPolyline
 90
        8
 70
     1
 43
0.0
 10
335.4125
 20
-107.0125
 42
0.4142135623730951
 10
335.9125
 20
-106.5125
 10
335.9125
 20
-93.51249999999996
 42
0.4142135623730951
 10
335.4125
 20
-93.01249999999999
 10
321.8125
 20
-93.01249999999999
 42
0.4142123908030345
 10
321.3125
 20
-93.51249999999996
 10
321.3125
 20
-106.5125
 42
0.4142123908030554
 10
321.8125
 20
-107.0125
  0
CIRCLE
  5
377
330
1F
100
AcDbEntity
  8
0
100
AcDbCircle
 10
319.0875
 20
-42.8625
 30
0.0
 40
0.9999999999999808
  0
LWPOLYLINE
  5
378
330
1F
100
AcDbEntity
  8
0
100
AcDbPolyline
 90
        8
 70
     1
 43
0.0
 10
202.0625
 20
-73.9625
 10
188.4625
 20
-73.9625
 42
0.4142123908030397
 10
187.9625
 20
-74.4625
 10
187.9625
 20
-87.4625
 42
0.4142123908030554
 10
188.4625
 20
-87.9625
 10
202.0625
 20
-87.9625
 42
0.4142135623730951
 10
202.5625
 20
-87.4625
 10
202.5625
 20
-74.4625
 42
0.4142135623730951
  0
LWPOLYLINE
  5
379
330
1F
100
AcDbEntity
  8
0
100
AcDbPolyline
 90
        8
 70
     1
 43
0.0
 10
202.25
 20
-30.3125
 42
0.4142123908030632
 10
202.75
 20
-30.81250000000001
 10
216.35
 20
-30.81250000000001
 42
0.4142135623730951
 10
216.85
 20
-30.3125
 10
216.85
 20
-17.31250000000001
 42
0.4142135623730951
 10
216.35
 20
-16.8125
 10
202.75
 20
-16.8125
 42
0.4142123908030632
 10
202.25
 20
-17.31250000000001
  0
LWPOLYLINE
  5
380
330
1F
100
AcDbEntity
  8
0
100
AcDbPolyline
 90
        8
 70
     1
 43
0.0
 10
12.0625
 20
-36.3625
 42
0.4142123908030476
 10
11.5625
 20
-35.8625
 10
-2.037500000000001
 20
-35.8625
 42
0.4142135623730945
 10
-2.537500000000001
 20
-36.3625
 10
-2.537500000000001
 20
-49.36250000000001
 42
0.4142135623730951
 10
-2.0375
 20
-49.86250000000001
 10
11.5625
 20
-49.86250000000001
 42
0.4142123908030476
 10
12.0625
 20
-49.36250000000001
  0
LWPOLYLINE
  5
381
330
1F
100
AcDbEntity
  8
0
100
AcDbPolyline
 90
        8
 70
     1
 43
0.0
 10
26.35
 20
-30.3125
 10
26.35
 20
-17.31250000000001
 42
0.4142135623730951
 10
25.85
 20
-16.8125
 10
12.25
 20
-16.8125
 42
0.4142123908030501
 10
11.75
 20
-17.31250000000001
 10
11.75
 20
-30.3125
 42
0.4142123908030501
 10
12.25
 20
-30.81250000000001
 10
25.85
 20
-30.81250000000001
 42
0.4142135623730951
  0
CIRCLE
  5
382
330
1F
100
AcDbEntity
  8
0
100
AcDbCircle
 10
219.0842
 20
-23.46250000000001
 30
0.0
 40
1.000000000000012
  0
CIRCLE
  5
383
330
1F
100
AcDbEntity
  8
0
100
AcDbCircle
 10
228.6092
 20
-42.5125
 30
0.0
 40
1.000000000000012
  0
LWPOLYLINE
  5
384
330
1F
100
AcDbEntity
  8
0
100
AcDbPolyline
 90
        8
 70
     1
 43
0.0
 10
50.1625
 20
-87.4625
 10
50.1625
 20
-74.4625
 42
0.4142135623730951
 10
49.66250000000001
 20
-73.9625
 10
36.0625
 20
-73.9625
 42
0.4142123908030476
 10
35.5625
 20
-74.4625
 10
35.5625
 20
-87.4625
 42
0.4142123908030632
 10
36.0625
 20
-87.9625
 10
49.66250000000001
 20
-87.9625
 42
0.4142135623730951
  0
LWPOLYLINE
  5
385
330
1F
100
AcDbEntity
  8
0
100
AcDbPolyline
 90
        8
 70
     1
 43
0.0
 10
-4.418754
 20
-54.91250000000001
 42
0.4142123908030463
 10
-4.918754
 20
-55.41250000000001
 10
-4.918754
 20
-68.41250000000001
 42
0.4142123908030463
 10
-4.418754
 20
-68.91250000000001
 10
13.94375
 20
-68.91250000000001
 42
0.4142135623730951
 10
14.44375
 20
-68.41250000000001
 10
14.44375
 20
-55.41250000000001
 42
0.4142135623730951
 10
13.94375
 20
-54.91250000000001
  0
CIRCLE
  5
386
330
1F
100
AcDbEntity
  8
0
100
AcDbCircle
 10
-7.14375
 20
-61.91250000000001
 30
0.0
 40
1.0
  0
CIRCLE
  5
387
330
1F
100
AcDbEntity
  8
0
100
AcDbCircle
 10
11.90625
 20
0.00000000000001
 30
0.0
 40
0.9999999999999992
  0
CIRCLE
  5
388
330
1F
100
AcDbEntity
  8
0
100
AcDbCircle
 10
277.415625
 20
-100.0125
 30
0.0
 40
0.9999999999999843
  0
CIRCLE
  5
389
330
1F
100
AcDbEntity
  8
0
100
AcDbCircle
 10
138.1125
 20
-61.9125
 30
0.0
 40
1.000000000000001
  0
CIRCLE
  5
390
330
1F
100
AcDbEntity
  8
0
100
AcDbCircle
 10
42.8625
 20
-61.91250000000001
 30
0.0
 40
1.0
  0
CIRCLE
  5
391
330
1F
100
AcDbEntity
  8
0
100
AcDbCircle
 10
142.875
 20
-23.81250000000001
 30
0.0
 40
1.0
  0
LWPOLYLINE
  5
392
330
1F
100
AcDbEntity
  8
0
100
AcDbPolyline
 90
        8
 70
     1
 43
0.0
 10
121.6
 20
-30.3125
 10
121.6
 20
-17.31250000000001
 42
0.4142135623730951
 10
121.1
 20
-16.8125
 10
107.5
 20
-16.8125
 42
0.4142123908030423
 10
107.0
 20
-17.31250000000001
 10
107.0
 20
-30.3125
 42
0.4142123908030423
 10
107.5
 20
-30.81250000000001
 10
121.1
 20
-30.81250000000001
 42
0.4142135623730951
  0
LWPOLYLINE
  5
393
330
1F
100
AcDbEntity
  8
0
100
AcDbPolyline
 90
        8
 70
     1
 43
0.0
 10
302.2625
 20
-49.36249999999998
 42
0.4142123908030138
 10
302.7625
 20
-49.86249999999999
 10
316.3625
 20
-49.86249999999999
 42
0.4142135623730951
 10
316.8625
 20
-49.36249999999998
 10
316.8625
 20
-36.36249999999998
 42
0.4142135623730951
 10
316.3625
 20
-35.86249999999997
 10
302.7625
 20
-35.86249999999997
 42
0.4142123908030138
 10
302.2625
 20
-36.36249999999998
  0
LINE
  5
394
330
1F
100
AcDbEntity
  8
0
100
AcDbLine
 10
12.0625
 20
-49.36250000000001
 30
0.0
 11
12.0625
 21
-36.3625
 31
0.0
  0
CIRCLE
  5
395
330
1F
100
AcDbEntity
  8
0
100
AcDbCircle
 10
228.6092
 20
-42.5125
 30
0.0
 40
1.000000000000012
  0
LINE
  5
396
330
1F
100
AcDbEntity
  8
0
100
AcDbLine
 10
12.0625
 20
-49.36250000000001
 30
0.0
 11
12.0625
 21
-36.3625
 31
0.0
  0
LWPOLYLINE
  5
397
330
1F
100
AcDbEntity
  8
0
100
AcDbPolyline
 90
        8
 70
     1
 43
0.0
 10
69.39999999999999
 20
-30.81250000000001
 10
83.0
 20
-30.81250000000001
 42
0.4142135623730951
 10
83.5
 20
-30.3125
 10
83.5
 20
-17.31250000000001
 42
0.4142135623730951
 10
83.0
 20
-16.8125
 10
69.39999999999999
 20
-16.8125
 42
0.4142123908030423
 10
68.89999999999999
 20
-17.31250000000001
 10
68.89999999999999
 20
-30.3125
 42
0.4142123908030423
  0
CIRCLE
  5
398
330
1F
100
AcDbEntity
  8
0
100
AcDbCircle
 10
66.67500000000001
 20
-23.81250000000001
 30
0.0
 40
1.0
  0
CIRCLE
  5
399
330
1F
100
AcDbEntity
  8
0
100
AcDbCircle
 10
95.25
 20
-42.86250000000001
 30
0.0
 40
1.0
  0
CIRCLE
  5
400
330
1F
100
AcDbEntity
  8
0
100
AcDbCircle
 10
319.0875
 20
0.00000000000001
 30
0.0
 40
1.000000000000005
  0
LWPOLYLINE
  5
401
330
1F
100
AcDbEntity
  8
0
100
AcDbPolyline
 90
        8
 70
     1
 43
0.0
 10
335.4125
 20
-7.000000000000001
 42
0.4142135623730951
 10
335.9125
 20
-6.499999999999994
 10
335.9125
 20
6.500000000000013
 42
0.4142135623730951
 10
335.4125
 20
7.000000000000003
 10
321.8125
 20
7.000000000000003
 42
0.4142123908030345
 10
321.3125
 20
6.500000000000013
 10
321.3125
 20
-6.499999999999994
 42
0.4142123908030345
 10
321.8125
 20
-7.000000000000001
  0
CIRCLE
  5
402
330
1F
100
AcDbEntity
  8
0
100
AcDbCircle
 10
303.609375
 20
-58.34062499999999
 30
0.0
 40
1.000000000000014
  0
CIRCLE
  5
403
330
1F
100
AcDbEntity
  8
0
100
AcDbCircle
 10
138.1125
 20
-61.9125
 30
0.0
 40
1.000000000000001
  0
CIRCLE
  5
404
330
1F
100
AcDbEntity
  8
0
100
AcDbCircle
 10
278.60625
 20
0.00000000000001
 30
0.0
 40
0.9999999999999978
  0
CIRCLE
  5
405
330
1F
100
AcDbEntity
  8
0
100
AcDbCircle
 10
16.04875
 20
-42.5125
 30
0.0
 40
0.9999999999999989
  0
CIRCLE
  5
406
330
1F
100
AcDbEntity
  8
0
100
AcDbCircle
 10
328.6125000000001
 20
-80.9625
 30
0.0
 40
0.9999999999999918
  0
CIRCLE
  5
407
330
1F
100
AcDbEntity
  8
0
100
AcDbCircle
 10
9.524999999999997
 20
-23.81250000000001
 30
0.0
 40
1.0
  0
CIRCLE
  5
408
330
1F
100
AcDbEntity
  8
0
100
AcDbCircle
 10
228.6092
 20
-42.5125
 30
0.0
 40
1.000000000000012
  0
CIRCLE
  5
409
330
1F
100
AcDbEntity
  8
0
100
AcDbCircle
 10
171.45
 20
-42.86250000000001
 30
0.0
 40
1.0
  0
CIRCLE
  5
410
330
1F
100
AcDbEntity
  8
0
100
AcDbCircle
 10
219.0842
 20
-23.46250000000001
 30
0.0
 40
1.000000000000012
  0
CIRCLE
  5
411
330
1F
100
AcDbEntity
  8
0
100
AcDbCircle
 10
219.0842
 20
-23.46250000000001
 30
0.0
 40
1.000000000000012
  0
CIRCLE
  5
412
330
1F
100
AcDbEntity
  8
0
100
AcDbCircle
 10
16.04875
 20
-42.5125
 30
0.0
 40
0.9999999999999989
  0
LWPOLYLINE
  5
1006F
330
1F
100
AcDbEntity
  8
0
100
AcDbPolyline
 90
        8
 70
     1
 43
0.0
 10
240.3499999999999
 20
6.499999999999999
 10
240.3499999999999
 20
-6.499999999999999
 42
0.4142123908030215
 10
240.85
 20
-7.000000000000001
 10
254.45
 20
-7.000000000000001
 42
0.4142135623730951
 10
254.9500000000001
 20
-6.499999999999999
 10
254.9500000000001
 20
6.499999999999999
 42
0.4142135623730951
 10
254.45
 20
7.000000000000001
 10
240.85
 20
7.000000000000001
 42
0.4142123908030215
  0
LWPOLYLINE
  5
10070
330
1F
100
AcDbEntity
  8
0
100
AcDbPolyline
 90
        8
 70
     1
 43
0.0
 10
221.3
 20
6.499999999999999
 10
221.3
 20
-6.499999999999999
 42
0.4142123908030423
 10
221.8
 20
-7.000000000000001
 10
235.3999999999999
 20
-7.000000000000001
 42
0.4142135623731159
 10
235.9000000000001
 20
-6.499999999999999
 10
235.9000000000001
 20
6.499999999999999
 42
0.4142135623730951
 10
235.4
 20
7.000000000000001
 10
221.8
 20
7.000000000000001
 42
0.4142123908030632
  0
LWPOLYLINE
  5
10071
330
1F
100
AcDbEntity
  8
0
100
AcDbPolyline
 90
        8
 70
     1
 43
0.0
 10
49.85
 20
6.499999999999999
 10
49.85
 20
-6.499999999999999
 42
0.4142123908030527
 10
50.35
 20
-7.000000000000001
 10
63.95
 20
-7.000000000000001
 42
0.4142135623731002
 10
64.45
 20
-6.499999999999999
 10
64.45
 20
6.499999999999999
 42
0.4142135623730951
 10
63.95
 20
7.000000000000001
 10
50.35
 20
7.000000000000001
 42
0.4142123908030527
  0
LWPOLYLINE
  5
10072
330
1F
100
AcDbEntity
  8
0
100
AcDbPolyline
 90
        8
 70
     1
 43
0.0
 10
202.25
 20
6.499999999999999
 10
202.25
 20
-6.499999999999999
 42
0.4142123908030215
 10
202.7499999999999
 20
-7.000000000000001
 10
216.35
 20
-7.000000000000001
 42
0.4142135623730951
 10
216.8500000000001
 20
-6.499999999999999
 10
216.8500000000001
 20
6.499999999999999
 42
0.4142135623730951
 10
216.35
 20
7.000000000000001
 10
202.7499999999999
 20
7.000000000000001
 42
0.4142123908030215
  0
LWPOLYLINE
  5
10073
330
1F
100
AcDbEntity
  8
0
100
AcDbPolyline
 90
        8
 70
     1
 43
0.0
 10
173.675
 20
6.499999999999999
 10
173.675
 20
-6.499999999999999
 42
0.4142123908030215
 10
174.175
 20
-7.000000000000001
 10
187.775
 20
-7.000000000000001
 42
0.4142135623730951
 10
188.275
 20
-6.499999999999999
 10
188.275
 20
6.499999999999999
 42
0.4142135623730951
 10
187.775
 20
7.000000000000001
 10
174.175
 20
7.000000000000001
 42
0.4142123908030215
  0
LWPOLYLINE
  5
10074
330
1F
100
AcDbEntity
  8
0
100
AcDbPolyline
 90
        8
 70
     1
 43
0.0
 10
87.95
 20
6.499999999999999
 10
87.95
 20
-6.499999999999999
 42
0.4142123908030527
 10
88.45
 20
-7.000000000000001
 10
102.05
 20
-7.000000000000001
 42
0.4142135623730847
 10
102.55
 20
-6.499999999999999
 10
102.55
 20
6.499999999999999
 42
0.4142135623730951
 10
102.05
 20
7.000000000000001
 10
88.44999999999999
 20
7.000000000000001
 42
0.4142123908030423
  0
LWPOLYLINE
  5
10075
330
1F
100
AcDbEntity
  8
0
100
AcDbPolyline
 90
        8
 70
     1
 43
0.0
 10
30.8
 20
6.499999999999999
 10
30.8
 20
-6.499999999999999
 42
0.4142123908030476
 10
31.3
 20
-7.000000000000001
 10
44.90000000000001
 20
-7.000000000000001
 42
0.4142135623730951
 10
45.4
 20
-6.499999999999999
 10
45.4
 20
6.499999999999999
 42
0.4142135623730951
 10
44.90000000000001
 20
7.000000000000001
 10
31.3
 20
7.000000000000001
 42
0.4142123908030501
  0
LWPOLYLINE
  5
10076
330
1F
100
AcDbEntity
  8
0
100
AcDbPolyline
 90
        8
 70
     1
 43
0.0
 10
68.89999999999999
 20
6.499999999999999
 10
68.89999999999999
 20
-6.499999999999999
 42
0.4142123908030476
 10
69.39999999999999
 20
-7.000000000000001
 10
83.0
 20
-7.000000000000001
 42
0.4142135623730951
 10
83.5
 20
-6.499999999999999
 10
83.5
 20
6.499999999999999
 42
0.4142135623730951
 10
83.0
 20
7.000000000000001
 10
69.4
 20
7.000000000000001
 42
0.4142123908030527
  0
CIRCLE
  5
10077
330
1F
100
AcDbEntity
  8
0
100
AcDbCircle
 10
273.6
 20
-31.0125
 30
0.0
 40
1.0
  0
LWPOLYLINE
  5
10078
330
1F
100
AcDbEntity
  8
0
100
AcDbPolyline
 90
        8
 70
     1
 43
0.0
 10
241.2
 20
-17.3375
 10
241.2
 20
-29.0555
 10
244.2
 20
-30.7875
 10
270.2
 20
-30.7875
 10
273.2
 20
-29.0555
 10
273.2
 20
-17.3375
 42
0.4142135623730951
 10
272.7
 20
-16.8375
 10
241.7
 20
-16.8375
 42
0.4142123908030632
  0
LWPOLYLINE
  5
10079
330
1F
100
AcDbEntity
  8
0
100
AcDbPolyline
 90
        8
 70
     1
 43
0.0
 10
16.5125
 20
-74.4625
 10
16.5125
 20
-87.4625
 42
0.4142123908030501
 10
17.0125
 20
-87.96249999999999
 10
30.6125
 20
-87.96249999999999
 42
0.4142135623730951
 10
31.1125
 20
-87.4625
 10
31.1125
 20
-74.4625
 42
0.4142135623730951
 10
30.6125
 20
-73.9625
 10
17.0125
 20
-73.9625
 42
0.4142123908030449
  0
LWPOLYLINE
  5
1007A
330
1F
100
AcDbEntity
  8
0
100
AcDbPolyline
 90
        8
 70
     1
 43
0.0
 10
-4.918750000000001
 20
-74.4625
 10
-4.918750000000001
 20
-87.4625
 42
0.4142123908030518
 10
-4.41875
 20
-87.96249999999999
 10
9.18125
 20
-87.96249999999999
 42
0.4142135623730951
 10
9.681250000000002
 20
-87.4625
 10
9.681250000000002
 20
-74.4625
 42
0.4142135623730951
 10
9.18125
 20
-73.9625
 10
-4.41875
 20
-73.9625
 42
0.4142123908030466
  0
LWPOLYLINE
  5
1007B
330
1F
100
AcDbEntity
  8
0
100
AcDbPolyline
 90
        8
 70
     1
 43
0.0
 10
252.257046
 20
-74.4625
 10
252.257046
 20
-87.4625
 42
0.4142123908030345
 10
252.757046
 20
-87.9625
 10
266.357046
 20
-87.9625
 42
0.4142135623730951
 10
266.857046
 20
-87.4625
 10
266.857046
 20
-74.4625
 42
0.4142135623730951
 10
266.357046
 20
-73.9625
 10
252.757046
 20
-73.9625
 42
0.4142123908030189
  0
LWPOLYLINE
  5
1007C
330
1F
100
AcDbEntity
  8
0
100
AcDbPolyline
 90
        8
 70
     1
 43
0.0
 10
226.065834
 20
-74.46254800000001
 10
226.065834
 20
-87.46254800000001
 42
0.4142123908030554
 10
226.565834
 20
-87.962548
 10
240.165834
 20
-87.962548
 42
0.4142135623730951
 10
240.665834
 20
-87.46254800000001
 10
240.665834
 20
-74.46254800000001
 42
0.4142135623730951
 10
240.165834
 20
-73.962548
 10
226.565834
 20
-73.962548
 42
0.4142123908030605
  0
CIRCLE
  5
1007D
330
1F
100
AcDbEntity
  8
0
100
AcDbCircle
 10
233.3625
 20
-61.9125
 30
0.0
 40
1.0
  0
CIRCLE
  5
1007E
330
1F
100
AcDbEntity
  8
0
100
AcDbCircle
 10
271.5187500000001
 20
-68.7875
 30
0.0
 40
1.0
  0
LWPOLYLINE
  5
1007F
330
1F
100
AcDbEntity
  8
0
100
AcDbPolyline
 90
        8
 70
     1
 43
0.0
 10
235.59375
 20
-55.41249999999999
 10
235.59375
 20
-68.41250000000001
 42
0.4142123908030345
 10
236.09375
 20
-68.91250000000001
 10
249.69375
 20
-68.91250000000001
 42
0.4142135623730951
 10
250.19375
 20
-68.41250000000001
 10
250.19375
 20
-55.41249999999999
 42
0.4142135623730951
 10
249.69375
 20
-54.91250000000001
 10
236.09375
 20
-54.91250000000001
 42
0.4142123908030397
  0
LWPOLYLINE
  5
10080
330
1F
100
AcDbEntity
  8
0
100
AcDbPolyline
 90
        8
 70
     1
 43
0.0
 10
257.34375
 20
-67.8875
 10
257.34375
 20
-36.8875
 42
-0.4142135623730951
 10
257.84375
 20
-36.3875
 10
269.56175
 20
-36.3875
 10
271.29375
 20
-39.3875
 10
271.29375
 20
-65.3875
 10
269.56175
 20
-68.38750000000002
 10
257.84375
 20
-68.38750000000003
 42
-0.4142123908030449
  0
CIRCLE
  5
10081
330
1F
100
AcDbEntity
  8
0
100
AcDbCircle
 10
61.9125
 20
-100.0125
 30
0.0
 40
1.0
  0
CIRCLE
  5
10082
330
1F
100
AcDbEntity
  8
0
100
AcDbCircle
 10
251.221875
 20
-100.0125
 30
0.0
 40
1.0
  0
CIRCLE
  5
10083
330
1F
100
AcDbEntity
  8
0
100
AcDbCircle
 10
228.6
 20
-100.0125
 30
0.0
 40
1.0
  0
CIRCLE
  5
10084
330
1F
100
AcDbEntity
  8
0
100
AcDbCircle
 10
142.875
 20
-100.0125
 30
0.0
 40
1.0
  0
CIRCLE
  5
10085
330
1F
100
AcDbEntity
  8
0
100
AcDbCircle
 10
204.7875
 20
-100.0125
 30
0.0
 40
1.0
  0
CIRCLE
  5
10086
330
1F
100
AcDbEntity
  8
0
100
AcDbCircle
 10
39.290625
 20
-100.0125
 30
0.0
 40
1.0
  0
CIRCLE
  5
10087
330
1F
100
AcDbEntity
  8
0
100
AcDbCircle
 10
15.478125
 20
-100.0125
 30
0.0
 40
1.0
  0
CIRCLE
  5
10088
330
1F
100
AcDbEntity
  8
0
100
AcDbCircle
 10
171.45
 20
-100.0125
 30
0.0
 40
1.0
  0
CIRCLE
  5
10089
330
1F
100
AcDbEntity
  8
0
100
AcDbCircle
 10
135.4625
 20
-107.2125
 30
0.0
 40
1.0
  0
CIRCLE
  5
1008A
330
1F
100
AcDbEntity
  8
0
100
AcDbCircle
 10
102.6625
 20
-107.2125
 30
0.0
 40
1.0
  0
LWPOLYLINE
  5
1008B
330
1F
100
AcDbEntity
  8
0
100
AcDbPolyline
 90
        8
 70
     1
 43
0.0
 10
35.875
 20
-93.51249999999999
 42
0.4142135623730951
 10
35.375
 20
-93.01249999999999
 10
21.775
 20
-93.01249999999999
 42
0.4142123908030293
 10
21.275
 20
-93.51249999999999
 10
21.275
 20
-106.5125
 42
0.4142123908030501
 10
21.775
 20
-107.0125
 10
35.375
 20
-107.0125
 42
0.4142135623730951
 10
35.875
 20
-106.5125
  0
LWPOLYLINE
  5
1008C
330
1F
100
AcDbEntity
  8
0
100
AcDbPolyline
 90
        8
 70
     1
 43
0.0
 10
103.0625
 20
-105.255525
 10
106.0625
 20
-106.987525
 10
132.0625
 20
-106.987525
 10
135.0625
 20
-105.255525
 10
135.0625
 20
-93.53752499999999
 42
0.4142135623730847
 10
134.5625
 20
-93.037525
 10
103.5625
 20
-93.037525
 42
0.4142123908030345
 10
103.0625
 20
-93.53752499999999
  0
LWPOLYLINE
  5
1008D
330
1F
100
AcDbEntity
  8
0
100
AcDbPolyline
 90
        8
 70
     1
 43
0.0
 10
163.9625
 20
-107.012525
 42
0.4142135623730951
 10
164.4625
 20
-106.512525
 10
164.4625
 20
-93.512525
 42
0.4142135623730951
 10
163.9625
 20
-93.01252500000002
 10
150.3625
 20
-93.01252500000002
 42
0.4142123908030449
 10
149.8625
 20
-93.512525
 10
149.8625
 20
-106.512525
 42
0.4142123908030658
 10
150.3625
 20
-107.012525
  0
LWPOLYLINE
  5
1008E
330
1F
100
AcDbEntity
  8
0
100
AcDbPolyline
 90
        8
 70
     1
 43
0.0
 10
178.4375
 20
-93.512525
 10
178.4375
 20
-106.512525
 42
0.4142123908030762
 10
178.9375
 20
-107.012525
 10
192.5375
 20
-107.012525
 42
0.4142135623730951
 10
193.0375
 20
-106.512525
 10
193.0375
 20
-93.512525
 42
0.4142135623730951
 10
192.5375
 20
-93.01252500000002
 10
178.9375
 20
-93.01252500000002
 42
0.4142123908030554
  0
LWPOLYLINE
  5
1008F
330
1F
100
AcDbEntity
  8
0
100
AcDbPolyline
 90
        8
 70
     1
 43
0.0
 10
255.1375
 20
-107.012525
 10
268.7375
 20
-107.012525
 42
0.4142135623730951
 10
269.2375000000001
 20
-106.512525
 10
269.2375000000001
 20
-93.512525
 42
0.4142135623730951
 10
268.7375
 20
-93.01252500000002
 10
255.1375
 20
-93.01252500000002
 42
0.4142123908030138
 10
254.6374999999999
 20
-93.512525
 10
254.6374999999999
 20
-106.512525
 42
0.4142123908030345
  0
LWPOLYLINE
  5
10090
330
1F
100
AcDbEntity
  8
0
100
AcDbPolyline
 90
        8
 70
     1
 43
0.0
 10
244.925
 20
-93.01252500000002
 10
231.325
 20
-93.01252500000002
 42
0.4142123908030138
 10
230.825
 20
-93.512525
 10
230.825
 20
-106.512525
 42
0.4142123908030345
 10
231.325
 20
-107.012525
 10
244.925
 20
-107.012525
 42
0.4142135623730951
 10
245.425
 20
-106.512525
 10
245.425
 20
-93.512525
 42
0.4142135623730951
  0
LWPOLYLINE
  5
10091
330
1F
100
AcDbEntity
  8
0
100
AcDbPolyline
 90
        8
 70
     1
 43
0.0
 10
221.1125
 20
-93.01252500000002
 10
207.5125
 20
-93.01252500000002
 42
0.4142123908030138
 10
207.0124999999999
 20
-93.512525
 10
207.0124999999999
 20
-106.512525
 42
0.4142123908030345
 10
207.5125
 20
-107.012525
 10
221.1125
 20
-107.012525
 42
0.4142135623730951
 10
221.6125000000001
 20
-106.512525
 10
221.6125000000001
 20
-93.512525
 42
0.4142135623730951
  0
LWPOLYLINE
  5
10092
330
1F
100
AcDbEntity
  8
0
100
AcDbPolyline
 90
        8
 70
     1
 43
0.0
 10
45.0875
 20
-106.5125
 42
0.4142123908030501
 10
45.5875
 20
-107.0125
 10
59.18749999999999
 20
-107.0125
 42
0.4142135623730951
 10
59.6875
 20
-106.5125
 10
59.6875
 20
-93.51249999999999
 42
0.4142135623730951
 10
59.18749999999999
 20
-93.01249999999999
 10
45.5875
 20
-93.01249999999999
 42
0.4142123908030293
 10
45.0875
 20
-93.51249999999999
  0
LWPOLYLINE
  5
10093
330
1F
100
AcDbEntity
  8
0
100
AcDbPolyline
 90
        8
 70
     1
 43
0.0
 10
87.76249999999999
 20
-93.01249999999999
 10
74.1625
 20
-93.01249999999999
 42
0.4142123908030241
 10
73.6625
 20
-93.51249999999999
 10
73.6625
 20
-106.5125
 42
0.4142123908030501
 10
74.1625
 20
-107.0125
 10
87.76250000000002
 20
-107.0125
 42
0.4142135623730847
 10
88.2625
 20
-106.5125
 10
88.2625
 20
-93.51249999999999
 42
0.4142135623730951
  0
LWPOLYLINE
  5
10094
330
1F
100
AcDbEntity
  8
0
100
AcDbPolyline
 90
        8
 70
     1
 43
0.0
 10
11.5625
 20
-93.01249999999997
 10
-2.037499999988394
 20
-93.01250000000002
 42
0.4142123908166447
 10
-2.537499999999998
 20
-93.51250000001161
 10
-2.537499999999998
 20
-106.5124999999884
 42
0.4142123908166446
 10
-2.037499999988394
 20
-107.0125
 10
11.5625
 20
-107.0125
 42
0.4142135623730951
 10
12.0625
 20
-106.5125
 10
12.0625
 20
-93.51249999999999
 42
0.4142135623730951
  0
ENDSEC
  0
SECTION
  2
OBJECTS
  0
DICTIONARY
  5
C
330
0
100
AcDbDictionary
281
     1
  3
ACAD_COLOR
350
1005A
  3
ACAD_DETAILVIEWSTYLE
350
100CE
  3
ACAD_GROUP
350
D
  3
ACAD_LAYOUT
350
1005B
  3
ACAD_MATERIAL
350
1005C
  3
ACAD_MLEADERSTYLE
350
1005D
  3
ACAD_MLINESTYLE
350
17
  3
ACAD_PLOTSETTINGS
350
1005E
  3
ACAD_PLOTSTYLENAME
350
1005F
  3
ACAD_SCALELIST
350
1009B
  3
ACAD_SECTIONVIEWSTYLE
350
100CF
  3
ACAD_TABLESTYLE
350
10062
  3
ACAD_VISUALSTYLE
350
10063
  3
AcDbVariableDictionary
350
100C6
  3
ACDB_RECOMPOSE_DATA
350
100CA
  3
EZDXF_META
350
10097
  0
DICTIONARY
  5
1005A
330
C
100
AcDbDictionary
281
     1
  0
DICTIONARY
  5
100CE
102
{ACAD_REACTORS
330
C
102
}
330
C
100
AcDbDictionary
281
     1
  0
DICTIONARY
  5
D
330
C
100
AcDbDictionary
281
     1
  0
DICTIONARY
  5
1005B
330
C
100
AcDbDictionary
281
     1
  3
Layout1
350
10065
  3
Model
350
10064
  0
DICTIONARY
  5
1005C
330
C
100
AcDbDictionary
281
     1
  3
ByBlock
350
10066
  3
ByLayer
350
10067
  3
Global
350
10068
  0
DICTIONARY
  5
1005D
330
C
100
AcDbDictionary
281
     1
  3
Standard
350
1006E
  0
DICTIONARY
  5
17
330
C
100
AcDbDictionary
281
     1
  3
Standard
350
10069
  0
DICTIONARY
  5
1005E
330
C
100
AcDbDictionary
281
     1
  0
ACDBDICTIONARYWDFLT
  5
1005F
330
C
100
AcDbDictionary
281
     1
  3
Normal
350
10060
100
AcDbDictionaryWithDefault
340
10060
  0
DICTIONARY
  5
1009B
102
{ACAD_REACTORS
330
C
102
}
330
C
100
AcDbDictionary
281
     1
  3
A0
350
1009C
  3
A1
350
1009D
  3
A2
350
1009E
  3
A3
350
1009F
  3
A4
350
100A0
  3
A5
350
100A1
  3
A6
350
100A2
  3
A7
350
100A3
  3
A8
350
100A4
  3
A9
350
100A5
  3
B1
350
100A6
  3
B2
350
100A7
  3
B3
350
100A8
  3
B4
350
100A9
  3
B5
350
100AA
  3
B6
350
100AB
  3
B7
350
100AC
  0
DICTIONARY
  5
100CF
102
{ACAD_REACTORS
330
C
102
}
330
C
100
AcDbDictionary
281
     1
  0
DICTIONARY
  5
10062
330
C
100
AcDbDictionary
281
     1
  3
Standard
350
100C5
  0
DICTIONARY
  5
10063
330
C
100
AcDbDictionary
281
     1
  3
2dWireframe
350
100B1
  3
Basic
350
100B4
  3
Brighten
350
100B8
  3
ColorChange
350
100BC
  3
Conceptual
350
100B6
  3
Dim
350
100B7
  3
EdgeColorOff
350
100BF
  3
Facepattern
350
100BB
  3
Flat
350
100AD
  3
FlatWithEdges
350
100AE
  3
Gouraud
350
100AF
  3
GouraudWithEdges
350
100B0
  3
Hidden
350
100B3
  3
JitterOff
350
100BD
  3
Linepattern
350
100BA
  3
OverhangOff
350
100BE
  3
Realistic
350
100B5
  3
Shaded
350
100C4
  3
Shaded with edges
350
100C3
  3
Shades of Gray
350
100C0
  3
Sketchy
350
100C1
  3
Thicken
350
100B9
  3
Wireframe
350
100B2
  3
X-Ray
350
100C2
  0
DICTIONARY
  5
100C6
102
{ACAD_REACTORS
330
C
102
}
330
C
100
AcDbDictionary
281
     1
  3
CANNOSCALE
350
100C7
  3
CMLEADERSTYLE
350
100CC
  3
CTABLESTYLE
350
100CB
  3
MSLTSCALE
350
100CD
  0
XRECORD
  5
100CA
102
{ACAD_REACTORS
330
C
102
}
330
C
100
AcDbXrecord
280
     1
 90
        1
330
100C5
  0
DICTIONARY
  5
10097
330
C
100
AcDbDictionary
281
     1
  3
WRITTEN_BY_EZDXF
350
10098
  0
LAYOUT
  5
10065
330
1005B
100
AcDbPlotSettings
  1

  2
none_device
  4
A3
  6

 40
7.5
 41
20.0
 42
7.5
 43
20.0
 44
420.0
 45
297.0
 46
0.0
 47
0.0
 48
0.0
 49
0.0
140
0.0
141
0.0
142
1.0
143
1.0
 70
     0
 72
     1
 73
     0
 74
     5
  7

 75
    16
 76
     0
 77
     2
 78
   300
147
1.0
148
0.0
149
0.0
100
AcDbLayout
  1
Layout1
 70
     1
 71
     1
 10
0.0
 20
0.0
 11
420.0
 21
297.0
 12
0.0
 22
0.0
 32
0.0
 14
1.000000000000000E+20
 24
1.000000000000000E+20
 34
1.000000000000000E+20
 15
-1.000000000000000E+20
 25
-1.000000000000000E+20
 35
-1.000000000000000E+20
146
0.0
 13
0.0
 23
0.0
 33
0.0
 16
1.0
 26
0.0
 36
0.0
 17
0.0
 27
1.0
 37
0.0
 76
     1
330
1B
  0
LAYOUT
  5
10064
330
1005B
100
AcDbPlotSettings
  1

  2
none_device
  4
A3
  6

 40
7.5
 41
20.0
 42
7.5
 43
20.0
 44
420.0
 45
297.0
 46
0.0
 47
0.0
 48
0.0
 49
0.0
140
0.0
141
0.0
142
1.0
143
1.0
 70
  1024
 72
     1
 73
     0
 74
     5
  7

 75
    16
 76
     0
 77
     2
 78
   300
147
1.0
148
0.0
149
0.0
100
AcDbLayout
  1
Model
 70
     1
 71
     0
 10
0.0
 20
0.0
 11
420.0
 21
297.0
 12
0.0
 22
0.0
 32
0.0
 14
1.000000000000000E+20
 24
1.000000000000000E+20
 34
1.000000000000000E+20
 15
-1.000000000000000E+20
 25
-1.000000000000000E+20
 35
-1.000000000000000E+20
146
0.0
 13
0.0
 23
0.0
 33
0.0
 16
1.0
 26
0.0
 36
0.0
 17
0.0
 27
1.0
 37
0.0
 76
     1
330
1F
331
1006A
  0
MATERIAL
  5
10066
102
{ACAD_REACTORS
330
1005C
102
}
330
1005C
100
AcDbMaterial
  1
ByBlock
 71
     1
 91
-1023410177
 72
     1
273
     1
 94
       63
  0
MATERIAL
  5
10067
102
{ACAD_REACTORS
330
1005C
102
}
330
1005C
100
AcDbMaterial
  1
ByLayer
 71
     1
 91
-1023410177
 72
     1
273
     1
 94
       63
  0
MATERIAL
  5
10068
102
{ACAD_REACTORS
330
1005C
102
}
330
1005C
100
AcDbMaterial
  1
Global
 71
     1
 91
-1023410177
 72
     1
273
     1
 94
       63
  0
MLEADERSTYLE
  5
1006E
102
{ACAD_REACTORS
330
1005D
102
}
330
1005D
100
AcDbMLeaderStyle
179
     2
170
     2
171
     1
172
     0
 90
        2
 40
0.0
 41
0.0
173
     1
 91
-1056964608
340
0
 92
       -2
290
     1
 42
2.0
291
     1
 43
8.0
  3
Standard
341
0
 44
4.0
300

342
11
174
     1
178
     1
175
     1
176
     0
 93
-1056964608
 45
4.0
292
     0
297
     0
 46
4.0
343
0
 94
-1056964608
 47
1.0
 49
1.0
140
1.0
293
     1
141
0.0
294
     1
177
     0
142
1.0
295
     0
296
     0
143
3.75
271
     0
272
     9
273
     9
298
     0
  0
MLINESTYLE
  5
10069
102
{ACAD_REACTORS
330
17
102
}
330
17
100
AcDbMlineStyle
  2
Standard
 70
     0
  3

 62
   256
 51
90.0
 52
90.0
 71
     2
 49
0.5
 62
   256
  6
Continuous
 49
-0.5
 62
   256
  6
Continuous
  0
ACDBPLACEHOLDER
  5
10060
330
1005F
  0
SCALE
  5
1009C
102
{ACAD_REACTORS
330
1009B
102
}
330
1009B
100
AcDbScale
 70
     0
300
1:1
140
1.0
141
1.0
290
     1
  0
SCALE
  5
1009D
102
{ACAD_REACTORS
330
1009B
102
}
330
1009B
100
AcDbScale
 70
     0
300
1/128" = 1'-0"
140
0.0078125
141
12.0
290
     0
  0
SCALE
  5
1009E
102
{ACAD_REACTORS
330
1009B
102
}
330
1009B
100
AcDbScale
 70
     0
300
1/64" = 1'-0"
140
0.015625
141
12.0
290
     0
  0
SCALE
  5
1009F
102
{ACAD_REACTORS
330
1009B
102
}
330
1009B
100
AcDbScale
 70
     0
300
1/32" = 1'-0"
140
0.03125
141
12.0
290
     0
  0
SCALE
  5
100A0
102
{ACAD_REACTORS
330
1009B
102
}
330
1009B
100
AcDbScale
 70
     0
300
1/16" = 1'-0"
140
0.0625
141
12.0
290
     0
  0
SCALE
  5
100A1
102
{ACAD_REACTORS
330
1009B
102
}
330
1009B
100
AcDbScale
 70
     0
300
3/32" = 1'-0"
140
0.09375
141
12.0
290
     0
  0
SCALE
  5
100A2
102
{ACAD_REACTORS
330
1009B
102
}
330
1009B
100
AcDbScale
 70
     0
300
1/8" = 1'-0"
140
0.125
141
12.0
290
     0
  0
SCALE
  5
100A3
102
{ACAD_REACTORS
330
1009B
102
}
330
1009B
100
AcDbScale
 70
     0
300
3/16" = 1'-0"
140
0.1875
141
12.0
290
     0
  0
SCALE
  5
100A4
102
{ACAD_REACTORS
330
1009B
102
}
330
1009B
100
AcDbScale
 70
     0
300
1/4" = 1'-0"
140
0.25
141
12.0
290
     0
  0
SCALE
  5
100A5
102
{ACAD_REACTORS
330
1009B
102
}
330
1009B
100
AcDbScale
 70
     0
300
3/8" = 1'-0"
140
0.375
141
12.0
290
     0
  0
SCALE
  5
100A6
102
{ACAD_REACTORS
330
1009B
102
}
330
1009B
100
AcDbScale
 70
     0
300
1/2" = 1'-0"
140
0.5
141
12.0
290
     0
  0
SCALE
  5
100A7
102
{ACAD_REACTORS
330
1009B
102
}
330
1009B
100
AcDbScale
 70
     0
300
3/4" = 1'-0"
140
0.75
141
12.0
290
     0
  0
SCALE
  5
100A8
102
{ACAD_REACTORS
330
1009B
102
}
330
1009B
100
AcDbScale
 70
     0
300
1" = 1'-0"
140
1.0
141
12.0
290
     0
  0
SCALE
  5
100A9
102
{ACAD_REACTORS
330
1009B
102
}
330
1009B
100
AcDbScale
 70
     0
300
1-1/2" = 1'-0"
140
1.5
141
12.0
290
     0
  0
SCALE
  5
100AA
102
{ACAD_REACTORS
330
1009B
102
}
330
1009B
100
AcDbScale
 70
     0
300
3" = 1'-0"
140
3.0
141
12.0
290
     0
  0
SCALE
  5
100AB
102
{ACAD_REACTORS
330
1009B
102
}
330
1009B
100
AcDbScale
 70
     0
300
6" = 1'-0"
140
6.0
141
12.0
290
     0
  0
SCALE
  5
100AC
102
{ACAD_REACTORS
330
1009B
102
}
330
1009B
100
AcDbScale
 70
     0
300
1'-0" = 1'-0"
140
12.0
141
12.0
290
     0
  0
TABLESTYLE
  5
100C5
102
{ACAD_REACTORS
330
10062
102
}
102
{ACAD_XDICTIONARY
360
100C8
102
}
330
10062
100
AcDbTableStyle
  3
Standard
 70
     0
 71
     0
 40
0.06
 41
0.06
280
     0
281
     0
  7
STANDARD
140
0.18
170
     2
 62
     0
 63
   257
283
     0
 90
        4
 91
        0
  1

274
    -2
284
     1
 64
     0
275
    -2
285
     1
 65
     0
276
    -2
286
     1
 66
     0
277
    -2
287
     1
 67
     0
278
    -2
288
     1
 68
     0
279
    -2
289
     1
 69
     0
  7
STANDARD
140
0.25
170
     5
 62
     0
 63
   257
283
     0
 90
        4
 91
        0
  1

274
    -2
284
     1
 64
     0
275
    -2
285
     1
 65
     0
276
    -2
286
     1
 66
     0
277
    -2
287
     1
 67
     0
278
    -2
288
     1
 68
     0
279
    -2
289
     1
 69
     0
  7
STANDARD
140
0.18
170
     5
 62
     0
 63
   257
283
     0
 90
        4
 91
        0
  1

274
    -2
284
     1
 64
     0
275
    -2
285
     1
 65
     0
276
    -2
286
     1
 66
     0
277
    -2
287
     1
 67
     0
278
    -2
288
     1
 68
     0
279
    -2
289
     1
 69
     0
  0
VISUALSTYLE
  5
100B1
102
{ACAD_REACTORS
330
10063
102
}
330
10063
100
AcDbVisualStyle
  2
2dWireframe
 70
     4
177
     3
291
     0
 70
    58
 90
        0
176
     1
 90
        2
176
     1
 90
        0
176
     1
 90
        0
176
     1
 40
0.6
176
     1
 40
30.0
176
     1
 62
     7
420
 16777215
176
     1
 90
        1
176
     1
 90
        4
176
     1
 62
     7
176
     1
 62
   257
176
     1
 90
        1
176
     1
 90
        1
176
     1
 40
1.0
176
     1
 90
        0
176
     1
 62
   257
176
     1
 40
1.0
176
     1
 90
        1
176
     1
 90
        6
176
     1
 90
        2
176
     1
 62
     7
176
     1
 90
        5
176
     1
 90
        0
176
     1
 90
        0
176
     1
290
     0
176
     1
 90
        1
176
     1
 40
0.0
176
     1
 90
        0
176
     1
290
     1
176
     1
290
     1
176
     1
290
     0
176
     1
290
     0
176
     1
290
     0
176
     1
290
     0
176
     1
290
     0
176
     1
290
     0
176
     1
290
     0
176
     1
 90
       50
176
     1
 40
0.0
176
     1
 40
1.0
176
     1
 90
        0
176
     1
 62
    18
420
        0
176
     1
 90
       50
176
     1
 90
        3
176
     1
 62
     5
420
      255
176
     1
290
     0
176
     1
 90
       50
176
     1
 90
       50
176
     1
 90
       50
176
     1
290
     0
176
     1
 90
       50
176
     1
 62
   256
176
     0
 40
1.0
176
     0
 90
        2
176
     1
  1
strokes_ogs.tif
176
     1
290
     0
176
     1
 40
1.0
176
     1
 40
1.0
176
     1
  0
VISUALSTYLE
  5
100B4
102
{ACAD_REACTORS
330
10063
102
}
330
10063
100
AcDbVisualStyle
  2
Basic
 70
     7
177
     3
291
     1
 70
    58
 90
        1
176
     1
 90
        0
176
     1
 90
        1
176
     1
 90
        0
176
     1
 40
0.6
176
     1
 40
30.0
176
     1
 62
     7
420
 16777215
176
     1
 90
        0
176
     1
 90
        4
176
     1
 62
     7
176
     1
 62
   257
176
     1
 90
        1
176
     1
 90
        1
176
     1
 40
1.0
176
     1
 90
        8
176
     1
 62
     7
176
     1
 40
1.0
176
     1
 90
        1
176
     1
 90
        6
176
     1
 90
        2
176
     1
 62
     7
176
     1
 90
        5
176
     1
 90
        0
176
     1
 90
        0
176
     1
290
     0
176
     1
 90
        1
176
     1
 40
0.0
176
     1
 90
        0
176
     1
290
     0
176
     1
290
     1
176
     1
290
     1
176
     1
290
     0
176
     1
290
     0
176
     1
290
     0
176
     1
290
     0
176
     1
290
     0
176
     1
290
     0
176
     1
 90
       50
176
     1
 40
0.0
176
     1
 40
1.0
176
     1
 90
        0
176
     1
 62
    18
420
        0
176
     1
 90
       50
176
     1
 90
        3
176
     1
 62
     5
420
      255
176
     1
290
     0
176
     1
 90
       50
176
     1
 90
       50
176
     1
 90
       50
176
     1
290
     0
176
     1
 90
       50
176
     1
 62
   256
176
     0
 40
1.0
176
     0
 90
        2
176
     1
  1
strokes_ogs.tif
176
     1
290
     0
176
     1
 40
1.0
176
     1
 40
1.0
176
     1
  0
VISUALSTYLE
  5
100B8
102
{ACAD_REACTORS
330
10063
102
}
330
10063
100
AcDbVisualStyle
  2
Brighten
 70
    12
177
     3
291
     1
 70
    58
 90
        2
176
     1
 90
        2
176
     1
 90
        0
176
     1
 90
        0
176
     1
 40
0.6
176
     1
 40
30.0
176
     1
 62
     7
420
 16777215
176
     1
 90
        1
176
     1
 90
        4
176
     1
 62
     7
176
     1
 62
   257
176
     1
 90
        1
176
     1
 90
        1
176
     1
 40
1.0
176
     1
 90
        8
176
     1
 62
     7
176
     1
 40
1.0
176
     1
 90
        1
176
     1
 90
        6
176
     1
 90
        2
176
     1
 62
     7
176
     1
 90
        5
176
     1
 90
        0
176
     1
 90
        0
176
     1
290
     0
176
     1
 90
        1
176
     1
 40
50.0
176
     1
 90
        0
176
     1
290
     0
176
     1
290
     1
176
     1
290
     1
176
     1
290
     0
176
     1
290
     0
176
     1
290
     0
176
     1
290
     0
176
     1
290
     0
176
     1
290
     0
176
     1
 90
       50
176
     1
 40
0.0
176
     1
 40
1.0
176
     1
 90
        0
176
     1
 62
    18
420
        0
176
     1
 90
       50
176
     1
 90
        3
176
     1
 62
     5
420
      255
176
     1
290
     0
176
     1
 90
       50
176
     1
 90
       50
176
     1
 90
       50
176
     1
290
     0
176
     1
 90
       50
176
     1
 62
   256
176
     0
 40
1.0
176
     0
 90
        2
176
     1
  1
strokes_ogs.tif
176
     1
290
     0
176
     1
 40
1.0
176
     1
 40
1.0
176
     1
  0
VISUALSTYLE
  5
100BC
102
{ACAD_REACTORS
330
10063
102
}
330
10063
100
AcDbVisualStyle
  2
ColorChange
 70
    16
177
     3
291
     1
 70
    58
 90
        2
176
     1
 90
        2
176
     1
 90
        3
176
     1
 90
        0
176
     1
 40
0.6
176
     1
 40
30.0
176
     1
 62
     8
420
  8421504
176
     1
 90
        1
176
     1
 90
        4
176
     1
 62
     7
176
     1
 62
   257
176
     1
 90
        1
176
     1
 90
        1
176
     1
 40
1.0
176
     1
 90
        8
176
     1
 62
     8
420
  8421504
176
     1
 40
1.0
176
     1
 90
        1
176
     1
 90
        6
176
     1
 90
        2
176
     1
 62
     7
176
     1
 90
        5
176
     1
 90
        0
176
     1
 90
        0
176
     1
290
     0
176
     1
 90
        1
176
     1
 40
0.0
176
     1
 90
        0
176
     1
290
     0
176
     1
290
     1
176
     1
290
     1
176
     1
290
     0
176
     1
290
     0
176
     1
290
     0
176
     1
290
     0
176
     1
290
     0
176
     1
290
     0
176
     1
 90
       50
176
     1
 40
0.0
176
     1
 40
1.0
176
     1
 90
        0
176
     1
 62
    18
420
        0
176
     1
 90
       50
176
     1
 90
        3
176
     1
 62
     5
420
      255
176
     1
290
     0
176
     1
 90
       50
176
     1
 90
       50
176
     1
 90
       50
176
     1
290
     0
176
     1
 90
       50
176
     1
 62
   256
176
     0
 40
1.0
176
     0
 90
        2
176
     1
  1
strokes_ogs.tif
176
     1
290
     0
176
     1
 40
1.0
176
     1
 40
1.0
176
     1
  0
VISUALSTYLE
  5
100B6
102
{ACAD_REACTORS
330
10063
102
}
330
10063
100
AcDbVisualStyle
  2
Conceptual
 70
     9
177
     3
291
     0
 70
    58
 90
        3
176
     1
 90
        2
176
     1
 90
        0
176
     1
 90
        0
176
     1
 40
0.6
176
     1
 40
30.0
176
     1
 62
     7
420
 16777215
176
     1
 90
        2
176
     1
 90
        2
176
     1
 62
     7
176
     1
 62
   257
176
     1
 90
        1
176
     1
 90
        1
176
     1
 40
179.0
176
     1
 90
        8
176
     1
 62
     7
176
     1
 40
1.0
176
     1
 90
        1
176
     1
 90
        6
176
     1
 90
        2
176
     1
 62
     7
176
     1
 90
        3
176
     1
 90
        0
176
     1
 90
        0
176
     1
290
     0
176
     1
 90
        1
176
     1
 40
0.0
176
     1
 90
        0
176
     1
290
     0
176
     1
290
     1
176
     1
290
     1
176
     1
290
     0
176
     1
290
     0
176
     1
290
     0
176
     1
290
     0
176
     1
290
     0
176
     1
290
     0
176
     1
 90
       50
176
     1
 40
0.0
176
     1
 40
1.0
176
     1
 90
        0
176
     1
 62
    18
420
        0
176
     1
 90
       50
176
     1
 90
        3
176
     1
 62
     5
420
      255
176
     1
290
     0
176
     1
 90
       50
176
     1
 90
       50
176
     1
 90
       50
176
     1
290
     0
176
     1
 90
       50
176
     1
 62
   256
176
     0
 40
1.0
176
     0
 90
        2
176
     1
  1
strokes_ogs.tif
176
     1
290
     0
176
     1
 40
1.0
176
     1
 40
1.0
176
     1
  0
VISUALSTYLE
  5
100B7
102
{ACAD_REACTORS
330
10063
102
}
330
10063
100
AcDbVisualStyle
  2
Dim
 70
    11
177
     3
291
     1
 70
    58
 90
        2
176
     1
 90
        2
176
     1
 90
        0
176
     1
 90
        0
176
     1
 40
0.6
176
     1
 40
30.0
176
     1
 62
     7
420
 16777215
176
     1
 90
        1
176
     1
 90
        4
176
     1
 62
     7
176
     1
 62
   257
176
     1
 90
        1
176
     1
 90
        1
176
     1
 40
1.0
176
     1
 90
        8
176
     1
 62
     7
176
     1
 40
1.0
176
     1
 90
        1
176
     1
 90
        6
176
     1
 90
        2
176
     1
 62
     7
176
     1
 90
        5
176
     1
 90
        0
176
     1
 90
        0
176
     1
290
     0
176
     1
 90
        1
176
     1
 40
-50.0
176
     1
 90
        0
176
     1
290
     0
176
     1
290
     1
176
     1
290
     1
176
     1
290
     0
176
     1
290
     0
176
     1
290
     0
176
     1
290
     0
176
     1
290
     0
176
     1
290
     0
176
     1
 90
       50
176
     1
 40
0.0
176
     1
 40
1.0
176
     1
 90
        0
176
     1
 62
    18
420
        0
176
     1
 90
       50
176
     1
 90
        3
176
     1
 62
     5
420
      255
176
     1
290
     0
176
     1
 90
       50
176
     1
 90
       50
176
     1
 90
       50
176
     1
290
     0
176
     1
 90
       50
176
     1
 62
   256
176
     0
 40
1.0
176
     0
 90
        2
176
     1
  1
strokes_ogs.tif
176
     1
290
     0
176
     1
 40
1.0
176
     1
 40
1.0
176
     1
  0
VISUALSTYLE
  5
100BF
102
{ACAD_REACTORS
330
10063
102
}
330
10063
100
AcDbVisualStyle
  2
EdgeColorOff
 70
    22
177
     3
291
     1
 70
    58
 90
        2
176
     0
 90
        2
176
     0
 90
        0
176
     0
 90
        0
176
     0
 40
0.6
176
     0
 40
30.0
176
     0
 62
     7
420
 16777215
176
     0
 90
        1
176
     0
 90
        4
176
     0
 62
     7
176
     0
 62
   257
176
     0
 90
        1
176
     0
 90
        1
176
     0
 40
1.0
176
     0
 90
        8
176
     2
 62
     7
176
     0
 40
1.0
176
     0
 90
        1
176
     0
 90
        6
176
     0
 90
        2
176
     0
 62
     7
176
     0
 90
        5
176
     0
 90
        0
176
     0
 90
        0
176
     0
290
     0
176
     0
 90
        1
176
     0
 40
0.0
176
     0
 90
        0
176
     0
290
     0
176
     0
290
     1
176
     0
290
     1
176
     0
290
     0
176
     0
290
     0
176
     0
290
     0
176
     0
290
     0
176
     0
290
     0
176
     0
290
     0
176
     0
 90
       50
176
     0
 40
0.0
176
     0
 40
1.0
176
     0
 90
        0
176
     0
 62
    18
420
        0
176
     0
 90
       50
176
     0
 90
        3
176
     0
 62
     5
420
      255
176
     0
290
     0
176
     0
 90
       50
176
     0
 90
       50
176
     0
 90
       50
176
     0
290
     0
176
     0
 90
       50
176
     0
 62
   256
176
     0
 40
1.0
176
     0
 90
        2
176
     0
  1
strokes_ogs.tif
176
     0
290
     0
176
     0
 40
1.0
176
     0
 40
1.0
176
     0
  0
VISUALSTYLE
  5
100BB
102
{ACAD_REACTORS
330
10063
102
}
330
10063
100
AcDbVisualStyle
  2
Facepattern
 70
    15
177
     3
291
     1
 70
    58
 90
        2
176
     1
 90
        2
176
     1
 90
        0
176
     1
 90
        0
176
     1
 40
0.6
176
     1
 40
30.0
176
     1
 62
     7
420
 16777215
176
     1
 90
        1
176
     1
 90
        4
176
     1
 62
     7
176
     1
 62
   257
176
     1
 90
        1
176
     1
 90
        1
176
     1
 40
1.0
176
     1
 90
        8
176
     1
 62
     7
176
     1
 40
1.0
176
     1
 90
        1
176
     1
 90
        6
176
     1
 90
        2
176
     1
 62
     7
176
     1
 90
        5
176
     1
 90
        0
176
     1
 90
        0
176
     1
290
     0
176
     1
 90
        1
176
     1
 40
0.0
176
     1
 90
        0
176
     1
290
     0
176
     1
290
     1
176
     1
290
     1
176
     1
290
     0
176
     1
290
     0
176
     1
290
     0
176
     1
290
     0
176
     1
290
     0
176
     1
290
     0
176
     1
 90
       50
176
     1
 40
0.0
176
     1
 40
1.0
176
     1
 90
        0
176
     1
 62
    18
420
        0
176
     1
 90
       50
176
     1
 90
        3
176
     1
 62
     5
420
      255
176
     1
290
     0
176
     1
 90
       50
176
     1
 90
       50
176
     1
 90
       50
176
     1
290
     0
176
     1
 90
       50
176
     1
 62
   256
176
     0
 40
1.0
176
     0
 90
        2
176
     1
  1
strokes_ogs.tif
176
     1
290
     0
176
     1
 40
1.0
176
     1
 40
1.0
176
     1
  0
VISUALSTYLE
  5
100AD
102
{ACAD_REACTORS
330
10063
102
}
330
10063
100
AcDbVisualStyle
  2
Flat
 70
     0
177
     3
291
     1
 70
    58
 90
        2
176
     1
 90
        1
176
     1
 90
        1
176
     1
 90
        2
176
     1
 40
0.6
176
     1
 40
30.0
176
     1
 62
     7
420
 16777215
176
     1
 90
        0
176
     1
 90
        0
176
     1
 62
     7
176
     1
 62
   257
176
     1
 90
        1
176
     1
 90
        1
176
     1
 40
1.0
176
     1
 90
        8
176
     1
 62
     7
176
     1
 40
1.0
176
     1
 90
        1
176
     1
 90
        6
176
     1
 90
        2
176
     1
 62
     7
176
     1
 90
        5
176
     1
 90
        0
176
     1
 90
        0
176
     1
290
     0
176
     1
 90
       13
176
     1
 40
0.0
176
     1
 90
        0
176
     1
290
     0
176
     1
290
     1
176
     1
290
     1
176
     1
290
     0
176
     1
290
     0
176
     1
290
     0
176
     1
290
     0
176
     1
290
     0
176
     1
290
     0
176
     1
 90
       50
176
     1
 40
0.0
176
     1
 40
1.0
176
     1
 90
        0
176
     1
 62
    18
420
        0
176
     1
 90
       50
176
     1
 90
        3
176
     1
 62
     5
420
      255
176
     1
290
     0
176
     1
 90
       50
176
     1
 90
       50
176
     1
 90
       50
176
     1
290
     0
176
     1
 90
       50
176
     1
 62
   256
176
     0
 40
1.0
176
     0
 90
        2
176
     1
  1
strokes_ogs.tif
176
     1
290
     0
176
     1
 40
1.0
176
     1
 40
1.0
176
     1
  0
VISUALSTYLE
  5
100AE
102
{ACAD_REACTORS
330
10063
102
}
330
10063
100
AcDbVisualStyle
  2
FlatWithEdges
 70
     1
177
     3
291
     1
 70
    58
 90
        2
176
     1
 90
        1
176
     1
 90
        1
176
     1
 90
        2
176
     1
 40
0.6
176
     1
 40
30.0
176
     1
 62
     7
420
 16777215
176
     1
 90
        1
176
     1
 90
        0
176
     1
 62
     7
176
     1
 62
   257
176
     1
 90
        1
176
     1
 90
        1
176
     1
 40
1.0
176
     1
 90
        0
176
     1
 62
   257
176
     1
 40
1.0
176
     1
 90
        1
176
     1
 90
        6
176
     1
 90
        2
176
     1
 62
     7
176
     1
 90
        5
176
     1
 90
        0
176
     1
 90
        0
176
     1
290
     0
176
     1
 90
       13
176
     1
 40
0.0
176
     1
 90
        0
176
     1
290
     0
176
     1
290
     1
176
     1
290
     1
176
     1
290
     0
176
     1
290
     0
176
     1
290
     0
176
     1
290
     0
176
     1
290
     0
176
     1
290
     0
176
     1
 90
       50
176
     1
 40
0.0
176
     1
 40
1.0
176
     1
 90
        0
176
     1
 62
    18
420
        0
176
     1
 90
       50
176
     1
 90
        3
176
     1
 62
     5
420
      255
176
     1
290
     0
176
     1
 90
       50
176
     1
 90
       50
176
     1
 90
       50
176
     1
290
     0
176
     1
 90
       50
176
     1
 62
   256
176
     0
 40
1.0
176
     0
 90
        2
176
     1
  1
strokes_ogs.tif
176
     1
290
     0
176
     1
 40
1.0
176
     1
 40
1.0
176
     1
  0
VISUALSTYLE
  5
100AF
102
{ACAD_REACTORS
330
10063
102
}
330
10063
100
AcDbVisualStyle
  2
Gouraud
 70
     2
177
     3
291
     1
 70
    58
 90
        2
176
     1
 90
        2
176
     1
 90
        1
176
     1
 90
        2
176
     1
 40
0.6
176
     1
 40
30.0
176
     1
 62
     7
420
 16777215
176
     1
 90
        0
176
     1
 90
        0
176
     1
 62
     7
176
     1
 62
   257
176
     1
 90
        1
176
     1
 90
        1
176
     1
 40
1.0
176
     1
 90
        0
176
     1
 62
     7
176
     1
 40
1.0
176
     1
 90
        1
176
     1
 90
        6
176
     1
 90
        2
176
     1
 62
     7
176
     1
 90
        5
176
     1
 90
        0
176
     1
 90
        0
176
     1
290
     0
176
     1
 90
       13
176
     1
 40
0.0
176
     1
 90
        0
176
     1
290
     0
176
     1
290
     1
176
     1
290
     1
176
     1
290
     0
176
     1
290
     0
176
     1
290
     0
176
     1
290
     0
176
     1
290
     0
176
     1
290
     0
176
     1
 90
       50
176
     1
 40
0.0
176
     1
 40
1.0
176
     1
 90
        0
176
     1
 62
    18
420
        0
176
     1
 90
       50
176
     1
 90
        3
176
     1
 62
     5
420
      255
176
     1
290
     0
176
     1
 90
       50
176
     1
 90
       50
176
     1
 90
       50
176
     1
290
     0
176
     1
 90
       50
176
     1
 62
   256
176
     0
 40
1.0
176
     0
 90
        2
176
     1
  1
strokes_ogs.tif
176
     1
290
     0
176
     1
 40
1.0
176
     1
 40
1.0
176
     1
  0
VISUALSTYLE
  5
100B0
102
{ACAD_REACTORS
330
10063
102
}
330
10063
100
AcDbVisualStyle
  2
GouraudWithEdges
 70
     3
177
     3
291
     1
 70
    58
 90
        2
176
     1
 90
        2
176
     1
 90
        1
176
     1
 90
        2
176
     1
 40
0.6
176
     1
 40
30.0
176
     1
 62
     7
420
 16777215
176
     1
 90
        1
176
     1
 90
        0
176
     1
 62
     7
176
     1
 62
   257
176
     1
 90
        1
176
     1
 90
        1
176
     1
 40
1.0
176
     1
 90
        0
176
     1
 62
   257
176
     1
 40
1.0
176
     1
 90
        1
176
     1
 90
        6
176
     1
 90
        2
176
     1
 62
     7
176
     1
 90
        5
176
     1
 90
        0
176
     1
 90
        0
176
     1
290
     0
176
     1
 90
       13
176
     1
 40
0.0
176
     1
 90
        0
176
     1
290
     0
176
     1
290
     1
176
     1
290
     1
176
     1
290
     0
176
     1
290
     0
176
     1
290
     0
176
     1
290
     0
176
     1
290
     0
176
     1
290
     0
176
     1
 90
       50
176
     1
 40
0.0
176
     1
 40
1.0
176
     1
 90
        0
176
     1
 62
    18
420
        0
176
     1
 90
       50
176
     1
 90
        3
176
     1
 62
     5
420
      255
176
     1
290
     0
176
     1
 90
       50
176
     1
 90
       50
176
     1
 90
       50
176
     1
290
     0
176
     1
 90
       50
176
     1
 62
   256
176
     0
 40
1.0
176
     0
 90
        2
176
     1
  1
strokes_ogs.tif
176
     1
290
     0
176
     1
 40
1.0
176
     1
 40
1.0
176
     1
  0
VISUALSTYLE
  5
100B3
102
{ACAD_REACTORS
330
10063
102
}
330
10063
100
AcDbVisualStyle
  2
Hidden
 70
     6
177
     3
291
     0
 70
    58
 90
        1
176
     1
 90
        2
176
     1
 90
        2
176
     1
 90
        0
176
     1
 40
0.6
176
     1
 40
30.0
176
     1
 62
     7
420
 16777215
176
     1
 90
        2
176
     1
 90
        2
176
     1
 62
     7
176
     1
 62
   257
176
     1
 90
        2
176
     1
 90
        1
176
     1
 40
40.0
176
     1
 90
        0
176
     1
 62
   257
176
     1
 40
1.0
176
     1
 90
        1
176
     1
 90
        6
176
     1
 90
        2
176
     1
 62
     7
176
     1
 90
        3
176
     1
 90
        0
176
     1
 90
        0
176
     1
290
     0
176
     1
 90
        1
176
     1
 40
0.0
176
     1
 90
        0
176
     1
290
     0
176
     1
290
     1
176
     1
290
     1
176
     1
290
     0
176
     1
290
     0
176
     1
290
     0
176
     1
290
     0
176
     1
290
     0
176
     1
290
     0
176
     1
 90
       50
176
     1
 40
0.0
176
     1
 40
1.0
176
     1
 90
        0
176
     1
 62
    18
420
        0
176
     1
 90
       50
176
     1
 90
        3
176
     1
 62
     5
420
      255
176
     1
290
     0
176
     1
 90
       50
176
     1
 90
       50
176
     1
 90
       50
176
     1
290
     0
176
     1
 90
       50
176
     1
 62
   256
176
     0
 40
1.0
176
     0
 90
        2
176
     1
  1
strokes_ogs.tif
176
     1
290
     0
176
     1
 40
1.0
176
     1
 40
1.0
176
     1
  0
VISUALSTYLE
  5
100BD
102
{ACAD_REACTORS
330
10063
102
}
330
10063
100
AcDbVisualStyle
  2
JitterOff
 70
    20
177
     3
291
     1
 70
    58
 90
        2
176
     0
 90
        2
176
     0
 90
        0
176
     0
 90
        0
176
     0
 40
0.6
176
     0
 40
30.0
176
     0
 62
     7
420
 16777215
176
     0
 90
        1
176
     0
 90
        4
176
     0
 62
     7
176
     0
 62
   257
176
     0
 90
        1
176
     0
 90
        1
176
     0
 40
1.0
176
     0
 90
       10
176
     2
 62
     7
176
     0
 40
1.0
176
     0
 90
        1
176
     0
 90
        6
176
     0
 90
        2
176
     0
 62
     7
176
     0
 90
        5
176
     0
 90
        0
176
     0
 90
        0
176
     0
290
     0
176
     0
 90
        1
176
     0
 40
0.0
176
     0
 90
        0
176
     0
290
     0
176
     0
290
     1
176
     0
290
     1
176
     0
290
     0
176
     0
290
     0
176
     0
290
     0
176
     0
290
     0
176
     0
290
     0
176
     0
290
     0
176
     0
 90
       50
176
     0
 40
0.0
176
     0
 40
1.0
176
     0
 90
        0
176
     0
 62
    18
420
        0
176
     0
 90
       50
176
     0
 90
        3
176
     0
 62
     5
420
      255
176
     0
290
     0
176
     0
 90
       50
176
     0
 90
       50
176
     0
 90
       50
176
     0
290
     0
176
     0
 90
       50
176
     0
 62
   256
176
     0
 40
1.0
176
     0
 90
        2
176
     0
  1
strokes_ogs.tif
176
     0
290
     0
176
     0
 40
1.0
176
     0
 40
1.0
176
     0
  0
VISUALSTYLE
  5
100BA
102
{ACAD_REACTORS
330
10063
102
}
330
10063
100
AcDbVisualStyle
  2
Linepattern
 70
    14
177
     3
291
     1
 70
    58
 90
        2
176
     1
 90
        2
176
     1
 90
        0
176
     1
 90
        0
176
     1
 40
0.6
176
     1
 40
30.0
176
     1
 62
     7
420
 16777215
176
     1
 90
        1
176
     1
 90
        4
176
     1
 62
     7
176
     1
 62
   257
176
     1
 90
        7
176
     1
 90
        7
176
     1
 40
1.0
176
     1
 90
        8
176
     1
 62
     7
176
     1
 40
1.0
176
     1
 90
        1
176
     1
 90
        6
176
     1
 90
        2
176
     1
 62
     7
176
     1
 90
        5
176
     1
 90
        0
176
     1
 90
        0
176
     1
290
     0
176
     1
 90
        1
176
     1
 40
0.0
176
     1
 90
        0
176
     1
290
     0
176
     1
290
     1
176
     1
290
     1
176
     1
290
     0
176
     1
290
     0
176
     1
290
     0
176
     1
290
     0
176
     1
290
     0
176
     1
290
     0
176
     1
 90
       50
176
     1
 40
0.0
176
     1
 40
1.0
176
     1
 90
        0
176
     1
 62
    18
420
        0
176
     1
 90
       50
176
     1
 90
        3
176
     1
 62
     5
420
      255
176
     1
290
     0
176
     1
 90
       50
176
     1
 90
       50
176
     1
 90
       50
176
     1
290
     0
176
     1
 90
       50
176
     1
 62
   256
176
     0
 40
1.0
176
     0
 90
        2
176
     1
  1
strokes_ogs.tif
176
     1
290
     0
176
     1
 40
1.0
176
     1
 40
1.0
176
     1
  0
VISUALSTYLE
  5
100BE
102
{ACAD_REACTORS
330
10063
102
}
330
10063
100
AcDbVisualStyle
  2
OverhangOff
 70
    21
177
     3
291
     1
 70
    58
 90
        2
176
     0
 90
        2
176
     0
 90
        0
176
     0
 90
        0
176
     0
 40
0.6
176
     0
 40
30.0
176
     0
 62
     7
420
 16777215
176
     0
 90
        1
176
     0
 90
        4
176
     0
 62
     7
176
     0
 62
   257
176
     0
 90
        1
176
     0
 90
        1
176
     0
 40
1.0
176
     0
 90
        9
176
     2
 62
     7
176
     0
 40
1.0
176
     0
 90
        1
176
     0
 90
        6
176
     0
 90
        2
176
     0
 62
     7
176
     0
 90
        5
176
     0
 90
        0
176
     0
 90
        0
176
     0
290
     0
176
     0
 90
        1
176
     0
 40
0.0
176
     0
 90
        0
176
     0
290
     0
176
     0
290
     1
176
     0
290
     1
176
     0
290
     0
176
     0
290
     0
176
     0
290
     0
176
     0
290
     0
176
     0
290
     0
176
     0
290
     0
176
     0
 90
       50
176
     0
 40
0.0
176
     0
 40
1.0
176
     0
 90
        0
176
     0
 62
    18
420
        0
176
     0
 90
       50
176
     0
 90
        3
176
     0
 62
     5
420
      255
176
     0
290
     0
176
     0
 90
       50
176
     0
 90
       50
176
     0
 90
       50
176
     0
290
     0
176
     0
 90
       50
176
     0
 62
   256
176
     0
 40
1.0
176
     0
 90
        2
176
     0
  1
strokes_ogs.tif
176
     0
290
     0
176
     0
 40
1.0
176
     0
 40
1.0
176
     0
  0
VISUALSTYLE
  5
100B5
102
{ACAD_REACTORS
330
10063
102
}
330
10063
100
AcDbVisualStyle
  2
Realistic
 70
     8
177
     3
291
     0
 70
    58
 90
        2
176
     1
 90
        3
176
     1
 90
        0
176
     1
 90
        2
176
     1
 40
0.6
176
     1
 40
30.0
176
     1
 62
     7
420
 16777215
176
     1
 90
        0
176
     1
 90
        0
176
     1
 62
     7
176
     1
 62
   257
176
     1
 90
        1
176
     1
 90
        1
176
     1
 40
1.0
176
     1
 90
        8
176
     1
 62
   257
176
     1
 40
1.0
176
     1
 90
        1
176
     1
 90
        6
176
     1
 90
        2
176
     1
 62
     7
176
     1
 90
        3
176
     1
 90
        0
176
     1
 90
        0
176
     1
290
     0
176
     1
 90
       13
176
     1
 40
0.0
176
     1
 90
        0
176
     1
290
     0
176
     1
290
     1
176
     1
290
     1
176
     1
290
     0
176
     1
290
     0
176
     1
290
     0
176
     1
290
     0
176
     1
290
     0
176
     1
290
     0
176
     1
 90
       50
176
     1
 40
0.0
176
     1
 40
1.0
176
     1
 90
        0
176
     1
 62
    18
420
        0
176
     1
 90
       50
176
     1
 90
        3
176
     1
 62
     5
420
      255
176
     1
290
     0
176
     1
 90
       50
176
     1
 90
       50
176
     1
 90
       50
176
     1
290
     0
176
     1
 90
       50
176
     1
 62
   256
176
     0
 40
1.0
176
     0
 90
        2
176
     1
  1
strokes_ogs.tif
176
     1
290
     0
176
     1
 40
1.0
176
     1
 40
1.0
176
     1
  0
VISUALSTYLE
  5
100C4
102
{ACAD_REACTORS
330
10063
102
}
330
10063
100
AcDbVisualStyle
  2
Shaded
 70
    27
177
     3
291
     0
 70
    58
 90
        2
176
     1
 90
        2
176
     1
 90
        1
176
     1
 90
        2
176
     1
 40
0.6
176
     1
 40
30.0
176
     1
 62
     7
420
 16777215
176
     1
 90
        0
176
     1
 90
        4
176
     1
 62
     7
176
     1
 62
   257
176
     1
 90
        1
176
     1
 90
        1
176
     1
 40
1.0
176
     1
 90
        8
176
     1
 62
   257
176
     1
 40
1.0
176
     1
 90
        1
176
     1
 90
        6
176
     1
 90
        2
176
     1
 62
     8
420
  7895160
176
     1
 90
        3
176
     1
 90
        0
176
     1
 90
        0
176
     1
290
     0
176
     1
 90
        5
176
     1
 40
0.0
176
     1
 90
        0
176
     1
290
     0
176
     1
290
     1
176
     1
290
     1
176
     1
290
     0
176
     1
290
     0
176
     1
290
     0
176
     1
290
     0
176
     1
290
     0
176
     1
290
     0
176
     1
 90
       50
176
     1
 40
0.0
176
     1
 40
1.0
176
     1
 90
        0
176
     1
 62
    18
420
        0
176
     1
 90
       50
176
     1
 90
        3
176
     1
 62
     5
420
      255
176
     1
290
     0
176
     1
 90
       50
176
     1
 90
       50
176
     1
 90
       50
176
     1
290
     0
176
     1
 90
       50
176
     1
 62
   256
176
     0
 40
1.0
176
     0
 90
        2
176
     1
  1
strokes_ogs.tif
176
     1
290
     0
176
     1
 40
1.0
176
     1
 40
1.0
176
     1
  0
VISUALSTYLE
  5
100C3
102
{ACAD_REACTORS
330
10063
102
}
330
10063
100
AcDbVisualStyle
  2
Shaded with edges
 70
    26
177
     3
291
     0
 70
    58
 90
        2
176
     1
 90
        2
176
     1
 90
        1
176
     1
 90
        2
176
     1
 40
0.6
176
     1
 40
30.0
176
     1
 62
     7
420
 16777215
176
     1
 90
        1
176
     1
 90
       10
176
     1
 62
     7
176
     1
 62
   257
176
     1
 90
        2
176
     1
 90
        1
176
     1
 40
1.0
176
     1
 90
        8
176
     1
 62
   257
176
     1
 40
1.0
176
     1
 90
        1
176
     1
 90
        6
176
     1
 90
        2
176
     1
 62
     7
176
     1
 90
        3
176
     1
 90
        0
176
     1
 90
        0
176
     1
290
     0
176
     1
 90
        5
176
     1
 40
0.0
176
     1
 90
        0
176
     1
290
     0
176
     1
290
     1
176
     1
290
     1
176
     1
290
     0
176
     1
290
     0
176
     1
290
     0
176
     1
290
     0
176
     1
290
     0
176
     1
290
     0
176
     1
 90
       50
176
     1
 40
0.0
176
     1
 40
1.0
176
     1
 90
        0
176
     1
 62
    18
420
        0
176
     1
 90
       50
176
     1
 90
        3
176
     1
 62
     5
420
      255
176
     1
290
     0
176
     1
 90
       50
176
     1
 90
       50
176
     1
 90
       50
176
     1
290
     0
176
     1
 90
       50
176
     1
 62
   256
176
     0
 40
1.0
176
     0
 90
        2
176
     1
  1
strokes_ogs.tif
176
     1
290
     0
176
     1
 40
1.0
176
     1
 40
1.0
176
     1
  0
VISUALSTYLE
  5
100C0
102
{ACAD_REACTORS
330
10063
102
}
330
10063
100
AcDbVisualStyle
  2
Shades of Gray
 70
    23
177
     3
291
     0
 70
    58
 90
        2
176
     1
 90
        2
176
     1
 90
        3
176
     1
 90
        0
176
     1
 40
0.6
176
     1
 40
30.0
176
     1
 62
     7
420
 16777215
176
     1
 90
        2
176
     1
 90
        2
176
     1
 62
     7
176
     1
 62
     7
176
     1
 90
        1
176
     1
 90
        1
176
     1
 40
40.0
176
     1
 90
        8
176
     1
 62
     7
176
     1
 40
1.0
176
     1
 90
        1
176
     1
 90
        6
176
     1
 90
        2
176
     1
 62
     7
176
     1
 90
        3
176
     1
 90
        0
176
     1
 90
        0
176
     1
290
     0
176
     1
 90
        1
176
     1
 40
0.0
176
     1
 90
        0
176
     1
290
     0
176
     1
290
     1
176
     1
290
     1
176
     1
290
     0
176
     1
290
     0
176
     1
290
     0
176
     1
290
     0
176
     1
290
     0
176
     1
290
     0
176
     1
 90
       50
176
     1
 40
0.0
176
     1
 40
1.0
176
     1
 90
        0
176
     1
 62
    18
420
        0
176
     1
 90
       50
176
     1
 90
        3
176
     1
 62
     5
420
      255
176
     1
290
     0
176
     1
 90
       50
176
     1
 90
       50
176
     1
 90
       50
176
     1
290
     0
176
     1
 90
       50
176
     1
 62
   256
176
     0
 40
1.0
176
     0
 90
        2
176
     1
  1
strokes_ogs.tif
176
     1
290
     0
176
     1
 40
1.0
176
     1
 40
1.0
176
     1
  0
VISUALSTYLE
  5
100C1
102
{ACAD_REACTORS
330
10063
102
}
330
10063
100
AcDbVisualStyle
  2
Sketchy
 70
    24
177
     3
291
     0
 70
    58
 90
        1
176
     1
 90
        2
176
     1
 90
        2
176
     1
 90
        0
176
     1
 40
0.6
176
     1
 40
30.0
176
     1
 62
     7
420
 16777215
176
     1
 90
        2
176
     1
 90
        2
176
     1
 62
     7
176
     1
 62
     7
176
     1
 90
        1
176
     1
 90
        1
176
     1
 40
40.0
176
     1
 90
       11
176
     1
 62
     7
176
     1
 40
1.0
176
     1
 90
        1
176
     1
 90
        6
176
     1
 90
        2
176
     1
 62
     7
176
     1
 90
        6
176
     1
 90
        0
176
     1
 90
        0
176
     1
290
     0
176
     1
 90
        1
176
     1
 40
0.0
176
     1
 90
        0
176
     1
290
     0
176
     1
290
     1
176
     1
290
     1
176
     1
290
     0
176
     1
290
     0
176
     1
290
     0
176
     1
290
     0
176
     1
290
     0
176
     1
290
     0
176
     1
 90
       50
176
     1
 40
0.0
176
     1
 40
1.0
176
     1
 90
        0
176
     1
 62
    18
420
        0
176
     1
 90
       50
176
     1
 90
        3
176
     1
 62
     5
420
      255
176
     1
290
     0
176
     1
 90
       50
176
     1
 90
       50
176
     1
 90
       50
176
     1
290
     0
176
     1
 90
       50
176
     1
 62
   256
176
     0
 40
1.0
176
     0
 90
        2
176
     1
  1
strokes_ogs.tif
176
     1
290
     0
176
     1
 40
1.0
176
     1
 40
1.0
176
     1
  0
VISUALSTYLE
  5
100B9
102
{ACAD_REACTORS
330
10063
102
}
330
10063
100
AcDbVisualStyle
  2
Thicken
 70
    13
177
     3
291
     1
 70
    58
 90
        2
176
     1
 90
        2
176
     1
 90
        0
176
     1
 90
        0
176
     1
 40
0.6
176
     1
 40
30.0
176
     1
 62
     7
420
 16777215
176
     1
 90
        1
176
     1
 90
        4
176
     1
 62
     7
176
     1
 62
   257
176
     1
 90
        1
176
     1
 90
        1
176
     1
 40
1.0
176
     1
 90
       12
176
     1
 62
     7
176
     1
 40
1.0
176
     1
 90
        1
176
     1
 90
        6
176
     1
 90
        2
176
     1
 62
     7
176
     1
 90
        5
176
     1
 90
        0
176
     1
 90
        0
176
     1
290
     0
176
     1
 90
        1
176
     1
 40
0.0
176
     1
 90
        0
176
     1
290
     0
176
     1
290
     1
176
     1
290
     1
176
     1
290
     0
176
     1
290
     0
176
     1
290
     0
176
     1
290
     0
176
     1
290
     0
176
     1
290
     0
176
     1
 90
       50
176
     1
 40
0.0
176
     1
 40
1.0
176
     1
 90
        0
176
     1
 62
    18
420
        0
176
     1
 90
       50
176
     1
 90
        3
176
     1
 62
     5
420
      255
176
     1
290
     0
176
     1
 90
       50
176
     1
 90
       50
176
     1
 90
       50
176
     1
290
     0
176
     1
 90
       50
176
     1
 62
   256
176
     0
 40
1.0
176
     0
 90
        2
176
     1
  1
strokes_ogs.tif
176
     1
290
     0
176
     1
 40
1.0
176
     1
 40
1.0
176
     1
  0
VISUALSTYLE
  5
100B2
102
{ACAD_REACTORS
330
10063
102
}
330
10063
100
AcDbVisualStyle
  2
Wireframe
 70
     5
177
     3
291
     0
 70
    58
 90
        0
176
     1
 90
        2
176
     1
 90
        0
176
     1
 90
        0
176
     1
 40
0.6
176
     1
 40
30.0
176
     1
 62
     7
420
 16777215
176
     1
 90
        1
176
     1
 90
        4
176
     1
 62
     7
176
     1
 62
   257
176
     1
 90
        1
176
     1
 90
        1
176
     1
 40
1.0
176
     1
 90
        0
176
     1
 62
   257
176
     1
 40
1.0
176
     1
 90
        1
176
     1
 90
        6
176
     1
 90
        2
176
     1
 62
     7
176
     1
 90
        3
176
     1
 90
        0
176
     1
 90
        0
176
     1
290
     0
176
     1
 90
        1
176
     1
 40
0.0
176
     1
 90
        0
176
     1
290
     0
176
     1
290
     1
176
     1
290
     1
176
     1
290
     0
176
     1
290
     0
176
     1
290
     0
176
     1
290
     0
176
     1
290
     0
176
     1
290
     0
176
     1
 90
       50
176
     1
 40
0.0
176
     1
 40
1.0
176
     1
 90
        0
176
     1
 62
    18
420
        0
176
     1
 90
       50
176
     1
 90
        3
176
     1
 62
     5
420
      255
176
     1
290
     0
176
     1
 90
       50
176
     1
 90
       50
176
     1
 90
       50
176
     1
290
     0
176
     1
 90
       50
176
     1
 62
   256
176
     0
 40
1.0
176
     0
 90
        2
176
     1
  1
strokes_ogs.tif
176
     1
290
     0
176
     1
 40
1.0
176
     1
 40
1.0
176
     1
  0
VISUALSTYLE
  5
100C2
102
{ACAD_REACTORS
330
10063
102
}
330
10063
100
AcDbVisualStyle
  2
X-Ray
 70
    25
177
     3
291
     0
 70
    58
 90
        2
176
     1
 90
        2
176
     1
 90
        1
176
     1
 90
        1
176
     1
 40
0.5
176
     1
 40
30.0
176
     1
 62
     7
420
 16777215
176
     1
 90
        1
176
     1
 90
        0
176
     1
 62
     7
176
     1
 62
   257
176
     1
 90
        1
176
     1
 90
        1
176
     1
 40
1.0
176
     1
 90
        8
176
     1
 62
     7
176
     1
 40
1.0
176
     1
 90
        1
176
     1
 90
        6
176
     1
 90
        2
176
     1
 62
     7
176
     1
 90
        3
176
     1
 90
        0
176
     1
 90
        0
176
     1
290
     0
176
     1
 90
       13
176
     1
 40
0.0
176
     1
 90
        0
176
     1
290
     0
176
     1
290
     1
176
     1
290
     1
176
     1
290
     0
176
     1
290
     0
176
     1
290
     0
176
     1
290
     0
176
     1
290
     0
176
     1
290
     0
176
     1
 90
       50
176
     1
 40
0.0
176
     1
 40
1.0
176
     1
 90
        0
176
     1
 62
    18
420
        0
176
     1
 90
       50
176
     1
 90
        3
176
     1
 62
     5
420
      255
176
     1
290
     0
176
     1
 90
       50
176
     1
 90
       50
176
     1
 90
       50
176
     1
290
     0
176
     1
 90
       50
176
     1
 62
   256
176
     0
 40
1.0
176
     0
 90
        2
176
     1
  1
strokes_ogs.tif
176
     1
290
     0
176
     1
 40
1.0
176
     1
 40
1.0
176
     1
  0
DICTIONARYVAR
  5
100C7
102
{ACAD_REACTORS
330
100C6
102
}
330
100C6
100
DictionaryVariables
280
     0
  1
1:1
  0
DICTIONARYVAR
  5
100CC
102
{ACAD_REACTORS
330
100C6
102
}
330
100C6
100
DictionaryVariables
280
     0
  1
Standard
  0
DICTIONARYVAR
  5
100CB
102
{ACAD_REACTORS
330
100C6
102
}
330
100C6
100
DictionaryVariables
280
     0
  1
Standard
  0
DICTIONARYVAR
  5
100CD
102
{ACAD_REACTORS
330
100C6
102
}
330
100C6
100
DictionaryVariables
280
     0
  1
0
  0
DICTIONARYVAR
  5
10098
330
10097
100
DictionaryVariables
280
     0
  1
1.3.4 @ 2024-10-16T16:51:15.234323+00:00
  0
DICTIONARY
  5
100C8
330
100C5
100
AcDbDictionary
280
     1
281
     1
  3
ACAD_ROUNDTRIP_2008_TABLESTYLE_CELLSTYLEMAP
360
100C9
  0
CELLSTYLEMAP
  5
100C9
102
{ACAD_REACTORS
330
100C8
102
}
330
100C8
100
AcDbCellStyleMap
 90
        3
300
CELLSTYLE
  1
TABLEFORMAT_BEGIN
 90
        5
170
     1
 91
        0
 92
    32768
 62
   257
 93
        1
300
CONTENTFORMAT
  1
CONTENTFORMAT_BEGIN
 90
        0
 91
        0
 92
        4
 93
        0
300

 40
0.0
140
1.0
 94
        5
 62
     0
340
11
144
0.25
309
CONTENTFORMAT_END
171
     1
301
MARGIN
  1
CELLMARGIN_BEGIN
 40
0.06
 40
0.06
 40
0.06
 40
0.06
 40
0.06
 40
0.06
309
CELLMARGIN_END
 94
        6
 95
        1
302
GRIDFORMAT
  1
GRIDFORMAT_BEGIN
 90
        0
 91
        1
 62
     0
 92
       -2
340
10099
 93
        0
 40
0.045
309
GRIDFORMAT_END
 95
        2
302
GRIDFORMAT
  1
GRIDFORMAT_BEGIN
 90
        0
 91
        1
 62
     0
 92
       -2
340
10099
 93
        0
 40
0.045
309
GRIDFORMAT_END
 95
        4
302
GRIDFORMAT
  1
GRIDFORMAT_BEGIN
 90
        0
 91
        1
 62
     0
 92
       -2
340
10099
 93
        0
 40
0.045
309
GRIDFORMAT_END
 95
        8
302
GRIDFORMAT
  1
GRIDFORMAT_BEGIN
 90
        0
 91
        1
 62
     0
 92
       -2
340
10099
 93
        0
 40
0.045
309
GRIDFORMAT_END
 95
       16
302
GRIDFORMAT
  1
GRIDFORMAT_BEGIN
 90
        0
 91
        1
 62
     0
 92
       -2
340
10099
 93
        0
 40
0.045
309
GRIDFORMAT_END
 95
       32
302
GRIDFORMAT
  1
GRIDFORMAT_BEGIN
 90
        0
 91
        1
 62
     0
 92
       -2
340
10099
 93
        0
 40
0.045
309
GRIDFORMAT_END
309
TABLEFORMAT_END
  1
CELLSTYLE_BEGIN
 90
        1
 91
        1
300
_TITLE
309
CELLSTYLE_END
300
CELLSTYLE
  1
TABLEFORMAT_BEGIN
 90
        5
170
     1
 91
        0
 92
        0
 62
   257
 93
        1
300
CONTENTFORMAT
  1
CONTENTFORMAT_BEGIN
 90
        0
 91
        0
 92
        4
 93
        0
300

 40
0.0
140
1.0
 94
        5
 62
     0
340
11
144
0.18
309
CONTENTFORMAT_END
171
     1
301
MARGIN
  1
CELLMARGIN_BEGIN
 40
0.06
 40
0.06
 40
0.06
 40
0.06
 40
0.06
 40
0.06
309
CELLMARGIN_END
 94
        6
 95
        1
302
GRIDFORMAT
  1
GRIDFORMAT_BEGIN
 90
        0
 91
        1
 62
     0
 92
       -2
340
10099
 93
        0
 40
0.045
309
GRIDFORMAT_END
 95
        2
302
GRIDFORMAT
  1
GRIDFORMAT_BEGIN
 90
        0
 91
        1
 62
     0
 92
       -2
340
10099
 93
        0
 40
0.045
309
GRIDFORMAT_END
 95
        4
302
GRIDFORMAT
  1
GRIDFORMAT_BEGIN
 90
        0
 91
        1
 62
     0
 92
       -2
340
10099
 93
        0
 40
0.045
309
GRIDFORMAT_END
 95
        8
302
GRIDFORMAT
  1
GRIDFORMAT_BEGIN
 90
        0
 91
        1
 62
     0
 92
       -2
340
10099
 93
        0
 40
0.045
309
GRIDFORMAT_END
 95
       16
302
GRIDFORMAT
  1
GRIDFORMAT_BEGIN
 90
        0
 91
        1
 62
     0
 92
       -2
340
10099
 93
        0
 40
0.045
309
GRIDFORMAT_END
 95
       32
302
GRIDFORMAT
  1
GRIDFORMAT_BEGIN
 90
        0
 91
        1
 62
     0
 92
       -2
340
10099
 93
        0
 40
0.045
309
GRIDFORMAT_END
309
TABLEFORMAT_END
  1
CELLSTYLE_BEGIN
 90
        2
 91
        1
300
_HEADER
309
CELLSTYLE_END
300
CELLSTYLE
  1
TABLEFORMAT_BEGIN
 90
        5
170
     1
 91
        0
 92
        0
 62
   257
 93
        1
300
CONTENTFORMAT
  1
CONTENTFORMAT_BEGIN
 90
        0
 91
        0
 92
        4
 93
        0
300

 40
0.0
140
1.0
 94
        2
 62
     0
340
11
144
0.18
309
CONTENTFORMAT_END
171
     1
301
MARGIN
  1
CELLMARGIN_BEGIN
 40
0.06
 40
0.06
 40
0.06
 40
0.06
 40
0.06
 40
0.06
309
CELLMARGIN_END
 94
        6
 95
        1
302
GRIDFORMAT
  1
GRIDFORMAT_BEGIN
 90
        0
 91
        1
 62
     0
 92
       -2
340
10099
 93
        0
 40
0.045
309
GRIDFORMAT_END
 95
        2
302
GRIDFORMAT
  1
GRIDFORMAT_BEGIN
 90
        0
 91
        1
 62
     0
 92
       -2
340
10099
 93
        0
 40
0.045
309
GRIDFORMAT_END
 95
        4
302
GRIDFORMAT
  1
GRIDFORMAT_BEGIN
 90
        0
 91
        1
 62
     0
 92
       -2
340
10099
 93
        0
 40
0.045
309
GRIDFORMAT_END
 95
        8
302
GRIDFORMAT
  1
GRIDFORMAT_BEGIN
 90
        0
 91
        1
 62
     0
 92
       -2
340
10099
 93
        0
 40
0.045
309
GRIDFORMAT_END
 95
       16
302
GRIDFORMAT
  1
GRIDFORMAT_BEGIN
 90
        0
 91
        1
 62
     0
 92
       -2
340
10099
 93
        0
 40
0.045
309
GRIDFORMAT_END
 95
       32
302
GRIDFORMAT
  1
GRIDFORMAT_BEGIN
 90
        0
 91
        1
 62
     0
 92
       -2
340
10099
 93
        0
 40
0.045
309
GRIDFORMAT_END
309
TABLEFORMAT_END
  1
CELLSTYLE_BEGIN
 90
        3
 91
        2
300
_DATA
309
CELLSTYLE_END
  0
ENDSEC
  0
EOF
