  0
SECTION
  2
HEADER
  9
$ACADVER
  1
AC1032
  9
$ACADMAINTVER
 90
4
  9
$DWGCODEPAGE
  3
ANSI_1252
  9
$LASTSAVEDBY
  1
cipulot
  9
$REQUIREDVERSIONS
160
0
  9
$INSBASE
 10
0.0
 20
0.0
 30
0.0
  9
$EXTMIN
 10
1e+20
 20
1e+20
 30
1e+20
  9
$EXTMAX
 10
-1e+20
 20
-1e+20
 30
-1e+20
  9
$LIMMIN
 10
0.0
 20
0.0
  9
$LIMMAX
 10
12.0
 20
9.0
  9
$ORTHOMODE
 70
0
  9
$REGENMODE
 70
1
  9
$FILLMODE
 70
1
  9
$QTEXTMODE
 70
0
  9
$MIRRTEXT
 70
1
  9
$LTSCALE
 40
1.0
  9
$ATTMODE
 70
1
  9
$TEXTSIZE
 40
2.5
  9
$TRACEWID
 40
0.05
  9
$TEXTSTYLE
  7
Standard
  9
$CLAYER
  8
0
  9
$CELTYPE
  6
ByBlock
  9
$CECOLOR
 62
256
  9
$CELTSCALE
 40
1.0
  9
$DISPSILH
 70
0
  9
$DIMSCALE
 40
1.0
  9
$DIMASZ
 40
0.18
  9
$DIMEXO
 40
0.0625
  9
$DIMDLI
 40
0.38
  9
$DIMRND
 40
0.0
  9
$DIMDLE
 40
0.0
  9
$DIMEXE
 40
0.18
  9
$DIMTP
 40
0.0
  9
$DIMTM
 40
0.0
  9
$DIMTXT
 40
0.18
  9
$DIMCEN
 40
0.09
  9
$DIMTSZ
 40
0.0
  9
$DIMTOL
 70
0
  9
$DIMLIM
 70
0
  9
$DIMTIH
 70
1
  9
$DIMTOH
 70
1
  9
$DIMSE1
 70
0
  9
$DIMSE2
 70
0
  9
$DIMTAD
 70
0
  9
$DIMZIN
 70
0
  9
$DIMBLK
  1

  9
$DIMASO
 70
1
  9
$DIMSHO
 70
1
  9
$DIMPOST
  1

  9
$DIMAPOST
  1

  9
$DIMALT
 70
0
  9
$DIMALTD
 70
2
  9
$DIMALTF
 40
25.4
  9
$DIMLFAC
 40
1.0
  9
$DIMTOFL
 70
0
  9
$DIMTVP
 40
0.0
  9
$DIMTIX
 70
0
  9
$DIMSOXD
 70
0
  9
$DIMSAH
 70
0
  9
$DIMBLK1
  1

  9
$DIMBLK2
  1

  9
$DIMSTYLE
  2
Standard
  9
$DIMCLRD
 70
0
  9
$DIMCLRE
 70
0
  9
$DIMCLRT
 70
0
  9
$DIMTFAC
 40
1.0
  9
$DIMGAP
 40
0.09
  9
$DIMJUST
 70
0
  9
$DIMSD1
 70
0
  9
$DIMSD2
 70
0
  9
$DIMTOLJ
 70
1
  9
$DIMTZIN
 70
0
  9
$DIMALTZ
 70
0
  9
$DIMALTTZ
 70
0
  9
$DIMUPT
 70
0
  9
$DIMDEC
 70
4
  9
$DIMTDEC
 70
4
  9
$DIMALTU
 70
2
  9
$DIMALTTD
 70
2
  9
$DIMTXSTY
  7
Standard
  9
$DIMAUNIT
 70
0
  9
$DIMADEC
 70
0
  9
$DIMALTRND
 40
0.0
  9
$DIMAZIN
 70
0
  9
$DIMDSEP
 70
46
  9
$DIMATFIT
 70
3
  9
$DIMFRAC
 70
0
  9
$DIMLDRBLK
  1

  9
$DIMLUNIT
 70
2
  9
$DIMLWD
 70
-2
  9
$DIMLWE
 70
-2
  9
$DIMTMOVE
 70
2
  9
$DIMFXL
 40
1.0
  9
$DIMFXLON
 70
0
  9
$DIMJOGANG
 40
0.7853981633974483
  9
$DIMTFILL
 70
0
  9
$DIMTFILLCLR
 70
0
  9
$DIMARCSYM
 70
0
  9
$DIMLTYPE
  6

  9
$DIMLTEX1
  6

  9
$DIMLTEX2
  6

  9
$DIMTXTDIRECTION
 70
0
  9
$LUNITS
 70
2
  9
$LUPREC
 70
4
  9
$SKETCHINC
 40
0.1
  9
$FILLETRAD
 40
0.0
  9
$AUNITS
 70
0
  9
$AUPREC
 70
0
  9
$MENU
  1
.
  9
$ELEVATION
 40
0.0
  9
$PELEVATION
 40
0.0
  9
$THICKNESS
 40
0.0
  9
$LIMCHECK
 70
0
  9
$CHAMFERA
 40
0.0
  9
$CHAMFERB
 40
0.0
  9
$CHAMFERC
 40
0.0
  9
$CHAMFERD
 40
0.0
  9
$SKPOLY
 70
0
  9
$TDCREATE
 40
2461058.9947569445
  9
$TDUCREATE
 40
2461043.512268496
  9
$TDUPDATE
 40
2461058.9947569445
  9
$TDUUPDATE
 40
2461058.952628484
  9
$TDINDWG
 40
1.16e-08
  9
$TDUSRTIMER
 40
1.16e-08
  9
$USRTIMER
 70
1
  9
$ANGBASE
 50
0.0
  9
$ANGDIR
 70
1
  9
$PDMODE
 70
0
  9
$PDSIZE
 40
0.0
  9
$PLINEWID
 40
0.0
  9
$SPLFRAME
 70
0
  9
$SPLINETYPE
 70
6
  9
$SPLINESEGS
 70
8
  9
$HANDSEED
  5
308
  9
$SURFTAB1
 70
6
  9
$SURFTAB2
 70
6
  9
$SURFTYPE
 70
6
  9
$SURFU
 70
6
  9
$SURFV
 70
6
  9
$UCSBASE
  2

  9
$UCSNAME
  2

  9
$UCSORG
 10
0.0
 20
0.0
 30
0.0
  9
$UCSXDIR
 10
1.0
 20
0.0
 30
0.0
  9
$UCSYDIR
 10
0.0
 20
1.0
 30
0.0
  9
$UCSORTHOREF
  2

  9
$UCSORTHOVIEW
 70
0
  9
$UCSORGTOP
 10
0.0
 20
0.0
 30
0.0
  9
$UCSORGBOTTOM
 10
0.0
 20
0.0
 30
0.0
  9
$UCSORGLEFT
 10
0.0
 20
0.0
 30
0.0
  9
$UCSORGRIGHT
 10
0.0
 20
0.0
 30
0.0
  9
$UCSORGFRONT
 10
0.0
 20
0.0
 30
0.0
  9
$UCSORGBACK
 10
0.0
 20
0.0
 30
0.0
  9
$PUCSBASE
  2

  9
$PUCSNAME
  2

  9
$PUCSORG
 10
0.0
 20
0.0
 30
0.0
  9
$PUCSXDIR
 10
1.0
 20
0.0
 30
0.0
  9
$PUCSYDIR
 10
0.0
 20
1.0
 30
0.0
  9
$PUCSORTHOREF
  2

  9
$PUCSORTHOVIEW
 70
0
  9
$PUCSORGTOP
 10
0.0
 20
0.0
 30
0.0
  9
$PUCSORGBOTTOM
 10
0.0
 20
0.0
 30
0.0
  9
$PUCSORGLEFT
 10
0.0
 20
0.0
 30
0.0
  9
$PUCSORGRIGHT
 10
0.0
 20
0.0
 30
0.0
  9
$PUCSORGFRONT
 10
0.0
 20
0.0
 30
0.0
  9
$PUCSORGBACK
 10
0.0
 20
0.0
 30
0.0
  9
$USERI1
 70
0
  9
$USERI2
 70
0
  9
$USERI3
 70
0
  9
$USERI4
 70
0
  9
$USERI5
 70
0
  9
$USERR1
 40
0.0
  9
$USERR2
 40
0.0
  9
$USERR3
 40
0.0
  9
$USERR4
 40
0.0
  9
$USERR5
 40
0.0
  9
$WORLDVIEW
 70
1
  9
$SHADEDGE
 70
3
  9
$SHADEDIF
 70
70
  9
$TILEMODE
 70
1
  9
$MAXACTVP
 70
64
  9
$PINSBASE
 10
0.0
 20
0.0
 30
0.0
  9
$PLIMCHECK
 70
0
  9
$PEXTMIN
 10
1e+20
 20
1e+20
 30
1e+20
  9
$PEXTMAX
 10
-1e+20
 20
-1e+20
 30
-1e+20
  9
$PLIMMIN
 10
0.0
 20
0.0
  9
$PLIMMAX
 10
420.0
 20
297.0
  9
$UNITMODE
 70
0
  9
$VISRETAIN
 70
1
  9
$PLINEGEN
 70
0
  9
$PSLTSCALE
 70
1
  9
$TREEDEPTH
 70
3020
  9
$CMLSTYLE
  2
Standard
  9
$CMLJUST
 70
0
  9
$CMLSCALE
 40
1.0
  9
$PROXYGRAPHICS
 70
1
  9
$MEASUREMENT
 70
0
  9
$CELWEIGHT
370
-1
  9
$ENDCAPS
280
0
  9
$JOINSTYLE
280
0
  9
$LWDISPLAY
290
0
  9
$INSUNITS
 70
4
  9
$HYPERLINKBASE
  1

  9
$STYLESHEET
  1

  9
$XEDIT
290
1
  9
$CEPSNTYPE
380
0
  9
$PSTYLEMODE
290
1
  9
$FINGERPRINTGUID
  2
{e105a01d-5f6b-c74a-af42-92c81666e81b}
  9
$VERSIONGUID
  2
{64E98078-CF5B-458D-A260-E635E038D3B4}
  9
$EXTNAMES
290
1
  9
$PSVPSCALE
 40
0.0
  9
$OLESTARTUP
290
0
  9
$SORTENTS
280
127
  9
$INDEXCTL
280
0
  9
$HIDETEXT
280
1
  9
$XCLIPFRAME
280
2
  9
$HALOGAP
280
0
  9
$OBSCOLOR
 70
257
  9
$OBSLTYPE
280
0
  9
$INTERSECTIONDISPLAY
280
0
  9
$INTERSECTIONCOLOR
 70
257
  9
$DIMASSOC
280
2
  9
$PROJECTNAME
  1

  9
$CAMERADISPLAY
290
0
  9
$LENSLENGTH
 40
50.0
  9
$CAMERAHEIGHT
 40
0.0
  9
$STEPSPERSEC
 40
2.0
  9
$STEPSIZE
 40
6.0
  9
$3DDWFPREC
 40
2.0
  9
$PSOLWIDTH
 40
0.25
  9
$PSOLHEIGHT
 40
4.0
  9
$LOFTANG1
 40
1.570796326794897
  9
$LOFTANG2
 40
1.570796326794897
  9
$LOFTMAG1
 40
0.0
  9
$LOFTMAG2
 40
0.0
  9
$LOFTPARAM
 70
7
  9
$LOFTNORMALS
280
1
  9
$LATITUDE
 40
37.795
  9
$LONGITUDE
 40
-122.394
  9
$NORTHDIRECTION
 40
0.0
  9
$TIMEZONE
 70
-8000
  9
$LIGHTGLYPHDISPLAY
280
1
  9
$TILEMODELIGHTSYNCH
280
1
  9
$CMATERIAL
347
2A
  9
$SOLIDHIST
280
0
  9
$SHOWHIST
280
1
  9
$DWFFRAME
280
2
  9
$DGNFRAME
280
2
  9
$REALWORLDSCALE
290
1
  9
$INTERFERECOLOR
 62
256
  9
$CSHADOW
280
0
  9
$SHADOWPLANELOCATION
 40
0.0
  0
ENDSEC
  0
SECTION
  2
CLASSES
  0
CLASS
  1
ACDBDICTIONARYWDFLT
  2
AcDbDictionaryWithDefault
  3
ObjectDBX Classes
 90
0
 91
3
280
0
281
0
  0
CLASS
  1
MATERIAL
  2
AcDbMaterial
  3
ObjectDBX Classes
 90
1153
 91
3
280
0
281
0
  0
CLASS
  1
SCALE
  2
AcDbScale
  3
ObjectDBX Classes
 90
1153
 91
3
280
0
281
0
  0
CLASS
  1
VISUALSTYLE
  2
AcDbVisualStyle
  3
ObjectDBX Classes
 90
4095
 91
3
280
0
281
0
  0
CLASS
  1
TABLESTYLE
  2
AcDbTableStyle
  3
ObjectDBX Classes
 90
4095
 91
3
280
0
281
0
  0
CLASS
  1
MLEADERSTYLE
  2
AcDbMLeaderStyle
  3
ACDB_MLEADERSTYLE_CLASS
 90
4095
 91
3
280
0
281
0
  0
CLASS
  1
DICTIONARYVAR
  2
AcDbDictionaryVar
  3
ObjectDBX Classes
 90
0
 91
3
280
0
281
0
  0
CLASS
  1
CELLSTYLEMAP
  2
AcDbCellStyleMap
  3
ObjectDBX Classes
 90
1152
 91
3
280
0
281
0
  0
CLASS
  1
SUN
  2
AcDbSun
  3
SCENEOE
 90
1153
 91
3
280
0
281
0
  0
CLASS
  1
MENTALRAYRENDERSETTINGS
  2
AcDbMentalRayRenderSettings
  3
SCENEOE
 90
1024
 91
3
280
0
281
0
  0
CLASS
  1
ACDBDETAILVIEWSTYLE
  2
AcDbDetailViewStyle
  3
ObjectDBX Classes
 90
1025
 91
3
280
0
281
0
  0
CLASS
  1
ACDBSECTIONVIEWSTYLE
  2
AcDbSectionViewStyle
  3
ObjectDBX Classes
 90
1025
 91
3
280
0
281
0
  0
CLASS
  1
RASTERVARIABLES
  2
AcDbRasterVariables
  3
ISM
 90
0
 91
3
280
0
281
0
  0
CLASS
  1
ACDBPLACEHOLDER
  2
AcDbPlaceHolder
  3
ObjectDBX Classes
 90
0
 91
1
280
0
281
0
  0
CLASS
  1
LAYOUT
  2
AcDbLayout
  3
ObjectDBX Classes
 90
0
 91
1
280
0
281
0
  0
ENDSEC
  0
SECTION
  2
TABLES
  0
TABLE
  2
VPORT
  5
8
330
0
100
AcDbSymbolTable
 70
1
  0
VPORT
  5
20
330
8
100
AcDbSymbolTableRecord
100
AcDbViewportTableRecord
  2
*Active
 70
0
 10
0.0
 20
0.0
 11
1.0
 21
1.0
 12
0.0
 22
0.0
 13
0.0
 23
0.0
 14
0.5
 24
0.5
 15
0.5
 25
0.5
 16
0.0
 26
0.0
 36
1.0
 17
0.0
 27
0.0
 37
0.0
 40
1000.0
 41
1.34
 42
50.0
 43
0.0
 44
0.0
 50
0.0
 51
0.0
 71
0
 72
1000
 73
1
 74
3
 75
0
 76
0
 77
0
 78
0
281
0
 65
0
110
0.0
120
0.0
130
0.0
111
1.0
121
0.0
131
0.0
112
0.0
122
1.0
132
0.0
 79
0
146
0.0
 60
3
 61
5
348
2AC
292
1
282
1
141
0.0
142
0.0
 63
256
  0
ENDTAB
  0
TABLE
  2
LTYPE
  5
5
330
0
100
AcDbSymbolTable
 70
6
  0
LTYPE
  5
14
330
5
100
AcDbSymbolTableRecord
100
AcDbLinetypeTableRecord
  2
ByBlock
 70
0
  3

 72
65
 73
0
 40
0.0
  0
LTYPE
  5
15
330
5
100
AcDbSymbolTableRecord
100
AcDbLinetypeTableRecord
  2
ByLayer
 70
0
  3

 72
65
 73
0
 40
0.0
  0
LTYPE
  5
16
330
5
100
AcDbSymbolTableRecord
100
AcDbLinetypeTableRecord
  2
CONTINUOUS
 70
0
  3
Solid line
 72
65
 73
0
 40
0.0
  0
LTYPE
  5
22
330
5
100
AcDbSymbolTableRecord
100
AcDbLinetypeTableRecord
  2
DASHDOT
 70
0
  3
Dash Dot ____ _ ____ _
 72
65
 73
4
 40
2.0
 49
1.25
 74
0
 49
-0.25
 74
0
 49
0.25
 74
0
 49
-0.25
 74
0
  0
LTYPE
  5
23
330
5
100
AcDbSymbolTableRecord
100
AcDbLinetypeTableRecord
  2
DASHED
 70
0
  3
Dashed __ __ __ __ __
 72
65
 73
2
 40
0.75
 49
0.5
 74
0
 49
-0.25
 74
0
  0
LTYPE
  5
24
330
5
100
AcDbSymbolTableRecord
100
AcDbLinetypeTableRecord
  2
DOTTED
 70
0
  3
Dotted .  .  .  .
 72
65
 73
2
 40
0.2
 49
0.0
 74
0
 49
-0.2
 74
0
  0
ENDTAB
  0
TABLE
  2
LAYER
  5
2
330
0
100
AcDbSymbolTable
 70
3
  0
LAYER
  5
10
330
2
100
AcDbSymbolTableRecord
100
AcDbLayerTableRecord
  2
0
 70
0
 62
7
  6
CONTINUOUS
370
-3
390
F
347
2C
348
0
  0
LAYER
  5
27
330
2
100
AcDbSymbolTableRecord
100
AcDbLayerTableRecord
  2
BLACK
 70
0
 62
7
  6
CONTINUOUS
370
-3
390
F
347
2C
348
0
  0
LAYER
  5
2D
330
2
100
AcDbSymbolTableRecord
100
AcDbLayerTableRecord
  2
Defpoints
 70
0
 62
7
  6
CONTINUOUS
290
0
370
-3
390
F
347
2C
348
0
  0
ENDTAB
  0
TABLE
  2
STYLE
  5
3
330
0
100
AcDbSymbolTable
 70
5
  0
STYLE
  5
11
330
3
100
AcDbSymbolTableRecord
100
AcDbTextStyleTableRecord
  2
Standard
 70
0
 40
0.0
 41
1.0
 50
0.0
 71
0
 42
2.5
  3
txt
  4

  0
STYLE
  5
2E
330
3
100
AcDbSymbolTableRecord
100
AcDbTextStyleTableRecord
  2
KICAD
 70
0
 40
0.0
 41
1.0
 50
0.0
 71
0
 42
1.0
  3
isocp.shx
  4

  0
STYLE
  5
2F
330
3
100
AcDbSymbolTableRecord
100
AcDbTextStyleTableRecord
  2
KICADB
 70
0
 40
0.0
 41
1.0
 50
0.0
 71
0
 42
1.0
  3
isocp.shx
  4

  0
STYLE
  5
30
330
3
100
AcDbSymbolTableRecord
100
AcDbTextStyleTableRecord
  2
KICADI
 70
0
 40
0.0
 41
1.0
 50
15.0
 71
0
 42
1.0
  3
isocp.shx
  4

  0
STYLE
  5
31
330
3
100
AcDbSymbolTableRecord
100
AcDbTextStyleTableRecord
  2
KICADBI
 70
0
 40
0.0
 41
1.0
 50
15.0
 71
0
 42
1.0
  3
isocp.shx
  4

  0
ENDTAB
  0
TABLE
  2
VIEW
  5
6
330
0
100
AcDbSymbolTable
 70
0
  0
ENDTAB
  0
TABLE
  2
UCS
  5
7
330
0
100
AcDbSymbolTable
 70
0
  0
ENDTAB
  0
TABLE
  2
APPID
  5
9
330
0
100
AcDbSymbolTable
 70
3
  0
APPID
  5
12
330
9
100
AcDbSymbolTableRecord
100
AcDbRegAppTableRecord
  2
ACAD
 70
0
  0
APPID
  5
34
330
9
100
AcDbSymbolTableRecord
100
AcDbRegAppTableRecord
  2
HATCHBACKGROUNDCOLOR
 70
0
  0
APPID
  5
35
330
9
100
AcDbSymbolTableRecord
100
AcDbRegAppTableRecord
  2
EZDXF
 70
0
  0
ENDTAB
  0
TABLE
  2
DIMSTYLE
  5
A
330
0
100
AcDbSymbolTable
 70
1
100
AcDbDimStyleTable
  0
DIMSTYLE
105
36
330
A
100
AcDbSymbolTableRecord
100
AcDbDimStyleTableRecord
  2
Standard
 70
0
 40
1.0
 41
2.5
 42
0.625
 43
3.75
 44
1.25
 45
0.0
 46
0.0
 47
0.0
 48
0.0
 49
2.5
140
2.5
141
2.5
142
0.0
143
0.03937007874
144
1.0
145
0.0
146
1.0
147
0.625
148
0.0
 69
0
 70
0
 71
0
 72
0
 73
0
 74
0
 75
0
 76
0
 77
1
 78
8
 79
3
170
0
171
3
172
1
173
0
174
0
175
0
176
0
177
0
178
0
179
2
271
2
272
2
273
2
274
3
275
0
276
0
277
2
278
44
279
0
280
0
281
0
282
0
283
0
284
8
285
0
286
0
288
0
289
3
290
0
340
11
371
-2
372
-2
  0
ENDTAB
  0
TABLE
  2
BLOCK_RECORD
  5
1
330
0
100
AcDbSymbolTable
 70
2
  0
BLOCK_RECORD
  5
1D
330
1
100
AcDbSymbolTableRecord
100
AcDbBlockTableRecord
  2
*Model_Space
340
1E
 70
0
280
1
281
0
  0
BLOCK_RECORD
  5
1B
330
1
100
AcDbSymbolTableRecord
100
AcDbBlockTableRecord
  2
*Paper_Space
340
1C
 70
0
280
1
281
0
  0
ENDTAB
  0
ENDSEC
  0
SECTION
  2
BLOCKS
  0
BLOCK
  5
37
330
1D
100
AcDbEntity
  8
0
100
AcDbBlockBegin
  2
*Model_Space
 70
0
 10
0.0
 20
0.0
 30
0.0
  3
*Model_Space
  1

1001
EZDXF
1000
WRITTEN_BY_EZDXF
1000
1.4.3 @ 2026-01-02T12:17:40.289891+00:00
  0
ENDBLK
  5
38
330
1D
100
AcDbEntity
  8
0
100
AcDbBlockEnd
  0
BLOCK
  5
39
330
1B
100
AcDbEntity
 67
1
  8
0
100
AcDbBlockBegin
  2
*Paper_Space
 70
0
 10
0.0
 20
0.0
 30
0.0
  3
*Paper_Space
  1

  0
ENDBLK
  5
3A
330
1B
100
AcDbEntity
 67
1
  8
0
100
AcDbBlockEnd
  0
ENDSEC
  0
SECTION
  2
ENTITIES
  0
CIRCLE
  5
3B
330
1D
100
AcDbEntity
  8
BLACK
100
AcDbCircle
 10
42.8625
 20
-61.91249999999999
 30
0.0
 40
1.0
  0
CIRCLE
  5
3C
330
1D
100
AcDbEntity
  8
BLACK
100
AcDbCircle
 10
90.4875
 20
-80.96249999999999
 30
0.0
 40
1.0
  0
CIRCLE
  5
3D
330
1D
100
AcDbEntity
  8
BLACK
100
AcDbCircle
 10
-7.14375
 20
-61.91249999999999
 30
0.0
 40
1.0
  0
CIRCLE
  5
3E
330
1D
100
AcDbEntity
  8
BLACK
100
AcDbCircle
 10
9.525
 20
-23.8125
 30
0.0
 40
1.0
  0
CIRCLE
  5
3F
330
1D
100
AcDbEntity
  8
BLACK
100
AcDbCircle
 10
185.7375
 20
-80.96249999999999
 30
0.0
 40
1.0
  0
CIRCLE
  5
40
330
1D
100
AcDbEntity
  8
BLACK
100
AcDbCircle
 10
171.45
 20
-42.8625
 30
0.0
 40
1.0
  0
CIRCLE
  5
41
330
1D
100
AcDbEntity
  8
BLACK
100
AcDbCircle
 10
142.875
 20
-23.8125
 30
0.0
 40
1.0
  0
CIRCLE
  5
42
330
1D
100
AcDbEntity
  8
BLACK
100
AcDbCircle
 10
66.675
 20
-23.8125
 30
0.0
 40
1.0
  0
CIRCLE
  5
43
330
1D
100
AcDbEntity
  8
BLACK
100
AcDbCircle
 10
95.25
 20
-42.8625
 30
0.0
 40
1.0
  0
LINE
  5
44
330
1D
100
AcDbEntity
  8
BLACK
  6
Continuous
100
AcDbLine
 10
140.3375
 20
-55.41249999999999
 30
0.0
 11
140.3375
 21
-68.4125
 31
0.0
  0
ARC
  5
45
330
1D
100
AcDbEntity
  8
BLACK
100
AcDbCircle
 10
140.8375
 20
-68.4125
 30
0.0
 40
0.5
100
AcDbArc
 50
180.0
 51
270.0
  0
LINE
  5
46
330
1D
100
AcDbEntity
  8
BLACK
  6
Continuous
100
AcDbLine
 10
140.8375
 20
-68.9125
 30
0.0
 11
154.4375
 21
-68.9125
 31
0.0
  0
ARC
  5
47
330
1D
100
AcDbEntity
  8
BLACK
100
AcDbCircle
 10
154.4375
 20
-68.4125
 30
0.0
 40
0.5
100
AcDbArc
 50
270.0
 51
0.0
  0
LINE
  5
48
330
1D
100
AcDbEntity
  8
BLACK
  6
Continuous
100
AcDbLine
 10
154.9375
 20
-68.4125
 30
0.0
 11
154.9375
 21
-55.41249999999999
 31
0.0
  0
ARC
  5
49
330
1D
100
AcDbEntity
  8
BLACK
100
AcDbCircle
 10
154.4375
 20
-55.41249999999999
 30
0.0
 40
0.5
100
AcDbArc
 50
0.0
 51
90.0
  0
LINE
  5
4A
330
1D
100
AcDbEntity
  8
BLACK
  6
Continuous
100
AcDbLine
 10
154.4375
 20
-54.91249999999999
 30
0.0
 11
140.8375
 21
-54.91249999999999
 31
0.0
  0
ARC
  5
4B
330
1D
100
AcDbEntity
  8
BLACK
100
AcDbCircle
 10
140.8375
 20
-55.41249999999999
 30
0.0
 40
0.5
100
AcDbArc
 50
90.0
 51
180.0
  0
LINE
  5
4C
330
1D
100
AcDbEntity
  8
BLACK
  6
Continuous
100
AcDbLine
 10
187.9625
 20
-74.46249999999999
 30
0.0
 11
187.9625
 21
-87.46249999999999
 31
0.0
  0
ARC
  5
4D
330
1D
100
AcDbEntity
  8
BLACK
100
AcDbCircle
 10
188.4625
 20
-87.46249999999999
 30
0.0
 40
0.5
100
AcDbArc
 50
180.0
 51
270.0
  0
LINE
  5
4E
330
1D
100
AcDbEntity
  8
BLACK
  6
Continuous
100
AcDbLine
 10
188.4625
 20
-87.96249999999999
 30
0.0
 11
202.0625
 21
-87.96249999999999
 31
0.0
  0
ARC
  5
4F
330
1D
100
AcDbEntity
  8
BLACK
100
AcDbCircle
 10
202.0625
 20
-87.46249999999999
 30
0.0
 40
0.5
100
AcDbArc
 50
270.0
 51
0.0
  0
LINE
  5
50
330
1D
100
AcDbEntity
  8
BLACK
  6
Continuous
100
AcDbLine
 10
202.5625
 20
-87.46249999999999
 30
0.0
 11
202.5625
 21
-74.46249999999999
 31
0.0
  0
ARC
  5
51
330
1D
100
AcDbEntity
  8
BLACK
100
AcDbCircle
 10
202.0625
 20
-74.46249999999999
 30
0.0
 40
0.5
100
AcDbArc
 50
0.0
 51
90.0
  0
LINE
  5
52
330
1D
100
AcDbEntity
  8
BLACK
  6
Continuous
100
AcDbLine
 10
202.0625
 20
-73.96249999999999
 30
0.0
 11
188.4625
 21
-73.96249999999999
 31
0.0
  0
ARC
  5
53
330
1D
100
AcDbEntity
  8
BLACK
100
AcDbCircle
 10
188.4625
 20
-74.46249999999999
 30
0.0
 40
0.5
100
AcDbArc
 50
90.0
 51
180.0
  0
LINE
  5
54
330
1D
100
AcDbEntity
  8
BLACK
  6
Continuous
100
AcDbLine
 10
216.5375
 20
-55.41249999999999
 30
0.0
 11
216.5375
 21
-68.4125
 31
0.0
  0
ARC
  5
55
330
1D
100
AcDbEntity
  8
BLACK
100
AcDbCircle
 10
217.0375
 20
-68.4125
 30
0.0
 40
0.5
100
AcDbArc
 50
180.0
 51
270.0
  0
LINE
  5
56
330
1D
100
AcDbEntity
  8
BLACK
  6
Continuous
100
AcDbLine
 10
217.0375
 20
-68.9125
 30
0.0
 11
230.6375
 21
-68.9125
 31
0.0
  0
ARC
  5
57
330
1D
100
AcDbEntity
  8
BLACK
100
AcDbCircle
 10
230.6375
 20
-68.4125
 30
0.0
 40
0.5
100
AcDbArc
 50
270.0
 51
0.0
  0
LINE
  5
58
330
1D
100
AcDbEntity
  8
BLACK
  6
Continuous
100
AcDbLine
 10
231.1375
 20
-68.4125
 30
0.0
 11
231.1375
 21
-55.41249999999999
 31
0.0
  0
ARC
  5
59
330
1D
100
AcDbEntity
  8
BLACK
100
AcDbCircle
 10
230.6375
 20
-55.41249999999999
 30
0.0
 40
0.5
100
AcDbArc
 50
0.0
 51
90.0
  0
LINE
  5
5A
330
1D
100
AcDbEntity
  8
BLACK
  6
Continuous
100
AcDbLine
 10
230.6375
 20
-54.91249999999999
 30
0.0
 11
217.0375
 21
-54.91249999999999
 31
0.0
  0
ARC
  5
5B
330
1D
100
AcDbEntity
  8
BLACK
100
AcDbCircle
 10
217.0375
 20
-55.41249999999999
 30
0.0
 40
0.5
100
AcDbArc
 50
90.0
 51
180.0
  0
LINE
  5
5C
330
1D
100
AcDbEntity
  8
BLACK
  6
Continuous
100
AcDbLine
 10
59.375
 20
-36.3625
 30
0.0
 11
59.375
 21
-49.3625
 31
0.0
  0
ARC
  5
5D
330
1D
100
AcDbEntity
  8
BLACK
100
AcDbCircle
 10
59.875
 20
-49.3625
 30
0.0
 40
0.5
100
AcDbArc
 50
180.0
 51
270.0
  0
LINE
  5
5E
330
1D
100
AcDbEntity
  8
BLACK
  6
Continuous
100
AcDbLine
 10
59.875
 20
-49.8625
 30
0.0
 11
73.475
 21
-49.8625
 31
0.0
  0
ARC
  5
5F
330
1D
100
AcDbEntity
  8
BLACK
100
AcDbCircle
 10
73.475
 20
-49.3625
 30
0.0
 40
0.5
100
AcDbArc
 50
270.0
 51
0.0
  0
LINE
  5
60
330
1D
100
AcDbEntity
  8
BLACK
  6
Continuous
100
AcDbLine
 10
73.975
 20
-49.3625
 30
0.0
 11
73.975
 21
-36.3625
 31
0.0
  0
ARC
  5
61
330
1D
100
AcDbEntity
  8
BLACK
100
AcDbCircle
 10
73.475
 20
-36.3625
 30
0.0
 40
0.5
100
AcDbArc
 50
0.0
 51
90.0
  0
LINE
  5
62
330
1D
100
AcDbEntity
  8
BLACK
  6
Continuous
100
AcDbLine
 10
73.475
 20
-35.8625
 30
0.0
 11
59.875
 21
-35.8625
 31
0.0
  0
ARC
  5
63
330
1D
100
AcDbEntity
  8
BLACK
100
AcDbCircle
 10
59.875
 20
-36.3625
 30
0.0
 40
0.5
100
AcDbArc
 50
90.0
 51
180.0
  0
LINE
  5
64
330
1D
100
AcDbEntity
  8
BLACK
  6
Continuous
100
AcDbLine
 10
64.1375
 20
-55.41249999999999
 30
0.0
 11
64.1375
 21
-68.4125
 31
0.0
  0
ARC
  5
65
330
1D
100
AcDbEntity
  8
BLACK
100
AcDbCircle
 10
64.6375
 20
-68.4125
 30
0.0
 40
0.5
100
AcDbArc
 50
180.0
 51
270.0
  0
LINE
  5
66
330
1D
100
AcDbEntity
  8
BLACK
  6
Continuous
100
AcDbLine
 10
64.6375
 20
-68.9125
 30
0.0
 11
78.2375
 21
-68.9125
 31
0.0
  0
ARC
  5
67
330
1D
100
AcDbEntity
  8
BLACK
100
AcDbCircle
 10
78.2375
 20
-68.4125
 30
0.0
 40
0.5
100
AcDbArc
 50
270.0
 51
0.0
  0
LINE
  5
68
330
1D
100
AcDbEntity
  8
BLACK
  6
Continuous
100
AcDbLine
 10
78.7375
 20
-68.4125
 30
0.0
 11
78.7375
 21
-55.41249999999999
 31
0.0
  0
ARC
  5
69
330
1D
100
AcDbEntity
  8
BLACK
100
AcDbCircle
 10
78.2375
 20
-55.41249999999999
 30
0.0
 40
0.5
100
AcDbArc
 50
0.0
 51
90.0
  0
LINE
  5
6A
330
1D
100
AcDbEntity
  8
BLACK
  6
Continuous
100
AcDbLine
 10
78.2375
 20
-54.91249999999999
 30
0.0
 11
64.6375
 21
-54.91249999999999
 31
0.0
  0
ARC
  5
6B
330
1D
100
AcDbEntity
  8
BLACK
100
AcDbCircle
 10
64.6375
 20
-55.41249999999999
 30
0.0
 40
0.5
100
AcDbArc
 50
90.0
 51
180.0
  0
LINE
  5
6C
330
1D
100
AcDbEntity
  8
BLACK
  6
Continuous
100
AcDbLine
 10
-2.5375
 20
-36.362501
 30
0.0
 11
-2.5375
 21
-49.3625
 31
0.0
  0
ARC
  5
6D
330
1D
100
AcDbEntity
  8
BLACK
100
AcDbCircle
 10
-2.037499
 20
-49.362499
 30
0.0
 40
0.500001
100
AcDbArc
 50
180.00011459
 51
270.0
  0
LINE
  5
6E
330
1D
100
AcDbEntity
  8
BLACK
  6
Continuous
100
AcDbLine
 10
-2.037499
 20
-49.8625
 30
0.0
 11
11.5625
 21
-49.8625
 31
0.0
  0
ARC
  5
6F
330
1D
100
AcDbEntity
  8
BLACK
100
AcDbCircle
 10
11.5625
 20
-49.3625
 30
0.0
 40
0.5
100
AcDbArc
 50
270.0
 51
0.0
  0
LINE
  5
70
330
1D
100
AcDbEntity
  8
BLACK
  6
Continuous
100
AcDbLine
 10
12.0625
 20
-49.3625
 30
0.0
 11
12.0625
 21
-36.3625
 31
0.0
  0
ARC
  5
71
330
1D
100
AcDbEntity
  8
BLACK
100
AcDbCircle
 10
11.5625
 20
-36.3625
 30
0.0
 40
0.5
100
AcDbArc
 50
0.0
 51
90.0
  0
LINE
  5
72
330
1D
100
AcDbEntity
  8
BLACK
  6
Continuous
100
AcDbLine
 10
11.5625
 20
-35.8625
 30
0.0
 11
-2.037499
 21
-35.8625
 31
0.0
  0
ARC
  5
73
330
1D
100
AcDbEntity
  8
BLACK
100
AcDbCircle
 10
-2.037499
 20
-36.362501
 30
0.0
 40
0.500001
100
AcDbArc
 50
90.0
 51
180.0
  0
LINE
  5
74
330
1D
100
AcDbEntity
  8
BLACK
  6
Continuous
100
AcDbLine
 10
211.775
 20
-36.3625
 30
0.0
 11
211.775
 21
-49.3625
 31
0.0
  0
ARC
  5
75
330
1D
100
AcDbEntity
  8
BLACK
100
AcDbCircle
 10
212.275
 20
-49.3625
 30
0.0
 40
0.5
100
AcDbArc
 50
180.0
 51
270.0
  0
LINE
  5
76
330
1D
100
AcDbEntity
  8
BLACK
  6
Continuous
100
AcDbLine
 10
212.275
 20
-49.8625
 30
0.0
 11
225.875
 21
-49.8625
 31
0.0
  0
ARC
  5
77
330
1D
100
AcDbEntity
  8
BLACK
100
AcDbCircle
 10
225.875
 20
-49.3625
 30
0.0
 40
0.5
100
AcDbArc
 50
270.0
 51
0.0
  0
LINE
  5
78
330
1D
100
AcDbEntity
  8
BLACK
  6
Continuous
100
AcDbLine
 10
226.375
 20
-49.3625
 30
0.0
 11
226.375
 21
-36.3625
 31
0.0
  0
ARC
  5
79
330
1D
100
AcDbEntity
  8
BLACK
100
AcDbCircle
 10
225.875
 20
-36.3625
 30
0.0
 40
0.5
100
AcDbArc
 50
0.0
 51
90.0
  0
LINE
  5
7A
330
1D
100
AcDbEntity
  8
BLACK
  6
Continuous
100
AcDbLine
 10
225.875
 20
-35.8625
 30
0.0
 11
212.275
 21
-35.8625
 31
0.0
  0
ARC
  5
7B
330
1D
100
AcDbEntity
  8
BLACK
100
AcDbCircle
 10
212.275
 20
-36.3625
 30
0.0
 40
0.5
100
AcDbArc
 50
90.0
 51
180.0
  0
LINE
  5
7C
330
1D
100
AcDbEntity
  8
BLACK
  6
Continuous
100
AcDbLine
 10
173.675
 20
-36.3625
 30
0.0
 11
173.675
 21
-49.3625
 31
0.0
  0
ARC
  5
7D
330
1D
100
AcDbEntity
  8
BLACK
100
AcDbCircle
 10
174.175
 20
-49.3625
 30
0.0
 40
0.5
100
AcDbArc
 50
180.0
 51
270.0
  0
LINE
  5
7E
330
1D
100
AcDbEntity
  8
BLACK
  6
Continuous
100
AcDbLine
 10
174.175
 20
-49.8625
 30
0.0
 11
187.775
 21
-49.8625
 31
0.0
  0
ARC
  5
7F
330
1D
100
AcDbEntity
  8
BLACK
100
AcDbCircle
 10
187.775
 20
-49.3625
 30
0.0
 40
0.5
100
AcDbArc
 50
270.0
 51
0.0
  0
LINE
  5
80
330
1D
100
AcDbEntity
  8
BLACK
  6
Continuous
100
AcDbLine
 10
188.275
 20
-49.3625
 30
0.0
 11
188.275
 21
-36.3625
 31
0.0
  0
ARC
  5
81
330
1D
100
AcDbEntity
  8
BLACK
100
AcDbCircle
 10
187.775
 20
-36.3625
 30
0.0
 40
0.5
100
AcDbArc
 50
0.0
 51
90.0
  0
LINE
  5
82
330
1D
100
AcDbEntity
  8
BLACK
  6
Continuous
100
AcDbLine
 10
187.775
 20
-35.8625
 30
0.0
 11
174.175
 21
-35.8625
 31
0.0
  0
ARC
  5
83
330
1D
100
AcDbEntity
  8
BLACK
100
AcDbCircle
 10
174.175
 20
-36.3625
 30
0.0
 40
0.5
100
AcDbArc
 50
90.0
 51
180.0
  0
LINE
  5
84
330
1D
100
AcDbEntity
  8
BLACK
  6
Continuous
100
AcDbLine
 10
107.0
 20
-17.3125
 30
0.0
 11
107.0
 21
-30.3125
 31
0.0
  0
ARC
  5
85
330
1D
100
AcDbEntity
  8
BLACK
100
AcDbCircle
 10
107.5
 20
-30.3125
 30
0.0
 40
0.5
100
AcDbArc
 50
180.0
 51
270.0
  0
LINE
  5
86
330
1D
100
AcDbEntity
  8
BLACK
  6
Continuous
100
AcDbLine
 10
107.5
 20
-30.8125
 30
0.0
 11
121.1
 21
-30.8125
 31
0.0
  0
ARC
  5
87
330
1D
100
AcDbEntity
  8
BLACK
100
AcDbCircle
 10
121.1
 20
-30.3125
 30
0.0
 40
0.5
100
AcDbArc
 50
270.0
 51
0.0
  0
LINE
  5
88
330
1D
100
AcDbEntity
  8
BLACK
  6
Continuous
100
AcDbLine
 10
121.6
 20
-30.3125
 30
0.0
 11
121.6
 21
-17.3125
 31
0.0
  0
ARC
  5
89
330
1D
100
AcDbEntity
  8
BLACK
100
AcDbCircle
 10
121.1
 20
-17.3125
 30
0.0
 40
0.5
100
AcDbArc
 50
0.0
 51
90.0
  0
LINE
  5
8A
330
1D
100
AcDbEntity
  8
BLACK
  6
Continuous
100
AcDbLine
 10
121.1
 20
-16.8125
 30
0.0
 11
107.5
 21
-16.8125
 31
0.0
  0
ARC
  5
8B
330
1D
100
AcDbEntity
  8
BLACK
100
AcDbCircle
 10
107.5
 20
-17.3125
 30
0.0
 40
0.5
100
AcDbArc
 50
90.0
 51
180.0
  0
LINE
  5
8C
330
1D
100
AcDbEntity
  8
BLACK
  6
Continuous
100
AcDbLine
 10
78.425
 20
-36.3625
 30
0.0
 11
78.425
 21
-49.3625
 31
0.0
  0
ARC
  5
8D
330
1D
100
AcDbEntity
  8
BLACK
100
AcDbCircle
 10
78.925
 20
-49.3625
 30
0.0
 40
0.5
100
AcDbArc
 50
180.0
 51
270.0
  0
LINE
  5
8E
330
1D
100
AcDbEntity
  8
BLACK
  6
Continuous
100
AcDbLine
 10
78.925
 20
-49.8625
 30
0.0
 11
92.52499999999999
 21
-49.8625
 31
0.0
  0
ARC
  5
8F
330
1D
100
AcDbEntity
  8
BLACK
100
AcDbCircle
 10
92.52499999999999
 20
-49.3625
 30
0.0
 40
0.5
100
AcDbArc
 50
270.0
 51
0.0
  0
LINE
  5
90
330
1D
100
AcDbEntity
  8
BLACK
  6
Continuous
100
AcDbLine
 10
93.02499999999999
 20
-49.3625
 30
0.0
 11
93.02499999999999
 21
-36.3625
 31
0.0
  0
ARC
  5
91
330
1D
100
AcDbEntity
  8
BLACK
100
AcDbCircle
 10
92.52499999999999
 20
-36.3625
 30
0.0
 40
0.5
100
AcDbArc
 50
0.0
 51
90.0
  0
LINE
  5
92
330
1D
100
AcDbEntity
  8
BLACK
  6
Continuous
100
AcDbLine
 10
92.52499999999999
 20
-35.8625
 30
0.0
 11
78.925
 21
-35.8625
 31
0.0
  0
ARC
  5
93
330
1D
100
AcDbEntity
  8
BLACK
100
AcDbCircle
 10
78.925
 20
-36.3625
 30
0.0
 40
0.5
100
AcDbArc
 50
90.0
 51
180.0
  0
LINE
  5
94
330
1D
100
AcDbEntity
  8
BLACK
  6
Continuous
100
AcDbLine
 10
168.9125
 20
-74.46249999999999
 30
0.0
 11
168.9125
 21
-87.46249999999999
 31
0.0
  0
ARC
  5
95
330
1D
100
AcDbEntity
  8
BLACK
100
AcDbCircle
 10
169.4125
 20
-87.46249999999999
 30
0.0
 40
0.5
100
AcDbArc
 50
180.0
 51
270.0
  0
LINE
  5
96
330
1D
100
AcDbEntity
  8
BLACK
  6
Continuous
100
AcDbLine
 10
169.4125
 20
-87.96249999999999
 30
0.0
 11
183.0125
 21
-87.96249999999999
 31
0.0
  0
ARC
  5
97
330
1D
100
AcDbEntity
  8
BLACK
100
AcDbCircle
 10
183.0125
 20
-87.46249999999999
 30
0.0
 40
0.5
100
AcDbArc
 50
270.0
 51
0.0
  0
LINE
  5
98
330
1D
100
AcDbEntity
  8
BLACK
  6
Continuous
100
AcDbLine
 10
183.5125
 20
-87.46249999999999
 30
0.0
 11
183.5125
 21
-74.46249999999999
 31
0.0
  0
ARC
  5
99
330
1D
100
AcDbEntity
  8
BLACK
100
AcDbCircle
 10
183.0125
 20
-74.46249999999999
 30
0.0
 40
0.5
100
AcDbArc
 50
0.0
 51
90.0
  0
LINE
  5
9A
330
1D
100
AcDbEntity
  8
BLACK
  6
Continuous
100
AcDbLine
 10
183.0125
 20
-73.96249999999999
 30
0.0
 11
169.4125
 21
-73.96249999999999
 31
0.0
  0
ARC
  5
9B
330
1D
100
AcDbEntity
  8
BLACK
100
AcDbCircle
 10
169.4125
 20
-74.46249999999999
 30
0.0
 40
0.5
100
AcDbArc
 50
90.0
 51
180.0
  0
LINE
  5
9C
330
1D
100
AcDbEntity
  8
BLACK
  6
Continuous
100
AcDbLine
 10
207.0125
 20
-74.46249999999999
 30
0.0
 11
207.0125
 21
-87.46249999999999
 31
0.0
  0
ARC
  5
9D
330
1D
100
AcDbEntity
  8
BLACK
100
AcDbCircle
 10
207.5125
 20
-87.46249999999999
 30
0.0
 40
0.5
100
AcDbArc
 50
180.0
 51
270.0
  0
LINE
  5
9E
330
1D
100
AcDbEntity
  8
BLACK
  6
Continuous
100
AcDbLine
 10
207.5125
 20
-87.96249999999999
 30
0.0
 11
221.1125
 21
-87.96249999999999
 31
0.0
  0
ARC
  5
9F
330
1D
100
AcDbEntity
  8
BLACK
100
AcDbCircle
 10
221.1125
 20
-87.46249999999999
 30
0.0
 40
0.5
100
AcDbArc
 50
270.0
 51
0.0
  0
LINE
  5
A0
330
1D
100
AcDbEntity
  8
BLACK
  6
Continuous
100
AcDbLine
 10
221.6125
 20
-87.46249999999999
 30
0.0
 11
221.6125
 21
-74.46249999999999
 31
0.0
  0
ARC
  5
A1
330
1D
100
AcDbEntity
  8
BLACK
100
AcDbCircle
 10
221.1125
 20
-74.46249999999999
 30
0.0
 40
0.5
100
AcDbArc
 50
0.0
 51
90.0
  0
LINE
  5
A2
330
1D
100
AcDbEntity
  8
BLACK
  6
Continuous
100
AcDbLine
 10
221.1125
 20
-73.96249999999999
 30
0.0
 11
207.5125
 21
-73.96249999999999
 31
0.0
  0
ARC
  5
A3
330
1D
100
AcDbEntity
  8
BLACK
100
AcDbCircle
 10
207.5125
 20
-74.46249999999999
 30
0.0
 40
0.5
100
AcDbArc
 50
90.0
 51
180.0
  0
LINE
  5
A4
330
1D
100
AcDbEntity
  8
BLACK
  6
Continuous
100
AcDbLine
 10
202.25
 20
-17.3125
 30
0.0
 11
202.25
 21
-30.3125
 31
0.0
  0
ARC
  5
A5
330
1D
100
AcDbEntity
  8
BLACK
100
AcDbCircle
 10
202.75
 20
-30.3125
 30
0.0
 40
0.5
100
AcDbArc
 50
180.0
 51
270.0
  0
LINE
  5
A6
330
1D
100
AcDbEntity
  8
BLACK
  6
Continuous
100
AcDbLine
 10
202.75
 20
-30.8125
 30
0.0
 11
216.35
 21
-30.8125
 31
0.0
  0
ARC
  5
A7
330
1D
100
AcDbEntity
  8
BLACK
100
AcDbCircle
 10
216.35
 20
-30.3125
 30
0.0
 40
0.5
100
AcDbArc
 50
270.0
 51
0.0
  0
LINE
  5
A8
330
1D
100
AcDbEntity
  8
BLACK
  6
Continuous
100
AcDbLine
 10
216.85
 20
-30.3125
 30
0.0
 11
216.85
 21
-17.3125
 31
0.0
  0
ARC
  5
A9
330
1D
100
AcDbEntity
  8
BLACK
100
AcDbCircle
 10
216.35
 20
-17.3125
 30
0.0
 40
0.5
100
AcDbArc
 50
0.0
 51
90.0
  0
LINE
  5
AA
330
1D
100
AcDbEntity
  8
BLACK
  6
Continuous
100
AcDbLine
 10
216.35
 20
-16.8125
 30
0.0
 11
202.75
 21
-16.8125
 31
0.0
  0
ARC
  5
AB
330
1D
100
AcDbEntity
  8
BLACK
100
AcDbCircle
 10
202.75
 20
-17.3125
 30
0.0
 40
0.5
100
AcDbArc
 50
90.0
 51
180.0
  0
LINE
  5
AC
330
1D
100
AcDbEntity
  8
BLACK
  6
Continuous
100
AcDbLine
 10
87.95
 20
-17.3125
 30
0.0
 11
87.95
 21
-30.3125
 31
0.0
  0
ARC
  5
AD
330
1D
100
AcDbEntity
  8
BLACK
100
AcDbCircle
 10
88.45
 20
-30.3125
 30
0.0
 40
0.5
100
AcDbArc
 50
180.0
 51
270.0
  0
LINE
  5
AE
330
1D
100
AcDbEntity
  8
BLACK
  6
Continuous
100
AcDbLine
 10
88.45
 20
-30.8125
 30
0.0
 11
102.05
 21
-30.8125
 31
0.0
  0
ARC
  5
AF
330
1D
100
AcDbEntity
  8
BLACK
100
AcDbCircle
 10
102.05
 20
-30.3125
 30
0.0
 40
0.5
100
AcDbArc
 50
270.0
 51
0.0
  0
LINE
  5
B0
330
1D
100
AcDbEntity
  8
BLACK
  6
Continuous
100
AcDbLine
 10
102.55
 20
-30.3125
 30
0.0
 11
102.55
 21
-17.3125
 31
0.0
  0
ARC
  5
B1
330
1D
100
AcDbEntity
  8
BLACK
100
AcDbCircle
 10
102.05
 20
-17.3125
 30
0.0
 40
0.5
100
AcDbArc
 50
0.0
 51
90.0
  0
LINE
  5
B2
330
1D
100
AcDbEntity
  8
BLACK
  6
Continuous
100
AcDbLine
 10
102.05
 20
-16.8125
 30
0.0
 11
88.45
 21
-16.8125
 31
0.0
  0
ARC
  5
B3
330
1D
100
AcDbEntity
  8
BLACK
100
AcDbCircle
 10
88.45
 20
-17.3125
 30
0.0
 40
0.5
100
AcDbArc
 50
90.0
 51
180.0
  0
LINE
  5
B4
330
1D
100
AcDbEntity
  8
BLACK
  6
Continuous
100
AcDbLine
 10
178.4375
 20
-55.41249999999999
 30
0.0
 11
178.4375
 21
-68.4125
 31
0.0
  0
ARC
  5
B5
330
1D
100
AcDbEntity
  8
BLACK
100
AcDbCircle
 10
178.9375
 20
-68.4125
 30
0.0
 40
0.5
100
AcDbArc
 50
180.0
 51
270.0
  0
LINE
  5
B6
330
1D
100
AcDbEntity
  8
BLACK
  6
Continuous
100
AcDbLine
 10
178.9375
 20
-68.9125
 30
0.0
 11
192.5375
 21
-68.9125
 31
0.0
  0
ARC
  5
B7
330
1D
100
AcDbEntity
  8
BLACK
100
AcDbCircle
 10
192.5375
 20
-68.4125
 30
0.0
 40
0.5
100
AcDbArc
 50
270.0
 51
0.0
  0
LINE
  5
B8
330
1D
100
AcDbEntity
  8
BLACK
  6
Continuous
100
AcDbLine
 10
193.0375
 20
-68.4125
 30
0.0
 11
193.0375
 21
-55.41249999999999
 31
0.0
  0
ARC
  5
B9
330
1D
100
AcDbEntity
  8
BLACK
100
AcDbCircle
 10
192.5375
 20
-55.41249999999999
 30
0.0
 40
0.5
100
AcDbArc
 50
0.0
 51
90.0
  0
LINE
  5
BA
330
1D
100
AcDbEntity
  8
BLACK
  6
Continuous
100
AcDbLine
 10
192.5375
 20
-54.91249999999999
 30
0.0
 11
178.9375
 21
-54.91249999999999
 31
0.0
  0
ARC
  5
BB
330
1D
100
AcDbEntity
  8
BLACK
100
AcDbCircle
 10
178.9375
 20
-55.41249999999999
 30
0.0
 40
0.5
100
AcDbArc
 50
90.0
 51
180.0
  0
LINE
  5
BC
330
1D
100
AcDbEntity
  8
BLACK
  6
Continuous
100
AcDbLine
 10
54.6125
 20
-74.46249999999999
 30
0.0
 11
54.6125
 21
-87.46249999999999
 31
0.0
  0
ARC
  5
BD
330
1D
100
AcDbEntity
  8
BLACK
100
AcDbCircle
 10
55.1125
 20
-87.46249999999999
 30
0.0
 40
0.5
100
AcDbArc
 50
180.0
 51
270.0
  0
LINE
  5
BE
330
1D
100
AcDbEntity
  8
BLACK
  6
Continuous
100
AcDbLine
 10
55.1125
 20
-87.96249999999999
 30
0.0
 11
68.71249999999999
 21
-87.96249999999999
 31
0.0
  0
ARC
  5
BF
330
1D
100
AcDbEntity
  8
BLACK
100
AcDbCircle
 10
68.71249999999999
 20
-87.46249999999999
 30
0.0
 40
0.5
100
AcDbArc
 50
270.0
 51
0.0
  0
LINE
  5
C0
330
1D
100
AcDbEntity
  8
BLACK
  6
Continuous
100
AcDbLine
 10
69.21249999999999
 20
-87.46249999999999
 30
0.0
 11
69.21249999999999
 21
-74.46249999999999
 31
0.0
  0
ARC
  5
C1
330
1D
100
AcDbEntity
  8
BLACK
100
AcDbCircle
 10
68.71249999999999
 20
-74.46249999999999
 30
0.0
 40
0.5
100
AcDbArc
 50
0.0
 51
90.0
  0
LINE
  5
C2
330
1D
100
AcDbEntity
  8
BLACK
  6
Continuous
100
AcDbLine
 10
68.71249999999999
 20
-73.96249999999999
 30
0.0
 11
55.1125
 21
-73.96249999999999
 31
0.0
  0
ARC
  5
C3
330
1D
100
AcDbEntity
  8
BLACK
100
AcDbCircle
 10
55.1125
 20
-74.46249999999999
 30
0.0
 40
0.5
100
AcDbArc
 50
90.0
 51
180.0
  0
LINE
  5
C4
330
1D
100
AcDbEntity
  8
BLACK
  6
Continuous
100
AcDbLine
 10
230.825
 20
-36.3625
 30
0.0
 11
230.825
 21
-49.3625
 31
0.0
  0
ARC
  5
C5
330
1D
100
AcDbEntity
  8
BLACK
100
AcDbCircle
 10
231.325
 20
-49.3625
 30
0.0
 40
0.5
100
AcDbArc
 50
180.0
 51
270.0
  0
LINE
  5
C6
330
1D
100
AcDbEntity
  8
BLACK
  6
Continuous
100
AcDbLine
 10
231.325
 20
-49.8625
 30
0.0
 11
244.925
 21
-49.8625
 31
0.0
  0
ARC
  5
C7
330
1D
100
AcDbEntity
  8
BLACK
100
AcDbCircle
 10
244.925
 20
-49.3625
 30
0.0
 40
0.5
100
AcDbArc
 50
270.0
 51
0.0
  0
LINE
  5
C8
330
1D
100
AcDbEntity
  8
BLACK
  6
Continuous
100
AcDbLine
 10
245.425
 20
-49.3625
 30
0.0
 11
245.425
 21
-36.3625
 31
0.0
  0
ARC
  5
C9
330
1D
100
AcDbEntity
  8
BLACK
100
AcDbCircle
 10
244.925
 20
-36.3625
 30
0.0
 40
0.5
100
AcDbArc
 50
0.0
 51
90.0
  0
LINE
  5
CA
330
1D
100
AcDbEntity
  8
BLACK
  6
Continuous
100
AcDbLine
 10
244.925
 20
-35.8625
 30
0.0
 11
231.325
 21
-35.8625
 31
0.0
  0
ARC
  5
CB
330
1D
100
AcDbEntity
  8
BLACK
100
AcDbCircle
 10
231.325
 20
-36.3625
 30
0.0
 40
0.5
100
AcDbArc
 50
90.0
 51
180.0
  0
LINE
  5
CC
330
1D
100
AcDbEntity
  8
BLACK
  6
Continuous
100
AcDbLine
 10
83.1875
 20
-55.41249999999999
 30
0.0
 11
83.1875
 21
-68.4125
 31
0.0
  0
ARC
  5
CD
330
1D
100
AcDbEntity
  8
BLACK
100
AcDbCircle
 10
83.6875
 20
-68.4125
 30
0.0
 40
0.5
100
AcDbArc
 50
180.0
 51
270.0
  0
LINE
  5
CE
330
1D
100
AcDbEntity
  8
BLACK
  6
Continuous
100
AcDbLine
 10
83.6875
 20
-68.9125
 30
0.0
 11
97.2875
 21
-68.9125
 31
0.0
  0
ARC
  5
CF
330
1D
100
AcDbEntity
  8
BLACK
100
AcDbCircle
 10
97.2875
 20
-68.4125
 30
0.0
 40
0.5
100
AcDbArc
 50
270.0
 51
0.0
  0
LINE
  5
D0
330
1D
100
AcDbEntity
  8
BLACK
  6
Continuous
100
AcDbLine
 10
97.7875
 20
-68.4125
 30
0.0
 11
97.7875
 21
-55.41249999999999
 31
0.0
  0
ARC
  5
D1
330
1D
100
AcDbEntity
  8
BLACK
100
AcDbCircle
 10
97.2875
 20
-55.41249999999999
 30
0.0
 40
0.5
100
AcDbArc
 50
0.0
 51
90.0
  0
LINE
  5
D2
330
1D
100
AcDbEntity
  8
BLACK
  6
Continuous
100
AcDbLine
 10
97.2875
 20
-54.91249999999999
 30
0.0
 11
83.6875
 21
-54.91249999999999
 31
0.0
  0
ARC
  5
D3
330
1D
100
AcDbEntity
  8
BLACK
100
AcDbCircle
 10
83.6875
 20
-55.41249999999999
 30
0.0
 40
0.5
100
AcDbArc
 50
90.0
 51
180.0
  0
LINE
  5
D4
330
1D
100
AcDbEntity
  8
BLACK
  6
Continuous
100
AcDbLine
 10
116.525
 20
-36.3625
 30
0.0
 11
116.525
 21
-49.3625
 31
0.0
  0
ARC
  5
D5
330
1D
100
AcDbEntity
  8
BLACK
100
AcDbCircle
 10
117.025
 20
-49.3625
 30
0.0
 40
0.5
100
AcDbArc
 50
180.0
 51
270.0
  0
LINE
  5
D6
330
1D
100
AcDbEntity
  8
BLACK
  6
Continuous
100
AcDbLine
 10
117.025
 20
-49.8625
 30
0.0
 11
130.625
 21
-49.8625
 31
0.0
  0
ARC
  5
D7
330
1D
100
AcDbEntity
  8
BLACK
100
AcDbCircle
 10
130.625
 20
-49.3625
 30
0.0
 40
0.5
100
AcDbArc
 50
270.0
 51
0.0
  0
LINE
  5
D8
330
1D
100
AcDbEntity
  8
BLACK
  6
Continuous
100
AcDbLine
 10
131.125
 20
-49.3625
 30
0.0
 11
131.125
 21
-36.3625
 31
0.0
  0
ARC
  5
D9
330
1D
100
AcDbEntity
  8
BLACK
100
AcDbCircle
 10
130.625
 20
-36.3625
 30
0.0
 40
0.5
100
AcDbArc
 50
0.0
 51
90.0
  0
LINE
  5
DA
330
1D
100
AcDbEntity
  8
BLACK
  6
Continuous
100
AcDbLine
 10
130.625
 20
-35.8625
 30
0.0
 11
117.025
 21
-35.8625
 31
0.0
  0
ARC
  5
DB
330
1D
100
AcDbEntity
  8
BLACK
100
AcDbCircle
 10
117.025
 20
-36.3625
 30
0.0
 40
0.5
100
AcDbArc
 50
90.0
 51
180.0
  0
LINE
  5
DC
330
1D
100
AcDbEntity
  8
BLACK
  6
Continuous
100
AcDbLine
 10
221.3
 20
-17.3125
 30
0.0
 11
221.3
 21
-30.3125
 31
0.0
  0
ARC
  5
DD
330
1D
100
AcDbEntity
  8
BLACK
100
AcDbCircle
 10
221.8
 20
-30.3125
 30
0.0
 40
0.5
100
AcDbArc
 50
180.0
 51
270.0
  0
LINE
  5
DE
330
1D
100
AcDbEntity
  8
BLACK
  6
Continuous
100
AcDbLine
 10
221.8
 20
-30.8125
 30
0.0
 11
235.4
 21
-30.8125
 31
0.0
  0
ARC
  5
DF
330
1D
100
AcDbEntity
  8
BLACK
100
AcDbCircle
 10
235.4
 20
-30.3125
 30
0.0
 40
0.5
100
AcDbArc
 50
270.0
 51
0.0
  0
LINE
  5
E0
330
1D
100
AcDbEntity
  8
BLACK
  6
Continuous
100
AcDbLine
 10
235.9
 20
-30.3125
 30
0.0
 11
235.9
 21
-17.3125
 31
0.0
  0
ARC
  5
E1
330
1D
100
AcDbEntity
  8
BLACK
100
AcDbCircle
 10
235.4
 20
-17.3125
 30
0.0
 40
0.5
100
AcDbArc
 50
0.0
 51
90.0
  0
LINE
  5
E2
330
1D
100
AcDbEntity
  8
BLACK
  6
Continuous
100
AcDbLine
 10
235.4
 20
-16.8125
 30
0.0
 11
221.8
 21
-16.8125
 31
0.0
  0
ARC
  5
E3
330
1D
100
AcDbEntity
  8
BLACK
100
AcDbCircle
 10
221.8
 20
-17.3125
 30
0.0
 40
0.5
100
AcDbArc
 50
90.0
 51
180.0
  0
LINE
  5
E4
330
1D
100
AcDbEntity
  8
BLACK
  6
Continuous
100
AcDbLine
 10
121.2875
 20
-55.41249999999999
 30
0.0
 11
121.2875
 21
-68.4125
 31
0.0
  0
ARC
  5
E5
330
1D
100
AcDbEntity
  8
BLACK
100
AcDbCircle
 10
121.7875
 20
-68.4125
 30
0.0
 40
0.5
100
AcDbArc
 50
180.0
 51
270.0
  0
LINE
  5
E6
330
1D
100
AcDbEntity
  8
BLACK
  6
Continuous
100
AcDbLine
 10
121.7875
 20
-68.9125
 30
0.0
 11
135.3875
 21
-68.9125
 31
0.0
  0
ARC
  5
E7
330
1D
100
AcDbEntity
  8
BLACK
100
AcDbCircle
 10
135.3875
 20
-68.4125
 30
0.0
 40
0.5
100
AcDbArc
 50
270.0
 51
0.0
  0
LINE
  5
E8
330
1D
100
AcDbEntity
  8
BLACK
  6
Continuous
100
AcDbLine
 10
135.8875
 20
-68.4125
 30
0.0
 11
135.8875
 21
-55.41249999999999
 31
0.0
  0
ARC
  5
E9
330
1D
100
AcDbEntity
  8
BLACK
100
AcDbCircle
 10
135.3875
 20
-55.41249999999999
 30
0.0
 40
0.5
100
AcDbArc
 50
0.0
 51
90.0
  0
LINE
  5
EA
330
1D
100
AcDbEntity
  8
BLACK
  6
Continuous
100
AcDbLine
 10
135.3875
 20
-54.91249999999999
 30
0.0
 11
121.7875
 21
-54.91249999999999
 31
0.0
  0
ARC
  5
EB
330
1D
100
AcDbEntity
  8
BLACK
100
AcDbCircle
 10
121.7875
 20
-55.41249999999999
 30
0.0
 40
0.5
100
AcDbArc
 50
90.0
 51
180.0
  0
LINE
  5
EC
330
1D
100
AcDbEntity
  8
BLACK
  6
Continuous
100
AcDbLine
 10
111.7625
 20
-74.46249999999999
 30
0.0
 11
111.7625
 21
-87.46249999999999
 31
0.0
  0
ARC
  5
ED
330
1D
100
AcDbEntity
  8
BLACK
100
AcDbCircle
 10
112.2625
 20
-87.46249999999999
 30
0.0
 40
0.5
100
AcDbArc
 50
180.0
 51
270.0
  0
LINE
  5
EE
330
1D
100
AcDbEntity
  8
BLACK
  6
Continuous
100
AcDbLine
 10
112.2625
 20
-87.96249999999999
 30
0.0
 11
125.8625
 21
-87.96249999999999
 31
0.0
  0
ARC
  5
EF
330
1D
100
AcDbEntity
  8
BLACK
100
AcDbCircle
 10
125.8625
 20
-87.46249999999999
 30
0.0
 40
0.5
100
AcDbArc
 50
270.0
 51
0.0
  0
LINE
  5
F0
330
1D
100
AcDbEntity
  8
BLACK
  6
Continuous
100
AcDbLine
 10
126.3625
 20
-87.46249999999999
 30
0.0
 11
126.3625
 21
-74.46249999999999
 31
0.0
  0
ARC
  5
F1
330
1D
100
AcDbEntity
  8
BLACK
100
AcDbCircle
 10
125.8625
 20
-74.46249999999999
 30
0.0
 40
0.5
100
AcDbArc
 50
0.0
 51
90.0
  0
LINE
  5
F2
330
1D
100
AcDbEntity
  8
BLACK
  6
Continuous
100
AcDbLine
 10
125.8625
 20
-73.96249999999999
 30
0.0
 11
112.2625
 21
-73.96249999999999
 31
0.0
  0
ARC
  5
F3
330
1D
100
AcDbEntity
  8
BLACK
100
AcDbCircle
 10
112.2625
 20
-74.46249999999999
 30
0.0
 40
0.5
100
AcDbArc
 50
90.0
 51
180.0
  0
LINE
  5
F4
330
1D
100
AcDbEntity
  8
BLACK
  6
Continuous
100
AcDbLine
 10
21.275
 20
-36.3625
 30
0.0
 11
21.275
 21
-49.3625
 31
0.0
  0
ARC
  5
F5
330
1D
100
AcDbEntity
  8
BLACK
100
AcDbCircle
 10
21.775
 20
-49.3625
 30
0.0
 40
0.5
100
AcDbArc
 50
180.0
 51
270.0
  0
LINE
  5
F6
330
1D
100
AcDbEntity
  8
BLACK
  6
Continuous
100
AcDbLine
 10
21.775
 20
-49.8625
 30
0.0
 11
35.375
 21
-49.8625
 31
0.0
  0
ARC
  5
F7
330
1D
100
AcDbEntity
  8
BLACK
100
AcDbCircle
 10
35.375
 20
-49.3625
 30
0.0
 40
0.5
100
AcDbArc
 50
270.0
 51
0.0
  0
LINE
  5
F8
330
1D
100
AcDbEntity
  8
BLACK
  6
Continuous
100
AcDbLine
 10
35.875
 20
-49.3625
 30
0.0
 11
35.875
 21
-36.3625
 31
0.0
  0
ARC
  5
F9
330
1D
100
AcDbEntity
  8
BLACK
100
AcDbCircle
 10
35.375
 20
-36.3625
 30
0.0
 40
0.5
100
AcDbArc
 50
0.0
 51
90.0
  0
LINE
  5
FA
330
1D
100
AcDbEntity
  8
BLACK
  6
Continuous
100
AcDbLine
 10
35.375
 20
-35.8625
 30
0.0
 11
21.775
 21
-35.8625
 31
0.0
  0
ARC
  5
FB
330
1D
100
AcDbEntity
  8
BLACK
100
AcDbCircle
 10
21.775
 20
-36.3625
 30
0.0
 40
0.5
100
AcDbArc
 50
90.0
 51
180.0
  0
LINE
  5
FC
330
1D
100
AcDbEntity
  8
BLACK
  6
Continuous
100
AcDbLine
 10
183.2
 20
-17.3125
 30
0.0
 11
183.2
 21
-30.3125
 31
0.0
  0
ARC
  5
FD
330
1D
100
AcDbEntity
  8
BLACK
100
AcDbCircle
 10
183.7
 20
-30.3125
 30
0.0
 40
0.5
100
AcDbArc
 50
180.0
 51
270.0
  0
LINE
  5
FE
330
1D
100
AcDbEntity
  8
BLACK
  6
Continuous
100
AcDbLine
 10
183.7
 20
-30.8125
 30
0.0
 11
197.3
 21
-30.8125
 31
0.0
  0
ARC
  5
FF
330
1D
100
AcDbEntity
  8
BLACK
100
AcDbCircle
 10
197.3
 20
-30.3125
 30
0.0
 40
0.5
100
AcDbArc
 50
270.0
 51
0.0
  0
LINE
  5
100
330
1D
100
AcDbEntity
  8
BLACK
  6
Continuous
100
AcDbLine
 10
197.8
 20
-30.3125
 30
0.0
 11
197.8
 21
-17.3125
 31
0.0
  0
ARC
  5
101
330
1D
100
AcDbEntity
  8
BLACK
100
AcDbCircle
 10
197.3
 20
-17.3125
 30
0.0
 40
0.5
100
AcDbArc
 50
0.0
 51
90.0
  0
LINE
  5
102
330
1D
100
AcDbEntity
  8
BLACK
  6
Continuous
100
AcDbLine
 10
197.3
 20
-16.8125
 30
0.0
 11
183.7
 21
-16.8125
 31
0.0
  0
ARC
  5
103
330
1D
100
AcDbEntity
  8
BLACK
100
AcDbCircle
 10
183.7
 20
-17.3125
 30
0.0
 40
0.5
100
AcDbArc
 50
90.0
 51
180.0
  0
LINE
  5
104
330
1D
100
AcDbEntity
  8
BLACK
  6
Continuous
100
AcDbLine
 10
135.575
 20
-36.3625
 30
0.0
 11
135.575
 21
-49.3625
 31
0.0
  0
ARC
  5
105
330
1D
100
AcDbEntity
  8
BLACK
100
AcDbCircle
 10
136.075
 20
-49.3625
 30
0.0
 40
0.5
100
AcDbArc
 50
180.0
 51
270.0
  0
LINE
  5
106
330
1D
100
AcDbEntity
  8
BLACK
  6
Continuous
100
AcDbLine
 10
136.075
 20
-49.8625
 30
0.0
 11
149.675
 21
-49.8625
 31
0.0
  0
ARC
  5
107
330
1D
100
AcDbEntity
  8
BLACK
100
AcDbCircle
 10
149.675
 20
-49.3625
 30
0.0
 40
0.5
100
AcDbArc
 50
270.0
 51
0.0
  0
LINE
  5
108
330
1D
100
AcDbEntity
  8
BLACK
  6
Continuous
100
AcDbLine
 10
150.175
 20
-49.3625
 30
0.0
 11
150.175
 21
-36.3625
 31
0.0
  0
ARC
  5
109
330
1D
100
AcDbEntity
  8
BLACK
100
AcDbCircle
 10
149.675
 20
-36.3625
 30
0.0
 40
0.5
100
AcDbArc
 50
0.0
 51
90.0
  0
LINE
  5
10A
330
1D
100
AcDbEntity
  8
BLACK
  6
Continuous
100
AcDbLine
 10
149.675
 20
-35.8625
 30
0.0
 11
136.075
 21
-35.8625
 31
0.0
  0
ARC
  5
10B
330
1D
100
AcDbEntity
  8
BLACK
100
AcDbCircle
 10
136.075
 20
-36.3625
 30
0.0
 40
0.5
100
AcDbArc
 50
90.0
 51
180.0
  0
LINE
  5
10C
330
1D
100
AcDbEntity
  8
BLACK
  6
Continuous
100
AcDbLine
 10
159.3875
 20
-55.41249999999999
 30
0.0
 11
159.3875
 21
-68.4125
 31
0.0
  0
ARC
  5
10D
330
1D
100
AcDbEntity
  8
BLACK
100
AcDbCircle
 10
159.8875
 20
-68.4125
 30
0.0
 40
0.5
100
AcDbArc
 50
180.0
 51
270.0
  0
LINE
  5
10E
330
1D
100
AcDbEntity
  8
BLACK
  6
Continuous
100
AcDbLine
 10
159.8875
 20
-68.9125
 30
0.0
 11
173.4875
 21
-68.9125
 31
0.0
  0
ARC
  5
10F
330
1D
100
AcDbEntity
  8
BLACK
100
AcDbCircle
 10
173.4875
 20
-68.4125
 30
0.0
 40
0.5
100
AcDbArc
 50
270.0
 51
0.0
  0
LINE
  5
110
330
1D
100
AcDbEntity
  8
BLACK
  6
Continuous
100
AcDbLine
 10
173.9875
 20
-68.4125
 30
0.0
 11
173.9875
 21
-55.41249999999999
 31
0.0
  0
ARC
  5
111
330
1D
100
AcDbEntity
  8
BLACK
100
AcDbCircle
 10
173.4875
 20
-55.41249999999999
 30
0.0
 40
0.5
100
AcDbArc
 50
0.0
 51
90.0
  0
LINE
  5
112
330
1D
100
AcDbEntity
  8
BLACK
  6
Continuous
100
AcDbLine
 10
173.4875
 20
-54.91249999999999
 30
0.0
 11
159.8875
 21
-54.91249999999999
 31
0.0
  0
ARC
  5
113
330
1D
100
AcDbEntity
  8
BLACK
100
AcDbCircle
 10
159.8875
 20
-55.41249999999999
 30
0.0
 40
0.5
100
AcDbArc
 50
90.0
 51
180.0
  0
LINE
  5
114
330
1D
100
AcDbEntity
  8
BLACK
  6
Continuous
100
AcDbLine
 10
26.0375
 20
-55.41249999999999
 30
0.0
 11
26.0375
 21
-68.4125
 31
0.0
  0
ARC
  5
115
330
1D
100
AcDbEntity
  8
BLACK
100
AcDbCircle
 10
26.5375
 20
-68.4125
 30
0.0
 40
0.5
100
AcDbArc
 50
180.0
 51
270.0
  0
LINE
  5
116
330
1D
100
AcDbEntity
  8
BLACK
  6
Continuous
100
AcDbLine
 10
26.5375
 20
-68.9125
 30
0.0
 11
40.1375
 21
-68.9125
 31
0.0
  0
ARC
  5
117
330
1D
100
AcDbEntity
  8
BLACK
100
AcDbCircle
 10
40.1375
 20
-68.4125
 30
0.0
 40
0.5
100
AcDbArc
 50
270.0
 51
0.0
  0
LINE
  5
118
330
1D
100
AcDbEntity
  8
BLACK
  6
Continuous
100
AcDbLine
 10
40.6375
 20
-68.4125
 30
0.0
 11
40.6375
 21
-55.41249999999999
 31
0.0
  0
ARC
  5
119
330
1D
100
AcDbEntity
  8
BLACK
100
AcDbCircle
 10
40.1375
 20
-55.41249999999999
 30
0.0
 40
0.5
100
AcDbArc
 50
0.0
 51
90.0
  0
LINE
  5
11A
330
1D
100
AcDbEntity
  8
BLACK
  6
Continuous
100
AcDbLine
 10
40.1375
 20
-54.91249999999999
 30
0.0
 11
26.5375
 21
-54.91249999999999
 31
0.0
  0
ARC
  5
11B
330
1D
100
AcDbEntity
  8
BLACK
100
AcDbCircle
 10
26.5375
 20
-55.41249999999999
 30
0.0
 40
0.5
100
AcDbArc
 50
90.0
 51
180.0
  0
LINE
  5
11C
330
1D
100
AcDbEntity
  8
BLACK
  6
Continuous
100
AcDbLine
 10
126.05
 20
-17.3125
 30
0.0
 11
126.05
 21
-30.3125
 31
0.0
  0
ARC
  5
11D
330
1D
100
AcDbEntity
  8
BLACK
100
AcDbCircle
 10
126.55
 20
-30.3125
 30
0.0
 40
0.5
100
AcDbArc
 50
180.0
 51
270.0
  0
LINE
  5
11E
330
1D
100
AcDbEntity
  8
BLACK
  6
Continuous
100
AcDbLine
 10
126.55
 20
-30.8125
 30
0.0
 11
140.15
 21
-30.8125
 31
0.0
  0
ARC
  5
11F
330
1D
100
AcDbEntity
  8
BLACK
100
AcDbCircle
 10
140.15
 20
-30.3125
 30
0.0
 40
0.5
100
AcDbArc
 50
270.0
 51
0.0
  0
LINE
  5
120
330
1D
100
AcDbEntity
  8
BLACK
  6
Continuous
100
AcDbLine
 10
140.65
 20
-30.3125
 30
0.0
 11
140.65
 21
-17.3125
 31
0.0
  0
ARC
  5
121
330
1D
100
AcDbEntity
  8
BLACK
100
AcDbCircle
 10
140.15
 20
-17.3125
 30
0.0
 40
0.5
100
AcDbArc
 50
0.0
 51
90.0
  0
LINE
  5
122
330
1D
100
AcDbEntity
  8
BLACK
  6
Continuous
100
AcDbLine
 10
140.15
 20
-16.8125
 30
0.0
 11
126.55
 21
-16.8125
 31
0.0
  0
ARC
  5
123
330
1D
100
AcDbEntity
  8
BLACK
100
AcDbCircle
 10
126.55
 20
-17.3125
 30
0.0
 40
0.5
100
AcDbArc
 50
90.0
 51
180.0
  0
LINE
  5
124
330
1D
100
AcDbEntity
  8
BLACK
  6
Continuous
100
AcDbLine
 10
154.625
 20
-36.3625
 30
0.0
 11
154.625
 21
-49.3625
 31
0.0
  0
ARC
  5
125
330
1D
100
AcDbEntity
  8
BLACK
100
AcDbCircle
 10
155.125
 20
-49.3625
 30
0.0
 40
0.5
100
AcDbArc
 50
180.0
 51
270.0
  0
LINE
  5
126
330
1D
100
AcDbEntity
  8
BLACK
  6
Continuous
100
AcDbLine
 10
155.125
 20
-49.8625
 30
0.0
 11
168.725
 21
-49.8625
 31
0.0
  0
ARC
  5
127
330
1D
100
AcDbEntity
  8
BLACK
100
AcDbCircle
 10
168.725
 20
-49.3625
 30
0.0
 40
0.5
100
AcDbArc
 50
270.0
 51
0.0
  0
LINE
  5
128
330
1D
100
AcDbEntity
  8
BLACK
  6
Continuous
100
AcDbLine
 10
169.225
 20
-49.3625
 30
0.0
 11
169.225
 21
-36.3625
 31
0.0
  0
ARC
  5
129
330
1D
100
AcDbEntity
  8
BLACK
100
AcDbCircle
 10
168.725
 20
-36.3625
 30
0.0
 40
0.5
100
AcDbArc
 50
0.0
 51
90.0
  0
LINE
  5
12A
330
1D
100
AcDbEntity
  8
BLACK
  6
Continuous
100
AcDbLine
 10
168.725
 20
-35.8625
 30
0.0
 11
155.125
 21
-35.8625
 31
0.0
  0
ARC
  5
12B
330
1D
100
AcDbEntity
  8
BLACK
100
AcDbCircle
 10
155.125
 20
-36.3625
 30
0.0
 40
0.5
100
AcDbArc
 50
90.0
 51
180.0
  0
LINE
  5
12C
330
1D
100
AcDbEntity
  8
BLACK
  6
Continuous
100
AcDbLine
 10
35.5625
 20
-74.46249999999999
 30
0.0
 11
35.5625
 21
-87.46249999999999
 31
0.0
  0
ARC
  5
12D
330
1D
100
AcDbEntity
  8
BLACK
100
AcDbCircle
 10
36.0625
 20
-87.46249999999999
 30
0.0
 40
0.5
100
AcDbArc
 50
180.0
 51
270.0
  0
LINE
  5
12E
330
1D
100
AcDbEntity
  8
BLACK
  6
Continuous
100
AcDbLine
 10
36.0625
 20
-87.96249999999999
 30
0.0
 11
49.66249999999999
 21
-87.96249999999999
 31
0.0
  0
ARC
  5
12F
330
1D
100
AcDbEntity
  8
BLACK
100
AcDbCircle
 10
49.66249999999999
 20
-87.46249999999999
 30
0.0
 40
0.5
100
AcDbArc
 50
270.0
 51
0.0
  0
LINE
  5
130
330
1D
100
AcDbEntity
  8
BLACK
  6
Continuous
100
AcDbLine
 10
50.16249999999999
 20
-87.46249999999999
 30
0.0
 11
50.16249999999999
 21
-74.46249999999999
 31
0.0
  0
ARC
  5
131
330
1D
100
AcDbEntity
  8
BLACK
100
AcDbCircle
 10
49.66249999999999
 20
-74.46249999999999
 30
0.0
 40
0.5
100
AcDbArc
 50
0.0
 51
90.0
  0
LINE
  5
132
330
1D
100
AcDbEntity
  8
BLACK
  6
Continuous
100
AcDbLine
 10
49.66249999999999
 20
-73.96249999999999
 30
0.0
 11
36.0625
 21
-73.96249999999999
 31
0.0
  0
ARC
  5
133
330
1D
100
AcDbEntity
  8
BLACK
100
AcDbCircle
 10
36.0625
 20
-74.46249999999999
 30
0.0
 40
0.5
100
AcDbArc
 50
90.0
 51
180.0
  0
LINE
  5
134
330
1D
100
AcDbEntity
  8
BLACK
  6
Continuous
100
AcDbLine
 10
68.89999999999999
 20
-17.3125
 30
0.0
 11
68.89999999999999
 21
-30.3125
 31
0.0
  0
ARC
  5
135
330
1D
100
AcDbEntity
  8
BLACK
100
AcDbCircle
 10
69.39999999999999
 20
-30.3125
 30
0.0
 40
0.5
100
AcDbArc
 50
180.0
 51
270.0
  0
LINE
  5
136
330
1D
100
AcDbEntity
  8
BLACK
  6
Continuous
100
AcDbLine
 10
69.39999999999999
 20
-30.8125
 30
0.0
 11
83.0
 21
-30.8125
 31
0.0
  0
ARC
  5
137
330
1D
100
AcDbEntity
  8
BLACK
100
AcDbCircle
 10
83.0
 20
-30.3125
 30
0.0
 40
0.5
100
AcDbArc
 50
270.0
 51
0.0
  0
LINE
  5
138
330
1D
100
AcDbEntity
  8
BLACK
  6
Continuous
100
AcDbLine
 10
83.5
 20
-30.3125
 30
0.0
 11
83.5
 21
-17.3125
 31
0.0
  0
ARC
  5
139
330
1D
100
AcDbEntity
  8
BLACK
100
AcDbCircle
 10
83.0
 20
-17.3125
 30
0.0
 40
0.5
100
AcDbArc
 50
0.0
 51
90.0
  0
LINE
  5
13A
330
1D
100
AcDbEntity
  8
BLACK
  6
Continuous
100
AcDbLine
 10
83.0
 20
-16.8125
 30
0.0
 11
69.39999999999999
 21
-16.8125
 31
0.0
  0
ARC
  5
13B
330
1D
100
AcDbEntity
  8
BLACK
100
AcDbCircle
 10
69.39999999999999
 20
-17.3125
 30
0.0
 40
0.5
100
AcDbArc
 50
90.0
 51
180.0
  0
LINE
  5
13C
330
1D
100
AcDbEntity
  8
BLACK
  6
Continuous
100
AcDbLine
 10
145.1
 20
-17.3125
 30
0.0
 11
145.1
 21
-30.3125
 31
0.0
  0
ARC
  5
13D
330
1D
100
AcDbEntity
  8
BLACK
100
AcDbCircle
 10
145.6
 20
-30.3125
 30
0.0
 40
0.5
100
AcDbArc
 50
180.0
 51
270.0
  0
LINE
  5
13E
330
1D
100
AcDbEntity
  8
BLACK
  6
Continuous
100
AcDbLine
 10
145.6
 20
-30.8125
 30
0.0
 11
159.2
 21
-30.8125
 31
0.0
  0
ARC
  5
13F
330
1D
100
AcDbEntity
  8
BLACK
100
AcDbCircle
 10
159.2
 20
-30.3125
 30
0.0
 40
0.5
100
AcDbArc
 50
270.0
 51
0.0
  0
LINE
  5
140
330
1D
100
AcDbEntity
  8
BLACK
  6
Continuous
100
AcDbLine
 10
159.7
 20
-30.3125
 30
0.0
 11
159.7
 21
-17.3125
 31
0.0
  0
ARC
  5
141
330
1D
100
AcDbEntity
  8
BLACK
100
AcDbCircle
 10
159.2
 20
-17.3125
 30
0.0
 40
0.5
100
AcDbArc
 50
0.0
 51
90.0
  0
LINE
  5
142
330
1D
100
AcDbEntity
  8
BLACK
  6
Continuous
100
AcDbLine
 10
159.2
 20
-16.8125
 30
0.0
 11
145.6
 21
-16.8125
 31
0.0
  0
ARC
  5
143
330
1D
100
AcDbEntity
  8
BLACK
100
AcDbCircle
 10
145.6
 20
-17.3125
 30
0.0
 40
0.5
100
AcDbArc
 50
90.0
 51
180.0
  0
LINE
  5
144
330
1D
100
AcDbEntity
  8
BLACK
  6
Continuous
100
AcDbLine
 10
11.75
 20
-17.3125
 30
0.0
 11
11.75
 21
-30.3125
 31
0.0
  0
ARC
  5
145
330
1D
100
AcDbEntity
  8
BLACK
100
AcDbCircle
 10
12.25
 20
-30.3125
 30
0.0
 40
0.5
100
AcDbArc
 50
180.0
 51
270.0
  0
LINE
  5
146
330
1D
100
AcDbEntity
  8
BLACK
  6
Continuous
100
AcDbLine
 10
12.25
 20
-30.8125
 30
0.0
 11
25.85
 21
-30.8125
 31
0.0
  0
ARC
  5
147
330
1D
100
AcDbEntity
  8
BLACK
100
AcDbCircle
 10
25.85
 20
-30.3125
 30
0.0
 40
0.5
100
AcDbArc
 50
270.0
 51
0.0
  0
LINE
  5
148
330
1D
100
AcDbEntity
  8
BLACK
  6
Continuous
100
AcDbLine
 10
26.35
 20
-30.3125
 30
0.0
 11
26.35
 21
-17.3125
 31
0.0
  0
ARC
  5
149
330
1D
100
AcDbEntity
  8
BLACK
100
AcDbCircle
 10
25.85
 20
-17.3125
 30
0.0
 40
0.5
100
AcDbArc
 50
0.0
 51
90.0
  0
LINE
  5
14A
330
1D
100
AcDbEntity
  8
BLACK
  6
Continuous
100
AcDbLine
 10
25.85
 20
-16.8125
 30
0.0
 11
12.25
 21
-16.8125
 31
0.0
  0
ARC
  5
14B
330
1D
100
AcDbEntity
  8
BLACK
100
AcDbCircle
 10
12.25
 20
-17.3125
 30
0.0
 40
0.5
100
AcDbArc
 50
90.0
 51
180.0
  0
LINE
  5
14C
330
1D
100
AcDbEntity
  8
BLACK
  6
Continuous
100
AcDbLine
 10
164.15
 20
-17.3125
 30
0.0
 11
164.15
 21
-30.3125
 31
0.0
  0
ARC
  5
14D
330
1D
100
AcDbEntity
  8
BLACK
100
AcDbCircle
 10
164.65
 20
-30.3125
 30
0.0
 40
0.5
100
AcDbArc
 50
180.0
 51
270.0
  0
LINE
  5
14E
330
1D
100
AcDbEntity
  8
BLACK
  6
Continuous
100
AcDbLine
 10
164.65
 20
-30.8125
 30
0.0
 11
178.25
 21
-30.8125
 31
0.0
  0
ARC
  5
14F
330
1D
100
AcDbEntity
  8
BLACK
100
AcDbCircle
 10
178.25
 20
-30.3125
 30
0.0
 40
0.5
100
AcDbArc
 50
270.0
 51
0.0
  0
LINE
  5
150
330
1D
100
AcDbEntity
  8
BLACK
  6
Continuous
100
AcDbLine
 10
178.75
 20
-30.3125
 30
0.0
 11
178.75
 21
-17.3125
 31
0.0
  0
ARC
  5
151
330
1D
100
AcDbEntity
  8
BLACK
100
AcDbCircle
 10
178.25
 20
-17.3125
 30
0.0
 40
0.5
100
AcDbArc
 50
0.0
 51
90.0
  0
LINE
  5
152
330
1D
100
AcDbEntity
  8
BLACK
  6
Continuous
100
AcDbLine
 10
178.25
 20
-16.8125
 30
0.0
 11
164.65
 21
-16.8125
 31
0.0
  0
ARC
  5
153
330
1D
100
AcDbEntity
  8
BLACK
100
AcDbCircle
 10
164.65
 20
-17.3125
 30
0.0
 40
0.5
100
AcDbArc
 50
90.0
 51
180.0
  0
LINE
  5
154
330
1D
100
AcDbEntity
  8
BLACK
  6
Continuous
100
AcDbLine
 10
40.325
 20
-36.3625
 30
0.0
 11
40.325
 21
-49.3625
 31
0.0
  0
ARC
  5
155
330
1D
100
AcDbEntity
  8
BLACK
100
AcDbCircle
 10
40.825
 20
-49.3625
 30
0.0
 40
0.5
100
AcDbArc
 50
180.0
 51
270.0
  0
LINE
  5
156
330
1D
100
AcDbEntity
  8
BLACK
  6
Continuous
100
AcDbLine
 10
40.825
 20
-49.8625
 30
0.0
 11
54.425
 21
-49.8625
 31
0.0
  0
ARC
  5
157
330
1D
100
AcDbEntity
  8
BLACK
100
AcDbCircle
 10
54.425
 20
-49.3625
 30
0.0
 40
0.5
100
AcDbArc
 50
270.0
 51
0.0
  0
LINE
  5
158
330
1D
100
AcDbEntity
  8
BLACK
  6
Continuous
100
AcDbLine
 10
54.925
 20
-49.3625
 30
0.0
 11
54.925
 21
-36.3625
 31
0.0
  0
ARC
  5
159
330
1D
100
AcDbEntity
  8
BLACK
100
AcDbCircle
 10
54.425
 20
-36.3625
 30
0.0
 40
0.5
100
AcDbArc
 50
0.0
 51
90.0
  0
LINE
  5
15A
330
1D
100
AcDbEntity
  8
BLACK
  6
Continuous
100
AcDbLine
 10
54.425
 20
-35.8625
 30
0.0
 11
40.825
 21
-35.8625
 31
0.0
  0
ARC
  5
15B
330
1D
100
AcDbEntity
  8
BLACK
100
AcDbCircle
 10
40.825
 20
-36.3625
 30
0.0
 40
0.5
100
AcDbArc
 50
90.0
 51
180.0
  0
LINE
  5
15C
330
1D
100
AcDbEntity
  8
BLACK
  6
Continuous
100
AcDbLine
 10
192.725
 20
-36.3625
 30
0.0
 11
192.725
 21
-49.3625
 31
0.0
  0
ARC
  5
15D
330
1D
100
AcDbEntity
  8
BLACK
100
AcDbCircle
 10
193.225
 20
-49.3625
 30
0.0
 40
0.5
100
AcDbArc
 50
180.0
 51
270.0
  0
LINE
  5
15E
330
1D
100
AcDbEntity
  8
BLACK
  6
Continuous
100
AcDbLine
 10
193.225
 20
-49.8625
 30
0.0
 11
206.825
 21
-49.8625
 31
0.0
  0
ARC
  5
15F
330
1D
100
AcDbEntity
  8
BLACK
100
AcDbCircle
 10
206.825
 20
-49.3625
 30
0.0
 40
0.5
100
AcDbArc
 50
270.0
 51
0.0
  0
LINE
  5
160
330
1D
100
AcDbEntity
  8
BLACK
  6
Continuous
100
AcDbLine
 10
207.325
 20
-49.3625
 30
0.0
 11
207.325
 21
-36.3625
 31
0.0
  0
ARC
  5
161
330
1D
100
AcDbEntity
  8
BLACK
100
AcDbCircle
 10
206.825
 20
-36.3625
 30
0.0
 40
0.5
100
AcDbArc
 50
0.0
 51
90.0
  0
LINE
  5
162
330
1D
100
AcDbEntity
  8
BLACK
  6
Continuous
100
AcDbLine
 10
206.825
 20
-35.8625
 30
0.0
 11
193.225
 21
-35.8625
 31
0.0
  0
ARC
  5
163
330
1D
100
AcDbEntity
  8
BLACK
100
AcDbCircle
 10
193.225
 20
-36.3625
 30
0.0
 40
0.5
100
AcDbArc
 50
90.0
 51
180.0
  0
LINE
  5
164
330
1D
100
AcDbEntity
  8
BLACK
  6
Continuous
100
AcDbLine
 10
130.8125
 20
-74.46249999999999
 30
0.0
 11
130.8125
 21
-87.46249999999999
 31
0.0
  0
ARC
  5
165
330
1D
100
AcDbEntity
  8
BLACK
100
AcDbCircle
 10
131.3125
 20
-87.46249999999999
 30
0.0
 40
0.5
100
AcDbArc
 50
180.0
 51
270.0
  0
LINE
  5
166
330
1D
100
AcDbEntity
  8
BLACK
  6
Continuous
100
AcDbLine
 10
131.3125
 20
-87.96249999999999
 30
0.0
 11
144.9125
 21
-87.96249999999999
 31
0.0
  0
ARC
  5
167
330
1D
100
AcDbEntity
  8
BLACK
100
AcDbCircle
 10
144.9125
 20
-87.46249999999999
 30
0.0
 40
0.5
100
AcDbArc
 50
270.0
 51
0.0
  0
LINE
  5
168
330
1D
100
AcDbEntity
  8
BLACK
  6
Continuous
100
AcDbLine
 10
145.4125
 20
-87.46249999999999
 30
0.0
 11
145.4125
 21
-74.46249999999999
 31
0.0
  0
ARC
  5
169
330
1D
100
AcDbEntity
  8
BLACK
100
AcDbCircle
 10
144.9125
 20
-74.46249999999999
 30
0.0
 40
0.5
100
AcDbArc
 50
0.0
 51
90.0
  0
LINE
  5
16A
330
1D
100
AcDbEntity
  8
BLACK
  6
Continuous
100
AcDbLine
 10
144.9125
 20
-73.96249999999999
 30
0.0
 11
131.3125
 21
-73.96249999999999
 31
0.0
  0
ARC
  5
16B
330
1D
100
AcDbEntity
  8
BLACK
100
AcDbCircle
 10
131.3125
 20
-74.46249999999999
 30
0.0
 40
0.5
100
AcDbArc
 50
90.0
 51
180.0
  0
LINE
  5
16C
330
1D
100
AcDbEntity
  8
BLACK
  6
Continuous
100
AcDbLine
 10
197.4875
 20
-55.41249999999999
 30
0.0
 11
197.4875
 21
-68.4125
 31
0.0
  0
ARC
  5
16D
330
1D
100
AcDbEntity
  8
BLACK
100
AcDbCircle
 10
197.9875
 20
-68.4125
 30
0.0
 40
0.5
100
AcDbArc
 50
180.0
 51
270.0
  0
LINE
  5
16E
330
1D
100
AcDbEntity
  8
BLACK
  6
Continuous
100
AcDbLine
 10
197.9875
 20
-68.9125
 30
0.0
 11
211.5875
 21
-68.9125
 31
0.0
  0
ARC
  5
16F
330
1D
100
AcDbEntity
  8
BLACK
100
AcDbCircle
 10
211.5875
 20
-68.4125
 30
0.0
 40
0.5
100
AcDbArc
 50
270.0
 51
0.0
  0
LINE
  5
170
330
1D
100
AcDbEntity
  8
BLACK
  6
Continuous
100
AcDbLine
 10
212.0875
 20
-68.4125
 30
0.0
 11
212.0875
 21
-55.41249999999999
 31
0.0
  0
ARC
  5
171
330
1D
100
AcDbEntity
  8
BLACK
100
AcDbCircle
 10
211.5875
 20
-55.41249999999999
 30
0.0
 40
0.5
100
AcDbArc
 50
0.0
 51
90.0
  0
LINE
  5
172
330
1D
100
AcDbEntity
  8
BLACK
  6
Continuous
100
AcDbLine
 10
211.5875
 20
-54.91249999999999
 30
0.0
 11
197.9875
 21
-54.91249999999999
 31
0.0
  0
ARC
  5
173
330
1D
100
AcDbEntity
  8
BLACK
100
AcDbCircle
 10
197.9875
 20
-55.41249999999999
 30
0.0
 40
0.5
100
AcDbArc
 50
90.0
 51
180.0
  0
LINE
  5
174
330
1D
100
AcDbEntity
  8
BLACK
  6
Continuous
100
AcDbLine
 10
73.6625
 20
-74.46249999999999
 30
0.0
 11
73.6625
 21
-87.46249999999999
 31
0.0
  0
ARC
  5
175
330
1D
100
AcDbEntity
  8
BLACK
100
AcDbCircle
 10
74.1625
 20
-87.46249999999999
 30
0.0
 40
0.5
100
AcDbArc
 50
180.0
 51
270.0
  0
LINE
  5
176
330
1D
100
AcDbEntity
  8
BLACK
  6
Continuous
100
AcDbLine
 10
74.1625
 20
-87.96249999999999
 30
0.0
 11
87.7625
 21
-87.96249999999999
 31
0.0
  0
ARC
  5
177
330
1D
100
AcDbEntity
  8
BLACK
100
AcDbCircle
 10
87.7625
 20
-87.46249999999999
 30
0.0
 40
0.5
100
AcDbArc
 50
270.0
 51
0.0
  0
LINE
  5
178
330
1D
100
AcDbEntity
  8
BLACK
  6
Continuous
100
AcDbLine
 10
88.2625
 20
-87.46249999999999
 30
0.0
 11
88.2625
 21
-74.46249999999999
 31
0.0
  0
ARC
  5
179
330
1D
100
AcDbEntity
  8
BLACK
100
AcDbCircle
 10
87.7625
 20
-74.46249999999999
 30
0.0
 40
0.5
100
AcDbArc
 50
0.0
 51
90.0
  0
LINE
  5
17A
330
1D
100
AcDbEntity
  8
BLACK
  6
Continuous
100
AcDbLine
 10
87.7625
 20
-73.96249999999999
 30
0.0
 11
74.1625
 21
-73.96249999999999
 31
0.0
  0
ARC
  5
17B
330
1D
100
AcDbEntity
  8
BLACK
100
AcDbCircle
 10
74.1625
 20
-74.46249999999999
 30
0.0
 40
0.5
100
AcDbArc
 50
90.0
 51
180.0
  0
LINE
  5
17C
330
1D
100
AcDbEntity
  8
BLACK
  6
Continuous
100
AcDbLine
 10
149.8625
 20
-74.46249999999999
 30
0.0
 11
149.8625
 21
-87.46249999999999
 31
0.0
  0
ARC
  5
17D
330
1D
100
AcDbEntity
  8
BLACK
100
AcDbCircle
 10
150.3625
 20
-87.46249999999999
 30
0.0
 40
0.5
100
AcDbArc
 50
180.0
 51
270.0
  0
LINE
  5
17E
330
1D
100
AcDbEntity
  8
BLACK
  6
Continuous
100
AcDbLine
 10
150.3625
 20
-87.96249999999999
 30
0.0
 11
163.9625
 21
-87.96249999999999
 31
0.0
  0
ARC
  5
17F
330
1D
100
AcDbEntity
  8
BLACK
100
AcDbCircle
 10
163.9625
 20
-87.46249999999999
 30
0.0
 40
0.5
100
AcDbArc
 50
270.0
 51
0.0
  0
LINE
  5
180
330
1D
100
AcDbEntity
  8
BLACK
  6
Continuous
100
AcDbLine
 10
164.4625
 20
-87.46249999999999
 30
0.0
 11
164.4625
 21
-74.46249999999999
 31
0.0
  0
ARC
  5
181
330
1D
100
AcDbEntity
  8
BLACK
100
AcDbCircle
 10
163.9625
 20
-74.46249999999999
 30
0.0
 40
0.5
100
AcDbArc
 50
0.0
 51
90.0
  0
LINE
  5
182
330
1D
100
AcDbEntity
  8
BLACK
  6
Continuous
100
AcDbLine
 10
163.9625
 20
-73.96249999999999
 30
0.0
 11
150.3625
 21
-73.96249999999999
 31
0.0
  0
ARC
  5
183
330
1D
100
AcDbEntity
  8
BLACK
100
AcDbCircle
 10
150.3625
 20
-74.46249999999999
 30
0.0
 40
0.5
100
AcDbArc
 50
90.0
 51
180.0
  0
LINE
  5
184
330
1D
100
AcDbEntity
  8
BLACK
  6
Continuous
100
AcDbLine
 10
45.0875
 20
-55.41249999999999
 30
0.0
 11
45.0875
 21
-68.4125
 31
0.0
  0
ARC
  5
185
330
1D
100
AcDbEntity
  8
BLACK
100
AcDbCircle
 10
45.5875
 20
-68.4125
 30
0.0
 40
0.5
100
AcDbArc
 50
180.0
 51
270.0
  0
LINE
  5
186
330
1D
100
AcDbEntity
  8
BLACK
  6
Continuous
100
AcDbLine
 10
45.5875
 20
-68.9125
 30
0.0
 11
59.1875
 21
-68.9125
 31
0.0
  0
ARC
  5
187
330
1D
100
AcDbEntity
  8
BLACK
100
AcDbCircle
 10
59.1875
 20
-68.4125
 30
0.0
 40
0.5
100
AcDbArc
 50
270.0
 51
0.0
  0
LINE
  5
188
330
1D
100
AcDbEntity
  8
BLACK
  6
Continuous
100
AcDbLine
 10
59.6875
 20
-68.4125
 30
0.0
 11
59.6875
 21
-55.41249999999999
 31
0.0
  0
ARC
  5
189
330
1D
100
AcDbEntity
  8
BLACK
100
AcDbCircle
 10
59.1875
 20
-55.41249999999999
 30
0.0
 40
0.5
100
AcDbArc
 50
0.0
 51
90.0
  0
LINE
  5
18A
330
1D
100
AcDbEntity
  8
BLACK
  6
Continuous
100
AcDbLine
 10
59.1875
 20
-54.91249999999999
 30
0.0
 11
45.5875
 21
-54.91249999999999
 31
0.0
  0
ARC
  5
18B
330
1D
100
AcDbEntity
  8
BLACK
100
AcDbCircle
 10
45.5875
 20
-55.41249999999999
 30
0.0
 40
0.5
100
AcDbArc
 50
90.0
 51
180.0
  0
LINE
  5
18C
330
1D
100
AcDbEntity
  8
BLACK
  6
Continuous
100
AcDbLine
 10
49.84999999999999
 20
-17.3125
 30
0.0
 11
49.84999999999999
 21
-30.3125
 31
0.0
  0
ARC
  5
18D
330
1D
100
AcDbEntity
  8
BLACK
100
AcDbCircle
 10
50.34999999999999
 20
-30.3125
 30
0.0
 40
0.5
100
AcDbArc
 50
180.0
 51
270.0
  0
LINE
  5
18E
330
1D
100
AcDbEntity
  8
BLACK
  6
Continuous
100
AcDbLine
 10
50.34999999999999
 20
-30.8125
 30
0.0
 11
63.95
 21
-30.8125
 31
0.0
  0
ARC
  5
18F
330
1D
100
AcDbEntity
  8
BLACK
100
AcDbCircle
 10
63.95
 20
-30.3125
 30
0.0
 40
0.5
100
AcDbArc
 50
270.0
 51
0.0
  0
LINE
  5
190
330
1D
100
AcDbEntity
  8
BLACK
  6
Continuous
100
AcDbLine
 10
64.45
 20
-30.3125
 30
0.0
 11
64.45
 21
-17.3125
 31
0.0
  0
ARC
  5
191
330
1D
100
AcDbEntity
  8
BLACK
100
AcDbCircle
 10
63.95
 20
-17.3125
 30
0.0
 40
0.5
100
AcDbArc
 50
0.0
 51
90.0
  0
LINE
  5
192
330
1D
100
AcDbEntity
  8
BLACK
  6
Continuous
100
AcDbLine
 10
63.95
 20
-16.8125
 30
0.0
 11
50.34999999999999
 21
-16.8125
 31
0.0
  0
ARC
  5
193
330
1D
100
AcDbEntity
  8
BLACK
100
AcDbCircle
 10
50.34999999999999
 20
-17.3125
 30
0.0
 40
0.5
100
AcDbArc
 50
90.0
 51
180.0
  0
LINE
  5
194
330
1D
100
AcDbEntity
  8
BLACK
  6
Continuous
100
AcDbLine
 10
30.8
 20
-17.3125
 30
0.0
 11
30.8
 21
-30.3125
 31
0.0
  0
ARC
  5
195
330
1D
100
AcDbEntity
  8
BLACK
100
AcDbCircle
 10
31.3
 20
-30.3125
 30
0.0
 40
0.5
100
AcDbArc
 50
180.0
 51
270.0
  0
LINE
  5
196
330
1D
100
AcDbEntity
  8
BLACK
  6
Continuous
100
AcDbLine
 10
31.3
 20
-30.8125
 30
0.0
 11
44.9
 21
-30.8125
 31
0.0
  0
ARC
  5
197
330
1D
100
AcDbEntity
  8
BLACK
100
AcDbCircle
 10
44.9
 20
-30.3125
 30
0.0
 40
0.5
100
AcDbArc
 50
270.0
 51
0.0
  0
LINE
  5
198
330
1D
100
AcDbEntity
  8
BLACK
  6
Continuous
100
AcDbLine
 10
45.4
 20
-30.3125
 30
0.0
 11
45.4
 21
-17.3125
 31
0.0
  0
ARC
  5
199
330
1D
100
AcDbEntity
  8
BLACK
100
AcDbCircle
 10
44.9
 20
-17.3125
 30
0.0
 40
0.5
100
AcDbArc
 50
0.0
 51
90.0
  0
LINE
  5
19A
330
1D
100
AcDbEntity
  8
BLACK
  6
Continuous
100
AcDbLine
 10
44.9
 20
-16.8125
 30
0.0
 11
31.3
 21
-16.8125
 31
0.0
  0
ARC
  5
19B
330
1D
100
AcDbEntity
  8
BLACK
100
AcDbCircle
 10
31.3
 20
-17.3125
 30
0.0
 40
0.5
100
AcDbArc
 50
90.0
 51
180.0
  0
LINE
  5
19C
330
1D
100
AcDbEntity
  8
BLACK
  6
Continuous
100
AcDbLine
 10
102.2375
 20
-55.41249999999999
 30
0.0
 11
102.2375
 21
-68.4125
 31
0.0
  0
ARC
  5
19D
330
1D
100
AcDbEntity
  8
BLACK
100
AcDbCircle
 10
102.7375
 20
-68.4125
 30
0.0
 40
0.5
100
AcDbArc
 50
180.0
 51
270.0
  0
LINE
  5
19E
330
1D
100
AcDbEntity
  8
BLACK
  6
Continuous
100
AcDbLine
 10
102.7375
 20
-68.9125
 30
0.0
 11
116.3375
 21
-68.9125
 31
0.0
  0
ARC
  5
19F
330
1D
100
AcDbEntity
  8
BLACK
100
AcDbCircle
 10
116.3375
 20
-68.4125
 30
0.0
 40
0.5
100
AcDbArc
 50
270.0
 51
0.0
  0
LINE
  5
1A0
330
1D
100
AcDbEntity
  8
BLACK
  6
Continuous
100
AcDbLine
 10
116.8375
 20
-68.4125
 30
0.0
 11
116.8375
 21
-55.41249999999999
 31
0.0
  0
ARC
  5
1A1
330
1D
100
AcDbEntity
  8
BLACK
100
AcDbCircle
 10
116.3375
 20
-55.41249999999999
 30
0.0
 40
0.5
100
AcDbArc
 50
0.0
 51
90.0
  0
LINE
  5
1A2
330
1D
100
AcDbEntity
  8
BLACK
  6
Continuous
100
AcDbLine
 10
116.3375
 20
-54.91249999999999
 30
0.0
 11
102.7375
 21
-54.91249999999999
 31
0.0
  0
ARC
  5
1A3
330
1D
100
AcDbEntity
  8
BLACK
100
AcDbCircle
 10
102.7375
 20
-55.41249999999999
 30
0.0
 40
0.5
100
AcDbArc
 50
90.0
 51
180.0
  0
LINE
  5
1A4
330
1D
100
AcDbEntity
  8
BLACK
  6
Continuous
100
AcDbLine
 10
92.71249999999999
 20
-74.46249999999999
 30
0.0
 11
92.71249999999999
 21
-87.46249999999999
 31
0.0
  0
ARC
  5
1A5
330
1D
100
AcDbEntity
  8
BLACK
100
AcDbCircle
 10
93.21249999999999
 20
-87.46249999999999
 30
0.0
 40
0.5
100
AcDbArc
 50
180.0
 51
270.0
  0
LINE
  5
1A6
330
1D
100
AcDbEntity
  8
BLACK
  6
Continuous
100
AcDbLine
 10
93.21249999999999
 20
-87.96249999999999
 30
0.0
 11
106.8125
 21
-87.96249999999999
 31
0.0
  0
ARC
  5
1A7
330
1D
100
AcDbEntity
  8
BLACK
100
AcDbCircle
 10
106.8125
 20
-87.46249999999999
 30
0.0
 40
0.5
100
AcDbArc
 50
270.0
 51
0.0
  0
LINE
  5
1A8
330
1D
100
AcDbEntity
  8
BLACK
  6
Continuous
100
AcDbLine
 10
107.3125
 20
-87.46249999999999
 30
0.0
 11
107.3125
 21
-74.46249999999999
 31
0.0
  0
ARC
  5
1A9
330
1D
100
AcDbEntity
  8
BLACK
100
AcDbCircle
 10
106.8125
 20
-74.46249999999999
 30
0.0
 40
0.5
100
AcDbArc
 50
0.0
 51
90.0
  0
LINE
  5
1AA
330
1D
100
AcDbEntity
  8
BLACK
  6
Continuous
100
AcDbLine
 10
106.8125
 20
-73.96249999999999
 30
0.0
 11
93.21249999999999
 21
-73.96249999999999
 31
0.0
  0
ARC
  5
1AB
330
1D
100
AcDbEntity
  8
BLACK
100
AcDbCircle
 10
93.21249999999999
 20
-74.46249999999999
 30
0.0
 40
0.5
100
AcDbArc
 50
90.0
 51
180.0
  0
LINE
  5
1AC
330
1D
100
AcDbEntity
  8
BLACK
  6
Continuous
100
AcDbLine
 10
97.475
 20
-36.3625
 30
0.0
 11
97.475
 21
-49.3625
 31
0.0
  0
ARC
  5
1AD
330
1D
100
AcDbEntity
  8
BLACK
100
AcDbCircle
 10
97.975
 20
-49.3625
 30
0.0
 40
0.5
100
AcDbArc
 50
180.0
 51
270.0
  0
LINE
  5
1AE
330
1D
100
AcDbEntity
  8
BLACK
  6
Continuous
100
AcDbLine
 10
97.975
 20
-49.8625
 30
0.0
 11
111.575
 21
-49.8625
 31
0.0
  0
ARC
  5
1AF
330
1D
100
AcDbEntity
  8
BLACK
100
AcDbCircle
 10
111.575
 20
-49.3625
 30
0.0
 40
0.5
100
AcDbArc
 50
270.0
 51
0.0
  0
LINE
  5
1B0
330
1D
100
AcDbEntity
  8
BLACK
  6
Continuous
100
AcDbLine
 10
112.075
 20
-49.3625
 30
0.0
 11
112.075
 21
-36.3625
 31
0.0
  0
ARC
  5
1B1
330
1D
100
AcDbEntity
  8
BLACK
100
AcDbCircle
 10
111.575
 20
-36.3625
 30
0.0
 40
0.5
100
AcDbArc
 50
0.0
 51
90.0
  0
LINE
  5
1B2
330
1D
100
AcDbEntity
  8
BLACK
  6
Continuous
100
AcDbLine
 10
111.575
 20
-35.8625
 30
0.0
 11
97.975
 21
-35.8625
 31
0.0
  0
ARC
  5
1B3
330
1D
100
AcDbEntity
  8
BLACK
100
AcDbCircle
 10
97.975
 20
-36.3625
 30
0.0
 40
0.5
100
AcDbArc
 50
90.0
 51
180.0
  0
LINE
  5
1B4
330
1D
100
AcDbEntity
  8
BLACK
  6
Continuous
100
AcDbLine
 10
-7.3
 20
-17.312501
 30
0.0
 11
-7.3
 21
-30.312499
 31
0.0
  0
ARC
  5
1B5
330
1D
100
AcDbEntity
  8
BLACK
100
AcDbCircle
 10
-6.799999
 20
-30.312499
 30
0.0
 40
0.500001000001
100
AcDbArc
 50
180.0
 51
269.99988541
  0
LINE
  5
1B6
330
1D
100
AcDbEntity
  8
BLACK
  6
Continuous
100
AcDbLine
 10
-6.8
 20
-30.8125
 30
0.0
 11
6.8
 21
-30.8125
 31
0.0
  0
ARC
  5
1B7
330
1D
100
AcDbEntity
  8
BLACK
100
AcDbCircle
 10
6.8
 20
-30.3125
 30
0.0
 40
0.5
100
AcDbArc
 50
270.0
 51
0.0
  0
LINE
  5
1B8
330
1D
100
AcDbEntity
  8
BLACK
  6
Continuous
100
AcDbLine
 10
7.3
 20
-30.3125
 30
0.0
 11
7.3
 21
-17.3125
 31
0.0
  0
ARC
  5
1B9
330
1D
100
AcDbEntity
  8
BLACK
100
AcDbCircle
 10
6.8
 20
-17.3125
 30
0.0
 40
0.5
100
AcDbArc
 50
0.0
 51
90.0
  0
LINE
  5
1BA
330
1D
100
AcDbEntity
  8
BLACK
  6
Continuous
100
AcDbLine
 10
6.8
 20
-16.8125
 30
0.0
 11
-6.799999
 21
-16.8125
 31
0.0
  0
ARC
  5
1BB
330
1D
100
AcDbEntity
  8
BLACK
100
AcDbCircle
 10
-6.799999
 20
-17.312501
 30
0.0
 40
0.500001
100
AcDbArc
 50
90.0
 51
180.0
  0
CIRCLE
  5
1BC
330
1D
100
AcDbEntity
  8
BLACK
100
AcDbCircle
 10
138.1125
 20
-61.91249999999999
 30
0.0
 40
1.0
  0
CIRCLE
  5
1BD
330
1D
100
AcDbEntity
  8
BLACK
100
AcDbCircle
 10
219.0842
 20
-23.4625
 30
0.0
 40
1.0
  0
CIRCLE
  5
1BE
330
1D
100
AcDbEntity
  8
BLACK
100
AcDbCircle
 10
33.3375
 20
-80.96249999999999
 30
0.0
 40
1.0
  0
ARC
  5
1BF
330
1D
100
AcDbEntity
  8
BLACK
100
AcDbCircle
 10
168.725
 20
6.5
 30
0.0
 40
0.5
100
AcDbArc
 50
0.0
 51
90.0
  0
LINE
  5
1C0
330
1D
100
AcDbEntity
  8
BLACK
  6
Continuous
100
AcDbLine
 10
168.725
 20
7.0
 30
0.0
 11
155.125
 21
7.0
 31
0.0
  0
ARC
  5
1C1
330
1D
100
AcDbEntity
  8
BLACK
100
AcDbCircle
 10
155.125
 20
6.5
 30
0.0
 40
0.5
100
AcDbArc
 50
90.0
 51
180.0
  0
LINE
  5
1C2
330
1D
100
AcDbEntity
  8
BLACK
  6
Continuous
100
AcDbLine
 10
154.625
 20
6.5
 30
0.0
 11
154.625
 21
-6.5
 31
0.0
  0
ARC
  5
1C3
330
1D
100
AcDbEntity
  8
BLACK
100
AcDbCircle
 10
155.125
 20
-6.5
 30
0.0
 40
0.5
100
AcDbArc
 50
180.0
 51
270.0
  0
LINE
  5
1C4
330
1D
100
AcDbEntity
  8
BLACK
  6
Continuous
100
AcDbLine
 10
155.125
 20
-7.0
 30
0.0
 11
168.725
 21
-7.0
 31
0.0
  0
ARC
  5
1C5
330
1D
100
AcDbEntity
  8
BLACK
100
AcDbCircle
 10
168.725
 20
-6.5
 30
0.0
 40
0.5
100
AcDbArc
 50
270.0
 51
0.0
  0
LINE
  5
1C6
330
1D
100
AcDbEntity
  8
BLACK
  6
Continuous
100
AcDbLine
 10
169.225
 20
-6.5
 30
0.0
 11
169.225
 21
6.5
 31
0.0
  0
ARC
  5
1C7
330
1D
100
AcDbEntity
  8
BLACK
100
AcDbCircle
 10
283.7125
 20
-49.3625
 30
0.0
 40
0.5
100
AcDbArc
 50
180.0
 51
270.0
  0
LINE
  5
1C8
330
1D
100
AcDbEntity
  8
BLACK
  6
Continuous
100
AcDbLine
 10
283.7125
 20
-49.8625
 30
0.0
 11
297.3125
 21
-49.8625
 31
0.0
  0
ARC
  5
1C9
330
1D
100
AcDbEntity
  8
BLACK
100
AcDbCircle
 10
297.3125
 20
-49.3625
 30
0.0
 40
0.5
100
AcDbArc
 50
270.0
 51
0.0
  0
LINE
  5
1CA
330
1D
100
AcDbEntity
  8
BLACK
  6
Continuous
100
AcDbLine
 10
297.8125
 20
-49.3625
 30
0.0
 11
297.8125
 21
-36.3625
 31
0.0
  0
ARC
  5
1CB
330
1D
100
AcDbEntity
  8
BLACK
100
AcDbCircle
 10
297.3125
 20
-36.3625
 30
0.0
 40
0.5
100
AcDbArc
 50
0.0
 51
90.0
  0
LINE
  5
1CC
330
1D
100
AcDbEntity
  8
BLACK
  6
Continuous
100
AcDbLine
 10
297.3125
 20
-35.8625
 30
0.0
 11
283.7125
 21
-35.8625
 31
0.0
  0
ARC
  5
1CD
330
1D
100
AcDbEntity
  8
BLACK
100
AcDbCircle
 10
283.7125
 20
-36.3625
 30
0.0
 40
0.5
100
AcDbArc
 50
90.0
 51
180.0
  0
LINE
  5
1CE
330
1D
100
AcDbEntity
  8
BLACK
  6
Continuous
100
AcDbLine
 10
283.2125
 20
-36.3625
 30
0.0
 11
283.2125
 21
-49.3625
 31
0.0
  0
LINE
  5
1CF
330
1D
100
AcDbEntity
  8
BLACK
  6
Continuous
100
AcDbLine
 10
302.2625
 20
-36.3625
 30
0.0
 11
302.2625
 21
-49.3625
 31
0.0
  0
ARC
  5
1D0
330
1D
100
AcDbEntity
  8
BLACK
100
AcDbCircle
 10
302.7625
 20
-49.3625
 30
0.0
 40
0.5
100
AcDbArc
 50
180.0
 51
270.0
  0
LINE
  5
1D1
330
1D
100
AcDbEntity
  8
BLACK
  6
Continuous
100
AcDbLine
 10
302.7625
 20
-49.8625
 30
0.0
 11
316.3625
 21
-49.8625
 31
0.0
  0
ARC
  5
1D2
330
1D
100
AcDbEntity
  8
BLACK
100
AcDbCircle
 10
316.3625
 20
-49.3625
 30
0.0
 40
0.5
100
AcDbArc
 50
270.0
 51
0.0
  0
LINE
  5
1D3
330
1D
100
AcDbEntity
  8
BLACK
  6
Continuous
100
AcDbLine
 10
316.8625
 20
-49.3625
 30
0.0
 11
316.8625
 21
-36.3625
 31
0.0
  0
ARC
  5
1D4
330
1D
100
AcDbEntity
  8
BLACK
100
AcDbCircle
 10
316.3625
 20
-36.3625
 30
0.0
 40
0.5
100
AcDbArc
 50
0.0
 51
90.0
  0
LINE
  5
1D5
330
1D
100
AcDbEntity
  8
BLACK
  6
Continuous
100
AcDbLine
 10
316.3625
 20
-35.8625
 30
0.0
 11
302.7625
 21
-35.8625
 31
0.0
  0
ARC
  5
1D6
330
1D
100
AcDbEntity
  8
BLACK
100
AcDbCircle
 10
302.7625
 20
-36.3625
 30
0.0
 40
0.5
100
AcDbArc
 50
90.0
 51
180.0
  0
ARC
  5
1D7
330
1D
100
AcDbEntity
  8
BLACK
100
AcDbCircle
 10
259.9
 20
6.5
 30
0.0
 40
0.5
100
AcDbArc
 50
90.0
 51
180.0
  0
LINE
  5
1D8
330
1D
100
AcDbEntity
  8
BLACK
  6
Continuous
100
AcDbLine
 10
259.4
 20
6.5
 30
0.0
 11
259.4
 21
-6.5
 31
0.0
  0
ARC
  5
1D9
330
1D
100
AcDbEntity
  8
BLACK
100
AcDbCircle
 10
259.9
 20
-6.5
 30
0.0
 40
0.5
100
AcDbArc
 50
180.0
 51
270.0
  0
LINE
  5
1DA
330
1D
100
AcDbEntity
  8
BLACK
  6
Continuous
100
AcDbLine
 10
259.9
 20
-7.0
 30
0.0
 11
273.5
 21
-7.0
 31
0.0
  0
ARC
  5
1DB
330
1D
100
AcDbEntity
  8
BLACK
100
AcDbCircle
 10
273.5
 20
-6.5
 30
0.0
 40
0.5
100
AcDbArc
 50
270.0
 51
0.0
  0
LINE
  5
1DC
330
1D
100
AcDbEntity
  8
BLACK
  6
Continuous
100
AcDbLine
 10
274.0
 20
-6.5
 30
0.0
 11
274.0
 21
6.5
 31
0.0
  0
ARC
  5
1DD
330
1D
100
AcDbEntity
  8
BLACK
100
AcDbCircle
 10
273.5
 20
6.5
 30
0.0
 40
0.5
100
AcDbArc
 50
0.0
 51
90.0
  0
LINE
  5
1DE
330
1D
100
AcDbEntity
  8
BLACK
  6
Continuous
100
AcDbLine
 10
273.5
 20
7.0
 30
0.0
 11
259.9
 21
7.0
 31
0.0
  0
CIRCLE
  5
1DF
330
1D
100
AcDbEntity
  8
BLACK
100
AcDbCircle
 10
328.6125
 20
-80.96249999999999
 30
0.0
 40
1.0
  0
LINE
  5
1E0
330
1D
100
AcDbEntity
  8
BLACK
  6
Continuous
100
AcDbLine
 10
335.4125
 20
-93.0125
 30
0.0
 11
321.8125
 21
-93.0125
 31
0.0
  0
ARC
  5
1E1
330
1D
100
AcDbEntity
  8
BLACK
100
AcDbCircle
 10
321.8125
 20
-93.5125
 30
0.0
 40
0.5
100
AcDbArc
 50
90.0
 51
180.0
  0
LINE
  5
1E2
330
1D
100
AcDbEntity
  8
BLACK
  6
Continuous
100
AcDbLine
 10
321.3125
 20
-93.5125
 30
0.0
 11
321.3125
 21
-106.5125
 31
0.0
  0
ARC
  5
1E3
330
1D
100
AcDbEntity
  8
BLACK
100
AcDbCircle
 10
321.8125
 20
-106.5125
 30
0.0
 40
0.5
100
AcDbArc
 50
180.0
 51
270.0
  0
ARC
  5
1E4
330
1D
100
AcDbEntity
  8
BLACK
100
AcDbCircle
 10
335.4125
 20
-106.5125
 30
0.0
 40
0.5
100
AcDbArc
 50
270.0
 51
0.0
  0
LINE
  5
1E5
330
1D
100
AcDbEntity
  8
BLACK
  6
Continuous
100
AcDbLine
 10
335.9125
 20
-106.5125
 30
0.0
 11
335.9125
 21
-93.5125
 31
0.0
  0
ARC
  5
1E6
330
1D
100
AcDbEntity
  8
BLACK
100
AcDbCircle
 10
335.4125
 20
-93.5125
 30
0.0
 40
0.5
100
AcDbArc
 50
0.0
 51
90.0
  0
ARC
  5
1E7
330
1D
100
AcDbEntity
  8
BLACK
100
AcDbCircle
 10
302.7625
 20
-106.5125
 30
0.0
 40
0.5
100
AcDbArc
 50
180.0
 51
270.0
  0
LINE
  5
1E8
330
1D
100
AcDbEntity
  8
BLACK
  6
Continuous
100
AcDbLine
 10
302.7625
 20
-107.0125
 30
0.0
 11
316.3625
 21
-107.0125
 31
0.0
  0
ARC
  5
1E9
330
1D
100
AcDbEntity
  8
BLACK
100
AcDbCircle
 10
316.3625
 20
-106.5125
 30
0.0
 40
0.5
100
AcDbArc
 50
270.0
 51
0.0
  0
LINE
  5
1EA
330
1D
100
AcDbEntity
  8
BLACK
  6
Continuous
100
AcDbLine
 10
316.8625
 20
-106.5125
 30
0.0
 11
316.8625
 21
-93.5125
 31
0.0
  0
ARC
  5
1EB
330
1D
100
AcDbEntity
  8
BLACK
100
AcDbCircle
 10
316.3625
 20
-93.5125
 30
0.0
 40
0.5
100
AcDbArc
 50
0.0
 51
90.0
  0
LINE
  5
1EC
330
1D
100
AcDbEntity
  8
BLACK
  6
Continuous
100
AcDbLine
 10
316.3625
 20
-93.0125
 30
0.0
 11
302.7625
 21
-93.0125
 31
0.0
  0
ARC
  5
1ED
330
1D
100
AcDbEntity
  8
BLACK
100
AcDbCircle
 10
302.7625
 20
-93.5125
 30
0.0
 40
0.5
100
AcDbArc
 50
90.0
 51
180.0
  0
LINE
  5
1EE
330
1D
100
AcDbEntity
  8
BLACK
  6
Continuous
100
AcDbLine
 10
302.2625
 20
-93.5125
 30
0.0
 11
302.2625
 21
-106.5125
 31
0.0
  0
LINE
  5
1EF
330
1D
100
AcDbEntity
  8
BLACK
  6
Continuous
100
AcDbLine
 10
316.3625
 20
-73.96249999999999
 30
0.0
 11
302.7625
 21
-73.96249999999999
 31
0.0
  0
ARC
  5
1F0
330
1D
100
AcDbEntity
  8
BLACK
100
AcDbCircle
 10
302.7625
 20
-74.46249999999999
 30
0.0
 40
0.5
100
AcDbArc
 50
90.0
 51
180.0
  0
LINE
  5
1F1
330
1D
100
AcDbEntity
  8
BLACK
  6
Continuous
100
AcDbLine
 10
302.2625
 20
-74.46249999999999
 30
0.0
 11
302.2625
 21
-87.46249999999999
 31
0.0
  0
ARC
  5
1F2
330
1D
100
AcDbEntity
  8
BLACK
100
AcDbCircle
 10
302.7625
 20
-87.46249999999999
 30
0.0
 40
0.5
100
AcDbArc
 50
180.0
 51
270.0
  0
LINE
  5
1F3
330
1D
100
AcDbEntity
  8
BLACK
  6
Continuous
100
AcDbLine
 10
302.7625
 20
-87.96249999999999
 30
0.0
 11
316.3625
 21
-87.96249999999999
 31
0.0
  0
ARC
  5
1F4
330
1D
100
AcDbEntity
  8
BLACK
100
AcDbCircle
 10
316.3625
 20
-87.46249999999999
 30
0.0
 40
0.5
100
AcDbArc
 50
270.0
 51
0.0
  0
LINE
  5
1F5
330
1D
100
AcDbEntity
  8
BLACK
  6
Continuous
100
AcDbLine
 10
316.8625
 20
-87.46249999999999
 30
0.0
 11
316.8625
 21
-74.46249999999999
 31
0.0
  0
ARC
  5
1F6
330
1D
100
AcDbEntity
  8
BLACK
100
AcDbCircle
 10
316.3625
 20
-74.46249999999999
 30
0.0
 40
0.5
100
AcDbArc
 50
0.0
 51
90.0
  0
ARC
  5
1F7
330
1D
100
AcDbEntity
  8
BLACK
100
AcDbCircle
 10
136.075
 20
-6.5
 30
0.0
 40
0.5
100
AcDbArc
 50
180.0
 51
270.0
  0
LINE
  5
1F8
330
1D
100
AcDbEntity
  8
BLACK
  6
Continuous
100
AcDbLine
 10
136.075
 20
-7.0
 30
0.0
 11
149.675
 21
-7.0
 31
0.0
  0
ARC
  5
1F9
330
1D
100
AcDbEntity
  8
BLACK
100
AcDbCircle
 10
149.675
 20
-6.5
 30
0.0
 40
0.5
100
AcDbArc
 50
270.0
 51
0.0
  0
LINE
  5
1FA
330
1D
100
AcDbEntity
  8
BLACK
  6
Continuous
100
AcDbLine
 10
150.175
 20
-6.5
 30
0.0
 11
150.175
 21
6.5
 31
0.0
  0
ARC
  5
1FB
330
1D
100
AcDbEntity
  8
BLACK
100
AcDbCircle
 10
149.675
 20
6.5
 30
0.0
 40
0.5
100
AcDbArc
 50
0.0
 51
90.0
  0
LINE
  5
1FC
330
1D
100
AcDbEntity
  8
BLACK
  6
Continuous
100
AcDbLine
 10
149.675
 20
7.0
 30
0.0
 11
136.075
 21
7.0
 31
0.0
  0
ARC
  5
1FD
330
1D
100
AcDbEntity
  8
BLACK
100
AcDbCircle
 10
136.075
 20
6.5
 30
0.0
 40
0.5
100
AcDbArc
 50
90.0
 51
180.0
  0
LINE
  5
1FE
330
1D
100
AcDbEntity
  8
BLACK
  6
Continuous
100
AcDbLine
 10
135.575
 20
6.5
 30
0.0
 11
135.575
 21
-6.5
 31
0.0
  0
ARC
  5
1FF
330
1D
100
AcDbEntity
  8
BLACK
100
AcDbCircle
 10
130.625
 20
6.5
 30
0.0
 40
0.5
100
AcDbArc
 50
0.0
 51
90.0
  0
LINE
  5
200
330
1D
100
AcDbEntity
  8
BLACK
  6
Continuous
100
AcDbLine
 10
130.625
 20
7.0
 30
0.0
 11
117.025
 21
7.0
 31
0.0
  0
ARC
  5
201
330
1D
100
AcDbEntity
  8
BLACK
100
AcDbCircle
 10
117.025
 20
6.5
 30
0.0
 40
0.5
100
AcDbArc
 50
90.0
 51
180.0
  0
LINE
  5
202
330
1D
100
AcDbEntity
  8
BLACK
  6
Continuous
100
AcDbLine
 10
116.525
 20
6.5
 30
0.0
 11
116.525
 21
-6.5
 31
0.0
  0
ARC
  5
203
330
1D
100
AcDbEntity
  8
BLACK
100
AcDbCircle
 10
117.025
 20
-6.5
 30
0.0
 40
0.5
100
AcDbArc
 50
180.0
 51
270.0
  0
LINE
  5
204
330
1D
100
AcDbEntity
  8
BLACK
  6
Continuous
100
AcDbLine
 10
117.025
 20
-7.0
 30
0.0
 11
130.625
 21
-7.0
 31
0.0
  0
ARC
  5
205
330
1D
100
AcDbEntity
  8
BLACK
100
AcDbCircle
 10
130.625
 20
-6.5
 30
0.0
 40
0.5
100
AcDbArc
 50
270.0
 51
0.0
  0
LINE
  5
206
330
1D
100
AcDbEntity
  8
BLACK
  6
Continuous
100
AcDbLine
 10
131.125
 20
-6.5
 30
0.0
 11
131.125
 21
6.5
 31
0.0
  0
CIRCLE
  5
207
330
1D
100
AcDbEntity
  8
BLACK
100
AcDbCircle
 10
195.2625
 20
0.0
 30
0.0
 40
1.0
  0
LINE
  5
208
330
1D
100
AcDbEntity
  8
BLACK
  6
Continuous
100
AcDbLine
 10
321.3125
 20
-36.3625
 30
0.0
 11
321.3125
 21
-49.3625
 31
0.0
  0
ARC
  5
209
330
1D
100
AcDbEntity
  8
BLACK
100
AcDbCircle
 10
321.8125
 20
-49.3625
 30
0.0
 40
0.5
100
AcDbArc
 50
180.0
 51
270.0
  0
LINE
  5
20A
330
1D
100
AcDbEntity
  8
BLACK
  6
Continuous
100
AcDbLine
 10
321.8125
 20
-49.8625
 30
0.0
 11
335.4125
 21
-49.8625
 31
0.0
  0
ARC
  5
20B
330
1D
100
AcDbEntity
  8
BLACK
100
AcDbCircle
 10
335.4125
 20
-49.3625
 30
0.0
 40
0.5
100
AcDbArc
 50
270.0
 51
0.0
  0
LINE
  5
20C
330
1D
100
AcDbEntity
  8
BLACK
  6
Continuous
100
AcDbLine
 10
335.9125
 20
-49.3625
 30
0.0
 11
335.9125
 21
-36.3625
 31
0.0
  0
ARC
  5
20D
330
1D
100
AcDbEntity
  8
BLACK
100
AcDbCircle
 10
335.4125
 20
-36.3625
 30
0.0
 40
0.5
100
AcDbArc
 50
0.0
 51
90.0
  0
LINE
  5
20E
330
1D
100
AcDbEntity
  8
BLACK
  6
Continuous
100
AcDbLine
 10
335.4125
 20
-35.8625
 30
0.0
 11
321.8125
 21
-35.8625
 31
0.0
  0
ARC
  5
20F
330
1D
100
AcDbEntity
  8
BLACK
100
AcDbCircle
 10
321.8125
 20
-36.3625
 30
0.0
 40
0.5
100
AcDbArc
 50
90.0
 51
180.0
  0
LINE
  5
210
330
1D
100
AcDbEntity
  8
BLACK
  6
Continuous
100
AcDbLine
 10
316.3625
 20
-16.8125
 30
0.0
 11
302.7625
 21
-16.8125
 31
0.0
  0
ARC
  5
211
330
1D
100
AcDbEntity
  8
BLACK
100
AcDbCircle
 10
302.7625
 20
-17.3125
 30
0.0
 40
0.5
100
AcDbArc
 50
90.0
 51
180.0
  0
LINE
  5
212
330
1D
100
AcDbEntity
  8
BLACK
  6
Continuous
100
AcDbLine
 10
302.2625
 20
-17.3125
 30
0.0
 11
302.2625
 21
-30.3125
 31
0.0
  0
ARC
  5
213
330
1D
100
AcDbEntity
  8
BLACK
100
AcDbCircle
 10
302.7625
 20
-30.3125
 30
0.0
 40
0.5
100
AcDbArc
 50
180.0
 51
270.0
  0
LINE
  5
214
330
1D
100
AcDbEntity
  8
BLACK
  6
Continuous
100
AcDbLine
 10
302.7625
 20
-30.8125
 30
0.0
 11
316.3625
 21
-30.8125
 31
0.0
  0
ARC
  5
215
330
1D
100
AcDbEntity
  8
BLACK
100
AcDbCircle
 10
316.3625
 20
-30.3125
 30
0.0
 40
0.5
100
AcDbArc
 50
270.0
 51
0.0
  0
LINE
  5
216
330
1D
100
AcDbEntity
  8
BLACK
  6
Continuous
100
AcDbLine
 10
316.8625
 20
-30.3125
 30
0.0
 11
316.8625
 21
-17.3125
 31
0.0
  0
ARC
  5
217
330
1D
100
AcDbEntity
  8
BLACK
100
AcDbCircle
 10
316.3625
 20
-17.3125
 30
0.0
 40
0.5
100
AcDbArc
 50
0.0
 51
90.0
  0
ARC
  5
218
330
1D
100
AcDbEntity
  8
BLACK
100
AcDbCircle
 10
297.3125
 20
-106.5125
 30
0.0
 40
0.5
100
AcDbArc
 50
270.0
 51
0.0
  0
LINE
  5
219
330
1D
100
AcDbEntity
  8
BLACK
  6
Continuous
100
AcDbLine
 10
297.8125
 20
-106.5125
 30
0.0
 11
297.8125
 21
-93.5125
 31
0.0
  0
ARC
  5
21A
330
1D
100
AcDbEntity
  8
BLACK
100
AcDbCircle
 10
297.3125
 20
-93.5125
 30
0.0
 40
0.5
100
AcDbArc
 50
0.0
 51
90.0
  0
LINE
  5
21B
330
1D
100
AcDbEntity
  8
BLACK
  6
Continuous
100
AcDbLine
 10
297.3125
 20
-93.0125
 30
0.0
 11
283.7125
 21
-93.0125
 31
0.0
  0
ARC
  5
21C
330
1D
100
AcDbEntity
  8
BLACK
100
AcDbCircle
 10
283.7125
 20
-93.5125
 30
0.0
 40
0.5
100
AcDbArc
 50
90.0
 51
180.0
  0
LINE
  5
21D
330
1D
100
AcDbEntity
  8
BLACK
  6
Continuous
100
AcDbLine
 10
283.2125
 20
-93.5125
 30
0.0
 11
283.2125
 21
-106.5125
 31
0.0
  0
ARC
  5
21E
330
1D
100
AcDbEntity
  8
BLACK
100
AcDbCircle
 10
283.7125
 20
-106.5125
 30
0.0
 40
0.5
100
AcDbArc
 50
180.0
 51
270.0
  0
LINE
  5
21F
330
1D
100
AcDbEntity
  8
BLACK
  6
Continuous
100
AcDbLine
 10
283.7125
 20
-107.0125
 30
0.0
 11
297.3125
 21
-107.0125
 31
0.0
  0
LINE
  5
220
330
1D
100
AcDbEntity
  8
BLACK
  6
Continuous
100
AcDbLine
 10
321.3125
 20
-17.3125
 30
0.0
 11
321.3125
 21
-30.3125
 31
0.0
  0
ARC
  5
221
330
1D
100
AcDbEntity
  8
BLACK
100
AcDbCircle
 10
321.8125
 20
-30.3125
 30
0.0
 40
0.5
100
AcDbArc
 50
180.0
 51
270.0
  0
LINE
  5
222
330
1D
100
AcDbEntity
  8
BLACK
  6
Continuous
100
AcDbLine
 10
321.8125
 20
-30.8125
 30
0.0
 11
335.4125
 21
-30.8125
 31
0.0
  0
ARC
  5
223
330
1D
100
AcDbEntity
  8
BLACK
100
AcDbCircle
 10
335.4125
 20
-30.3125
 30
0.0
 40
0.5
100
AcDbArc
 50
270.0
 51
0.0
  0
LINE
  5
224
330
1D
100
AcDbEntity
  8
BLACK
  6
Continuous
100
AcDbLine
 10
335.9125
 20
-30.3125
 30
0.0
 11
335.9125
 21
-17.3125
 31
0.0
  0
ARC
  5
225
330
1D
100
AcDbEntity
  8
BLACK
100
AcDbCircle
 10
335.4125
 20
-17.3125
 30
0.0
 40
0.5
100
AcDbArc
 50
0.0
 51
90.0
  0
LINE
  5
226
330
1D
100
AcDbEntity
  8
BLACK
  6
Continuous
100
AcDbLine
 10
335.4125
 20
-16.8125
 30
0.0
 11
321.8125
 21
-16.8125
 31
0.0
  0
ARC
  5
227
330
1D
100
AcDbEntity
  8
BLACK
100
AcDbCircle
 10
321.8125
 20
-17.3125
 30
0.0
 40
0.5
100
AcDbArc
 50
90.0
 51
180.0
  0
ARC
  5
228
330
1D
100
AcDbEntity
  8
BLACK
100
AcDbCircle
 10
297.3125
 20
-6.5
 30
0.0
 40
0.5
100
AcDbArc
 50
270.0
 51
0.0
  0
LINE
  5
229
330
1D
100
AcDbEntity
  8
BLACK
  6
Continuous
100
AcDbLine
 10
297.8125
 20
-6.5
 30
0.0
 11
297.8125
 21
6.5
 31
0.0
  0
ARC
  5
22A
330
1D
100
AcDbEntity
  8
BLACK
100
AcDbCircle
 10
297.3125
 20
6.5
 30
0.0
 40
0.5
100
AcDbArc
 50
0.0
 51
90.0
  0
LINE
  5
22B
330
1D
100
AcDbEntity
  8
BLACK
  6
Continuous
100
AcDbLine
 10
297.3125
 20
7.0
 30
0.0
 11
283.7125
 21
7.0
 31
0.0
  0
ARC
  5
22C
330
1D
100
AcDbEntity
  8
BLACK
100
AcDbCircle
 10
283.7125
 20
6.5
 30
0.0
 40
0.5
100
AcDbArc
 50
90.0
 51
180.0
  0
LINE
  5
22D
330
1D
100
AcDbEntity
  8
BLACK
  6
Continuous
100
AcDbLine
 10
283.2125
 20
6.5
 30
0.0
 11
283.2125
 21
-6.5
 31
0.0
  0
ARC
  5
22E
330
1D
100
AcDbEntity
  8
BLACK
100
AcDbCircle
 10
283.7125
 20
-6.5
 30
0.0
 40
0.5
100
AcDbArc
 50
180.0
 51
270.0
  0
LINE
  5
22F
330
1D
100
AcDbEntity
  8
BLACK
  6
Continuous
100
AcDbLine
 10
283.7125
 20
-7.0
 30
0.0
 11
297.3125
 21
-7.0
 31
0.0
  0
CIRCLE
  5
230
330
1D
100
AcDbEntity
  8
BLACK
100
AcDbCircle
 10
300.0375
 20
-23.8125
 30
0.0
 40
1.0
  0
LINE
  5
231
330
1D
100
AcDbEntity
  8
BLACK
  6
Continuous
100
AcDbLine
 10
316.3625
 20
7.0
 30
0.0
 11
302.7625
 21
7.0
 31
0.0
  0
ARC
  5
232
330
1D
100
AcDbEntity
  8
BLACK
100
AcDbCircle
 10
302.7625
 20
6.5
 30
0.0
 40
0.5
100
AcDbArc
 50
90.0
 51
180.0
  0
LINE
  5
233
330
1D
100
AcDbEntity
  8
BLACK
  6
Continuous
100
AcDbLine
 10
302.2625
 20
6.5
 30
0.0
 11
302.2625
 21
-6.5
 31
0.0
  0
ARC
  5
234
330
1D
100
AcDbEntity
  8
BLACK
100
AcDbCircle
 10
302.7625
 20
-6.5
 30
0.0
 40
0.5
100
AcDbArc
 50
180.0
 51
270.0
  0
LINE
  5
235
330
1D
100
AcDbEntity
  8
BLACK
  6
Continuous
100
AcDbLine
 10
302.7625
 20
-7.0
 30
0.0
 11
316.3625
 21
-7.0
 31
0.0
  0
ARC
  5
236
330
1D
100
AcDbEntity
  8
BLACK
100
AcDbCircle
 10
316.3625
 20
-6.5
 30
0.0
 40
0.5
100
AcDbArc
 50
270.0
 51
0.0
  0
LINE
  5
237
330
1D
100
AcDbEntity
  8
BLACK
  6
Continuous
100
AcDbLine
 10
316.8625
 20
-6.5
 30
0.0
 11
316.8625
 21
6.5
 31
0.0
  0
ARC
  5
238
330
1D
100
AcDbEntity
  8
BLACK
100
AcDbCircle
 10
316.3625
 20
6.5
 30
0.0
 40
0.5
100
AcDbArc
 50
0.0
 51
90.0
  0
LINE
  5
239
330
1D
100
AcDbEntity
  8
BLACK
  6
Continuous
100
AcDbLine
 10
283.2125
 20
-17.3125
 30
0.0
 11
283.2125
 21
-30.3125
 31
0.0
  0
ARC
  5
23A
330
1D
100
AcDbEntity
  8
BLACK
100
AcDbCircle
 10
283.7125
 20
-30.3125
 30
0.0
 40
0.5
100
AcDbArc
 50
180.0
 51
270.0
  0
LINE
  5
23B
330
1D
100
AcDbEntity
  8
BLACK
  6
Continuous
100
AcDbLine
 10
283.7125
 20
-30.8125
 30
0.0
 11
297.3125
 21
-30.8125
 31
0.0
  0
ARC
  5
23C
330
1D
100
AcDbEntity
  8
BLACK
100
AcDbCircle
 10
297.3125
 20
-30.3125
 30
0.0
 40
0.5
100
AcDbArc
 50
270.0
 51
0.0
  0
LINE
  5
23D
330
1D
100
AcDbEntity
  8
BLACK
  6
Continuous
100
AcDbLine
 10
297.8125
 20
-30.3125
 30
0.0
 11
297.8125
 21
-17.3125
 31
0.0
  0
ARC
  5
23E
330
1D
100
AcDbEntity
  8
BLACK
100
AcDbCircle
 10
297.3125
 20
-17.3125
 30
0.0
 40
0.5
100
AcDbArc
 50
0.0
 51
90.0
  0
LINE
  5
23F
330
1D
100
AcDbEntity
  8
BLACK
  6
Continuous
100
AcDbLine
 10
297.3125
 20
-16.8125
 30
0.0
 11
283.7125
 21
-16.8125
 31
0.0
  0
ARC
  5
240
330
1D
100
AcDbEntity
  8
BLACK
100
AcDbCircle
 10
283.7125
 20
-17.3125
 30
0.0
 40
0.5
100
AcDbArc
 50
90.0
 51
180.0
  0
ARC
  5
241
330
1D
100
AcDbEntity
  8
BLACK
100
AcDbCircle
 10
335.4125
 20
-6.5
 30
0.0
 40
0.5
100
AcDbArc
 50
270.0
 51
0.0
  0
LINE
  5
242
330
1D
100
AcDbEntity
  8
BLACK
  6
Continuous
100
AcDbLine
 10
335.9125
 20
-6.5
 30
0.0
 11
335.9125
 21
6.5
 31
0.0
  0
ARC
  5
243
330
1D
100
AcDbEntity
  8
BLACK
100
AcDbCircle
 10
335.4125
 20
6.5
 30
0.0
 40
0.5
100
AcDbArc
 50
0.0
 51
90.0
  0
LINE
  5
244
330
1D
100
AcDbEntity
  8
BLACK
  6
Continuous
100
AcDbLine
 10
335.4125
 20
7.0
 30
0.0
 11
321.8125
 21
7.0
 31
0.0
  0
ARC
  5
245
330
1D
100
AcDbEntity
  8
BLACK
100
AcDbCircle
 10
321.8125
 20
6.5
 30
0.0
 40
0.5
100
AcDbArc
 50
90.0
 51
180.0
  0
LINE
  5
246
330
1D
100
AcDbEntity
  8
BLACK
  6
Continuous
100
AcDbLine
 10
321.3125
 20
6.5
 30
0.0
 11
321.3125
 21
-6.5
 31
0.0
  0
ARC
  5
247
330
1D
100
AcDbEntity
  8
BLACK
100
AcDbCircle
 10
321.8125
 20
-6.5
 30
0.0
 40
0.5
100
AcDbArc
 50
180.0
 51
270.0
  0
LINE
  5
248
330
1D
100
AcDbEntity
  8
BLACK
  6
Continuous
100
AcDbLine
 10
321.8125
 20
-7.0
 30
0.0
 11
335.4125
 21
-7.0
 31
0.0
  0
CIRCLE
  5
249
330
1D
100
AcDbEntity
  8
BLACK
100
AcDbCircle
 10
319.0875
 20
-100.0125
 30
0.0
 40
1.0
  0
CIRCLE
  5
24A
330
1D
100
AcDbEntity
  8
BLACK
100
AcDbCircle
 10
319.0875
 20
0.0
 30
0.0
 40
1.0
  0
CIRCLE
  5
24B
330
1D
100
AcDbEntity
  8
BLACK
100
AcDbCircle
 10
278.60625
 20
0.0
 30
0.0
 40
1.0
  0
CIRCLE
  5
24C
330
1D
100
AcDbEntity
  8
BLACK
100
AcDbCircle
 10
319.0875
 20
-42.8625
 30
0.0
 40
1.0
  0
CIRCLE
  5
24D
330
1D
100
AcDbEntity
  8
BLACK
100
AcDbCircle
 10
303.609375
 20
-58.340625
 30
0.0
 40
1.0
  0
ARC
  5
24E
330
1D
100
AcDbEntity
  8
BLACK
100
AcDbCircle
 10
6.8
 20
-6.5
 30
0.0
 40
0.5
100
AcDbArc
 50
270.0
 51
0.0
  0
LINE
  5
24F
330
1D
100
AcDbEntity
  8
BLACK
  6
Continuous
100
AcDbLine
 10
7.3
 20
-6.5
 30
0.0
 11
7.3
 21
6.5
 31
0.0
  0
ARC
  5
250
330
1D
100
AcDbEntity
  8
BLACK
100
AcDbCircle
 10
6.8
 20
6.5
 30
0.0
 40
0.5
100
AcDbArc
 50
0.0
 51
90.0
  0
LINE
  5
251
330
1D
100
AcDbEntity
  8
BLACK
  6
Continuous
100
AcDbLine
 10
6.8
 20
7.0
 30
0.0
 11
-6.8
 21
7.0
 31
0.0
  0
ARC
  5
252
330
1D
100
AcDbEntity
  8
BLACK
100
AcDbCircle
 10
-6.799999
 20
6.499999
 30
0.0
 40
0.500001
100
AcDbArc
 50
90.00011459
 51
180.0
  0
LINE
  5
253
330
1D
100
AcDbEntity
  8
BLACK
  6
Continuous
100
AcDbLine
 10
-7.3
 20
6.499999
 30
0.0
 11
-7.3
 21
-6.5
 31
0.0
  0
ARC
  5
254
330
1D
100
AcDbEntity
  8
BLACK
100
AcDbCircle
 10
-6.799999
 20
-6.499999
 30
0.0
 40
0.500001
100
AcDbArc
 50
180.00011459
 51
270.0
  0
LINE
  5
255
330
1D
100
AcDbEntity
  8
BLACK
  6
Continuous
100
AcDbLine
 10
-6.799999
 20
-7.0
 30
0.0
 11
6.8
 21
-7.0
 31
0.0
  0
CIRCLE
  5
256
330
1D
100
AcDbEntity
  8
BLACK
100
AcDbCircle
 10
11.90625
 20
0.0
 30
0.0
 40
1.0
  0
CIRCLE
  5
257
330
1D
100
AcDbEntity
  8
BLACK
100
AcDbCircle
 10
114.3
 20
0.0
 30
0.0
 40
1.0
  0
CIRCLE
  5
258
330
1D
100
AcDbEntity
  8
BLACK
100
AcDbCircle
 10
277.415625
 20
-100.0125
 30
0.0
 40
1.0
  0
CIRCLE
  5
259
330
1D
100
AcDbEntity
  8
BLACK
100
AcDbCircle
 10
16.66875
 20
-42.8625
 30
0.0
 40
1.0
  0
CIRCLE
  5
25A
330
1D
100
AcDbEntity
  8
BLACK
100
AcDbCircle
 10
228.6
 20
-42.8625
 30
0.0
 40
1.0
  0
CIRCLE
  5
25B
330
1D
100
AcDbEntity
  8
BLACK
100
AcDbCircle
 10
204.787552
 20
-112.4125
 30
0.0
 40
1.5
  0
CIRCLE
  5
25C
330
1D
100
AcDbEntity
  8
BLACK
100
AcDbCircle
 10
38.100052
 20
-112.4125
 30
0.0
 40
1.5
  0
CIRCLE
  5
25D
330
1D
100
AcDbEntity
  8
BLACK
100
AcDbCircle
 10
109.5375
 20
12.775
 30
0.0
 40
1.5
  0
CIRCLE
  5
25E
330
1D
100
AcDbEntity
  8
BLACK
100
AcDbCircle
 10
304.8
 20
12.775
 30
0.0
 40
1.5
  0
CIRCLE
  5
25F
330
1D
100
AcDbEntity
  8
BLACK
100
AcDbCircle
 10
219.075
 20
12.775
 30
0.0
 40
1.5
  0
CIRCLE
  5
260
330
1D
100
AcDbEntity
  8
BLACK
100
AcDbCircle
 10
23.8125
 20
12.775
 30
0.0
 40
1.5
  0
CIRCLE
  5
261
330
1D
100
AcDbEntity
  8
BLACK
100
AcDbCircle
 10
300.0375
 20
-112.4125
 30
0.0
 40
1.5
  0
LINE
  5
262
330
1D
100
AcDbEntity
  8
BLACK
  6
Continuous
100
AcDbLine
 10
16.405653
 20
9.964347
 30
0.0
 11
21.514403
 21
15.073097
 31
0.0
  0
LINE
  5
263
330
1D
100
AcDbEntity
  8
BLACK
  6
Continuous
100
AcDbLine
 10
196.6947
 20
-109.5375
 30
0.0
 11
46.1926
 21
-109.5375
 31
0.0
  0
LINE
  5
264
330
1D
100
AcDbEntity
  8
BLACK
  6
Continuous
100
AcDbLine
 10
202.474132
 20
-114.695274
 30
0.0
 11
197.743105
 21
-109.964248
 31
0.0
  0
LINE
  5
265
330
1D
100
AcDbEntity
  8
BLACK
  6
Continuous
100
AcDbLine
 10
211.819373
 20
-109.976873
 30
0.0
 11
207.085623
 21
-114.710623
 31
0.0
  0
LINE
  5
266
330
1D
100
AcDbEntity
  8
BLACK
  6
Continuous
100
AcDbLine
 10
291.945
 20
-109.5375
 30
0.0
 11
212.8801
 21
-109.5375
 31
0.0
  0
LINE
  5
267
330
1D
100
AcDbEntity
  8
BLACK
  6
Continuous
100
AcDbLine
 10
297.739403
 20
-114.710597
 30
0.0
 11
293.005646
 21
-109.97684
 31
0.0
  0
LINE
  5
268
330
1D
100
AcDbEntity
  8
BLACK
  6
Continuous
100
AcDbLine
 10
307.069447
 20
-109.976747
 30
0.0
 11
302.335597
 21
-114.710597
 31
0.0
  0
LINE
  5
269
330
1D
100
AcDbEntity
  8
BLACK
  6
Continuous
100
AcDbLine
 10
337.106199
 20
-109.5375
 30
0.0
 11
308.113669
 21
-109.5375
 31
0.0
  0
LINE
  5
26A
330
1D
100
AcDbEntity
  8
BLACK
  6
Continuous
100
AcDbLine
 10
338.1375
 20
8.485351999999999
 30
0.0
 11
338.1375
 21
-108.5126
 31
0.0
  0
LINE
  5
26B
330
1D
100
AcDbEntity
  8
BLACK
  6
Continuous
100
AcDbLine
 10
313.2675
 20
9.525
 30
0.0
 11
337.1122
 21
9.525
 31
0.0
  0
LINE
  5
26C
330
1D
100
AcDbEntity
  8
BLACK
  6
Continuous
100
AcDbLine
 10
307.098097
 20
15.073097
 30
0.0
 11
312.206854
 21
9.96434
 31
0.0
  0
LINE
  5
26D
330
1D
100
AcDbEntity
  8
BLACK
  6
Continuous
100
AcDbLine
 10
-8.499998
 20
9.525
 30
0.0
 11
15.359498
 21
9.525
 31
0.0
  0
LINE
  5
26E
330
1D
100
AcDbEntity
  8
BLACK
  6
Continuous
100
AcDbLine
 10
26.110597
 20
15.073097
 30
0.0
 11
31.219354
 21
9.96434
 31
0.0
  0
LINE
  5
26F
330
1D
100
AcDbEntity
  8
BLACK
  6
Continuous
100
AcDbLine
 10
297.393053
 20
9.964247
 30
0.0
 11
302.501903
 21
15.073097
 31
0.0
  0
LINE
  5
270
330
1D
100
AcDbEntity
  8
BLACK
  6
Continuous
100
AcDbLine
 10
118.005
 20
9.525
 30
0.0
 11
210.623739
 21
9.525
 31
0.0
  0
LINE
  5
271
330
1D
100
AcDbEntity
  8
BLACK
  6
Continuous
100
AcDbLine
 10
221.373097
 20
15.073097
 30
0.0
 11
226.481854
 21
9.96434
 31
0.0
  0
LINE
  5
272
330
1D
100
AcDbEntity
  8
BLACK
  6
Continuous
100
AcDbLine
 10
227.5425
 20
9.525
 30
0.0
 11
296.348739
 21
9.525
 31
0.0
  0
LINE
  5
273
330
1D
100
AcDbEntity
  8
BLACK
  6
Continuous
100
AcDbLine
 10
211.668053
 20
9.964247
 30
0.0
 11
216.776903
 21
15.073097
 31
0.0
  0
LINE
  5
274
330
1D
100
AcDbEntity
  8
BLACK
  6
Continuous
100
AcDbLine
 10
102.130752
 20
9.964447
 30
0.0
 11
107.239403
 21
15.073097
 31
0.0
  0
LINE
  5
275
330
1D
100
AcDbEntity
  8
BLACK
  6
Continuous
100
AcDbLine
 10
-9.525
 20
-108.512498
 30
0.0
 11
-9.525
 21
8.499998
 31
0.0
  0
LINE
  5
276
330
1D
100
AcDbEntity
  8
BLACK
  6
Continuous
100
AcDbLine
 10
45.131873
 20
-109.976873
 30
0.0
 11
40.398147
 21
-114.710599
 31
0.0
  0
LINE
  5
277
330
1D
100
AcDbEntity
  8
BLACK
  6
Continuous
100
AcDbLine
 10
32.28
 20
9.525
 30
0.0
 11
101.069901
 21
9.525
 31
0.0
  0
LINE
  5
278
330
1D
100
AcDbEntity
  8
BLACK
  6
Continuous
100
AcDbLine
 10
111.855659
 20
15.053035
 30
0.0
 11
116.944354
 21
9.96434
 31
0.0
  0
LINE
  5
279
330
1D
100
AcDbEntity
  8
BLACK
  6
Continuous
100
AcDbLine
 10
35.80195399999999
 20
-114.710596
 30
0.0
 11
31.055605
 21
-109.964248
 31
0.0
  0
LINE
  5
27A
330
1D
100
AcDbEntity
  8
BLACK
  6
Continuous
100
AcDbLine
 10
30.0072
 20
-109.5375
 30
0.0
 11
-8.499998
 21
-109.5375
 31
0.0
  0
ARC
  5
27B
330
1D
100
AcDbEntity
  8
BLACK
100
AcDbCircle
 10
-8.499998
 20
8.499998
 30
0.0
 40
1.025002
100
AcDbArc
 50
90.0
 51
180.0
  0
ARC
  5
27C
330
1D
100
AcDbEntity
  8
BLACK
100
AcDbCircle
 10
15.3448
 20
11.0252
 30
0.0
 40
1.500272700284185
100
AcDbArc
 50
270.5613294400001
 51
315.0
  0
ARC
  5
27D
330
1D
100
AcDbEntity
  8
BLACK
100
AcDbCircle
 10
23.8125
 20
12.77504
 30
0.0
 40
3.249960347192254
100
AcDbArc
 50
44.99950136
 51
135.00049864
  0
ARC
  5
27E
330
1D
100
AcDbEntity
  8
BLACK
100
AcDbCircle
 10
38.10005
 20
-112.4125
 30
0.0
 40
3.250001359262793
100
AcDbArc
 50
225.0
 51
314.99997507
  0
ARC
  5
27F
330
1D
100
AcDbEntity
  8
BLACK
100
AcDbCircle
 10
30.0072
 20
-111.0387
 30
0.0
 40
1.5012
100
AcDbArc
 50
45.70297165
 51
90.0
  0
ARC
  5
280
330
1D
100
AcDbEntity
  8
BLACK
100
AcDbCircle
 10
-8.499998
 20
-108.512498
 30
0.0
 40
1.025002
100
AcDbArc
 50
180.0
 51
270.0
  0
ARC
  5
281
330
1D
100
AcDbEntity
  8
BLACK
100
AcDbCircle
 10
32.28
 20
11.0251
 30
0.0
 40
1.5001
100
AcDbArc
 50
225.00307888
 51
270.0
  0
ARC
  5
282
330
1D
100
AcDbEntity
  8
BLACK
100
AcDbCircle
 10
101.0701
 20
11.0251
 30
0.0
 40
1.499989150465096
100
AcDbArc
 50
269.99239869
 51
314.99997299
  0
ARC
  5
283
330
1D
100
AcDbEntity
  8
BLACK
100
AcDbCircle
 10
46.1926
 20
-111.0376
 30
0.0
 40
1.500094509375326
100
AcDbArc
 50
90.0
 51
135.0
  0
ARC
  5
284
330
1D
100
AcDbEntity
  8
BLACK
100
AcDbCircle
 10
196.6947
 20
-111.0387
 30
0.0
 40
1.5012
100
AcDbArc
 50
45.70297165
 51
90.0
  0
ARC
  5
285
330
1D
100
AcDbEntity
  8
BLACK
100
AcDbCircle
 10
204.7875
 20
-112.4125
 30
0.0
 40
3.250036714601544
100
AcDbArc
 50
224.61861901
 51
315.0
  0
ARC
  5
286
330
1D
100
AcDbEntity
  8
BLACK
100
AcDbCircle
 10
212.8801
 20
-111.0376
 30
0.0
 40
1.500094509375326
100
AcDbArc
 50
90.0
 51
135.0
  0
ARC
  5
287
330
1D
100
AcDbEntity
  8
BLACK
100
AcDbCircle
 10
291.945
 20
-111.0376
 30
0.0
 40
1.5001
100
AcDbArc
 50
45.00307887999999
 51
90.0
  0
ARC
  5
288
330
1D
100
AcDbEntity
  8
BLACK
100
AcDbCircle
 10
300.0375
 20
-112.4125
 30
0.0
 40
3.249999945048923
100
AcDbArc
 50
225.0
 51
315.0
  0
ARC
  5
289
330
1D
100
AcDbEntity
  8
BLACK
100
AcDbCircle
 10
308.1301
 20
-111.0374
 30
0.0
 40
1.499988443358148
100
AcDbArc
 50
90.62763471
 51
135.0
  0
ARC
  5
28A
330
1D
100
AcDbEntity
  8
BLACK
100
AcDbCircle
 10
337.1127
 20
-108.5126
 30
0.0
 40
1.0248
100
AcDbArc
 50
269.63653116
 51
0.0
  0
ARC
  5
28B
330
1D
100
AcDbEntity
  8
BLACK
100
AcDbCircle
 10
337.1122
 20
8.4996
 30
0.0
 40
1.0254
100
AcDbArc
 50
359.203845
 51
90.0
  0
ARC
  5
28C
330
1D
100
AcDbEntity
  8
BLACK
100
AcDbCircle
 10
313.2675
 20
11.0251
 30
0.0
 40
1.5001
100
AcDbArc
 50
225.00307888
 51
270.0
  0
ARC
  5
28D
330
1D
100
AcDbEntity
  8
BLACK
100
AcDbCircle
 10
304.7999
 20
12.775
 30
0.0
 40
3.249920749858679
100
AcDbArc
 50
44.99875338
 51
134.99875338
  0
ARC
  5
28E
330
1D
100
AcDbEntity
  8
BLACK
100
AcDbCircle
 10
296.3324
 20
11.0249
 30
0.0
 40
1.499988443358148
100
AcDbArc
 50
270.62412075
 51
315.0
  0
ARC
  5
28F
330
1D
100
AcDbEntity
  8
BLACK
100
AcDbCircle
 10
227.5425
 20
11.0251
 30
0.0
 40
1.5001
100
AcDbArc
 50
225.00307888
 51
270.0
  0
ARC
  5
290
330
1D
100
AcDbEntity
  8
BLACK
100
AcDbCircle
 10
219.0749
 20
12.775
 30
0.0
 40
3.249920749858679
100
AcDbArc
 50
44.99875338
 51
134.99875338
  0
ARC
  5
291
330
1D
100
AcDbEntity
  8
BLACK
100
AcDbCircle
 10
210.6074
 20
11.0249
 30
0.0
 40
1.499988443358148
100
AcDbArc
 50
270.62412075
 51
315.0
  0
ARC
  5
292
330
1D
100
AcDbEntity
  8
BLACK
100
AcDbCircle
 10
118.005
 20
11.0251
 30
0.0
 40
1.5001
100
AcDbArc
 50
225.00307888
 51
270.0
  0
ARC
  5
293
330
1D
100
AcDbEntity
  8
BLACK
100
AcDbCircle
 10
109.5376
 20
12.7748
 30
0.0
 40
3.250193693076153
100
AcDbArc
 50
44.50358049
 51
134.99875348
  0
LINE
  5
294
330
1D
100
AcDbEntity
  8
BLACK
  6
Continuous
100
AcDbLine
 10
321.8125
 20
-107.0125
 30
0.0
 11
335.4125
 21
-107.0125
 31
0.0
  0
ARC
  5
2D4
330
1D
100
AcDbEntity
  8
BLACK
100
AcDbCircle
 10
13.94375
 20
-55.41249999999999
 30
0.0
 40
0.500001
100
AcDbArc
 50
0.00011459
 51
90.0
  0
ARC
  5
2D5
330
1D
100
AcDbEntity
  8
BLACK
100
AcDbCircle
 10
13.94375
 20
-68.4125
 30
0.0
 40
0.500000000001
100
AcDbArc
 50
270.0
 51
0.00011459
  0
ARC
  5
2D6
330
1D
100
AcDbEntity
  8
BLACK
100
AcDbCircle
 10
0.343751
 20
-55.41249999999999
 30
0.0
 40
0.500001
100
AcDbArc
 50
90.00011459
 51
180.0
  0
ARC
  5
2D7
330
1D
100
AcDbEntity
  8
BLACK
100
AcDbCircle
 10
0.343751
 20
-68.412498
 30
0.0
 40
0.500001
100
AcDbArc
 50
180.00011459
 51
270.0
  0
LINE
  5
2D8
330
1D
100
AcDbEntity
  8
BLACK
  6
Continuous
100
AcDbLine
 10
14.44375
 20
-68.412499
 30
0.0
 11
14.44375
 21
-55.412499
 31
0.0
  0
LINE
  5
2D9
330
1D
100
AcDbEntity
  8
BLACK
  6
Continuous
100
AcDbLine
 10
13.94375
 20
-54.912499
 30
0.0
 11
0.34375
 21
-54.912499
 31
0.0
  0
LINE
  5
2DA
330
1D
100
AcDbEntity
  8
BLACK
  6
Continuous
100
AcDbLine
 10
-0.15625
 20
-55.41249999999999
 30
0.0
 11
-0.15625
 21
-68.412499
 31
0.0
  0
LINE
  5
2DB
330
1D
100
AcDbEntity
  8
BLACK
  6
Continuous
100
AcDbLine
 10
0.343751
 20
-68.912499
 30
0.0
 11
13.94375
 21
-68.912499
 31
0.0
  0
LWPOLYLINE
  5
2DC
330
1D
100
AcDbEntity
  8
0
100
AcDbPolyline
 90
8
 70
1
 10
16.5125
 20
6.499999999999999
 10
16.5125
 20
-6.499999999999999
 42
0.4142123908030501
 10
17.0125
 20
-7.000000000000001
 10
30.6125
 20
-7.000000000000001
 42
0.4142135623730951
 10
31.1125
 20
-6.499999999999999
 10
31.1125
 20
6.499999999999999
 42
0.4142135623730951
 10
30.6125
 20
7.000000000000001
 10
17.0125
 20
7.000000000000001
 42
0.4142123908030501
  0
LWPOLYLINE
  5
2DD
330
1D
100
AcDbEntity
  8
0
100
AcDbPolyline
 90
8
 70
1
 10
235.5874999999999
 20
6.499999999999999
 10
235.5874999999999
 20
-6.499999999999999
 42
0.4142123908030215
 10
236.0875
 20
-7.000000000000001
 10
249.6875
 20
-7.000000000000001
 42
0.4142135623730743
 10
250.1875000000001
 20
-6.499999999999999
 10
250.1875000000001
 20
6.499999999999999
 42
0.4142135623730951
 10
249.6875
 20
7.000000000000001
 10
236.0874999999999
 20
7.000000000000001
 42
0.4142123908030007
  0
LWPOLYLINE
  5
2DE
330
1D
100
AcDbEntity
  8
0
100
AcDbPolyline
 90
8
 70
1
 10
73.6625
 20
6.499999999999999
 10
73.6625
 20
-6.499999999999999
 42
0.4142123908030476
 10
74.1625
 20
-7.000000000000001
 10
87.76250000000002
 20
-7.000000000000001
 42
0.4142135623730847
 10
88.2625
 20
-6.499999999999999
 10
88.2625
 20
6.499999999999999
 42
0.4142135623730951
 10
87.76249999999999
 20
7.000000000000001
 10
74.1625
 20
7.000000000000001
 42
0.4142123908030423
  0
LWPOLYLINE
  5
2DF
330
1D
100
AcDbEntity
  8
0
100
AcDbPolyline
 90
8
 70
1
 10
216.5375
 20
6.499999999999999
 10
216.5375
 20
-6.499999999999999
 42
0.4142123908030423
 10
217.0375
 20
-7.000000000000001
 10
230.6375
 20
-7.000000000000001
 42
0.4142135623730951
 10
231.1375
 20
-6.499999999999999
 10
231.1375
 20
6.499999999999999
 42
0.4142135623730951
 10
230.6375
 20
7.000000000000001
 10
217.0375
 20
7.000000000000001
 42
0.4142123908030423
  0
LWPOLYLINE
  5
2E0
330
1D
100
AcDbEntity
  8
0
100
AcDbPolyline
 90
8
 70
1
 10
178.4375
 20
6.499999999999999
 10
178.4375
 20
-6.499999999999999
 42
0.4142123908030632
 10
178.9375
 20
-7.000000000000001
 10
192.5375
 20
-7.000000000000001
 42
0.4142135623730951
 10
193.0375
 20
-6.499999999999999
 10
193.0375
 20
6.499999999999999
 42
0.4142135623730951
 10
192.5375
 20
7.000000000000001
 10
178.9375
 20
7.000000000000001
 42
0.4142123908030632
  0
LWPOLYLINE
  5
2E1
330
1D
100
AcDbEntity
  8
0
100
AcDbPolyline
 90
8
 70
1
 10
35.5625
 20
6.499999999999999
 10
35.5625
 20
-6.499999999999999
 42
0.4142123908030476
 10
36.0625
 20
-7.000000000000001
 10
49.66249999999999
 20
-7.000000000000001
 42
0.4142135623730951
 10
50.16249999999999
 20
-6.499999999999999
 10
50.16249999999999
 20
6.499999999999999
 42
0.4142135623730951
 10
49.66249999999999
 20
7.000000000000001
 10
36.0625
 20
7.000000000000001
 42
0.4142123908030476
  0
LWPOLYLINE
  5
2E2
330
1D
100
AcDbEntity
  8
0
100
AcDbPolyline
 90
8
 70
1
 10
197.4875
 20
6.499999999999999
 10
197.4875
 20
-6.499999999999999
 42
0.4142123908030215
 10
197.9875
 20
-7.000000000000001
 10
211.5875
 20
-7.000000000000001
 42
0.4142135623730951
 10
212.0875000000001
 20
-6.499999999999999
 10
212.0875000000001
 20
6.499999999999999
 42
0.4142135623730951
 10
211.5875
 20
7.000000000000001
 10
197.9875
 20
7.000000000000001
 42
0.4142123908030215
  0
LWPOLYLINE
  5
2E3
330
1D
100
AcDbEntity
  8
0
100
AcDbPolyline
 90
8
 70
1
 10
97.47500000000001
 20
6.499999999999999
 10
97.47500000000001
 20
-6.499999999999999
 42
0.4142123908030632
 10
97.97500000000001
 20
-7.000000000000001
 10
111.575
 20
-7.000000000000001
 42
0.4142135623730951
 10
112.075
 20
-6.499999999999999
 10
112.075
 20
6.499999999999999
 42
0.4142135623730951
 10
111.575
 20
7.000000000000001
 10
97.97500000000001
 20
7.000000000000001
 42
0.4142123908030632
  0
LWPOLYLINE
  5
2E4
330
1D
100
AcDbEntity
  8
0
100
AcDbPolyline
 90
8
 70
1
 10
54.6125
 20
6.499999999999999
 10
54.6125
 20
-6.499999999999999
 42
0.4142123908030476
 10
55.1125
 20
-7.000000000000001
 10
68.7125
 20
-7.000000000000001
 42
0.4142135623730951
 10
69.21249999999999
 20
-6.499999999999999
 10
69.21249999999999
 20
6.499999999999999
 42
0.4142135623730951
 10
68.7125
 20
7.000000000000001
 10
55.1125
 20
7.000000000000001
 42
0.4142123908030527
  0
LWPOLYLINE
  5
2E5
330
1D
100
AcDbEntity
  8
0
100
AcDbPolyline
 90
8
 70
1
 10
74.1625
 20
-7.000000000000001
 10
87.76250000000002
 20
-7.000000000000001
 42
0.4142135623730847
 10
88.2625
 20
-6.499999999999999
 10
88.2625
 20
6.499999999999999
 42
0.4142135623730951
 10
87.76249999999999
 20
7.000000000000001
 10
74.1625
 20
7.000000000000001
 42
0.4142123908030423
 10
73.6625
 20
6.499999999999999
 10
73.6625
 20
-6.499999999999999
 42
0.4142123908030476
  0
LWPOLYLINE
  5
2E6
330
1D
100
AcDbEntity
  8
0
100
AcDbPolyline
 90
8
 70
1
 10
231.1375
 20
-6.499999999999999
 10
231.1375
 20
6.499999999999999
 42
0.4142135623730951
 10
230.6375
 20
7.000000000000001
 10
217.0375
 20
7.000000000000001
 42
0.4142123908030423
 10
216.5375
 20
6.499999999999999
 10
216.5375
 20
-6.499999999999999
 42
0.4142123908030423
 10
217.0375
 20
-7.000000000000001
 10
230.6375
 20
-7.000000000000001
 42
0.4142135623730951
  0
LWPOLYLINE
  5
2E7
330
1D
100
AcDbEntity
  8
0
100
AcDbPolyline
 90
8
 70
1
 10
211.5875
 20
7.000000000000001
 10
197.9875
 20
7.000000000000001
 42
0.4142123908030215
 10
197.4875
 20
6.499999999999999
 10
197.4875
 20
-6.499999999999999
 42
0.4142123908030215
 10
197.9875
 20
-7.000000000000001
 10
211.5875
 20
-7.000000000000001
 42
0.4142135623730951
 10
212.0875000000001
 20
-6.499999999999999
 10
212.0875000000001
 20
6.499999999999999
 42
0.4142135623730951
  0
LWPOLYLINE
  5
2E8
330
1D
100
AcDbEntity
  8
0
100
AcDbPolyline
 90
8
 70
1
 10
69.21249999999999
 20
6.499999999999999
 42
0.4142135623730951
 10
68.7125
 20
7.000000000000001
 10
55.1125
 20
7.000000000000001
 42
0.4142123908030527
 10
54.6125
 20
6.499999999999999
 10
54.6125
 20
-6.499999999999999
 42
0.4142123908030476
 10
55.1125
 20
-7.000000000000001
 10
68.7125
 20
-7.000000000000001
 42
0.4142135623730951
 10
69.21249999999999
 20
-6.499999999999999
  0
LWPOLYLINE
  5
2E9
330
1D
100
AcDbEntity
  8
0
100
AcDbPolyline
 90
8
 70
1
 10
193.0375
 20
-6.499999999999999
 10
193.0375
 20
6.499999999999999
 42
0.4142135623730951
 10
192.5375
 20
7.000000000000001
 10
178.9375
 20
7.000000000000001
 42
0.4142123908030632
 10
178.4375
 20
6.499999999999999
 10
178.4375
 20
-6.499999999999999
 42
0.4142123908030632
 10
178.9375
 20
-7.000000000000001
 10
192.5375
 20
-7.000000000000001
 42
0.4142135623730951
  0
LWPOLYLINE
  5
2EA
330
1D
100
AcDbEntity
  8
0
100
AcDbPolyline
 90
8
 70
1
 10
97.97500000000001
 20
7.000000000000001
 42
0.4142123908030632
 10
97.47500000000001
 20
6.499999999999999
 10
97.47500000000001
 20
-6.499999999999999
 42
0.4142123908030632
 10
97.97500000000001
 20
-7.000000000000001
 10
111.575
 20
-7.000000000000001
 42
0.4142135623730951
 10
112.075
 20
-6.499999999999999
 10
112.075
 20
6.499999999999999
 42
0.4142135623730951
 10
111.575
 20
7.000000000000001
  0
LWPOLYLINE
  5
2EB
330
1D
100
AcDbEntity
  8
0
100
AcDbPolyline
 90
8
 70
1
 10
250.1875000000001
 20
-6.499999999999999
 10
250.1875000000001
 20
6.499999999999999
 42
0.4142135623730951
 10
249.6875
 20
7.000000000000001
 10
236.0874999999999
 20
7.000000000000001
 42
0.4142123908030007
 10
235.5874999999999
 20
6.499999999999999
 10
235.5874999999999
 20
-6.499999999999999
 42
0.4142123908030215
 10
236.0875
 20
-7.000000000000001
 10
249.6875
 20
-7.000000000000001
 42
0.4142135623730743
  0
LWPOLYLINE
  5
2EC
330
1D
100
AcDbEntity
  8
0
100
AcDbPolyline
 90
8
 70
1
 10
35.5625
 20
-6.499999999999999
 42
0.4142123908030476
 10
36.0625
 20
-7.000000000000001
 10
49.66249999999999
 20
-7.000000000000001
 42
0.4142135623730951
 10
50.16249999999999
 20
-6.499999999999999
 10
50.16249999999999
 20
6.499999999999999
 42
0.4142135623730951
 10
49.66249999999999
 20
7.000000000000001
 10
36.0625
 20
7.000000000000001
 42
0.4142123908030476
 10
35.5625
 20
6.499999999999999
  0
LWPOLYLINE
  5
2ED
330
1D
100
AcDbEntity
  8
0
100
AcDbPolyline
 90
8
 70
1
 10
16.5125
 20
6.499999999999999
 10
16.5125
 20
-6.499999999999999
 42
0.4142123908030501
 10
17.0125
 20
-7.000000000000001
 10
30.6125
 20
-7.000000000000001
 42
0.4142135623730951
 10
31.1125
 20
-6.499999999999999
 10
31.1125
 20
6.499999999999999
 42
0.4142135623730951
 10
30.6125
 20
7.000000000000001
 10
17.0125
 20
7.000000000000001
 42
0.4142123908030501
  0
CIRCLE
  5
2EE
330
1D
100
AcDbEntity
  8
0
100
AcDbCircle
 10
273.6
 20
-31.0125
 30
0.0
 40
1.0
  0
LWPOLYLINE
  5
2EF
330
1D
100
AcDbEntity
  8
0
100
AcDbPolyline
 90
8
 70
1
 10
241.2
 20
-17.3375
 10
241.2
 20
-29.0555
 10
244.2
 20
-30.7875
 10
270.2
 20
-30.7875
 10
273.2
 20
-29.0555
 10
273.2
 20
-17.3375
 42
0.4142135623730951
 10
272.7
 20
-16.8375
 10
241.7
 20
-16.8375
 42
0.4142123908030632
  0
CIRCLE
  5
2F0
330
1D
100
AcDbEntity
  8
0
100
AcDbCircle
 10
-4.49375
 20
-88.1625
 30
0.0
 40
1.0
  0
LWPOLYLINE
  5
2F1
330
1D
100
AcDbEntity
  8
0
100
AcDbPolyline
 90
8
 70
1
 10
-4.09375
 20
-74.48750000000001
 10
-4.09375
 20
-86.20550000000001
 10
-1.09375
 20
-87.93750000000001
 10
24.90625
 20
-87.93750000000001
 10
27.90625
 20
-86.20550000000001
 10
27.90625
 20
-74.48750000000001
 42
0.4142135623730951
 10
27.40625
 20
-73.98750000000001
 10
-3.59375
 20
-73.98750000000001
 42
0.4142123908030466
  0
LWPOLYLINE
  5
2F2
330
1D
100
AcDbEntity
  8
0
100
AcDbPolyline
 90
8
 70
1
 10
259.4
 20
-74.4625
 10
259.4
 20
-87.4625
 42
0.4142123908030449
 10
259.9
 20
-87.96249999999999
 10
273.5
 20
-87.96249999999999
 42
0.4142135623730951
 10
274.0
 20
-87.4625
 10
274.0
 20
-74.4625
 42
0.4142135623730951
 10
273.5
 20
-73.9625
 10
259.9
 20
-73.9625
 42
0.4142123908030397
  0
LWPOLYLINE
  5
2F3
330
1D
100
AcDbEntity
  8
0
100
AcDbPolyline
 90
8
 70
1
 10
233.208788
 20
-74.462548
 10
233.208788
 20
-87.462548
 42
0.4142123908030345
 10
233.708788
 20
-87.962548
 10
247.308788
 20
-87.962548
 42
0.4142135623730951
 10
247.808788
 20
-87.462548
 10
247.808788
 20
-74.462548
 42
0.4142135623730951
 10
247.308788
 20
-73.962548
 10
233.708788
 20
-73.962548
 42
0.4142123908030397
  0
CIRCLE
  5
2F4
330
1D
100
AcDbEntity
  8
0
100
AcDbCircle
 10
238.39375
 20
-69.11250000000001
 30
0.0
 40
1.0
  0
LWPOLYLINE
  5
2F5
330
1D
100
AcDbEntity
  8
0
100
AcDbPolyline
 90
8
 70
1
 10
238.79375
 20
-55.4375
 10
238.79375
 20
-67.1555
 10
241.79375
 20
-68.8875
 10
267.79375
 20
-68.8875
 10
270.79375
 20
-67.1555
 10
270.79375
 20
-55.4375
 42
0.4142135623730951
 10
270.29375
 20
-54.9375
 10
239.29375
 20
-54.9375
 42
0.4142123908030397
  0
LWPOLYLINE
  5
2F6
330
1D
100
AcDbEntity
  8
0
100
AcDbPolyline
 90
8
 70
1
 10
254.6375
 20
-36.3625
 10
254.6375
 20
-49.3625
 42
0.4142123908030605
 10
255.1375
 20
-49.8625
 10
268.7375
 20
-49.8625
 42
0.4142135623730951
 10
269.2375
 20
-49.3625
 10
269.2375
 20
-36.3625
 42
0.4142135623730951
 10
268.7375
 20
-35.8625
 10
255.1375
 20
-35.8625
 42
0.4142123908030632
  0
CIRCLE
  5
2F7
330
1D
100
AcDbEntity
  8
0
100
AcDbCircle
 10
271.19375
 20
-69.11250000000001
 30
0.0
 40
1.0
  0
CIRCLE
  5
2F8
330
1D
100
AcDbEntity
  8
0
100
AcDbCircle
 10
61.9125
 20
-100.0125
 30
0.0
 40
1.0
  0
CIRCLE
  5
2F9
330
1D
100
AcDbEntity
  8
0
100
AcDbCircle
 10
251.221875
 20
-100.0125
 30
0.0
 40
1.0
  0
CIRCLE
  5
2FA
330
1D
100
AcDbEntity
  8
0
100
AcDbCircle
 10
228.6
 20
-100.0125
 30
0.0
 40
1.0
  0
CIRCLE
  5
2FB
330
1D
100
AcDbEntity
  8
0
100
AcDbCircle
 10
142.875
 20
-100.0125
 30
0.0
 40
1.0
  0
CIRCLE
  5
2FC
330
1D
100
AcDbEntity
  8
0
100
AcDbCircle
 10
204.7875
 20
-100.0125
 30
0.0
 40
1.0
  0
CIRCLE
  5
2FD
330
1D
100
AcDbEntity
  8
0
100
AcDbCircle
 10
39.290625
 20
-100.0125
 30
0.0
 40
1.0
  0
CIRCLE
  5
2FE
330
1D
100
AcDbEntity
  8
0
100
AcDbCircle
 10
15.478125
 20
-100.0125
 30
0.0
 40
1.0
  0
CIRCLE
  5
2FF
330
1D
100
AcDbEntity
  8
0
100
AcDbCircle
 10
171.45
 20
-100.0125
 30
0.0
 40
1.0
  0
CIRCLE
  5
300
330
1D
100
AcDbEntity
  8
0
100
AcDbCircle
 10
104.775
 20
-100.0125
 30
0.0
 40
1.0
  0
LWPOLYLINE
  5
301
330
1D
100
AcDbEntity
  8
0
100
AcDbPolyline
 90
8
 70
1
 10
196.8
 20
-106.9625
 42
0.4142135623731054
 10
197.3
 20
-106.4625
 10
197.3
 20
-93.56249999999997
 42
0.4142135623730951
 10
196.8
 20
-93.0625
 10
184.2
 20
-93.0625
 42
0.4142135623731054
 10
183.7
 20
-93.5625
 10
183.7
 20
-106.4625
 42
0.4142135623730951
 10
184.2
 20
-106.9625
  0
LWPOLYLINE
  5
302
330
1D
100
AcDbEntity
  8
0
100
AcDbPolyline
 90
8
 70
1
 10
59.6875
 20
-106.5125
 10
59.6875
 20
-93.51249999999999
 42
0.4142135623730951
 10
59.18749999999999
 20
-93.01249999999999
 10
45.5875
 20
-93.01249999999999
 42
0.4142123908030293
 10
45.0875
 20
-93.51249999999999
 10
45.0875
 20
-106.5125
 42
0.4142123908030501
 10
45.5875
 20
-107.0125
 10
59.18749999999999
 20
-107.0125
 42
0.4142135623730951
  0
LWPOLYLINE
  5
303
330
1D
100
AcDbEntity
  8
0
100
AcDbPolyline
 90
8
 70
1
 10
140.65
 20
-93.51249999999999
 42
0.4142135623730951
 10
140.15
 20
-93.01249999999999
 10
126.55
 20
-93.01249999999999
 42
0.4142123908030345
 10
126.05
 20
-93.51249999999999
 10
126.05
 20
-106.5125
 42
0.4142123908030554
 10
126.55
 20
-107.0125
 10
140.15
 20
-107.0125
 42
0.4142135623730951
 10
140.65
 20
-106.5125
  0
LWPOLYLINE
  5
304
330
1D
100
AcDbEntity
  8
0
100
AcDbPolyline
 90
8
 70
1
 10
207.0124999999999
 20
-93.51249999999999
 10
207.0124999999999
 20
-106.5125
 42
0.4142123908030241
 10
207.5125
 20
-107.0125
 10
221.1125
 20
-107.0125
 42
0.4142135623730951
 10
221.6125000000001
 20
-106.5125
 10
221.6125000000001
 20
-93.51249999999999
 42
0.4142135623730951
 10
221.1125
 20
-93.01249999999999
 10
207.5125
 20
-93.01249999999999
 42
0.4142123908030033
  0
LWPOLYLINE
  5
305
330
1D
100
AcDbEntity
  8
0
100
AcDbPolyline
 90
8
 70
1
 10
254.6374999999999
 20
-93.51249999999999
 10
254.6374999999999
 20
-106.5125
 42
0.4142123908030241
 10
255.1375
 20
-107.0125
 10
268.7375
 20
-107.0125
 42
0.4142135623730951
 10
269.2375000000001
 20
-106.5125
 10
269.2375000000001
 20
-93.51249999999999
 42
0.4142135623730951
 10
268.7375
 20
-93.01249999999999
 10
255.1375
 20
-93.01249999999999
 42
0.4142123908030033
  0
LWPOLYLINE
  5
306
330
1D
100
AcDbEntity
  8
0
100
AcDbPolyline
 90
8
 70
1
 10
-2.5375
 20
-106.5125
 42
0.4142123908030506
 10
-2.037500000000001
 20
-107.0125
 10
11.5625
 20
-107.0125
 42
0.4142135623730951
 10
12.0625
 20
-106.5125
 10
12.0625
 20
-93.51249999999999
 42
0.4142135623730951
 10
11.5625
 20
-93.01249999999999
 10
-2.037500000000001
 20
-93.01249999999999
 42
0.4142123908030298
 10
-2.5375
 20
-93.51249999999999
  0
LWPOLYLINE
  5
307
330
1D
100
AcDbEntity
  8
0
100
AcDbPolyline
 90
8
 70
1
 10
69.39339999999999
 20
-106.4625
 10
69.3934
 20
-93.5625
 42
-0.4142123908030449
 10
69.89340000000001
 20
-93.0625
 10
82.49340000000001
 20
-93.0625
 42
-0.4142123908030345
 10
82.99340000000001
 20
-93.56249999999997
 10
82.99340000000001
 20
-106.4625
 42
-0.4142123908030554
 10
82.49340000000001
 20
-106.9625
 10
69.8934
 20
-106.9625
 42
-0.4142123908030397
  0
ENDSEC
  0
SECTION
  2
OBJECTS
  0
DICTIONARY
  5
C
330
0
100
AcDbDictionary
281
1
  3
ACAD_COLOR
350
2CE
  3
ACAD_DETAILVIEWSTYLE
350
2CC
  3
ACAD_GROUP
350
D
  3
ACAD_LAYOUT
350
1A
  3
ACAD_MATERIAL
350
29
  3
ACAD_MLEADERSTYLE
350
2C2
  3
ACAD_MLINESTYLE
350
17
  3
ACAD_PLOTSETTINGS
350
19
  3
ACAD_PLOTSTYLENAME
350
E
  3
ACAD_SCALELIST
350
295
  3
ACAD_SECTIONVIEWSTYLE
350
2CD
  3
ACAD_TABLESTYLE
350
2C0
  3
ACAD_VISUALSTYLE
350
2A7
  3
AcDbVariableDictionary
350
2C4
  3
ACDB_RECOMPOSE_DATA
350
2D3
  3
EZDXF_META
350
2CF
  0
DICTIONARY
  5
2CE
330
C
100
AcDbDictionary
281
1
  0
DICTIONARY
  5
2CC
102
{ACAD_REACTORS
330
C
102
}
330
C
100
AcDbDictionary
281
1
  0
DICTIONARY
  5
D
102
{ACAD_REACTORS
330
C
102
}
330
C
100
AcDbDictionary
281
1
  0
DICTIONARY
  5
1A
102
{ACAD_REACTORS
330
C
102
}
330
C
100
AcDbDictionary
281
1
  3
Layout1
350
1C
  3
Model
350
1E
  0
DICTIONARY
  5
29
102
{ACAD_REACTORS
330
C
102
}
330
C
100
AcDbDictionary
281
1
  3
ByBlock
350
2B
  3
ByLayer
350
2A
  3
Global
350
2C
  0
DICTIONARY
  5
2C2
102
{ACAD_REACTORS
330
C
102
}
330
C
100
AcDbDictionary
281
1
  3
Standard
350
2C3
  0
DICTIONARY
  5
17
102
{ACAD_REACTORS
330
C
102
}
330
C
100
AcDbDictionary
281
1
  3
Standard
350
18
  0
DICTIONARY
  5
19
102
{ACAD_REACTORS
330
C
102
}
330
C
100
AcDbDictionary
281
1
  0
ACDBDICTIONARYWDFLT
  5
E
102
{ACAD_REACTORS
330
C
102
}
330
C
100
AcDbDictionary
281
1
  3
Normal
350
F
100
AcDbDictionaryWithDefault
340
F
  0
DICTIONARY
  5
295
102
{ACAD_REACTORS
330
C
102
}
330
C
100
AcDbDictionary
281
1
  3
A0
350
296
  3
A1
350
297
  3
A2
350
298
  3
A3
350
299
  3
A4
350
29A
  3
A5
350
29B
  3
A6
350
29C
  3
A7
350
29D
  3
A8
350
29E
  3
A9
350
29F
  3
B1
350
2A0
  3
B2
350
2A1
  3
B3
350
2A2
  3
B4
350
2A3
  3
B5
350
2A4
  3
B6
350
2A5
  3
B7
350
2A6
  0
DICTIONARY
  5
2CD
102
{ACAD_REACTORS
330
C
102
}
330
C
100
AcDbDictionary
281
1
  0
DICTIONARY
  5
2C0
102
{ACAD_REACTORS
330
C
102
}
330
C
100
AcDbDictionary
281
1
  3
Standard
350
2C1
  0
DICTIONARY
  5
2A7
102
{ACAD_REACTORS
330
C
102
}
330
C
100
AcDbDictionary
281
1
  3
2dWireframe
350
2AC
  3
Basic
350
2AF
  3
Brighten
350
2B3
  3
ColorChange
350
2B7
  3
Conceptual
350
2B1
  3
Dim
350
2B2
  3
EdgeColorOff
350
2BA
  3
Facepattern
350
2B6
  3
Flat
350
2A8
  3
FlatWithEdges
350
2A9
  3
Gouraud
350
2AA
  3
GouraudWithEdges
350
2AB
  3
Hidden
350
2AE
  3
JitterOff
350
2B8
  3
Linepattern
350
2B5
  3
OverhangOff
350
2B9
  3
Realistic
350
2B0
  3
Shaded
350
2BF
  3
Shaded with edges
350
2BE
  3
Shades of Gray
350
2BB
  3
Sketchy
350
2BC
  3
Thicken
350
2B4
  3
Wireframe
350
2AD
  3
X-Ray
350
2BD
  0
DICTIONARY
  5
2C4
102
{ACAD_REACTORS
330
C
102
}
330
C
100
AcDbDictionary
281
1
  3
CANNOSCALE
350
2C5
  3
CMLEADERSTYLE
350
2CA
  3
CTABLESTYLE
350
2C9
  3
MSLTSCALE
350
2CB
  0
XRECORD
  5
2D3
102
{ACAD_REACTORS
330
C
102
}
330
C
100
AcDbXrecord
280
1
 90
1
330
2C1
  0
DICTIONARY
  5
2CF
330
C
100
AcDbDictionary
280
1
281
1
  3
WRITTEN_BY_EZDXF
360
2D0
  0
LAYOUT
  5
1C
102
{ACAD_REACTORS
330
1A
102
}
330
1A
100
AcDbPlotSettings
  1

  2
none_device
  4

  6

 40
0.0
 41
0.0
 42
0.0
 43
0.0
 44
0.0
 45
0.0
 46
0.0
 47
0.0
 48
0.0
 49
0.0
140
0.0
141
0.0
142
1.0
143
1.0
 70
688
 72
0
 73
0
 74
5
  7

 75
16
 76
0
 77
2
 78
300
147
1.0
148
0.0
149
0.0
100
AcDbLayout
  1
Layout1
 70
1
 71
1
 10
0.0
 20
0.0
 11
420.0
 21
297.0
 12
0.0
 22
0.0
 32
0.0
 14
1e+20
 24
1e+20
 34
1e+20
 15
-1e+20
 25
-1e+20
 35
-1e+20
146
0.0
 13
0.0
 23
0.0
 33
0.0
 16
1.0
 26
0.0
 36
0.0
 17
0.0
 27
1.0
 37
0.0
 76
0
330
1B
  0
LAYOUT
  5
1E
102
{ACAD_REACTORS
330
1A
102
}
330
1A
100
AcDbPlotSettings
  1

  2
none_device
  4
Letter_(8.50_x_11.00_Inches)
  6

 40
6.35
 41
6.35
 42
6.35000508
 43
6.35000508
 44
215.9
 45
279.4
 46
0.0
 47
0.0
 48
0.0
 49
0.0
140
0.0
141
0.0
142
1.0
143
1.0
 70
1712
 72
0
 73
0
 74
0
  7

 75
0
 76
0
 77
2
 78
300
147
1.0
148
0.0
149
0.0
100
AcDbLayout
  1
Model
 70
1
 71
0
 10
0.0
 20
0.0
 11
12.0
 21
9.0
 12
0.0
 22
0.0
 32
0.0
 14
1e+20
 24
1e+20
 34
1e+20
 15
-1e+20
 25
-1e+20
 35
-1e+20
146
0.0
 13
0.0
 23
0.0
 33
0.0
 16
1.0
 26
0.0
 36
0.0
 17
0.0
 27
1.0
 37
0.0
 76
0
330
1D
331
20
  0
MATERIAL
  5
2B
102
{ACAD_REACTORS
330
29
102
}
330
29
100
AcDbMaterial
  1
ByBlock
  2

 70
0
 40
1.0
 71
0
 41
1.0
 91
-1023410177
 42
1.0
 72
1
  3

 73
1
 74
1
 75
1
 44
0.5
 73
0
 45
1.0
 46
1.0
 77
1
  4

 78
1
 79
1
170
1
 48
1.0
171
1
  6

172
1
173
1
174
1
140
1.0
141
1.0
175
1
  7

176
1
177
1
178
1
143
1.0
179
1
  8

270
1
271
1
272
1
145
1.0
146
1.0
273
1
  9

274
1
275
1
276
1
 42
1.0
 72
1
  3

 73
1
 74
1
 75
1
 94
127
  0
MATERIAL
  5
2A
102
{ACAD_REACTORS
330
29
102
}
330
29
100
AcDbMaterial
  1
ByLayer
  2

 70
0
 40
1.0
 71
0
 41
1.0
 91
-1023410177
 42
1.0
 72
1
  3

 73
1
 74
1
 75
1
 44
0.5
 73
0
 45
1.0
 46
1.0
 77
1
  4

 78
1
 79
1
170
1
 48
1.0
171
1
  6

172
1
173
1
174
1
140
1.0
141
1.0
175
1
  7

176
1
177
1
178
1
143
1.0
179
1
  8

270
1
271
1
272
1
145
1.0
146
1.0
273
1
  9

274
1
275
1
276
1
 42
1.0
 72
1
  3

 73
1
 74
1
 75
1
 94
127
  0
MATERIAL
  5
2C
102
{ACAD_REACTORS
330
29
102
}
330
29
100
AcDbMaterial
  1
Global
  2

 70
0
 40
1.0
 71
0
 41
1.0
 91
-1023410177
 42
1.0
 72
1
  3

 73
1
 74
1
 75
1
 44
0.5
 73
0
 45
1.0
 46
1.0
 77
1
  4

 78
1
 79
1
170
1
 48
1.0
171
1
  6

172
1
173
1
174
1
140
1.0
141
1.0
175
1
  7

176
1
177
1
178
1
143
1.0
179
1
  8

270
1
271
1
272
1
145
1.0
146
1.0
273
1
  9

274
1
275
1
276
1
 42
1.0
 72
1
  3

 73
1
 74
1
 75
1
 94
127
  0
MLEADERSTYLE
  5
2C3
102
{ACAD_REACTORS
330
2C2
102
}
330
2C2
100
AcDbMLeaderStyle
179
2
170
2
171
1
172
0
 90
2
 40
0.0
 41
0.0
173
1
 91
-1056964608
340
14
 92
-2
290
1
 42
0.09
291
1
 43
0.36
  3
Standard
341
0
 44
0.18
300

342
11
174
1
175
1
176
0
178
6
 93
-1056964608
 45
0.18
292
0
297
0
 46
0.18
293
1
343
0
 94
-1056964608
 47
1.0
 49
1.0
140
1.0
294
1
141
0.0
177
0
142
1.0
295
0
296
0
143
0.125
271
0
272
9
273
9
298
0
  0
MLINESTYLE
  5
18
102
{ACAD_REACTORS
330
17
102
}
330
17
100
AcDbMlineStyle
  2
Standard
 70
0
  3

 62
256
 51
90.0
 52
90.0
 71
2
 49
0.5
 62
256
  6
BYLAYER
 49
-0.5
 62
256
  6
BYLAYER
  0
ACDBPLACEHOLDER
  5
F
102
{ACAD_REACTORS
330
E
102
}
330
E
  0
SCALE
  5
296
102
{ACAD_REACTORS
330
295
102
}
330
295
100
AcDbScale
 70
0
300
1:1
140
1.0
141
1.0
290
1
  0
SCALE
  5
297
102
{ACAD_REACTORS
330
295
102
}
330
295
100
AcDbScale
 70
0
300
1/128" = 1'-0"
140
0.0078125
141
12.0
290
0
  0
SCALE
  5
298
102
{ACAD_REACTORS
330
295
102
}
330
295
100
AcDbScale
 70
0
300
1/64" = 1'-0"
140
0.015625
141
12.0
290
0
  0
SCALE
  5
299
102
{ACAD_REACTORS
330
295
102
}
330
295
100
AcDbScale
 70
0
300
1/32" = 1'-0"
140
0.03125
141
12.0
290
0
  0
SCALE
  5
29A
102
{ACAD_REACTORS
330
295
102
}
330
295
100
AcDbScale
 70
0
300
1/16" = 1'-0"
140
0.0625
141
12.0
290
0
  0
SCALE
  5
29B
102
{ACAD_REACTORS
330
295
102
}
330
295
100
AcDbScale
 70
0
300
3/32" = 1'-0"
140
0.09375
141
12.0
290
0
  0
SCALE
  5
29C
102
{ACAD_REACTORS
330
295
102
}
330
295
100
AcDbScale
 70
0
300
1/8" = 1'-0"
140
0.125
141
12.0
290
0
  0
SCALE
  5
29D
102
{ACAD_REACTORS
330
295
102
}
330
295
100
AcDbScale
 70
0
300
3/16" = 1'-0"
140
0.1875
141
12.0
290
0
  0
SCALE
  5
29E
102
{ACAD_REACTORS
330
295
102
}
330
295
100
AcDbScale
 70
0
300
1/4" = 1'-0"
140
0.25
141
12.0
290
0
  0
SCALE
  5
29F
102
{ACAD_REACTORS
330
295
102
}
330
295
100
AcDbScale
 70
0
300
3/8" = 1'-0"
140
0.375
141
12.0
290
0
  0
SCALE
  5
2A0
102
{ACAD_REACTORS
330
295
102
}
330
295
100
AcDbScale
 70
0
300
1/2" = 1'-0"
140
0.5
141
12.0
290
0
  0
SCALE
  5
2A1
102
{ACAD_REACTORS
330
295
102
}
330
295
100
AcDbScale
 70
0
300
3/4" = 1'-0"
140
0.75
141
12.0
290
0
  0
SCALE
  5
2A2
102
{ACAD_REACTORS
330
295
102
}
330
295
100
AcDbScale
 70
0
300
1" = 1'-0"
140
1.0
141
12.0
290
0
  0
SCALE
  5
2A3
102
{ACAD_REACTORS
330
295
102
}
330
295
100
AcDbScale
 70
0
300
1-1/2" = 1'-0"
140
1.5
141
12.0
290
0
  0
SCALE
  5
2A4
102
{ACAD_REACTORS
330
295
102
}
330
295
100
AcDbScale
 70
0
300
3" = 1'-0"
140
3.0
141
12.0
290
0
  0
SCALE
  5
2A5
102
{ACAD_REACTORS
330
295
102
}
330
295
100
AcDbScale
 70
0
300
6" = 1'-0"
140
6.0
141
12.0
290
0
  0
SCALE
  5
2A6
102
{ACAD_REACTORS
330
295
102
}
330
295
100
AcDbScale
 70
0
300
1'-0" = 1'-0"
140
12.0
141
12.0
290
0
  0
TABLESTYLE
  5
2C1
102
{ACAD_XDICTIONARY
360
2D1
102
}
102
{ACAD_REACTORS
330
2C0
102
}
330
2C0
100
AcDbTableStyle
  3
Standard
 70
0
 71
0
 40
0.06
 41
0.06
280
0
281
0
  7
Standard
140
0.18
170
2
 62
0
 63
257
283
0
 90
4
 91
0
  1

274
-2
284
1
 64
0
275
-2
285
1
 65
0
276
-2
286
1
 66
0
277
-2
287
1
 67
0
278
-2
288
1
 68
0
279
-2
289
1
 69
0
  7
Standard
140
0.25
170
5
 62
0
 63
257
283
0
 90
4
 91
0
  1

274
-2
284
1
 64
0
275
-2
285
1
 65
0
276
-2
286
1
 66
0
277
-2
287
1
 67
0
278
-2
288
1
 68
0
279
-2
289
1
 69
0
  7
Standard
140
0.18
170
5
 62
0
 63
257
283
0
 90
4
 91
0
  1

274
-2
284
1
 64
0
275
-2
285
1
 65
0
276
-2
286
1
 66
0
277
-2
287
1
 67
0
278
-2
288
1
 68
0
279
-2
289
1
 69
0
  0
VISUALSTYLE
  5
2AC
102
{ACAD_REACTORS
330
2A7
102
}
330
2A7
100
AcDbVisualStyle
  2
2dWireframe
 70
4
177
3
291
0
 70
58
 90
0
176
1
 90
2
176
1
 90
0
176
1
 90
0
176
1
 40
0.6
176
1
 40
30.0
176
1
 62
7
420
16777215
176
1
 90
1
176
1
 90
4
176
1
 62
7
176
1
 62
257
176
1
 90
1
176
1
 90
1
176
1
 40
1.0
176
1
 90
0
176
1
 62
257
176
1
 40
1.0
176
1
 90
1
176
1
 90
6
176
1
 90
2
176
1
 62
7
176
1
 90
5
176
1
 90
0
176
1
 90
0
176
1
290
0
176
1
 90
1
176
1
 40
0.0
176
1
 90
0
176
1
290
1
176
1
290
1
176
1
290
0
176
1
290
0
176
1
290
0
176
1
290
0
176
1
290
0
176
1
290
0
176
1
290
0
176
1
 90
50
176
1
 40
0.0
176
1
 40
1.0
176
1
 90
0
176
1
 62
18
420
0
176
1
 90
50
176
1
 90
3
176
1
 62
5
420
255
176
1
290
0
176
1
 90
50
176
1
 90
50
176
1
 90
50
176
1
290
0
176
1
 90
50
176
1
 62
256
176
0
 40
1.0
176
0
 90
2
176
1
  1
strokes_ogs.tif
176
1
290
0
176
1
 40
1.0
176
1
 40
1.0
176
1
  0
VISUALSTYLE
  5
2AF
102
{ACAD_REACTORS
330
2A7
102
}
330
2A7
100
AcDbVisualStyle
  2
Basic
 70
7
177
3
291
1
 70
58
 90
1
176
1
 90
0
176
1
 90
1
176
1
 90
0
176
1
 40
0.6
176
1
 40
30.0
176
1
 62
7
420
16777215
176
1
 90
0
176
1
 90
4
176
1
 62
7
176
1
 62
257
176
1
 90
1
176
1
 90
1
176
1
 40
1.0
176
1
 90
8
176
1
 62
7
176
1
 40
1.0
176
1
 90
1
176
1
 90
6
176
1
 90
2
176
1
 62
7
176
1
 90
5
176
1
 90
0
176
1
 90
0
176
1
290
0
176
1
 90
1
176
1
 40
0.0
176
1
 90
0
176
1
290
0
176
1
290
1
176
1
290
1
176
1
290
0
176
1
290
0
176
1
290
0
176
1
290
0
176
1
290
0
176
1
290
0
176
1
 90
50
176
1
 40
0.0
176
1
 40
1.0
176
1
 90
0
176
1
 62
18
420
0
176
1
 90
50
176
1
 90
3
176
1
 62
5
420
255
176
1
290
0
176
1
 90
50
176
1
 90
50
176
1
 90
50
176
1
290
0
176
1
 90
50
176
1
 62
256
176
0
 40
1.0
176
0
 90
2
176
1
  1
strokes_ogs.tif
176
1
290
0
176
1
 40
1.0
176
1
 40
1.0
176
1
  0
VISUALSTYLE
  5
2B3
102
{ACAD_REACTORS
330
2A7
102
}
330
2A7
100
AcDbVisualStyle
  2
Brighten
 70
12
177
3
291
1
 70
58
 90
2
176
1
 90
2
176
1
 90
0
176
1
 90
0
176
1
 40
0.6
176
1
 40
30.0
176
1
 62
7
420
16777215
176
1
 90
1
176
1
 90
4
176
1
 62
7
176
1
 62
257
176
1
 90
1
176
1
 90
1
176
1
 40
1.0
176
1
 90
8
176
1
 62
7
176
1
 40
1.0
176
1
 90
1
176
1
 90
6
176
1
 90
2
176
1
 62
7
176
1
 90
5
176
1
 90
0
176
1
 90
0
176
1
290
0
176
1
 90
1
176
1
 40
50.0
176
1
 90
0
176
1
290
0
176
1
290
1
176
1
290
1
176
1
290
0
176
1
290
0
176
1
290
0
176
1
290
0
176
1
290
0
176
1
290
0
176
1
 90
50
176
1
 40
0.0
176
1
 40
1.0
176
1
 90
0
176
1
 62
18
420
0
176
1
 90
50
176
1
 90
3
176
1
 62
5
420
255
176
1
290
0
176
1
 90
50
176
1
 90
50
176
1
 90
50
176
1
290
0
176
1
 90
50
176
1
 62
256
176
0
 40
1.0
176
0
 90
2
176
1
  1
strokes_ogs.tif
176
1
290
0
176
1
 40
1.0
176
1
 40
1.0
176
1
  0
VISUALSTYLE
  5
2B7
102
{ACAD_REACTORS
330
2A7
102
}
330
2A7
100
AcDbVisualStyle
  2
ColorChange
 70
16
177
3
291
1
 70
58
 90
2
176
1
 90
2
176
1
 90
3
176
1
 90
0
176
1
 40
0.6
176
1
 40
30.0
176
1
 62
8
420
8421504
176
1
 90
1
176
1
 90
4
176
1
 62
7
176
1
 62
257
176
1
 90
1
176
1
 90
1
176
1
 40
1.0
176
1
 90
8
176
1
 62
8
420
8421504
176
1
 40
1.0
176
1
 90
1
176
1
 90
6
176
1
 90
2
176
1
 62
7
176
1
 90
5
176
1
 90
0
176
1
 90
0
176
1
290
0
176
1
 90
1
176
1
 40
0.0
176
1
 90
0
176
1
290
0
176
1
290
1
176
1
290
1
176
1
290
0
176
1
290
0
176
1
290
0
176
1
290
0
176
1
290
0
176
1
290
0
176
1
 90
50
176
1
 40
0.0
176
1
 40
1.0
176
1
 90
0
176
1
 62
18
420
0
176
1
 90
50
176
1
 90
3
176
1
 62
5
420
255
176
1
290
0
176
1
 90
50
176
1
 90
50
176
1
 90
50
176
1
290
0
176
1
 90
50
176
1
 62
256
176
0
 40
1.0
176
0
 90
2
176
1
  1
strokes_ogs.tif
176
1
290
0
176
1
 40
1.0
176
1
 40
1.0
176
1
  0
VISUALSTYLE
  5
2B1
102
{ACAD_REACTORS
330
2A7
102
}
330
2A7
100
AcDbVisualStyle
  2
Conceptual
 70
9
177
3
291
0
 70
58
 90
3
176
1
 90
2
176
1
 90
0
176
1
 90
0
176
1
 40
0.6
176
1
 40
30.0
176
1
 62
7
420
16777215
176
1
 90
2
176
1
 90
2
176
1
 62
7
176
1
 62
257
176
1
 90
1
176
1
 90
1
176
1
 40
179.0
176
1
 90
8
176
1
 62
7
176
1
 40
1.0
176
1
 90
1
176
1
 90
6
176
1
 90
2
176
1
 62
7
176
1
 90
3
176
1
 90
0
176
1
 90
0
176
1
290
0
176
1
 90
1
176
1
 40
0.0
176
1
 90
0
176
1
290
0
176
1
290
1
176
1
290
1
176
1
290
0
176
1
290
0
176
1
290
0
176
1
290
0
176
1
290
0
176
1
290
0
176
1
 90
50
176
1
 40
0.0
176
1
 40
1.0
176
1
 90
0
176
1
 62
18
420
0
176
1
 90
50
176
1
 90
3
176
1
 62
5
420
255
176
1
290
0
176
1
 90
50
176
1
 90
50
176
1
 90
50
176
1
290
0
176
1
 90
50
176
1
 62
256
176
0
 40
1.0
176
0
 90
2
176
1
  1
strokes_ogs.tif
176
1
290
0
176
1
 40
1.0
176
1
 40
1.0
176
1
  0
VISUALSTYLE
  5
2B2
102
{ACAD_REACTORS
330
2A7
102
}
330
2A7
100
AcDbVisualStyle
  2
Dim
 70
11
177
3
291
1
 70
58
 90
2
176
1
 90
2
176
1
 90
0
176
1
 90
0
176
1
 40
0.6
176
1
 40
30.0
176
1
 62
7
420
16777215
176
1
 90
1
176
1
 90
4
176
1
 62
7
176
1
 62
257
176
1
 90
1
176
1
 90
1
176
1
 40
1.0
176
1
 90
8
176
1
 62
7
176
1
 40
1.0
176
1
 90
1
176
1
 90
6
176
1
 90
2
176
1
 62
7
176
1
 90
5
176
1
 90
0
176
1
 90
0
176
1
290
0
176
1
 90
1
176
1
 40
-50.0
176
1
 90
0
176
1
290
0
176
1
290
1
176
1
290
1
176
1
290
0
176
1
290
0
176
1
290
0
176
1
290
0
176
1
290
0
176
1
290
0
176
1
 90
50
176
1
 40
0.0
176
1
 40
1.0
176
1
 90
0
176
1
 62
18
420
0
176
1
 90
50
176
1
 90
3
176
1
 62
5
420
255
176
1
290
0
176
1
 90
50
176
1
 90
50
176
1
 90
50
176
1
290
0
176
1
 90
50
176
1
 62
256
176
0
 40
1.0
176
0
 90
2
176
1
  1
strokes_ogs.tif
176
1
290
0
176
1
 40
1.0
176
1
 40
1.0
176
1
  0
VISUALSTYLE
  5
2BA
102
{ACAD_REACTORS
330
2A7
102
}
330
2A7
100
AcDbVisualStyle
  2
EdgeColorOff
 70
22
177
3
291
1
 70
58
 90
2
176
0
 90
2
176
0
 90
0
176
0
 90
0
176
0
 40
0.6
176
0
 40
30.0
176
0
 62
7
420
16777215
176
0
 90
1
176
0
 90
4
176
0
 62
7
176
0
 62
257
176
0
 90
1
176
0
 90
1
176
0
 40
1.0
176
0
 90
8
176
2
 62
7
176
0
 40
1.0
176
0
 90
1
176
0
 90
6
176
0
 90
2
176
0
 62
7
176
0
 90
5
176
0
 90
0
176
0
 90
0
176
0
290
0
176
0
 90
1
176
0
 40
0.0
176
0
 90
0
176
0
290
0
176
0
290
1
176
0
290
1
176
0
290
0
176
0
290
0
176
0
290
0
176
0
290
0
176
0
290
0
176
0
290
0
176
0
 90
50
176
0
 40
0.0
176
0
 40
1.0
176
0
 90
0
176
0
 62
18
420
0
176
0
 90
50
176
0
 90
3
176
0
 62
5
420
255
176
0
290
0
176
0
 90
50
176
0
 90
50
176
0
 90
50
176
0
290
0
176
0
 90
50
176
0
 62
256
176
0
 40
1.0
176
0
 90
2
176
0
  1
strokes_ogs.tif
176
0
290
0
176
0
 40
1.0
176
0
 40
1.0
176
0
  0
VISUALSTYLE
  5
2B6
102
{ACAD_REACTORS
330
2A7
102
}
330
2A7
100
AcDbVisualStyle
  2
Facepattern
 70
15
177
3
291
1
 70
58
 90
2
176
1
 90
2
176
1
 90
0
176
1
 90
0
176
1
 40
0.6
176
1
 40
30.0
176
1
 62
7
420
16777215
176
1
 90
1
176
1
 90
4
176
1
 62
7
176
1
 62
257
176
1
 90
1
176
1
 90
1
176
1
 40
1.0
176
1
 90
8
176
1
 62
7
176
1
 40
1.0
176
1
 90
1
176
1
 90
6
176
1
 90
2
176
1
 62
7
176
1
 90
5
176
1
 90
0
176
1
 90
0
176
1
290
0
176
1
 90
1
176
1
 40
0.0
176
1
 90
0
176
1
290
0
176
1
290
1
176
1
290
1
176
1
290
0
176
1
290
0
176
1
290
0
176
1
290
0
176
1
290
0
176
1
290
0
176
1
 90
50
176
1
 40
0.0
176
1
 40
1.0
176
1
 90
0
176
1
 62
18
420
0
176
1
 90
50
176
1
 90
3
176
1
 62
5
420
255
176
1
290
0
176
1
 90
50
176
1
 90
50
176
1
 90
50
176
1
290
0
176
1
 90
50
176
1
 62
256
176
0
 40
1.0
176
0
 90
2
176
1
  1
strokes_ogs.tif
176
1
290
0
176
1
 40
1.0
176
1
 40
1.0
176
1
  0
VISUALSTYLE
  5
2A8
102
{ACAD_REACTORS
330
2A7
102
}
330
2A7
100
AcDbVisualStyle
  2
Flat
 70
0
177
3
291
1
 70
58
 90
2
176
1
 90
1
176
1
 90
1
176
1
 90
2
176
1
 40
0.6
176
1
 40
30.0
176
1
 62
7
420
16777215
176
1
 90
0
176
1
 90
0
176
1
 62
7
176
1
 62
257
176
1
 90
1
176
1
 90
1
176
1
 40
1.0
176
1
 90
8
176
1
 62
7
176
1
 40
1.0
176
1
 90
1
176
1
 90
6
176
1
 90
2
176
1
 62
7
176
1
 90
5
176
1
 90
0
176
1
 90
0
176
1
290
0
176
1
 90
13
176
1
 40
0.0
176
1
 90
0
176
1
290
0
176
1
290
1
176
1
290
1
176
1
290
0
176
1
290
0
176
1
290
0
176
1
290
0
176
1
290
0
176
1
290
0
176
1
 90
50
176
1
 40
0.0
176
1
 40
1.0
176
1
 90
0
176
1
 62
18
420
0
176
1
 90
50
176
1
 90
3
176
1
 62
5
420
255
176
1
290
0
176
1
 90
50
176
1
 90
50
176
1
 90
50
176
1
290
0
176
1
 90
50
176
1
 62
256
176
0
 40
1.0
176
0
 90
2
176
1
  1
strokes_ogs.tif
176
1
290
0
176
1
 40
1.0
176
1
 40
1.0
176
1
  0
VISUALSTYLE
  5
2A9
102
{ACAD_REACTORS
330
2A7
102
}
330
2A7
100
AcDbVisualStyle
  2
FlatWithEdges
 70
1
177
3
291
1
 70
58
 90
2
176
1
 90
1
176
1
 90
1
176
1
 90
2
176
1
 40
0.6
176
1
 40
30.0
176
1
 62
7
420
16777215
176
1
 90
1
176
1
 90
0
176
1
 62
7
176
1
 62
257
176
1
 90
1
176
1
 90
1
176
1
 40
1.0
176
1
 90
0
176
1
 62
257
176
1
 40
1.0
176
1
 90
1
176
1
 90
6
176
1
 90
2
176
1
 62
7
176
1
 90
5
176
1
 90
0
176
1
 90
0
176
1
290
0
176
1
 90
13
176
1
 40
0.0
176
1
 90
0
176
1
290
0
176
1
290
1
176
1
290
1
176
1
290
0
176
1
290
0
176
1
290
0
176
1
290
0
176
1
290
0
176
1
290
0
176
1
 90
50
176
1
 40
0.0
176
1
 40
1.0
176
1
 90
0
176
1
 62
18
420
0
176
1
 90
50
176
1
 90
3
176
1
 62
5
420
255
176
1
290
0
176
1
 90
50
176
1
 90
50
176
1
 90
50
176
1
290
0
176
1
 90
50
176
1
 62
256
176
0
 40
1.0
176
0
 90
2
176
1
  1
strokes_ogs.tif
176
1
290
0
176
1
 40
1.0
176
1
 40
1.0
176
1
  0
VISUALSTYLE
  5
2AA
102
{ACAD_REACTORS
330
2A7
102
}
330
2A7
100
AcDbVisualStyle
  2
Gouraud
 70
2
177
3
291
1
 70
58
 90
2
176
1
 90
2
176
1
 90
1
176
1
 90
2
176
1
 40
0.6
176
1
 40
30.0
176
1
 62
7
420
16777215
176
1
 90
0
176
1
 90
0
176
1
 62
7
176
1
 62
257
176
1
 90
1
176
1
 90
1
176
1
 40
1.0
176
1
 90
0
176
1
 62
7
176
1
 40
1.0
176
1
 90
1
176
1
 90
6
176
1
 90
2
176
1
 62
7
176
1
 90
5
176
1
 90
0
176
1
 90
0
176
1
290
0
176
1
 90
13
176
1
 40
0.0
176
1
 90
0
176
1
290
0
176
1
290
1
176
1
290
1
176
1
290
0
176
1
290
0
176
1
290
0
176
1
290
0
176
1
290
0
176
1
290
0
176
1
 90
50
176
1
 40
0.0
176
1
 40
1.0
176
1
 90
0
176
1
 62
18
420
0
176
1
 90
50
176
1
 90
3
176
1
 62
5
420
255
176
1
290
0
176
1
 90
50
176
1
 90
50
176
1
 90
50
176
1
290
0
176
1
 90
50
176
1
 62
256
176
0
 40
1.0
176
0
 90
2
176
1
  1
strokes_ogs.tif
176
1
290
0
176
1
 40
1.0
176
1
 40
1.0
176
1
  0
VISUALSTYLE
  5
2AB
102
{ACAD_REACTORS
330
2A7
102
}
330
2A7
100
AcDbVisualStyle
  2
GouraudWithEdges
 70
3
177
3
291
1
 70
58
 90
2
176
1
 90
2
176
1
 90
1
176
1
 90
2
176
1
 40
0.6
176
1
 40
30.0
176
1
 62
7
420
16777215
176
1
 90
1
176
1
 90
0
176
1
 62
7
176
1
 62
257
176
1
 90
1
176
1
 90
1
176
1
 40
1.0
176
1
 90
0
176
1
 62
257
176
1
 40
1.0
176
1
 90
1
176
1
 90
6
176
1
 90
2
176
1
 62
7
176
1
 90
5
176
1
 90
0
176
1
 90
0
176
1
290
0
176
1
 90
13
176
1
 40
0.0
176
1
 90
0
176
1
290
0
176
1
290
1
176
1
290
1
176
1
290
0
176
1
290
0
176
1
290
0
176
1
290
0
176
1
290
0
176
1
290
0
176
1
 90
50
176
1
 40
0.0
176
1
 40
1.0
176
1
 90
0
176
1
 62
18
420
0
176
1
 90
50
176
1
 90
3
176
1
 62
5
420
255
176
1
290
0
176
1
 90
50
176
1
 90
50
176
1
 90
50
176
1
290
0
176
1
 90
50
176
1
 62
256
176
0
 40
1.0
176
0
 90
2
176
1
  1
strokes_ogs.tif
176
1
290
0
176
1
 40
1.0
176
1
 40
1.0
176
1
  0
VISUALSTYLE
  5
2AE
102
{ACAD_REACTORS
330
2A7
102
}
330
2A7
100
AcDbVisualStyle
  2
Hidden
 70
6
177
3
291
0
 70
58
 90
1
176
1
 90
2
176
1
 90
2
176
1
 90
0
176
1
 40
0.6
176
1
 40
30.0
176
1
 62
7
420
16777215
176
1
 90
2
176
1
 90
2
176
1
 62
7
176
1
 62
257
176
1
 90
2
176
1
 90
1
176
1
 40
40.0
176
1
 90
0
176
1
 62
257
176
1
 40
1.0
176
1
 90
1
176
1
 90
6
176
1
 90
2
176
1
 62
7
176
1
 90
3
176
1
 90
0
176
1
 90
0
176
1
290
0
176
1
 90
1
176
1
 40
0.0
176
1
 90
0
176
1
290
0
176
1
290
1
176
1
290
1
176
1
290
0
176
1
290
0
176
1
290
0
176
1
290
0
176
1
290
0
176
1
290
0
176
1
 90
50
176
1
 40
0.0
176
1
 40
1.0
176
1
 90
0
176
1
 62
18
420
0
176
1
 90
50
176
1
 90
3
176
1
 62
5
420
255
176
1
290
0
176
1
 90
50
176
1
 90
50
176
1
 90
50
176
1
290
0
176
1
 90
50
176
1
 62
256
176
0
 40
1.0
176
0
 90
2
176
1
  1
strokes_ogs.tif
176
1
290
0
176
1
 40
1.0
176
1
 40
1.0
176
1
  0
VISUALSTYLE
  5
2B8
102
{ACAD_REACTORS
330
2A7
102
}
330
2A7
100
AcDbVisualStyle
  2
JitterOff
 70
20
177
3
291
1
 70
58
 90
2
176
0
 90
2
176
0
 90
0
176
0
 90
0
176
0
 40
0.6
176
0
 40
30.0
176
0
 62
7
420
16777215
176
0
 90
1
176
0
 90
4
176
0
 62
7
176
0
 62
257
176
0
 90
1
176
0
 90
1
176
0
 40
1.0
176
0
 90
10
176
2
 62
7
176
0
 40
1.0
176
0
 90
1
176
0
 90
6
176
0
 90
2
176
0
 62
7
176
0
 90
5
176
0
 90
0
176
0
 90
0
176
0
290
0
176
0
 90
1
176
0
 40
0.0
176
0
 90
0
176
0
290
0
176
0
290
1
176
0
290
1
176
0
290
0
176
0
290
0
176
0
290
0
176
0
290
0
176
0
290
0
176
0
290
0
176
0
 90
50
176
0
 40
0.0
176
0
 40
1.0
176
0
 90
0
176
0
 62
18
420
0
176
0
 90
50
176
0
 90
3
176
0
 62
5
420
255
176
0
290
0
176
0
 90
50
176
0
 90
50
176
0
 90
50
176
0
290
0
176
0
 90
50
176
0
 62
256
176
0
 40
1.0
176
0
 90
2
176
0
  1
strokes_ogs.tif
176
0
290
0
176
0
 40
1.0
176
0
 40
1.0
176
0
  0
VISUALSTYLE
  5
2B5
102
{ACAD_REACTORS
330
2A7
102
}
330
2A7
100
AcDbVisualStyle
  2
Linepattern
 70
14
177
3
291
1
 70
58
 90
2
176
1
 90
2
176
1
 90
0
176
1
 90
0
176
1
 40
0.6
176
1
 40
30.0
176
1
 62
7
420
16777215
176
1
 90
1
176
1
 90
4
176
1
 62
7
176
1
 62
257
176
1
 90
7
176
1
 90
7
176
1
 40
1.0
176
1
 90
8
176
1
 62
7
176
1
 40
1.0
176
1
 90
1
176
1
 90
6
176
1
 90
2
176
1
 62
7
176
1
 90
5
176
1
 90
0
176
1
 90
0
176
1
290
0
176
1
 90
1
176
1
 40
0.0
176
1
 90
0
176
1
290
0
176
1
290
1
176
1
290
1
176
1
290
0
176
1
290
0
176
1
290
0
176
1
290
0
176
1
290
0
176
1
290
0
176
1
 90
50
176
1
 40
0.0
176
1
 40
1.0
176
1
 90
0
176
1
 62
18
420
0
176
1
 90
50
176
1
 90
3
176
1
 62
5
420
255
176
1
290
0
176
1
 90
50
176
1
 90
50
176
1
 90
50
176
1
290
0
176
1
 90
50
176
1
 62
256
176
0
 40
1.0
176
0
 90
2
176
1
  1
strokes_ogs.tif
176
1
290
0
176
1
 40
1.0
176
1
 40
1.0
176
1
  0
VISUALSTYLE
  5
2B9
102
{ACAD_REACTORS
330
2A7
102
}
330
2A7
100
AcDbVisualStyle
  2
OverhangOff
 70
21
177
3
291
1
 70
58
 90
2
176
0
 90
2
176
0
 90
0
176
0
 90
0
176
0
 40
0.6
176
0
 40
30.0
176
0
 62
7
420
16777215
176
0
 90
1
176
0
 90
4
176
0
 62
7
176
0
 62
257
176
0
 90
1
176
0
 90
1
176
0
 40
1.0
176
0
 90
9
176
2
 62
7
176
0
 40
1.0
176
0
 90
1
176
0
 90
6
176
0
 90
2
176
0
 62
7
176
0
 90
5
176
0
 90
0
176
0
 90
0
176
0
290
0
176
0
 90
1
176
0
 40
0.0
176
0
 90
0
176
0
290
0
176
0
290
1
176
0
290
1
176
0
290
0
176
0
290
0
176
0
290
0
176
0
290
0
176
0
290
0
176
0
290
0
176
0
 90
50
176
0
 40
0.0
176
0
 40
1.0
176
0
 90
0
176
0
 62
18
420
0
176
0
 90
50
176
0
 90
3
176
0
 62
5
420
255
176
0
290
0
176
0
 90
50
176
0
 90
50
176
0
 90
50
176
0
290
0
176
0
 90
50
176
0
 62
256
176
0
 40
1.0
176
0
 90
2
176
0
  1
strokes_ogs.tif
176
0
290
0
176
0
 40
1.0
176
0
 40
1.0
176
0
  0
VISUALSTYLE
  5
2B0
102
{ACAD_REACTORS
330
2A7
102
}
330
2A7
100
AcDbVisualStyle
  2
Realistic
 70
8
177
3
291
0
 70
58
 90
2
176
1
 90
3
176
1
 90
0
176
1
 90
2
176
1
 40
0.6
176
1
 40
30.0
176
1
 62
7
420
16777215
176
1
 90
0
176
1
 90
0
176
1
 62
7
176
1
 62
257
176
1
 90
1
176
1
 90
1
176
1
 40
1.0
176
1
 90
8
176
1
 62
257
176
1
 40
1.0
176
1
 90
1
176
1
 90
6
176
1
 90
2
176
1
 62
7
176
1
 90
3
176
1
 90
0
176
1
 90
0
176
1
290
0
176
1
 90
13
176
1
 40
0.0
176
1
 90
0
176
1
290
0
176
1
290
1
176
1
290
1
176
1
290
0
176
1
290
0
176
1
290
0
176
1
290
0
176
1
290
0
176
1
290
0
176
1
 90
50
176
1
 40
0.0
176
1
 40
1.0
176
1
 90
0
176
1
 62
18
420
0
176
1
 90
50
176
1
 90
3
176
1
 62
5
420
255
176
1
290
0
176
1
 90
50
176
1
 90
50
176
1
 90
50
176
1
290
0
176
1
 90
50
176
1
 62
256
176
0
 40
1.0
176
0
 90
2
176
1
  1
strokes_ogs.tif
176
1
290
0
176
1
 40
1.0
176
1
 40
1.0
176
1
  0
VISUALSTYLE
  5
2BF
102
{ACAD_REACTORS
330
2A7
102
}
330
2A7
100
AcDbVisualStyle
  2
Shaded
 70
27
177
3
291
0
 70
58
 90
2
176
1
 90
2
176
1
 90
1
176
1
 90
2
176
1
 40
0.6
176
1
 40
30.0
176
1
 62
7
420
16777215
176
1
 90
0
176
1
 90
4
176
1
 62
7
176
1
 62
257
176
1
 90
1
176
1
 90
1
176
1
 40
1.0
176
1
 90
8
176
1
 62
257
176
1
 40
1.0
176
1
 90
1
176
1
 90
6
176
1
 90
2
176
1
 62
8
420
7895160
176
1
 90
3
176
1
 90
0
176
1
 90
0
176
1
290
0
176
1
 90
5
176
1
 40
0.0
176
1
 90
0
176
1
290
0
176
1
290
1
176
1
290
1
176
1
290
0
176
1
290
0
176
1
290
0
176
1
290
0
176
1
290
0
176
1
290
0
176
1
 90
50
176
1
 40
0.0
176
1
 40
1.0
176
1
 90
0
176
1
 62
18
420
0
176
1
 90
50
176
1
 90
3
176
1
 62
5
420
255
176
1
290
0
176
1
 90
50
176
1
 90
50
176
1
 90
50
176
1
290
0
176
1
 90
50
176
1
 62
256
176
0
 40
1.0
176
0
 90
2
176
1
  1
strokes_ogs.tif
176
1
290
0
176
1
 40
1.0
176
1
 40
1.0
176
1
  0
VISUALSTYLE
  5
2BE
102
{ACAD_REACTORS
330
2A7
102
}
330
2A7
100
AcDbVisualStyle
  2
Shaded with edges
 70
26
177
3
291
0
 70
58
 90
2
176
1
 90
2
176
1
 90
1
176
1
 90
2
176
1
 40
0.6
176
1
 40
30.0
176
1
 62
7
420
16777215
176
1
 90
1
176
1
 90
10
176
1
 62
7
176
1
 62
257
176
1
 90
2
176
1
 90
1
176
1
 40
1.0
176
1
 90
8
176
1
 62
257
176
1
 40
1.0
176
1
 90
1
176
1
 90
6
176
1
 90
2
176
1
 62
7
176
1
 90
3
176
1
 90
0
176
1
 90
0
176
1
290
0
176
1
 90
5
176
1
 40
0.0
176
1
 90
0
176
1
290
0
176
1
290
1
176
1
290
1
176
1
290
0
176
1
290
0
176
1
290
0
176
1
290
0
176
1
290
0
176
1
290
0
176
1
 90
50
176
1
 40
0.0
176
1
 40
1.0
176
1
 90
0
176
1
 62
18
420
0
176
1
 90
50
176
1
 90
3
176
1
 62
5
420
255
176
1
290
0
176
1
 90
50
176
1
 90
50
176
1
 90
50
176
1
290
0
176
1
 90
50
176
1
 62
256
176
0
 40
1.0
176
0
 90
2
176
1
  1
strokes_ogs.tif
176
1
290
0
176
1
 40
1.0
176
1
 40
1.0
176
1
  0
VISUALSTYLE
  5
2BB
102
{ACAD_REACTORS
330
2A7
102
}
330
2A7
100
AcDbVisualStyle
  2
Shades of Gray
 70
23
177
3
291
0
 70
58
 90
2
176
1
 90
2
176
1
 90
3
176
1
 90
0
176
1
 40
0.6
176
1
 40
30.0
176
1
 62
7
420
16777215
176
1
 90
2
176
1
 90
2
176
1
 62
7
176
1
 62
7
176
1
 90
1
176
1
 90
1
176
1
 40
40.0
176
1
 90
8
176
1
 62
7
176
1
 40
1.0
176
1
 90
1
176
1
 90
6
176
1
 90
2
176
1
 62
7
176
1
 90
3
176
1
 90
0
176
1
 90
0
176
1
290
0
176
1
 90
1
176
1
 40
0.0
176
1
 90
0
176
1
290
0
176
1
290
1
176
1
290
1
176
1
290
0
176
1
290
0
176
1
290
0
176
1
290
0
176
1
290
0
176
1
290
0
176
1
 90
50
176
1
 40
0.0
176
1
 40
1.0
176
1
 90
0
176
1
 62
18
420
0
176
1
 90
50
176
1
 90
3
176
1
 62
5
420
255
176
1
290
0
176
1
 90
50
176
1
 90
50
176
1
 90
50
176
1
290
0
176
1
 90
50
176
1
 62
256
176
0
 40
1.0
176
0
 90
2
176
1
  1
strokes_ogs.tif
176
1
290
0
176
1
 40
1.0
176
1
 40
1.0
176
1
  0
VISUALSTYLE
  5
2BC
102
{ACAD_REACTORS
330
2A7
102
}
330
2A7
100
AcDbVisualStyle
  2
Sketchy
 70
24
177
3
291
0
 70
58
 90
1
176
1
 90
2
176
1
 90
2
176
1
 90
0
176
1
 40
0.6
176
1
 40
30.0
176
1
 62
7
420
16777215
176
1
 90
2
176
1
 90
2
176
1
 62
7
176
1
 62
7
176
1
 90
1
176
1
 90
1
176
1
 40
40.0
176
1
 90
11
176
1
 62
7
176
1
 40
1.0
176
1
 90
1
176
1
 90
6
176
1
 90
2
176
1
 62
7
176
1
 90
6
176
1
 90
0
176
1
 90
0
176
1
290
0
176
1
 90
1
176
1
 40
0.0
176
1
 90
0
176
1
290
0
176
1
290
1
176
1
290
1
176
1
290
0
176
1
290
0
176
1
290
0
176
1
290
0
176
1
290
0
176
1
290
0
176
1
 90
50
176
1
 40
0.0
176
1
 40
1.0
176
1
 90
0
176
1
 62
18
420
0
176
1
 90
50
176
1
 90
3
176
1
 62
5
420
255
176
1
290
0
176
1
 90
50
176
1
 90
50
176
1
 90
50
176
1
290
0
176
1
 90
50
176
1
 62
256
176
0
 40
1.0
176
0
 90
2
176
1
  1
strokes_ogs.tif
176
1
290
0
176
1
 40
1.0
176
1
 40
1.0
176
1
  0
VISUALSTYLE
  5
2B4
102
{ACAD_REACTORS
330
2A7
102
}
330
2A7
100
AcDbVisualStyle
  2
Thicken
 70
13
177
3
291
1
 70
58
 90
2
176
1
 90
2
176
1
 90
0
176
1
 90
0
176
1
 40
0.6
176
1
 40
30.0
176
1
 62
7
420
16777215
176
1
 90
1
176
1
 90
4
176
1
 62
7
176
1
 62
257
176
1
 90
1
176
1
 90
1
176
1
 40
1.0
176
1
 90
12
176
1
 62
7
176
1
 40
1.0
176
1
 90
1
176
1
 90
6
176
1
 90
2
176
1
 62
7
176
1
 90
5
176
1
 90
0
176
1
 90
0
176
1
290
0
176
1
 90
1
176
1
 40
0.0
176
1
 90
0
176
1
290
0
176
1
290
1
176
1
290
1
176
1
290
0
176
1
290
0
176
1
290
0
176
1
290
0
176
1
290
0
176
1
290
0
176
1
 90
50
176
1
 40
0.0
176
1
 40
1.0
176
1
 90
0
176
1
 62
18
420
0
176
1
 90
50
176
1
 90
3
176
1
 62
5
420
255
176
1
290
0
176
1
 90
50
176
1
 90
50
176
1
 90
50
176
1
290
0
176
1
 90
50
176
1
 62
256
176
0
 40
1.0
176
0
 90
2
176
1
  1
strokes_ogs.tif
176
1
290
0
176
1
 40
1.0
176
1
 40
1.0
176
1
  0
VISUALSTYLE
  5
2AD
102
{ACAD_REACTORS
330
2A7
102
}
330
2A7
100
AcDbVisualStyle
  2
Wireframe
 70
5
177
3
291
0
 70
58
 90
0
176
1
 90
2
176
1
 90
0
176
1
 90
0
176
1
 40
0.6
176
1
 40
30.0
176
1
 62
7
420
16777215
176
1
 90
1
176
1
 90
4
176
1
 62
7
176
1
 62
257
176
1
 90
1
176
1
 90
1
176
1
 40
1.0
176
1
 90
0
176
1
 62
257
176
1
 40
1.0
176
1
 90
1
176
1
 90
6
176
1
 90
2
176
1
 62
7
176
1
 90
3
176
1
 90
0
176
1
 90
0
176
1
290
0
176
1
 90
1
176
1
 40
0.0
176
1
 90
0
176
1
290
0
176
1
290
1
176
1
290
1
176
1
290
0
176
1
290
0
176
1
290
0
176
1
290
0
176
1
290
0
176
1
290
0
176
1
 90
50
176
1
 40
0.0
176
1
 40
1.0
176
1
 90
0
176
1
 62
18
420
0
176
1
 90
50
176
1
 90
3
176
1
 62
5
420
255
176
1
290
0
176
1
 90
50
176
1
 90
50
176
1
 90
50
176
1
290
0
176
1
 90
50
176
1
 62
256
176
0
 40
1.0
176
0
 90
2
176
1
  1
strokes_ogs.tif
176
1
290
0
176
1
 40
1.0
176
1
 40
1.0
176
1
  0
VISUALSTYLE
  5
2BD
102
{ACAD_REACTORS
330
2A7
102
}
330
2A7
100
AcDbVisualStyle
  2
X-Ray
 70
25
177
3
291
0
 70
58
 90
2
176
1
 90
2
176
1
 90
1
176
1
 90
1
176
1
 40
0.5
176
1
 40
30.0
176
1
 62
7
420
16777215
176
1
 90
1
176
1
 90
0
176
1
 62
7
176
1
 62
257
176
1
 90
1
176
1
 90
1
176
1
 40
1.0
176
1
 90
8
176
1
 62
7
176
1
 40
1.0
176
1
 90
1
176
1
 90
6
176
1
 90
2
176
1
 62
7
176
1
 90
3
176
1
 90
0
176
1
 90
0
176
1
290
0
176
1
 90
13
176
1
 40
0.0
176
1
 90
0
176
1
290
0
176
1
290
1
176
1
290
1
176
1
290
0
176
1
290
0
176
1
290
0
176
1
290
0
176
1
290
0
176
1
290
0
176
1
 90
50
176
1
 40
0.0
176
1
 40
1.0
176
1
 90
0
176
1
 62
18
420
0
176
1
 90
50
176
1
 90
3
176
1
 62
5
420
255
176
1
290
0
176
1
 90
50
176
1
 90
50
176
1
 90
50
176
1
290
0
176
1
 90
50
176
1
 62
256
176
0
 40
1.0
176
0
 90
2
176
1
  1
strokes_ogs.tif
176
1
290
0
176
1
 40
1.0
176
1
 40
1.0
176
1
  0
DICTIONARYVAR
  5
2C5
102
{ACAD_REACTORS
330
2C4
102
}
330
2C4
100
DictionaryVariables
280
0
  1
1:1
  0
DICTIONARYVAR
  5
2CA
102
{ACAD_REACTORS
330
2C4
102
}
330
2C4
100
DictionaryVariables
280
0
  1
Standard
  0
DICTIONARYVAR
  5
2C9
102
{ACAD_REACTORS
330
2C4
102
}
330
2C4
100
DictionaryVariables
280
0
  1
Standard
  0
DICTIONARYVAR
  5
2CB
102
{ACAD_REACTORS
330
2C4
102
}
330
2C4
100
DictionaryVariables
280
0
  1
0
  0
DICTIONARYVAR
  5
2D0
330
2CF
100
DictionaryVariables
280
0
  1
1.4.3 @ 2026-01-17T22:52:27.460579+00:00
  0
DICTIONARY
  5
2D1
330
2C1
100
AcDbDictionary
280
1
281
1
  3
ACAD_ROUNDTRIP_2008_TABLESTYLE_CELLSTYLEMAP
360
2D2
  0
CELLSTYLEMAP
  5
2D2
102
{ACAD_REACTORS
330
2D1
102
}
330
2D1
100
AcDbCellStyleMap
 90
3
300
CELLSTYLE
  1
TABLEFORMAT_BEGIN
 90
5
170
1
 91
0
 92
32768
 62
257
 93
1
300
CONTENTFORMAT
  1
CONTENTFORMAT_BEGIN
 90
0
 91
0
 92
4
 93
0
300

 40
0.0
140
1.0
 94
5
 62
0
340
11
144
0.25
309
CONTENTFORMAT_END
171
1
301
MARGIN
  1
CELLMARGIN_BEGIN
 40
0.06
 40
0.06
 40
0.06
 40
0.06
 40
0.06
 40
0.06
309
CELLMARGIN_END
 94
6
 95
1
302
GRIDFORMAT
  1
GRIDFORMAT_BEGIN
 90
0
 91
1
 62
0
 92
-2
340
14
 93
0
 40
0.045
309
GRIDFORMAT_END
 95
2
302
GRIDFORMAT
  1
GRIDFORMAT_BEGIN
 90
0
 91
1
 62
0
 92
-2
340
14
 93
0
 40
0.045
309
GRIDFORMAT_END
 95
4
302
GRIDFORMAT
  1
GRIDFORMAT_BEGIN
 90
0
 91
1
 62
0
 92
-2
340
14
 93
0
 40
0.045
309
GRIDFORMAT_END
 95
8
302
GRIDFORMAT
  1
GRIDFORMAT_BEGIN
 90
0
 91
1
 62
0
 92
-2
340
14
 93
0
 40
0.045
309
GRIDFORMAT_END
 95
16
302
GRIDFORMAT
  1
GRIDFORMAT_BEGIN
 90
0
 91
1
 62
0
 92
-2
340
14
 93
0
 40
0.045
309
GRIDFORMAT_END
 95
32
302
GRIDFORMAT
  1
GRIDFORMAT_BEGIN
 90
0
 91
1
 62
0
 92
-2
340
14
 93
0
 40
0.045
309
GRIDFORMAT_END
309
TABLEFORMAT_END
  1
CELLSTYLE_BEGIN
 90
1
 91
1
300
_TITLE
309
CELLSTYLE_END
300
CELLSTYLE
  1
TABLEFORMAT_BEGIN
 90
5
170
1
 91
0
 92
0
 62
257
 93
1
300
CONTENTFORMAT
  1
CONTENTFORMAT_BEGIN
 90
0
 91
0
 92
4
 93
0
300

 40
0.0
140
1.0
 94
5
 62
0
340
11
144
0.18
309
CONTENTFORMAT_END
171
1
301
MARGIN
  1
CELLMARGIN_BEGIN
 40
0.06
 40
0.06
 40
0.06
 40
0.06
 40
0.06
 40
0.06
309
CELLMARGIN_END
 94
6
 95
1
302
GRIDFORMAT
  1
GRIDFORMAT_BEGIN
 90
0
 91
1
 62
0
 92
-2
340
14
 93
0
 40
0.045
309
GRIDFORMAT_END
 95
2
302
GRIDFORMAT
  1
GRIDFORMAT_BEGIN
 90
0
 91
1
 62
0
 92
-2
340
14
 93
0
 40
0.045
309
GRIDFORMAT_END
 95
4
302
GRIDFORMAT
  1
GRIDFORMAT_BEGIN
 90
0
 91
1
 62
0
 92
-2
340
14
 93
0
 40
0.045
309
GRIDFORMAT_END
 95
8
302
GRIDFORMAT
  1
GRIDFORMAT_BEGIN
 90
0
 91
1
 62
0
 92
-2
340
14
 93
0
 40
0.045
309
GRIDFORMAT_END
 95
16
302
GRIDFORMAT
  1
GRIDFORMAT_BEGIN
 90
0
 91
1
 62
0
 92
-2
340
14
 93
0
 40
0.045
309
GRIDFORMAT_END
 95
32
302
GRIDFORMAT
  1
GRIDFORMAT_BEGIN
 90
0
 91
1
 62
0
 92
-2
340
14
 93
0
 40
0.045
309
GRIDFORMAT_END
309
TABLEFORMAT_END
  1
CELLSTYLE_BEGIN
 90
2
 91
1
300
_HEADER
309
CELLSTYLE_END
300
CELLSTYLE
  1
TABLEFORMAT_BEGIN
 90
5
170
1
 91
0
 92
0
 62
257
 93
1
300
CONTENTFORMAT
  1
CONTENTFORMAT_BEGIN
 90
0
 91
0
 92
4
 93
0
300

 40
0.0
140
1.0
 94
2
 62
0
340
11
144
0.18
309
CONTENTFORMAT_END
171
1
301
MARGIN
  1
CELLMARGIN_BEGIN
 40
0.06
 40
0.06
 40
0.06
 40
0.06
 40
0.06
 40
0.06
309
CELLMARGIN_END
 94
6
 95
1
302
GRIDFORMAT
  1
GRIDFORMAT_BEGIN
 90
0
 91
1
 62
0
 92
-2
340
14
 93
0
 40
0.045
309
GRIDFORMAT_END
 95
2
302
GRIDFORMAT
  1
GRIDFORMAT_BEGIN
 90
0
 91
1
 62
0
 92
-2
340
14
 93
0
 40
0.045
309
GRIDFORMAT_END
 95
4
302
GRIDFORMAT
  1
GRIDFORMAT_BEGIN
 90
0
 91
1
 62
0
 92
-2
340
14
 93
0
 40
0.045
309
GRIDFORMAT_END
 95
8
302
GRIDFORMAT
  1
GRIDFORMAT_BEGIN
 90
0
 91
1
 62
0
 92
-2
340
14
 93
0
 40
0.045
309
GRIDFORMAT_END
 95
16
302
GRIDFORMAT
  1
GRIDFORMAT_BEGIN
 90
0
 91
1
 62
0
 92
-2
340
14
 93
0
 40
0.045
309
GRIDFORMAT_END
 95
32
302
GRIDFORMAT
  1
GRIDFORMAT_BEGIN
 90
0
 91
1
 62
0
 92
-2
340
14
 93
0
 40
0.045
309
GRIDFORMAT_END
309
TABLEFORMAT_END
  1
CELLSTYLE_BEGIN
 90
3
 91
2
300
_DATA
309
CELLSTYLE_END
  0
ENDSEC
  0
EOF
