  0
SECTION
  2
HEADER
  9
$ACADVER
  1
AC1009
  9
$DWGCODEPAGE
  3
ANSI_1252
  9
$EXTMIN
 10
1e+20
 20
1e+20
 30
1e+20
  9
$EXTMAX
 10
-1e+20
 20
-1e+20
 30
-1e+20
  9
$LIMMIN
 10
0.0
 20
0.0
  9
$LIMMAX
 10
420.0
 20
297.0
  9
$TDCREATE
 40
2461043.554363426
  9
$TDUPDATE
 40
2461043.554363426
  9
$ANGBASE
 50
0.0
  9
$ANGDIR
 70
1
  9
$PEXTMIN
 10
1e+20
 20
1e+20
 30
1e+20
  9
$PEXTMAX
 10
-1e+20
 20
-1e+20
 30
-1e+20
  9
$PLIMMIN
 10
0.0
 20
0.0
  9
$PLIMMAX
 10
420.0
 20
297.0
  0
ENDSEC
  0
SECTION
  2
TABLES
  0
TABLE
  2
VPORT
 70
1
  0
VPORT
  2
*Active
 70
0
 10
0.0
 20
0.0
 11
1.0
 21
1.0
 12
0.0
 22
0.0
 13
0.0
 23
0.0
 14
0.5
 24
0.5
 15
0.5
 25
0.5
 16
0.0
 26
0.0
 36
1.0
 17
0.0
 27
0.0
 37
0.0
 40
1000.0
 41
1.34
 42
50.0
 43
0.0
 44
0.0
 50
0.0
 51
0.0
 71
0
 72
1000
 73
1
 74
3
 75
0
 76
0
 77
0
 78
0
  0
ENDTAB
  0
TABLE
  2
LTYPE
 70
6
  0
LTYPE
  2
CONTINUOUS
 70
0
  3
Solid line
 72
65
 73
0
 40
0.0
  0
LTYPE
  2
DASHDOT
 70
0
  3
Dash Dot ____ _ ____ _
 72
65
 73
4
 40
2.0
 49
1.25
 49
-0.25
 49
0.25
 49
-0.25
  0
LTYPE
  2
DASHED
 70
0
  3
Dashed __ __ __ __ __
 72
65
 73
2
 40
0.75
 49
0.5
 49
-0.25
  0
LTYPE
  2
DOTTED
 70
0
  3
Dotted .  .  .  .
 72
65
 73
2
 40
0.2
 49
0.0
 49
-0.2
  0
LTYPE
  2
ByBlock
 70
0
  3

 72
65
 73
0
 40
0.0
  0
LTYPE
  2
ByLayer
 70
0
  3

 72
65
 73
0
 40
0.0
  0
ENDTAB
  0
TABLE
  2
LAYER
 70
3
  0
LAYER
  2
BLACK
 70
0
 62
7
  6
CONTINUOUS
  0
LAYER
  2
0
 70
0
 62
7
  6
Continuous
  0
LAYER
  2
Defpoints
 70
0
 62
7
  6
Continuous
  0
ENDTAB
  0
TABLE
  2
STYLE
 70
5
  0
STYLE
  2
KICAD
 70
0
 40
0.0
 41
1.0
 50
0.0
 71
0
 42
1.0
  3
isocp.shx
  4

  0
STYLE
  2
KICADB
 70
0
 40
0.0
 41
1.0
 50
0.0
 71
0
 42
1.0
  3
isocp.shx
  4

  0
STYLE
  2
KICADI
 70
0
 40
0.0
 41
1.0
 50
15.0
 71
0
 42
1.0
  3
isocp.shx
  4

  0
STYLE
  2
KICADBI
 70
0
 40
0.0
 41
1.0
 50
15.0
 71
0
 42
1.0
  3
isocp.shx
  4

  0
STYLE
  2
Standard
 70
0
 40
0.0
 41
1.0
 50
0.0
 71
0
 42
2.5
  3
txt
  4

  0
ENDTAB
  0
TABLE
  2
VIEW
 70
0
  0
ENDTAB
  0
TABLE
  2
UCS
 70
0
  0
ENDTAB
  0
TABLE
  2
APPID
 70
3
  0
APPID
  2
ACAD
 70
0
  0
APPID
  2
HATCHBACKGROUNDCOLOR
 70
0
  0
APPID
  2
EZDXF
 70
0
  0
ENDTAB
  0
TABLE
  2
DIMSTYLE
 70
1
  0
DIMSTYLE
  2
Standard
 70
0
  3

  4

  5

  6

  7

 40
1.0
 41
2.5
 42
0.625
 43
3.75
 44
1.25
 45
0.0
 46
0.0
 47
0.0
 48
0.0
140
2.5
141
2.5
142
0.0
143
0.03937007874
144
1.0
145
0.0
146
1.0
147
0.625
 71
0
 72
0
 73
0
 74
0
 75
0
 76
0
 77
1
 78
8
170
0
171
3
172
1
173
0
174
0
175
0
176
0
177
0
178
0
  0
ENDTAB
  0
ENDSEC
  0
SECTION
  2
BLOCKS
  0
BLOCK
  8
0
  2
$Model_Space
 70
0
 10
0.0
 20
0.0
 30
0.0
  3
$Model_Space
  1

1001
EZDXF
1000
WRITTEN_BY_EZDXF
1000
1.4.3 @ 2026-01-02T12:18:17.392295+00:00
  0
ENDBLK
  8
0
  0
BLOCK
  8
0
  2
$Paper_Space
 70
0
 10
0.0
 20
0.0
 30
0.0
  3
$Paper_Space
  1

  0
ENDBLK
  8
0
  0
ENDSEC
  0
SECTION
  2
ENTITIES
  0
CIRCLE
  8
BLACK
 10
42.8625
 20
-61.912499999999994
 30
0.0
 40
1.0
  0
CIRCLE
  8
BLACK
 10
90.4875
 20
-80.96249999999999
 30
0.0
 40
1.0
  0
CIRCLE
  8
BLACK
 10
-7.14375
 20
-61.912499999999994
 30
0.0
 40
1.0
  0
CIRCLE
  8
BLACK
 10
9.525
 20
-23.8125
 30
0.0
 40
1.0
  0
CIRCLE
  8
BLACK
 10
185.73749999999998
 20
-80.96249999999999
 30
0.0
 40
1.0
  0
CIRCLE
  8
BLACK
 10
171.45
 20
-42.8625
 30
0.0
 40
1.0
  0
CIRCLE
  8
BLACK
 10
142.875
 20
-23.8125
 30
0.0
 40
1.0
  0
CIRCLE
  8
BLACK
 10
66.675
 20
-23.8125
 30
0.0
 40
1.0
  0
CIRCLE
  8
BLACK
 10
95.25
 20
-42.8625
 30
0.0
 40
1.0
  0
LINE
  8
BLACK
  6
CONTINUOUS
 10
140.3375
 20
-55.412499999999994
 30
0.0
 11
140.3375
 21
-68.4125
 31
0.0
  0
ARC
  8
BLACK
 10
140.8375
 20
-68.4125
 30
0.0
 40
0.5
 50
-180.0
 51
-90.0
  0
LINE
  8
BLACK
  6
CONTINUOUS
 10
140.8375
 20
-68.9125
 30
0.0
 11
154.4375
 21
-68.9125
 31
0.0
  0
ARC
  8
BLACK
 10
154.4375
 20
-68.4125
 30
0.0
 40
0.5
 50
-90.0
 51
-0.0
  0
LINE
  8
BLACK
  6
CONTINUOUS
 10
154.9375
 20
-68.4125
 30
0.0
 11
154.9375
 21
-55.412499999999994
 31
0.0
  0
ARC
  8
BLACK
 10
154.4375
 20
-55.412499999999994
 30
0.0
 40
0.5
 50
0.0
 51
90.0
  0
LINE
  8
BLACK
  6
CONTINUOUS
 10
154.4375
 20
-54.912499999999994
 30
0.0
 11
140.8375
 21
-54.912499999999994
 31
0.0
  0
ARC
  8
BLACK
 10
140.8375
 20
-55.412499999999994
 30
0.0
 40
0.5
 50
90.0
 51
180.0
  0
LINE
  8
BLACK
  6
CONTINUOUS
 10
187.9625
 20
-74.46249999999999
 30
0.0
 11
187.9625
 21
-87.46249999999999
 31
0.0
  0
ARC
  8
BLACK
 10
188.46249999999998
 20
-87.46249999999999
 30
0.0
 40
0.5
 50
-180.0
 51
-90.0
  0
LINE
  8
BLACK
  6
CONTINUOUS
 10
188.46249999999998
 20
-87.96249999999999
 30
0.0
 11
202.0625
 21
-87.96249999999999
 31
0.0
  0
ARC
  8
BLACK
 10
202.0625
 20
-87.46249999999999
 30
0.0
 40
0.5
 50
-90.0
 51
-0.0
  0
LINE
  8
BLACK
  6
CONTINUOUS
 10
202.5625
 20
-87.46249999999999
 30
0.0
 11
202.5625
 21
-74.46249999999999
 31
0.0
  0
ARC
  8
BLACK
 10
202.0625
 20
-74.46249999999999
 30
0.0
 40
0.5
 50
0.0
 51
90.0
  0
LINE
  8
BLACK
  6
CONTINUOUS
 10
202.0625
 20
-73.96249999999999
 30
0.0
 11
188.46249999999998
 21
-73.96249999999999
 31
0.0
  0
ARC
  8
BLACK
 10
188.46249999999998
 20
-74.46249999999999
 30
0.0
 40
0.5
 50
90.0
 51
180.0
  0
LINE
  8
BLACK
  6
CONTINUOUS
 10
216.5375
 20
-55.412499999999994
 30
0.0
 11
216.5375
 21
-68.4125
 31
0.0
  0
ARC
  8
BLACK
 10
217.0375
 20
-68.4125
 30
0.0
 40
0.5
 50
-180.0
 51
-90.0
  0
LINE
  8
BLACK
  6
CONTINUOUS
 10
217.0375
 20
-68.9125
 30
0.0
 11
230.6375
 21
-68.9125
 31
0.0
  0
ARC
  8
BLACK
 10
230.6375
 20
-68.4125
 30
0.0
 40
0.5
 50
-90.0
 51
-0.0
  0
LINE
  8
BLACK
  6
CONTINUOUS
 10
231.1375
 20
-68.4125
 30
0.0
 11
231.1375
 21
-55.412499999999994
 31
0.0
  0
ARC
  8
BLACK
 10
230.6375
 20
-55.412499999999994
 30
0.0
 40
0.5
 50
0.0
 51
90.0
  0
LINE
  8
BLACK
  6
CONTINUOUS
 10
230.6375
 20
-54.912499999999994
 30
0.0
 11
217.0375
 21
-54.912499999999994
 31
0.0
  0
ARC
  8
BLACK
 10
217.0375
 20
-55.412499999999994
 30
0.0
 40
0.5
 50
90.0
 51
180.0
  0
LINE
  8
BLACK
  6
CONTINUOUS
 10
59.375
 20
-36.3625
 30
0.0
 11
59.375
 21
-49.3625
 31
0.0
  0
ARC
  8
BLACK
 10
59.875
 20
-49.3625
 30
0.0
 40
0.5
 50
-180.0
 51
-90.0
  0
LINE
  8
BLACK
  6
CONTINUOUS
 10
59.875
 20
-49.8625
 30
0.0
 11
73.475
 21
-49.8625
 31
0.0
  0
ARC
  8
BLACK
 10
73.475
 20
-49.3625
 30
0.0
 40
0.5
 50
-90.0
 51
-0.0
  0
LINE
  8
BLACK
  6
CONTINUOUS
 10
73.975
 20
-49.3625
 30
0.0
 11
73.975
 21
-36.3625
 31
0.0
  0
ARC
  8
BLACK
 10
73.475
 20
-36.3625
 30
0.0
 40
0.5
 50
0.0
 51
90.0
  0
LINE
  8
BLACK
  6
CONTINUOUS
 10
73.475
 20
-35.8625
 30
0.0
 11
59.875
 21
-35.8625
 31
0.0
  0
ARC
  8
BLACK
 10
59.875
 20
-36.3625
 30
0.0
 40
0.5
 50
90.0
 51
180.0
  0
LINE
  8
BLACK
  6
CONTINUOUS
 10
64.1375
 20
-55.412499999999994
 30
0.0
 11
64.1375
 21
-68.4125
 31
0.0
  0
ARC
  8
BLACK
 10
64.6375
 20
-68.4125
 30
0.0
 40
0.5
 50
-180.0
 51
-90.0
  0
LINE
  8
BLACK
  6
CONTINUOUS
 10
64.6375
 20
-68.9125
 30
0.0
 11
78.2375
 21
-68.9125
 31
0.0
  0
ARC
  8
BLACK
 10
78.2375
 20
-68.4125
 30
0.0
 40
0.5
 50
-90.0
 51
-0.0
  0
LINE
  8
BLACK
  6
CONTINUOUS
 10
78.7375
 20
-68.4125
 30
0.0
 11
78.7375
 21
-55.412499999999994
 31
0.0
  0
ARC
  8
BLACK
 10
78.2375
 20
-55.412499999999994
 30
0.0
 40
0.5
 50
0.0
 51
90.0
  0
LINE
  8
BLACK
  6
CONTINUOUS
 10
78.2375
 20
-54.912499999999994
 30
0.0
 11
64.6375
 21
-54.912499999999994
 31
0.0
  0
ARC
  8
BLACK
 10
64.6375
 20
-55.412499999999994
 30
0.0
 40
0.5
 50
90.0
 51
180.0
  0
LINE
  8
BLACK
  6
CONTINUOUS
 10
-2.5375
 20
-36.362501
 30
0.0
 11
-2.5375
 21
-49.3625
 31
0.0
  0
ARC
  8
BLACK
 10
-2.037499
 20
-49.362499
 30
0.0
 40
0.500001
 50
-179.99988541
 51
-90.0
  0
LINE
  8
BLACK
  6
CONTINUOUS
 10
-2.037499
 20
-49.8625
 30
0.0
 11
11.5625
 21
-49.8625
 31
0.0
  0
ARC
  8
BLACK
 10
11.5625
 20
-49.3625
 30
0.0
 40
0.5
 50
-90.0
 51
-0.0
  0
LINE
  8
BLACK
  6
CONTINUOUS
 10
12.0625
 20
-49.3625
 30
0.0
 11
12.0625
 21
-36.3625
 31
0.0
  0
ARC
  8
BLACK
 10
11.5625
 20
-36.3625
 30
0.0
 40
0.5
 50
0.0
 51
90.0
  0
LINE
  8
BLACK
  6
CONTINUOUS
 10
11.5625
 20
-35.8625
 30
0.0
 11
-2.037499
 21
-35.8625
 31
0.0
  0
ARC
  8
BLACK
 10
-2.037499
 20
-36.362501
 30
0.0
 40
0.500001
 50
90.0
 51
180.0
  0
LINE
  8
BLACK
  6
CONTINUOUS
 10
211.77499999999998
 20
-36.3625
 30
0.0
 11
211.77499999999998
 21
-49.3625
 31
0.0
  0
ARC
  8
BLACK
 10
212.27499999999998
 20
-49.3625
 30
0.0
 40
0.5
 50
-180.0
 51
-90.0
  0
LINE
  8
BLACK
  6
CONTINUOUS
 10
212.27499999999998
 20
-49.8625
 30
0.0
 11
225.875
 21
-49.8625
 31
0.0
  0
ARC
  8
BLACK
 10
225.875
 20
-49.3625
 30
0.0
 40
0.5
 50
-90.0
 51
-0.0
  0
LINE
  8
BLACK
  6
CONTINUOUS
 10
226.375
 20
-49.3625
 30
0.0
 11
226.375
 21
-36.3625
 31
0.0
  0
ARC
  8
BLACK
 10
225.875
 20
-36.3625
 30
0.0
 40
0.5
 50
0.0
 51
90.0
  0
LINE
  8
BLACK
  6
CONTINUOUS
 10
225.875
 20
-35.8625
 30
0.0
 11
212.27499999999998
 21
-35.8625
 31
0.0
  0
ARC
  8
BLACK
 10
212.27499999999998
 20
-36.3625
 30
0.0
 40
0.5
 50
90.0
 51
180.0
  0
LINE
  8
BLACK
  6
CONTINUOUS
 10
173.67499999999998
 20
-36.3625
 30
0.0
 11
173.67499999999998
 21
-49.3625
 31
0.0
  0
ARC
  8
BLACK
 10
174.17499999999998
 20
-49.3625
 30
0.0
 40
0.5
 50
-180.0
 51
-90.0
  0
LINE
  8
BLACK
  6
CONTINUOUS
 10
174.17499999999998
 20
-49.8625
 30
0.0
 11
187.775
 21
-49.8625
 31
0.0
  0
ARC
  8
BLACK
 10
187.775
 20
-49.3625
 30
0.0
 40
0.5
 50
-90.0
 51
-0.0
  0
LINE
  8
BLACK
  6
CONTINUOUS
 10
188.275
 20
-49.3625
 30
0.0
 11
188.275
 21
-36.3625
 31
0.0
  0
ARC
  8
BLACK
 10
187.775
 20
-36.3625
 30
0.0
 40
0.5
 50
0.0
 51
90.0
  0
LINE
  8
BLACK
  6
CONTINUOUS
 10
187.775
 20
-35.8625
 30
0.0
 11
174.17499999999998
 21
-35.8625
 31
0.0
  0
ARC
  8
BLACK
 10
174.17499999999998
 20
-36.3625
 30
0.0
 40
0.5
 50
90.0
 51
180.0
  0
LINE
  8
BLACK
  6
CONTINUOUS
 10
107.0
 20
-17.3125
 30
0.0
 11
107.0
 21
-30.3125
 31
0.0
  0
ARC
  8
BLACK
 10
107.5
 20
-30.3125
 30
0.0
 40
0.5
 50
-180.0
 51
-90.0
  0
LINE
  8
BLACK
  6
CONTINUOUS
 10
107.5
 20
-30.8125
 30
0.0
 11
121.1
 21
-30.8125
 31
0.0
  0
ARC
  8
BLACK
 10
121.1
 20
-30.3125
 30
0.0
 40
0.5
 50
-90.0
 51
-0.0
  0
LINE
  8
BLACK
  6
CONTINUOUS
 10
121.6
 20
-30.3125
 30
0.0
 11
121.6
 21
-17.3125
 31
0.0
  0
ARC
  8
BLACK
 10
121.1
 20
-17.3125
 30
0.0
 40
0.5
 50
0.0
 51
90.0
  0
LINE
  8
BLACK
  6
CONTINUOUS
 10
121.1
 20
-16.8125
 30
0.0
 11
107.5
 21
-16.8125
 31
0.0
  0
ARC
  8
BLACK
 10
107.5
 20
-17.3125
 30
0.0
 40
0.5
 50
90.0
 51
180.0
  0
LINE
  8
BLACK
  6
CONTINUOUS
 10
78.425
 20
-36.3625
 30
0.0
 11
78.425
 21
-49.3625
 31
0.0
  0
ARC
  8
BLACK
 10
78.925
 20
-49.3625
 30
0.0
 40
0.5
 50
-180.0
 51
-90.0
  0
LINE
  8
BLACK
  6
CONTINUOUS
 10
78.925
 20
-49.8625
 30
0.0
 11
92.52499999999999
 21
-49.8625
 31
0.0
  0
ARC
  8
BLACK
 10
92.52499999999999
 20
-49.3625
 30
0.0
 40
0.5
 50
-90.0
 51
-0.0
  0
LINE
  8
BLACK
  6
CONTINUOUS
 10
93.02499999999999
 20
-49.3625
 30
0.0
 11
93.02499999999999
 21
-36.3625
 31
0.0
  0
ARC
  8
BLACK
 10
92.52499999999999
 20
-36.3625
 30
0.0
 40
0.5
 50
0.0
 51
90.0
  0
LINE
  8
BLACK
  6
CONTINUOUS
 10
92.52499999999999
 20
-35.8625
 30
0.0
 11
78.925
 21
-35.8625
 31
0.0
  0
ARC
  8
BLACK
 10
78.925
 20
-36.3625
 30
0.0
 40
0.5
 50
90.0
 51
180.0
  0
LINE
  8
BLACK
  6
CONTINUOUS
 10
168.9125
 20
-74.46249999999999
 30
0.0
 11
168.9125
 21
-87.46249999999999
 31
0.0
  0
ARC
  8
BLACK
 10
169.4125
 20
-87.46249999999999
 30
0.0
 40
0.5
 50
-180.0
 51
-90.0
  0
LINE
  8
BLACK
  6
CONTINUOUS
 10
169.4125
 20
-87.96249999999999
 30
0.0
 11
183.0125
 21
-87.96249999999999
 31
0.0
  0
ARC
  8
BLACK
 10
183.0125
 20
-87.46249999999999
 30
0.0
 40
0.5
 50
-90.0
 51
-0.0
  0
LINE
  8
BLACK
  6
CONTINUOUS
 10
183.5125
 20
-87.46249999999999
 30
0.0
 11
183.5125
 21
-74.46249999999999
 31
0.0
  0
ARC
  8
BLACK
 10
183.0125
 20
-74.46249999999999
 30
0.0
 40
0.5
 50
0.0
 51
90.0
  0
LINE
  8
BLACK
  6
CONTINUOUS
 10
183.0125
 20
-73.96249999999999
 30
0.0
 11
169.4125
 21
-73.96249999999999
 31
0.0
  0
ARC
  8
BLACK
 10
169.4125
 20
-74.46249999999999
 30
0.0
 40
0.5
 50
90.0
 51
180.0
  0
LINE
  8
BLACK
  6
CONTINUOUS
 10
207.0125
 20
-74.46249999999999
 30
0.0
 11
207.0125
 21
-87.46249999999999
 31
0.0
  0
ARC
  8
BLACK
 10
207.5125
 20
-87.46249999999999
 30
0.0
 40
0.5
 50
-180.0
 51
-90.0
  0
LINE
  8
BLACK
  6
CONTINUOUS
 10
207.5125
 20
-87.96249999999999
 30
0.0
 11
221.11249999999998
 21
-87.96249999999999
 31
0.0
  0
ARC
  8
BLACK
 10
221.11249999999998
 20
-87.46249999999999
 30
0.0
 40
0.5
 50
-90.0
 51
-0.0
  0
LINE
  8
BLACK
  6
CONTINUOUS
 10
221.61249999999998
 20
-87.46249999999999
 30
0.0
 11
221.61249999999998
 21
-74.46249999999999
 31
0.0
  0
ARC
  8
BLACK
 10
221.11249999999998
 20
-74.46249999999999
 30
0.0
 40
0.5
 50
0.0
 51
90.0
  0
LINE
  8
BLACK
  6
CONTINUOUS
 10
221.11249999999998
 20
-73.96249999999999
 30
0.0
 11
207.5125
 21
-73.96249999999999
 31
0.0
  0
ARC
  8
BLACK
 10
207.5125
 20
-74.46249999999999
 30
0.0
 40
0.5
 50
90.0
 51
180.0
  0
LINE
  8
BLACK
  6
CONTINUOUS
 10
202.25
 20
-17.3125
 30
0.0
 11
202.25
 21
-30.3125
 31
0.0
  0
ARC
  8
BLACK
 10
202.75
 20
-30.3125
 30
0.0
 40
0.5
 50
-180.0
 51
-90.0
  0
LINE
  8
BLACK
  6
CONTINUOUS
 10
202.75
 20
-30.8125
 30
0.0
 11
216.35
 21
-30.8125
 31
0.0
  0
ARC
  8
BLACK
 10
216.35
 20
-30.3125
 30
0.0
 40
0.5
 50
-90.0
 51
-0.0
  0
LINE
  8
BLACK
  6
CONTINUOUS
 10
216.85
 20
-30.3125
 30
0.0
 11
216.85
 21
-17.3125
 31
0.0
  0
ARC
  8
BLACK
 10
216.35
 20
-17.3125
 30
0.0
 40
0.5
 50
0.0
 51
90.0
  0
LINE
  8
BLACK
  6
CONTINUOUS
 10
216.35
 20
-16.8125
 30
0.0
 11
202.75
 21
-16.8125
 31
0.0
  0
ARC
  8
BLACK
 10
202.75
 20
-17.3125
 30
0.0
 40
0.5
 50
90.0
 51
180.0
  0
LINE
  8
BLACK
  6
CONTINUOUS
 10
87.95
 20
-17.3125
 30
0.0
 11
87.95
 21
-30.3125
 31
0.0
  0
ARC
  8
BLACK
 10
88.45
 20
-30.3125
 30
0.0
 40
0.5
 50
-180.0
 51
-90.0
  0
LINE
  8
BLACK
  6
CONTINUOUS
 10
88.45
 20
-30.8125
 30
0.0
 11
102.05
 21
-30.8125
 31
0.0
  0
ARC
  8
BLACK
 10
102.05
 20
-30.3125
 30
0.0
 40
0.5
 50
-90.0
 51
-0.0
  0
LINE
  8
BLACK
  6
CONTINUOUS
 10
102.55
 20
-30.3125
 30
0.0
 11
102.55
 21
-17.3125
 31
0.0
  0
ARC
  8
BLACK
 10
102.05
 20
-17.3125
 30
0.0
 40
0.5
 50
0.0
 51
90.0
  0
LINE
  8
BLACK
  6
CONTINUOUS
 10
102.05
 20
-16.8125
 30
0.0
 11
88.45
 21
-16.8125
 31
0.0
  0
ARC
  8
BLACK
 10
88.45
 20
-17.3125
 30
0.0
 40
0.5
 50
90.0
 51
180.0
  0
LINE
  8
BLACK
  6
CONTINUOUS
 10
178.4375
 20
-55.412499999999994
 30
0.0
 11
178.4375
 21
-68.4125
 31
0.0
  0
ARC
  8
BLACK
 10
178.9375
 20
-68.4125
 30
0.0
 40
0.5
 50
-180.0
 51
-90.0
  0
LINE
  8
BLACK
  6
CONTINUOUS
 10
178.9375
 20
-68.9125
 30
0.0
 11
192.5375
 21
-68.9125
 31
0.0
  0
ARC
  8
BLACK
 10
192.5375
 20
-68.4125
 30
0.0
 40
0.5
 50
-90.0
 51
-0.0
  0
LINE
  8
BLACK
  6
CONTINUOUS
 10
193.0375
 20
-68.4125
 30
0.0
 11
193.0375
 21
-55.412499999999994
 31
0.0
  0
ARC
  8
BLACK
 10
192.5375
 20
-55.412499999999994
 30
0.0
 40
0.5
 50
0.0
 51
90.0
  0
LINE
  8
BLACK
  6
CONTINUOUS
 10
192.5375
 20
-54.912499999999994
 30
0.0
 11
178.9375
 21
-54.912499999999994
 31
0.0
  0
ARC
  8
BLACK
 10
178.9375
 20
-55.412499999999994
 30
0.0
 40
0.5
 50
90.0
 51
180.0
  0
LINE
  8
BLACK
  6
CONTINUOUS
 10
54.6125
 20
-74.46249999999999
 30
0.0
 11
54.6125
 21
-87.46249999999999
 31
0.0
  0
ARC
  8
BLACK
 10
55.1125
 20
-87.46249999999999
 30
0.0
 40
0.5
 50
-180.0
 51
-90.0
  0
LINE
  8
BLACK
  6
CONTINUOUS
 10
55.1125
 20
-87.96249999999999
 30
0.0
 11
68.71249999999999
 21
-87.96249999999999
 31
0.0
  0
ARC
  8
BLACK
 10
68.71249999999999
 20
-87.46249999999999
 30
0.0
 40
0.5
 50
-90.0
 51
-0.0
  0
LINE
  8
BLACK
  6
CONTINUOUS
 10
69.21249999999999
 20
-87.46249999999999
 30
0.0
 11
69.21249999999999
 21
-74.46249999999999
 31
0.0
  0
ARC
  8
BLACK
 10
68.71249999999999
 20
-74.46249999999999
 30
0.0
 40
0.5
 50
0.0
 51
90.0
  0
LINE
  8
BLACK
  6
CONTINUOUS
 10
68.71249999999999
 20
-73.96249999999999
 30
0.0
 11
55.1125
 21
-73.96249999999999
 31
0.0
  0
ARC
  8
BLACK
 10
55.1125
 20
-74.46249999999999
 30
0.0
 40
0.5
 50
90.0
 51
180.0
  0
LINE
  8
BLACK
  6
CONTINUOUS
 10
230.825
 20
-36.3625
 30
0.0
 11
230.825
 21
-49.3625
 31
0.0
  0
ARC
  8
BLACK
 10
231.325
 20
-49.3625
 30
0.0
 40
0.5
 50
-180.0
 51
-90.0
  0
LINE
  8
BLACK
  6
CONTINUOUS
 10
231.325
 20
-49.8625
 30
0.0
 11
244.92499999999998
 21
-49.8625
 31
0.0
  0
ARC
  8
BLACK
 10
244.92499999999998
 20
-49.3625
 30
0.0
 40
0.5
 50
-90.0
 51
-0.0
  0
LINE
  8
BLACK
  6
CONTINUOUS
 10
245.42499999999998
 20
-49.3625
 30
0.0
 11
245.42499999999998
 21
-36.3625
 31
0.0
  0
ARC
  8
BLACK
 10
244.92499999999998
 20
-36.3625
 30
0.0
 40
0.5
 50
0.0
 51
90.0
  0
LINE
  8
BLACK
  6
CONTINUOUS
 10
244.92499999999998
 20
-35.8625
 30
0.0
 11
231.325
 21
-35.8625
 31
0.0
  0
ARC
  8
BLACK
 10
231.325
 20
-36.3625
 30
0.0
 40
0.5
 50
90.0
 51
180.0
  0
LINE
  8
BLACK
  6
CONTINUOUS
 10
83.1875
 20
-55.412499999999994
 30
0.0
 11
83.1875
 21
-68.4125
 31
0.0
  0
ARC
  8
BLACK
 10
83.6875
 20
-68.4125
 30
0.0
 40
0.5
 50
-180.0
 51
-90.0
  0
LINE
  8
BLACK
  6
CONTINUOUS
 10
83.6875
 20
-68.9125
 30
0.0
 11
97.2875
 21
-68.9125
 31
0.0
  0
ARC
  8
BLACK
 10
97.2875
 20
-68.4125
 30
0.0
 40
0.5
 50
-90.0
 51
-0.0
  0
LINE
  8
BLACK
  6
CONTINUOUS
 10
97.7875
 20
-68.4125
 30
0.0
 11
97.7875
 21
-55.412499999999994
 31
0.0
  0
ARC
  8
BLACK
 10
97.2875
 20
-55.412499999999994
 30
0.0
 40
0.5
 50
0.0
 51
90.0
  0
LINE
  8
BLACK
  6
CONTINUOUS
 10
97.2875
 20
-54.912499999999994
 30
0.0
 11
83.6875
 21
-54.912499999999994
 31
0.0
  0
ARC
  8
BLACK
 10
83.6875
 20
-55.412499999999994
 30
0.0
 40
0.5
 50
90.0
 51
180.0
  0
LINE
  8
BLACK
  6
CONTINUOUS
 10
116.52499999999999
 20
-36.3625
 30
0.0
 11
116.52499999999999
 21
-49.3625
 31
0.0
  0
ARC
  8
BLACK
 10
117.02499999999999
 20
-49.3625
 30
0.0
 40
0.5
 50
-180.0
 51
-90.0
  0
LINE
  8
BLACK
  6
CONTINUOUS
 10
117.02499999999999
 20
-49.8625
 30
0.0
 11
130.625
 21
-49.8625
 31
0.0
  0
ARC
  8
BLACK
 10
130.625
 20
-49.3625
 30
0.0
 40
0.5
 50
-90.0
 51
-0.0
  0
LINE
  8
BLACK
  6
CONTINUOUS
 10
131.125
 20
-49.3625
 30
0.0
 11
131.125
 21
-36.3625
 31
0.0
  0
ARC
  8
BLACK
 10
130.625
 20
-36.3625
 30
0.0
 40
0.5
 50
0.0
 51
90.0
  0
LINE
  8
BLACK
  6
CONTINUOUS
 10
130.625
 20
-35.8625
 30
0.0
 11
117.02499999999999
 21
-35.8625
 31
0.0
  0
ARC
  8
BLACK
 10
117.02499999999999
 20
-36.3625
 30
0.0
 40
0.5
 50
90.0
 51
180.0
  0
LINE
  8
BLACK
  6
CONTINUOUS
 10
221.29999999999998
 20
-17.3125
 30
0.0
 11
221.29999999999998
 21
-30.3125
 31
0.0
  0
ARC
  8
BLACK
 10
221.79999999999998
 20
-30.3125
 30
0.0
 40
0.5
 50
-180.0
 51
-90.0
  0
LINE
  8
BLACK
  6
CONTINUOUS
 10
221.79999999999998
 20
-30.8125
 30
0.0
 11
235.39999999999998
 21
-30.8125
 31
0.0
  0
ARC
  8
BLACK
 10
235.39999999999998
 20
-30.3125
 30
0.0
 40
0.5
 50
-90.0
 51
-0.0
  0
LINE
  8
BLACK
  6
CONTINUOUS
 10
235.89999999999998
 20
-30.3125
 30
0.0
 11
235.89999999999998
 21
-17.3125
 31
0.0
  0
ARC
  8
BLACK
 10
235.39999999999998
 20
-17.3125
 30
0.0
 40
0.5
 50
0.0
 51
90.0
  0
LINE
  8
BLACK
  6
CONTINUOUS
 10
235.39999999999998
 20
-16.8125
 30
0.0
 11
221.79999999999998
 21
-16.8125
 31
0.0
  0
ARC
  8
BLACK
 10
221.79999999999998
 20
-17.3125
 30
0.0
 40
0.5
 50
90.0
 51
180.0
  0
LINE
  8
BLACK
  6
CONTINUOUS
 10
121.2875
 20
-55.412499999999994
 30
0.0
 11
121.2875
 21
-68.4125
 31
0.0
  0
ARC
  8
BLACK
 10
121.7875
 20
-68.4125
 30
0.0
 40
0.5
 50
-180.0
 51
-90.0
  0
LINE
  8
BLACK
  6
CONTINUOUS
 10
121.7875
 20
-68.9125
 30
0.0
 11
135.3875
 21
-68.9125
 31
0.0
  0
ARC
  8
BLACK
 10
135.3875
 20
-68.4125
 30
0.0
 40
0.5
 50
-90.0
 51
-0.0
  0
LINE
  8
BLACK
  6
CONTINUOUS
 10
135.8875
 20
-68.4125
 30
0.0
 11
135.8875
 21
-55.412499999999994
 31
0.0
  0
ARC
  8
BLACK
 10
135.3875
 20
-55.412499999999994
 30
0.0
 40
0.5
 50
0.0
 51
90.0
  0
LINE
  8
BLACK
  6
CONTINUOUS
 10
135.3875
 20
-54.912499999999994
 30
0.0
 11
121.7875
 21
-54.912499999999994
 31
0.0
  0
ARC
  8
BLACK
 10
121.7875
 20
-55.412499999999994
 30
0.0
 40
0.5
 50
90.0
 51
180.0
  0
LINE
  8
BLACK
  6
CONTINUOUS
 10
111.76249999999999
 20
-74.46249999999999
 30
0.0
 11
111.76249999999999
 21
-87.46249999999999
 31
0.0
  0
ARC
  8
BLACK
 10
112.26249999999999
 20
-87.46249999999999
 30
0.0
 40
0.5
 50
-180.0
 51
-90.0
  0
LINE
  8
BLACK
  6
CONTINUOUS
 10
112.26249999999999
 20
-87.96249999999999
 30
0.0
 11
125.8625
 21
-87.96249999999999
 31
0.0
  0
ARC
  8
BLACK
 10
125.8625
 20
-87.46249999999999
 30
0.0
 40
0.5
 50
-90.0
 51
-0.0
  0
LINE
  8
BLACK
  6
CONTINUOUS
 10
126.3625
 20
-87.46249999999999
 30
0.0
 11
126.3625
 21
-74.46249999999999
 31
0.0
  0
ARC
  8
BLACK
 10
125.8625
 20
-74.46249999999999
 30
0.0
 40
0.5
 50
0.0
 51
90.0
  0
LINE
  8
BLACK
  6
CONTINUOUS
 10
125.8625
 20
-73.96249999999999
 30
0.0
 11
112.26249999999999
 21
-73.96249999999999
 31
0.0
  0
ARC
  8
BLACK
 10
112.26249999999999
 20
-74.46249999999999
 30
0.0
 40
0.5
 50
90.0
 51
180.0
  0
LINE
  8
BLACK
  6
CONTINUOUS
 10
21.275
 20
-36.3625
 30
0.0
 11
21.275
 21
-49.3625
 31
0.0
  0
ARC
  8
BLACK
 10
21.775
 20
-49.3625
 30
0.0
 40
0.5
 50
-180.0
 51
-90.0
  0
LINE
  8
BLACK
  6
CONTINUOUS
 10
21.775
 20
-49.8625
 30
0.0
 11
35.375
 21
-49.8625
 31
0.0
  0
ARC
  8
BLACK
 10
35.375
 20
-49.3625
 30
0.0
 40
0.5
 50
-90.0
 51
-0.0
  0
LINE
  8
BLACK
  6
CONTINUOUS
 10
35.875
 20
-49.3625
 30
0.0
 11
35.875
 21
-36.3625
 31
0.0
  0
ARC
  8
BLACK
 10
35.375
 20
-36.3625
 30
0.0
 40
0.5
 50
0.0
 51
90.0
  0
LINE
  8
BLACK
  6
CONTINUOUS
 10
35.375
 20
-35.8625
 30
0.0
 11
21.775
 21
-35.8625
 31
0.0
  0
ARC
  8
BLACK
 10
21.775
 20
-36.3625
 30
0.0
 40
0.5
 50
90.0
 51
180.0
  0
LINE
  8
BLACK
  6
CONTINUOUS
 10
183.2
 20
-17.3125
 30
0.0
 11
183.2
 21
-30.3125
 31
0.0
  0
ARC
  8
BLACK
 10
183.7
 20
-30.3125
 30
0.0
 40
0.5
 50
-180.0
 51
-90.0
  0
LINE
  8
BLACK
  6
CONTINUOUS
 10
183.7
 20
-30.8125
 30
0.0
 11
197.29999999999998
 21
-30.8125
 31
0.0
  0
ARC
  8
BLACK
 10
197.29999999999998
 20
-30.3125
 30
0.0
 40
0.5
 50
-90.0
 51
-0.0
  0
LINE
  8
BLACK
  6
CONTINUOUS
 10
197.79999999999998
 20
-30.3125
 30
0.0
 11
197.79999999999998
 21
-17.3125
 31
0.0
  0
ARC
  8
BLACK
 10
197.29999999999998
 20
-17.3125
 30
0.0
 40
0.5
 50
0.0
 51
90.0
  0
LINE
  8
BLACK
  6
CONTINUOUS
 10
197.29999999999998
 20
-16.8125
 30
0.0
 11
183.7
 21
-16.8125
 31
0.0
  0
ARC
  8
BLACK
 10
183.7
 20
-17.3125
 30
0.0
 40
0.5
 50
90.0
 51
180.0
  0
LINE
  8
BLACK
  6
CONTINUOUS
 10
135.575
 20
-36.3625
 30
0.0
 11
135.575
 21
-49.3625
 31
0.0
  0
ARC
  8
BLACK
 10
136.075
 20
-49.3625
 30
0.0
 40
0.5
 50
-180.0
 51
-90.0
  0
LINE
  8
BLACK
  6
CONTINUOUS
 10
136.075
 20
-49.8625
 30
0.0
 11
149.67499999999998
 21
-49.8625
 31
0.0
  0
ARC
  8
BLACK
 10
149.67499999999998
 20
-49.3625
 30
0.0
 40
0.5
 50
-90.0
 51
-0.0
  0
LINE
  8
BLACK
  6
CONTINUOUS
 10
150.17499999999998
 20
-49.3625
 30
0.0
 11
150.17499999999998
 21
-36.3625
 31
0.0
  0
ARC
  8
BLACK
 10
149.67499999999998
 20
-36.3625
 30
0.0
 40
0.5
 50
0.0
 51
90.0
  0
LINE
  8
BLACK
  6
CONTINUOUS
 10
149.67499999999998
 20
-35.8625
 30
0.0
 11
136.075
 21
-35.8625
 31
0.0
  0
ARC
  8
BLACK
 10
136.075
 20
-36.3625
 30
0.0
 40
0.5
 50
90.0
 51
180.0
  0
LINE
  8
BLACK
  6
CONTINUOUS
 10
159.3875
 20
-55.412499999999994
 30
0.0
 11
159.3875
 21
-68.4125
 31
0.0
  0
ARC
  8
BLACK
 10
159.8875
 20
-68.4125
 30
0.0
 40
0.5
 50
-180.0
 51
-90.0
  0
LINE
  8
BLACK
  6
CONTINUOUS
 10
159.8875
 20
-68.9125
 30
0.0
 11
173.48749999999998
 21
-68.9125
 31
0.0
  0
ARC
  8
BLACK
 10
173.48749999999998
 20
-68.4125
 30
0.0
 40
0.5
 50
-90.0
 51
-0.0
  0
LINE
  8
BLACK
  6
CONTINUOUS
 10
173.98749999999998
 20
-68.4125
 30
0.0
 11
173.98749999999998
 21
-55.412499999999994
 31
0.0
  0
ARC
  8
BLACK
 10
173.48749999999998
 20
-55.412499999999994
 30
0.0
 40
0.5
 50
0.0
 51
90.0
  0
LINE
  8
BLACK
  6
CONTINUOUS
 10
173.48749999999998
 20
-54.912499999999994
 30
0.0
 11
159.8875
 21
-54.912499999999994
 31
0.0
  0
ARC
  8
BLACK
 10
159.8875
 20
-55.412499999999994
 30
0.0
 40
0.5
 50
90.0
 51
180.0
  0
LINE
  8
BLACK
  6
CONTINUOUS
 10
26.037499999999998
 20
-55.412499999999994
 30
0.0
 11
26.037499999999998
 21
-68.4125
 31
0.0
  0
ARC
  8
BLACK
 10
26.537499999999998
 20
-68.4125
 30
0.0
 40
0.5
 50
-180.0
 51
-90.0
  0
LINE
  8
BLACK
  6
CONTINUOUS
 10
26.537499999999998
 20
-68.9125
 30
0.0
 11
40.137499999999996
 21
-68.9125
 31
0.0
  0
ARC
  8
BLACK
 10
40.137499999999996
 20
-68.4125
 30
0.0
 40
0.5
 50
-90.0
 51
-0.0
  0
LINE
  8
BLACK
  6
CONTINUOUS
 10
40.637499999999996
 20
-68.4125
 30
0.0
 11
40.637499999999996
 21
-55.412499999999994
 31
0.0
  0
ARC
  8
BLACK
 10
40.137499999999996
 20
-55.412499999999994
 30
0.0
 40
0.5
 50
0.0
 51
90.0
  0
LINE
  8
BLACK
  6
CONTINUOUS
 10
40.137499999999996
 20
-54.912499999999994
 30
0.0
 11
26.537499999999998
 21
-54.912499999999994
 31
0.0
  0
ARC
  8
BLACK
 10
26.537499999999998
 20
-55.412499999999994
 30
0.0
 40
0.5
 50
90.0
 51
180.0
  0
LINE
  8
BLACK
  6
CONTINUOUS
 10
126.05
 20
-17.3125
 30
0.0
 11
126.05
 21
-30.3125
 31
0.0
  0
ARC
  8
BLACK
 10
126.55
 20
-30.3125
 30
0.0
 40
0.5
 50
-180.0
 51
-90.0
  0
LINE
  8
BLACK
  6
CONTINUOUS
 10
126.55
 20
-30.8125
 30
0.0
 11
140.15
 21
-30.8125
 31
0.0
  0
ARC
  8
BLACK
 10
140.15
 20
-30.3125
 30
0.0
 40
0.5
 50
-90.0
 51
-0.0
  0
LINE
  8
BLACK
  6
CONTINUOUS
 10
140.65
 20
-30.3125
 30
0.0
 11
140.65
 21
-17.3125
 31
0.0
  0
ARC
  8
BLACK
 10
140.15
 20
-17.3125
 30
0.0
 40
0.5
 50
0.0
 51
90.0
  0
LINE
  8
BLACK
  6
CONTINUOUS
 10
140.15
 20
-16.8125
 30
0.0
 11
126.55
 21
-16.8125
 31
0.0
  0
ARC
  8
BLACK
 10
126.55
 20
-17.3125
 30
0.0
 40
0.5
 50
90.0
 51
180.0
  0
LINE
  8
BLACK
  6
CONTINUOUS
 10
154.625
 20
-36.3625
 30
0.0
 11
154.625
 21
-49.3625
 31
0.0
  0
ARC
  8
BLACK
 10
155.125
 20
-49.3625
 30
0.0
 40
0.5
 50
-180.0
 51
-90.0
  0
LINE
  8
BLACK
  6
CONTINUOUS
 10
155.125
 20
-49.8625
 30
0.0
 11
168.725
 21
-49.8625
 31
0.0
  0
ARC
  8
BLACK
 10
168.725
 20
-49.3625
 30
0.0
 40
0.5
 50
-90.0
 51
-0.0
  0
LINE
  8
BLACK
  6
CONTINUOUS
 10
169.225
 20
-49.3625
 30
0.0
 11
169.225
 21
-36.3625
 31
0.0
  0
ARC
  8
BLACK
 10
168.725
 20
-36.3625
 30
0.0
 40
0.5
 50
0.0
 51
90.0
  0
LINE
  8
BLACK
  6
CONTINUOUS
 10
168.725
 20
-35.8625
 30
0.0
 11
155.125
 21
-35.8625
 31
0.0
  0
ARC
  8
BLACK
 10
155.125
 20
-36.3625
 30
0.0
 40
0.5
 50
90.0
 51
180.0
  0
LINE
  8
BLACK
  6
CONTINUOUS
 10
35.5625
 20
-74.46249999999999
 30
0.0
 11
35.5625
 21
-87.46249999999999
 31
0.0
  0
ARC
  8
BLACK
 10
36.0625
 20
-87.46249999999999
 30
0.0
 40
0.5
 50
-180.0
 51
-90.0
  0
LINE
  8
BLACK
  6
CONTINUOUS
 10
36.0625
 20
-87.96249999999999
 30
0.0
 11
49.662499999999994
 21
-87.96249999999999
 31
0.0
  0
ARC
  8
BLACK
 10
49.662499999999994
 20
-87.46249999999999
 30
0.0
 40
0.5
 50
-90.0
 51
-0.0
  0
LINE
  8
BLACK
  6
CONTINUOUS
 10
50.162499999999994
 20
-87.46249999999999
 30
0.0
 11
50.162499999999994
 21
-74.46249999999999
 31
0.0
  0
ARC
  8
BLACK
 10
49.662499999999994
 20
-74.46249999999999
 30
0.0
 40
0.5
 50
0.0
 51
90.0
  0
LINE
  8
BLACK
  6
CONTINUOUS
 10
49.662499999999994
 20
-73.96249999999999
 30
0.0
 11
36.0625
 21
-73.96249999999999
 31
0.0
  0
ARC
  8
BLACK
 10
36.0625
 20
-74.46249999999999
 30
0.0
 40
0.5
 50
90.0
 51
180.0
  0
LINE
  8
BLACK
  6
CONTINUOUS
 10
68.89999999999999
 20
-17.3125
 30
0.0
 11
68.89999999999999
 21
-30.3125
 31
0.0
  0
ARC
  8
BLACK
 10
69.39999999999999
 20
-30.3125
 30
0.0
 40
0.5
 50
-180.0
 51
-90.0
  0
LINE
  8
BLACK
  6
CONTINUOUS
 10
69.39999999999999
 20
-30.8125
 30
0.0
 11
83.0
 21
-30.8125
 31
0.0
  0
ARC
  8
BLACK
 10
83.0
 20
-30.3125
 30
0.0
 40
0.5
 50
-90.0
 51
-0.0
  0
LINE
  8
BLACK
  6
CONTINUOUS
 10
83.5
 20
-30.3125
 30
0.0
 11
83.5
 21
-17.3125
 31
0.0
  0
ARC
  8
BLACK
 10
83.0
 20
-17.3125
 30
0.0
 40
0.5
 50
0.0
 51
90.0
  0
LINE
  8
BLACK
  6
CONTINUOUS
 10
83.0
 20
-16.8125
 30
0.0
 11
69.39999999999999
 21
-16.8125
 31
0.0
  0
ARC
  8
BLACK
 10
69.39999999999999
 20
-17.3125
 30
0.0
 40
0.5
 50
90.0
 51
180.0
  0
LINE
  8
BLACK
  6
CONTINUOUS
 10
145.1
 20
-17.3125
 30
0.0
 11
145.1
 21
-30.3125
 31
0.0
  0
ARC
  8
BLACK
 10
145.6
 20
-30.3125
 30
0.0
 40
0.5
 50
-180.0
 51
-90.0
  0
LINE
  8
BLACK
  6
CONTINUOUS
 10
145.6
 20
-30.8125
 30
0.0
 11
159.2
 21
-30.8125
 31
0.0
  0
ARC
  8
BLACK
 10
159.2
 20
-30.3125
 30
0.0
 40
0.5
 50
-90.0
 51
-0.0
  0
LINE
  8
BLACK
  6
CONTINUOUS
 10
159.7
 20
-30.3125
 30
0.0
 11
159.7
 21
-17.3125
 31
0.0
  0
ARC
  8
BLACK
 10
159.2
 20
-17.3125
 30
0.0
 40
0.5
 50
0.0
 51
90.0
  0
LINE
  8
BLACK
  6
CONTINUOUS
 10
159.2
 20
-16.8125
 30
0.0
 11
145.6
 21
-16.8125
 31
0.0
  0
ARC
  8
BLACK
 10
145.6
 20
-17.3125
 30
0.0
 40
0.5
 50
90.0
 51
180.0
  0
LINE
  8
BLACK
  6
CONTINUOUS
 10
11.75
 20
-17.3125
 30
0.0
 11
11.75
 21
-30.3125
 31
0.0
  0
ARC
  8
BLACK
 10
12.25
 20
-30.3125
 30
0.0
 40
0.5
 50
-180.0
 51
-90.0
  0
LINE
  8
BLACK
  6
CONTINUOUS
 10
12.25
 20
-30.8125
 30
0.0
 11
25.849999999999998
 21
-30.8125
 31
0.0
  0
ARC
  8
BLACK
 10
25.849999999999998
 20
-30.3125
 30
0.0
 40
0.5
 50
-90.0
 51
-0.0
  0
LINE
  8
BLACK
  6
CONTINUOUS
 10
26.349999999999998
 20
-30.3125
 30
0.0
 11
26.349999999999998
 21
-17.3125
 31
0.0
  0
ARC
  8
BLACK
 10
25.849999999999998
 20
-17.3125
 30
0.0
 40
0.5
 50
0.0
 51
90.0
  0
LINE
  8
BLACK
  6
CONTINUOUS
 10
25.849999999999998
 20
-16.8125
 30
0.0
 11
12.25
 21
-16.8125
 31
0.0
  0
ARC
  8
BLACK
 10
12.25
 20
-17.3125
 30
0.0
 40
0.5
 50
90.0
 51
180.0
  0
LINE
  8
BLACK
  6
CONTINUOUS
 10
164.15
 20
-17.3125
 30
0.0
 11
164.15
 21
-30.3125
 31
0.0
  0
ARC
  8
BLACK
 10
164.65
 20
-30.3125
 30
0.0
 40
0.5
 50
-180.0
 51
-90.0
  0
LINE
  8
BLACK
  6
CONTINUOUS
 10
164.65
 20
-30.8125
 30
0.0
 11
178.25
 21
-30.8125
 31
0.0
  0
ARC
  8
BLACK
 10
178.25
 20
-30.3125
 30
0.0
 40
0.5
 50
-90.0
 51
-0.0
  0
LINE
  8
BLACK
  6
CONTINUOUS
 10
178.75
 20
-30.3125
 30
0.0
 11
178.75
 21
-17.3125
 31
0.0
  0
ARC
  8
BLACK
 10
178.25
 20
-17.3125
 30
0.0
 40
0.5
 50
0.0
 51
90.0
  0
LINE
  8
BLACK
  6
CONTINUOUS
 10
178.25
 20
-16.8125
 30
0.0
 11
164.65
 21
-16.8125
 31
0.0
  0
ARC
  8
BLACK
 10
164.65
 20
-17.3125
 30
0.0
 40
0.5
 50
90.0
 51
180.0
  0
LINE
  8
BLACK
  6
CONTINUOUS
 10
40.324999999999996
 20
-36.3625
 30
0.0
 11
40.324999999999996
 21
-49.3625
 31
0.0
  0
ARC
  8
BLACK
 10
40.824999999999996
 20
-49.3625
 30
0.0
 40
0.5
 50
-180.0
 51
-90.0
  0
LINE
  8
BLACK
  6
CONTINUOUS
 10
40.824999999999996
 20
-49.8625
 30
0.0
 11
54.425
 21
-49.8625
 31
0.0
  0
ARC
  8
BLACK
 10
54.425
 20
-49.3625
 30
0.0
 40
0.5
 50
-90.0
 51
-0.0
  0
LINE
  8
BLACK
  6
CONTINUOUS
 10
54.925
 20
-49.3625
 30
0.0
 11
54.925
 21
-36.3625
 31
0.0
  0
ARC
  8
BLACK
 10
54.425
 20
-36.3625
 30
0.0
 40
0.5
 50
0.0
 51
90.0
  0
LINE
  8
BLACK
  6
CONTINUOUS
 10
54.425
 20
-35.8625
 30
0.0
 11
40.824999999999996
 21
-35.8625
 31
0.0
  0
ARC
  8
BLACK
 10
40.824999999999996
 20
-36.3625
 30
0.0
 40
0.5
 50
90.0
 51
180.0
  0
LINE
  8
BLACK
  6
CONTINUOUS
 10
192.725
 20
-36.3625
 30
0.0
 11
192.725
 21
-49.3625
 31
0.0
  0
ARC
  8
BLACK
 10
193.225
 20
-49.3625
 30
0.0
 40
0.5
 50
-180.0
 51
-90.0
  0
LINE
  8
BLACK
  6
CONTINUOUS
 10
193.225
 20
-49.8625
 30
0.0
 11
206.825
 21
-49.8625
 31
0.0
  0
ARC
  8
BLACK
 10
206.825
 20
-49.3625
 30
0.0
 40
0.5
 50
-90.0
 51
-0.0
  0
LINE
  8
BLACK
  6
CONTINUOUS
 10
207.325
 20
-49.3625
 30
0.0
 11
207.325
 21
-36.3625
 31
0.0
  0
ARC
  8
BLACK
 10
206.825
 20
-36.3625
 30
0.0
 40
0.5
 50
0.0
 51
90.0
  0
LINE
  8
BLACK
  6
CONTINUOUS
 10
206.825
 20
-35.8625
 30
0.0
 11
193.225
 21
-35.8625
 31
0.0
  0
ARC
  8
BLACK
 10
193.225
 20
-36.3625
 30
0.0
 40
0.5
 50
90.0
 51
180.0
  0
LINE
  8
BLACK
  6
CONTINUOUS
 10
130.8125
 20
-74.46249999999999
 30
0.0
 11
130.8125
 21
-87.46249999999999
 31
0.0
  0
ARC
  8
BLACK
 10
131.3125
 20
-87.46249999999999
 30
0.0
 40
0.5
 50
-180.0
 51
-90.0
  0
LINE
  8
BLACK
  6
CONTINUOUS
 10
131.3125
 20
-87.96249999999999
 30
0.0
 11
144.9125
 21
-87.96249999999999
 31
0.0
  0
ARC
  8
BLACK
 10
144.9125
 20
-87.46249999999999
 30
0.0
 40
0.5
 50
-90.0
 51
-0.0
  0
LINE
  8
BLACK
  6
CONTINUOUS
 10
145.4125
 20
-87.46249999999999
 30
0.0
 11
145.4125
 21
-74.46249999999999
 31
0.0
  0
ARC
  8
BLACK
 10
144.9125
 20
-74.46249999999999
 30
0.0
 40
0.5
 50
0.0
 51
90.0
  0
LINE
  8
BLACK
  6
CONTINUOUS
 10
144.9125
 20
-73.96249999999999
 30
0.0
 11
131.3125
 21
-73.96249999999999
 31
0.0
  0
ARC
  8
BLACK
 10
131.3125
 20
-74.46249999999999
 30
0.0
 40
0.5
 50
90.0
 51
180.0
  0
LINE
  8
BLACK
  6
CONTINUOUS
 10
197.48749999999998
 20
-55.412499999999994
 30
0.0
 11
197.48749999999998
 21
-68.4125
 31
0.0
  0
ARC
  8
BLACK
 10
197.98749999999998
 20
-68.4125
 30
0.0
 40
0.5
 50
-180.0
 51
-90.0
  0
LINE
  8
BLACK
  6
CONTINUOUS
 10
197.98749999999998
 20
-68.9125
 30
0.0
 11
211.58749999999998
 21
-68.9125
 31
0.0
  0
ARC
  8
BLACK
 10
211.58749999999998
 20
-68.4125
 30
0.0
 40
0.5
 50
-90.0
 51
-0.0
  0
LINE
  8
BLACK
  6
CONTINUOUS
 10
212.08749999999998
 20
-68.4125
 30
0.0
 11
212.08749999999998
 21
-55.412499999999994
 31
0.0
  0
ARC
  8
BLACK
 10
211.58749999999998
 20
-55.412499999999994
 30
0.0
 40
0.5
 50
0.0
 51
90.0
  0
LINE
  8
BLACK
  6
CONTINUOUS
 10
211.58749999999998
 20
-54.912499999999994
 30
0.0
 11
197.98749999999998
 21
-54.912499999999994
 31
0.0
  0
ARC
  8
BLACK
 10
197.98749999999998
 20
-55.412499999999994
 30
0.0
 40
0.5
 50
90.0
 51
180.0
  0
LINE
  8
BLACK
  6
CONTINUOUS
 10
73.6625
 20
-74.46249999999999
 30
0.0
 11
73.6625
 21
-87.46249999999999
 31
0.0
  0
ARC
  8
BLACK
 10
74.1625
 20
-87.46249999999999
 30
0.0
 40
0.5
 50
-180.0
 51
-90.0
  0
LINE
  8
BLACK
  6
CONTINUOUS
 10
74.1625
 20
-87.96249999999999
 30
0.0
 11
87.7625
 21
-87.96249999999999
 31
0.0
  0
ARC
  8
BLACK
 10
87.7625
 20
-87.46249999999999
 30
0.0
 40
0.5
 50
-90.0
 51
-0.0
  0
LINE
  8
BLACK
  6
CONTINUOUS
 10
88.2625
 20
-87.46249999999999
 30
0.0
 11
88.2625
 21
-74.46249999999999
 31
0.0
  0
ARC
  8
BLACK
 10
87.7625
 20
-74.46249999999999
 30
0.0
 40
0.5
 50
0.0
 51
90.0
  0
LINE
  8
BLACK
  6
CONTINUOUS
 10
87.7625
 20
-73.96249999999999
 30
0.0
 11
74.1625
 21
-73.96249999999999
 31
0.0
  0
ARC
  8
BLACK
 10
74.1625
 20
-74.46249999999999
 30
0.0
 40
0.5
 50
90.0
 51
180.0
  0
LINE
  8
BLACK
  6
CONTINUOUS
 10
149.86249999999998
 20
-74.46249999999999
 30
0.0
 11
149.86249999999998
 21
-87.46249999999999
 31
0.0
  0
ARC
  8
BLACK
 10
150.36249999999998
 20
-87.46249999999999
 30
0.0
 40
0.5
 50
-180.0
 51
-90.0
  0
LINE
  8
BLACK
  6
CONTINUOUS
 10
150.36249999999998
 20
-87.96249999999999
 30
0.0
 11
163.9625
 21
-87.96249999999999
 31
0.0
  0
ARC
  8
BLACK
 10
163.9625
 20
-87.46249999999999
 30
0.0
 40
0.5
 50
-90.0
 51
-0.0
  0
LINE
  8
BLACK
  6
CONTINUOUS
 10
164.4625
 20
-87.46249999999999
 30
0.0
 11
164.4625
 21
-74.46249999999999
 31
0.0
  0
ARC
  8
BLACK
 10
163.9625
 20
-74.46249999999999
 30
0.0
 40
0.5
 50
0.0
 51
90.0
  0
LINE
  8
BLACK
  6
CONTINUOUS
 10
163.9625
 20
-73.96249999999999
 30
0.0
 11
150.36249999999998
 21
-73.96249999999999
 31
0.0
  0
ARC
  8
BLACK
 10
150.36249999999998
 20
-74.46249999999999
 30
0.0
 40
0.5
 50
90.0
 51
180.0
  0
LINE
  8
BLACK
  6
CONTINUOUS
 10
45.0875
 20
-55.412499999999994
 30
0.0
 11
45.0875
 21
-68.4125
 31
0.0
  0
ARC
  8
BLACK
 10
45.5875
 20
-68.4125
 30
0.0
 40
0.5
 50
-180.0
 51
-90.0
  0
LINE
  8
BLACK
  6
CONTINUOUS
 10
45.5875
 20
-68.9125
 30
0.0
 11
59.1875
 21
-68.9125
 31
0.0
  0
ARC
  8
BLACK
 10
59.1875
 20
-68.4125
 30
0.0
 40
0.5
 50
-90.0
 51
-0.0
  0
LINE
  8
BLACK
  6
CONTINUOUS
 10
59.6875
 20
-68.4125
 30
0.0
 11
59.6875
 21
-55.412499999999994
 31
0.0
  0
ARC
  8
BLACK
 10
59.1875
 20
-55.412499999999994
 30
0.0
 40
0.5
 50
0.0
 51
90.0
  0
LINE
  8
BLACK
  6
CONTINUOUS
 10
59.1875
 20
-54.912499999999994
 30
0.0
 11
45.5875
 21
-54.912499999999994
 31
0.0
  0
ARC
  8
BLACK
 10
45.5875
 20
-55.412499999999994
 30
0.0
 40
0.5
 50
90.0
 51
180.0
  0
LINE
  8
BLACK
  6
CONTINUOUS
 10
49.849999999999994
 20
-17.3125
 30
0.0
 11
49.849999999999994
 21
-30.3125
 31
0.0
  0
ARC
  8
BLACK
 10
50.349999999999994
 20
-30.3125
 30
0.0
 40
0.5
 50
-180.0
 51
-90.0
  0
LINE
  8
BLACK
  6
CONTINUOUS
 10
50.349999999999994
 20
-30.8125
 30
0.0
 11
63.949999999999996
 21
-30.8125
 31
0.0
  0
ARC
  8
BLACK
 10
63.949999999999996
 20
-30.3125
 30
0.0
 40
0.5
 50
-90.0
 51
-0.0
  0
LINE
  8
BLACK
  6
CONTINUOUS
 10
64.45
 20
-30.3125
 30
0.0
 11
64.45
 21
-17.3125
 31
0.0
  0
ARC
  8
BLACK
 10
63.949999999999996
 20
-17.3125
 30
0.0
 40
0.5
 50
0.0
 51
90.0
  0
LINE
  8
BLACK
  6
CONTINUOUS
 10
63.949999999999996
 20
-16.8125
 30
0.0
 11
50.349999999999994
 21
-16.8125
 31
0.0
  0
ARC
  8
BLACK
 10
50.349999999999994
 20
-17.3125
 30
0.0
 40
0.5
 50
90.0
 51
180.0
  0
LINE
  8
BLACK
  6
CONTINUOUS
 10
30.799999999999997
 20
-17.3125
 30
0.0
 11
30.799999999999997
 21
-30.3125
 31
0.0
  0
ARC
  8
BLACK
 10
31.299999999999997
 20
-30.3125
 30
0.0
 40
0.5
 50
-180.0
 51
-90.0
  0
LINE
  8
BLACK
  6
CONTINUOUS
 10
31.299999999999997
 20
-30.8125
 30
0.0
 11
44.9
 21
-30.8125
 31
0.0
  0
ARC
  8
BLACK
 10
44.9
 20
-30.3125
 30
0.0
 40
0.5
 50
-90.0
 51
-0.0
  0
LINE
  8
BLACK
  6
CONTINUOUS
 10
45.4
 20
-30.3125
 30
0.0
 11
45.4
 21
-17.3125
 31
0.0
  0
ARC
  8
BLACK
 10
44.9
 20
-17.3125
 30
0.0
 40
0.5
 50
0.0
 51
90.0
  0
LINE
  8
BLACK
  6
CONTINUOUS
 10
44.9
 20
-16.8125
 30
0.0
 11
31.299999999999997
 21
-16.8125
 31
0.0
  0
ARC
  8
BLACK
 10
31.299999999999997
 20
-17.3125
 30
0.0
 40
0.5
 50
90.0
 51
180.0
  0
LINE
  8
BLACK
  6
CONTINUOUS
 10
102.2375
 20
-55.412499999999994
 30
0.0
 11
102.2375
 21
-68.4125
 31
0.0
  0
ARC
  8
BLACK
 10
102.7375
 20
-68.4125
 30
0.0
 40
0.5
 50
-180.0
 51
-90.0
  0
LINE
  8
BLACK
  6
CONTINUOUS
 10
102.7375
 20
-68.9125
 30
0.0
 11
116.33749999999999
 21
-68.9125
 31
0.0
  0
ARC
  8
BLACK
 10
116.33749999999999
 20
-68.4125
 30
0.0
 40
0.5
 50
-90.0
 51
-0.0
  0
LINE
  8
BLACK
  6
CONTINUOUS
 10
116.83749999999999
 20
-68.4125
 30
0.0
 11
116.83749999999999
 21
-55.412499999999994
 31
0.0
  0
ARC
  8
BLACK
 10
116.33749999999999
 20
-55.412499999999994
 30
0.0
 40
0.5
 50
0.0
 51
90.0
  0
LINE
  8
BLACK
  6
CONTINUOUS
 10
116.33749999999999
 20
-54.912499999999994
 30
0.0
 11
102.7375
 21
-54.912499999999994
 31
0.0
  0
ARC
  8
BLACK
 10
102.7375
 20
-55.412499999999994
 30
0.0
 40
0.5
 50
90.0
 51
180.0
  0
LINE
  8
BLACK
  6
CONTINUOUS
 10
92.71249999999999
 20
-74.46249999999999
 30
0.0
 11
92.71249999999999
 21
-87.46249999999999
 31
0.0
  0
ARC
  8
BLACK
 10
93.21249999999999
 20
-87.46249999999999
 30
0.0
 40
0.5
 50
-180.0
 51
-90.0
  0
LINE
  8
BLACK
  6
CONTINUOUS
 10
93.21249999999999
 20
-87.96249999999999
 30
0.0
 11
106.8125
 21
-87.96249999999999
 31
0.0
  0
ARC
  8
BLACK
 10
106.8125
 20
-87.46249999999999
 30
0.0
 40
0.5
 50
-90.0
 51
-0.0
  0
LINE
  8
BLACK
  6
CONTINUOUS
 10
107.3125
 20
-87.46249999999999
 30
0.0
 11
107.3125
 21
-74.46249999999999
 31
0.0
  0
ARC
  8
BLACK
 10
106.8125
 20
-74.46249999999999
 30
0.0
 40
0.5
 50
0.0
 51
90.0
  0
LINE
  8
BLACK
  6
CONTINUOUS
 10
106.8125
 20
-73.96249999999999
 30
0.0
 11
93.21249999999999
 21
-73.96249999999999
 31
0.0
  0
ARC
  8
BLACK
 10
93.21249999999999
 20
-74.46249999999999
 30
0.0
 40
0.5
 50
90.0
 51
180.0
  0
LINE
  8
BLACK
  6
CONTINUOUS
 10
97.475
 20
-36.3625
 30
0.0
 11
97.475
 21
-49.3625
 31
0.0
  0
ARC
  8
BLACK
 10
97.975
 20
-49.3625
 30
0.0
 40
0.5
 50
-180.0
 51
-90.0
  0
LINE
  8
BLACK
  6
CONTINUOUS
 10
97.975
 20
-49.8625
 30
0.0
 11
111.57499999999999
 21
-49.8625
 31
0.0
  0
ARC
  8
BLACK
 10
111.57499999999999
 20
-49.3625
 30
0.0
 40
0.5
 50
-90.0
 51
-0.0
  0
LINE
  8
BLACK
  6
CONTINUOUS
 10
112.07499999999999
 20
-49.3625
 30
0.0
 11
112.07499999999999
 21
-36.3625
 31
0.0
  0
ARC
  8
BLACK
 10
111.57499999999999
 20
-36.3625
 30
0.0
 40
0.5
 50
0.0
 51
90.0
  0
LINE
  8
BLACK
  6
CONTINUOUS
 10
111.57499999999999
 20
-35.8625
 30
0.0
 11
97.975
 21
-35.8625
 31
0.0
  0
ARC
  8
BLACK
 10
97.975
 20
-36.3625
 30
0.0
 40
0.5
 50
90.0
 51
180.0
  0
LINE
  8
BLACK
  6
CONTINUOUS
 10
-7.3
 20
-17.312500999999997
 30
0.0
 11
-7.3
 21
-30.312499
 31
0.0
  0
ARC
  8
BLACK
 10
-6.799999
 20
-30.312499
 30
0.0
 40
0.500001000001
 50
-180.0
 51
-90.00011459
  0
LINE
  8
BLACK
  6
CONTINUOUS
 10
-6.8
 20
-30.8125
 30
0.0
 11
6.8
 21
-30.8125
 31
0.0
  0
ARC
  8
BLACK
 10
6.8
 20
-30.3125
 30
0.0
 40
0.5
 50
-90.0
 51
-0.0
  0
LINE
  8
BLACK
  6
CONTINUOUS
 10
7.3
 20
-30.3125
 30
0.0
 11
7.3
 21
-17.3125
 31
0.0
  0
ARC
  8
BLACK
 10
6.8
 20
-17.3125
 30
0.0
 40
0.5
 50
0.0
 51
90.0
  0
LINE
  8
BLACK
  6
CONTINUOUS
 10
6.8
 20
-16.8125
 30
0.0
 11
-6.799999
 21
-16.8125
 31
0.0
  0
ARC
  8
BLACK
 10
-6.799999
 20
-17.312500999999997
 30
0.0
 40
0.500001
 50
90.0
 51
180.0
  0
CIRCLE
  8
BLACK
 10
138.11249999999998
 20
-61.912499999999994
 30
0.0
 40
1.0
  0
CIRCLE
  8
BLACK
 10
219.08419999999998
 20
-23.4625
 30
0.0
 40
1.0
  0
CIRCLE
  8
BLACK
 10
33.3375
 20
-80.96249999999999
 30
0.0
 40
1.0
  0
ARC
  8
BLACK
 10
168.725
 20
6.5
 30
0.0
 40
0.5
 50
0.0
 51
90.0
  0
LINE
  8
BLACK
  6
CONTINUOUS
 10
168.725
 20
7.0
 30
0.0
 11
155.125
 21
7.0
 31
0.0
  0
ARC
  8
BLACK
 10
155.125
 20
6.5
 30
0.0
 40
0.5
 50
90.0
 51
180.0
  0
LINE
  8
BLACK
  6
CONTINUOUS
 10
154.625
 20
6.5
 30
0.0
 11
154.625
 21
-6.5
 31
0.0
  0
ARC
  8
BLACK
 10
155.125
 20
-6.5
 30
0.0
 40
0.5
 50
-180.0
 51
-90.0
  0
LINE
  8
BLACK
  6
CONTINUOUS
 10
155.125
 20
-7.0
 30
0.0
 11
168.725
 21
-7.0
 31
0.0
  0
ARC
  8
BLACK
 10
168.725
 20
-6.5
 30
0.0
 40
0.5
 50
-90.0
 51
-0.0
  0
LINE
  8
BLACK
  6
CONTINUOUS
 10
169.225
 20
-6.5
 30
0.0
 11
169.225
 21
6.5
 31
0.0
  0
ARC
  8
BLACK
 10
283.7125
 20
-49.3625
 30
0.0
 40
0.5
 50
-180.0
 51
-90.0
  0
LINE
  8
BLACK
  6
CONTINUOUS
 10
283.7125
 20
-49.8625
 30
0.0
 11
297.3125
 21
-49.8625
 31
0.0
  0
ARC
  8
BLACK
 10
297.3125
 20
-49.3625
 30
0.0
 40
0.5
 50
-90.0
 51
-0.0
  0
LINE
  8
BLACK
  6
CONTINUOUS
 10
297.8125
 20
-49.3625
 30
0.0
 11
297.8125
 21
-36.3625
 31
0.0
  0
ARC
  8
BLACK
 10
297.3125
 20
-36.3625
 30
0.0
 40
0.5
 50
0.0
 51
90.0
  0
LINE
  8
BLACK
  6
CONTINUOUS
 10
297.3125
 20
-35.8625
 30
0.0
 11
283.7125
 21
-35.8625
 31
0.0
  0
ARC
  8
BLACK
 10
283.7125
 20
-36.3625
 30
0.0
 40
0.5
 50
90.0
 51
180.0
  0
LINE
  8
BLACK
  6
CONTINUOUS
 10
283.2125
 20
-36.3625
 30
0.0
 11
283.2125
 21
-49.3625
 31
0.0
  0
LINE
  8
BLACK
  6
CONTINUOUS
 10
302.2625
 20
-36.3625
 30
0.0
 11
302.2625
 21
-49.3625
 31
0.0
  0
ARC
  8
BLACK
 10
302.7625
 20
-49.3625
 30
0.0
 40
0.5
 50
-180.0
 51
-90.0
  0
LINE
  8
BLACK
  6
CONTINUOUS
 10
302.7625
 20
-49.8625
 30
0.0
 11
316.3625
 21
-49.8625
 31
0.0
  0
ARC
  8
BLACK
 10
316.3625
 20
-49.3625
 30
0.0
 40
0.5
 50
-90.0
 51
-0.0
  0
LINE
  8
BLACK
  6
CONTINUOUS
 10
316.8625
 20
-49.3625
 30
0.0
 11
316.8625
 21
-36.3625
 31
0.0
  0
ARC
  8
BLACK
 10
316.3625
 20
-36.3625
 30
0.0
 40
0.5
 50
0.0
 51
90.0
  0
LINE
  8
BLACK
  6
CONTINUOUS
 10
316.3625
 20
-35.8625
 30
0.0
 11
302.7625
 21
-35.8625
 31
0.0
  0
ARC
  8
BLACK
 10
302.7625
 20
-36.3625
 30
0.0
 40
0.5
 50
90.0
 51
180.0
  0
ARC
  8
BLACK
 10
259.9
 20
6.5
 30
0.0
 40
0.5
 50
90.0
 51
180.0
  0
LINE
  8
BLACK
  6
CONTINUOUS
 10
259.4
 20
6.5
 30
0.0
 11
259.4
 21
-6.5
 31
0.0
  0
ARC
  8
BLACK
 10
259.9
 20
-6.5
 30
0.0
 40
0.5
 50
-180.0
 51
-90.0
  0
LINE
  8
BLACK
  6
CONTINUOUS
 10
259.9
 20
-7.0
 30
0.0
 11
273.5
 21
-7.0
 31
0.0
  0
ARC
  8
BLACK
 10
273.5
 20
-6.5
 30
0.0
 40
0.5
 50
-90.0
 51
-0.0
  0
LINE
  8
BLACK
  6
CONTINUOUS
 10
274.0
 20
-6.5
 30
0.0
 11
274.0
 21
6.5
 31
0.0
  0
ARC
  8
BLACK
 10
273.5
 20
6.5
 30
0.0
 40
0.5
 50
0.0
 51
90.0
  0
LINE
  8
BLACK
  6
CONTINUOUS
 10
273.5
 20
7.0
 30
0.0
 11
259.9
 21
7.0
 31
0.0
  0
CIRCLE
  8
BLACK
 10
328.6125
 20
-80.96249999999999
 30
0.0
 40
1.0
  0
LINE
  8
BLACK
  6
CONTINUOUS
 10
335.41249999999997
 20
-93.0125
 30
0.0
 11
321.8125
 21
-93.0125
 31
0.0
  0
ARC
  8
BLACK
 10
321.8125
 20
-93.5125
 30
0.0
 40
0.5
 50
90.0
 51
180.0
  0
LINE
  8
BLACK
  6
CONTINUOUS
 10
321.3125
 20
-93.5125
 30
0.0
 11
321.3125
 21
-106.51249999999999
 31
0.0
  0
ARC
  8
BLACK
 10
321.8125
 20
-106.51249999999999
 30
0.0
 40
0.5
 50
-180.0
 51
-90.0
  0
ARC
  8
BLACK
 10
335.41249999999997
 20
-106.51249999999999
 30
0.0
 40
0.5
 50
-90.0
 51
-0.0
  0
LINE
  8
BLACK
  6
CONTINUOUS
 10
335.91249999999997
 20
-106.51249999999999
 30
0.0
 11
335.91249999999997
 21
-93.5125
 31
0.0
  0
ARC
  8
BLACK
 10
335.41249999999997
 20
-93.5125
 30
0.0
 40
0.5
 50
0.0
 51
90.0
  0
ARC
  8
BLACK
 10
302.7625
 20
-106.51249999999999
 30
0.0
 40
0.5
 50
-180.0
 51
-90.0
  0
LINE
  8
BLACK
  6
CONTINUOUS
 10
302.7625
 20
-107.01249999999999
 30
0.0
 11
316.3625
 21
-107.01249999999999
 31
0.0
  0
ARC
  8
BLACK
 10
316.3625
 20
-106.51249999999999
 30
0.0
 40
0.5
 50
-90.0
 51
-0.0
  0
LINE
  8
BLACK
  6
CONTINUOUS
 10
316.8625
 20
-106.51249999999999
 30
0.0
 11
316.8625
 21
-93.5125
 31
0.0
  0
ARC
  8
BLACK
 10
316.3625
 20
-93.5125
 30
0.0
 40
0.5
 50
0.0
 51
90.0
  0
LINE
  8
BLACK
  6
CONTINUOUS
 10
316.3625
 20
-93.0125
 30
0.0
 11
302.7625
 21
-93.0125
 31
0.0
  0
ARC
  8
BLACK
 10
302.7625
 20
-93.5125
 30
0.0
 40
0.5
 50
90.0
 51
180.0
  0
LINE
  8
BLACK
  6
CONTINUOUS
 10
302.2625
 20
-93.5125
 30
0.0
 11
302.2625
 21
-106.51249999999999
 31
0.0
  0
LINE
  8
BLACK
  6
CONTINUOUS
 10
316.3625
 20
-73.96249999999999
 30
0.0
 11
302.7625
 21
-73.96249999999999
 31
0.0
  0
ARC
  8
BLACK
 10
302.7625
 20
-74.46249999999999
 30
0.0
 40
0.5
 50
90.0
 51
180.0
  0
LINE
  8
BLACK
  6
CONTINUOUS
 10
302.2625
 20
-74.46249999999999
 30
0.0
 11
302.2625
 21
-87.46249999999999
 31
0.0
  0
ARC
  8
BLACK
 10
302.7625
 20
-87.46249999999999
 30
0.0
 40
0.5
 50
-180.0
 51
-90.0
  0
LINE
  8
BLACK
  6
CONTINUOUS
 10
302.7625
 20
-87.96249999999999
 30
0.0
 11
316.3625
 21
-87.96249999999999
 31
0.0
  0
ARC
  8
BLACK
 10
316.3625
 20
-87.46249999999999
 30
0.0
 40
0.5
 50
-90.0
 51
-0.0
  0
LINE
  8
BLACK
  6
CONTINUOUS
 10
316.8625
 20
-87.46249999999999
 30
0.0
 11
316.8625
 21
-74.46249999999999
 31
0.0
  0
ARC
  8
BLACK
 10
316.3625
 20
-74.46249999999999
 30
0.0
 40
0.5
 50
0.0
 51
90.0
  0
ARC
  8
BLACK
 10
136.075
 20
-6.5
 30
0.0
 40
0.5
 50
-180.0
 51
-90.0
  0
LINE
  8
BLACK
  6
CONTINUOUS
 10
136.075
 20
-7.0
 30
0.0
 11
149.67499999999998
 21
-7.0
 31
0.0
  0
ARC
  8
BLACK
 10
149.67499999999998
 20
-6.5
 30
0.0
 40
0.5
 50
-90.0
 51
-0.0
  0
LINE
  8
BLACK
  6
CONTINUOUS
 10
150.17499999999998
 20
-6.5
 30
0.0
 11
150.17499999999998
 21
6.5
 31
0.0
  0
ARC
  8
BLACK
 10
149.67499999999998
 20
6.5
 30
0.0
 40
0.5
 50
0.0
 51
90.0
  0
LINE
  8
BLACK
  6
CONTINUOUS
 10
149.67499999999998
 20
7.0
 30
0.0
 11
136.075
 21
7.0
 31
0.0
  0
ARC
  8
BLACK
 10
136.075
 20
6.5
 30
0.0
 40
0.5
 50
90.0
 51
180.0
  0
LINE
  8
BLACK
  6
CONTINUOUS
 10
135.575
 20
6.5
 30
0.0
 11
135.575
 21
-6.5
 31
0.0
  0
ARC
  8
BLACK
 10
130.625
 20
6.5
 30
0.0
 40
0.5
 50
0.0
 51
90.0
  0
LINE
  8
BLACK
  6
CONTINUOUS
 10
130.625
 20
7.0
 30
0.0
 11
117.02499999999999
 21
7.0
 31
0.0
  0
ARC
  8
BLACK
 10
117.02499999999999
 20
6.5
 30
0.0
 40
0.5
 50
90.0
 51
180.0
  0
LINE
  8
BLACK
  6
CONTINUOUS
 10
116.52499999999999
 20
6.5
 30
0.0
 11
116.52499999999999
 21
-6.5
 31
0.0
  0
ARC
  8
BLACK
 10
117.02499999999999
 20
-6.5
 30
0.0
 40
0.5
 50
-180.0
 51
-90.0
  0
LINE
  8
BLACK
  6
CONTINUOUS
 10
117.02499999999999
 20
-7.0
 30
0.0
 11
130.625
 21
-7.0
 31
0.0
  0
ARC
  8
BLACK
 10
130.625
 20
-6.5
 30
0.0
 40
0.5
 50
-90.0
 51
-0.0
  0
LINE
  8
BLACK
  6
CONTINUOUS
 10
131.125
 20
-6.5
 30
0.0
 11
131.125
 21
6.5
 31
0.0
  0
CIRCLE
  8
BLACK
 10
195.2625
 20
0.0
 30
0.0
 40
1.0
  0
LINE
  8
BLACK
  6
CONTINUOUS
 10
321.3125
 20
-36.3625
 30
0.0
 11
321.3125
 21
-49.3625
 31
0.0
  0
ARC
  8
BLACK
 10
321.8125
 20
-49.3625
 30
0.0
 40
0.5
 50
-180.0
 51
-90.0
  0
LINE
  8
BLACK
  6
CONTINUOUS
 10
321.8125
 20
-49.8625
 30
0.0
 11
335.41249999999997
 21
-49.8625
 31
0.0
  0
ARC
  8
BLACK
 10
335.41249999999997
 20
-49.3625
 30
0.0
 40
0.5
 50
-90.0
 51
-0.0
  0
LINE
  8
BLACK
  6
CONTINUOUS
 10
335.91249999999997
 20
-49.3625
 30
0.0
 11
335.91249999999997
 21
-36.3625
 31
0.0
  0
ARC
  8
BLACK
 10
335.41249999999997
 20
-36.3625
 30
0.0
 40
0.5
 50
0.0
 51
90.0
  0
LINE
  8
BLACK
  6
CONTINUOUS
 10
335.41249999999997
 20
-35.8625
 30
0.0
 11
321.8125
 21
-35.8625
 31
0.0
  0
ARC
  8
BLACK
 10
321.8125
 20
-36.3625
 30
0.0
 40
0.5
 50
90.0
 51
180.0
  0
LINE
  8
BLACK
  6
CONTINUOUS
 10
316.3625
 20
-16.8125
 30
0.0
 11
302.7625
 21
-16.8125
 31
0.0
  0
ARC
  8
BLACK
 10
302.7625
 20
-17.3125
 30
0.0
 40
0.5
 50
90.0
 51
180.0
  0
LINE
  8
BLACK
  6
CONTINUOUS
 10
302.2625
 20
-17.3125
 30
0.0
 11
302.2625
 21
-30.3125
 31
0.0
  0
ARC
  8
BLACK
 10
302.7625
 20
-30.3125
 30
0.0
 40
0.5
 50
-180.0
 51
-90.0
  0
LINE
  8
BLACK
  6
CONTINUOUS
 10
302.7625
 20
-30.8125
 30
0.0
 11
316.3625
 21
-30.8125
 31
0.0
  0
ARC
  8
BLACK
 10
316.3625
 20
-30.3125
 30
0.0
 40
0.5
 50
-90.0
 51
-0.0
  0
LINE
  8
BLACK
  6
CONTINUOUS
 10
316.8625
 20
-30.3125
 30
0.0
 11
316.8625
 21
-17.3125
 31
0.0
  0
ARC
  8
BLACK
 10
316.3625
 20
-17.3125
 30
0.0
 40
0.5
 50
0.0
 51
90.0
  0
ARC
  8
BLACK
 10
297.3125
 20
-106.51249999999999
 30
0.0
 40
0.5
 50
-90.0
 51
-0.0
  0
LINE
  8
BLACK
  6
CONTINUOUS
 10
297.8125
 20
-106.51249999999999
 30
0.0
 11
297.8125
 21
-93.5125
 31
0.0
  0
ARC
  8
BLACK
 10
297.3125
 20
-93.5125
 30
0.0
 40
0.5
 50
0.0
 51
90.0
  0
LINE
  8
BLACK
  6
CONTINUOUS
 10
297.3125
 20
-93.0125
 30
0.0
 11
283.7125
 21
-93.0125
 31
0.0
  0
ARC
  8
BLACK
 10
283.7125
 20
-93.5125
 30
0.0
 40
0.5
 50
90.0
 51
180.0
  0
LINE
  8
BLACK
  6
CONTINUOUS
 10
283.2125
 20
-93.5125
 30
0.0
 11
283.2125
 21
-106.51249999999999
 31
0.0
  0
ARC
  8
BLACK
 10
283.7125
 20
-106.51249999999999
 30
0.0
 40
0.5
 50
-180.0
 51
-90.0
  0
LINE
  8
BLACK
  6
CONTINUOUS
 10
283.7125
 20
-107.01249999999999
 30
0.0
 11
297.3125
 21
-107.01249999999999
 31
0.0
  0
LINE
  8
BLACK
  6
CONTINUOUS
 10
321.3125
 20
-17.3125
 30
0.0
 11
321.3125
 21
-30.3125
 31
0.0
  0
ARC
  8
BLACK
 10
321.8125
 20
-30.3125
 30
0.0
 40
0.5
 50
-180.0
 51
-90.0
  0
LINE
  8
BLACK
  6
CONTINUOUS
 10
321.8125
 20
-30.8125
 30
0.0
 11
335.41249999999997
 21
-30.8125
 31
0.0
  0
ARC
  8
BLACK
 10
335.41249999999997
 20
-30.3125
 30
0.0
 40
0.5
 50
-90.0
 51
-0.0
  0
LINE
  8
BLACK
  6
CONTINUOUS
 10
335.91249999999997
 20
-30.3125
 30
0.0
 11
335.91249999999997
 21
-17.3125
 31
0.0
  0
ARC
  8
BLACK
 10
335.41249999999997
 20
-17.3125
 30
0.0
 40
0.5
 50
0.0
 51
90.0
  0
LINE
  8
BLACK
  6
CONTINUOUS
 10
335.41249999999997
 20
-16.8125
 30
0.0
 11
321.8125
 21
-16.8125
 31
0.0
  0
ARC
  8
BLACK
 10
321.8125
 20
-17.3125
 30
0.0
 40
0.5
 50
90.0
 51
180.0
  0
ARC
  8
BLACK
 10
297.3125
 20
-6.5
 30
0.0
 40
0.5
 50
-90.0
 51
-0.0
  0
LINE
  8
BLACK
  6
CONTINUOUS
 10
297.8125
 20
-6.5
 30
0.0
 11
297.8125
 21
6.5
 31
0.0
  0
ARC
  8
BLACK
 10
297.3125
 20
6.5
 30
0.0
 40
0.5
 50
0.0
 51
90.0
  0
LINE
  8
BLACK
  6
CONTINUOUS
 10
297.3125
 20
7.0
 30
0.0
 11
283.7125
 21
7.0
 31
0.0
  0
ARC
  8
BLACK
 10
283.7125
 20
6.5
 30
0.0
 40
0.5
 50
90.0
 51
180.0
  0
LINE
  8
BLACK
  6
CONTINUOUS
 10
283.2125
 20
6.5
 30
0.0
 11
283.2125
 21
-6.5
 31
0.0
  0
ARC
  8
BLACK
 10
283.7125
 20
-6.5
 30
0.0
 40
0.5
 50
-180.0
 51
-90.0
  0
LINE
  8
BLACK
  6
CONTINUOUS
 10
283.7125
 20
-7.0
 30
0.0
 11
297.3125
 21
-7.0
 31
0.0
  0
CIRCLE
  8
BLACK
 10
300.03749999999997
 20
-23.8125
 30
0.0
 40
1.0
  0
LINE
  8
BLACK
  6
CONTINUOUS
 10
316.3625
 20
7.0
 30
0.0
 11
302.7625
 21
7.0
 31
0.0
  0
ARC
  8
BLACK
 10
302.7625
 20
6.5
 30
0.0
 40
0.5
 50
90.0
 51
180.0
  0
LINE
  8
BLACK
  6
CONTINUOUS
 10
302.2625
 20
6.5
 30
0.0
 11
302.2625
 21
-6.5
 31
0.0
  0
ARC
  8
BLACK
 10
302.7625
 20
-6.5
 30
0.0
 40
0.5
 50
-180.0
 51
-90.0
  0
LINE
  8
BLACK
  6
CONTINUOUS
 10
302.7625
 20
-7.0
 30
0.0
 11
316.3625
 21
-7.0
 31
0.0
  0
ARC
  8
BLACK
 10
316.3625
 20
-6.5
 30
0.0
 40
0.5
 50
-90.0
 51
-0.0
  0
LINE
  8
BLACK
  6
CONTINUOUS
 10
316.8625
 20
-6.5
 30
0.0
 11
316.8625
 21
6.5
 31
0.0
  0
ARC
  8
BLACK
 10
316.3625
 20
6.5
 30
0.0
 40
0.5
 50
0.0
 51
90.0
  0
LINE
  8
BLACK
  6
CONTINUOUS
 10
283.2125
 20
-17.3125
 30
0.0
 11
283.2125
 21
-30.3125
 31
0.0
  0
ARC
  8
BLACK
 10
283.7125
 20
-30.3125
 30
0.0
 40
0.5
 50
-180.0
 51
-90.0
  0
LINE
  8
BLACK
  6
CONTINUOUS
 10
283.7125
 20
-30.8125
 30
0.0
 11
297.3125
 21
-30.8125
 31
0.0
  0
ARC
  8
BLACK
 10
297.3125
 20
-30.3125
 30
0.0
 40
0.5
 50
-90.0
 51
-0.0
  0
LINE
  8
BLACK
  6
CONTINUOUS
 10
297.8125
 20
-30.3125
 30
0.0
 11
297.8125
 21
-17.3125
 31
0.0
  0
ARC
  8
BLACK
 10
297.3125
 20
-17.3125
 30
0.0
 40
0.5
 50
0.0
 51
90.0
  0
LINE
  8
BLACK
  6
CONTINUOUS
 10
297.3125
 20
-16.8125
 30
0.0
 11
283.7125
 21
-16.8125
 31
0.0
  0
ARC
  8
BLACK
 10
283.7125
 20
-17.3125
 30
0.0
 40
0.5
 50
90.0
 51
180.0
  0
ARC
  8
BLACK
 10
335.41249999999997
 20
-6.5
 30
0.0
 40
0.5
 50
-90.0
 51
-0.0
  0
LINE
  8
BLACK
  6
CONTINUOUS
 10
335.91249999999997
 20
-6.5
 30
0.0
 11
335.91249999999997
 21
6.5
 31
0.0
  0
ARC
  8
BLACK
 10
335.41249999999997
 20
6.5
 30
0.0
 40
0.5
 50
0.0
 51
90.0
  0
LINE
  8
BLACK
  6
CONTINUOUS
 10
335.41249999999997
 20
7.0
 30
0.0
 11
321.8125
 21
7.0
 31
0.0
  0
ARC
  8
BLACK
 10
321.8125
 20
6.5
 30
0.0
 40
0.5
 50
90.0
 51
180.0
  0
LINE
  8
BLACK
  6
CONTINUOUS
 10
321.3125
 20
6.5
 30
0.0
 11
321.3125
 21
-6.5
 31
0.0
  0
ARC
  8
BLACK
 10
321.8125
 20
-6.5
 30
0.0
 40
0.5
 50
-180.0
 51
-90.0
  0
LINE
  8
BLACK
  6
CONTINUOUS
 10
321.8125
 20
-7.0
 30
0.0
 11
335.41249999999997
 21
-7.0
 31
0.0
  0
CIRCLE
  8
BLACK
 10
319.0875
 20
-100.01249999999999
 30
0.0
 40
1.0
  0
CIRCLE
  8
BLACK
 10
319.0875
 20
0.0
 30
0.0
 40
1.0
  0
CIRCLE
  8
BLACK
 10
278.60625
 20
0.0
 30
0.0
 40
1.0
  0
CIRCLE
  8
BLACK
 10
319.0875
 20
-42.8625
 30
0.0
 40
1.0
  0
CIRCLE
  8
BLACK
 10
303.609375
 20
-58.340624999999996
 30
0.0
 40
1.0
  0
ARC
  8
BLACK
 10
6.8
 20
-6.5
 30
0.0
 40
0.5
 50
-90.0
 51
-0.0
  0
LINE
  8
BLACK
  6
CONTINUOUS
 10
7.3
 20
-6.5
 30
0.0
 11
7.3
 21
6.5
 31
0.0
  0
ARC
  8
BLACK
 10
6.8
 20
6.5
 30
0.0
 40
0.5
 50
0.0
 51
90.0
  0
LINE
  8
BLACK
  6
CONTINUOUS
 10
6.8
 20
7.0
 30
0.0
 11
-6.8
 21
7.0
 31
0.0
  0
ARC
  8
BLACK
 10
-6.799999
 20
6.499999
 30
0.0
 40
0.500001
 50
90.00011459
 51
180.0
  0
LINE
  8
BLACK
  6
CONTINUOUS
 10
-7.3
 20
6.499999
 30
0.0
 11
-7.3
 21
-6.5
 31
0.0
  0
ARC
  8
BLACK
 10
-6.799999
 20
-6.499999
 30
0.0
 40
0.500001
 50
-179.99988541
 51
-90.0
  0
LINE
  8
BLACK
  6
CONTINUOUS
 10
-6.799999
 20
-7.0
 30
0.0
 11
6.8
 21
-7.0
 31
0.0
  0
CIRCLE
  8
BLACK
 10
11.90625
 20
0.0
 30
0.0
 40
1.0
  0
CIRCLE
  8
BLACK
 10
114.3
 20
0.0
 30
0.0
 40
1.0
  0
CIRCLE
  8
BLACK
 10
277.415625
 20
-100.01249999999999
 30
0.0
 40
1.0
  0
CIRCLE
  8
BLACK
 10
16.66875
 20
-42.8625
 30
0.0
 40
1.0
  0
CIRCLE
  8
BLACK
 10
228.6
 20
-42.8625
 30
0.0
 40
1.0
  0
CIRCLE
  8
BLACK
 10
204.78755199999998
 20
-112.4125
 30
0.0
 40
1.5
  0
CIRCLE
  8
BLACK
 10
38.100052
 20
-112.4125
 30
0.0
 40
1.5
  0
CIRCLE
  8
BLACK
 10
109.5375
 20
12.774999999999999
 30
0.0
 40
1.5
  0
CIRCLE
  8
BLACK
 10
304.8
 20
12.774999999999999
 30
0.0
 40
1.5
  0
CIRCLE
  8
BLACK
 10
219.075
 20
12.774999999999999
 30
0.0
 40
1.5
  0
CIRCLE
  8
BLACK
 10
23.8125
 20
12.774999999999999
 30
0.0
 40
1.5
  0
CIRCLE
  8
BLACK
 10
300.03749999999997
 20
-112.4125
 30
0.0
 40
1.5
  0
LINE
  8
BLACK
  6
CONTINUOUS
 10
16.405653
 20
9.964347
 30
0.0
 11
21.514402999999998
 21
15.073096999999999
 31
0.0
  0
LINE
  8
BLACK
  6
CONTINUOUS
 10
196.69469999999998
 20
-109.5375
 30
0.0
 11
46.1926
 21
-109.5375
 31
0.0
  0
LINE
  8
BLACK
  6
CONTINUOUS
 10
202.474132
 20
-114.695274
 30
0.0
 11
197.74310499999999
 21
-109.964248
 31
0.0
  0
LINE
  8
BLACK
  6
CONTINUOUS
 10
211.81937299999998
 20
-109.976873
 30
0.0
 11
207.085623
 21
-114.710623
 31
0.0
  0
LINE
  8
BLACK
  6
CONTINUOUS
 10
291.945
 20
-109.5375
 30
0.0
 11
212.8801
 21
-109.5375
 31
0.0
  0
LINE
  8
BLACK
  6
CONTINUOUS
 10
297.739403
 20
-114.71059699999999
 30
0.0
 11
293.005646
 21
-109.97684
 31
0.0
  0
LINE
  8
BLACK
  6
CONTINUOUS
 10
307.06944699999997
 20
-109.97674699999999
 30
0.0
 11
302.335597
 21
-114.71059699999999
 31
0.0
  0
LINE
  8
BLACK
  6
CONTINUOUS
 10
337.106199
 20
-109.5375
 30
0.0
 11
308.11366899999996
 21
-109.5375
 31
0.0
  0
LINE
  8
BLACK
  6
CONTINUOUS
 10
338.1375
 20
8.485351999999999
 30
0.0
 11
338.1375
 21
-108.51259999999999
 31
0.0
  0
LINE
  8
BLACK
  6
CONTINUOUS
 10
313.2675
 20
9.525
 30
0.0
 11
337.1122
 21
9.525
 31
0.0
  0
LINE
  8
BLACK
  6
CONTINUOUS
 10
307.098097
 20
15.073096999999999
 30
0.0
 11
312.20685399999996
 21
9.96434
 31
0.0
  0
LINE
  8
BLACK
  6
CONTINUOUS
 10
-8.499998
 20
9.525
 30
0.0
 11
15.359497999999999
 21
9.525
 31
0.0
  0
LINE
  8
BLACK
  6
CONTINUOUS
 10
26.110597
 20
15.073096999999999
 30
0.0
 11
31.219354
 21
9.96434
 31
0.0
  0
LINE
  8
BLACK
  6
CONTINUOUS
 10
297.393053
 20
9.964247
 30
0.0
 11
302.50190299999997
 21
15.073096999999999
 31
0.0
  0
LINE
  8
BLACK
  6
CONTINUOUS
 10
118.005
 20
9.525
 30
0.0
 11
210.623739
 21
9.525
 31
0.0
  0
LINE
  8
BLACK
  6
CONTINUOUS
 10
221.373097
 20
15.073096999999999
 30
0.0
 11
226.481854
 21
9.96434
 31
0.0
  0
LINE
  8
BLACK
  6
CONTINUOUS
 10
227.5425
 20
9.525
 30
0.0
 11
296.34873899999997
 21
9.525
 31
0.0
  0
LINE
  8
BLACK
  6
CONTINUOUS
 10
211.668053
 20
9.964247
 30
0.0
 11
216.776903
 21
15.073096999999999
 31
0.0
  0
LINE
  8
BLACK
  6
CONTINUOUS
 10
102.130752
 20
9.964447
 30
0.0
 11
107.239403
 21
15.073096999999999
 31
0.0
  0
LINE
  8
BLACK
  6
CONTINUOUS
 10
-9.525
 20
-108.512498
 30
0.0
 11
-9.525
 21
8.499998
 31
0.0
  0
LINE
  8
BLACK
  6
CONTINUOUS
 10
45.131873
 20
-109.976873
 30
0.0
 11
40.398147
 21
-114.71059899999999
 31
0.0
  0
LINE
  8
BLACK
  6
CONTINUOUS
 10
32.28
 20
9.525
 30
0.0
 11
101.069901
 21
9.525
 31
0.0
  0
LINE
  8
BLACK
  6
CONTINUOUS
 10
111.85565899999999
 20
15.053035
 30
0.0
 11
116.94435399999999
 21
9.96434
 31
0.0
  0
LINE
  8
BLACK
  6
CONTINUOUS
 10
35.801953999999995
 20
-114.710596
 30
0.0
 11
31.055605
 21
-109.964248
 31
0.0
  0
LINE
  8
BLACK
  6
CONTINUOUS
 10
30.007199999999997
 20
-109.5375
 30
0.0
 11
-8.499998
 21
-109.5375
 31
0.0
  0
ARC
  8
BLACK
 10
-8.499998
 20
8.499998
 30
0.0
 40
1.025002
 50
90.0
 51
180.0
  0
ARC
  8
BLACK
 10
15.3448
 20
11.0252
 30
0.0
 40
1.5002727002841851
 50
-89.43867056
 51
-45.0
  0
ARC
  8
BLACK
 10
23.8125
 20
12.775039999999999
 30
0.0
 40
3.2499603471922542
 50
44.99950136
 51
135.00049864
  0
ARC
  8
BLACK
 10
38.100049999999996
 20
-112.4125
 30
0.0
 40
3.2500013592627925
 50
-135.0
 51
-45.00002493
  0
ARC
  8
BLACK
 10
30.007199999999997
 20
-111.03869999999999
 30
0.0
 40
1.5011999999999999
 50
45.70297165
 51
90.0
  0
ARC
  8
BLACK
 10
-8.499998
 20
-108.512498
 30
0.0
 40
1.025002
 50
-180.0
 51
-90.0
  0
ARC
  8
BLACK
 10
32.28
 20
11.0251
 30
0.0
 40
1.5001
 50
-134.99692112
 51
-90.0
  0
ARC
  8
BLACK
 10
101.0701
 20
11.0251
 30
0.0
 40
1.4999891504650957
 50
-90.00760131
 51
-45.00002701
  0
ARC
  8
BLACK
 10
46.1926
 20
-111.0376
 30
0.0
 40
1.500094509375326
 50
90.0
 51
135.0
  0
ARC
  8
BLACK
 10
196.69469999999998
 20
-111.03869999999999
 30
0.0
 40
1.5011999999999999
 50
45.70297165
 51
90.0
  0
ARC
  8
BLACK
 10
204.7875
 20
-112.4125
 30
0.0
 40
3.2500367146015443
 50
-135.38138099
 51
-45.0
  0
ARC
  8
BLACK
 10
212.8801
 20
-111.0376
 30
0.0
 40
1.500094509375326
 50
90.0
 51
135.0
  0
ARC
  8
BLACK
 10
291.945
 20
-111.0376
 30
0.0
 40
1.5001
 50
45.00307888
 51
90.0
  0
ARC
  8
BLACK
 10
300.03749999999997
 20
-112.4125
 30
0.0
 40
3.2499999450489225
 50
-135.0
 51
-45.0
  0
ARC
  8
BLACK
 10
308.13009999999997
 20
-111.03739999999999
 30
0.0
 40
1.499988443358148
 50
90.62763471
 51
135.0
  0
ARC
  8
BLACK
 10
337.11269999999996
 20
-108.51259999999999
 30
0.0
 40
1.0248
 50
-90.36346884
 51
-0.0
  0
ARC
  8
BLACK
 10
337.1122
 20
8.4996
 30
0.0
 40
1.0253999999999999
 50
-0.796155
 51
90.0
  0
ARC
  8
BLACK
 10
313.2675
 20
11.0251
 30
0.0
 40
1.5001
 50
-134.99692112
 51
-90.0
  0
ARC
  8
BLACK
 10
304.7999
 20
12.774999999999999
 30
0.0
 40
3.249920749858679
 50
44.99875338
 51
134.99875338
  0
ARC
  8
BLACK
 10
296.3324
 20
11.024899999999999
 30
0.0
 40
1.499988443358148
 50
-89.37587925
 51
-45.0
  0
ARC
  8
BLACK
 10
227.5425
 20
11.0251
 30
0.0
 40
1.5001
 50
-134.99692112
 51
-90.0
  0
ARC
  8
BLACK
 10
219.07489999999999
 20
12.774999999999999
 30
0.0
 40
3.249920749858679
 50
44.99875338
 51
134.99875338
  0
ARC
  8
BLACK
 10
210.60739999999998
 20
11.024899999999999
 30
0.0
 40
1.499988443358148
 50
-89.37587925
 51
-45.0
  0
ARC
  8
BLACK
 10
118.005
 20
11.0251
 30
0.0
 40
1.5001
 50
-134.99692112
 51
-90.0
  0
ARC
  8
BLACK
 10
109.5376
 20
12.774799999999999
 30
0.0
 40
3.250193693076153
 50
44.50358049
 51
134.99875348
  0
LINE
  8
BLACK
  6
CONTINUOUS
 10
321.8125
 20
-107.01249999999999
 30
0.0
 11
335.41249999999997
 21
-107.01249999999999
 31
0.0
  0
ARC
  8
BLACK
 10
13.94375
 20
-55.41249999999999
 30
0.0
 40
0.500001
 50
0.00011459
 51
90.0
  0
ARC
  8
BLACK
 10
13.94375
 20
-68.4125
 30
0.0
 40
0.500000000001
 50
270.0
 51
0.00011459
  0
ARC
  8
BLACK
 10
0.343751
 20
-55.41249999999999
 30
0.0
 40
0.500001
 50
90.00011459
 51
180.0
  0
ARC
  8
BLACK
 10
0.343751
 20
-68.412498
 30
0.0
 40
0.500001
 50
180.00011459
 51
270.0
  0
LINE
  8
BLACK
  6
Continuous
 10
14.44375
 20
-68.412499
 30
0.0
 11
14.44375
 21
-55.412499
 31
0.0
  0
LINE
  8
BLACK
  6
Continuous
 10
13.94375
 20
-54.912499
 30
0.0
 11
0.34375
 21
-54.912499
 31
0.0
  0
LINE
  8
BLACK
  6
Continuous
 10
-0.15625
 20
-55.41249999999999
 30
0.0
 11
-0.15625
 21
-68.412499
 31
0.0
  0
LINE
  8
BLACK
  6
Continuous
 10
0.343751
 20
-68.912499
 30
0.0
 11
13.94375
 21
-68.912499
 31
0.0
  0
CIRCLE
  8
0
 10
276.225
 20
-23.8125
 30
0.0
 40
1.0
  0
CIRCLE
  8
0
 10
233.3625
 20
-61.9125
 30
0.0
 40
1.0
  0
CIRCLE
  8
0
 10
271.5187500000001
 20
-68.7875
 30
0.0
 40
1.0
  0
CIRCLE
  8
0
 10
61.9125
 20
-100.0125
 30
0.0
 40
1.0
  0
CIRCLE
  8
0
 10
251.221875
 20
-100.0125
 30
0.0
 40
1.0
  0
CIRCLE
  8
0
 10
228.6
 20
-100.0125
 30
0.0
 40
1.0
  0
CIRCLE
  8
0
 10
142.875
 20
-100.0125
 30
0.0
 40
1.0
  0
CIRCLE
  8
0
 10
204.7875
 20
-100.0125
 30
0.0
 40
1.0
  0
CIRCLE
  8
0
 10
39.290625
 20
-100.0125
 30
0.0
 40
1.0
  0
CIRCLE
  8
0
 10
15.478125
 20
-100.0125
 30
0.0
 40
1.0
  0
CIRCLE
  8
0
 10
171.45
 20
-100.0125
 30
0.0
 40
1.0
  0
CIRCLE
  8
0
 10
135.4625
 20
-107.2125
 30
0.0
 40
1.0
  0
CIRCLE
  8
0
 10
102.6625
 20
-107.2125
 30
0.0
 40
1.0
  0
ENDSEC
  0
EOF
