  0
SECTION
  2
HEADER
  9
$ACADVER
  1
AC1032
  9
$ACADMAINTVER
 90
       55
  9
$DWGCODEPAGE
  3
ANSI_1252
  9
$LASTSAVEDBY
  1
cipulot
  9
$REQUIREDVERSIONS
160
                 0
  9
$INSBASE
 10
0.0
 20
0.0
 30
0.0
  9
$EXTMIN
 10
1.000000000000000E+20
 20
1.000000000000000E+20
 30
1.000000000000000E+20
  9
$EXTMAX
 10
-1.000000000000000E+20
 20
-1.000000000000000E+20
 30
-1.000000000000000E+20
  9
$LIMMIN
 10
0.0
 20
0.0
  9
$LIMMAX
 10
12.0
 20
9.0
  9
$ORTHOMODE
 70
     0
  9
$REGENMODE
 70
     1
  9
$FILLMODE
 70
     1
  9
$QTEXTMODE
 70
     0
  9
$MIRRTEXT
 70
     1
  9
$LTSCALE
 40
1.0
  9
$ATTMODE
 70
     1
  9
$TEXTSIZE
 40
0.2
  9
$TRACEWID
 40
0.05
  9
$TEXTSTYLE
  7
Standard
  9
$CLAYER
  8
0
  9
$CELTYPE
  6
ByBlock
  9
$CECOLOR
 62
   256
  9
$CELTSCALE
 40
1.0
  9
$DISPSILH
 70
     0
  9
$DIMSCALE
 40
1.0
  9
$DIMASZ
 40
0.18
  9
$DIMEXO
 40
0.0625
  9
$DIMDLI
 40
0.38
  9
$DIMRND
 40
0.0
  9
$DIMDLE
 40
0.0
  9
$DIMEXE
 40
0.18
  9
$DIMTP
 40
0.0
  9
$DIMTM
 40
0.0
  9
$DIMTXT
 40
0.18
  9
$DIMCEN
 40
0.09
  9
$DIMTSZ
 40
0.0
  9
$DIMTOL
 70
     0
  9
$DIMLIM
 70
     0
  9
$DIMTIH
 70
     1
  9
$DIMTOH
 70
     1
  9
$DIMSE1
 70
     0
  9
$DIMSE2
 70
     0
  9
$DIMTAD
 70
     0
  9
$DIMZIN
 70
     0
  9
$DIMBLK
  1

  9
$DIMASO
 70
     1
  9
$DIMSHO
 70
     1
  9
$DIMPOST
  1

  9
$DIMAPOST
  1

  9
$DIMALT
 70
     0
  9
$DIMALTD
 70
     2
  9
$DIMALTF
 40
25.4
  9
$DIMLFAC
 40
1.0
  9
$DIMTOFL
 70
     0
  9
$DIMTVP
 40
0.0
  9
$DIMTIX
 70
     0
  9
$DIMSOXD
 70
     0
  9
$DIMSAH
 70
     0
  9
$DIMBLK1
  1

  9
$DIMBLK2
  1

  9
$DIMSTYLE
  2
ISO-25
  9
$DIMCLRD
 70
     0
  9
$DIMCLRE
 70
     0
  9
$DIMCLRT
 70
     0
  9
$DIMTFAC
 40
1.0
  9
$DIMGAP
 40
0.09
  9
$DIMJUST
 70
     0
  9
$DIMSD1
 70
     0
  9
$DIMSD2
 70
     0
  9
$DIMTOLJ
 70
     1
  9
$DIMTZIN
 70
     0
  9
$DIMALTZ
 70
     0
  9
$DIMALTTZ
 70
     0
  9
$DIMUPT
 70
     0
  9
$DIMDEC
 70
     4
  9
$DIMTDEC
 70
     4
  9
$DIMALTU
 70
     2
  9
$DIMALTTD
 70
     2
  9
$DIMTXSTY
  7
Standard
  9
$DIMAUNIT
 70
     0
  9
$DIMADEC
 70
     0
  9
$DIMALTRND
 40
0.0
  9
$DIMAZIN
 70
     0
  9
$DIMDSEP
 70
    46
  9
$DIMATFIT
 70
     3
  9
$DIMFRAC
 70
     0
  9
$DIMLDRBLK
  1

  9
$DIMLUNIT
 70
     2
  9
$DIMLWD
 70
    -2
  9
$DIMLWE
 70
    -2
  9
$DIMTMOVE
 70
     2
  9
$DIMFXL
 40
1.0
  9
$DIMFXLON
 70
     0
  9
$DIMJOGANG
 40
0.7853981633974483
  9
$DIMTFILL
 70
     0
  9
$DIMTFILLCLR
 70
     0
  9
$DIMARCSYM
 70
     0
  9
$DIMLTYPE
  6

  9
$DIMLTEX1
  6

  9
$DIMLTEX2
  6

  9
$DIMTXTDIRECTION
 70
     0
  9
$LUNITS
 70
     2
  9
$LUPREC
 70
     4
  9
$SKETCHINC
 40
0.1
  9
$FILLETRAD
 40
0.0
  9
$AUNITS
 70
     0
  9
$AUPREC
 70
     0
  9
$MENU
  1
.
  9
$ELEVATION
 40
0.0
  9
$PELEVATION
 40
0.0
  9
$THICKNESS
 40
0.0
  9
$LIMCHECK
 70
     0
  9
$CHAMFERA
 40
0.0
  9
$CHAMFERB
 40
0.0
  9
$CHAMFERC
 40
0.0
  9
$CHAMFERD
 40
0.0
  9
$SKPOLY
 70
     0
  9
$TDCREATE
 40
2460971.486656355
  9
$TDUCREATE
 40
2460971.111656355
  9
$TDUPDATE
 40
2460971.514150197
  9
$TDUUPDATE
 40
2460971.139150197
  9
$TDINDWG
 40
0.0000000116
  9
$TDUSRTIMER
 40
0.0000000116
  9
$USRTIMER
 70
     1
  9
$ANGBASE
 50
0.0
  9
$ANGDIR
 70
     1
  9
$PDMODE
 70
     0
  9
$PDSIZE
 40
0.0
  9
$PLINEWID
 40
0.0
  9
$SPLFRAME
 70
     0
  9
$SPLINETYPE
 70
     6
  9
$SPLINESEGS
 70
     8
  9
$HANDSEED
  5
85B
  9
$SURFTAB1
 70
     6
  9
$SURFTAB2
 70
     6
  9
$SURFTYPE
 70
     6
  9
$SURFU
 70
     6
  9
$SURFV
 70
     6
  9
$UCSBASE
  2

  9
$UCSNAME
  2

  9
$UCSORG
 10
0.0
 20
0.0
 30
0.0
  9
$UCSXDIR
 10
1.0
 20
0.0
 30
0.0
  9
$UCSYDIR
 10
0.0
 20
1.0
 30
0.0
  9
$UCSORTHOREF
  2

  9
$UCSORTHOVIEW
 70
     0
  9
$UCSORGTOP
 10
0.0
 20
0.0
 30
0.0
  9
$UCSORGBOTTOM
 10
0.0
 20
0.0
 30
0.0
  9
$UCSORGLEFT
 10
0.0
 20
0.0
 30
0.0
  9
$UCSORGRIGHT
 10
0.0
 20
0.0
 30
0.0
  9
$UCSORGFRONT
 10
0.0
 20
0.0
 30
0.0
  9
$UCSORGBACK
 10
0.0
 20
0.0
 30
0.0
  9
$PUCSBASE
  2

  9
$PUCSNAME
  2

  9
$PUCSORG
 10
0.0
 20
0.0
 30
0.0
  9
$PUCSXDIR
 10
1.0
 20
0.0
 30
0.0
  9
$PUCSYDIR
 10
0.0
 20
1.0
 30
0.0
  9
$PUCSORTHOREF
  2

  9
$PUCSORTHOVIEW
 70
     0
  9
$PUCSORGTOP
 10
0.0
 20
0.0
 30
0.0
  9
$PUCSORGBOTTOM
 10
0.0
 20
0.0
 30
0.0
  9
$PUCSORGLEFT
 10
0.0
 20
0.0
 30
0.0
  9
$PUCSORGRIGHT
 10
0.0
 20
0.0
 30
0.0
  9
$PUCSORGFRONT
 10
0.0
 20
0.0
 30
0.0
  9
$PUCSORGBACK
 10
0.0
 20
0.0
 30
0.0
  9
$USERI1
 70
     0
  9
$USERI2
 70
     0
  9
$USERI3
 70
     0
  9
$USERI4
 70
     0
  9
$USERI5
 70
     0
  9
$USERR1
 40
0.0
  9
$USERR2
 40
0.0
  9
$USERR3
 40
0.0
  9
$USERR4
 40
0.0
  9
$USERR5
 40
0.0
  9
$WORLDVIEW
 70
     1
  9
$SHADEDGE
 70
     3
  9
$SHADEDIF
 70
    70
  9
$TILEMODE
 70
     1
  9
$MAXACTVP
 70
    64
  9
$PINSBASE
 10
0.0
 20
0.0
 30
0.0
  9
$PLIMCHECK
 70
     0
  9
$PEXTMIN
 10
1.000000000000000E+20
 20
1.000000000000000E+20
 30
1.000000000000000E+20
  9
$PEXTMAX
 10
-1.000000000000000E+20
 20
-1.000000000000000E+20
 30
-1.000000000000000E+20
  9
$PLIMMIN
 10
0.0
 20
0.0
  9
$PLIMMAX
 10
12.0
 20
9.0
  9
$UNITMODE
 70
     0
  9
$VISRETAIN
 70
     1
  9
$PLINEGEN
 70
     0
  9
$PSLTSCALE
 70
     1
  9
$TREEDEPTH
 70
  3020
  9
$CMLSTYLE
  2
Standard
  9
$CMLJUST
 70
     0
  9
$CMLSCALE
 40
1.0
  9
$PROXYGRAPHICS
 70
     1
  9
$MEASUREMENT
 70
     1
  9
$CELWEIGHT
370
    -1
  9
$ENDCAPS
280
     0
  9
$JOINSTYLE
280
     0
  9
$LWDISPLAY
290
     0
  9
$INSUNITS
 70
     4
  9
$HYPERLINKBASE
  1

  9
$STYLESHEET
  1

  9
$XEDIT
290
     1
  9
$CEPSNTYPE
380
     0
  9
$PSTYLEMODE
290
     1
  9
$FINGERPRINTGUID
  2
{92c7a85a-1d71-ad40-8b45-ebc8239042c9}
  9
$VERSIONGUID
  2
{B2ABEBBC-ECD9-41A8-A952-530149A6B0D4}
  9
$EXTNAMES
290
     1
  9
$PSVPSCALE
 40
0.0
  9
$OLESTARTUP
290
     0
  9
$SORTENTS
280
   127
  9
$INDEXCTL
280
     0
  9
$HIDETEXT
280
     1
  9
$XCLIPFRAME
280
     2
  9
$HALOGAP
280
     0
  9
$OBSCOLOR
 70
   257
  9
$OBSLTYPE
280
     0
  9
$INTERSECTIONDISPLAY
280
     0
  9
$INTERSECTIONCOLOR
 70
   257
  9
$DIMASSOC
280
     2
  9
$PROJECTNAME
  1

  9
$CAMERADISPLAY
290
     0
  9
$LENSLENGTH
 40
50.0
  9
$CAMERAHEIGHT
 40
0.0
  9
$STEPSPERSEC
 40
2.0
  9
$STEPSIZE
 40
6.0
  9
$3DDWFPREC
 40
2.0
  9
$PSOLWIDTH
 40
0.25
  9
$PSOLHEIGHT
 40
4.0
  9
$LOFTANG1
 40
1.570796326794897
  9
$LOFTANG2
 40
1.570796326794897
  9
$LOFTMAG1
 40
0.0
  9
$LOFTMAG2
 40
0.0
  9
$LOFTPARAM
 70
     7
  9
$LOFTNORMALS
280
     1
  9
$LATITUDE
 40
37.795
  9
$LONGITUDE
 40
-122.394
  9
$NORTHDIRECTION
 40
0.0
  9
$TIMEZONE
 70
 -8000
  9
$LIGHTGLYPHDISPLAY
280
     1
  9
$TILEMODELIGHTSYNCH
280
     1
  9
$CMATERIAL
347
6EB
  9
$SOLIDHIST
280
     0
  9
$SHOWHIST
280
     1
  9
$DWFFRAME
280
     2
  9
$DGNFRAME
280
     2
  9
$REALWORLDSCALE
290
     1
  9
$INTERFERECOLOR
 62
   256
  9
$CSHADOW
280
     0
  9
$SHADOWPLANELOCATION
 40
0.0
  0
ENDSEC
  0
SECTION
  2
CLASSES
  0
CLASS
  1
ACDBDICTIONARYWDFLT
  2
AcDbDictionaryWithDefault
  3
ObjectDBX Classes
 90
        0
 91
        3
280
     0
281
     0
  0
CLASS
  1
SCALE
  2
AcDbScale
  3
ObjectDBX Classes
 90
     1153
 91
        3
280
     0
281
     0
  0
CLASS
  1
VISUALSTYLE
  2
AcDbVisualStyle
  3
ObjectDBX Classes
 90
     4095
 91
        3
280
     0
281
     0
  0
CLASS
  1
MATERIAL
  2
AcDbMaterial
  3
ObjectDBX Classes
 90
     1153
 91
        3
280
     0
281
     0
  0
CLASS
  1
TABLESTYLE
  2
AcDbTableStyle
  3
ObjectDBX Classes
 90
     4095
 91
        3
280
     0
281
     0
  0
CLASS
  1
MLEADERSTYLE
  2
AcDbMLeaderStyle
  3
ACDB_MLEADERSTYLE_CLASS
 90
     4095
 91
        3
280
     0
281
     0
  0
CLASS
  1
DICTIONARYVAR
  2
AcDbDictionaryVar
  3
ObjectDBX Classes
 90
        0
 91
        3
280
     0
281
     0
  0
CLASS
  1
CELLSTYLEMAP
  2
AcDbCellStyleMap
  3
ObjectDBX Classes
 90
     1152
 91
        3
280
     0
281
     0
  0
CLASS
  1
SUN
  2
AcDbSun
  3
SCENEOE
 90
     1153
 91
        3
280
     0
281
     0
  0
CLASS
  1
MENTALRAYRENDERSETTINGS
  2
AcDbMentalRayRenderSettings
  3
SCENEOE
 90
     1024
 91
        3
280
     0
281
     0
  0
CLASS
  1
ACDBDETAILVIEWSTYLE
  2
AcDbDetailViewStyle
  3
ObjectDBX Classes
 90
     1025
 91
        3
280
     0
281
     0
  0
CLASS
  1
ACDBSECTIONVIEWSTYLE
  2
AcDbSectionViewStyle
  3
ObjectDBX Classes
 90
     1025
 91
        3
280
     0
281
     0
  0
CLASS
  1
RASTERVARIABLES
  2
AcDbRasterVariables
  3
ISM
 90
        0
 91
        3
280
     0
281
     0
  0
CLASS
  1
LAYOUT
  2
AcDbLayout
  3
ObjectDBX Classes
 90
        0
 91
        1
280
     0
281
     0
  0
CLASS
  1
ACDBPLACEHOLDER
  2
AcDbPlaceHolder
  3
ObjectDBX Classes
 90
        0
 91
        1
280
     0
281
     0
  0
ENDSEC
  0
SECTION
  2
TABLES
  0
TABLE
  2
VPORT
  5
8
330
0
100
AcDbSymbolTable
 70
     1
  0
VPORT
  5
442
330
8
100
AcDbSymbolTableRecord
100
AcDbViewportTableRecord
  2
*Active
 70
     0
 10
0.0
 20
0.0
 11
1.0
 21
1.0
 12
344.1869158878504
 22
148.5
 13
0.0
 23
0.0
 14
10.0
 24
10.0
 15
10.0
 25
10.0
 16
0.0
 26
0.0
 36
1.0
 17
0.0
 27
0.0
 37
0.0
 40
297.0
 41
1.972972972850329
 42
50.0
 43
0.0
 44
0.0
 50
0.0
 51
0.0
 71
     0
 72
   100
 73
     1
 74
     3
 75
     0
 76
     0
 77
     0
 78
     0
281
     0
 65
     1
110
0.0
120
0.0
130
0.0
111
1.0
121
0.0
131
0.0
112
0.0
122
1.0
132
0.0
 79
     0
146
0.0
348
6D6
 60
     3
 61
     5
292
     1
282
     1
141
0.0
142
0.0
 63
   250
  0
ENDTAB
  0
TABLE
  2
LTYPE
  5
5
330
0
100
AcDbSymbolTable
 70
     4
  0
LTYPE
  5
14
330
5
100
AcDbSymbolTableRecord
100
AcDbLinetypeTableRecord
  2
ByBlock
 70
     0
  3

 72
    65
 73
     0
 40
0.0
  0
LTYPE
  5
15
330
5
100
AcDbSymbolTableRecord
100
AcDbLinetypeTableRecord
  2
ByLayer
 70
     0
  3

 72
    65
 73
     0
 40
0.0
  0
LTYPE
  5
16
330
5
100
AcDbSymbolTableRecord
100
AcDbLinetypeTableRecord
  2
CONTINUOUS
 70
     0
  3
Solid line
 72
    65
 73
     0
 40
0.0
  0
LTYPE
  5
410
330
5
100
AcDbSymbolTableRecord
100
AcDbLinetypeTableRecord
  2
DASHDOT
 70
     0
  3
Dash Dot ____ _ ____ _
 72
    65
 73
     4
 40
2.0
 49
1.25
 74
     0
 49
-0.25
 74
     0
 49
0.25
 74
     0
 49
-0.25
 74
     0
  0
LTYPE
  5
411
330
5
100
AcDbSymbolTableRecord
100
AcDbLinetypeTableRecord
  2
DASHED
 70
     0
  3
Dashed __ __ __ __ __
 72
    65
 73
     2
 40
0.75
 49
0.5
 74
     0
 49
-0.25
 74
     0
  0
LTYPE
  5
43B
330
5
100
AcDbSymbolTableRecord
100
AcDbLinetypeTableRecord
  2
DOTTED
 70
     0
  3
Dotted .  .  .  .
 72
    65
 73
     2
 40
0.2
 49
0.0
 74
     0
 49
-0.2
 74
     0
  0
ENDTAB
  0
TABLE
  2
LAYER
  5
2
330
0
100
AcDbSymbolTable
 70
     3
  0
LAYER
  5
10
330
2
100
AcDbSymbolTableRecord
100
AcDbLayerTableRecord
  2
0
 70
     0
 62
     7
  6
CONTINUOUS
370
    -3
390
F
347
6ED
348
0
  0
LAYER
  5
440
330
2
100
AcDbSymbolTableRecord
100
AcDbLayerTableRecord
  2
BLACK
 70
     0
 62
     7
  6
CONTINUOUS
370
    -3
390
F
347
6ED
348
0
  0
LAYER
  5
6FD
330
2
100
AcDbSymbolTableRecord
100
AcDbLayerTableRecord
  2
Defpoints
 70
     0
 62
     7
  6
CONTINUOUS
290
     0
370
    -3
390
F
347
6ED
348
0
  0
ENDTAB
  0
TABLE
  2
STYLE
  5
3
330
0
100
AcDbSymbolTable
 70
     5
  0
STYLE
  5
11
330
3
100
AcDbSymbolTableRecord
100
AcDbTextStyleTableRecord
  2
Standard
 70
     0
 40
0.0
 41
1.0
 50
0.0
 71
     0
 42
0.2
  3
txt
  4

  0
STYLE
  5
43C
330
3
100
AcDbSymbolTableRecord
100
AcDbTextStyleTableRecord
  2
KICAD
 70
     0
 40
0.0
 41
1.0
 50
0.0
 71
     0
 42
1.0
  3
isocp.shx
  4

  0
STYLE
  5
43D
330
3
100
AcDbSymbolTableRecord
100
AcDbTextStyleTableRecord
  2
KICADB
 70
     0
 40
0.0
 41
1.0
 50
0.0
 71
     0
 42
1.0
  3
isocp.shx
  4

  0
STYLE
  5
43E
330
3
100
AcDbSymbolTableRecord
100
AcDbTextStyleTableRecord
  2
KICADI
 70
     0
 40
0.0
 41
1.0
 50
15.0
 71
     0
 42
1.0
  3
isocp.shx
  4

  0
STYLE
  5
43F
330
3
100
AcDbSymbolTableRecord
100
AcDbTextStyleTableRecord
  2
KICADBI
 70
     0
 40
0.0
 41
1.0
 50
15.0
 71
     0
 42
1.0
  3
isocp.shx
  4

  0
ENDTAB
  0
TABLE
  2
VIEW
  5
6
330
0
100
AcDbSymbolTable
 70
     0
  0
ENDTAB
  0
TABLE
  2
UCS
  5
7
330
0
100
AcDbSymbolTable
 70
     0
  0
ENDTAB
  0
TABLE
  2
APPID
  5
9
330
0
100
AcDbSymbolTable
 70
     3
  0
APPID
  5
12
330
9
100
AcDbSymbolTableRecord
100
AcDbRegAppTableRecord
  2
ACAD
 70
     0
  0
APPID
  5
6FF
330
9
100
AcDbSymbolTableRecord
100
AcDbRegAppTableRecord
  2
HATCHBACKGROUNDCOLOR
 70
     0
  0
APPID
  5
700
330
9
100
AcDbSymbolTableRecord
100
AcDbRegAppTableRecord
  2
EZDXF
 70
     0
  0
ENDTAB
  0
TABLE
  2
DIMSTYLE
  5
A
330
0
100
AcDbSymbolTable
 70
     2
100
AcDbDimStyleTable
  0
DIMSTYLE
105
441
330
A
100
AcDbSymbolTableRecord
100
AcDbDimStyleTableRecord
  2
ISO-25
 70
     0
 41
2.5
 42
0.625
 43
3.75
 44
1.25
 49
2.5
 73
     0
 74
     0
 77
     1
 78
     8
 79
     3
140
2.5
141
2.5
143
0.03937007874016
147
0.625
171
     3
172
     1
178
     0
179
     2
271
     2
272
     2
274
     3
278
    44
283
     0
284
     8
340
11
  0
DIMSTYLE
105
6FE
330
A
100
AcDbSymbolTableRecord
100
AcDbDimStyleTableRecord
  2
Standard
 70
     0
 41
2.5
 42
0.625
 43
3.75
 44
1.25
 49
2.5
 73
     0
 74
     0
 77
     1
 78
     8
 79
     3
140
2.5
141
2.5
143
0.03937007874
147
0.625
171
     3
172
     1
178
     0
179
     2
271
     2
272
     2
274
     3
278
    44
283
     0
284
     8
340
11
  0
ENDTAB
  0
TABLE
  2
BLOCK_RECORD
  5
1
330
0
100
AcDbSymbolTable
 70
     0
  0
BLOCK_RECORD
  5
1D
330
1
100
AcDbSymbolTableRecord
100
AcDbBlockTableRecord
  2
*Model_Space
340
1E
 70
     0
280
     1
281
     0
  0
BLOCK_RECORD
  5
1B
330
1
100
AcDbSymbolTableRecord
100
AcDbBlockTableRecord
  2
*Paper_Space
340
1C
 70
     0
280
     1
281
     0
  0
ENDTAB
  0
ENDSEC
  0
SECTION
  2
BLOCKS
  0
BLOCK
  5
6CD
330
1D
100
AcDbEntity
  8
0
100
AcDbBlockBegin
  2
*Model_Space
 70
     0
 10
0.0
 20
0.0
 30
0.0
  3
*Model_Space
  1

  0
ENDBLK
  5
6CE
330
1D
100
AcDbEntity
  8
0
100
AcDbBlockEnd
  0
BLOCK
  5
6CF
330
1B
100
AcDbEntity
 67
     1
  8
0
100
AcDbBlockBegin
  2
*Paper_Space
 70
     0
 10
0.0
 20
0.0
 30
0.0
  3
*Paper_Space
  1

  0
ENDBLK
  5
6D0
330
1B
100
AcDbEntity
 67
     1
  8
0
100
AcDbBlockEnd
  0
ENDSEC
  0
SECTION
  2
ENTITIES
  0
CIRCLE
  5
443
330
1D
100
AcDbEntity
  8
BLACK
100
AcDbCircle
 10
204.787551
 20
-112.412499
 30
0.0
 40
1.5
  0
CIRCLE
  5
444
330
1D
100
AcDbEntity
  8
BLACK
100
AcDbCircle
 10
38.100051
 20
-112.412499
 30
0.0
 40
1.5
  0
CIRCLE
  5
445
330
1D
100
AcDbEntity
  8
BLACK
100
AcDbCircle
 10
109.537499
 20
12.775001
 30
0.0
 40
1.5
  0
CIRCLE
  5
446
330
1D
100
AcDbEntity
  8
BLACK
100
AcDbCircle
 10
304.799999
 20
12.775001
 30
0.0
 40
1.5
  0
CIRCLE
  5
447
330
1D
100
AcDbEntity
  8
BLACK
100
AcDbCircle
 10
219.074999
 20
12.775001
 30
0.0
 40
1.5
  0
CIRCLE
  5
448
330
1D
100
AcDbEntity
  8
BLACK
100
AcDbCircle
 10
23.812499
 20
12.775001
 30
0.0
 40
1.5
  0
CIRCLE
  5
449
330
1D
100
AcDbEntity
  8
BLACK
100
AcDbCircle
 10
300.037499
 20
-112.412499
 30
0.0
 40
1.5
  0
LINE
  5
44A
330
1D
100
AcDbEntity
  8
BLACK
  6
Continuous
100
AcDbLine
 10
226.481864
 20
9.964352
 30
0.0
 11
226.481853
 21
9.964341
 31
0.0
  0
LINE
  5
44B
330
1D
100
AcDbEntity
  8
BLACK
  6
Continuous
100
AcDbLine
 10
116.944364
 20
9.964352
 30
0.0
 11
116.944353
 21
9.964341
 31
0.0
  0
LINE
  5
44C
330
1D
100
AcDbEntity
  8
BLACK
  6
Continuous
100
AcDbLine
 10
31.219364
 20
9.964352
 30
0.0
 11
31.219353
 21
9.964341
 31
0.0
  0
LINE
  5
44D
330
1D
100
AcDbEntity
  8
BLACK
  6
Continuous
100
AcDbLine
 10
101.0699
 20
9.525065999999999
 30
0.0
 11
101.0699
 21
9.525001
 31
0.0
  0
LINE
  5
44E
330
1D
100
AcDbEntity
  8
BLACK
  6
Continuous
100
AcDbLine
 10
16.405641
 20
9.964336999999999
 30
0.0
 11
21.514402
 21
15.073098
 31
0.0
  0
LINE
  5
44F
330
1D
100
AcDbEntity
  8
BLACK
  6
Continuous
100
AcDbLine
 10
196.6948
 20
-109.537499
 30
0.0
 11
46.185252
 21
-109.537499
 31
0.0
  0
LINE
  5
450
330
1D
100
AcDbEntity
  8
BLACK
  6
Continuous
100
AcDbLine
 10
202.47425
 20
-114.695392
 30
0.0
 11
197.745451
 21
-109.966594
 31
0.0
  0
LINE
  5
451
330
1D
100
AcDbEntity
  8
BLACK
  6
Continuous
100
AcDbLine
 10
211.819411
 20
-109.976833
 30
0.0
 11
207.085611
 21
-114.710633
 31
0.0
  0
LINE
  5
452
330
1D
100
AcDbEntity
  8
BLACK
  6
Continuous
100
AcDbLine
 10
291.9451
 20
-109.537499
 30
0.0
 11
212.872752
 21
-109.537499
 31
0.0
  0
LINE
  5
453
330
1D
100
AcDbEntity
  8
BLACK
  6
Continuous
100
AcDbLine
 10
297.739402
 20
-114.710596
 30
0.0
 11
293.005645
 21
-109.976839
 31
0.0
  0
LINE
  5
454
330
1D
100
AcDbEntity
  8
BLACK
  6
Continuous
100
AcDbLine
 10
307.069385
 20
-109.976807
 30
0.0
 11
302.335585
 21
-114.710607
 31
0.0
  0
LINE
  5
455
330
1D
100
AcDbEntity
  8
BLACK
  6
Continuous
100
AcDbLine
 10
21.514407
 20
15.073093
 30
0.0
 11
21.514402
 21
15.073098
 31
0.0
  0
LINE
  5
456
330
1D
100
AcDbEntity
  8
BLACK
  6
Continuous
100
AcDbLine
 10
297.739405
 20
-114.710593
 30
0.0
 11
297.739402
 21
-114.710596
 31
0.0
  0
LINE
  5
457
330
1D
100
AcDbEntity
  8
BLACK
  6
Continuous
100
AcDbLine
 10
307.098086
 20
15.073088
 30
0.0
 11
307.098096
 21
15.073098
 31
0.0
  0
LINE
  5
458
330
1D
100
AcDbEntity
  8
BLACK
  6
Continuous
100
AcDbLine
 10
302.501906
 20
15.073094
 30
0.0
 11
302.501902
 21
15.073098
 31
0.0
  0
LINE
  5
459
330
1D
100
AcDbEntity
  8
BLACK
  6
Continuous
100
AcDbLine
 10
221.373086
 20
15.073088
 30
0.0
 11
221.373096
 21
15.073098
 31
0.0
  0
LINE
  5
45A
330
1D
100
AcDbEntity
  8
BLACK
  6
Continuous
100
AcDbLine
 10
216.776906
 20
15.073094
 30
0.0
 11
216.776902
 21
15.073098
 31
0.0
  0
LINE
  5
45B
330
1D
100
AcDbEntity
  8
BLACK
  6
Continuous
100
AcDbLine
 10
111.835586
 20
15.073088
 30
0.0
 11
111.835593
 21
15.073095
 31
0.0
  0
LINE
  5
45C
330
1D
100
AcDbEntity
  8
BLACK
  6
Continuous
100
AcDbLine
 10
337.106198
 20
-109.537499
 30
0.0
 11
308.117255
 21
-109.537499
 31
0.0
  0
LINE
  5
45D
330
1D
100
AcDbEntity
  8
BLACK
  6
Continuous
100
AcDbLine
 10
338.137499
 20
8.493063
 30
0.0
 11
338.137499
 21
-108.512621
 31
0.0
  0
LINE
  5
45E
330
1D
100
AcDbEntity
  8
BLACK
  6
Continuous
100
AcDbLine
 10
313.2674
 20
9.525001
 30
0.0
 11
337.1123
 21
9.525001
 31
0.0
  0
LINE
  5
45F
330
1D
100
AcDbEntity
  8
BLACK
  6
Continuous
100
AcDbLine
 10
307.098096
 20
15.073098
 30
0.0
 11
312.206853
 21
9.964341
 31
0.0
  0
LINE
  5
460
330
1D
100
AcDbEntity
  8
BLACK
  6
Continuous
100
AcDbLine
 10
-8.499998999999999
 20
9.525001
 30
0.0
 11
15.359999
 21
9.525001
 31
0.0
  0
LINE
  5
461
330
1D
100
AcDbEntity
  8
BLACK
  6
Continuous
100
AcDbLine
 10
26.110596
 20
15.073098
 30
0.0
 11
31.219353
 21
9.964341
 31
0.0
  0
LINE
  5
462
330
1D
100
AcDbEntity
  8
BLACK
  6
Continuous
100
AcDbLine
 10
297.393091
 20
9.964286999999999
 30
0.0
 11
302.501902
 21
15.073098
 31
0.0
  0
LINE
  5
463
330
1D
100
AcDbEntity
  8
BLACK
  6
Continuous
100
AcDbLine
 10
118.0049
 20
9.525001
 30
0.0
 11
210.621364
 21
9.525001
 31
0.0
  0
LINE
  5
464
330
1D
100
AcDbEntity
  8
BLACK
  6
Continuous
100
AcDbLine
 10
221.373096
 20
15.073098
 30
0.0
 11
226.481853
 21
9.964341
 31
0.0
  0
LINE
  5
465
330
1D
100
AcDbEntity
  8
BLACK
  6
Continuous
100
AcDbLine
 10
227.5424
 20
9.525001
 30
0.0
 11
296.346364
 21
9.525001
 31
0.0
  0
LINE
  5
466
330
1D
100
AcDbEntity
  8
BLACK
  6
Continuous
100
AcDbLine
 10
211.668091
 20
9.964286999999999
 30
0.0
 11
216.776902
 21
15.073098
 31
0.0
  0
LINE
  5
467
330
1D
100
AcDbEntity
  8
BLACK
  6
Continuous
100
AcDbLine
 10
102.130741
 20
9.964438
 30
0.0
 11
107.239402
 21
15.073098
 31
0.0
  0
LINE
  5
468
330
1D
100
AcDbEntity
  8
BLACK
  6
Continuous
100
AcDbLine
 10
-9.525001
 20
-108.512497
 30
0.0
 11
-9.525001
 21
8.499998999999999
 31
0.0
  0
LINE
  5
469
330
1D
100
AcDbEntity
  8
BLACK
  6
Continuous
100
AcDbLine
 10
45.131911
 20
-109.976833
 30
0.0
 11
40.398146
 21
-114.710598
 31
0.0
  0
LINE
  5
46A
330
1D
100
AcDbEntity
  8
BLACK
  6
Continuous
100
AcDbLine
 10
32.2799
 20
9.525001
 30
0.0
 11
101.0699
 21
9.525001
 31
0.0
  0
LINE
  5
46B
330
1D
100
AcDbEntity
  8
BLACK
  6
Continuous
100
AcDbLine
 10
111.835596
 20
15.073098
 30
0.0
 11
116.944353
 21
9.964341
 31
0.0
  0
LINE
  5
46C
330
1D
100
AcDbEntity
  8
BLACK
  6
Continuous
100
AcDbLine
 10
35.801955
 20
-114.710597
 30
0.0
 11
31.057951
 21
-109.966594
 31
0.0
  0
LINE
  5
46D
330
1D
100
AcDbEntity
  8
BLACK
  6
Continuous
100
AcDbLine
 10
30.0073
 20
-109.537499
 30
0.0
 11
-8.499998999999999
 21
-109.537499
 31
0.0
  0
LINE
  5
46E
330
1D
100
AcDbEntity
  8
BLACK
  6
Continuous
100
AcDbLine
 10
107.239413
 20
15.073087
 30
0.0
 11
107.239402
 21
15.073098
 31
0.0
  0
LINE
  5
46F
330
1D
100
AcDbEntity
  8
BLACK
  6
Continuous
100
AcDbLine
 10
26.110594
 20
15.073096
 30
0.0
 11
26.110596
 21
15.073098
 31
0.0
  0
LINE
  5
470
330
1D
100
AcDbEntity
  8
BLACK
  6
Continuous
100
AcDbLine
 10
312.206864
 20
9.964352
 30
0.0
 11
312.206853
 21
9.964341
 31
0.0
  0
LINE
  5
471
330
1D
100
AcDbEntity
  8
BLACK
  6
Continuous
100
AcDbLine
 10
293.005645
 20
-109.976839
 30
0.0
 11
293.005656
 21
-109.976828
 31
0.0
  0
ARC
  5
472
330
1D
100
AcDbEntity
  8
BLACK
100
AcDbCircle
 10
-8.499998999999999
 20
8.499998999999999
 30
0.0
 40
1.025002
100
AcDbArc
 50
90.0
 51
180.0
  0
ARC
  5
473
330
1D
100
AcDbEntity
  8
BLACK
100
AcDbCircle
 10
15.344809
 20
11.025171
 30
0.0
 40
1.500244416013604
100
AcDbArc
 50
270.58012968
 51
314.99994599
  0
ARC
  5
474
330
1D
100
AcDbEntity
  8
BLACK
100
AcDbCircle
 10
23.812499
 20
12.775021
 30
0.0
 40
3.249978731876256
100
AcDbArc
 50
44.99975068
 51
135.00024932
  0
ARC
  5
475
330
1D
100
AcDbEntity
  8
BLACK
100
AcDbCircle
 10
38.100049
 20
-112.412499
 30
0.0
 40
3.250001359262793
100
AcDbArc
 50
225.00004986
 51
314.99997507
  0
ARC
  5
476
330
1D
100
AcDbEntity
  8
BLACK
100
AcDbCircle
 10
30.007349
 20
-111.038299
 30
0.0
 40
1.500800000799906
100
AcDbArc
 50
45.5696975
 51
90.00187066000001
  0
ARC
  5
477
330
1D
100
AcDbEntity
  8
BLACK
100
AcDbCircle
 10
-8.499998999999999
 20
-108.512497
 30
0.0
 40
1.025002
100
AcDbArc
 50
180.0
 51
270.0
  0
ARC
  5
478
330
1D
100
AcDbEntity
  8
BLACK
100
AcDbCircle
 10
32.279849
 20
11.024701
 30
0.0
 40
1.499700000867173
100
AcDbArc
 50
224.99632587
 51
270.00194845
  0
ARC
  5
479
330
1D
100
AcDbEntity
  8
BLACK
100
AcDbCircle
 10
101.070049
 20
11.025201
 30
0.0
 40
1.50009521732222
100
AcDbArc
 50
269.99430913
 51
314.9980824499999
  0
ARC
  5
47A
330
1D
100
AcDbEntity
  8
BLACK
100
AcDbCircle
 10
46.192649
 20
-111.037499
 30
0.0
 40
1.500059154900232
100
AcDbArc
 50
90.28254230000002
 51
135.00194461
  0
ARC
  5
47B
330
1D
100
AcDbEntity
  8
BLACK
100
AcDbCircle
 10
196.694849
 20
-111.038299
 30
0.0
 40
1.500800000799906
100
AcDbArc
 50
45.5696975
 51
90.00187066000001
  0
ARC
  5
47C
330
1D
100
AcDbEntity
  8
BLACK
100
AcDbCircle
 10
204.787549
 20
-112.412499
 30
0.0
 40
3.250001359661254
100
AcDbArc
 50
224.62096665
 51
314.99910245
  0
ARC
  5
47D
330
1D
100
AcDbEntity
  8
BLACK
100
AcDbCircle
 10
212.880149
 20
-111.037499
 30
0.0
 40
1.500059154900232
100
AcDbArc
 50
90.28254230000002
 51
135.00194461
  0
ARC
  5
47E
330
1D
100
AcDbEntity
  8
BLACK
100
AcDbCircle
 10
291.945149
 20
-111.037199
 30
0.0
 40
1.499700000800493
100
AcDbArc
 50
44.9963259
 51
90.00187204
  0
ARC
  5
47F
330
1D
100
AcDbEntity
  8
BLACK
100
AcDbCircle
 10
300.037549
 20
-112.412499
 30
0.0
 40
3.249964590108636
100
AcDbArc
 50
224.99937671
 51
314.99910244
  0
ARC
  5
480
330
1D
100
AcDbEntity
  8
BLACK
100
AcDbCircle
 10
308.130049
 20
-111.037499
 30
0.0
 40
1.500025213041434
100
AcDbArc
 50
90.48868295
 51
134.99924375
  0
ARC
  5
481
330
1D
100
AcDbEntity
  8
BLACK
100
AcDbCircle
 10
337.112649
 20
-108.512599
 30
0.0
 40
1.024850000236132
100
AcDbArc
 50
269.63936951
 51
359.99877006
  0
ARC
  5
482
330
1D
100
AcDbEntity
  8
BLACK
100
AcDbCircle
 10
337.112349
 20
8.499801
 30
0.0
 40
1.025200001170991
100
AcDbArc
 50
359.62341764
 51
90.00273848
  0
ARC
  5
483
330
1D
100
AcDbEntity
  8
BLACK
100
AcDbCircle
 10
313.267349
 20
11.024701
 30
0.0
 40
1.499700000867173
100
AcDbArc
 50
224.99632587
 51
270.00194845
  0
ARC
  5
484
330
1D
100
AcDbEntity
  8
BLACK
100
AcDbCircle
 10
304.799949
 20
12.775001
 30
0.0
 40
3.249958933047924
100
AcDbArc
 50
44.99937671000001
 51
134.9993767
  0
ARC
  5
485
330
1D
100
AcDbEntity
  8
BLACK
100
AcDbCircle
 10
296.332449
 20
11.025001
 30
0.0
 40
1.500025213774755
100
AcDbArc
 50
270.5314986
 51
314.99805535
  0
ARC
  5
486
330
1D
100
AcDbEntity
  8
BLACK
100
AcDbCircle
 10
227.542349
 20
11.024701
 30
0.0
 40
1.499700000867173
100
AcDbArc
 50
224.99632587
 51
270.00194845
  0
ARC
  5
487
330
1D
100
AcDbEntity
  8
BLACK
100
AcDbCircle
 10
219.074949
 20
12.775001
 30
0.0
 40
3.249958933047924
100
AcDbArc
 50
44.99937671000001
 51
134.9993767
  0
ARC
  5
488
330
1D
100
AcDbEntity
  8
BLACK
100
AcDbCircle
 10
210.607449
 20
11.025001
 30
0.0
 40
1.500025213774755
100
AcDbArc
 50
270.5314986
 51
314.99805535
  0
ARC
  5
489
330
1D
100
AcDbEntity
  8
BLACK
100
AcDbCircle
 10
118.004849
 20
11.024701
 30
0.0
 40
1.499700000867173
100
AcDbArc
 50
224.99632587
 51
270.00194845
  0
ARC
  5
48A
330
1D
100
AcDbEntity
  8
BLACK
100
AcDbCircle
 10
109.537549
 20
12.775001
 30
0.0
 40
3.250019744231103
100
AcDbArc
 50
45.0006233
 51
135.00062329
  0
LINE
  5
48B
330
1D
100
AcDbEntity
  8
BLACK
  6
Continuous
100
AcDbLine
 10
333.863799
 20
-109.311539
 30
0.0
 11
333.863799
 21
-109.311513
 31
0.0
  0
LINE
  5
48C
330
1D
100
AcDbEntity
  8
BLACK
  6
Continuous
100
AcDbLine
 10
202.6125
 20
-75.987499
 30
0.0
 11
202.612499
 21
-75.987499
 31
0.0
  0
LINE
  5
48D
330
1D
100
AcDbEntity
  8
BLACK
  6
Continuous
100
AcDbLine
 10
221.6625
 20
-75.987499
 30
0.0
 11
221.662499
 21
-75.987499
 31
0.0
  0
ARC
  5
4AB
330
1D
100
AcDbEntity
  8
BLACK
100
AcDbCircle
 10
5.274999999999999
 20
-4.974999
 30
0.0
 40
2.075
100
AcDbArc
 50
270.0
 51
0.0
  0
LINE
  5
4AC
330
1D
100
AcDbEntity
  8
BLACK
  6
Continuous
100
AcDbLine
 10
7.35
 20
4.975001
 30
0.0
 11
7.35
 21
-4.974999
 31
0.0
  0
LINE
  5
4AD
330
1D
100
AcDbEntity
  8
BLACK
  6
Continuous
100
AcDbLine
 10
-7.35
 20
4.974997
 30
0.0
 11
-7.35
 21
-4.974997
 31
0.0
  0
LINE
  5
4AE
330
1D
100
AcDbEntity
  8
BLACK
  6
Continuous
100
AcDbLine
 10
5.274999999999999
 20
7.050001
 30
0.0
 11
-5.274997
 21
7.050001
 31
0.0
  0
ARC
  5
4AF
330
1D
100
AcDbEntity
  8
BLACK
100
AcDbCircle
 10
-5.274998
 20
-4.974997
 30
0.0
 40
2.075002
100
AcDbArc
 50
180.0
 51
270.0
  0
ARC
  5
4B0
330
1D
100
AcDbEntity
  8
BLACK
100
AcDbCircle
 10
-5.274996
 20
4.974997
 30
0.0
 40
2.075004
100
AcDbArc
 50
90.00002761
 51
180.0
  0
ARC
  5
4B1
330
1D
100
AcDbEntity
  8
BLACK
100
AcDbCircle
 10
5.274999999999999
 20
4.975001
 30
0.0
 40
2.075
100
AcDbArc
 50
0.0
 51
90.0
  0
LINE
  5
4B2
330
1D
100
AcDbEntity
  8
BLACK
  6
Continuous
100
AcDbLine
 10
5.274999999999999
 20
-7.049999
 30
0.0
 11
-5.274998
 21
-7.049999
 31
0.0
  0
ARC
  5
4B3
330
1D
100
AcDbEntity
  8
BLACK
100
AcDbCircle
 10
129.1
 20
-4.974999
 30
0.0
 40
2.075
100
AcDbArc
 50
270.0
 51
0.0
  0
LINE
  5
4B4
330
1D
100
AcDbEntity
  8
BLACK
  6
Continuous
100
AcDbLine
 10
131.175
 20
4.975001
 30
0.0
 11
131.175
 21
-4.974999
 31
0.0
  0
LINE
  5
4B5
330
1D
100
AcDbEntity
  8
BLACK
  6
Continuous
100
AcDbLine
 10
116.475
 20
4.975001
 30
0.0
 11
116.475
 21
-4.974999
 31
0.0
  0
LINE
  5
4B6
330
1D
100
AcDbEntity
  8
BLACK
  6
Continuous
100
AcDbLine
 10
129.1
 20
7.050001
 30
0.0
 11
118.55
 21
7.050001
 31
0.0
  0
ARC
  5
4B7
330
1D
100
AcDbEntity
  8
BLACK
100
AcDbCircle
 10
118.55
 20
-4.974999
 30
0.0
 40
2.075
100
AcDbArc
 50
180.0
 51
270.0
  0
ARC
  5
4B8
330
1D
100
AcDbEntity
  8
BLACK
100
AcDbCircle
 10
118.55
 20
4.975001
 30
0.0
 40
2.075
100
AcDbArc
 50
90.0
 51
180.0
  0
ARC
  5
4B9
330
1D
100
AcDbEntity
  8
BLACK
100
AcDbCircle
 10
129.1
 20
4.975001
 30
0.0
 40
2.075
100
AcDbArc
 50
0.0
 51
90.0
  0
LINE
  5
4BA
330
1D
100
AcDbEntity
  8
BLACK
  6
Continuous
100
AcDbLine
 10
129.1
 20
-7.049999
 30
0.0
 11
118.55
 21
-7.049999
 31
0.0
  0
ARC
  5
4BB
330
1D
100
AcDbEntity
  8
BLACK
100
AcDbCircle
 10
148.15
 20
-4.974999
 30
0.0
 40
2.075
100
AcDbArc
 50
270.0
 51
0.0
  0
LINE
  5
4BC
330
1D
100
AcDbEntity
  8
BLACK
  6
Continuous
100
AcDbLine
 10
150.225
 20
4.975001
 30
0.0
 11
150.225
 21
-4.974999
 31
0.0
  0
LINE
  5
4BD
330
1D
100
AcDbEntity
  8
BLACK
  6
Continuous
100
AcDbLine
 10
135.525
 20
4.975001
 30
0.0
 11
135.525
 21
-4.974999
 31
0.0
  0
LINE
  5
4BE
330
1D
100
AcDbEntity
  8
BLACK
  6
Continuous
100
AcDbLine
 10
148.15
 20
7.050001
 30
0.0
 11
137.6
 21
7.050001
 31
0.0
  0
ARC
  5
4BF
330
1D
100
AcDbEntity
  8
BLACK
100
AcDbCircle
 10
137.6
 20
-4.974999
 30
0.0
 40
2.075
100
AcDbArc
 50
180.0
 51
270.0
  0
ARC
  5
4C0
330
1D
100
AcDbEntity
  8
BLACK
100
AcDbCircle
 10
137.6
 20
4.975001
 30
0.0
 40
2.075
100
AcDbArc
 50
90.0
 51
180.0
  0
ARC
  5
4C1
330
1D
100
AcDbEntity
  8
BLACK
100
AcDbCircle
 10
148.15
 20
4.975001
 30
0.0
 40
2.075
100
AcDbArc
 50
0.0
 51
90.0
  0
LINE
  5
4C2
330
1D
100
AcDbEntity
  8
BLACK
  6
Continuous
100
AcDbLine
 10
148.15
 20
-7.049999
 30
0.0
 11
137.6
 21
-7.049999
 31
0.0
  0
ARC
  5
4C3
330
1D
100
AcDbEntity
  8
BLACK
100
AcDbCircle
 10
167.2
 20
-4.974999
 30
0.0
 40
2.075
100
AcDbArc
 50
270.0
 51
0.0
  0
LINE
  5
4C4
330
1D
100
AcDbEntity
  8
BLACK
  6
Continuous
100
AcDbLine
 10
169.275
 20
4.975001
 30
0.0
 11
169.275
 21
-4.974999
 31
0.0
  0
LINE
  5
4C5
330
1D
100
AcDbEntity
  8
BLACK
  6
Continuous
100
AcDbLine
 10
154.575
 20
4.975001
 30
0.0
 11
154.575
 21
-4.974999
 31
0.0
  0
LINE
  5
4C6
330
1D
100
AcDbEntity
  8
BLACK
  6
Continuous
100
AcDbLine
 10
167.2
 20
7.050001
 30
0.0
 11
156.65
 21
7.050001
 31
0.0
  0
ARC
  5
4C7
330
1D
100
AcDbEntity
  8
BLACK
100
AcDbCircle
 10
156.65
 20
-4.974999
 30
0.0
 40
2.075
100
AcDbArc
 50
180.0
 51
270.0
  0
ARC
  5
4C8
330
1D
100
AcDbEntity
  8
BLACK
100
AcDbCircle
 10
156.65
 20
4.975001
 30
0.0
 40
2.075
100
AcDbArc
 50
90.0
 51
180.0
  0
ARC
  5
4C9
330
1D
100
AcDbEntity
  8
BLACK
100
AcDbCircle
 10
167.2
 20
4.975001
 30
0.0
 40
2.075
100
AcDbArc
 50
0.0
 51
90.0
  0
LINE
  5
4CA
330
1D
100
AcDbEntity
  8
BLACK
  6
Continuous
100
AcDbLine
 10
167.2
 20
-7.049999
 30
0.0
 11
156.65
 21
-7.049999
 31
0.0
  0
ARC
  5
4CB
330
1D
100
AcDbEntity
  8
BLACK
100
AcDbCircle
 10
271.975
 20
-4.974999
 30
0.0
 40
2.075
100
AcDbArc
 50
270.0
 51
0.0
  0
LINE
  5
4CC
330
1D
100
AcDbEntity
  8
BLACK
  6
Continuous
100
AcDbLine
 10
274.05
 20
4.975001
 30
0.0
 11
274.05
 21
-4.974999
 31
0.0
  0
LINE
  5
4CD
330
1D
100
AcDbEntity
  8
BLACK
  6
Continuous
100
AcDbLine
 10
259.35
 20
4.975001
 30
0.0
 11
259.35
 21
-4.974999
 31
0.0
  0
LINE
  5
4CE
330
1D
100
AcDbEntity
  8
BLACK
  6
Continuous
100
AcDbLine
 10
271.975
 20
7.050001
 30
0.0
 11
261.425
 21
7.050001
 31
0.0
  0
ARC
  5
4CF
330
1D
100
AcDbEntity
  8
BLACK
100
AcDbCircle
 10
261.425
 20
-4.974999
 30
0.0
 40
2.075
100
AcDbArc
 50
180.0
 51
270.0
  0
ARC
  5
4D0
330
1D
100
AcDbEntity
  8
BLACK
100
AcDbCircle
 10
261.425
 20
4.975001
 30
0.0
 40
2.075
100
AcDbArc
 50
90.0
 51
180.0
  0
ARC
  5
4D1
330
1D
100
AcDbEntity
  8
BLACK
100
AcDbCircle
 10
271.975
 20
4.975001
 30
0.0
 40
2.075
100
AcDbArc
 50
0.0
 51
90.0
  0
LINE
  5
4D2
330
1D
100
AcDbEntity
  8
BLACK
  6
Continuous
100
AcDbLine
 10
271.975
 20
-7.049999
 30
0.0
 11
261.425
 21
-7.049999
 31
0.0
  0
ARC
  5
4D3
330
1D
100
AcDbEntity
  8
BLACK
100
AcDbCircle
 10
295.7875
 20
-4.974999
 30
0.0
 40
2.075
100
AcDbArc
 50
270.0
 51
0.0
  0
LINE
  5
4D4
330
1D
100
AcDbEntity
  8
BLACK
  6
Continuous
100
AcDbLine
 10
297.8625
 20
4.975001
 30
0.0
 11
297.8625
 21
-4.974999
 31
0.0
  0
LINE
  5
4D5
330
1D
100
AcDbEntity
  8
BLACK
  6
Continuous
100
AcDbLine
 10
283.1625
 20
4.975001
 30
0.0
 11
283.1625
 21
-4.974999
 31
0.0
  0
LINE
  5
4D6
330
1D
100
AcDbEntity
  8
BLACK
  6
Continuous
100
AcDbLine
 10
295.7875
 20
7.050001
 30
0.0
 11
285.2375
 21
7.050001
 31
0.0
  0
ARC
  5
4D7
330
1D
100
AcDbEntity
  8
BLACK
100
AcDbCircle
 10
285.2375
 20
-4.974999
 30
0.0
 40
2.075
100
AcDbArc
 50
180.0
 51
270.0
  0
ARC
  5
4D8
330
1D
100
AcDbEntity
  8
BLACK
100
AcDbCircle
 10
285.2375
 20
4.975001
 30
0.0
 40
2.075
100
AcDbArc
 50
90.0
 51
180.0
  0
ARC
  5
4D9
330
1D
100
AcDbEntity
  8
BLACK
100
AcDbCircle
 10
295.7875
 20
4.975001
 30
0.0
 40
2.075
100
AcDbArc
 50
0.0
 51
90.0
  0
LINE
  5
4DA
330
1D
100
AcDbEntity
  8
BLACK
  6
Continuous
100
AcDbLine
 10
295.7875
 20
-7.049999
 30
0.0
 11
285.2375
 21
-7.049999
 31
0.0
  0
ARC
  5
4DB
330
1D
100
AcDbEntity
  8
BLACK
100
AcDbCircle
 10
314.8375
 20
-4.974999
 30
0.0
 40
2.075
100
AcDbArc
 50
270.0
 51
0.0
  0
LINE
  5
4DC
330
1D
100
AcDbEntity
  8
BLACK
  6
Continuous
100
AcDbLine
 10
316.9125
 20
4.975001
 30
0.0
 11
316.9125
 21
-4.974999
 31
0.0
  0
LINE
  5
4DD
330
1D
100
AcDbEntity
  8
BLACK
  6
Continuous
100
AcDbLine
 10
302.2125
 20
4.975001
 30
0.0
 11
302.2125
 21
-4.974999
 31
0.0
  0
LINE
  5
4DE
330
1D
100
AcDbEntity
  8
BLACK
  6
Continuous
100
AcDbLine
 10
314.8375
 20
7.050001
 30
0.0
 11
304.2875
 21
7.050001
 31
0.0
  0
ARC
  5
4DF
330
1D
100
AcDbEntity
  8
BLACK
100
AcDbCircle
 10
304.2875
 20
-4.974999
 30
0.0
 40
2.075
100
AcDbArc
 50
180.0
 51
270.0
  0
ARC
  5
4E0
330
1D
100
AcDbEntity
  8
BLACK
100
AcDbCircle
 10
304.2875
 20
4.975001
 30
0.0
 40
2.075
100
AcDbArc
 50
90.0
 51
180.0
  0
ARC
  5
4E1
330
1D
100
AcDbEntity
  8
BLACK
100
AcDbCircle
 10
314.8375
 20
4.975001
 30
0.0
 40
2.075
100
AcDbArc
 50
0.0
 51
90.0
  0
LINE
  5
4E2
330
1D
100
AcDbEntity
  8
BLACK
  6
Continuous
100
AcDbLine
 10
314.8375
 20
-7.049999
 30
0.0
 11
304.2875
 21
-7.049999
 31
0.0
  0
ARC
  5
4E3
330
1D
100
AcDbEntity
  8
BLACK
100
AcDbCircle
 10
333.8875
 20
-4.974999
 30
0.0
 40
2.075
100
AcDbArc
 50
270.0
 51
0.0
  0
LINE
  5
4E4
330
1D
100
AcDbEntity
  8
BLACK
  6
Continuous
100
AcDbLine
 10
335.9625
 20
4.975001
 30
0.0
 11
335.9625
 21
-4.974999
 31
0.0
  0
LINE
  5
4E5
330
1D
100
AcDbEntity
  8
BLACK
  6
Continuous
100
AcDbLine
 10
321.2625
 20
4.975001
 30
0.0
 11
321.2625
 21
-4.974999
 31
0.0
  0
LINE
  5
4E6
330
1D
100
AcDbEntity
  8
BLACK
  6
Continuous
100
AcDbLine
 10
333.8875
 20
7.050001
 30
0.0
 11
323.3375
 21
7.050001
 31
0.0
  0
ARC
  5
4E7
330
1D
100
AcDbEntity
  8
BLACK
100
AcDbCircle
 10
323.3375
 20
-4.974999
 30
0.0
 40
2.075
100
AcDbArc
 50
180.0
 51
270.0
  0
ARC
  5
4E8
330
1D
100
AcDbEntity
  8
BLACK
100
AcDbCircle
 10
323.3375
 20
4.975001
 30
0.0
 40
2.075
100
AcDbArc
 50
90.0
 51
180.0
  0
ARC
  5
4E9
330
1D
100
AcDbEntity
  8
BLACK
100
AcDbCircle
 10
333.8875
 20
4.975001
 30
0.0
 40
2.075
100
AcDbArc
 50
0.0
 51
90.0
  0
LINE
  5
4EA
330
1D
100
AcDbEntity
  8
BLACK
  6
Continuous
100
AcDbLine
 10
333.8875
 20
-7.049999
 30
0.0
 11
323.3375
 21
-7.049999
 31
0.0
  0
ARC
  5
4EB
330
1D
100
AcDbEntity
  8
BLACK
100
AcDbCircle
 10
295.7875
 20
-28.787499
 30
0.0
 40
2.075
100
AcDbArc
 50
270.0
 51
0.0
  0
LINE
  5
4EC
330
1D
100
AcDbEntity
  8
BLACK
  6
Continuous
100
AcDbLine
 10
297.8625
 20
-18.837499
 30
0.0
 11
297.8625
 21
-28.787499
 31
0.0
  0
LINE
  5
4ED
330
1D
100
AcDbEntity
  8
BLACK
  6
Continuous
100
AcDbLine
 10
283.1625
 20
-18.837499
 30
0.0
 11
283.1625
 21
-28.787499
 31
0.0
  0
LINE
  5
4EE
330
1D
100
AcDbEntity
  8
BLACK
  6
Continuous
100
AcDbLine
 10
295.7875
 20
-16.762499
 30
0.0
 11
285.2375
 21
-16.762499
 31
0.0
  0
ARC
  5
4EF
330
1D
100
AcDbEntity
  8
BLACK
100
AcDbCircle
 10
285.2375
 20
-28.787499
 30
0.0
 40
2.075
100
AcDbArc
 50
180.0
 51
270.0
  0
ARC
  5
4F0
330
1D
100
AcDbEntity
  8
BLACK
100
AcDbCircle
 10
285.2375
 20
-18.837499
 30
0.0
 40
2.075
100
AcDbArc
 50
90.0
 51
180.0
  0
ARC
  5
4F1
330
1D
100
AcDbEntity
  8
BLACK
100
AcDbCircle
 10
295.7875
 20
-18.837499
 30
0.0
 40
2.075
100
AcDbArc
 50
0.0
 51
90.0
  0
LINE
  5
4F2
330
1D
100
AcDbEntity
  8
BLACK
  6
Continuous
100
AcDbLine
 10
295.7875
 20
-30.862499
 30
0.0
 11
285.2375
 21
-30.862499
 31
0.0
  0
ARC
  5
4F3
330
1D
100
AcDbEntity
  8
BLACK
100
AcDbCircle
 10
314.8375
 20
-28.787499
 30
0.0
 40
2.075
100
AcDbArc
 50
270.0
 51
0.0
  0
LINE
  5
4F4
330
1D
100
AcDbEntity
  8
BLACK
  6
Continuous
100
AcDbLine
 10
316.9125
 20
-18.837499
 30
0.0
 11
316.9125
 21
-28.787499
 31
0.0
  0
LINE
  5
4F5
330
1D
100
AcDbEntity
  8
BLACK
  6
Continuous
100
AcDbLine
 10
302.2125
 20
-18.837499
 30
0.0
 11
302.2125
 21
-28.787499
 31
0.0
  0
LINE
  5
4F6
330
1D
100
AcDbEntity
  8
BLACK
  6
Continuous
100
AcDbLine
 10
314.8375
 20
-16.762499
 30
0.0
 11
304.2875
 21
-16.762499
 31
0.0
  0
ARC
  5
4F7
330
1D
100
AcDbEntity
  8
BLACK
100
AcDbCircle
 10
304.2875
 20
-28.787499
 30
0.0
 40
2.075
100
AcDbArc
 50
180.0
 51
270.0
  0
ARC
  5
4F8
330
1D
100
AcDbEntity
  8
BLACK
100
AcDbCircle
 10
304.2875
 20
-18.837499
 30
0.0
 40
2.075
100
AcDbArc
 50
90.0
 51
180.0
  0
ARC
  5
4F9
330
1D
100
AcDbEntity
  8
BLACK
100
AcDbCircle
 10
314.8375
 20
-18.837499
 30
0.0
 40
2.075
100
AcDbArc
 50
0.0
 51
90.0
  0
LINE
  5
4FA
330
1D
100
AcDbEntity
  8
BLACK
  6
Continuous
100
AcDbLine
 10
314.8375
 20
-30.862499
 30
0.0
 11
304.2875
 21
-30.862499
 31
0.0
  0
ARC
  5
4FB
330
1D
100
AcDbEntity
  8
BLACK
100
AcDbCircle
 10
333.8875
 20
-28.787499
 30
0.0
 40
2.075
100
AcDbArc
 50
270.0
 51
0.0
  0
LINE
  5
4FC
330
1D
100
AcDbEntity
  8
BLACK
  6
Continuous
100
AcDbLine
 10
335.9625
 20
-18.837499
 30
0.0
 11
335.9625
 21
-28.787499
 31
0.0
  0
LINE
  5
4FD
330
1D
100
AcDbEntity
  8
BLACK
  6
Continuous
100
AcDbLine
 10
321.2625
 20
-18.837499
 30
0.0
 11
321.2625
 21
-28.787499
 31
0.0
  0
LINE
  5
4FE
330
1D
100
AcDbEntity
  8
BLACK
  6
Continuous
100
AcDbLine
 10
333.8875
 20
-16.762499
 30
0.0
 11
323.3375
 21
-16.762499
 31
0.0
  0
ARC
  5
4FF
330
1D
100
AcDbEntity
  8
BLACK
100
AcDbCircle
 10
323.3375
 20
-28.787499
 30
0.0
 40
2.075
100
AcDbArc
 50
180.0
 51
270.0
  0
ARC
  5
500
330
1D
100
AcDbEntity
  8
BLACK
100
AcDbCircle
 10
323.3375
 20
-18.837499
 30
0.0
 40
2.075
100
AcDbArc
 50
90.0
 51
180.0
  0
ARC
  5
501
330
1D
100
AcDbEntity
  8
BLACK
100
AcDbCircle
 10
333.8875
 20
-18.837499
 30
0.0
 40
2.075
100
AcDbArc
 50
0.0
 51
90.0
  0
LINE
  5
502
330
1D
100
AcDbEntity
  8
BLACK
  6
Continuous
100
AcDbLine
 10
333.8875
 20
-30.862499
 30
0.0
 11
323.3375
 21
-30.862499
 31
0.0
  0
ARC
  5
503
330
1D
100
AcDbEntity
  8
BLACK
100
AcDbCircle
 10
314.8375
 20
-47.837499
 30
0.0
 40
2.075
100
AcDbArc
 50
270.0
 51
0.0
  0
LINE
  5
504
330
1D
100
AcDbEntity
  8
BLACK
  6
Continuous
100
AcDbLine
 10
316.9125
 20
-37.887499
 30
0.0
 11
316.9125
 21
-47.837499
 31
0.0
  0
LINE
  5
505
330
1D
100
AcDbEntity
  8
BLACK
  6
Continuous
100
AcDbLine
 10
302.2125
 20
-37.887499
 30
0.0
 11
302.2125
 21
-47.837499
 31
0.0
  0
LINE
  5
506
330
1D
100
AcDbEntity
  8
BLACK
  6
Continuous
100
AcDbLine
 10
314.8375
 20
-35.812499
 30
0.0
 11
304.2875
 21
-35.812499
 31
0.0
  0
ARC
  5
507
330
1D
100
AcDbEntity
  8
BLACK
100
AcDbCircle
 10
304.2875
 20
-47.837499
 30
0.0
 40
2.075
100
AcDbArc
 50
180.0
 51
270.0
  0
ARC
  5
508
330
1D
100
AcDbEntity
  8
BLACK
100
AcDbCircle
 10
304.2875
 20
-37.887499
 30
0.0
 40
2.075
100
AcDbArc
 50
90.0
 51
180.0
  0
ARC
  5
509
330
1D
100
AcDbEntity
  8
BLACK
100
AcDbCircle
 10
314.8375
 20
-37.887499
 30
0.0
 40
2.075
100
AcDbArc
 50
0.0
 51
90.0
  0
LINE
  5
50A
330
1D
100
AcDbEntity
  8
BLACK
  6
Continuous
100
AcDbLine
 10
314.8375
 20
-49.912499
 30
0.0
 11
304.2875
 21
-49.912499
 31
0.0
  0
ARC
  5
50B
330
1D
100
AcDbEntity
  8
BLACK
100
AcDbCircle
 10
333.8875
 20
-47.837499
 30
0.0
 40
2.075
100
AcDbArc
 50
270.0
 51
0.0
  0
LINE
  5
50C
330
1D
100
AcDbEntity
  8
BLACK
  6
Continuous
100
AcDbLine
 10
335.9625
 20
-37.887499
 30
0.0
 11
335.9625
 21
-47.837499
 31
0.0
  0
LINE
  5
50D
330
1D
100
AcDbEntity
  8
BLACK
  6
Continuous
100
AcDbLine
 10
321.2625
 20
-37.887499
 30
0.0
 11
321.2625
 21
-47.837499
 31
0.0
  0
LINE
  5
50E
330
1D
100
AcDbEntity
  8
BLACK
  6
Continuous
100
AcDbLine
 10
333.8875
 20
-35.812499
 30
0.0
 11
323.3375
 21
-35.812499
 31
0.0
  0
ARC
  5
50F
330
1D
100
AcDbEntity
  8
BLACK
100
AcDbCircle
 10
323.3375
 20
-47.837499
 30
0.0
 40
2.075
100
AcDbArc
 50
180.0
 51
270.0
  0
ARC
  5
510
330
1D
100
AcDbEntity
  8
BLACK
100
AcDbCircle
 10
323.3375
 20
-37.887499
 30
0.0
 40
2.075
100
AcDbArc
 50
90.0
 51
180.0
  0
ARC
  5
511
330
1D
100
AcDbEntity
  8
BLACK
100
AcDbCircle
 10
333.8875
 20
-37.887499
 30
0.0
 40
2.075
100
AcDbArc
 50
0.0
 51
90.0
  0
LINE
  5
512
330
1D
100
AcDbEntity
  8
BLACK
  6
Continuous
100
AcDbLine
 10
333.8875
 20
-49.912499
 30
0.0
 11
323.3375
 21
-49.912499
 31
0.0
  0
ARC
  5
513
330
1D
100
AcDbEntity
  8
BLACK
100
AcDbCircle
 10
295.7875
 20
-47.837499
 30
0.0
 40
2.075
100
AcDbArc
 50
270.0
 51
0.0
  0
LINE
  5
514
330
1D
100
AcDbEntity
  8
BLACK
  6
Continuous
100
AcDbLine
 10
297.8625
 20
-37.887499
 30
0.0
 11
297.8625
 21
-47.837499
 31
0.0
  0
LINE
  5
515
330
1D
100
AcDbEntity
  8
BLACK
  6
Continuous
100
AcDbLine
 10
283.1625
 20
-37.887499
 30
0.0
 11
283.1625
 21
-47.837499
 31
0.0
  0
LINE
  5
516
330
1D
100
AcDbEntity
  8
BLACK
  6
Continuous
100
AcDbLine
 10
295.7875
 20
-35.812499
 30
0.0
 11
285.2375
 21
-35.812499
 31
0.0
  0
ARC
  5
517
330
1D
100
AcDbEntity
  8
BLACK
100
AcDbCircle
 10
285.2375
 20
-47.837499
 30
0.0
 40
2.075
100
AcDbArc
 50
180.0
 51
270.0
  0
ARC
  5
518
330
1D
100
AcDbEntity
  8
BLACK
100
AcDbCircle
 10
285.2375
 20
-37.887499
 30
0.0
 40
2.075
100
AcDbArc
 50
90.0
 51
180.0
  0
ARC
  5
519
330
1D
100
AcDbEntity
  8
BLACK
100
AcDbCircle
 10
295.7875
 20
-37.887499
 30
0.0
 40
2.075
100
AcDbArc
 50
0.0
 51
90.0
  0
LINE
  5
51A
330
1D
100
AcDbEntity
  8
BLACK
  6
Continuous
100
AcDbLine
 10
295.7875
 20
-49.912499
 30
0.0
 11
285.2375
 21
-49.912499
 31
0.0
  0
ARC
  5
51B
330
1D
100
AcDbEntity
  8
BLACK
100
AcDbCircle
 10
314.8375
 20
-85.937499
 30
0.0
 40
2.075
100
AcDbArc
 50
270.0
 51
0.0
  0
LINE
  5
51C
330
1D
100
AcDbEntity
  8
BLACK
  6
Continuous
100
AcDbLine
 10
316.9125
 20
-75.987499
 30
0.0
 11
316.9125
 21
-85.937499
 31
0.0
  0
LINE
  5
51D
330
1D
100
AcDbEntity
  8
BLACK
  6
Continuous
100
AcDbLine
 10
302.2125
 20
-75.987499
 30
0.0
 11
302.2125
 21
-85.937499
 31
0.0
  0
LINE
  5
51E
330
1D
100
AcDbEntity
  8
BLACK
  6
Continuous
100
AcDbLine
 10
314.8375
 20
-73.912499
 30
0.0
 11
304.2875
 21
-73.912499
 31
0.0
  0
ARC
  5
51F
330
1D
100
AcDbEntity
  8
BLACK
100
AcDbCircle
 10
304.2875
 20
-85.937499
 30
0.0
 40
2.075
100
AcDbArc
 50
180.0
 51
270.0
  0
ARC
  5
520
330
1D
100
AcDbEntity
  8
BLACK
100
AcDbCircle
 10
304.2875
 20
-75.987499
 30
0.0
 40
2.075
100
AcDbArc
 50
90.0
 51
180.0
  0
ARC
  5
521
330
1D
100
AcDbEntity
  8
BLACK
100
AcDbCircle
 10
314.8375
 20
-75.987499
 30
0.0
 40
2.075
100
AcDbArc
 50
0.0
 51
90.0
  0
LINE
  5
522
330
1D
100
AcDbEntity
  8
BLACK
  6
Continuous
100
AcDbLine
 10
314.8375
 20
-88.01249899999999
 30
0.0
 11
304.2875
 21
-88.01249899999999
 31
0.0
  0
ARC
  5
523
330
1D
100
AcDbEntity
  8
BLACK
100
AcDbCircle
 10
314.8375
 20
-104.987499
 30
0.0
 40
2.075
100
AcDbArc
 50
270.0
 51
0.0
  0
LINE
  5
524
330
1D
100
AcDbEntity
  8
BLACK
  6
Continuous
100
AcDbLine
 10
316.9125
 20
-95.037499
 30
0.0
 11
316.9125
 21
-104.987499
 31
0.0
  0
LINE
  5
525
330
1D
100
AcDbEntity
  8
BLACK
  6
Continuous
100
AcDbLine
 10
302.2125
 20
-95.037499
 30
0.0
 11
302.2125
 21
-104.987499
 31
0.0
  0
LINE
  5
526
330
1D
100
AcDbEntity
  8
BLACK
  6
Continuous
100
AcDbLine
 10
314.8375
 20
-92.962499
 30
0.0
 11
304.2875
 21
-92.962499
 31
0.0
  0
ARC
  5
527
330
1D
100
AcDbEntity
  8
BLACK
100
AcDbCircle
 10
304.2875
 20
-104.987499
 30
0.0
 40
2.075
100
AcDbArc
 50
180.0
 51
270.0
  0
ARC
  5
528
330
1D
100
AcDbEntity
  8
BLACK
100
AcDbCircle
 10
304.2875
 20
-95.037499
 30
0.0
 40
2.075
100
AcDbArc
 50
90.0
 51
180.0
  0
ARC
  5
529
330
1D
100
AcDbEntity
  8
BLACK
100
AcDbCircle
 10
314.8375
 20
-95.037499
 30
0.0
 40
2.075
100
AcDbArc
 50
0.0
 51
90.0
  0
LINE
  5
52A
330
1D
100
AcDbEntity
  8
BLACK
  6
Continuous
100
AcDbLine
 10
314.8375
 20
-107.062499
 30
0.0
 11
304.2875
 21
-107.062499
 31
0.0
  0
ARC
  5
52B
330
1D
100
AcDbEntity
  8
BLACK
100
AcDbCircle
 10
295.7875
 20
-104.987499
 30
0.0
 40
2.075
100
AcDbArc
 50
270.0
 51
0.0
  0
LINE
  5
52C
330
1D
100
AcDbEntity
  8
BLACK
  6
Continuous
100
AcDbLine
 10
297.8625
 20
-95.037499
 30
0.0
 11
297.8625
 21
-104.987499
 31
0.0
  0
LINE
  5
52D
330
1D
100
AcDbEntity
  8
BLACK
  6
Continuous
100
AcDbLine
 10
283.1625
 20
-95.037499
 30
0.0
 11
283.1625
 21
-104.987499
 31
0.0
  0
LINE
  5
52E
330
1D
100
AcDbEntity
  8
BLACK
  6
Continuous
100
AcDbLine
 10
295.7875
 20
-92.962499
 30
0.0
 11
285.2375
 21
-92.962499
 31
0.0
  0
ARC
  5
52F
330
1D
100
AcDbEntity
  8
BLACK
100
AcDbCircle
 10
285.2375
 20
-104.987499
 30
0.0
 40
2.075
100
AcDbArc
 50
180.0
 51
270.0
  0
ARC
  5
530
330
1D
100
AcDbEntity
  8
BLACK
100
AcDbCircle
 10
285.2375
 20
-95.037499
 30
0.0
 40
2.075
100
AcDbArc
 50
90.0
 51
180.0
  0
ARC
  5
531
330
1D
100
AcDbEntity
  8
BLACK
100
AcDbCircle
 10
295.7875
 20
-95.037499
 30
0.0
 40
2.075
100
AcDbArc
 50
0.0
 51
90.0
  0
LINE
  5
532
330
1D
100
AcDbEntity
  8
BLACK
  6
Continuous
100
AcDbLine
 10
295.7875
 20
-107.062499
 30
0.0
 11
285.2375
 21
-107.062499
 31
0.0
  0
ARC
  5
533
330
1D
100
AcDbEntity
  8
BLACK
100
AcDbCircle
 10
333.8875
 20
-104.987499
 30
0.0
 40
2.075
100
AcDbArc
 50
270.0
 51
0.0
  0
LINE
  5
534
330
1D
100
AcDbEntity
  8
BLACK
  6
Continuous
100
AcDbLine
 10
335.9625
 20
-95.037499
 30
0.0
 11
335.9625
 21
-104.987499
 31
0.0
  0
LINE
  5
535
330
1D
100
AcDbEntity
  8
BLACK
  6
Continuous
100
AcDbLine
 10
321.2625
 20
-95.037499
 30
0.0
 11
321.2625
 21
-104.987499
 31
0.0
  0
LINE
  5
536
330
1D
100
AcDbEntity
  8
BLACK
  6
Continuous
100
AcDbLine
 10
333.8875
 20
-92.962499
 30
0.0
 11
323.3375
 21
-92.962499
 31
0.0
  0
ARC
  5
537
330
1D
100
AcDbEntity
  8
BLACK
100
AcDbCircle
 10
323.3375
 20
-104.987499
 30
0.0
 40
2.075
100
AcDbArc
 50
180.0
 51
270.0
  0
ARC
  5
538
330
1D
100
AcDbEntity
  8
BLACK
100
AcDbCircle
 10
323.3375
 20
-95.037499
 30
0.0
 40
2.075
100
AcDbArc
 50
90.0
 51
180.0
  0
ARC
  5
539
330
1D
100
AcDbEntity
  8
BLACK
100
AcDbCircle
 10
333.8875
 20
-95.037499
 30
0.0
 40
2.075
100
AcDbArc
 50
0.0
 51
90.0
  0
LINE
  5
53A
330
1D
100
AcDbEntity
  8
BLACK
  6
Continuous
100
AcDbLine
 10
333.8875
 20
-107.062499
 30
0.0
 11
323.3375
 21
-107.062499
 31
0.0
  0
ARC
  5
53B
330
1D
100
AcDbEntity
  8
BLACK
100
AcDbCircle
 10
5.274999999999999
 20
-28.787499
 30
0.0
 40
2.075
100
AcDbArc
 50
270.0
 51
0.0
  0
LINE
  5
53C
330
1D
100
AcDbEntity
  8
BLACK
  6
Continuous
100
AcDbLine
 10
7.35
 20
-18.837499
 30
0.0
 11
7.35
 21
-28.787499
 31
0.0
  0
LINE
  5
53D
330
1D
100
AcDbEntity
  8
BLACK
  6
Continuous
100
AcDbLine
 10
-7.35
 20
-18.837503
 30
0.0
 11
-7.35
 21
-28.787497
 31
0.0
  0
LINE
  5
53E
330
1D
100
AcDbEntity
  8
BLACK
  6
Continuous
100
AcDbLine
 10
5.274999999999999
 20
-16.762499
 30
0.0
 11
-5.274996
 21
-16.762499
 31
0.0
  0
ARC
  5
53F
330
1D
100
AcDbEntity
  8
BLACK
100
AcDbCircle
 10
-5.274998
 20
-28.787497
 30
0.0
 40
2.075002
100
AcDbArc
 50
180.0
 51
270.0
  0
ARC
  5
540
330
1D
100
AcDbEntity
  8
BLACK
100
AcDbCircle
 10
-5.274996
 20
-18.837503
 30
0.0
 40
2.075004
100
AcDbArc
 50
90.0
 51
180.0
  0
ARC
  5
541
330
1D
100
AcDbEntity
  8
BLACK
100
AcDbCircle
 10
5.274999999999999
 20
-18.837499
 30
0.0
 40
2.075
100
AcDbArc
 50
0.0
 51
90.0
  0
LINE
  5
542
330
1D
100
AcDbEntity
  8
BLACK
  6
Continuous
100
AcDbLine
 10
5.274999999999999
 20
-30.862499
 30
0.0
 11
-5.274998
 21
-30.862499
 31
0.0
  0
ARC
  5
543
330
1D
100
AcDbEntity
  8
BLACK
100
AcDbCircle
 10
10.0375
 20
-47.837499
 30
0.0
 40
2.075
100
AcDbArc
 50
270.0
 51
0.0
  0
LINE
  5
544
330
1D
100
AcDbEntity
  8
BLACK
  6
Continuous
100
AcDbLine
 10
12.1125
 20
-37.887499
 30
0.0
 11
12.1125
 21
-47.837499
 31
0.0
  0
LINE
  5
545
330
1D
100
AcDbEntity
  8
BLACK
  6
Continuous
100
AcDbLine
 10
-2.5875
 20
-37.887503
 30
0.0
 11
-2.5875
 21
-47.837497
 31
0.0
  0
LINE
  5
546
330
1D
100
AcDbEntity
  8
BLACK
  6
Continuous
100
AcDbLine
 10
10.0375
 20
-35.812499
 30
0.0
 11
-0.512496
 21
-35.812499
 31
0.0
  0
ARC
  5
547
330
1D
100
AcDbEntity
  8
BLACK
100
AcDbCircle
 10
-0.512498
 20
-47.837497
 30
0.0
 40
2.075002000000241
100
AcDbArc
 50
180.0
 51
270.0000276100001
  0
ARC
  5
548
330
1D
100
AcDbEntity
  8
BLACK
100
AcDbCircle
 10
-0.512496
 20
-37.887503
 30
0.0
 40
2.075004
100
AcDbArc
 50
90.0
 51
180.0
  0
ARC
  5
549
330
1D
100
AcDbEntity
  8
BLACK
100
AcDbCircle
 10
10.0375
 20
-37.887499
 30
0.0
 40
2.075
100
AcDbArc
 50
0.0
 51
90.0
  0
LINE
  5
54A
330
1D
100
AcDbEntity
  8
BLACK
  6
Continuous
100
AcDbLine
 10
10.0375
 20
-49.912499
 30
0.0
 11
-0.512497
 21
-49.912499
 31
0.0
  0
ARC
  5
54B
330
1D
100
AcDbEntity
  8
BLACK
100
AcDbCircle
 10
24.325
 20
-28.787499
 30
0.0
 40
2.075
100
AcDbArc
 50
270.0
 51
0.0
  0
LINE
  5
54C
330
1D
100
AcDbEntity
  8
BLACK
  6
Continuous
100
AcDbLine
 10
26.4
 20
-18.837499
 30
0.0
 11
26.4
 21
-28.787499
 31
0.0
  0
LINE
  5
54D
330
1D
100
AcDbEntity
  8
BLACK
  6
Continuous
100
AcDbLine
 10
11.7
 20
-18.837499
 30
0.0
 11
11.7
 21
-28.787499
 31
0.0
  0
LINE
  5
54E
330
1D
100
AcDbEntity
  8
BLACK
  6
Continuous
100
AcDbLine
 10
24.325
 20
-16.762499
 30
0.0
 11
13.775
 21
-16.762499
 31
0.0
  0
ARC
  5
54F
330
1D
100
AcDbEntity
  8
BLACK
100
AcDbCircle
 10
13.775
 20
-28.787499
 30
0.0
 40
2.075
100
AcDbArc
 50
180.0
 51
270.0
  0
ARC
  5
550
330
1D
100
AcDbEntity
  8
BLACK
100
AcDbCircle
 10
13.775
 20
-18.837499
 30
0.0
 40
2.075
100
AcDbArc
 50
90.0
 51
180.0
  0
ARC
  5
551
330
1D
100
AcDbEntity
  8
BLACK
100
AcDbCircle
 10
24.325
 20
-18.837499
 30
0.0
 40
2.075
100
AcDbArc
 50
0.0
 51
90.0
  0
LINE
  5
552
330
1D
100
AcDbEntity
  8
BLACK
  6
Continuous
100
AcDbLine
 10
24.325
 20
-30.862499
 30
0.0
 11
13.775
 21
-30.862499
 31
0.0
  0
ARC
  5
553
330
1D
100
AcDbEntity
  8
BLACK
100
AcDbCircle
 10
43.375
 20
-28.787499
 30
0.0
 40
2.075
100
AcDbArc
 50
270.0
 51
0.0
  0
LINE
  5
554
330
1D
100
AcDbEntity
  8
BLACK
  6
Continuous
100
AcDbLine
 10
45.45
 20
-18.837499
 30
0.0
 11
45.45
 21
-28.787499
 31
0.0
  0
LINE
  5
555
330
1D
100
AcDbEntity
  8
BLACK
  6
Continuous
100
AcDbLine
 10
30.75
 20
-18.837499
 30
0.0
 11
30.75
 21
-28.787499
 31
0.0
  0
LINE
  5
556
330
1D
100
AcDbEntity
  8
BLACK
  6
Continuous
100
AcDbLine
 10
43.375
 20
-16.762499
 30
0.0
 11
32.825
 21
-16.762499
 31
0.0
  0
ARC
  5
557
330
1D
100
AcDbEntity
  8
BLACK
100
AcDbCircle
 10
32.825
 20
-28.787499
 30
0.0
 40
2.075
100
AcDbArc
 50
180.0
 51
270.0
  0
ARC
  5
558
330
1D
100
AcDbEntity
  8
BLACK
100
AcDbCircle
 10
32.825
 20
-18.837499
 30
0.0
 40
2.075
100
AcDbArc
 50
90.0
 51
180.0
  0
ARC
  5
559
330
1D
100
AcDbEntity
  8
BLACK
100
AcDbCircle
 10
43.375
 20
-18.837499
 30
0.0
 40
2.075
100
AcDbArc
 50
0.0
 51
90.0
  0
LINE
  5
55A
330
1D
100
AcDbEntity
  8
BLACK
  6
Continuous
100
AcDbLine
 10
43.375
 20
-30.862499
 30
0.0
 11
32.825
 21
-30.862499
 31
0.0
  0
ARC
  5
55B
330
1D
100
AcDbEntity
  8
BLACK
100
AcDbCircle
 10
62.425
 20
-28.787499
 30
0.0
 40
2.075
100
AcDbArc
 50
270.0
 51
0.0
  0
LINE
  5
55C
330
1D
100
AcDbEntity
  8
BLACK
  6
Continuous
100
AcDbLine
 10
64.5
 20
-18.837499
 30
0.0
 11
64.5
 21
-28.787499
 31
0.0
  0
LINE
  5
55D
330
1D
100
AcDbEntity
  8
BLACK
  6
Continuous
100
AcDbLine
 10
49.8
 20
-18.837499
 30
0.0
 11
49.8
 21
-28.787499
 31
0.0
  0
LINE
  5
55E
330
1D
100
AcDbEntity
  8
BLACK
  6
Continuous
100
AcDbLine
 10
62.425
 20
-16.762499
 30
0.0
 11
51.875
 21
-16.762499
 31
0.0
  0
ARC
  5
55F
330
1D
100
AcDbEntity
  8
BLACK
100
AcDbCircle
 10
51.875
 20
-28.787499
 30
0.0
 40
2.075
100
AcDbArc
 50
180.0
 51
270.0
  0
ARC
  5
560
330
1D
100
AcDbEntity
  8
BLACK
100
AcDbCircle
 10
51.875
 20
-18.837499
 30
0.0
 40
2.075
100
AcDbArc
 50
90.0
 51
180.0
  0
ARC
  5
561
330
1D
100
AcDbEntity
  8
BLACK
100
AcDbCircle
 10
62.425
 20
-18.837499
 30
0.0
 40
2.075
100
AcDbArc
 50
0.0
 51
90.0
  0
LINE
  5
562
330
1D
100
AcDbEntity
  8
BLACK
  6
Continuous
100
AcDbLine
 10
62.425
 20
-30.862499
 30
0.0
 11
51.875
 21
-30.862499
 31
0.0
  0
ARC
  5
563
330
1D
100
AcDbEntity
  8
BLACK
100
AcDbCircle
 10
81.475
 20
-28.787499
 30
0.0
 40
2.075
100
AcDbArc
 50
270.0
 51
0.0
  0
LINE
  5
564
330
1D
100
AcDbEntity
  8
BLACK
  6
Continuous
100
AcDbLine
 10
83.55
 20
-18.837499
 30
0.0
 11
83.55
 21
-28.787499
 31
0.0
  0
LINE
  5
565
330
1D
100
AcDbEntity
  8
BLACK
  6
Continuous
100
AcDbLine
 10
68.85
 20
-18.837499
 30
0.0
 11
68.85
 21
-28.787499
 31
0.0
  0
LINE
  5
566
330
1D
100
AcDbEntity
  8
BLACK
  6
Continuous
100
AcDbLine
 10
81.475
 20
-16.762499
 30
0.0
 11
70.925
 21
-16.762499
 31
0.0
  0
ARC
  5
567
330
1D
100
AcDbEntity
  8
BLACK
100
AcDbCircle
 10
70.925
 20
-28.787499
 30
0.0
 40
2.075
100
AcDbArc
 50
180.0
 51
270.0
  0
ARC
  5
568
330
1D
100
AcDbEntity
  8
BLACK
100
AcDbCircle
 10
70.925
 20
-18.837499
 30
0.0
 40
2.075
100
AcDbArc
 50
90.0
 51
180.0
  0
ARC
  5
569
330
1D
100
AcDbEntity
  8
BLACK
100
AcDbCircle
 10
81.475
 20
-18.837499
 30
0.0
 40
2.075
100
AcDbArc
 50
0.0
 51
90.0
  0
LINE
  5
56A
330
1D
100
AcDbEntity
  8
BLACK
  6
Continuous
100
AcDbLine
 10
81.475
 20
-30.862499
 30
0.0
 11
70.925
 21
-30.862499
 31
0.0
  0
ARC
  5
56B
330
1D
100
AcDbEntity
  8
BLACK
100
AcDbCircle
 10
100.525
 20
-28.787499
 30
0.0
 40
2.075
100
AcDbArc
 50
270.0
 51
0.0
  0
LINE
  5
56C
330
1D
100
AcDbEntity
  8
BLACK
  6
Continuous
100
AcDbLine
 10
102.6
 20
-18.837499
 30
0.0
 11
102.6
 21
-28.787499
 31
0.0
  0
LINE
  5
56D
330
1D
100
AcDbEntity
  8
BLACK
  6
Continuous
100
AcDbLine
 10
87.89999999999999
 20
-18.837499
 30
0.0
 11
87.89999999999999
 21
-28.787499
 31
0.0
  0
LINE
  5
56E
330
1D
100
AcDbEntity
  8
BLACK
  6
Continuous
100
AcDbLine
 10
100.525
 20
-16.762499
 30
0.0
 11
89.975
 21
-16.762499
 31
0.0
  0
ARC
  5
56F
330
1D
100
AcDbEntity
  8
BLACK
100
AcDbCircle
 10
89.975
 20
-28.787499
 30
0.0
 40
2.075
100
AcDbArc
 50
180.0
 51
270.0
  0
ARC
  5
570
330
1D
100
AcDbEntity
  8
BLACK
100
AcDbCircle
 10
89.975
 20
-18.837499
 30
0.0
 40
2.075
100
AcDbArc
 50
90.0
 51
180.0
  0
ARC
  5
571
330
1D
100
AcDbEntity
  8
BLACK
100
AcDbCircle
 10
100.525
 20
-18.837499
 30
0.0
 40
2.075
100
AcDbArc
 50
0.0
 51
90.0
  0
LINE
  5
572
330
1D
100
AcDbEntity
  8
BLACK
  6
Continuous
100
AcDbLine
 10
100.525
 20
-30.862499
 30
0.0
 11
89.975
 21
-30.862499
 31
0.0
  0
ARC
  5
573
330
1D
100
AcDbEntity
  8
BLACK
100
AcDbCircle
 10
119.575
 20
-28.787499
 30
0.0
 40
2.075
100
AcDbArc
 50
270.0
 51
0.0
  0
LINE
  5
574
330
1D
100
AcDbEntity
  8
BLACK
  6
Continuous
100
AcDbLine
 10
121.65
 20
-18.837499
 30
0.0
 11
121.65
 21
-28.787499
 31
0.0
  0
LINE
  5
575
330
1D
100
AcDbEntity
  8
BLACK
  6
Continuous
100
AcDbLine
 10
106.95
 20
-18.837499
 30
0.0
 11
106.95
 21
-28.787499
 31
0.0
  0
LINE
  5
576
330
1D
100
AcDbEntity
  8
BLACK
  6
Continuous
100
AcDbLine
 10
119.575
 20
-16.762499
 30
0.0
 11
109.025
 21
-16.762499
 31
0.0
  0
ARC
  5
577
330
1D
100
AcDbEntity
  8
BLACK
100
AcDbCircle
 10
109.025
 20
-28.787499
 30
0.0
 40
2.075
100
AcDbArc
 50
180.0
 51
270.0
  0
ARC
  5
578
330
1D
100
AcDbEntity
  8
BLACK
100
AcDbCircle
 10
109.025
 20
-18.837499
 30
0.0
 40
2.075
100
AcDbArc
 50
90.0
 51
180.0
  0
ARC
  5
579
330
1D
100
AcDbEntity
  8
BLACK
100
AcDbCircle
 10
119.575
 20
-18.837499
 30
0.0
 40
2.075
100
AcDbArc
 50
0.0
 51
90.0
  0
LINE
  5
57A
330
1D
100
AcDbEntity
  8
BLACK
  6
Continuous
100
AcDbLine
 10
119.575
 20
-30.862499
 30
0.0
 11
109.025
 21
-30.862499
 31
0.0
  0
ARC
  5
57B
330
1D
100
AcDbEntity
  8
BLACK
100
AcDbCircle
 10
138.625
 20
-28.787499
 30
0.0
 40
2.075
100
AcDbArc
 50
270.0
 51
0.0
  0
LINE
  5
57C
330
1D
100
AcDbEntity
  8
BLACK
  6
Continuous
100
AcDbLine
 10
140.7
 20
-18.837499
 30
0.0
 11
140.7
 21
-28.787499
 31
0.0
  0
LINE
  5
57D
330
1D
100
AcDbEntity
  8
BLACK
  6
Continuous
100
AcDbLine
 10
126.0
 20
-18.837499
 30
0.0
 11
126.0
 21
-28.787499
 31
0.0
  0
LINE
  5
57E
330
1D
100
AcDbEntity
  8
BLACK
  6
Continuous
100
AcDbLine
 10
138.625
 20
-16.762499
 30
0.0
 11
128.075
 21
-16.762499
 31
0.0
  0
ARC
  5
57F
330
1D
100
AcDbEntity
  8
BLACK
100
AcDbCircle
 10
128.075
 20
-28.787499
 30
0.0
 40
2.075
100
AcDbArc
 50
180.0
 51
270.0
  0
ARC
  5
580
330
1D
100
AcDbEntity
  8
BLACK
100
AcDbCircle
 10
128.075
 20
-18.837499
 30
0.0
 40
2.075
100
AcDbArc
 50
90.0
 51
180.0
  0
ARC
  5
581
330
1D
100
AcDbEntity
  8
BLACK
100
AcDbCircle
 10
138.625
 20
-18.837499
 30
0.0
 40
2.075
100
AcDbArc
 50
0.0
 51
90.0
  0
LINE
  5
582
330
1D
100
AcDbEntity
  8
BLACK
  6
Continuous
100
AcDbLine
 10
138.625
 20
-30.862499
 30
0.0
 11
128.075
 21
-30.862499
 31
0.0
  0
ARC
  5
583
330
1D
100
AcDbEntity
  8
BLACK
100
AcDbCircle
 10
157.675
 20
-28.787499
 30
0.0
 40
2.075
100
AcDbArc
 50
270.0
 51
0.0
  0
LINE
  5
584
330
1D
100
AcDbEntity
  8
BLACK
  6
Continuous
100
AcDbLine
 10
159.75
 20
-18.837499
 30
0.0
 11
159.75
 21
-28.787499
 31
0.0
  0
LINE
  5
585
330
1D
100
AcDbEntity
  8
BLACK
  6
Continuous
100
AcDbLine
 10
145.05
 20
-18.837499
 30
0.0
 11
145.05
 21
-28.787499
 31
0.0
  0
LINE
  5
586
330
1D
100
AcDbEntity
  8
BLACK
  6
Continuous
100
AcDbLine
 10
157.675
 20
-16.762499
 30
0.0
 11
147.125
 21
-16.762499
 31
0.0
  0
ARC
  5
587
330
1D
100
AcDbEntity
  8
BLACK
100
AcDbCircle
 10
147.125
 20
-28.787499
 30
0.0
 40
2.075
100
AcDbArc
 50
180.0
 51
270.0
  0
ARC
  5
588
330
1D
100
AcDbEntity
  8
BLACK
100
AcDbCircle
 10
147.125
 20
-18.837499
 30
0.0
 40
2.075
100
AcDbArc
 50
90.0
 51
180.0
  0
ARC
  5
589
330
1D
100
AcDbEntity
  8
BLACK
100
AcDbCircle
 10
157.675
 20
-18.837499
 30
0.0
 40
2.075
100
AcDbArc
 50
0.0
 51
90.0
  0
LINE
  5
58A
330
1D
100
AcDbEntity
  8
BLACK
  6
Continuous
100
AcDbLine
 10
157.675
 20
-30.862499
 30
0.0
 11
147.125
 21
-30.862499
 31
0.0
  0
ARC
  5
58B
330
1D
100
AcDbEntity
  8
BLACK
100
AcDbCircle
 10
176.725
 20
-28.787499
 30
0.0
 40
2.075
100
AcDbArc
 50
270.0
 51
0.0
  0
LINE
  5
58C
330
1D
100
AcDbEntity
  8
BLACK
  6
Continuous
100
AcDbLine
 10
178.8
 20
-18.837499
 30
0.0
 11
178.8
 21
-28.787499
 31
0.0
  0
LINE
  5
58D
330
1D
100
AcDbEntity
  8
BLACK
  6
Continuous
100
AcDbLine
 10
164.1
 20
-18.837499
 30
0.0
 11
164.1
 21
-28.787499
 31
0.0
  0
LINE
  5
58E
330
1D
100
AcDbEntity
  8
BLACK
  6
Continuous
100
AcDbLine
 10
176.725
 20
-16.762499
 30
0.0
 11
166.175
 21
-16.762499
 31
0.0
  0
ARC
  5
58F
330
1D
100
AcDbEntity
  8
BLACK
100
AcDbCircle
 10
166.175
 20
-28.787499
 30
0.0
 40
2.075
100
AcDbArc
 50
180.0
 51
270.0
  0
ARC
  5
590
330
1D
100
AcDbEntity
  8
BLACK
100
AcDbCircle
 10
166.175
 20
-18.837499
 30
0.0
 40
2.075
100
AcDbArc
 50
90.0
 51
180.0
  0
ARC
  5
591
330
1D
100
AcDbEntity
  8
BLACK
100
AcDbCircle
 10
176.725
 20
-18.837499
 30
0.0
 40
2.075
100
AcDbArc
 50
0.0
 51
90.0
  0
LINE
  5
592
330
1D
100
AcDbEntity
  8
BLACK
  6
Continuous
100
AcDbLine
 10
176.725
 20
-30.862499
 30
0.0
 11
166.175
 21
-30.862499
 31
0.0
  0
ARC
  5
593
330
1D
100
AcDbEntity
  8
BLACK
100
AcDbCircle
 10
243.4
 20
-47.837499
 30
0.0
 40
2.075
100
AcDbArc
 50
270.0
 51
0.0
  0
LINE
  5
594
330
1D
100
AcDbEntity
  8
BLACK
  6
Continuous
100
AcDbLine
 10
245.475
 20
-37.887499
 30
0.0
 11
245.475
 21
-47.837499
 31
0.0
  0
LINE
  5
595
330
1D
100
AcDbEntity
  8
BLACK
  6
Continuous
100
AcDbLine
 10
230.775
 20
-37.887499
 30
0.0
 11
230.775
 21
-47.837499
 31
0.0
  0
LINE
  5
596
330
1D
100
AcDbEntity
  8
BLACK
  6
Continuous
100
AcDbLine
 10
243.4
 20
-35.812499
 30
0.0
 11
232.85
 21
-35.812499
 31
0.0
  0
ARC
  5
597
330
1D
100
AcDbEntity
  8
BLACK
100
AcDbCircle
 10
232.85
 20
-47.837499
 30
0.0
 40
2.075
100
AcDbArc
 50
180.0
 51
270.0
  0
ARC
  5
598
330
1D
100
AcDbEntity
  8
BLACK
100
AcDbCircle
 10
232.85
 20
-37.887499
 30
0.0
 40
2.075
100
AcDbArc
 50
90.0
 51
180.0
  0
ARC
  5
599
330
1D
100
AcDbEntity
  8
BLACK
100
AcDbCircle
 10
243.4
 20
-37.887499
 30
0.0
 40
2.075
100
AcDbArc
 50
0.0
 51
90.0
  0
LINE
  5
59A
330
1D
100
AcDbEntity
  8
BLACK
  6
Continuous
100
AcDbLine
 10
243.4
 20
-49.912499
 30
0.0
 11
232.85
 21
-49.912499
 31
0.0
  0
ARC
  5
59B
330
1D
100
AcDbEntity
  8
BLACK
100
AcDbCircle
 10
224.35
 20
-47.837499
 30
0.0
 40
2.075
100
AcDbArc
 50
270.0
 51
0.0
  0
LINE
  5
59C
330
1D
100
AcDbEntity
  8
BLACK
  6
Continuous
100
AcDbLine
 10
226.425
 20
-37.887499
 30
0.0
 11
226.425
 21
-47.837499
 31
0.0
  0
LINE
  5
59D
330
1D
100
AcDbEntity
  8
BLACK
  6
Continuous
100
AcDbLine
 10
211.725
 20
-37.887499
 30
0.0
 11
211.725
 21
-47.837499
 31
0.0
  0
LINE
  5
59E
330
1D
100
AcDbEntity
  8
BLACK
  6
Continuous
100
AcDbLine
 10
224.35
 20
-35.812499
 30
0.0
 11
213.8
 21
-35.812499
 31
0.0
  0
ARC
  5
59F
330
1D
100
AcDbEntity
  8
BLACK
100
AcDbCircle
 10
213.8
 20
-47.837499
 30
0.0
 40
2.075
100
AcDbArc
 50
180.0
 51
270.0
  0
ARC
  5
5A0
330
1D
100
AcDbEntity
  8
BLACK
100
AcDbCircle
 10
213.8
 20
-37.887499
 30
0.0
 40
2.075
100
AcDbArc
 50
90.0
 51
180.0
  0
ARC
  5
5A1
330
1D
100
AcDbEntity
  8
BLACK
100
AcDbCircle
 10
224.35
 20
-37.887499
 30
0.0
 40
2.075
100
AcDbArc
 50
0.0
 51
90.0
  0
LINE
  5
5A2
330
1D
100
AcDbEntity
  8
BLACK
  6
Continuous
100
AcDbLine
 10
224.35
 20
-49.912499
 30
0.0
 11
213.8
 21
-49.912499
 31
0.0
  0
ARC
  5
5A3
330
1D
100
AcDbEntity
  8
BLACK
100
AcDbCircle
 10
205.3
 20
-47.837499
 30
0.0
 40
2.075
100
AcDbArc
 50
270.0
 51
0.0
  0
LINE
  5
5A4
330
1D
100
AcDbEntity
  8
BLACK
  6
Continuous
100
AcDbLine
 10
207.375
 20
-37.887499
 30
0.0
 11
207.375
 21
-47.837499
 31
0.0
  0
LINE
  5
5A5
330
1D
100
AcDbEntity
  8
BLACK
  6
Continuous
100
AcDbLine
 10
192.675
 20
-37.887499
 30
0.0
 11
192.675
 21
-47.837499
 31
0.0
  0
LINE
  5
5A6
330
1D
100
AcDbEntity
  8
BLACK
  6
Continuous
100
AcDbLine
 10
205.3
 20
-35.812499
 30
0.0
 11
194.75
 21
-35.812499
 31
0.0
  0
ARC
  5
5A7
330
1D
100
AcDbEntity
  8
BLACK
100
AcDbCircle
 10
194.75
 20
-47.837499
 30
0.0
 40
2.075
100
AcDbArc
 50
180.0
 51
270.0
  0
ARC
  5
5A8
330
1D
100
AcDbEntity
  8
BLACK
100
AcDbCircle
 10
194.75
 20
-37.887499
 30
0.0
 40
2.075
100
AcDbArc
 50
90.0
 51
180.0
  0
ARC
  5
5A9
330
1D
100
AcDbEntity
  8
BLACK
100
AcDbCircle
 10
205.3
 20
-37.887499
 30
0.0
 40
2.075
100
AcDbArc
 50
0.0
 51
90.0
  0
LINE
  5
5AA
330
1D
100
AcDbEntity
  8
BLACK
  6
Continuous
100
AcDbLine
 10
205.3
 20
-49.912499
 30
0.0
 11
194.75
 21
-49.912499
 31
0.0
  0
ARC
  5
5AB
330
1D
100
AcDbEntity
  8
BLACK
100
AcDbCircle
 10
210.0625
 20
-66.88749899999999
 30
0.0
 40
2.075
100
AcDbArc
 50
270.0
 51
0.0
  0
LINE
  5
5AC
330
1D
100
AcDbEntity
  8
BLACK
  6
Continuous
100
AcDbLine
 10
212.1375
 20
-56.937499
 30
0.0
 11
212.1375
 21
-66.88749899999999
 31
0.0
  0
LINE
  5
5AD
330
1D
100
AcDbEntity
  8
BLACK
  6
Continuous
100
AcDbLine
 10
197.4375
 20
-56.937499
 30
0.0
 11
197.4375
 21
-66.88749899999999
 31
0.0
  0
LINE
  5
5AE
330
1D
100
AcDbEntity
  8
BLACK
  6
Continuous
100
AcDbLine
 10
210.0625
 20
-54.862499
 30
0.0
 11
199.5125
 21
-54.862499
 31
0.0
  0
ARC
  5
5AF
330
1D
100
AcDbEntity
  8
BLACK
100
AcDbCircle
 10
199.5125
 20
-66.88749899999999
 30
0.0
 40
2.075
100
AcDbArc
 50
180.0
 51
270.0
  0
ARC
  5
5B0
330
1D
100
AcDbEntity
  8
BLACK
100
AcDbCircle
 10
199.5125
 20
-56.937499
 30
0.0
 40
2.075
100
AcDbArc
 50
90.0
 51
180.0
  0
ARC
  5
5B1
330
1D
100
AcDbEntity
  8
BLACK
100
AcDbCircle
 10
210.0625
 20
-56.937499
 30
0.0
 40
2.075
100
AcDbArc
 50
0.0
 51
90.0
  0
LINE
  5
5B2
330
1D
100
AcDbEntity
  8
BLACK
  6
Continuous
100
AcDbLine
 10
210.0625
 20
-68.962499
 30
0.0
 11
199.5125
 21
-68.962499
 31
0.0
  0
ARC
  5
5B3
330
1D
100
AcDbEntity
  8
BLACK
100
AcDbCircle
 10
229.1125
 20
-66.88749899999999
 30
0.0
 40
2.075
100
AcDbArc
 50
270.0
 51
0.0
  0
LINE
  5
5B4
330
1D
100
AcDbEntity
  8
BLACK
  6
Continuous
100
AcDbLine
 10
231.1875
 20
-56.937499
 30
0.0
 11
231.1875
 21
-66.88749899999999
 31
0.0
  0
LINE
  5
5B5
330
1D
100
AcDbEntity
  8
BLACK
  6
Continuous
100
AcDbLine
 10
216.4875
 20
-56.937499
 30
0.0
 11
216.4875
 21
-66.88749899999999
 31
0.0
  0
LINE
  5
5B6
330
1D
100
AcDbEntity
  8
BLACK
  6
Continuous
100
AcDbLine
 10
229.1125
 20
-54.862499
 30
0.0
 11
218.5625
 21
-54.862499
 31
0.0
  0
ARC
  5
5B7
330
1D
100
AcDbEntity
  8
BLACK
100
AcDbCircle
 10
218.5625
 20
-66.88749899999999
 30
0.0
 40
2.075
100
AcDbArc
 50
180.0
 51
270.0
  0
ARC
  5
5B8
330
1D
100
AcDbEntity
  8
BLACK
100
AcDbCircle
 10
218.5625
 20
-56.937499
 30
0.0
 40
2.075
100
AcDbArc
 50
90.0
 51
180.0
  0
ARC
  5
5B9
330
1D
100
AcDbEntity
  8
BLACK
100
AcDbCircle
 10
229.1125
 20
-56.937499
 30
0.0
 40
2.075
100
AcDbArc
 50
0.0
 51
90.0
  0
LINE
  5
5BA
330
1D
100
AcDbEntity
  8
BLACK
  6
Continuous
100
AcDbLine
 10
229.1125
 20
-68.962499
 30
0.0
 11
218.5625
 21
-68.962499
 31
0.0
  0
ARC
  5
5BB
330
1D
100
AcDbEntity
  8
BLACK
100
AcDbCircle
 10
200.5375
 20
-85.937499
 30
0.0
 40
2.074999
100
AcDbArc
 50
270.0
 51
0.0
  0
LINE
  5
5BC
330
1D
100
AcDbEntity
  8
BLACK
  6
Continuous
100
AcDbLine
 10
202.612499
 20
-75.987499
 30
0.0
 11
202.612499
 21
-85.937499
 31
0.0
  0
LINE
  5
5BD
330
1D
100
AcDbEntity
  8
BLACK
  6
Continuous
100
AcDbLine
 10
187.912499
 20
-75.987499
 30
0.0
 11
187.912499
 21
-85.937499
 31
0.0
  0
LINE
  5
5BE
330
1D
100
AcDbEntity
  8
BLACK
  6
Continuous
100
AcDbLine
 10
200.5375
 20
-73.912499
 30
0.0
 11
189.9875
 21
-73.912499
 31
0.0
  0
ARC
  5
5BF
330
1D
100
AcDbEntity
  8
BLACK
100
AcDbCircle
 10
189.9875
 20
-85.937499
 30
0.0
 40
2.075
100
AcDbArc
 50
180.0
 51
270.0
  0
ARC
  5
5C0
330
1D
100
AcDbEntity
  8
BLACK
100
AcDbCircle
 10
189.9875
 20
-75.987499
 30
0.0
 40
2.075001
100
AcDbArc
 50
90.0
 51
180.0
  0
ARC
  5
5C1
330
1D
100
AcDbEntity
  8
BLACK
100
AcDbCircle
 10
200.5375
 20
-75.987499
 30
0.0
 40
2.075
100
AcDbArc
 50
0.0
 51
90.0
  0
LINE
  5
5C2
330
1D
100
AcDbEntity
  8
BLACK
  6
Continuous
100
AcDbLine
 10
200.5375
 20
-88.01249899999999
 30
0.0
 11
189.9875
 21
-88.01249899999999
 31
0.0
  0
ARC
  5
5C3
330
1D
100
AcDbEntity
  8
BLACK
100
AcDbCircle
 10
219.5875
 20
-85.937499
 30
0.0
 40
2.074999
100
AcDbArc
 50
270.0
 51
0.0
  0
LINE
  5
5C4
330
1D
100
AcDbEntity
  8
BLACK
  6
Continuous
100
AcDbLine
 10
221.662499
 20
-75.987499
 30
0.0
 11
221.662499
 21
-85.937499
 31
0.0
  0
LINE
  5
5C5
330
1D
100
AcDbEntity
  8
BLACK
  6
Continuous
100
AcDbLine
 10
206.962499
 20
-75.987499
 30
0.0
 11
206.962499
 21
-85.937499
 31
0.0
  0
LINE
  5
5C6
330
1D
100
AcDbEntity
  8
BLACK
  6
Continuous
100
AcDbLine
 10
219.5875
 20
-73.912499
 30
0.0
 11
209.0375
 21
-73.912499
 31
0.0
  0
ARC
  5
5C7
330
1D
100
AcDbEntity
  8
BLACK
100
AcDbCircle
 10
209.0375
 20
-85.937499
 30
0.0
 40
2.075
100
AcDbArc
 50
180.0
 51
270.0
  0
ARC
  5
5C8
330
1D
100
AcDbEntity
  8
BLACK
100
AcDbCircle
 10
209.0375
 20
-75.987499
 30
0.0
 40
2.075001
100
AcDbArc
 50
90.0
 51
180.0
  0
ARC
  5
5C9
330
1D
100
AcDbEntity
  8
BLACK
100
AcDbCircle
 10
219.5875
 20
-75.987499
 30
0.0
 40
2.075
100
AcDbArc
 50
0.0
 51
90.0
  0
LINE
  5
5CA
330
1D
100
AcDbEntity
  8
BLACK
  6
Continuous
100
AcDbLine
 10
219.5875
 20
-88.01249899999999
 30
0.0
 11
209.0375
 21
-88.01249899999999
 31
0.0
  0
ARC
  5
5CB
330
1D
100
AcDbEntity
  8
BLACK
100
AcDbCircle
 10
167.2
 20
-47.837499
 30
0.0
 40
2.075
100
AcDbArc
 50
270.0
 51
0.0
  0
LINE
  5
5CC
330
1D
100
AcDbEntity
  8
BLACK
  6
Continuous
100
AcDbLine
 10
169.275
 20
-37.887499
 30
0.0
 11
169.275
 21
-47.837499
 31
0.0
  0
LINE
  5
5CD
330
1D
100
AcDbEntity
  8
BLACK
  6
Continuous
100
AcDbLine
 10
154.575
 20
-37.887499
 30
0.0
 11
154.575
 21
-47.837499
 31
0.0
  0
LINE
  5
5CE
330
1D
100
AcDbEntity
  8
BLACK
  6
Continuous
100
AcDbLine
 10
167.2
 20
-35.812499
 30
0.0
 11
156.65
 21
-35.812499
 31
0.0
  0
ARC
  5
5CF
330
1D
100
AcDbEntity
  8
BLACK
100
AcDbCircle
 10
156.65
 20
-47.837499
 30
0.0
 40
2.075
100
AcDbArc
 50
180.0
 51
270.0
  0
ARC
  5
5D0
330
1D
100
AcDbEntity
  8
BLACK
100
AcDbCircle
 10
156.65
 20
-37.887499
 30
0.0
 40
2.075
100
AcDbArc
 50
90.0
 51
180.0
  0
ARC
  5
5D1
330
1D
100
AcDbEntity
  8
BLACK
100
AcDbCircle
 10
167.2
 20
-37.887499
 30
0.0
 40
2.075
100
AcDbArc
 50
0.0
 51
90.0
  0
LINE
  5
5D2
330
1D
100
AcDbEntity
  8
BLACK
  6
Continuous
100
AcDbLine
 10
167.2
 20
-49.912499
 30
0.0
 11
156.65
 21
-49.912499
 31
0.0
  0
ARC
  5
5D3
330
1D
100
AcDbEntity
  8
BLACK
100
AcDbCircle
 10
186.25
 20
-47.837499
 30
0.0
 40
2.075
100
AcDbArc
 50
270.0
 51
0.0
  0
LINE
  5
5D4
330
1D
100
AcDbEntity
  8
BLACK
  6
Continuous
100
AcDbLine
 10
188.325
 20
-37.887499
 30
0.0
 11
188.325
 21
-47.837499
 31
0.0
  0
LINE
  5
5D5
330
1D
100
AcDbEntity
  8
BLACK
  6
Continuous
100
AcDbLine
 10
173.625
 20
-37.887499
 30
0.0
 11
173.625
 21
-47.837499
 31
0.0
  0
LINE
  5
5D6
330
1D
100
AcDbEntity
  8
BLACK
  6
Continuous
100
AcDbLine
 10
186.25
 20
-35.812499
 30
0.0
 11
175.7
 21
-35.812499
 31
0.0
  0
ARC
  5
5D7
330
1D
100
AcDbEntity
  8
BLACK
100
AcDbCircle
 10
175.7
 20
-47.837499
 30
0.0
 40
2.075
100
AcDbArc
 50
180.0
 51
270.0
  0
ARC
  5
5D8
330
1D
100
AcDbEntity
  8
BLACK
100
AcDbCircle
 10
175.7
 20
-37.887499
 30
0.0
 40
2.075
100
AcDbArc
 50
90.0
 51
180.0
  0
ARC
  5
5D9
330
1D
100
AcDbEntity
  8
BLACK
100
AcDbCircle
 10
186.25
 20
-37.887499
 30
0.0
 40
2.075
100
AcDbArc
 50
0.0
 51
90.0
  0
LINE
  5
5DA
330
1D
100
AcDbEntity
  8
BLACK
  6
Continuous
100
AcDbLine
 10
186.25
 20
-49.912499
 30
0.0
 11
175.7
 21
-49.912499
 31
0.0
  0
ARC
  5
5DB
330
1D
100
AcDbEntity
  8
BLACK
100
AcDbCircle
 10
171.9625
 20
-66.88749899999999
 30
0.0
 40
2.075
100
AcDbArc
 50
270.0
 51
0.0
  0
LINE
  5
5DC
330
1D
100
AcDbEntity
  8
BLACK
  6
Continuous
100
AcDbLine
 10
174.0375
 20
-56.937499
 30
0.0
 11
174.0375
 21
-66.88749899999999
 31
0.0
  0
LINE
  5
5DD
330
1D
100
AcDbEntity
  8
BLACK
  6
Continuous
100
AcDbLine
 10
159.3375
 20
-56.937499
 30
0.0
 11
159.3375
 21
-66.88749899999999
 31
0.0
  0
LINE
  5
5DE
330
1D
100
AcDbEntity
  8
BLACK
  6
Continuous
100
AcDbLine
 10
171.9625
 20
-54.862499
 30
0.0
 11
161.4125
 21
-54.862499
 31
0.0
  0
ARC
  5
5DF
330
1D
100
AcDbEntity
  8
BLACK
100
AcDbCircle
 10
161.4125
 20
-66.88749899999999
 30
0.0
 40
2.075
100
AcDbArc
 50
180.0
 51
270.0
  0
ARC
  5
5E0
330
1D
100
AcDbEntity
  8
BLACK
100
AcDbCircle
 10
161.4125
 20
-56.937499
 30
0.0
 40
2.075
100
AcDbArc
 50
90.0
 51
180.0
  0
ARC
  5
5E1
330
1D
100
AcDbEntity
  8
BLACK
100
AcDbCircle
 10
171.9625
 20
-56.937499
 30
0.0
 40
2.075
100
AcDbArc
 50
0.0
 51
90.0
  0
LINE
  5
5E2
330
1D
100
AcDbEntity
  8
BLACK
  6
Continuous
100
AcDbLine
 10
171.9625
 20
-68.962499
 30
0.0
 11
161.4125
 21
-68.962499
 31
0.0
  0
ARC
  5
5E3
330
1D
100
AcDbEntity
  8
BLACK
100
AcDbCircle
 10
191.0125
 20
-66.88749899999999
 30
0.0
 40
2.075
100
AcDbArc
 50
270.0
 51
0.0
  0
LINE
  5
5E4
330
1D
100
AcDbEntity
  8
BLACK
  6
Continuous
100
AcDbLine
 10
193.0875
 20
-56.937499
 30
0.0
 11
193.0875
 21
-66.88749899999999
 31
0.0
  0
LINE
  5
5E5
330
1D
100
AcDbEntity
  8
BLACK
  6
Continuous
100
AcDbLine
 10
178.3875
 20
-56.937499
 30
0.0
 11
178.3875
 21
-66.88749899999999
 31
0.0
  0
LINE
  5
5E6
330
1D
100
AcDbEntity
  8
BLACK
  6
Continuous
100
AcDbLine
 10
191.0125
 20
-54.862499
 30
0.0
 11
180.4625
 21
-54.862499
 31
0.0
  0
ARC
  5
5E7
330
1D
100
AcDbEntity
  8
BLACK
100
AcDbCircle
 10
180.4625
 20
-66.88749899999999
 30
0.0
 40
2.075
100
AcDbArc
 50
180.0
 51
270.0
  0
ARC
  5
5E8
330
1D
100
AcDbEntity
  8
BLACK
100
AcDbCircle
 10
180.4625
 20
-56.937499
 30
0.0
 40
2.075
100
AcDbArc
 50
90.0
 51
180.0
  0
ARC
  5
5E9
330
1D
100
AcDbEntity
  8
BLACK
100
AcDbCircle
 10
191.0125
 20
-56.937499
 30
0.0
 40
2.075
100
AcDbArc
 50
0.0
 51
90.0
  0
LINE
  5
5EA
330
1D
100
AcDbEntity
  8
BLACK
  6
Continuous
100
AcDbLine
 10
191.0125
 20
-68.962499
 30
0.0
 11
180.4625
 21
-68.962499
 31
0.0
  0
ARC
  5
5EB
330
1D
100
AcDbEntity
  8
BLACK
100
AcDbCircle
 10
129.1
 20
-47.837499
 30
0.0
 40
2.075
100
AcDbArc
 50
270.0
 51
0.0
  0
LINE
  5
5EC
330
1D
100
AcDbEntity
  8
BLACK
  6
Continuous
100
AcDbLine
 10
131.175
 20
-37.887499
 30
0.0
 11
131.175
 21
-47.837499
 31
0.0
  0
LINE
  5
5ED
330
1D
100
AcDbEntity
  8
BLACK
  6
Continuous
100
AcDbLine
 10
116.475
 20
-37.887499
 30
0.0
 11
116.475
 21
-47.837499
 31
0.0
  0
LINE
  5
5EE
330
1D
100
AcDbEntity
  8
BLACK
  6
Continuous
100
AcDbLine
 10
129.1
 20
-35.812499
 30
0.0
 11
118.55
 21
-35.812499
 31
0.0
  0
ARC
  5
5EF
330
1D
100
AcDbEntity
  8
BLACK
100
AcDbCircle
 10
118.55
 20
-47.837499
 30
0.0
 40
2.075
100
AcDbArc
 50
180.0
 51
270.0
  0
ARC
  5
5F0
330
1D
100
AcDbEntity
  8
BLACK
100
AcDbCircle
 10
118.55
 20
-37.887499
 30
0.0
 40
2.075
100
AcDbArc
 50
90.0
 51
180.0
  0
ARC
  5
5F1
330
1D
100
AcDbEntity
  8
BLACK
100
AcDbCircle
 10
129.1
 20
-37.887499
 30
0.0
 40
2.075
100
AcDbArc
 50
0.0
 51
90.0
  0
LINE
  5
5F2
330
1D
100
AcDbEntity
  8
BLACK
  6
Continuous
100
AcDbLine
 10
129.1
 20
-49.912499
 30
0.0
 11
118.55
 21
-49.912499
 31
0.0
  0
ARC
  5
5F3
330
1D
100
AcDbEntity
  8
BLACK
100
AcDbCircle
 10
148.15
 20
-47.837499
 30
0.0
 40
2.075
100
AcDbArc
 50
270.0
 51
0.0
  0
LINE
  5
5F4
330
1D
100
AcDbEntity
  8
BLACK
  6
Continuous
100
AcDbLine
 10
150.225
 20
-37.887499
 30
0.0
 11
150.225
 21
-47.837499
 31
0.0
  0
LINE
  5
5F5
330
1D
100
AcDbEntity
  8
BLACK
  6
Continuous
100
AcDbLine
 10
135.525
 20
-37.887499
 30
0.0
 11
135.525
 21
-47.837499
 31
0.0
  0
LINE
  5
5F6
330
1D
100
AcDbEntity
  8
BLACK
  6
Continuous
100
AcDbLine
 10
148.15
 20
-35.812499
 30
0.0
 11
137.6
 21
-35.812499
 31
0.0
  0
ARC
  5
5F7
330
1D
100
AcDbEntity
  8
BLACK
100
AcDbCircle
 10
137.6
 20
-47.837499
 30
0.0
 40
2.075
100
AcDbArc
 50
180.0
 51
270.0
  0
ARC
  5
5F8
330
1D
100
AcDbEntity
  8
BLACK
100
AcDbCircle
 10
137.6
 20
-37.887499
 30
0.0
 40
2.075
100
AcDbArc
 50
90.0
 51
180.0
  0
ARC
  5
5F9
330
1D
100
AcDbEntity
  8
BLACK
100
AcDbCircle
 10
148.15
 20
-37.887499
 30
0.0
 40
2.075
100
AcDbArc
 50
0.0
 51
90.0
  0
LINE
  5
5FA
330
1D
100
AcDbEntity
  8
BLACK
  6
Continuous
100
AcDbLine
 10
148.15
 20
-49.912499
 30
0.0
 11
137.6
 21
-49.912499
 31
0.0
  0
ARC
  5
5FB
330
1D
100
AcDbEntity
  8
BLACK
100
AcDbCircle
 10
133.8625
 20
-66.88749899999999
 30
0.0
 40
2.075
100
AcDbArc
 50
270.0
 51
0.0
  0
LINE
  5
5FC
330
1D
100
AcDbEntity
  8
BLACK
  6
Continuous
100
AcDbLine
 10
135.9375
 20
-56.937499
 30
0.0
 11
135.9375
 21
-66.88749899999999
 31
0.0
  0
LINE
  5
5FD
330
1D
100
AcDbEntity
  8
BLACK
  6
Continuous
100
AcDbLine
 10
121.2375
 20
-56.937499
 30
0.0
 11
121.2375
 21
-66.88749899999999
 31
0.0
  0
LINE
  5
5FE
330
1D
100
AcDbEntity
  8
BLACK
  6
Continuous
100
AcDbLine
 10
133.8625
 20
-54.862499
 30
0.0
 11
123.3125
 21
-54.862499
 31
0.0
  0
ARC
  5
5FF
330
1D
100
AcDbEntity
  8
BLACK
100
AcDbCircle
 10
123.3125
 20
-66.88749899999999
 30
0.0
 40
2.075
100
AcDbArc
 50
180.0
 51
270.0
  0
ARC
  5
600
330
1D
100
AcDbEntity
  8
BLACK
100
AcDbCircle
 10
123.3125
 20
-56.937499
 30
0.0
 40
2.075
100
AcDbArc
 50
90.0
 51
180.0
  0
ARC
  5
601
330
1D
100
AcDbEntity
  8
BLACK
100
AcDbCircle
 10
133.8625
 20
-56.937499
 30
0.0
 40
2.075
100
AcDbArc
 50
0.0
 51
90.0
  0
LINE
  5
602
330
1D
100
AcDbEntity
  8
BLACK
  6
Continuous
100
AcDbLine
 10
133.8625
 20
-68.962499
 30
0.0
 11
123.3125
 21
-68.962499
 31
0.0
  0
ARC
  5
603
330
1D
100
AcDbEntity
  8
BLACK
100
AcDbCircle
 10
152.9125
 20
-66.88749899999999
 30
0.0
 40
2.075
100
AcDbArc
 50
270.0
 51
0.0
  0
LINE
  5
604
330
1D
100
AcDbEntity
  8
BLACK
  6
Continuous
100
AcDbLine
 10
154.9875
 20
-56.937499
 30
0.0
 11
154.9875
 21
-66.88749899999999
 31
0.0
  0
LINE
  5
605
330
1D
100
AcDbEntity
  8
BLACK
  6
Continuous
100
AcDbLine
 10
140.2875
 20
-56.937499
 30
0.0
 11
140.2875
 21
-66.88749899999999
 31
0.0
  0
LINE
  5
606
330
1D
100
AcDbEntity
  8
BLACK
  6
Continuous
100
AcDbLine
 10
152.9125
 20
-54.862499
 30
0.0
 11
142.3625
 21
-54.862499
 31
0.0
  0
ARC
  5
607
330
1D
100
AcDbEntity
  8
BLACK
100
AcDbCircle
 10
142.3625
 20
-66.88749899999999
 30
0.0
 40
2.075
100
AcDbArc
 50
180.0
 51
270.0
  0
ARC
  5
608
330
1D
100
AcDbEntity
  8
BLACK
100
AcDbCircle
 10
142.3625
 20
-56.937499
 30
0.0
 40
2.075
100
AcDbArc
 50
90.0
 51
180.0
  0
ARC
  5
609
330
1D
100
AcDbEntity
  8
BLACK
100
AcDbCircle
 10
152.9125
 20
-56.937499
 30
0.0
 40
2.075
100
AcDbArc
 50
0.0
 51
90.0
  0
LINE
  5
60A
330
1D
100
AcDbEntity
  8
BLACK
  6
Continuous
100
AcDbLine
 10
152.9125
 20
-68.962499
 30
0.0
 11
142.3625
 21
-68.962499
 31
0.0
  0
ARC
  5
60B
330
1D
100
AcDbEntity
  8
BLACK
100
AcDbCircle
 10
162.4375
 20
-85.937499
 30
0.0
 40
2.075
100
AcDbArc
 50
270.0
 51
0.0
  0
LINE
  5
60C
330
1D
100
AcDbEntity
  8
BLACK
  6
Continuous
100
AcDbLine
 10
164.5125
 20
-75.987499
 30
0.0
 11
164.5125
 21
-85.937499
 31
0.0
  0
LINE
  5
60D
330
1D
100
AcDbEntity
  8
BLACK
  6
Continuous
100
AcDbLine
 10
149.8125
 20
-75.987499
 30
0.0
 11
149.8125
 21
-85.937499
 31
0.0
  0
LINE
  5
60E
330
1D
100
AcDbEntity
  8
BLACK
  6
Continuous
100
AcDbLine
 10
162.4375
 20
-73.912499
 30
0.0
 11
151.8875
 21
-73.912499
 31
0.0
  0
ARC
  5
60F
330
1D
100
AcDbEntity
  8
BLACK
100
AcDbCircle
 10
151.8875
 20
-85.937499
 30
0.0
 40
2.075
100
AcDbArc
 50
180.0
 51
270.0
  0
ARC
  5
610
330
1D
100
AcDbEntity
  8
BLACK
100
AcDbCircle
 10
151.8875
 20
-75.987499
 30
0.0
 40
2.075
100
AcDbArc
 50
90.0
 51
180.0
  0
ARC
  5
611
330
1D
100
AcDbEntity
  8
BLACK
100
AcDbCircle
 10
162.4375
 20
-75.987499
 30
0.0
 40
2.075
100
AcDbArc
 50
0.0
 51
90.0
  0
LINE
  5
612
330
1D
100
AcDbEntity
  8
BLACK
  6
Continuous
100
AcDbLine
 10
162.4375
 20
-88.01249899999999
 30
0.0
 11
151.8875
 21
-88.01249899999999
 31
0.0
  0
ARC
  5
613
330
1D
100
AcDbEntity
  8
BLACK
100
AcDbCircle
 10
181.4875
 20
-85.937499
 30
0.0
 40
2.075
100
AcDbArc
 50
270.0
 51
0.0
  0
LINE
  5
614
330
1D
100
AcDbEntity
  8
BLACK
  6
Continuous
100
AcDbLine
 10
183.5625
 20
-75.987499
 30
0.0
 11
183.5625
 21
-85.937499
 31
0.0
  0
LINE
  5
615
330
1D
100
AcDbEntity
  8
BLACK
  6
Continuous
100
AcDbLine
 10
168.8625
 20
-75.987499
 30
0.0
 11
168.8625
 21
-85.937499
 31
0.0
  0
LINE
  5
616
330
1D
100
AcDbEntity
  8
BLACK
  6
Continuous
100
AcDbLine
 10
181.4875
 20
-73.912499
 30
0.0
 11
170.9375
 21
-73.912499
 31
0.0
  0
ARC
  5
617
330
1D
100
AcDbEntity
  8
BLACK
100
AcDbCircle
 10
170.9375
 20
-85.937499
 30
0.0
 40
2.075
100
AcDbArc
 50
180.0
 51
270.0
  0
ARC
  5
618
330
1D
100
AcDbEntity
  8
BLACK
100
AcDbCircle
 10
170.9375
 20
-75.987499
 30
0.0
 40
2.075
100
AcDbArc
 50
90.0
 51
180.0
  0
ARC
  5
619
330
1D
100
AcDbEntity
  8
BLACK
100
AcDbCircle
 10
181.4875
 20
-75.987499
 30
0.0
 40
2.075
100
AcDbArc
 50
0.0
 51
90.0
  0
LINE
  5
61A
330
1D
100
AcDbEntity
  8
BLACK
  6
Continuous
100
AcDbLine
 10
181.4875
 20
-88.01249899999999
 30
0.0
 11
170.9375
 21
-88.01249899999999
 31
0.0
  0
ARC
  5
61B
330
1D
100
AcDbEntity
  8
BLACK
100
AcDbCircle
 10
124.3375
 20
-85.937499
 30
0.0
 40
2.075
100
AcDbArc
 50
270.0
 51
0.0
  0
LINE
  5
61C
330
1D
100
AcDbEntity
  8
BLACK
  6
Continuous
100
AcDbLine
 10
126.4125
 20
-75.987499
 30
0.0
 11
126.4125
 21
-85.937499
 31
0.0
  0
LINE
  5
61D
330
1D
100
AcDbEntity
  8
BLACK
  6
Continuous
100
AcDbLine
 10
111.7125
 20
-75.987499
 30
0.0
 11
111.7125
 21
-85.937499
 31
0.0
  0
LINE
  5
61E
330
1D
100
AcDbEntity
  8
BLACK
  6
Continuous
100
AcDbLine
 10
124.3375
 20
-73.912499
 30
0.0
 11
113.7875
 21
-73.912499
 31
0.0
  0
ARC
  5
61F
330
1D
100
AcDbEntity
  8
BLACK
100
AcDbCircle
 10
113.7875
 20
-85.937499
 30
0.0
 40
2.075
100
AcDbArc
 50
180.0
 51
270.0
  0
ARC
  5
620
330
1D
100
AcDbEntity
  8
BLACK
100
AcDbCircle
 10
113.7875
 20
-75.987499
 30
0.0
 40
2.075
100
AcDbArc
 50
90.0
 51
180.0
  0
ARC
  5
621
330
1D
100
AcDbEntity
  8
BLACK
100
AcDbCircle
 10
124.3375
 20
-75.987499
 30
0.0
 40
2.075
100
AcDbArc
 50
0.0
 51
90.0
  0
LINE
  5
622
330
1D
100
AcDbEntity
  8
BLACK
  6
Continuous
100
AcDbLine
 10
124.3375
 20
-88.01249899999999
 30
0.0
 11
113.7875
 21
-88.01249899999999
 31
0.0
  0
ARC
  5
623
330
1D
100
AcDbEntity
  8
BLACK
100
AcDbCircle
 10
143.3875
 20
-85.937499
 30
0.0
 40
2.075
100
AcDbArc
 50
270.0
 51
0.0
  0
LINE
  5
624
330
1D
100
AcDbEntity
  8
BLACK
  6
Continuous
100
AcDbLine
 10
145.4625
 20
-75.987499
 30
0.0
 11
145.4625
 21
-85.937499
 31
0.0
  0
LINE
  5
625
330
1D
100
AcDbEntity
  8
BLACK
  6
Continuous
100
AcDbLine
 10
130.7625
 20
-75.987499
 30
0.0
 11
130.7625
 21
-85.937499
 31
0.0
  0
LINE
  5
626
330
1D
100
AcDbEntity
  8
BLACK
  6
Continuous
100
AcDbLine
 10
143.3875
 20
-73.912499
 30
0.0
 11
132.8375
 21
-73.912499
 31
0.0
  0
ARC
  5
627
330
1D
100
AcDbEntity
  8
BLACK
100
AcDbCircle
 10
132.8375
 20
-85.937499
 30
0.0
 40
2.075
100
AcDbArc
 50
180.0
 51
270.0
  0
ARC
  5
628
330
1D
100
AcDbEntity
  8
BLACK
100
AcDbCircle
 10
132.8375
 20
-75.987499
 30
0.0
 40
2.075
100
AcDbArc
 50
90.0
 51
180.0
  0
ARC
  5
629
330
1D
100
AcDbEntity
  8
BLACK
100
AcDbCircle
 10
143.3875
 20
-75.987499
 30
0.0
 40
2.075
100
AcDbArc
 50
0.0
 51
90.0
  0
LINE
  5
62A
330
1D
100
AcDbEntity
  8
BLACK
  6
Continuous
100
AcDbLine
 10
143.3875
 20
-88.01249899999999
 30
0.0
 11
132.8375
 21
-88.01249899999999
 31
0.0
  0
ARC
  5
62B
330
1D
100
AcDbEntity
  8
BLACK
100
AcDbCircle
 10
91.0
 20
-47.837499
 30
0.0
 40
2.075
100
AcDbArc
 50
270.0
 51
0.0
  0
LINE
  5
62C
330
1D
100
AcDbEntity
  8
BLACK
  6
Continuous
100
AcDbLine
 10
93.075
 20
-37.887499
 30
0.0
 11
93.075
 21
-47.837499
 31
0.0
  0
LINE
  5
62D
330
1D
100
AcDbEntity
  8
BLACK
  6
Continuous
100
AcDbLine
 10
78.375
 20
-37.887499
 30
0.0
 11
78.375
 21
-47.837499
 31
0.0
  0
LINE
  5
62E
330
1D
100
AcDbEntity
  8
BLACK
  6
Continuous
100
AcDbLine
 10
91.0
 20
-35.812499
 30
0.0
 11
80.45
 21
-35.812499
 31
0.0
  0
ARC
  5
62F
330
1D
100
AcDbEntity
  8
BLACK
100
AcDbCircle
 10
80.45
 20
-47.837499
 30
0.0
 40
2.075
100
AcDbArc
 50
180.0
 51
270.0
  0
ARC
  5
630
330
1D
100
AcDbEntity
  8
BLACK
100
AcDbCircle
 10
80.45
 20
-37.887499
 30
0.0
 40
2.075
100
AcDbArc
 50
90.0
 51
180.0
  0
ARC
  5
631
330
1D
100
AcDbEntity
  8
BLACK
100
AcDbCircle
 10
91.0
 20
-37.887499
 30
0.0
 40
2.075
100
AcDbArc
 50
0.0
 51
90.0
  0
LINE
  5
632
330
1D
100
AcDbEntity
  8
BLACK
  6
Continuous
100
AcDbLine
 10
91.0
 20
-49.912499
 30
0.0
 11
80.45
 21
-49.912499
 31
0.0
  0
ARC
  5
633
330
1D
100
AcDbEntity
  8
BLACK
100
AcDbCircle
 10
110.05
 20
-47.837499
 30
0.0
 40
2.075
100
AcDbArc
 50
270.0
 51
0.0
  0
LINE
  5
634
330
1D
100
AcDbEntity
  8
BLACK
  6
Continuous
100
AcDbLine
 10
112.125
 20
-37.887499
 30
0.0
 11
112.125
 21
-47.837499
 31
0.0
  0
LINE
  5
635
330
1D
100
AcDbEntity
  8
BLACK
  6
Continuous
100
AcDbLine
 10
97.425
 20
-37.887499
 30
0.0
 11
97.425
 21
-47.837499
 31
0.0
  0
LINE
  5
636
330
1D
100
AcDbEntity
  8
BLACK
  6
Continuous
100
AcDbLine
 10
110.05
 20
-35.812499
 30
0.0
 11
99.5
 21
-35.812499
 31
0.0
  0
ARC
  5
637
330
1D
100
AcDbEntity
  8
BLACK
100
AcDbCircle
 10
99.5
 20
-47.837499
 30
0.0
 40
2.075
100
AcDbArc
 50
180.0
 51
270.0
  0
ARC
  5
638
330
1D
100
AcDbEntity
  8
BLACK
100
AcDbCircle
 10
99.5
 20
-37.887499
 30
0.0
 40
2.075
100
AcDbArc
 50
90.0
 51
180.0
  0
ARC
  5
639
330
1D
100
AcDbEntity
  8
BLACK
100
AcDbCircle
 10
110.05
 20
-37.887499
 30
0.0
 40
2.075
100
AcDbArc
 50
0.0
 51
90.0
  0
LINE
  5
63A
330
1D
100
AcDbEntity
  8
BLACK
  6
Continuous
100
AcDbLine
 10
110.05
 20
-49.912499
 30
0.0
 11
99.5
 21
-49.912499
 31
0.0
  0
ARC
  5
63B
330
1D
100
AcDbEntity
  8
BLACK
100
AcDbCircle
 10
95.76249999999999
 20
-66.88749899999999
 30
0.0
 40
2.075
100
AcDbArc
 50
270.0
 51
0.0
  0
LINE
  5
63C
330
1D
100
AcDbEntity
  8
BLACK
  6
Continuous
100
AcDbLine
 10
97.83749999999999
 20
-56.937499
 30
0.0
 11
97.83749999999999
 21
-66.88749899999999
 31
0.0
  0
LINE
  5
63D
330
1D
100
AcDbEntity
  8
BLACK
  6
Continuous
100
AcDbLine
 10
83.1375
 20
-56.937499
 30
0.0
 11
83.1375
 21
-66.88749899999999
 31
0.0
  0
LINE
  5
63E
330
1D
100
AcDbEntity
  8
BLACK
  6
Continuous
100
AcDbLine
 10
95.76249999999999
 20
-54.862499
 30
0.0
 11
85.21249999999999
 21
-54.862499
 31
0.0
  0
ARC
  5
63F
330
1D
100
AcDbEntity
  8
BLACK
100
AcDbCircle
 10
85.21249999999999
 20
-66.88749899999999
 30
0.0
 40
2.075
100
AcDbArc
 50
180.0
 51
270.0
  0
ARC
  5
640
330
1D
100
AcDbEntity
  8
BLACK
100
AcDbCircle
 10
85.21249999999999
 20
-56.937499
 30
0.0
 40
2.075
100
AcDbArc
 50
90.0
 51
180.0
  0
ARC
  5
641
330
1D
100
AcDbEntity
  8
BLACK
100
AcDbCircle
 10
95.76249999999999
 20
-56.937499
 30
0.0
 40
2.075
100
AcDbArc
 50
0.0
 51
90.0
  0
LINE
  5
642
330
1D
100
AcDbEntity
  8
BLACK
  6
Continuous
100
AcDbLine
 10
95.76249999999999
 20
-68.962499
 30
0.0
 11
85.21249999999999
 21
-68.962499
 31
0.0
  0
ARC
  5
643
330
1D
100
AcDbEntity
  8
BLACK
100
AcDbCircle
 10
114.8125
 20
-66.88749899999999
 30
0.0
 40
2.075
100
AcDbArc
 50
270.0
 51
0.0
  0
LINE
  5
644
330
1D
100
AcDbEntity
  8
BLACK
  6
Continuous
100
AcDbLine
 10
116.8875
 20
-56.937499
 30
0.0
 11
116.8875
 21
-66.88749899999999
 31
0.0
  0
LINE
  5
645
330
1D
100
AcDbEntity
  8
BLACK
  6
Continuous
100
AcDbLine
 10
102.1875
 20
-56.937499
 30
0.0
 11
102.1875
 21
-66.88749899999999
 31
0.0
  0
LINE
  5
646
330
1D
100
AcDbEntity
  8
BLACK
  6
Continuous
100
AcDbLine
 10
114.8125
 20
-54.862499
 30
0.0
 11
104.2625
 21
-54.862499
 31
0.0
  0
ARC
  5
647
330
1D
100
AcDbEntity
  8
BLACK
100
AcDbCircle
 10
104.2625
 20
-66.88749899999999
 30
0.0
 40
2.075
100
AcDbArc
 50
180.0
 51
270.0
  0
ARC
  5
648
330
1D
100
AcDbEntity
  8
BLACK
100
AcDbCircle
 10
104.2625
 20
-56.937499
 30
0.0
 40
2.075
100
AcDbArc
 50
90.0
 51
180.0
  0
ARC
  5
649
330
1D
100
AcDbEntity
  8
BLACK
100
AcDbCircle
 10
114.8125
 20
-56.937499
 30
0.0
 40
2.075
100
AcDbArc
 50
0.0
 51
90.0
  0
LINE
  5
64A
330
1D
100
AcDbEntity
  8
BLACK
  6
Continuous
100
AcDbLine
 10
114.8125
 20
-68.962499
 30
0.0
 11
104.2625
 21
-68.962499
 31
0.0
  0
ARC
  5
64B
330
1D
100
AcDbEntity
  8
BLACK
100
AcDbCircle
 10
52.9
 20
-47.837499
 30
0.0
 40
2.075
100
AcDbArc
 50
270.0
 51
0.0
  0
LINE
  5
64C
330
1D
100
AcDbEntity
  8
BLACK
  6
Continuous
100
AcDbLine
 10
54.97499999999999
 20
-37.887499
 30
0.0
 11
54.97499999999999
 21
-47.837499
 31
0.0
  0
LINE
  5
64D
330
1D
100
AcDbEntity
  8
BLACK
  6
Continuous
100
AcDbLine
 10
40.275
 20
-37.887499
 30
0.0
 11
40.275
 21
-47.837499
 31
0.0
  0
LINE
  5
64E
330
1D
100
AcDbEntity
  8
BLACK
  6
Continuous
100
AcDbLine
 10
52.9
 20
-35.812499
 30
0.0
 11
42.35
 21
-35.812499
 31
0.0
  0
ARC
  5
64F
330
1D
100
AcDbEntity
  8
BLACK
100
AcDbCircle
 10
42.35
 20
-47.837499
 30
0.0
 40
2.075
100
AcDbArc
 50
180.0
 51
270.0
  0
ARC
  5
650
330
1D
100
AcDbEntity
  8
BLACK
100
AcDbCircle
 10
42.35
 20
-37.887499
 30
0.0
 40
2.075
100
AcDbArc
 50
90.0
 51
180.0
  0
ARC
  5
651
330
1D
100
AcDbEntity
  8
BLACK
100
AcDbCircle
 10
52.9
 20
-37.887499
 30
0.0
 40
2.075
100
AcDbArc
 50
0.0
 51
90.0
  0
LINE
  5
652
330
1D
100
AcDbEntity
  8
BLACK
  6
Continuous
100
AcDbLine
 10
52.9
 20
-49.912499
 30
0.0
 11
42.35
 21
-49.912499
 31
0.0
  0
ARC
  5
653
330
1D
100
AcDbEntity
  8
BLACK
100
AcDbCircle
 10
71.95
 20
-47.837499
 30
0.0
 40
2.075
100
AcDbArc
 50
270.0
 51
0.0
  0
LINE
  5
654
330
1D
100
AcDbEntity
  8
BLACK
  6
Continuous
100
AcDbLine
 10
74.02499999999999
 20
-37.887499
 30
0.0
 11
74.02499999999999
 21
-47.837499
 31
0.0
  0
LINE
  5
655
330
1D
100
AcDbEntity
  8
BLACK
  6
Continuous
100
AcDbLine
 10
59.325
 20
-37.887499
 30
0.0
 11
59.325
 21
-47.837499
 31
0.0
  0
LINE
  5
656
330
1D
100
AcDbEntity
  8
BLACK
  6
Continuous
100
AcDbLine
 10
71.95
 20
-35.812499
 30
0.0
 11
61.4
 21
-35.812499
 31
0.0
  0
ARC
  5
657
330
1D
100
AcDbEntity
  8
BLACK
100
AcDbCircle
 10
61.4
 20
-47.837499
 30
0.0
 40
2.075
100
AcDbArc
 50
180.0
 51
270.0
  0
ARC
  5
658
330
1D
100
AcDbEntity
  8
BLACK
100
AcDbCircle
 10
61.4
 20
-37.887499
 30
0.0
 40
2.075
100
AcDbArc
 50
90.0
 51
180.0
  0
ARC
  5
659
330
1D
100
AcDbEntity
  8
BLACK
100
AcDbCircle
 10
71.95
 20
-37.887499
 30
0.0
 40
2.075
100
AcDbArc
 50
0.0
 51
90.0
  0
LINE
  5
65A
330
1D
100
AcDbEntity
  8
BLACK
  6
Continuous
100
AcDbLine
 10
71.95
 20
-49.912499
 30
0.0
 11
61.4
 21
-49.912499
 31
0.0
  0
ARC
  5
65B
330
1D
100
AcDbEntity
  8
BLACK
100
AcDbCircle
 10
57.66249999999999
 20
-66.88749899999999
 30
0.0
 40
2.075
100
AcDbArc
 50
270.0
 51
0.0
  0
LINE
  5
65C
330
1D
100
AcDbEntity
  8
BLACK
  6
Continuous
100
AcDbLine
 10
59.7375
 20
-56.937499
 30
0.0
 11
59.7375
 21
-66.88749899999999
 31
0.0
  0
LINE
  5
65D
330
1D
100
AcDbEntity
  8
BLACK
  6
Continuous
100
AcDbLine
 10
45.0375
 20
-56.937499
 30
0.0
 11
45.0375
 21
-66.88749899999999
 31
0.0
  0
LINE
  5
65E
330
1D
100
AcDbEntity
  8
BLACK
  6
Continuous
100
AcDbLine
 10
57.66249999999999
 20
-54.862499
 30
0.0
 11
47.1125
 21
-54.862499
 31
0.0
  0
ARC
  5
65F
330
1D
100
AcDbEntity
  8
BLACK
100
AcDbCircle
 10
47.1125
 20
-66.88749899999999
 30
0.0
 40
2.075
100
AcDbArc
 50
180.0
 51
270.0
  0
ARC
  5
660
330
1D
100
AcDbEntity
  8
BLACK
100
AcDbCircle
 10
47.1125
 20
-56.937499
 30
0.0
 40
2.075
100
AcDbArc
 50
90.0
 51
180.0
  0
ARC
  5
661
330
1D
100
AcDbEntity
  8
BLACK
100
AcDbCircle
 10
57.66249999999999
 20
-56.937499
 30
0.0
 40
2.075
100
AcDbArc
 50
0.0
 51
90.0
  0
LINE
  5
662
330
1D
100
AcDbEntity
  8
BLACK
  6
Continuous
100
AcDbLine
 10
57.66249999999999
 20
-68.962499
 30
0.0
 11
47.1125
 21
-68.962499
 31
0.0
  0
ARC
  5
663
330
1D
100
AcDbEntity
  8
BLACK
100
AcDbCircle
 10
76.71249999999999
 20
-66.88749899999999
 30
0.0
 40
2.075
100
AcDbArc
 50
270.0
 51
0.0
  0
LINE
  5
664
330
1D
100
AcDbEntity
  8
BLACK
  6
Continuous
100
AcDbLine
 10
78.7875
 20
-56.937499
 30
0.0
 11
78.7875
 21
-66.88749899999999
 31
0.0
  0
LINE
  5
665
330
1D
100
AcDbEntity
  8
BLACK
  6
Continuous
100
AcDbLine
 10
64.08749999999999
 20
-56.937499
 30
0.0
 11
64.08749999999999
 21
-66.88749899999999
 31
0.0
  0
LINE
  5
666
330
1D
100
AcDbEntity
  8
BLACK
  6
Continuous
100
AcDbLine
 10
76.71249999999999
 20
-54.862499
 30
0.0
 11
66.1625
 21
-54.862499
 31
0.0
  0
ARC
  5
667
330
1D
100
AcDbEntity
  8
BLACK
100
AcDbCircle
 10
66.1625
 20
-66.88749899999999
 30
0.0
 40
2.075
100
AcDbArc
 50
180.0
 51
270.0
  0
ARC
  5
668
330
1D
100
AcDbEntity
  8
BLACK
100
AcDbCircle
 10
66.1625
 20
-56.937499
 30
0.0
 40
2.075
100
AcDbArc
 50
90.0
 51
180.0
  0
ARC
  5
669
330
1D
100
AcDbEntity
  8
BLACK
100
AcDbCircle
 10
76.71249999999999
 20
-56.937499
 30
0.0
 40
2.075
100
AcDbArc
 50
0.0
 51
90.0
  0
LINE
  5
66A
330
1D
100
AcDbEntity
  8
BLACK
  6
Continuous
100
AcDbLine
 10
76.71249999999999
 20
-68.962499
 30
0.0
 11
66.1625
 21
-68.962499
 31
0.0
  0
ARC
  5
66B
330
1D
100
AcDbEntity
  8
BLACK
100
AcDbCircle
 10
48.1375
 20
-85.937499
 30
0.0
 40
2.075
100
AcDbArc
 50
270.0
 51
0.0
  0
LINE
  5
66C
330
1D
100
AcDbEntity
  8
BLACK
  6
Continuous
100
AcDbLine
 10
50.2125
 20
-75.987499
 30
0.0
 11
50.2125
 21
-85.937499
 31
0.0
  0
LINE
  5
66D
330
1D
100
AcDbEntity
  8
BLACK
  6
Continuous
100
AcDbLine
 10
35.5125
 20
-75.987499
 30
0.0
 11
35.5125
 21
-85.937499
 31
0.0
  0
LINE
  5
66E
330
1D
100
AcDbEntity
  8
BLACK
  6
Continuous
100
AcDbLine
 10
48.1375
 20
-73.912499
 30
0.0
 11
37.5875
 21
-73.912499
 31
0.0
  0
ARC
  5
66F
330
1D
100
AcDbEntity
  8
BLACK
100
AcDbCircle
 10
37.5875
 20
-85.937499
 30
0.0
 40
2.075
100
AcDbArc
 50
180.0
 51
270.0
  0
ARC
  5
670
330
1D
100
AcDbEntity
  8
BLACK
100
AcDbCircle
 10
37.5875
 20
-75.987499
 30
0.0
 40
2.075
100
AcDbArc
 50
90.0
 51
180.0
  0
ARC
  5
671
330
1D
100
AcDbEntity
  8
BLACK
100
AcDbCircle
 10
48.1375
 20
-75.987499
 30
0.0
 40
2.075
100
AcDbArc
 50
0.0
 51
90.0
  0
LINE
  5
672
330
1D
100
AcDbEntity
  8
BLACK
  6
Continuous
100
AcDbLine
 10
48.1375
 20
-88.01249899999999
 30
0.0
 11
37.5875
 21
-88.01249899999999
 31
0.0
  0
ARC
  5
673
330
1D
100
AcDbEntity
  8
BLACK
100
AcDbCircle
 10
67.1875
 20
-85.937499
 30
0.0
 40
2.075
100
AcDbArc
 50
270.0
 51
0.0
  0
LINE
  5
674
330
1D
100
AcDbEntity
  8
BLACK
  6
Continuous
100
AcDbLine
 10
69.2625
 20
-75.987499
 30
0.0
 11
69.2625
 21
-85.937499
 31
0.0
  0
LINE
  5
675
330
1D
100
AcDbEntity
  8
BLACK
  6
Continuous
100
AcDbLine
 10
54.5625
 20
-75.987499
 30
0.0
 11
54.5625
 21
-85.937499
 31
0.0
  0
LINE
  5
676
330
1D
100
AcDbEntity
  8
BLACK
  6
Continuous
100
AcDbLine
 10
67.1875
 20
-73.912499
 30
0.0
 11
56.6375
 21
-73.912499
 31
0.0
  0
ARC
  5
677
330
1D
100
AcDbEntity
  8
BLACK
100
AcDbCircle
 10
56.6375
 20
-85.937499
 30
0.0
 40
2.075
100
AcDbArc
 50
180.0
 51
270.0
  0
ARC
  5
678
330
1D
100
AcDbEntity
  8
BLACK
100
AcDbCircle
 10
56.6375
 20
-75.987499
 30
0.0
 40
2.075
100
AcDbArc
 50
90.0
 51
180.0
  0
ARC
  5
679
330
1D
100
AcDbEntity
  8
BLACK
100
AcDbCircle
 10
67.1875
 20
-75.987499
 30
0.0
 40
2.075
100
AcDbArc
 50
0.0
 51
90.0
  0
LINE
  5
67A
330
1D
100
AcDbEntity
  8
BLACK
  6
Continuous
100
AcDbLine
 10
67.1875
 20
-88.01249899999999
 30
0.0
 11
56.6375
 21
-88.01249899999999
 31
0.0
  0
ARC
  5
67B
330
1D
100
AcDbEntity
  8
BLACK
100
AcDbCircle
 10
86.2375
 20
-85.937499
 30
0.0
 40
2.075
100
AcDbArc
 50
270.0
 51
0.0
  0
LINE
  5
67C
330
1D
100
AcDbEntity
  8
BLACK
  6
Continuous
100
AcDbLine
 10
88.3125
 20
-75.987499
 30
0.0
 11
88.3125
 21
-85.937499
 31
0.0
  0
LINE
  5
67D
330
1D
100
AcDbEntity
  8
BLACK
  6
Continuous
100
AcDbLine
 10
73.6125
 20
-75.987499
 30
0.0
 11
73.6125
 21
-85.937499
 31
0.0
  0
LINE
  5
67E
330
1D
100
AcDbEntity
  8
BLACK
  6
Continuous
100
AcDbLine
 10
86.2375
 20
-73.912499
 30
0.0
 11
75.6875
 21
-73.912499
 31
0.0
  0
ARC
  5
67F
330
1D
100
AcDbEntity
  8
BLACK
100
AcDbCircle
 10
75.6875
 20
-85.937499
 30
0.0
 40
2.075
100
AcDbArc
 50
180.0
 51
270.0
  0
ARC
  5
680
330
1D
100
AcDbEntity
  8
BLACK
100
AcDbCircle
 10
75.6875
 20
-75.987499
 30
0.0
 40
2.075
100
AcDbArc
 50
90.0
 51
180.0
  0
ARC
  5
681
330
1D
100
AcDbEntity
  8
BLACK
100
AcDbCircle
 10
86.2375
 20
-75.987499
 30
0.0
 40
2.075
100
AcDbArc
 50
0.0
 51
90.0
  0
LINE
  5
682
330
1D
100
AcDbEntity
  8
BLACK
  6
Continuous
100
AcDbLine
 10
86.2375
 20
-88.01249899999999
 30
0.0
 11
75.6875
 21
-88.01249899999999
 31
0.0
  0
ARC
  5
683
330
1D
100
AcDbEntity
  8
BLACK
100
AcDbCircle
 10
105.2875
 20
-85.937499
 30
0.0
 40
2.075
100
AcDbArc
 50
270.0
 51
0.0
  0
LINE
  5
684
330
1D
100
AcDbEntity
  8
BLACK
  6
Continuous
100
AcDbLine
 10
107.3625
 20
-75.987499
 30
0.0
 11
107.3625
 21
-85.937499
 31
0.0
  0
LINE
  5
685
330
1D
100
AcDbEntity
  8
BLACK
  6
Continuous
100
AcDbLine
 10
92.6625
 20
-75.987499
 30
0.0
 11
92.6625
 21
-85.937499
 31
0.0
  0
LINE
  5
686
330
1D
100
AcDbEntity
  8
BLACK
  6
Continuous
100
AcDbLine
 10
105.2875
 20
-73.912499
 30
0.0
 11
94.7375
 21
-73.912499
 31
0.0
  0
ARC
  5
687
330
1D
100
AcDbEntity
  8
BLACK
100
AcDbCircle
 10
94.7375
 20
-85.937499
 30
0.0
 40
2.075
100
AcDbArc
 50
180.0
 51
270.0
  0
ARC
  5
688
330
1D
100
AcDbEntity
  8
BLACK
100
AcDbCircle
 10
94.7375
 20
-75.987499
 30
0.0
 40
2.075
100
AcDbArc
 50
90.0
 51
180.0
  0
ARC
  5
689
330
1D
100
AcDbEntity
  8
BLACK
100
AcDbCircle
 10
105.2875
 20
-75.987499
 30
0.0
 40
2.075
100
AcDbArc
 50
0.0
 51
90.0
  0
LINE
  5
68A
330
1D
100
AcDbEntity
  8
BLACK
  6
Continuous
100
AcDbLine
 10
105.2875
 20
-88.01249899999999
 30
0.0
 11
94.7375
 21
-88.01249899999999
 31
0.0
  0
ARC
  5
68B
330
1D
100
AcDbEntity
  8
BLACK
100
AcDbCircle
 10
38.6125
 20
-66.88749899999999
 30
0.0
 40
2.075
100
AcDbArc
 50
270.0
 51
0.0
  0
LINE
  5
68C
330
1D
100
AcDbEntity
  8
BLACK
  6
Continuous
100
AcDbLine
 10
40.6875
 20
-56.937499
 30
0.0
 11
40.6875
 21
-66.88749899999999
 31
0.0
  0
LINE
  5
68D
330
1D
100
AcDbEntity
  8
BLACK
  6
Continuous
100
AcDbLine
 10
25.9875
 20
-56.937499
 30
0.0
 11
25.9875
 21
-66.88749899999999
 31
0.0
  0
LINE
  5
68E
330
1D
100
AcDbEntity
  8
BLACK
  6
Continuous
100
AcDbLine
 10
38.6125
 20
-54.862499
 30
0.0
 11
28.0625
 21
-54.862499
 31
0.0
  0
ARC
  5
68F
330
1D
100
AcDbEntity
  8
BLACK
100
AcDbCircle
 10
28.0625
 20
-66.88749899999999
 30
0.0
 40
2.075
100
AcDbArc
 50
180.0
 51
270.0
  0
ARC
  5
690
330
1D
100
AcDbEntity
  8
BLACK
100
AcDbCircle
 10
28.0625
 20
-56.937499
 30
0.0
 40
2.075
100
AcDbArc
 50
90.0
 51
180.0
  0
ARC
  5
691
330
1D
100
AcDbEntity
  8
BLACK
100
AcDbCircle
 10
38.6125
 20
-56.937499
 30
0.0
 40
2.075
100
AcDbArc
 50
0.0
 51
90.0
  0
LINE
  5
692
330
1D
100
AcDbEntity
  8
BLACK
  6
Continuous
100
AcDbLine
 10
38.6125
 20
-68.962499
 30
0.0
 11
28.0625
 21
-68.962499
 31
0.0
  0
ARC
  5
693
330
1D
100
AcDbEntity
  8
BLACK
100
AcDbCircle
 10
12.41875
 20
-66.88749899999999
 30
0.0
 40
2.075
100
AcDbArc
 50
270.0
 51
0.0
  0
LINE
  5
694
330
1D
100
AcDbEntity
  8
BLACK
  6
Continuous
100
AcDbLine
 10
14.49375
 20
-56.937499
 30
0.0
 11
14.49375
 21
-66.88749899999999
 31
0.0
  0
ARC
  5
695
330
1D
100
AcDbEntity
  8
BLACK
100
AcDbCircle
 10
12.41875
 20
-56.937499
 30
0.0
 40
2.075
100
AcDbArc
 50
0.0
 51
90.0
  0
ARC
  5
696
330
1D
100
AcDbEntity
  8
BLACK
100
AcDbCircle
 10
33.85
 20
-47.837499
 30
0.0
 40
2.075
100
AcDbArc
 50
270.0
 51
0.0
  0
LINE
  5
697
330
1D
100
AcDbEntity
  8
BLACK
  6
Continuous
100
AcDbLine
 10
35.925
 20
-37.887499
 30
0.0
 11
35.925
 21
-47.837499
 31
0.0
  0
LINE
  5
698
330
1D
100
AcDbEntity
  8
BLACK
  6
Continuous
100
AcDbLine
 10
21.225
 20
-37.887499
 30
0.0
 11
21.225
 21
-47.837499
 31
0.0
  0
LINE
  5
699
330
1D
100
AcDbEntity
  8
BLACK
  6
Continuous
100
AcDbLine
 10
33.85
 20
-35.812499
 30
0.0
 11
23.3
 21
-35.812499
 31
0.0
  0
ARC
  5
69A
330
1D
100
AcDbEntity
  8
BLACK
100
AcDbCircle
 10
23.3
 20
-47.837499
 30
0.0
 40
2.075
100
AcDbArc
 50
180.0
 51
270.0
  0
ARC
  5
69B
330
1D
100
AcDbEntity
  8
BLACK
100
AcDbCircle
 10
23.3
 20
-37.887499
 30
0.0
 40
2.075
100
AcDbArc
 50
90.0
 51
180.0
  0
ARC
  5
69C
330
1D
100
AcDbEntity
  8
BLACK
100
AcDbCircle
 10
33.85
 20
-37.887499
 30
0.0
 40
2.075
100
AcDbArc
 50
0.0
 51
90.0
  0
LINE
  5
69D
330
1D
100
AcDbEntity
  8
BLACK
  6
Continuous
100
AcDbLine
 10
33.85
 20
-49.912499
 30
0.0
 11
23.3
 21
-49.912499
 31
0.0
  0
LINE
  5
69E
330
1D
100
AcDbEntity
  8
BLACK
  6
Continuous
100
AcDbLine
 10
-4.96875
 20
-56.937503
 30
0.0
 11
-4.96875
 21
-66.887497
 31
0.0
  0
LINE
  5
69F
330
1D
100
AcDbEntity
  8
BLACK
  6
Continuous
100
AcDbLine
 10
12.41875
 20
-54.862499
 30
0.0
 11
-2.893746
 21
-54.862499
 31
0.0
  0
ARC
  5
6A0
330
1D
100
AcDbEntity
  8
BLACK
100
AcDbCircle
 10
-2.893748
 20
-66.887497
 30
0.0
 40
2.075002
100
AcDbArc
 50
180.0
 51
270.0
  0
ARC
  5
6A1
330
1D
100
AcDbEntity
  8
BLACK
100
AcDbCircle
 10
-2.893746
 20
-56.937503
 30
0.0
 40
2.075004
100
AcDbArc
 50
90.0
 51
180.0
  0
LINE
  5
6A2
330
1D
100
AcDbEntity
  8
BLACK
  6
Continuous
100
AcDbLine
 10
12.41875
 20
-68.962499
 30
0.0
 11
-2.893748
 21
-68.962499
 31
0.0
  0
LINE
  5
6A3
330
1D
100
AcDbEntity
  8
BLACK
  6
Continuous
100
AcDbLine
 10
221.25
 20
-18.8375
 30
0.0
 11
221.25
 21
-28.787501
 31
0.0
  0
LINE
  5
6A4
330
1D
100
AcDbEntity
  8
BLACK
  6
Continuous
100
AcDbLine
 10
233.875
 20
-16.7625
 30
0.0
 11
223.324999
 21
-16.7625
 31
0.0
  0
LINE
  5
6A5
330
1D
100
AcDbEntity
  8
BLACK
  6
Continuous
100
AcDbLine
 10
233.875
 20
-30.8625
 30
0.0
 11
223.325
 21
-30.8625
 31
0.0
  0
LINE
  5
6A6
330
1D
100
AcDbEntity
  8
BLACK
  6
Continuous
100
AcDbLine
 10
235.95
 20
-18.8375
 30
0.0
 11
235.95
 21
-28.7875
 31
0.0
  0
ARC
  5
6A7
330
1D
100
AcDbEntity
  8
BLACK
100
AcDbCircle
 10
223.325004
 20
-18.837504
 30
0.0
 40
2.075004000003855
100
AcDbArc
 50
90.00013806
 51
179.99988955
  0
ARC
  5
6A8
330
1D
100
AcDbEntity
  8
BLACK
100
AcDbCircle
 10
223.325002
 20
-28.787498
 30
0.0
 40
2.075002000000964
100
AcDbArc
 50
180.00008284
 51
269.99994478
  0
ARC
  5
6A9
330
1D
100
AcDbEntity
  8
BLACK
100
AcDbCircle
 10
233.875
 20
-18.8375
 30
0.0
 40
2.075
100
AcDbArc
 50
0.0
 51
90.0
  0
ARC
  5
6AA
330
1D
100
AcDbEntity
  8
BLACK
100
AcDbCircle
 10
233.875
 20
-28.7875
 30
0.0
 40
2.075
100
AcDbArc
 50
270.0
 51
0.0
  0
LINE
  5
6AB
330
1D
100
AcDbEntity
  8
BLACK
  6
Continuous
100
AcDbLine
 10
202.2
 20
-18.8375
 30
0.0
 11
202.2
 21
-28.787501
 31
0.0
  0
LINE
  5
6AC
330
1D
100
AcDbEntity
  8
BLACK
  6
Continuous
100
AcDbLine
 10
214.825
 20
-16.7625
 30
0.0
 11
204.274999
 21
-16.7625
 31
0.0
  0
LINE
  5
6AD
330
1D
100
AcDbEntity
  8
BLACK
  6
Continuous
100
AcDbLine
 10
214.825
 20
-30.8625
 30
0.0
 11
204.275
 21
-30.8625
 31
0.0
  0
LINE
  5
6AE
330
1D
100
AcDbEntity
  8
BLACK
  6
Continuous
100
AcDbLine
 10
216.9
 20
-18.8375
 30
0.0
 11
216.9
 21
-28.7875
 31
0.0
  0
ARC
  5
6AF
330
1D
100
AcDbEntity
  8
BLACK
100
AcDbCircle
 10
204.275004
 20
-18.837504
 30
0.0
 40
2.075004000003855
100
AcDbArc
 50
90.00013806
 51
179.99988955
  0
ARC
  5
6B0
330
1D
100
AcDbEntity
  8
BLACK
100
AcDbCircle
 10
204.275002
 20
-28.787498
 30
0.0
 40
2.075002000000964
100
AcDbArc
 50
180.00008284
 51
269.99994478
  0
ARC
  5
6B1
330
1D
100
AcDbEntity
  8
BLACK
100
AcDbCircle
 10
214.825
 20
-18.8375
 30
0.0
 40
2.075
100
AcDbArc
 50
0.0
 51
90.0
  0
ARC
  5
6B2
330
1D
100
AcDbEntity
  8
BLACK
100
AcDbCircle
 10
214.825
 20
-28.7875
 30
0.0
 40
2.075
100
AcDbArc
 50
270.0
 51
0.0
  0
LINE
  5
6B3
330
1D
100
AcDbEntity
  8
BLACK
  6
Continuous
100
AcDbLine
 10
183.15
 20
-18.8375
 30
0.0
 11
183.15
 21
-28.787501
 31
0.0
  0
LINE
  5
6B4
330
1D
100
AcDbEntity
  8
BLACK
  6
Continuous
100
AcDbLine
 10
195.775
 20
-16.7625
 30
0.0
 11
185.224999
 21
-16.7625
 31
0.0
  0
LINE
  5
6B5
330
1D
100
AcDbEntity
  8
BLACK
  6
Continuous
100
AcDbLine
 10
195.775
 20
-30.8625
 30
0.0
 11
185.225
 21
-30.8625
 31
0.0
  0
LINE
  5
6B6
330
1D
100
AcDbEntity
  8
BLACK
  6
Continuous
100
AcDbLine
 10
197.85
 20
-18.8375
 30
0.0
 11
197.85
 21
-28.7875
 31
0.0
  0
ARC
  5
6B7
330
1D
100
AcDbEntity
  8
BLACK
100
AcDbCircle
 10
185.225004
 20
-18.837504
 30
0.0
 40
2.075004000003855
100
AcDbArc
 50
90.00013806
 51
179.99988955
  0
ARC
  5
6B8
330
1D
100
AcDbEntity
  8
BLACK
100
AcDbCircle
 10
185.225002
 20
-28.787498
 30
0.0
 40
2.075002000000964
100
AcDbArc
 50
180.00008284
 51
269.99994478
  0
ARC
  5
6B9
330
1D
100
AcDbEntity
  8
BLACK
100
AcDbCircle
 10
195.775
 20
-18.8375
 30
0.0
 40
2.075
100
AcDbArc
 50
0.0
 51
90.0
  0
ARC
  5
6BA
330
1D
100
AcDbEntity
  8
BLACK
100
AcDbCircle
 10
195.775
 20
-28.7875
 30
0.0
 40
2.075
100
AcDbArc
 50
270.0
 51
0.0
  0
LINE
  5
703
330
1D
100
AcDbEntity
  8
BLACK
  6
Continuous
100
AcDbLine
 10
248.1625
 20
-7.05
 30
0.0
 11
237.6125
 21
-7.05
 31
0.0
  0
ARC
  5
704
330
1D
100
AcDbEntity
  8
BLACK
100
AcDbCircle
 10
248.1625
 20
4.975
 30
0.0
 40
2.075
100
AcDbArc
 50
0.0
 51
90.0
  0
ARC
  5
705
330
1D
100
AcDbEntity
  8
BLACK
100
AcDbCircle
 10
237.612504
 20
4.974996
 30
0.0
 40
2.075004000003855
100
AcDbArc
 50
90.00013806
 51
179.99988955
  0
ARC
  5
706
330
1D
100
AcDbEntity
  8
BLACK
100
AcDbCircle
 10
237.612502
 20
-4.974997999999999
 30
0.0
 40
2.075002000000964
100
AcDbArc
 50
180.00008284
 51
269.99994478
  0
LINE
  5
707
330
1D
100
AcDbEntity
  8
BLACK
  6
Continuous
100
AcDbLine
 10
248.1625
 20
7.05
 30
0.0
 11
237.612499
 21
7.05
 31
0.0
  0
LINE
  5
708
330
1D
100
AcDbEntity
  8
BLACK
  6
Continuous
100
AcDbLine
 10
235.5375
 20
4.975
 30
0.0
 11
235.5375
 21
-4.975001
 31
0.0
  0
LINE
  5
709
330
1D
100
AcDbEntity
  8
BLACK
  6
Continuous
100
AcDbLine
 10
250.2375
 20
4.975
 30
0.0
 11
250.2375
 21
-4.975
 31
0.0
  0
ARC
  5
70A
330
1D
100
AcDbEntity
  8
BLACK
100
AcDbCircle
 10
248.1625
 20
-4.975
 30
0.0
 40
2.075
100
AcDbArc
 50
270.0
 51
0.0
  0
LINE
  5
70B
330
1D
100
AcDbEntity
  8
BLACK
  6
Continuous
100
AcDbLine
 10
229.1125
 20
-7.05
 30
0.0
 11
218.5625
 21
-7.05
 31
0.0
  0
ARC
  5
70C
330
1D
100
AcDbEntity
  8
BLACK
100
AcDbCircle
 10
229.1125
 20
4.975
 30
0.0
 40
2.075
100
AcDbArc
 50
0.0
 51
90.0
  0
ARC
  5
70D
330
1D
100
AcDbEntity
  8
BLACK
100
AcDbCircle
 10
218.562504
 20
4.974996
 30
0.0
 40
2.075004000003855
100
AcDbArc
 50
90.00013806
 51
179.99988955
  0
ARC
  5
70E
330
1D
100
AcDbEntity
  8
BLACK
100
AcDbCircle
 10
218.562502
 20
-4.974997999999999
 30
0.0
 40
2.075002000000964
100
AcDbArc
 50
180.00008284
 51
269.99994478
  0
LINE
  5
70F
330
1D
100
AcDbEntity
  8
BLACK
  6
Continuous
100
AcDbLine
 10
229.1125
 20
7.05
 30
0.0
 11
218.562499
 21
7.05
 31
0.0
  0
LINE
  5
710
330
1D
100
AcDbEntity
  8
BLACK
  6
Continuous
100
AcDbLine
 10
216.4875
 20
4.975
 30
0.0
 11
216.4875
 21
-4.975001
 31
0.0
  0
LINE
  5
711
330
1D
100
AcDbEntity
  8
BLACK
  6
Continuous
100
AcDbLine
 10
231.1875
 20
4.975
 30
0.0
 11
231.1875
 21
-4.975
 31
0.0
  0
ARC
  5
712
330
1D
100
AcDbEntity
  8
BLACK
100
AcDbCircle
 10
229.1125
 20
-4.975
 30
0.0
 40
2.075
100
AcDbArc
 50
270.0
 51
0.0
  0
LINE
  5
713
330
1D
100
AcDbEntity
  8
BLACK
  6
Continuous
100
AcDbLine
 10
210.0625
 20
-7.05
 30
0.0
 11
199.5125
 21
-7.05
 31
0.0
  0
ARC
  5
714
330
1D
100
AcDbEntity
  8
BLACK
100
AcDbCircle
 10
210.0625
 20
4.975
 30
0.0
 40
2.075
100
AcDbArc
 50
0.0
 51
90.0
  0
ARC
  5
715
330
1D
100
AcDbEntity
  8
BLACK
100
AcDbCircle
 10
199.512504
 20
4.974996
 30
0.0
 40
2.075004000003855
100
AcDbArc
 50
90.00013806
 51
179.99988955
  0
ARC
  5
716
330
1D
100
AcDbEntity
  8
BLACK
100
AcDbCircle
 10
199.512502
 20
-4.974997999999999
 30
0.0
 40
2.075002000000964
100
AcDbArc
 50
180.00008284
 51
269.99994478
  0
LINE
  5
717
330
1D
100
AcDbEntity
  8
BLACK
  6
Continuous
100
AcDbLine
 10
210.0625
 20
7.05
 30
0.0
 11
199.512499
 21
7.05
 31
0.0
  0
LINE
  5
718
330
1D
100
AcDbEntity
  8
BLACK
  6
Continuous
100
AcDbLine
 10
197.4375
 20
4.975
 30
0.0
 11
197.4375
 21
-4.975001
 31
0.0
  0
LINE
  5
719
330
1D
100
AcDbEntity
  8
BLACK
  6
Continuous
100
AcDbLine
 10
212.1375
 20
4.975
 30
0.0
 11
212.1375
 21
-4.975
 31
0.0
  0
ARC
  5
71A
330
1D
100
AcDbEntity
  8
BLACK
100
AcDbCircle
 10
210.0625
 20
-4.975
 30
0.0
 40
2.075
100
AcDbArc
 50
270.0
 51
0.0
  0
LINE
  5
71B
330
1D
100
AcDbEntity
  8
BLACK
  6
Continuous
100
AcDbLine
 10
191.0125
 20
-7.05
 30
0.0
 11
180.4625
 21
-7.05
 31
0.0
  0
ARC
  5
71C
330
1D
100
AcDbEntity
  8
BLACK
100
AcDbCircle
 10
191.0125
 20
4.975
 30
0.0
 40
2.075
100
AcDbArc
 50
0.0
 51
90.0
  0
ARC
  5
71D
330
1D
100
AcDbEntity
  8
BLACK
100
AcDbCircle
 10
180.462504
 20
4.974996
 30
0.0
 40
2.075004000003855
100
AcDbArc
 50
90.00013806
 51
179.99988955
  0
ARC
  5
71E
330
1D
100
AcDbEntity
  8
BLACK
100
AcDbCircle
 10
180.462502
 20
-4.974997999999999
 30
0.0
 40
2.075002000000964
100
AcDbArc
 50
180.00008284
 51
269.99994478
  0
LINE
  5
71F
330
1D
100
AcDbEntity
  8
BLACK
  6
Continuous
100
AcDbLine
 10
191.0125
 20
7.05
 30
0.0
 11
180.462499
 21
7.05
 31
0.0
  0
LINE
  5
720
330
1D
100
AcDbEntity
  8
BLACK
  6
Continuous
100
AcDbLine
 10
178.3875
 20
4.975
 30
0.0
 11
178.3875
 21
-4.975001
 31
0.0
  0
LINE
  5
721
330
1D
100
AcDbEntity
  8
BLACK
  6
Continuous
100
AcDbLine
 10
193.0875
 20
4.975
 30
0.0
 11
193.0875
 21
-4.975
 31
0.0
  0
ARC
  5
722
330
1D
100
AcDbEntity
  8
BLACK
100
AcDbCircle
 10
191.0125
 20
-4.975
 30
0.0
 40
2.075
100
AcDbArc
 50
270.0
 51
0.0
  0
LINE
  5
723
330
1D
100
AcDbEntity
  8
BLACK
  6
Continuous
100
AcDbLine
 10
29.0875
 20
-7.05
 30
0.0
 11
18.5375
 21
-7.05
 31
0.0
  0
ARC
  5
724
330
1D
100
AcDbEntity
  8
BLACK
100
AcDbCircle
 10
29.0875
 20
4.975
 30
0.0
 40
2.075
100
AcDbArc
 50
0.0
 51
90.0
  0
ARC
  5
725
330
1D
100
AcDbEntity
  8
BLACK
100
AcDbCircle
 10
18.537504
 20
4.974996
 30
0.0
 40
2.075004000003855
100
AcDbArc
 50
90.00013806
 51
179.99988955
  0
ARC
  5
726
330
1D
100
AcDbEntity
  8
BLACK
100
AcDbCircle
 10
18.537502
 20
-4.974997999999999
 30
0.0
 40
2.075002000000964
100
AcDbArc
 50
180.00008284
 51
269.99994478
  0
LINE
  5
727
330
1D
100
AcDbEntity
  8
BLACK
  6
Continuous
100
AcDbLine
 10
29.0875
 20
7.05
 30
0.0
 11
18.537499
 21
7.05
 31
0.0
  0
LINE
  5
728
330
1D
100
AcDbEntity
  8
BLACK
  6
Continuous
100
AcDbLine
 10
16.4625
 20
4.975
 30
0.0
 11
16.4625
 21
-4.975001
 31
0.0
  0
LINE
  5
729
330
1D
100
AcDbEntity
  8
BLACK
  6
Continuous
100
AcDbLine
 10
31.1625
 20
4.975
 30
0.0
 11
31.1625
 21
-4.975
 31
0.0
  0
ARC
  5
72A
330
1D
100
AcDbEntity
  8
BLACK
100
AcDbCircle
 10
29.0875
 20
-4.975
 30
0.0
 40
2.075
100
AcDbArc
 50
270.0
 51
0.0
  0
LINE
  5
72B
330
1D
100
AcDbEntity
  8
BLACK
  6
Continuous
100
AcDbLine
 10
48.1375
 20
-7.05
 30
0.0
 11
37.5875
 21
-7.05
 31
0.0
  0
ARC
  5
72C
330
1D
100
AcDbEntity
  8
BLACK
100
AcDbCircle
 10
48.1375
 20
4.975
 30
0.0
 40
2.075
100
AcDbArc
 50
0.0
 51
90.0
  0
ARC
  5
72D
330
1D
100
AcDbEntity
  8
BLACK
100
AcDbCircle
 10
37.587504
 20
4.974996
 30
0.0
 40
2.075004000003855
100
AcDbArc
 50
90.00013806
 51
179.99988955
  0
ARC
  5
72E
330
1D
100
AcDbEntity
  8
BLACK
100
AcDbCircle
 10
37.587502
 20
-4.974997999999999
 30
0.0
 40
2.075002000000964
100
AcDbArc
 50
180.00008284
 51
269.99994478
  0
LINE
  5
72F
330
1D
100
AcDbEntity
  8
BLACK
  6
Continuous
100
AcDbLine
 10
48.1375
 20
7.05
 30
0.0
 11
37.587499
 21
7.05
 31
0.0
  0
LINE
  5
730
330
1D
100
AcDbEntity
  8
BLACK
  6
Continuous
100
AcDbLine
 10
35.5125
 20
4.975
 30
0.0
 11
35.5125
 21
-4.975001
 31
0.0
  0
LINE
  5
731
330
1D
100
AcDbEntity
  8
BLACK
  6
Continuous
100
AcDbLine
 10
50.2125
 20
4.975
 30
0.0
 11
50.2125
 21
-4.975
 31
0.0
  0
ARC
  5
732
330
1D
100
AcDbEntity
  8
BLACK
100
AcDbCircle
 10
48.1375
 20
-4.975
 30
0.0
 40
2.075
100
AcDbArc
 50
270.0
 51
0.0
  0
LINE
  5
733
330
1D
100
AcDbEntity
  8
BLACK
  6
Continuous
100
AcDbLine
 10
67.1875
 20
-7.05
 30
0.0
 11
56.6375
 21
-7.05
 31
0.0
  0
ARC
  5
734
330
1D
100
AcDbEntity
  8
BLACK
100
AcDbCircle
 10
67.1875
 20
4.975
 30
0.0
 40
2.075
100
AcDbArc
 50
0.0
 51
90.0
  0
ARC
  5
735
330
1D
100
AcDbEntity
  8
BLACK
100
AcDbCircle
 10
56.637504
 20
4.974996
 30
0.0
 40
2.075004000003855
100
AcDbArc
 50
90.00013806
 51
179.99988955
  0
ARC
  5
736
330
1D
100
AcDbEntity
  8
BLACK
100
AcDbCircle
 10
56.637502
 20
-4.974997999999999
 30
0.0
 40
2.075002000000964
100
AcDbArc
 50
180.00008284
 51
269.99994478
  0
LINE
  5
737
330
1D
100
AcDbEntity
  8
BLACK
  6
Continuous
100
AcDbLine
 10
67.1875
 20
7.05
 30
0.0
 11
56.637499
 21
7.05
 31
0.0
  0
LINE
  5
738
330
1D
100
AcDbEntity
  8
BLACK
  6
Continuous
100
AcDbLine
 10
54.5625
 20
4.975
 30
0.0
 11
54.5625
 21
-4.975001
 31
0.0
  0
LINE
  5
739
330
1D
100
AcDbEntity
  8
BLACK
  6
Continuous
100
AcDbLine
 10
69.2625
 20
4.975
 30
0.0
 11
69.2625
 21
-4.975
 31
0.0
  0
ARC
  5
73A
330
1D
100
AcDbEntity
  8
BLACK
100
AcDbCircle
 10
67.1875
 20
-4.975
 30
0.0
 40
2.075
100
AcDbArc
 50
270.0
 51
0.0
  0
LINE
  5
73B
330
1D
100
AcDbEntity
  8
BLACK
  6
Continuous
100
AcDbLine
 10
86.2375
 20
-7.05
 30
0.0
 11
75.6875
 21
-7.05
 31
0.0
  0
ARC
  5
73C
330
1D
100
AcDbEntity
  8
BLACK
100
AcDbCircle
 10
86.2375
 20
4.975
 30
0.0
 40
2.075
100
AcDbArc
 50
0.0
 51
90.0
  0
ARC
  5
73D
330
1D
100
AcDbEntity
  8
BLACK
100
AcDbCircle
 10
75.68750399999999
 20
4.974996
 30
0.0
 40
2.075004000003855
100
AcDbArc
 50
90.00013806
 51
179.99988955
  0
ARC
  5
73E
330
1D
100
AcDbEntity
  8
BLACK
100
AcDbCircle
 10
75.687502
 20
-4.974997999999999
 30
0.0
 40
2.075002000000964
100
AcDbArc
 50
180.00008284
 51
269.99994478
  0
LINE
  5
73F
330
1D
100
AcDbEntity
  8
BLACK
  6
Continuous
100
AcDbLine
 10
86.2375
 20
7.05
 30
0.0
 11
75.687499
 21
7.05
 31
0.0
  0
LINE
  5
740
330
1D
100
AcDbEntity
  8
BLACK
  6
Continuous
100
AcDbLine
 10
73.6125
 20
4.975
 30
0.0
 11
73.6125
 21
-4.975001
 31
0.0
  0
LINE
  5
741
330
1D
100
AcDbEntity
  8
BLACK
  6
Continuous
100
AcDbLine
 10
88.3125
 20
4.975
 30
0.0
 11
88.3125
 21
-4.975
 31
0.0
  0
ARC
  5
742
330
1D
100
AcDbEntity
  8
BLACK
100
AcDbCircle
 10
86.2375
 20
-4.975
 30
0.0
 40
2.075
100
AcDbArc
 50
270.0
 51
0.0
  0
LINE
  5
743
330
1D
100
AcDbEntity
  8
BLACK
  6
Continuous
100
AcDbLine
 10
110.05
 20
-7.05
 30
0.0
 11
99.5
 21
-7.05
 31
0.0
  0
ARC
  5
744
330
1D
100
AcDbEntity
  8
BLACK
100
AcDbCircle
 10
110.05
 20
4.975
 30
0.0
 40
2.075
100
AcDbArc
 50
0.0
 51
90.0
  0
ARC
  5
745
330
1D
100
AcDbEntity
  8
BLACK
100
AcDbCircle
 10
99.50000399999999
 20
4.974996
 30
0.0
 40
2.075004000003855
100
AcDbArc
 50
90.00013806
 51
179.99988955
  0
ARC
  5
746
330
1D
100
AcDbEntity
  8
BLACK
100
AcDbCircle
 10
99.500002
 20
-4.974997999999999
 30
0.0
 40
2.075002000000964
100
AcDbArc
 50
180.00008284
 51
269.99994478
  0
LINE
  5
747
330
1D
100
AcDbEntity
  8
BLACK
  6
Continuous
100
AcDbLine
 10
110.05
 20
7.05
 30
0.0
 11
99.499999
 21
7.05
 31
0.0
  0
LINE
  5
748
330
1D
100
AcDbEntity
  8
BLACK
  6
Continuous
100
AcDbLine
 10
97.425
 20
4.975
 30
0.0
 11
97.425
 21
-4.975001
 31
0.0
  0
LINE
  5
749
330
1D
100
AcDbEntity
  8
BLACK
  6
Continuous
100
AcDbLine
 10
112.125
 20
4.975
 30
0.0
 11
112.125
 21
-4.975
 31
0.0
  0
ARC
  5
74A
330
1D
100
AcDbEntity
  8
BLACK
100
AcDbCircle
 10
110.05
 20
-4.975
 30
0.0
 40
2.075
100
AcDbArc
 50
270.0
 51
0.0
  0
LINE
  5
74B
330
1D
100
AcDbEntity
  8
BLACK
  6
Continuous
100
AcDbLine
 10
252.925
 20
-30.8625
 30
0.0
 11
242.375
 21
-30.8625
 31
0.0
  0
ARC
  5
74C
330
1D
100
AcDbEntity
  8
BLACK
100
AcDbCircle
 10
242.375004
 20
-18.837504
 30
0.0
 40
2.075004000003855
100
AcDbArc
 50
90.00013806
 51
179.99988955
  0
ARC
  5
74D
330
1D
100
AcDbEntity
  8
BLACK
100
AcDbCircle
 10
242.375002
 20
-28.787498
 30
0.0
 40
2.075002000000964
100
AcDbArc
 50
180.00008284
 51
269.99994478
  0
ARC
  5
74E
330
1D
100
AcDbEntity
  8
BLACK
100
AcDbCircle
 10
252.925
 20
-28.7875
 30
0.0
 40
2.075
100
AcDbArc
 50
270.0
 51
0.0
  0
LINE
  5
74F
330
1D
100
AcDbEntity
  8
BLACK
  6
Continuous
100
AcDbLine
 10
259.35
 20
-18.8375
 30
0.0
 11
259.35
 21
-28.787501
 31
0.0
  0
LINE
  5
750
330
1D
100
AcDbEntity
  8
BLACK
  6
Continuous
100
AcDbLine
 10
240.3
 20
-18.8375
 30
0.0
 11
240.3
 21
-28.787501
 31
0.0
  0
LINE
  5
751
330
1D
100
AcDbEntity
  8
BLACK
  6
Continuous
100
AcDbLine
 10
271.975
 20
-16.7625
 30
0.0
 11
261.424999
 21
-16.7625
 31
0.0
  0
LINE
  5
752
330
1D
100
AcDbEntity
  8
BLACK
  6
Continuous
100
AcDbLine
 10
252.925
 20
-16.7625
 30
0.0
 11
242.374999
 21
-16.7625
 31
0.0
  0
LINE
  5
753
330
1D
100
AcDbEntity
  8
BLACK
  6
Continuous
100
AcDbLine
 10
255.0
 20
-18.8375
 30
0.0
 11
255.0
 21
-28.7875
 31
0.0
  0
ARC
  5
754
330
1D
100
AcDbEntity
  8
BLACK
100
AcDbCircle
 10
261.425
 20
-28.7875
 30
0.0
 40
2.075
100
AcDbArc
 50
180.00002761
 51
270.0
  0
ARC
  5
755
330
1D
100
AcDbEntity
  8
BLACK
100
AcDbCircle
 10
261.425
 20
-18.8375
 30
0.0
 40
2.075
100
AcDbArc
 50
90.00002761
 51
180.0
  0
ARC
  5
757
330
1D
100
AcDbEntity
  8
BLACK
100
AcDbCircle
 10
271.975
 20
-28.7875
 30
0.0
 40
2.075
100
AcDbArc
 50
270.0
 51
0.0
  0
ARC
  5
758
330
1D
100
AcDbEntity
  8
BLACK
100
AcDbCircle
 10
271.975
 20
-18.8375
 30
0.0
 40
2.075
100
AcDbArc
 50
0.0
 51
90.0
  0
LINE
  5
759
330
1D
100
AcDbEntity
  8
BLACK
  6
Continuous
100
AcDbLine
 10
274.05
 20
-18.8375
 30
0.0
 11
274.05
 21
-28.7875
 31
0.0
  0
LINE
  5
75A
330
1D
100
AcDbEntity
  8
BLACK
  6
Continuous
100
AcDbLine
 10
271.975
 20
-30.8625
 30
0.0
 11
261.425
 21
-30.8625
 31
0.0
  0
ARC
  5
75B
330
1D
100
AcDbEntity
  8
BLACK
100
AcDbCircle
 10
252.925
 20
-18.8375
 30
0.0
 40
2.075
100
AcDbArc
 50
0.0
 51
90.0
  0
ARC
  5
75C
330
1D
100
AcDbEntity
  8
BLACK
100
AcDbCircle
 10
-2.744264
 20
-84.21293899999999
 30
0.0
 40
1.425001000042456
100
AcDbArc
 50
180.00004021
 51
269.99955772
  0
LINE
  5
75D
330
1D
100
AcDbEntity
  8
BLACK
  6
Continuous
100
AcDbLine
 10
-2.340175
 20
-85.63794
 30
0.0
 11
-2.744275
 21
-85.63794
 31
0.0
  0
ARC
  5
75E
330
1D
100
AcDbEntity
  8
BLACK
100
AcDbCircle
 10
23.83379
 20
-75.00989
 30
0.0
 40
1.074990000569773
100
AcDbArc
 50
22.02370504
 51
89.99813454
  0
ARC
  5
75F
330
1D
100
AcDbEntity
  8
BLACK
100
AcDbCircle
 10
26.55649
 20
-84.21285999999999
 30
0.0
 40
1.425125000561354
100
AcDbArc
 50
269.52631186
 51
359.99839184
  0
ARC
  5
760
330
1D
100
AcDbEntity
  8
BLACK
100
AcDbCircle
 10
25.69105
 20
-74.2586
 30
0.0
 40
0.9284600003365787
100
AcDbArc
 50
202.02452102
 51
269.99845724
  0
LINE
  5
761
330
1D
100
AcDbEntity
  8
BLACK
  6
Continuous
100
AcDbLine
 10
-4.169265
 20
-84.21294
 30
0.0
 11
-4.169265
 21
-76.6122
 31
0.0
  0
LINE
  5
762
330
1D
100
AcDbEntity
  8
BLACK
  6
Continuous
100
AcDbLine
 10
-0.021375
 20
-73.934911
 30
0.0
 11
-0.021375
 21
-73.9349
 31
0.0
  0
ARC
  5
763
330
1D
100
AcDbEntity
  8
BLACK
100
AcDbCircle
 10
26.55665
 20
-76.612
 30
0.0
 40
1.424940000219307
100
AcDbArc
 50
359.99758749
 51
90.00100523000002
  0
LINE
  5
764
330
1D
100
AcDbEntity
  8
BLACK
  6
Continuous
100
AcDbLine
 10
25.691025
 20
-75.18706
 30
0.0
 11
26.556625
 21
-75.18706
 31
0.0
  0
LINE
  5
765
330
1D
100
AcDbEntity
  8
BLACK
  6
Continuous
100
AcDbLine
 10
27.981615
 20
-76.61206
 30
0.0
 11
27.981615
 21
-84.21289999999999
 31
0.0
  0
ARC
  5
766
330
1D
100
AcDbEntity
  8
BLACK
100
AcDbCircle
 10
22.78159
 20
-86.09933
 30
0.0
 40
1.875082291400833
100
AcDbArc
 50
270.0025973
 51
339.45098232
  0
ARC
  5
767
330
1D
100
AcDbEntity
  8
BLACK
100
AcDbCircle
 10
-2.340199
 20
-87.362848
 30
0.0
 40
1.724908000166965
100
AcDbArc
 50
20.54547839
 51
89.9992028
  0
LINE
  5
768
330
1D
100
AcDbEntity
  8
BLACK
  6
Continuous
100
AcDbLine
 10
-1.878675
 20
-75.18704799999999
 30
0.0
 11
-1.878675
 21
-75.18706
 31
0.0
  0
LINE
  5
769
330
1D
100
AcDbEntity
  8
BLACK
  6
Continuous
100
AcDbLine
 10
22.781675
 20
-87.97440999999999
 30
0.0
 11
1.030825
 21
-87.97440999999999
 31
0.0
  0
LINE
  5
76A
330
1D
100
AcDbEntity
  8
BLACK
  6
Continuous
100
AcDbLine
 10
-0.021375
 20
-73.9349
 30
0.0
 11
23.833825
 21
-73.9349
 31
0.0
  0
LINE
  5
76B
330
1D
100
AcDbEntity
  8
BLACK
  6
Continuous
100
AcDbLine
 10
26.544708
 20
-85.63794
 30
0.0
 11
26.152575
 21
-85.63794
 31
0.0
  0
ARC
  5
76C
330
1D
100
AcDbEntity
  8
BLACK
100
AcDbCircle
 10
26.15258
 20
-87.36287999999999
 30
0.0
 40
1.724936068561673
100
AcDbArc
 50
90.00016608000001
 51
159.45408213
  0
ARC
  5
76D
330
1D
100
AcDbEntity
  8
BLACK
100
AcDbCircle
 10
-0.021476
 20
-75.009851
 30
0.0
 40
1.074940192811674
100
AcDbArc
 50
89.99461656
 51
157.97750247
  0
ARC
  5
76E
330
1D
100
AcDbEntity
  8
BLACK
100
AcDbCircle
 10
1.030712
 20
-86.099415
 30
0.0
 40
1.874995003405076
100
AcDbArc
 50
200.54692151
 51
270.00345303
  0
LINE
  5
76F
330
1D
100
AcDbEntity
  8
BLACK
  6
Continuous
100
AcDbLine
 10
-2.732238
 20
-75.18706
 30
0.0
 11
-1.878675
 21
-75.18706
 31
0.0
  0
ARC
  5
770
330
1D
100
AcDbEntity
  8
BLACK
100
AcDbCircle
 10
-1.878626
 20
-74.25867099999999
 30
0.0
 40
0.9283764359148717
100
AcDbArc
 50
269.99697591
 51
337.97782841
  0
ARC
  5
772
330
1D
100
AcDbEntity
  8
BLACK
100
AcDbCircle
 10
-2.744183
 20
-76.61209199999999
 30
0.0
 40
1.425082004092396
100
AcDbArc
 50
89.51974267000003
 51
180.00434217
  0
LINE
  5
773
330
1D
100
AcDbEntity
  8
BLACK
  6
Continuous
100
AcDbLine
 10
233.955735
 20
-84.21294
 30
0.0
 11
233.955735
 21
-76.6122
 31
0.0
  0
LINE
  5
774
330
1D
100
AcDbEntity
  8
BLACK
  6
Continuous
100
AcDbLine
 10
235.392762
 20
-75.18706
 30
0.0
 11
236.246325
 21
-75.18706
 31
0.0
  0
LINE
  5
775
330
1D
100
AcDbEntity
  8
BLACK
  6
Continuous
100
AcDbLine
 10
235.784825
 20
-85.63794
 30
0.0
 11
235.380725
 21
-85.63794
 31
0.0
  0
LINE
  5
776
330
1D
100
AcDbEntity
  8
BLACK
  6
Continuous
100
AcDbLine
 10
236.246325
 20
-75.18704799999999
 30
0.0
 11
236.246325
 21
-75.18706
 31
0.0
  0
LINE
  5
777
330
1D
100
AcDbEntity
  8
BLACK
  6
Continuous
100
AcDbLine
 10
238.103625
 20
-73.9349
 30
0.0
 11
261.958825
 21
-73.9349
 31
0.0
  0
LINE
  5
778
330
1D
100
AcDbEntity
  8
BLACK
  6
Continuous
100
AcDbLine
 10
238.103625
 20
-73.934911
 30
0.0
 11
238.103625
 21
-73.9349
 31
0.0
  0
LINE
  5
779
330
1D
100
AcDbEntity
  8
BLACK
  6
Continuous
100
AcDbLine
 10
260.906675
 20
-87.97440999999999
 30
0.0
 11
239.155825
 21
-87.97440999999999
 31
0.0
  0
LINE
  5
77A
330
1D
100
AcDbEntity
  8
BLACK
  6
Continuous
100
AcDbLine
 10
263.816025
 20
-75.18706
 30
0.0
 11
264.681625
 21
-75.18706
 31
0.0
  0
LINE
  5
77B
330
1D
100
AcDbEntity
  8
BLACK
  6
Continuous
100
AcDbLine
 10
264.669708
 20
-85.63794
 30
0.0
 11
264.277575
 21
-85.63794
 31
0.0
  0
LINE
  5
77C
330
1D
100
AcDbEntity
  8
BLACK
  6
Continuous
100
AcDbLine
 10
266.106615
 20
-76.61206
 30
0.0
 11
266.106615
 21
-84.21289999999999
 31
0.0
  0
ARC
  5
77D
330
1D
100
AcDbEntity
  8
BLACK
100
AcDbCircle
 10
235.380817
 20
-76.61209199999999
 30
0.0
 40
1.425082004092396
100
AcDbArc
 50
89.51974267000003
 51
180.00434217
  0
ARC
  5
77E
330
1D
100
AcDbEntity
  8
BLACK
100
AcDbCircle
 10
235.380736
 20
-84.21293899999999
 30
0.0
 40
1.425001000042456
100
AcDbArc
 50
180.00004021
 51
269.99955772
  0
ARC
  5
77F
330
1D
100
AcDbEntity
  8
BLACK
100
AcDbCircle
 10
235.784801
 20
-87.362848
 30
0.0
 40
1.724908000166965
100
AcDbArc
 50
20.54547839
 51
89.9992028
  0
ARC
  5
780
330
1D
100
AcDbEntity
  8
BLACK
100
AcDbCircle
 10
236.246374
 20
-74.25867099999999
 30
0.0
 40
0.9283764359148717
100
AcDbArc
 50
269.99697591
 51
337.97782841
  0
ARC
  5
781
330
1D
100
AcDbEntity
  8
BLACK
100
AcDbCircle
 10
238.103524
 20
-75.009851
 30
0.0
 40
1.074940192811674
100
AcDbArc
 50
89.99461656
 51
157.97750247
  0
ARC
  5
782
330
1D
100
AcDbEntity
  8
BLACK
100
AcDbCircle
 10
239.155712
 20
-86.099415
 30
0.0
 40
1.874995003405076
100
AcDbArc
 50
200.54692151
 51
270.00345303
  0
ARC
  5
783
330
1D
100
AcDbEntity
  8
BLACK
100
AcDbCircle
 10
261.95879
 20
-75.00989
 30
0.0
 40
1.074990000569773
100
AcDbArc
 50
22.02370504
 51
89.99813454
  0
ARC
  5
784
330
1D
100
AcDbEntity
  8
BLACK
100
AcDbCircle
 10
260.90659
 20
-86.09933
 30
0.0
 40
1.875082291400833
100
AcDbArc
 50
270.0025973
 51
339.45098232
  0
ARC
  5
785
330
1D
100
AcDbEntity
  8
BLACK
100
AcDbCircle
 10
264.27758
 20
-87.36287999999999
 30
0.0
 40
1.724936068561673
100
AcDbArc
 50
90.00016608000001
 51
159.45408213
  0
ARC
  5
786
330
1D
100
AcDbEntity
  8
BLACK
100
AcDbCircle
 10
263.81605
 20
-74.2586
 30
0.0
 40
0.9284600003365787
100
AcDbArc
 50
202.02452102
 51
269.99845724
  0
ARC
  5
787
330
1D
100
AcDbEntity
  8
BLACK
100
AcDbCircle
 10
264.68165
 20
-76.612
 30
0.0
 40
1.424940000219307
100
AcDbArc
 50
359.99758749
 51
90.00100523000002
  0
ARC
  5
788
330
1D
100
AcDbEntity
  8
BLACK
100
AcDbCircle
 10
264.68149
 20
-84.21285999999999
 30
0.0
 40
1.425125000561354
100
AcDbArc
 50
269.52631186
 51
359.99839184
  0
ARC
  5
78C
330
1D
100
AcDbEntity
  8
BLACK
100
AcDbCircle
 10
267.569189
 20
-67.038014
 30
0.0
 40
1.425001000042456
100
AcDbArc
 50
270.00004021
 51
359.99955772
  0
LINE
  5
78D
330
1D
100
AcDbEntity
  8
BLACK
  6
Continuous
100
AcDbLine
 10
268.99419
 20
-66.63392499999999
 30
0.0
 11
268.99419
 21
-67.03802499999999
 31
0.0
  0
ARC
  5
78E
330
1D
100
AcDbEntity
  8
BLACK
100
AcDbCircle
 10
258.36614
 20
-40.45996
 30
0.0
 40
1.074990000569773
100
AcDbArc
 50
112.02370504
 51
179.99813454
  0
ARC
  5
78F
330
1D
100
AcDbEntity
  8
BLACK
100
AcDbCircle
 10
267.56911
 20
-37.73726
 30
0.0
 40
1.425125000561354
100
AcDbArc
 50
359.52631186
 51
89.99839184000001
  0
ARC
  5
790
330
1D
100
AcDbEntity
  8
BLACK
100
AcDbCircle
 10
257.61485
 20
-38.6027
 30
0.0
 40
0.9284600003365787
100
AcDbArc
 50
292.02452102
 51
359.99845724
  0
LINE
  5
791
330
1D
100
AcDbEntity
  8
BLACK
  6
Continuous
100
AcDbLine
 10
267.56919
 20
-68.463015
 30
0.0
 11
259.96845
 21
-68.463015
 31
0.0
  0
LINE
  5
792
330
1D
100
AcDbEntity
  8
BLACK
  6
Continuous
100
AcDbLine
 10
257.291161
 20
-64.315125
 30
0.0
 11
257.29115
 21
-64.315125
 31
0.0
  0
ARC
  5
793
330
1D
100
AcDbEntity
  8
BLACK
100
AcDbCircle
 10
259.96825
 20
-37.7371
 30
0.0
 40
1.424940000219307
100
AcDbArc
 50
89.99758749
 51
180.00100523
  0
LINE
  5
794
330
1D
100
AcDbEntity
  8
BLACK
  6
Continuous
100
AcDbLine
 10
258.54331
 20
-38.602725
 30
0.0
 11
258.54331
 21
-37.737125
 31
0.0
  0
LINE
  5
795
330
1D
100
AcDbEntity
  8
BLACK
  6
Continuous
100
AcDbLine
 10
259.96831
 20
-36.312135
 30
0.0
 11
267.56915
 21
-36.312135
 31
0.0
  0
ARC
  5
796
330
1D
100
AcDbEntity
  8
BLACK
100
AcDbCircle
 10
269.45558
 20
-41.51216
 30
0.0
 40
1.875082291400833
100
AcDbArc
 50
0.0025973
 51
69.45098232
  0
ARC
  5
797
330
1D
100
AcDbEntity
  8
BLACK
100
AcDbCircle
 10
270.719098
 20
-66.633949
 30
0.0
 40
1.724908000166965
100
AcDbArc
 50
110.54547839
 51
179.9992028
  0
LINE
  5
798
330
1D
100
AcDbEntity
  8
BLACK
  6
Continuous
100
AcDbLine
 10
258.543298
 20
-66.172425
 30
0.0
 11
258.54331
 21
-66.172425
 31
0.0
  0
LINE
  5
799
330
1D
100
AcDbEntity
  8
BLACK
  6
Continuous
100
AcDbLine
 10
271.33066
 20
-41.512075
 30
0.0
 11
271.33066
 21
-63.262925
 31
0.0
  0
LINE
  5
79A
330
1D
100
AcDbEntity
  8
BLACK
  6
Continuous
100
AcDbLine
 10
257.29115
 20
-64.315125
 30
0.0
 11
257.29115
 21
-40.459925
 31
0.0
  0
LINE
  5
79B
330
1D
100
AcDbEntity
  8
BLACK
  6
Continuous
100
AcDbLine
 10
268.99419
 20
-37.749042
 30
0.0
 11
268.99419
 21
-38.141175
 31
0.0
  0
ARC
  5
79C
330
1D
100
AcDbEntity
  8
BLACK
100
AcDbCircle
 10
270.71913
 20
-38.14117
 30
0.0
 40
1.724936068561673
100
AcDbArc
 50
180.00016608
 51
249.45408213
  0
ARC
  5
79D
330
1D
100
AcDbEntity
  8
BLACK
100
AcDbCircle
 10
258.366101
 20
-64.315226
 30
0.0
 40
1.074940192811674
100
AcDbArc
 50
179.99461656
 51
247.97750247
  0
ARC
  5
79E
330
1D
100
AcDbEntity
  8
BLACK
100
AcDbCircle
 10
269.455665
 20
-63.26303799999999
 30
0.0
 40
1.874995003405076
100
AcDbArc
 50
290.54692151
 51
0.00345303
  0
LINE
  5
79F
330
1D
100
AcDbEntity
  8
BLACK
  6
Continuous
100
AcDbLine
 10
258.54331
 20
-67.025988
 30
0.0
 11
258.54331
 21
-66.172425
 31
0.0
  0
ARC
  5
7A0
330
1D
100
AcDbEntity
  8
BLACK
100
AcDbCircle
 10
257.614921
 20
-66.172376
 30
0.0
 40
0.9283764359148717
100
AcDbArc
 50
359.99697591
 51
67.97782841
  0
ARC
  5
7A2
330
1D
100
AcDbEntity
  8
BLACK
100
AcDbCircle
 10
259.968342
 20
-67.037933
 30
0.0
 40
1.425082004092396
100
AcDbArc
 50
179.51974267
 51
270.00434217
  0
LINE
  5
7A3
330
1D
100
AcDbEntity
  8
BLACK
  6
Continuous
100
AcDbLine
 10
248.1625
 20
-68.96249999999999
 30
0.0
 11
237.6125
 21
-68.96249999999999
 31
0.0
  0
ARC
  5
7A4
330
1D
100
AcDbEntity
  8
BLACK
100
AcDbCircle
 10
248.1625
 20
-56.9375
 30
0.0
 40
2.075
100
AcDbArc
 50
0.0
 51
90.0
  0
ARC
  5
7A5
330
1D
100
AcDbEntity
  8
BLACK
100
AcDbCircle
 10
237.612504
 20
-56.937504
 30
0.0
 40
2.075004000003855
100
AcDbArc
 50
90.00013806
 51
179.99988955
  0
ARC
  5
7A6
330
1D
100
AcDbEntity
  8
BLACK
100
AcDbCircle
 10
237.612502
 20
-66.887498
 30
0.0
 40
2.075002000000964
100
AcDbArc
 50
180.00008284
 51
269.99994478
  0
LINE
  5
7A7
330
1D
100
AcDbEntity
  8
BLACK
  6
Continuous
100
AcDbLine
 10
248.1625
 20
-54.8625
 30
0.0
 11
237.612499
 21
-54.8625
 31
0.0
  0
LINE
  5
7A8
330
1D
100
AcDbEntity
  8
BLACK
  6
Continuous
100
AcDbLine
 10
235.5375
 20
-56.9375
 30
0.0
 11
235.5375
 21
-66.887501
 31
0.0
  0
LINE
  5
7A9
330
1D
100
AcDbEntity
  8
BLACK
  6
Continuous
100
AcDbLine
 10
250.2375
 20
-56.9375
 30
0.0
 11
250.2375
 21
-66.8875
 31
0.0
  0
ARC
  5
7AA
330
1D
100
AcDbEntity
  8
BLACK
100
AcDbCircle
 10
248.1625
 20
-66.8875
 30
0.0
 40
2.075
100
AcDbArc
 50
270.0
 51
0.0
  0
LINE
  5
7AB
330
1D
100
AcDbEntity
  8
BLACK
  6
Continuous
100
AcDbLine
 10
129.1
 20
-107.0625
 30
0.0
 11
118.55
 21
-107.0625
 31
0.0
  0
ARC
  5
7AC
330
1D
100
AcDbEntity
  8
BLACK
100
AcDbCircle
 10
129.1
 20
-95.0375
 30
0.0
 40
2.075
100
AcDbArc
 50
0.0
 51
90.0
  0
ARC
  5
7AD
330
1D
100
AcDbEntity
  8
BLACK
100
AcDbCircle
 10
118.550004
 20
-95.037504
 30
0.0
 40
2.075004000003855
100
AcDbArc
 50
90.00013806
 51
179.99988955
  0
LINE
  5
7AE
330
1D
100
AcDbEntity
  8
BLACK
  6
Continuous
100
AcDbLine
 10
129.1
 20
-92.96249999999999
 30
0.0
 11
118.549999
 21
-92.96249999999999
 31
0.0
  0
LINE
  5
7AF
330
1D
100
AcDbEntity
  8
BLACK
  6
Continuous
100
AcDbLine
 10
116.475
 20
-95.0375
 30
0.0
 11
116.475
 21
-104.987501
 31
0.0
  0
LINE
  5
7B0
330
1D
100
AcDbEntity
  8
BLACK
  6
Continuous
100
AcDbLine
 10
131.175
 20
-95.0375
 30
0.0
 11
131.175
 21
-104.9875
 31
0.0
  0
ARC
  5
7B1
330
1D
100
AcDbEntity
  8
BLACK
100
AcDbCircle
 10
129.1
 20
-104.9875
 30
0.0
 40
2.075
100
AcDbArc
 50
270.0
 51
0.0
  0
ARC
  5
7B2
330
1D
100
AcDbEntity
  8
BLACK
100
AcDbCircle
 10
118.550002
 20
-104.987498
 30
0.0
 40
2.075002000000964
100
AcDbArc
 50
180.00008284
 51
269.99994478
  0
LINE
  5
7B3
330
1D
100
AcDbEntity
  8
BLACK
  6
Continuous
100
AcDbLine
 10
224.35
 20
-107.0625
 30
0.0
 11
213.8
 21
-107.0625
 31
0.0
  0
ARC
  5
7B4
330
1D
100
AcDbEntity
  8
BLACK
100
AcDbCircle
 10
224.35
 20
-95.0375
 30
0.0
 40
2.075
100
AcDbArc
 50
0.0
 51
90.0
  0
ARC
  5
7B5
330
1D
100
AcDbEntity
  8
BLACK
100
AcDbCircle
 10
213.800004
 20
-95.037504
 30
0.0
 40
2.075004000003855
100
AcDbArc
 50
90.00013806
 51
179.99988955
  0
ARC
  5
7B6
330
1D
100
AcDbEntity
  8
BLACK
100
AcDbCircle
 10
213.800002
 20
-104.987498
 30
0.0
 40
2.075002000000964
100
AcDbArc
 50
180.00008284
 51
269.99994478
  0
LINE
  5
7B7
330
1D
100
AcDbEntity
  8
BLACK
  6
Continuous
100
AcDbLine
 10
224.35
 20
-92.96249999999999
 30
0.0
 11
213.799999
 21
-92.96249999999999
 31
0.0
  0
LINE
  5
7B8
330
1D
100
AcDbEntity
  8
BLACK
  6
Continuous
100
AcDbLine
 10
211.725
 20
-95.0375
 30
0.0
 11
211.725
 21
-104.987501
 31
0.0
  0
LINE
  5
7B9
330
1D
100
AcDbEntity
  8
BLACK
  6
Continuous
100
AcDbLine
 10
226.425
 20
-95.0375
 30
0.0
 11
226.425
 21
-104.9875
 31
0.0
  0
ARC
  5
7BA
330
1D
100
AcDbEntity
  8
BLACK
100
AcDbCircle
 10
224.35
 20
-104.9875
 30
0.0
 40
2.075
100
AcDbArc
 50
270.0
 51
0.0
  0
LINE
  5
7BB
330
1D
100
AcDbEntity
  8
BLACK
  6
Continuous
100
AcDbLine
 10
200.5375
 20
-107.0625
 30
0.0
 11
189.9875
 21
-107.0625
 31
0.0
  0
ARC
  5
7BC
330
1D
100
AcDbEntity
  8
BLACK
100
AcDbCircle
 10
200.5375
 20
-95.0375
 30
0.0
 40
2.075
100
AcDbArc
 50
0.0
 51
90.0
  0
ARC
  5
7BD
330
1D
100
AcDbEntity
  8
BLACK
100
AcDbCircle
 10
189.987504
 20
-95.037504
 30
0.0
 40
2.075004000003855
100
AcDbArc
 50
90.00013806
 51
179.99988955
  0
ARC
  5
7BE
330
1D
100
AcDbEntity
  8
BLACK
100
AcDbCircle
 10
189.987502
 20
-104.987498
 30
0.0
 40
2.075002000000964
100
AcDbArc
 50
180.00008284
 51
269.99994478
  0
LINE
  5
7BF
330
1D
100
AcDbEntity
  8
BLACK
  6
Continuous
100
AcDbLine
 10
200.5375
 20
-92.96249999999999
 30
0.0
 11
189.987499
 21
-92.96249999999999
 31
0.0
  0
LINE
  5
7C0
330
1D
100
AcDbEntity
  8
BLACK
  6
Continuous
100
AcDbLine
 10
187.9125
 20
-95.0375
 30
0.0
 11
187.9125
 21
-104.987501
 31
0.0
  0
LINE
  5
7C1
330
1D
100
AcDbEntity
  8
BLACK
  6
Continuous
100
AcDbLine
 10
202.6125
 20
-95.0375
 30
0.0
 11
202.6125
 21
-104.9875
 31
0.0
  0
ARC
  5
7C2
330
1D
100
AcDbEntity
  8
BLACK
100
AcDbCircle
 10
200.5375
 20
-104.9875
 30
0.0
 40
2.075
100
AcDbArc
 50
270.0
 51
0.0
  0
LINE
  5
7C3
330
1D
100
AcDbEntity
  8
BLACK
  6
Continuous
100
AcDbLine
 10
57.66249999999999
 20
-107.0625
 30
0.0
 11
47.1125
 21
-107.0625
 31
0.0
  0
ARC
  5
7C4
330
1D
100
AcDbEntity
  8
BLACK
100
AcDbCircle
 10
57.66249999999999
 20
-95.0375
 30
0.0
 40
2.075
100
AcDbArc
 50
0.0
 51
90.0
  0
ARC
  5
7C5
330
1D
100
AcDbEntity
  8
BLACK
100
AcDbCircle
 10
47.112504
 20
-95.037504
 30
0.0
 40
2.075004000003855
100
AcDbArc
 50
90.00013806
 51
179.99988955
  0
ARC
  5
7C6
330
1D
100
AcDbEntity
  8
BLACK
100
AcDbCircle
 10
47.112502
 20
-104.987498
 30
0.0
 40
2.075002000000964
100
AcDbArc
 50
180.00008284
 51
269.99994478
  0
LINE
  5
7C7
330
1D
100
AcDbEntity
  8
BLACK
  6
Continuous
100
AcDbLine
 10
57.66249999999999
 20
-92.96249999999999
 30
0.0
 11
47.112499
 21
-92.96249999999999
 31
0.0
  0
LINE
  5
7C8
330
1D
100
AcDbEntity
  8
BLACK
  6
Continuous
100
AcDbLine
 10
45.0375
 20
-95.0375
 30
0.0
 11
45.0375
 21
-104.987501
 31
0.0
  0
LINE
  5
7C9
330
1D
100
AcDbEntity
  8
BLACK
  6
Continuous
100
AcDbLine
 10
59.7375
 20
-95.0375
 30
0.0
 11
59.7375
 21
-104.9875
 31
0.0
  0
ARC
  5
7CA
330
1D
100
AcDbEntity
  8
BLACK
100
AcDbCircle
 10
57.66249999999999
 20
-104.9875
 30
0.0
 40
2.075
100
AcDbArc
 50
270.0
 51
0.0
  0
LINE
  5
7CB
330
1D
100
AcDbEntity
  8
BLACK
  6
Continuous
100
AcDbLine
 10
33.85
 20
-107.0625
 30
0.0
 11
23.3
 21
-107.0625
 31
0.0
  0
ARC
  5
7CC
330
1D
100
AcDbEntity
  8
BLACK
100
AcDbCircle
 10
33.85
 20
-95.0375
 30
0.0
 40
2.075
100
AcDbArc
 50
0.0
 51
90.0
  0
ARC
  5
7CD
330
1D
100
AcDbEntity
  8
BLACK
100
AcDbCircle
 10
23.300004
 20
-95.037504
 30
0.0
 40
2.075004000003855
100
AcDbArc
 50
90.00013806
 51
179.99988955
  0
ARC
  5
7CE
330
1D
100
AcDbEntity
  8
BLACK
100
AcDbCircle
 10
23.300002
 20
-104.987498
 30
0.0
 40
2.075002000000964
100
AcDbArc
 50
180.00008284
 51
269.99994478
  0
LINE
  5
7CF
330
1D
100
AcDbEntity
  8
BLACK
  6
Continuous
100
AcDbLine
 10
33.85
 20
-92.96249999999999
 30
0.0
 11
23.299999
 21
-92.96249999999999
 31
0.0
  0
LINE
  5
7D0
330
1D
100
AcDbEntity
  8
BLACK
  6
Continuous
100
AcDbLine
 10
21.225
 20
-95.0375
 30
0.0
 11
21.225
 21
-104.987501
 31
0.0
  0
LINE
  5
7D1
330
1D
100
AcDbEntity
  8
BLACK
  6
Continuous
100
AcDbLine
 10
35.925
 20
-95.0375
 30
0.0
 11
35.925
 21
-104.9875
 31
0.0
  0
ARC
  5
7D2
330
1D
100
AcDbEntity
  8
BLACK
100
AcDbCircle
 10
33.85
 20
-104.9875
 30
0.0
 40
2.075
100
AcDbArc
 50
270.0
 51
0.0
  0
ARC
  5
7D9
330
1D
100
AcDbEntity
  8
BLACK
100
AcDbCircle
 10
75.83706699999999
 20
-95.662092
 30
0.0
 40
1.425082004092396
100
AcDbArc
 50
89.51974267000003
 51
180.00434217
  0
ARC
  5
7DB
330
1D
100
AcDbEntity
  8
BLACK
100
AcDbCircle
 10
76.702624
 20
-93.30867099999999
 30
0.0
 40
0.9283764359148717
100
AcDbArc
 50
269.99697591
 51
337.97782841
  0
LINE
  5
7DD
330
1D
100
AcDbEntity
  8
BLACK
  6
Continuous
100
AcDbLine
 10
75.849012
 20
-94.23706
 30
0.0
 11
76.702575
 21
-94.23706
 31
0.0
  0
ARC
  5
7DE
330
1D
100
AcDbEntity
  8
BLACK
100
AcDbCircle
 10
79.61196199999999
 20
-105.149415
 30
0.0
 40
1.874995003405076
100
AcDbArc
 50
200.54692151
 51
270.00345303
  0
ARC
  5
7DF
330
1D
100
AcDbEntity
  8
BLACK
100
AcDbCircle
 10
78.55977399999999
 20
-94.059851
 30
0.0
 40
1.074940192811674
100
AcDbArc
 50
89.99461656
 51
157.97750247
  0
ARC
  5
7E0
330
1D
100
AcDbEntity
  8
BLACK
100
AcDbCircle
 10
104.73383
 20
-106.41288
 30
0.0
 40
1.724936068561673
100
AcDbArc
 50
90.00016608000001
 51
159.45408213
  0
LINE
  5
7E1
330
1D
100
AcDbEntity
  8
BLACK
  6
Continuous
100
AcDbLine
 10
105.125958
 20
-104.68794
 30
0.0
 11
104.733825
 21
-104.68794
 31
0.0
  0
LINE
  5
7E2
330
1D
100
AcDbEntity
  8
BLACK
  6
Continuous
100
AcDbLine
 10
78.55987499999999
 20
-92.9849
 30
0.0
 11
102.415075
 21
-92.9849
 31
0.0
  0
LINE
  5
7E3
330
1D
100
AcDbEntity
  8
BLACK
  6
Continuous
100
AcDbLine
 10
101.362925
 20
-107.02441
 30
0.0
 11
79.61207499999999
 21
-107.02441
 31
0.0
  0
LINE
  5
7E4
330
1D
100
AcDbEntity
  8
BLACK
  6
Continuous
100
AcDbLine
 10
76.702575
 20
-94.237048
 30
0.0
 11
76.702575
 21
-94.23706
 31
0.0
  0
ARC
  5
7E5
330
1D
100
AcDbEntity
  8
BLACK
100
AcDbCircle
 10
76.241051
 20
-106.412848
 30
0.0
 40
1.724908000166965
100
AcDbArc
 50
20.54547839
 51
89.9992028
  0
ARC
  5
7E6
330
1D
100
AcDbEntity
  8
BLACK
100
AcDbCircle
 10
101.36284
 20
-105.14933
 30
0.0
 40
1.875082291400833
100
AcDbArc
 50
270.0025973
 51
339.45098232
  0
LINE
  5
7E7
330
1D
100
AcDbEntity
  8
BLACK
  6
Continuous
100
AcDbLine
 10
106.562865
 20
-95.66206
 30
0.0
 11
106.562865
 21
-103.2629
 31
0.0
  0
LINE
  5
7E8
330
1D
100
AcDbEntity
  8
BLACK
  6
Continuous
100
AcDbLine
 10
104.272275
 20
-94.23706
 30
0.0
 11
105.137875
 21
-94.23706
 31
0.0
  0
ARC
  5
7E9
330
1D
100
AcDbEntity
  8
BLACK
100
AcDbCircle
 10
105.1379
 20
-95.66199999999999
 30
0.0
 40
1.424940000219307
100
AcDbArc
 50
359.99758749
 51
90.00100523000002
  0
LINE
  5
7EA
330
1D
100
AcDbEntity
  8
BLACK
  6
Continuous
100
AcDbLine
 10
78.55987499999999
 20
-92.984911
 30
0.0
 11
78.55987499999999
 21
-92.9849
 31
0.0
  0
LINE
  5
7EB
330
1D
100
AcDbEntity
  8
BLACK
  6
Continuous
100
AcDbLine
 10
74.411985
 20
-103.26294
 30
0.0
 11
74.411985
 21
-95.6622
 31
0.0
  0
ARC
  5
7EC
330
1D
100
AcDbEntity
  8
BLACK
100
AcDbCircle
 10
104.2723
 20
-93.3086
 30
0.0
 40
0.9284600003365787
100
AcDbArc
 50
202.02452102
 51
269.99845724
  0
ARC
  5
7ED
330
1D
100
AcDbEntity
  8
BLACK
100
AcDbCircle
 10
105.13774
 20
-103.26286
 30
0.0
 40
1.425125000561354
100
AcDbArc
 50
269.52631186
 51
359.99839184
  0
ARC
  5
7EE
330
1D
100
AcDbEntity
  8
BLACK
100
AcDbCircle
 10
102.41504
 20
-94.05989
 30
0.0
 40
1.074990000569773
100
AcDbArc
 50
22.02370504
 51
89.99813454
  0
LINE
  5
7EF
330
1D
100
AcDbEntity
  8
BLACK
  6
Continuous
100
AcDbLine
 10
76.241075
 20
-104.68794
 30
0.0
 11
75.836975
 21
-104.68794
 31
0.0
  0
ARC
  5
7F0
330
1D
100
AcDbEntity
  8
BLACK
100
AcDbCircle
 10
75.836986
 20
-103.262939
 30
0.0
 40
1.425001000042456
100
AcDbArc
 50
180.00004021
 51
269.99955772
  0
ARC
  5
7F1
330
1D
100
AcDbEntity
  8
BLACK
100
AcDbCircle
 10
142.512067
 20
-95.662092
 30
0.0
 40
1.425082004092396
100
AcDbArc
 50
89.51974267000003
 51
180.00434217
  0
ARC
  5
7F3
330
1D
100
AcDbEntity
  8
BLACK
100
AcDbCircle
 10
143.377624
 20
-93.30867099999999
 30
0.0
 40
0.9283764359148717
100
AcDbArc
 50
269.99697591
 51
337.97782841
  0
LINE
  5
7F4
330
1D
100
AcDbEntity
  8
BLACK
  6
Continuous
100
AcDbLine
 10
142.524012
 20
-94.23706
 30
0.0
 11
143.377575
 21
-94.23706
 31
0.0
  0
ARC
  5
7F5
330
1D
100
AcDbEntity
  8
BLACK
100
AcDbCircle
 10
146.286962
 20
-105.149415
 30
0.0
 40
1.874995003405076
100
AcDbArc
 50
200.54692151
 51
270.00345303
  0
ARC
  5
7F6
330
1D
100
AcDbEntity
  8
BLACK
100
AcDbCircle
 10
145.234774
 20
-94.059851
 30
0.0
 40
1.074940192811674
100
AcDbArc
 50
89.99461656
 51
157.97750247
  0
ARC
  5
7F7
330
1D
100
AcDbEntity
  8
BLACK
100
AcDbCircle
 10
171.40883
 20
-106.41288
 30
0.0
 40
1.724936068561673
100
AcDbArc
 50
90.00016608000001
 51
159.45408213
  0
LINE
  5
7F8
330
1D
100
AcDbEntity
  8
BLACK
  6
Continuous
100
AcDbLine
 10
171.800958
 20
-104.68794
 30
0.0
 11
171.408825
 21
-104.68794
 31
0.0
  0
LINE
  5
7F9
330
1D
100
AcDbEntity
  8
BLACK
  6
Continuous
100
AcDbLine
 10
145.234875
 20
-92.9849
 30
0.0
 11
169.090075
 21
-92.9849
 31
0.0
  0
LINE
  5
7FA
330
1D
100
AcDbEntity
  8
BLACK
  6
Continuous
100
AcDbLine
 10
168.037925
 20
-107.02441
 30
0.0
 11
146.287075
 21
-107.02441
 31
0.0
  0
LINE
  5
7FB
330
1D
100
AcDbEntity
  8
BLACK
  6
Continuous
100
AcDbLine
 10
143.377575
 20
-94.237048
 30
0.0
 11
143.377575
 21
-94.23706
 31
0.0
  0
ARC
  5
7FC
330
1D
100
AcDbEntity
  8
BLACK
100
AcDbCircle
 10
142.916051
 20
-106.412848
 30
0.0
 40
1.724908000166965
100
AcDbArc
 50
20.54547839
 51
89.9992028
  0
ARC
  5
7FD
330
1D
100
AcDbEntity
  8
BLACK
100
AcDbCircle
 10
168.03784
 20
-105.14933
 30
0.0
 40
1.875082291400833
100
AcDbArc
 50
270.0025973
 51
339.45098232
  0
LINE
  5
7FE
330
1D
100
AcDbEntity
  8
BLACK
  6
Continuous
100
AcDbLine
 10
173.237865
 20
-95.66206
 30
0.0
 11
173.237865
 21
-103.2629
 31
0.0
  0
LINE
  5
7FF
330
1D
100
AcDbEntity
  8
BLACK
  6
Continuous
100
AcDbLine
 10
170.947275
 20
-94.23706
 30
0.0
 11
171.812875
 21
-94.23706
 31
0.0
  0
ARC
  5
800
330
1D
100
AcDbEntity
  8
BLACK
100
AcDbCircle
 10
171.8129
 20
-95.66199999999999
 30
0.0
 40
1.424940000219307
100
AcDbArc
 50
359.99758749
 51
90.00100523000002
  0
LINE
  5
801
330
1D
100
AcDbEntity
  8
BLACK
  6
Continuous
100
AcDbLine
 10
145.234875
 20
-92.984911
 30
0.0
 11
145.234875
 21
-92.9849
 31
0.0
  0
LINE
  5
802
330
1D
100
AcDbEntity
  8
BLACK
  6
Continuous
100
AcDbLine
 10
141.086985
 20
-103.26294
 30
0.0
 11
141.086985
 21
-95.6622
 31
0.0
  0
ARC
  5
803
330
1D
100
AcDbEntity
  8
BLACK
100
AcDbCircle
 10
170.9473
 20
-93.3086
 30
0.0
 40
0.9284600003365787
100
AcDbArc
 50
202.02452102
 51
269.99845724
  0
ARC
  5
804
330
1D
100
AcDbEntity
  8
BLACK
100
AcDbCircle
 10
171.81274
 20
-103.26286
 30
0.0
 40
1.425125000561354
100
AcDbArc
 50
269.52631186
 51
359.99839184
  0
ARC
  5
805
330
1D
100
AcDbEntity
  8
BLACK
100
AcDbCircle
 10
169.09004
 20
-94.05989
 30
0.0
 40
1.074990000569773
100
AcDbArc
 50
22.02370504
 51
89.99813454
  0
LINE
  5
806
330
1D
100
AcDbEntity
  8
BLACK
  6
Continuous
100
AcDbLine
 10
142.916075
 20
-104.68794
 30
0.0
 11
142.511975
 21
-104.68794
 31
0.0
  0
ARC
  5
807
330
1D
100
AcDbEntity
  8
BLACK
100
AcDbCircle
 10
142.511986
 20
-103.262939
 30
0.0
 40
1.425001000042456
100
AcDbArc
 50
180.00004021
 51
269.99955772
  0
CIRCLE
  5
808
330
1D
100
AcDbEntity
  8
BLACK
100
AcDbCircle
 10
42.862499
 20
-61.912499
 30
0.0
 40
1.325
  0
CIRCLE
  5
809
330
1D
100
AcDbEntity
  8
BLACK
100
AcDbCircle
 10
42.862499
 20
-61.912499
 30
0.0
 40
1.775
  0
CIRCLE
  5
80A
330
1D
100
AcDbEntity
  8
BLACK
100
AcDbCircle
 10
90.487499
 20
-80.962499
 30
0.0
 40
1.325
  0
CIRCLE
  5
80B
330
1D
100
AcDbEntity
  8
BLACK
100
AcDbCircle
 10
90.487499
 20
-80.962499
 30
0.0
 40
1.775
  0
CIRCLE
  5
80C
330
1D
100
AcDbEntity
  8
BLACK
100
AcDbCircle
 10
-7.143751
 20
-61.912499
 30
0.0
 40
1.325
  0
CIRCLE
  5
80D
330
1D
100
AcDbEntity
  8
BLACK
100
AcDbCircle
 10
-7.143751
 20
-61.912499
 30
0.0
 40
1.775
  0
CIRCLE
  5
80E
330
1D
100
AcDbEntity
  8
BLACK
100
AcDbCircle
 10
9.524999
 20
-23.812499
 30
0.0
 40
1.325
  0
CIRCLE
  5
80F
330
1D
100
AcDbEntity
  8
BLACK
100
AcDbCircle
 10
9.524999
 20
-23.812499
 30
0.0
 40
1.775
  0
CIRCLE
  5
810
330
1D
100
AcDbEntity
  8
BLACK
100
AcDbCircle
 10
185.737499
 20
-80.962499
 30
0.0
 40
1.325
  0
CIRCLE
  5
811
330
1D
100
AcDbEntity
  8
BLACK
100
AcDbCircle
 10
185.737499
 20
-80.962499
 30
0.0
 40
1.775
  0
CIRCLE
  5
812
330
1D
100
AcDbEntity
  8
BLACK
100
AcDbCircle
 10
171.449999
 20
-42.862499
 30
0.0
 40
1.325
  0
CIRCLE
  5
813
330
1D
100
AcDbEntity
  8
BLACK
100
AcDbCircle
 10
171.449999
 20
-42.862499
 30
0.0
 40
1.775
  0
CIRCLE
  5
814
330
1D
100
AcDbEntity
  8
BLACK
100
AcDbCircle
 10
142.874999
 20
-23.812499
 30
0.0
 40
1.325
  0
CIRCLE
  5
815
330
1D
100
AcDbEntity
  8
BLACK
100
AcDbCircle
 10
142.874999
 20
-23.812499
 30
0.0
 40
1.775
  0
CIRCLE
  5
816
330
1D
100
AcDbEntity
  8
BLACK
100
AcDbCircle
 10
66.674999
 20
-23.812499
 30
0.0
 40
1.325
  0
CIRCLE
  5
817
330
1D
100
AcDbEntity
  8
BLACK
100
AcDbCircle
 10
66.674999
 20
-23.812499
 30
0.0
 40
1.775
  0
CIRCLE
  5
818
330
1D
100
AcDbEntity
  8
BLACK
100
AcDbCircle
 10
95.249999
 20
-42.862499
 30
0.0
 40
1.325
  0
CIRCLE
  5
819
330
1D
100
AcDbEntity
  8
BLACK
100
AcDbCircle
 10
95.249999
 20
-42.862499
 30
0.0
 40
1.775
  0
CIRCLE
  5
81A
330
1D
100
AcDbEntity
  8
BLACK
100
AcDbCircle
 10
138.112499
 20
-61.912499
 30
0.0
 40
1.325
  0
CIRCLE
  5
81B
330
1D
100
AcDbEntity
  8
BLACK
100
AcDbCircle
 10
138.112499
 20
-61.912499
 30
0.0
 40
1.775
  0
CIRCLE
  5
81C
330
1D
100
AcDbEntity
  8
BLACK
100
AcDbCircle
 10
219.084199
 20
-23.462499
 30
0.0
 40
1.325
  0
CIRCLE
  5
81D
330
1D
100
AcDbEntity
  8
BLACK
100
AcDbCircle
 10
219.084199
 20
-23.462499
 30
0.0
 40
1.775
  0
CIRCLE
  5
81E
330
1D
100
AcDbEntity
  8
BLACK
100
AcDbCircle
 10
33.337499
 20
-80.962499
 30
0.0
 40
1.325
  0
CIRCLE
  5
81F
330
1D
100
AcDbEntity
  8
BLACK
100
AcDbCircle
 10
33.337499
 20
-80.962499
 30
0.0
 40
1.775
  0
CIRCLE
  5
820
330
1D
100
AcDbEntity
  8
BLACK
100
AcDbCircle
 10
328.612499
 20
-80.962499
 30
0.0
 40
1.325
  0
CIRCLE
  5
821
330
1D
100
AcDbEntity
  8
BLACK
100
AcDbCircle
 10
328.612499
 20
-80.962499
 30
0.0
 40
1.775
  0
CIRCLE
  5
822
330
1D
100
AcDbEntity
  8
BLACK
100
AcDbCircle
 10
195.262499
 20
0.000001
 30
0.0
 40
1.325
  0
CIRCLE
  5
823
330
1D
100
AcDbEntity
  8
BLACK
100
AcDbCircle
 10
195.262499
 20
0.000001
 30
0.0
 40
1.775
  0
CIRCLE
  5
824
330
1D
100
AcDbEntity
  8
BLACK
100
AcDbCircle
 10
300.037499
 20
-23.812499
 30
0.0
 40
1.325
  0
CIRCLE
  5
825
330
1D
100
AcDbEntity
  8
BLACK
100
AcDbCircle
 10
300.037499
 20
-23.812499
 30
0.0
 40
1.775
  0
CIRCLE
  5
826
330
1D
100
AcDbEntity
  8
BLACK
100
AcDbCircle
 10
319.087499
 20
-100.012499
 30
0.0
 40
1.325
  0
CIRCLE
  5
827
330
1D
100
AcDbEntity
  8
BLACK
100
AcDbCircle
 10
319.087499
 20
-100.012499
 30
0.0
 40
1.775
  0
CIRCLE
  5
828
330
1D
100
AcDbEntity
  8
BLACK
100
AcDbCircle
 10
319.087499
 20
0.000001
 30
0.0
 40
1.325
  0
CIRCLE
  5
829
330
1D
100
AcDbEntity
  8
BLACK
100
AcDbCircle
 10
319.087499
 20
0.000001
 30
0.0
 40
1.775
  0
CIRCLE
  5
82A
330
1D
100
AcDbEntity
  8
BLACK
100
AcDbCircle
 10
278.606249
 20
0.000001
 30
0.0
 40
1.325
  0
CIRCLE
  5
82B
330
1D
100
AcDbEntity
  8
BLACK
100
AcDbCircle
 10
278.606249
 20
0.000001
 30
0.0
 40
1.775
  0
CIRCLE
  5
82C
330
1D
100
AcDbEntity
  8
BLACK
100
AcDbCircle
 10
319.087499
 20
-42.862499
 30
0.0
 40
1.325
  0
CIRCLE
  5
82D
330
1D
100
AcDbEntity
  8
BLACK
100
AcDbCircle
 10
319.087499
 20
-42.862499
 30
0.0
 40
1.775
  0
CIRCLE
  5
82E
330
1D
100
AcDbEntity
  8
BLACK
100
AcDbCircle
 10
303.609374
 20
-58.340624
 30
0.0
 40
1.325
  0
CIRCLE
  5
82F
330
1D
100
AcDbEntity
  8
BLACK
100
AcDbCircle
 10
303.609374
 20
-58.340624
 30
0.0
 40
1.775
  0
CIRCLE
  5
830
330
1D
100
AcDbEntity
  8
BLACK
100
AcDbCircle
 10
11.906249
 20
0.000001
 30
0.0
 40
1.325
  0
CIRCLE
  5
831
330
1D
100
AcDbEntity
  8
BLACK
100
AcDbCircle
 10
11.906249
 20
0.000001
 30
0.0
 40
1.775
  0
CIRCLE
  5
832
330
1D
100
AcDbEntity
  8
BLACK
100
AcDbCircle
 10
114.299999
 20
0.000001
 30
0.0
 40
1.325
  0
CIRCLE
  5
833
330
1D
100
AcDbEntity
  8
BLACK
100
AcDbCircle
 10
114.299999
 20
0.000001
 30
0.0
 40
1.775
  0
CIRCLE
  5
834
330
1D
100
AcDbEntity
  8
BLACK
100
AcDbCircle
 10
277.415624
 20
-100.012499
 30
0.0
 40
1.325
  0
CIRCLE
  5
835
330
1D
100
AcDbEntity
  8
BLACK
100
AcDbCircle
 10
277.415624
 20
-100.012499
 30
0.0
 40
1.775
  0
CIRCLE
  5
836
330
1D
100
AcDbEntity
  8
BLACK
100
AcDbCircle
 10
16.668749
 20
-42.862499
 30
0.0
 40
1.325
  0
CIRCLE
  5
837
330
1D
100
AcDbEntity
  8
BLACK
100
AcDbCircle
 10
16.668749
 20
-42.862499
 30
0.0
 40
1.775
  0
CIRCLE
  5
838
330
1D
100
AcDbEntity
  8
BLACK
100
AcDbCircle
 10
228.599999
 20
-42.862499
 30
0.0
 40
1.325
  0
CIRCLE
  5
839
330
1D
100
AcDbEntity
  8
BLACK
100
AcDbCircle
 10
228.599999
 20
-42.862499
 30
0.0
 40
1.775
  0
CIRCLE
  5
83A
330
1D
100
AcDbEntity
  8
BLACK
100
AcDbCircle
 10
276.224999
 20
-23.8125
 30
0.0
 40
1.325
  0
CIRCLE
  5
83B
330
1D
100
AcDbEntity
  8
BLACK
100
AcDbCircle
 10
276.224999
 20
-23.8125
 30
0.0
 40
1.775
  0
CIRCLE
  5
83C
330
1D
100
AcDbEntity
  8
BLACK
100
AcDbCircle
 10
-4.493749999999999
 20
-88.1625
 30
0.0
 40
1.325
  0
CIRCLE
  5
83D
330
1D
100
AcDbEntity
  8
BLACK
100
AcDbCircle
 10
-4.493749999999999
 20
-88.1625
 30
0.0
 40
1.775
  0
CIRCLE
  5
83E
330
1D
100
AcDbEntity
  8
BLACK
100
AcDbCircle
 10
233.63125
 20
-88.1625
 30
0.0
 40
1.325
  0
CIRCLE
  5
83F
330
1D
100
AcDbEntity
  8
BLACK
100
AcDbCircle
 10
233.63125
 20
-88.1625
 30
0.0
 40
1.775
  0
CIRCLE
  5
840
330
1D
100
AcDbEntity
  8
BLACK
100
AcDbCircle
 10
266.43125
 20
-88.1625
 30
0.0
 40
1.325
  0
CIRCLE
  5
841
330
1D
100
AcDbEntity
  8
BLACK
100
AcDbCircle
 10
266.43125
 20
-88.1625
 30
0.0
 40
1.775
  0
CIRCLE
  5
842
330
1D
100
AcDbEntity
  8
BLACK
100
AcDbCircle
 10
233.3625
 20
-61.91249999999999
 30
0.0
 40
1.325
  0
CIRCLE
  5
843
330
1D
100
AcDbEntity
  8
BLACK
100
AcDbCircle
 10
233.3625
 20
-61.91249999999999
 30
0.0
 40
1.775
  0
CIRCLE
  5
844
330
1D
100
AcDbEntity
  8
BLACK
100
AcDbCircle
 10
271.51875
 20
-68.7875
 30
0.0
 40
1.325
  0
CIRCLE
  5
845
330
1D
100
AcDbEntity
  8
BLACK
100
AcDbCircle
 10
271.51875
 20
-68.7875
 30
0.0
 40
1.775
  0
CIRCLE
  5
846
330
1D
100
AcDbEntity
  8
BLACK
100
AcDbCircle
 10
15.478124
 20
-100.0125
 30
0.0
 40
1.325
  0
CIRCLE
  5
847
330
1D
100
AcDbEntity
  8
BLACK
100
AcDbCircle
 10
15.478124
 20
-100.0125
 30
0.0
 40
1.775
  0
CIRCLE
  5
848
330
1D
100
AcDbEntity
  8
BLACK
100
AcDbCircle
 10
39.290624
 20
-100.0125
 30
0.0
 40
1.325
  0
CIRCLE
  5
849
330
1D
100
AcDbEntity
  8
BLACK
100
AcDbCircle
 10
39.290624
 20
-100.0125
 30
0.0
 40
1.775
  0
CIRCLE
  5
84A
330
1D
100
AcDbEntity
  8
BLACK
100
AcDbCircle
 10
204.787499
 20
-100.0125
 30
0.0
 40
1.325
  0
CIRCLE
  5
84B
330
1D
100
AcDbEntity
  8
BLACK
100
AcDbCircle
 10
204.787499
 20
-100.0125
 30
0.0
 40
1.775
  0
CIRCLE
  5
84C
330
1D
100
AcDbEntity
  8
BLACK
100
AcDbCircle
 10
228.599999
 20
-100.0125
 30
0.0
 40
1.325
  0
CIRCLE
  5
84D
330
1D
100
AcDbEntity
  8
BLACK
100
AcDbCircle
 10
228.599999
 20
-100.0125
 30
0.0
 40
1.775
  0
CIRCLE
  5
84E
330
1D
100
AcDbEntity
  8
BLACK
100
AcDbCircle
 10
251.221874
 20
-100.0125
 30
0.0
 40
1.325
  0
CIRCLE
  5
84F
330
1D
100
AcDbEntity
  8
BLACK
100
AcDbCircle
 10
251.221874
 20
-100.0125
 30
0.0
 40
1.775
  0
CIRCLE
  5
850
330
1D
100
AcDbEntity
  8
BLACK
100
AcDbCircle
 10
61.912499
 20
-100.0125
 30
0.0
 40
1.325
  0
CIRCLE
  5
851
330
1D
100
AcDbEntity
  8
BLACK
100
AcDbCircle
 10
61.912499
 20
-100.0125
 30
0.0
 40
1.775
  0
CIRCLE
  5
852
330
1D
100
AcDbEntity
  8
BLACK
100
AcDbCircle
 10
74.08749999999999
 20
-107.2125
 30
0.0
 40
1.325
  0
CIRCLE
  5
853
330
1D
100
AcDbEntity
  8
BLACK
100
AcDbCircle
 10
74.08749999999999
 20
-107.2125
 30
0.0
 40
1.775
  0
CIRCLE
  5
854
330
1D
100
AcDbEntity
  8
BLACK
100
AcDbCircle
 10
106.8875
 20
-107.2125
 30
0.0
 40
1.325
  0
CIRCLE
  5
855
330
1D
100
AcDbEntity
  8
BLACK
100
AcDbCircle
 10
106.8875
 20
-107.2125
 30
0.0
 40
1.775
  0
CIRCLE
  5
856
330
1D
100
AcDbEntity
  8
BLACK
100
AcDbCircle
 10
140.7625
 20
-107.2125
 30
0.0
 40
1.325
  0
CIRCLE
  5
857
330
1D
100
AcDbEntity
  8
BLACK
100
AcDbCircle
 10
140.7625
 20
-107.2125
 30
0.0
 40
1.775
  0
ENDSEC
  0
SECTION
  2
OBJECTS
  0
DICTIONARY
  5
C
330
0
100
AcDbDictionary
281
     1
  3
ACAD_COLOR
350
6FC
  3
ACAD_DETAILVIEWSTYLE
350
6FA
  3
ACAD_GROUP
350
D
  3
ACAD_LAYOUT
350
1A
  3
ACAD_MATERIAL
350
6EA
  3
ACAD_MLEADERSTYLE
350
6F0
  3
ACAD_MLINESTYLE
350
17
  3
ACAD_PLOTSETTINGS
350
19
  3
ACAD_PLOTSTYLENAME
350
E
  3
ACAD_SCALELIST
350
6BB
  3
ACAD_SECTIONVIEWSTYLE
350
6FB
  3
ACAD_TABLESTYLE
350
6EE
  3
ACAD_VISUALSTYLE
350
6D1
  3
AcDbVariableDictionary
350
6F2
  3
ACDB_RECOMPOSE_DATA
350
85A
  3
EZDXF_META
350
701
  0
DICTIONARY
  5
6FC
330
C
100
AcDbDictionary
281
     1
  0
DICTIONARY
  5
6FA
102
{ACAD_REACTORS
330
C
102
}
330
C
100
AcDbDictionary
281
     1
  0
DICTIONARY
  5
D
102
{ACAD_REACTORS
330
C
102
}
330
C
100
AcDbDictionary
281
     1
  0
DICTIONARY
  5
1A
102
{ACAD_REACTORS
330
C
102
}
330
C
100
AcDbDictionary
281
     1
  3
Layout1
350
1C
  3
Model
350
1E
  0
DICTIONARY
  5
6EA
102
{ACAD_REACTORS
330
C
102
}
330
C
100
AcDbDictionary
281
     1
  3
ByBlock
350
6EC
  3
ByLayer
350
6EB
  3
Global
350
6ED
  0
DICTIONARY
  5
6F0
102
{ACAD_REACTORS
330
C
102
}
330
C
100
AcDbDictionary
281
     1
  3
Standard
350
6F1
  0
DICTIONARY
  5
17
102
{ACAD_REACTORS
330
C
102
}
330
C
100
AcDbDictionary
281
     1
  3
Standard
350
18
  0
DICTIONARY
  5
19
102
{ACAD_REACTORS
330
C
102
}
330
C
100
AcDbDictionary
281
     1
  0
ACDBDICTIONARYWDFLT
  5
E
102
{ACAD_REACTORS
330
C
102
}
330
C
100
AcDbDictionary
281
     1
  3
Normal
350
F
100
AcDbDictionaryWithDefault
340
F
  0
DICTIONARY
  5
6BB
102
{ACAD_REACTORS
330
C
102
}
330
C
100
AcDbDictionary
281
     1
  3
A0
350
6BC
  3
A1
350
6BD
  3
A2
350
6BE
  3
A3
350
6BF
  3
A4
350
6C0
  3
A5
350
6C1
  3
A6
350
6C2
  3
A7
350
6C3
  3
A8
350
6C4
  3
A9
350
6C5
  3
B0
350
6C6
  3
B1
350
6C7
  3
B2
350
6C8
  3
B3
350
6C9
  3
B4
350
6CA
  3
B5
350
6CB
  3
B6
350
6CC
  0
DICTIONARY
  5
6FB
102
{ACAD_REACTORS
330
C
102
}
330
C
100
AcDbDictionary
281
     1
  0
DICTIONARY
  5
6EE
102
{ACAD_REACTORS
330
C
102
}
330
C
100
AcDbDictionary
281
     1
  3
Standard
350
6EF
  0
DICTIONARY
  5
6D1
102
{ACAD_REACTORS
330
C
102
}
330
C
100
AcDbDictionary
281
     1
  3
2dWireframe
350
6D6
  3
Basic
350
6D9
  3
Brighten
350
6DD
  3
ColorChange
350
6E1
  3
Conceptual
350
6DB
  3
Dim
350
6DC
  3
EdgeColorOff
350
6E4
  3
Facepattern
350
6E0
  3
Flat
350
6D2
  3
FlatWithEdges
350
6D3
  3
Gouraud
350
6D4
  3
GouraudWithEdges
350
6D5
  3
Hidden
350
6D8
  3
JitterOff
350
6E2
  3
Linepattern
350
6DF
  3
OverhangOff
350
6E3
  3
Realistic
350
6DA
  3
Shaded
350
6E9
  3
Shaded with edges
350
6E8
  3
Shades of Gray
350
6E5
  3
Sketchy
350
6E6
  3
Thicken
350
6DE
  3
Wireframe
350
6D7
  3
X-Ray
350
6E7
  0
DICTIONARY
  5
6F2
102
{ACAD_REACTORS
330
C
102
}
330
C
100
AcDbDictionary
281
     1
  3
CANNOSCALE
350
6F3
  3
CMLEADERSTYLE
350
6F8
  3
CTABLESTYLE
350
6F7
  3
MSLTSCALE
350
6F9
  0
XRECORD
  5
85A
102
{ACAD_REACTORS
330
C
102
}
330
C
100
AcDbXrecord
280
     1
 90
        1
330
6EF
  0
DICTIONARY
  5
701
330
C
100
AcDbDictionary
280
     1
281
     1
  3
WRITTEN_BY_EZDXF
360
702
  0
LAYOUT
  5
1C
102
{ACAD_REACTORS
330
1A
102
}
330
1A
100
AcDbPlotSettings
  1

  2
none_device
  4

  6

 40
0.0
 41
0.0
 42
0.0
 43
0.0
 44
0.0
 45
0.0
 46
0.0
 47
0.0
 48
0.0
 49
0.0
140
0.0
141
0.0
142
1.0
143
1.0
 70
   688
 72
     0
 73
     0
 74
     5
  7

 75
    16
 76
     0
 77
     2
 78
   300
147
1.0
148
0.0
149
0.0
100
AcDbLayout
  1
Layout1
 70
     1
 71
     1
 10
0.0
 20
0.0
 11
12.0
 21
9.0
 12
0.0
 22
0.0
 32
0.0
 14
1.000000000000000E+20
 24
1.000000000000000E+20
 34
1.000000000000000E+20
 15
-1.000000000000000E+20
 25
-1.000000000000000E+20
 35
-1.000000000000000E+20
146
0.0
 13
0.0
 23
0.0
 33
0.0
 16
1.0
 26
0.0
 36
0.0
 17
0.0
 27
1.0
 37
0.0
 76
     0
330
1B
  0
LAYOUT
  5
1E
102
{ACAD_REACTORS
330
1A
102
}
330
1A
100
AcDbPlotSettings
  1

  2
none_device
  4
Letter_(8.50_x_11.00_Inches)
  6

 40
6.35
 41
6.35
 42
6.35000508
 43
6.35000508
 44
215.9
 45
279.4
 46
0.0
 47
0.0
 48
0.0
 49
0.0
140
0.0
141
0.0
142
1.0
143
1.0
 70
  1712
 72
     0
 73
     0
 74
     0
  7

 75
     0
 76
     0
 77
     2
 78
   300
147
1.0
148
0.0
149
0.0
100
AcDbLayout
  1
Model
 70
     1
 71
     0
 10
0.0
 20
0.0
 11
12.0
 21
9.0
 12
0.0
 22
0.0
 32
0.0
 14
1.000000000000000E+20
 24
1.000000000000000E+20
 34
1.000000000000000E+20
 15
-1.000000000000000E+20
 25
-1.000000000000000E+20
 35
-1.000000000000000E+20
146
0.0
 13
0.0
 23
0.0
 33
0.0
 16
1.0
 26
0.0
 36
0.0
 17
0.0
 27
1.0
 37
0.0
 76
     0
330
1D
331
442
  0
MATERIAL
  5
6EC
102
{ACAD_REACTORS
330
6EA
102
}
330
6EA
100
AcDbMaterial
  1
ByBlock
 72
     1
273
     1
 94
      127
  0
MATERIAL
  5
6EB
102
{ACAD_REACTORS
330
6EA
102
}
330
6EA
100
AcDbMaterial
  1
ByLayer
 72
     1
273
     1
 94
      127
  0
MATERIAL
  5
6ED
102
{ACAD_REACTORS
330
6EA
102
}
330
6EA
100
AcDbMaterial
  1
Global
 72
     1
273
     1
 94
      127
  0
MLEADERSTYLE
  5
6F1
102
{ACAD_REACTORS
330
6F0
102
}
330
6F0
100
AcDbMLeaderStyle
179
     2
170
     2
171
     1
172
     0
 90
        2
 40
0.0
 41
0.0
173
     1
 91
-1056964608
340
14
 92
       -2
290
     1
 42
2.0
291
     1
 43
8.0
  3
Standard
341
0
 44
4.0
300

342
11
174
     1
178
     6
175
     1
176
     0
 93
-1056964608
 45
4.0
292
     0
297
     0
 46
4.0
343
0
 94
-1056964608
 47
1.0
 49
1.0
140
1.0
293
     1
141
0.0
294
     1
177
     0
142
1.0
295
     0
296
     0
143
3.75
271
     0
272
     9
273
     9
298
     0
  0
MLINESTYLE
  5
18
102
{ACAD_REACTORS
330
17
102
}
330
17
100
AcDbMlineStyle
  2
Standard
 70
     0
  3

 62
   256
 51
90.0
 52
90.0
 71
     2
 49
0.5
 62
   256
  6
BYLAYER
 49
-0.5
 62
   256
  6
BYLAYER
  0
ACDBPLACEHOLDER
  5
F
102
{ACAD_REACTORS
330
E
102
}
330
E
  0
SCALE
  5
6BC
102
{ACAD_REACTORS
330
6BB
102
}
330
6BB
100
AcDbScale
 70
     0
300
1:1
140
1.0
141
1.0
290
     1
  0
SCALE
  5
6BD
102
{ACAD_REACTORS
330
6BB
102
}
330
6BB
100
AcDbScale
 70
     0
300
1:2
140
1.0
141
2.0
290
     0
  0
SCALE
  5
6BE
102
{ACAD_REACTORS
330
6BB
102
}
330
6BB
100
AcDbScale
 70
     0
300
1:4
140
1.0
141
4.0
290
     0
  0
SCALE
  5
6BF
102
{ACAD_REACTORS
330
6BB
102
}
330
6BB
100
AcDbScale
 70
     0
300
1:5
140
1.0
141
5.0
290
     0
  0
SCALE
  5
6C0
102
{ACAD_REACTORS
330
6BB
102
}
330
6BB
100
AcDbScale
 70
     0
300
1:8
140
1.0
141
8.0
290
     0
  0
SCALE
  5
6C1
102
{ACAD_REACTORS
330
6BB
102
}
330
6BB
100
AcDbScale
 70
     0
300
1:10
140
1.0
141
10.0
290
     0
  0
SCALE
  5
6C2
102
{ACAD_REACTORS
330
6BB
102
}
330
6BB
100
AcDbScale
 70
     0
300
1:16
140
1.0
141
16.0
290
     0
  0
SCALE
  5
6C3
102
{ACAD_REACTORS
330
6BB
102
}
330
6BB
100
AcDbScale
 70
     0
300
1:20
140
1.0
141
20.0
290
     0
  0
SCALE
  5
6C4
102
{ACAD_REACTORS
330
6BB
102
}
330
6BB
100
AcDbScale
 70
     0
300
1:30
140
1.0
141
30.0
290
     0
  0
SCALE
  5
6C5
102
{ACAD_REACTORS
330
6BB
102
}
330
6BB
100
AcDbScale
 70
     0
300
1:40
140
1.0
141
40.0
290
     0
  0
SCALE
  5
6C6
102
{ACAD_REACTORS
330
6BB
102
}
330
6BB
100
AcDbScale
 70
     0
300
1:50
140
1.0
141
50.0
290
     0
  0
SCALE
  5
6C7
102
{ACAD_REACTORS
330
6BB
102
}
330
6BB
100
AcDbScale
 70
     0
300
1:100
140
1.0
141
100.0
290
     0
  0
SCALE
  5
6C8
102
{ACAD_REACTORS
330
6BB
102
}
330
6BB
100
AcDbScale
 70
     0
300
2:1
140
2.0
141
1.0
290
     0
  0
SCALE
  5
6C9
102
{ACAD_REACTORS
330
6BB
102
}
330
6BB
100
AcDbScale
 70
     0
300
4:1
140
4.0
141
1.0
290
     0
  0
SCALE
  5
6CA
102
{ACAD_REACTORS
330
6BB
102
}
330
6BB
100
AcDbScale
 70
     0
300
8:1
140
8.0
141
1.0
290
     0
  0
SCALE
  5
6CB
102
{ACAD_REACTORS
330
6BB
102
}
330
6BB
100
AcDbScale
 70
     0
300
10:1
140
10.0
141
1.0
290
     0
  0
SCALE
  5
6CC
102
{ACAD_REACTORS
330
6BB
102
}
330
6BB
100
AcDbScale
 70
     0
300
100:1
140
100.0
141
1.0
290
     0
  0
TABLESTYLE
  5
6EF
102
{ACAD_REACTORS
330
6EE
102
}
102
{ACAD_XDICTIONARY
360
858
102
}
330
6EE
100
AcDbTableStyle
  3
Standard
 70
     0
 71
     0
 40
0.06
 41
0.06
280
     0
281
     0
  7
Standard
140
4.5
170
     2
 62
     0
 63
   257
283
     0
 90
        4
 91
        0
  1

274
    -2
284
     1
 64
     0
275
    -2
285
     1
 65
     0
276
    -2
286
     1
 66
     0
277
    -2
287
     1
 67
     0
278
    -2
288
     1
 68
     0
279
    -2
289
     1
 69
     0
  7
Standard
140
6.0
170
     5
 62
     0
 63
   257
283
     0
 90
        4
 91
        0
  1

274
    -2
284
     1
 64
     0
275
    -2
285
     1
 65
     0
276
    -2
286
     1
 66
     0
277
    -2
287
     1
 67
     0
278
    -2
288
     1
 68
     0
279
    -2
289
     1
 69
     0
  7
Standard
140
4.5
170
     5
 62
     0
 63
   257
283
     0
 90
        4
 91
        0
  1

274
    -2
284
     1
 64
     0
275
    -2
285
     1
 65
     0
276
    -2
286
     1
 66
     0
277
    -2
287
     1
 67
     0
278
    -2
288
     1
 68
     0
279
    -2
289
     1
 69
     0
  0
VISUALSTYLE
  5
6D6
102
{ACAD_REACTORS
330
6D1
102
}
330
6D1
100
AcDbVisualStyle
  2
2dWireframe
 70
     4
177
     3
291
     0
 70
    58
 90
        0
176
     1
 90
        2
176
     1
 90
        0
176
     1
 90
        0
176
     1
 40
0.6
176
     1
 40
30.0
176
     1
 62
     7
420
 16777215
176
     1
 90
        1
176
     1
 90
        4
176
     1
 62
     7
176
     1
 62
   257
176
     1
 90
        1
176
     1
 90
        1
176
     1
 40
1.0
176
     1
 90
        0
176
     1
 62
   257
176
     1
 40
1.0
176
     1
 90
        1
176
     1
 90
        6
176
     1
 90
        2
176
     1
 62
     7
176
     1
 90
        5
176
     1
 90
        0
176
     1
 90
        0
176
     1
290
     0
176
     1
 90
        1
176
     1
 40
0.0
176
     1
 90
        0
176
     1
290
     1
176
     1
290
     1
176
     1
290
     0
176
     1
290
     0
176
     1
290
     0
176
     1
290
     0
176
     1
290
     0
176
     1
290
     0
176
     1
290
     0
176
     1
 90
       50
176
     1
 40
0.0
176
     1
 40
1.0
176
     1
 90
        0
176
     1
 62
    18
420
        0
176
     1
 90
       50
176
     1
 90
        3
176
     1
 62
     5
420
      255
176
     1
290
     0
176
     1
 90
       50
176
     1
 90
       50
176
     1
 90
       50
176
     1
290
     0
176
     1
 90
       50
176
     1
 62
   256
176
     0
 40
1.0
176
     0
 90
        2
176
     1
  1
strokes_ogs.tif
176
     1
290
     0
176
     1
 40
1.0
176
     1
 40
1.0
176
     1
  0
VISUALSTYLE
  5
6D9
102
{ACAD_REACTORS
330
6D1
102
}
330
6D1
100
AcDbVisualStyle
  2
Basic
 70
     7
177
     3
291
     1
 70
    58
 90
        1
176
     1
 90
        0
176
     1
 90
        1
176
     1
 90
        0
176
     1
 40
0.6
176
     1
 40
30.0
176
     1
 62
     7
420
 16777215
176
     1
 90
        0
176
     1
 90
        4
176
     1
 62
     7
176
     1
 62
   257
176
     1
 90
        1
176
     1
 90
        1
176
     1
 40
1.0
176
     1
 90
        8
176
     1
 62
     7
176
     1
 40
1.0
176
     1
 90
        1
176
     1
 90
        6
176
     1
 90
        2
176
     1
 62
     7
176
     1
 90
        5
176
     1
 90
        0
176
     1
 90
        0
176
     1
290
     0
176
     1
 90
        1
176
     1
 40
0.0
176
     1
 90
        0
176
     1
290
     0
176
     1
290
     1
176
     1
290
     1
176
     1
290
     0
176
     1
290
     0
176
     1
290
     0
176
     1
290
     0
176
     1
290
     0
176
     1
290
     0
176
     1
 90
       50
176
     1
 40
0.0
176
     1
 40
1.0
176
     1
 90
        0
176
     1
 62
    18
420
        0
176
     1
 90
       50
176
     1
 90
        3
176
     1
 62
     5
420
      255
176
     1
290
     0
176
     1
 90
       50
176
     1
 90
       50
176
     1
 90
       50
176
     1
290
     0
176
     1
 90
       50
176
     1
 62
   256
176
     0
 40
1.0
176
     0
 90
        2
176
     1
  1
strokes_ogs.tif
176
     1
290
     0
176
     1
 40
1.0
176
     1
 40
1.0
176
     1
  0
VISUALSTYLE
  5
6DD
102
{ACAD_REACTORS
330
6D1
102
}
330
6D1
100
AcDbVisualStyle
  2
Brighten
 70
    12
177
     3
291
     1
 70
    58
 90
        2
176
     1
 90
        2
176
     1
 90
        0
176
     1
 90
        0
176
     1
 40
0.6
176
     1
 40
30.0
176
     1
 62
     7
420
 16777215
176
     1
 90
        1
176
     1
 90
        4
176
     1
 62
     7
176
     1
 62
   257
176
     1
 90
        1
176
     1
 90
        1
176
     1
 40
1.0
176
     1
 90
        8
176
     1
 62
     7
176
     1
 40
1.0
176
     1
 90
        1
176
     1
 90
        6
176
     1
 90
        2
176
     1
 62
     7
176
     1
 90
        5
176
     1
 90
        0
176
     1
 90
        0
176
     1
290
     0
176
     1
 90
        1
176
     1
 40
50.0
176
     1
 90
        0
176
     1
290
     0
176
     1
290
     1
176
     1
290
     1
176
     1
290
     0
176
     1
290
     0
176
     1
290
     0
176
     1
290
     0
176
     1
290
     0
176
     1
290
     0
176
     1
 90
       50
176
     1
 40
0.0
176
     1
 40
1.0
176
     1
 90
        0
176
     1
 62
    18
420
        0
176
     1
 90
       50
176
     1
 90
        3
176
     1
 62
     5
420
      255
176
     1
290
     0
176
     1
 90
       50
176
     1
 90
       50
176
     1
 90
       50
176
     1
290
     0
176
     1
 90
       50
176
     1
 62
   256
176
     0
 40
1.0
176
     0
 90
        2
176
     1
  1
strokes_ogs.tif
176
     1
290
     0
176
     1
 40
1.0
176
     1
 40
1.0
176
     1
  0
VISUALSTYLE
  5
6E1
102
{ACAD_REACTORS
330
6D1
102
}
330
6D1
100
AcDbVisualStyle
  2
ColorChange
 70
    16
177
     3
291
     1
 70
    58
 90
        2
176
     1
 90
        2
176
     1
 90
        3
176
     1
 90
        0
176
     1
 40
0.6
176
     1
 40
30.0
176
     1
 62
     8
420
  8421504
176
     1
 90
        1
176
     1
 90
        4
176
     1
 62
     7
176
     1
 62
   257
176
     1
 90
        1
176
     1
 90
        1
176
     1
 40
1.0
176
     1
 90
        8
176
     1
 62
     8
420
  8421504
176
     1
 40
1.0
176
     1
 90
        1
176
     1
 90
        6
176
     1
 90
        2
176
     1
 62
     7
176
     1
 90
        5
176
     1
 90
        0
176
     1
 90
        0
176
     1
290
     0
176
     1
 90
        1
176
     1
 40
0.0
176
     1
 90
        0
176
     1
290
     0
176
     1
290
     1
176
     1
290
     1
176
     1
290
     0
176
     1
290
     0
176
     1
290
     0
176
     1
290
     0
176
     1
290
     0
176
     1
290
     0
176
     1
 90
       50
176
     1
 40
0.0
176
     1
 40
1.0
176
     1
 90
        0
176
     1
 62
    18
420
        0
176
     1
 90
       50
176
     1
 90
        3
176
     1
 62
     5
420
      255
176
     1
290
     0
176
     1
 90
       50
176
     1
 90
       50
176
     1
 90
       50
176
     1
290
     0
176
     1
 90
       50
176
     1
 62
   256
176
     0
 40
1.0
176
     0
 90
        2
176
     1
  1
strokes_ogs.tif
176
     1
290
     0
176
     1
 40
1.0
176
     1
 40
1.0
176
     1
  0
VISUALSTYLE
  5
6DB
102
{ACAD_REACTORS
330
6D1
102
}
330
6D1
100
AcDbVisualStyle
  2
Conceptual
 70
     9
177
     3
291
     0
 70
    58
 90
        3
176
     1
 90
        2
176
     1
 90
        0
176
     1
 90
        0
176
     1
 40
0.6
176
     1
 40
30.0
176
     1
 62
     7
420
 16777215
176
     1
 90
        2
176
     1
 90
        2
176
     1
 62
     7
176
     1
 62
   257
176
     1
 90
        1
176
     1
 90
        1
176
     1
 40
179.0
176
     1
 90
        8
176
     1
 62
     7
176
     1
 40
1.0
176
     1
 90
        1
176
     1
 90
        6
176
     1
 90
        2
176
     1
 62
     7
176
     1
 90
        3
176
     1
 90
        0
176
     1
 90
        0
176
     1
290
     0
176
     1
 90
        1
176
     1
 40
0.0
176
     1
 90
        0
176
     1
290
     0
176
     1
290
     1
176
     1
290
     1
176
     1
290
     0
176
     1
290
     0
176
     1
290
     0
176
     1
290
     0
176
     1
290
     0
176
     1
290
     0
176
     1
 90
       50
176
     1
 40
0.0
176
     1
 40
1.0
176
     1
 90
        0
176
     1
 62
    18
420
        0
176
     1
 90
       50
176
     1
 90
        3
176
     1
 62
     5
420
      255
176
     1
290
     0
176
     1
 90
       50
176
     1
 90
       50
176
     1
 90
       50
176
     1
290
     0
176
     1
 90
       50
176
     1
 62
   256
176
     0
 40
1.0
176
     0
 90
        2
176
     1
  1
strokes_ogs.tif
176
     1
290
     0
176
     1
 40
1.0
176
     1
 40
1.0
176
     1
  0
VISUALSTYLE
  5
6DC
102
{ACAD_REACTORS
330
6D1
102
}
330
6D1
100
AcDbVisualStyle
  2
Dim
 70
    11
177
     3
291
     1
 70
    58
 90
        2
176
     1
 90
        2
176
     1
 90
        0
176
     1
 90
        0
176
     1
 40
0.6
176
     1
 40
30.0
176
     1
 62
     7
420
 16777215
176
     1
 90
        1
176
     1
 90
        4
176
     1
 62
     7
176
     1
 62
   257
176
     1
 90
        1
176
     1
 90
        1
176
     1
 40
1.0
176
     1
 90
        8
176
     1
 62
     7
176
     1
 40
1.0
176
     1
 90
        1
176
     1
 90
        6
176
     1
 90
        2
176
     1
 62
     7
176
     1
 90
        5
176
     1
 90
        0
176
     1
 90
        0
176
     1
290
     0
176
     1
 90
        1
176
     1
 40
-50.0
176
     1
 90
        0
176
     1
290
     0
176
     1
290
     1
176
     1
290
     1
176
     1
290
     0
176
     1
290
     0
176
     1
290
     0
176
     1
290
     0
176
     1
290
     0
176
     1
290
     0
176
     1
 90
       50
176
     1
 40
0.0
176
     1
 40
1.0
176
     1
 90
        0
176
     1
 62
    18
420
        0
176
     1
 90
       50
176
     1
 90
        3
176
     1
 62
     5
420
      255
176
     1
290
     0
176
     1
 90
       50
176
     1
 90
       50
176
     1
 90
       50
176
     1
290
     0
176
     1
 90
       50
176
     1
 62
   256
176
     0
 40
1.0
176
     0
 90
        2
176
     1
  1
strokes_ogs.tif
176
     1
290
     0
176
     1
 40
1.0
176
     1
 40
1.0
176
     1
  0
VISUALSTYLE
  5
6E4
102
{ACAD_REACTORS
330
6D1
102
}
330
6D1
100
AcDbVisualStyle
  2
EdgeColorOff
 70
    22
177
     3
291
     1
 70
    58
 90
        2
176
     0
 90
        2
176
     0
 90
        0
176
     0
 90
        0
176
     0
 40
0.6
176
     0
 40
30.0
176
     0
 62
     7
420
 16777215
176
     0
 90
        1
176
     0
 90
        4
176
     0
 62
     7
176
     0
 62
   257
176
     0
 90
        1
176
     0
 90
        1
176
     0
 40
1.0
176
     0
 90
        8
176
     2
 62
     7
176
     0
 40
1.0
176
     0
 90
        1
176
     0
 90
        6
176
     0
 90
        2
176
     0
 62
     7
176
     0
 90
        5
176
     0
 90
        0
176
     0
 90
        0
176
     0
290
     0
176
     0
 90
        1
176
     0
 40
0.0
176
     0
 90
        0
176
     0
290
     0
176
     0
290
     1
176
     0
290
     1
176
     0
290
     0
176
     0
290
     0
176
     0
290
     0
176
     0
290
     0
176
     0
290
     0
176
     0
290
     0
176
     0
 90
       50
176
     0
 40
0.0
176
     0
 40
1.0
176
     0
 90
        0
176
     0
 62
    18
420
        0
176
     0
 90
       50
176
     0
 90
        3
176
     0
 62
     5
420
      255
176
     0
290
     0
176
     0
 90
       50
176
     0
 90
       50
176
     0
 90
       50
176
     0
290
     0
176
     0
 90
       50
176
     0
 62
   256
176
     0
 40
1.0
176
     0
 90
        2
176
     0
  1
strokes_ogs.tif
176
     0
290
     0
176
     0
 40
1.0
176
     0
 40
1.0
176
     0
  0
VISUALSTYLE
  5
6E0
102
{ACAD_REACTORS
330
6D1
102
}
330
6D1
100
AcDbVisualStyle
  2
Facepattern
 70
    15
177
     3
291
     1
 70
    58
 90
        2
176
     1
 90
        2
176
     1
 90
        0
176
     1
 90
        0
176
     1
 40
0.6
176
     1
 40
30.0
176
     1
 62
     7
420
 16777215
176
     1
 90
        1
176
     1
 90
        4
176
     1
 62
     7
176
     1
 62
   257
176
     1
 90
        1
176
     1
 90
        1
176
     1
 40
1.0
176
     1
 90
        8
176
     1
 62
     7
176
     1
 40
1.0
176
     1
 90
        1
176
     1
 90
        6
176
     1
 90
        2
176
     1
 62
     7
176
     1
 90
        5
176
     1
 90
        0
176
     1
 90
        0
176
     1
290
     0
176
     1
 90
        1
176
     1
 40
0.0
176
     1
 90
        0
176
     1
290
     0
176
     1
290
     1
176
     1
290
     1
176
     1
290
     0
176
     1
290
     0
176
     1
290
     0
176
     1
290
     0
176
     1
290
     0
176
     1
290
     0
176
     1
 90
       50
176
     1
 40
0.0
176
     1
 40
1.0
176
     1
 90
        0
176
     1
 62
    18
420
        0
176
     1
 90
       50
176
     1
 90
        3
176
     1
 62
     5
420
      255
176
     1
290
     0
176
     1
 90
       50
176
     1
 90
       50
176
     1
 90
       50
176
     1
290
     0
176
     1
 90
       50
176
     1
 62
   256
176
     0
 40
1.0
176
     0
 90
        2
176
     1
  1
strokes_ogs.tif
176
     1
290
     0
176
     1
 40
1.0
176
     1
 40
1.0
176
     1
  0
VISUALSTYLE
  5
6D2
102
{ACAD_REACTORS
330
6D1
102
}
330
6D1
100
AcDbVisualStyle
  2
Flat
 70
     0
177
     3
291
     1
 70
    58
 90
        2
176
     1
 90
        1
176
     1
 90
        1
176
     1
 90
        2
176
     1
 40
0.6
176
     1
 40
30.0
176
     1
 62
     7
420
 16777215
176
     1
 90
        0
176
     1
 90
        0
176
     1
 62
     7
176
     1
 62
   257
176
     1
 90
        1
176
     1
 90
        1
176
     1
 40
1.0
176
     1
 90
        8
176
     1
 62
     7
176
     1
 40
1.0
176
     1
 90
        1
176
     1
 90
        6
176
     1
 90
        2
176
     1
 62
     7
176
     1
 90
        5
176
     1
 90
        0
176
     1
 90
        0
176
     1
290
     0
176
     1
 90
       13
176
     1
 40
0.0
176
     1
 90
        0
176
     1
290
     0
176
     1
290
     1
176
     1
290
     1
176
     1
290
     0
176
     1
290
     0
176
     1
290
     0
176
     1
290
     0
176
     1
290
     0
176
     1
290
     0
176
     1
 90
       50
176
     1
 40
0.0
176
     1
 40
1.0
176
     1
 90
        0
176
     1
 62
    18
420
        0
176
     1
 90
       50
176
     1
 90
        3
176
     1
 62
     5
420
      255
176
     1
290
     0
176
     1
 90
       50
176
     1
 90
       50
176
     1
 90
       50
176
     1
290
     0
176
     1
 90
       50
176
     1
 62
   256
176
     0
 40
1.0
176
     0
 90
        2
176
     1
  1
strokes_ogs.tif
176
     1
290
     0
176
     1
 40
1.0
176
     1
 40
1.0
176
     1
  0
VISUALSTYLE
  5
6D3
102
{ACAD_REACTORS
330
6D1
102
}
330
6D1
100
AcDbVisualStyle
  2
FlatWithEdges
 70
     1
177
     3
291
     1
 70
    58
 90
        2
176
     1
 90
        1
176
     1
 90
        1
176
     1
 90
        2
176
     1
 40
0.6
176
     1
 40
30.0
176
     1
 62
     7
420
 16777215
176
     1
 90
        1
176
     1
 90
        0
176
     1
 62
     7
176
     1
 62
   257
176
     1
 90
        1
176
     1
 90
        1
176
     1
 40
1.0
176
     1
 90
        0
176
     1
 62
   257
176
     1
 40
1.0
176
     1
 90
        1
176
     1
 90
        6
176
     1
 90
        2
176
     1
 62
     7
176
     1
 90
        5
176
     1
 90
        0
176
     1
 90
        0
176
     1
290
     0
176
     1
 90
       13
176
     1
 40
0.0
176
     1
 90
        0
176
     1
290
     0
176
     1
290
     1
176
     1
290
     1
176
     1
290
     0
176
     1
290
     0
176
     1
290
     0
176
     1
290
     0
176
     1
290
     0
176
     1
290
     0
176
     1
 90
       50
176
     1
 40
0.0
176
     1
 40
1.0
176
     1
 90
        0
176
     1
 62
    18
420
        0
176
     1
 90
       50
176
     1
 90
        3
176
     1
 62
     5
420
      255
176
     1
290
     0
176
     1
 90
       50
176
     1
 90
       50
176
     1
 90
       50
176
     1
290
     0
176
     1
 90
       50
176
     1
 62
   256
176
     0
 40
1.0
176
     0
 90
        2
176
     1
  1
strokes_ogs.tif
176
     1
290
     0
176
     1
 40
1.0
176
     1
 40
1.0
176
     1
  0
VISUALSTYLE
  5
6D4
102
{ACAD_REACTORS
330
6D1
102
}
330
6D1
100
AcDbVisualStyle
  2
Gouraud
 70
     2
177
     3
291
     1
 70
    58
 90
        2
176
     1
 90
        2
176
     1
 90
        1
176
     1
 90
        2
176
     1
 40
0.6
176
     1
 40
30.0
176
     1
 62
     7
420
 16777215
176
     1
 90
        0
176
     1
 90
        0
176
     1
 62
     7
176
     1
 62
   257
176
     1
 90
        1
176
     1
 90
        1
176
     1
 40
1.0
176
     1
 90
        0
176
     1
 62
     7
176
     1
 40
1.0
176
     1
 90
        1
176
     1
 90
        6
176
     1
 90
        2
176
     1
 62
     7
176
     1
 90
        5
176
     1
 90
        0
176
     1
 90
        0
176
     1
290
     0
176
     1
 90
       13
176
     1
 40
0.0
176
     1
 90
        0
176
     1
290
     0
176
     1
290
     1
176
     1
290
     1
176
     1
290
     0
176
     1
290
     0
176
     1
290
     0
176
     1
290
     0
176
     1
290
     0
176
     1
290
     0
176
     1
 90
       50
176
     1
 40
0.0
176
     1
 40
1.0
176
     1
 90
        0
176
     1
 62
    18
420
        0
176
     1
 90
       50
176
     1
 90
        3
176
     1
 62
     5
420
      255
176
     1
290
     0
176
     1
 90
       50
176
     1
 90
       50
176
     1
 90
       50
176
     1
290
     0
176
     1
 90
       50
176
     1
 62
   256
176
     0
 40
1.0
176
     0
 90
        2
176
     1
  1
strokes_ogs.tif
176
     1
290
     0
176
     1
 40
1.0
176
     1
 40
1.0
176
     1
  0
VISUALSTYLE
  5
6D5
102
{ACAD_REACTORS
330
6D1
102
}
330
6D1
100
AcDbVisualStyle
  2
GouraudWithEdges
 70
     3
177
     3
291
     1
 70
    58
 90
        2
176
     1
 90
        2
176
     1
 90
        1
176
     1
 90
        2
176
     1
 40
0.6
176
     1
 40
30.0
176
     1
 62
     7
420
 16777215
176
     1
 90
        1
176
     1
 90
        0
176
     1
 62
     7
176
     1
 62
   257
176
     1
 90
        1
176
     1
 90
        1
176
     1
 40
1.0
176
     1
 90
        0
176
     1
 62
   257
176
     1
 40
1.0
176
     1
 90
        1
176
     1
 90
        6
176
     1
 90
        2
176
     1
 62
     7
176
     1
 90
        5
176
     1
 90
        0
176
     1
 90
        0
176
     1
290
     0
176
     1
 90
       13
176
     1
 40
0.0
176
     1
 90
        0
176
     1
290
     0
176
     1
290
     1
176
     1
290
     1
176
     1
290
     0
176
     1
290
     0
176
     1
290
     0
176
     1
290
     0
176
     1
290
     0
176
     1
290
     0
176
     1
 90
       50
176
     1
 40
0.0
176
     1
 40
1.0
176
     1
 90
        0
176
     1
 62
    18
420
        0
176
     1
 90
       50
176
     1
 90
        3
176
     1
 62
     5
420
      255
176
     1
290
     0
176
     1
 90
       50
176
     1
 90
       50
176
     1
 90
       50
176
     1
290
     0
176
     1
 90
       50
176
     1
 62
   256
176
     0
 40
1.0
176
     0
 90
        2
176
     1
  1
strokes_ogs.tif
176
     1
290
     0
176
     1
 40
1.0
176
     1
 40
1.0
176
     1
  0
VISUALSTYLE
  5
6D8
102
{ACAD_REACTORS
330
6D1
102
}
330
6D1
100
AcDbVisualStyle
  2
Hidden
 70
     6
177
     3
291
     0
 70
    58
 90
        1
176
     1
 90
        2
176
     1
 90
        2
176
     1
 90
        0
176
     1
 40
0.6
176
     1
 40
30.0
176
     1
 62
     7
420
 16777215
176
     1
 90
        2
176
     1
 90
        2
176
     1
 62
     7
176
     1
 62
   257
176
     1
 90
        2
176
     1
 90
        1
176
     1
 40
40.0
176
     1
 90
        0
176
     1
 62
   257
176
     1
 40
1.0
176
     1
 90
        1
176
     1
 90
        6
176
     1
 90
        2
176
     1
 62
     7
176
     1
 90
        3
176
     1
 90
        0
176
     1
 90
        0
176
     1
290
     0
176
     1
 90
        1
176
     1
 40
0.0
176
     1
 90
        0
176
     1
290
     0
176
     1
290
     1
176
     1
290
     1
176
     1
290
     0
176
     1
290
     0
176
     1
290
     0
176
     1
290
     0
176
     1
290
     0
176
     1
290
     0
176
     1
 90
       50
176
     1
 40
0.0
176
     1
 40
1.0
176
     1
 90
        0
176
     1
 62
    18
420
        0
176
     1
 90
       50
176
     1
 90
        3
176
     1
 62
     5
420
      255
176
     1
290
     0
176
     1
 90
       50
176
     1
 90
       50
176
     1
 90
       50
176
     1
290
     0
176
     1
 90
       50
176
     1
 62
   256
176
     0
 40
1.0
176
     0
 90
        2
176
     1
  1
strokes_ogs.tif
176
     1
290
     0
176
     1
 40
1.0
176
     1
 40
1.0
176
     1
  0
VISUALSTYLE
  5
6E2
102
{ACAD_REACTORS
330
6D1
102
}
330
6D1
100
AcDbVisualStyle
  2
JitterOff
 70
    20
177
     3
291
     1
 70
    58
 90
        2
176
     0
 90
        2
176
     0
 90
        0
176
     0
 90
        0
176
     0
 40
0.6
176
     0
 40
30.0
176
     0
 62
     7
420
 16777215
176
     0
 90
        1
176
     0
 90
        4
176
     0
 62
     7
176
     0
 62
   257
176
     0
 90
        1
176
     0
 90
        1
176
     0
 40
1.0
176
     0
 90
       10
176
     2
 62
     7
176
     0
 40
1.0
176
     0
 90
        1
176
     0
 90
        6
176
     0
 90
        2
176
     0
 62
     7
176
     0
 90
        5
176
     0
 90
        0
176
     0
 90
        0
176
     0
290
     0
176
     0
 90
        1
176
     0
 40
0.0
176
     0
 90
        0
176
     0
290
     0
176
     0
290
     1
176
     0
290
     1
176
     0
290
     0
176
     0
290
     0
176
     0
290
     0
176
     0
290
     0
176
     0
290
     0
176
     0
290
     0
176
     0
 90
       50
176
     0
 40
0.0
176
     0
 40
1.0
176
     0
 90
        0
176
     0
 62
    18
420
        0
176
     0
 90
       50
176
     0
 90
        3
176
     0
 62
     5
420
      255
176
     0
290
     0
176
     0
 90
       50
176
     0
 90
       50
176
     0
 90
       50
176
     0
290
     0
176
     0
 90
       50
176
     0
 62
   256
176
     0
 40
1.0
176
     0
 90
        2
176
     0
  1
strokes_ogs.tif
176
     0
290
     0
176
     0
 40
1.0
176
     0
 40
1.0
176
     0
  0
VISUALSTYLE
  5
6DF
102
{ACAD_REACTORS
330
6D1
102
}
330
6D1
100
AcDbVisualStyle
  2
Linepattern
 70
    14
177
     3
291
     1
 70
    58
 90
        2
176
     1
 90
        2
176
     1
 90
        0
176
     1
 90
        0
176
     1
 40
0.6
176
     1
 40
30.0
176
     1
 62
     7
420
 16777215
176
     1
 90
        1
176
     1
 90
        4
176
     1
 62
     7
176
     1
 62
   257
176
     1
 90
        7
176
     1
 90
        7
176
     1
 40
1.0
176
     1
 90
        8
176
     1
 62
     7
176
     1
 40
1.0
176
     1
 90
        1
176
     1
 90
        6
176
     1
 90
        2
176
     1
 62
     7
176
     1
 90
        5
176
     1
 90
        0
176
     1
 90
        0
176
     1
290
     0
176
     1
 90
        1
176
     1
 40
0.0
176
     1
 90
        0
176
     1
290
     0
176
     1
290
     1
176
     1
290
     1
176
     1
290
     0
176
     1
290
     0
176
     1
290
     0
176
     1
290
     0
176
     1
290
     0
176
     1
290
     0
176
     1
 90
       50
176
     1
 40
0.0
176
     1
 40
1.0
176
     1
 90
        0
176
     1
 62
    18
420
        0
176
     1
 90
       50
176
     1
 90
        3
176
     1
 62
     5
420
      255
176
     1
290
     0
176
     1
 90
       50
176
     1
 90
       50
176
     1
 90
       50
176
     1
290
     0
176
     1
 90
       50
176
     1
 62
   256
176
     0
 40
1.0
176
     0
 90
        2
176
     1
  1
strokes_ogs.tif
176
     1
290
     0
176
     1
 40
1.0
176
     1
 40
1.0
176
     1
  0
VISUALSTYLE
  5
6E3
102
{ACAD_REACTORS
330
6D1
102
}
330
6D1
100
AcDbVisualStyle
  2
OverhangOff
 70
    21
177
     3
291
     1
 70
    58
 90
        2
176
     0
 90
        2
176
     0
 90
        0
176
     0
 90
        0
176
     0
 40
0.6
176
     0
 40
30.0
176
     0
 62
     7
420
 16777215
176
     0
 90
        1
176
     0
 90
        4
176
     0
 62
     7
176
     0
 62
   257
176
     0
 90
        1
176
     0
 90
        1
176
     0
 40
1.0
176
     0
 90
        9
176
     2
 62
     7
176
     0
 40
1.0
176
     0
 90
        1
176
     0
 90
        6
176
     0
 90
        2
176
     0
 62
     7
176
     0
 90
        5
176
     0
 90
        0
176
     0
 90
        0
176
     0
290
     0
176
     0
 90
        1
176
     0
 40
0.0
176
     0
 90
        0
176
     0
290
     0
176
     0
290
     1
176
     0
290
     1
176
     0
290
     0
176
     0
290
     0
176
     0
290
     0
176
     0
290
     0
176
     0
290
     0
176
     0
290
     0
176
     0
 90
       50
176
     0
 40
0.0
176
     0
 40
1.0
176
     0
 90
        0
176
     0
 62
    18
420
        0
176
     0
 90
       50
176
     0
 90
        3
176
     0
 62
     5
420
      255
176
     0
290
     0
176
     0
 90
       50
176
     0
 90
       50
176
     0
 90
       50
176
     0
290
     0
176
     0
 90
       50
176
     0
 62
   256
176
     0
 40
1.0
176
     0
 90
        2
176
     0
  1
strokes_ogs.tif
176
     0
290
     0
176
     0
 40
1.0
176
     0
 40
1.0
176
     0
  0
VISUALSTYLE
  5
6DA
102
{ACAD_REACTORS
330
6D1
102
}
330
6D1
100
AcDbVisualStyle
  2
Realistic
 70
     8
177
     3
291
     0
 70
    58
 90
        2
176
     1
 90
        3
176
     1
 90
        0
176
     1
 90
        2
176
     1
 40
0.6
176
     1
 40
30.0
176
     1
 62
     7
420
 16777215
176
     1
 90
        0
176
     1
 90
        0
176
     1
 62
     7
176
     1
 62
   257
176
     1
 90
        1
176
     1
 90
        1
176
     1
 40
1.0
176
     1
 90
        8
176
     1
 62
   257
176
     1
 40
1.0
176
     1
 90
        1
176
     1
 90
        6
176
     1
 90
        2
176
     1
 62
     7
176
     1
 90
        3
176
     1
 90
        0
176
     1
 90
        0
176
     1
290
     0
176
     1
 90
       13
176
     1
 40
0.0
176
     1
 90
        0
176
     1
290
     0
176
     1
290
     1
176
     1
290
     1
176
     1
290
     0
176
     1
290
     0
176
     1
290
     0
176
     1
290
     0
176
     1
290
     0
176
     1
290
     0
176
     1
 90
       50
176
     1
 40
0.0
176
     1
 40
1.0
176
     1
 90
        0
176
     1
 62
    18
420
        0
176
     1
 90
       50
176
     1
 90
        3
176
     1
 62
     5
420
      255
176
     1
290
     0
176
     1
 90
       50
176
     1
 90
       50
176
     1
 90
       50
176
     1
290
     0
176
     1
 90
       50
176
     1
 62
   256
176
     0
 40
1.0
176
     0
 90
        2
176
     1
  1
strokes_ogs.tif
176
     1
290
     0
176
     1
 40
1.0
176
     1
 40
1.0
176
     1
  0
VISUALSTYLE
  5
6E9
102
{ACAD_REACTORS
330
6D1
102
}
330
6D1
100
AcDbVisualStyle
  2
Shaded
 70
    27
177
     3
291
     0
 70
    58
 90
        2
176
     1
 90
        2
176
     1
 90
        1
176
     1
 90
        2
176
     1
 40
0.6
176
     1
 40
30.0
176
     1
 62
     7
420
 16777215
176
     1
 90
        0
176
     1
 90
        4
176
     1
 62
     7
176
     1
 62
   257
176
     1
 90
        1
176
     1
 90
        1
176
     1
 40
1.0
176
     1
 90
        8
176
     1
 62
   257
176
     1
 40
1.0
176
     1
 90
        1
176
     1
 90
        6
176
     1
 90
        2
176
     1
 62
     8
420
  7895160
176
     1
 90
        3
176
     1
 90
        0
176
     1
 90
        0
176
     1
290
     0
176
     1
 90
        5
176
     1
 40
0.0
176
     1
 90
        0
176
     1
290
     0
176
     1
290
     1
176
     1
290
     1
176
     1
290
     0
176
     1
290
     0
176
     1
290
     0
176
     1
290
     0
176
     1
290
     0
176
     1
290
     0
176
     1
 90
       50
176
     1
 40
0.0
176
     1
 40
1.0
176
     1
 90
        0
176
     1
 62
    18
420
        0
176
     1
 90
       50
176
     1
 90
        3
176
     1
 62
     5
420
      255
176
     1
290
     0
176
     1
 90
       50
176
     1
 90
       50
176
     1
 90
       50
176
     1
290
     0
176
     1
 90
       50
176
     1
 62
   256
176
     0
 40
1.0
176
     0
 90
        2
176
     1
  1
strokes_ogs.tif
176
     1
290
     0
176
     1
 40
1.0
176
     1
 40
1.0
176
     1
  0
VISUALSTYLE
  5
6E8
102
{ACAD_REACTORS
330
6D1
102
}
330
6D1
100
AcDbVisualStyle
  2
Shaded with edges
 70
    26
177
     3
291
     0
 70
    58
 90
        2
176
     1
 90
        2
176
     1
 90
        1
176
     1
 90
        2
176
     1
 40
0.6
176
     1
 40
30.0
176
     1
 62
     7
420
 16777215
176
     1
 90
        1
176
     1
 90
       10
176
     1
 62
     7
176
     1
 62
   257
176
     1
 90
        2
176
     1
 90
        1
176
     1
 40
1.0
176
     1
 90
        8
176
     1
 62
   257
176
     1
 40
1.0
176
     1
 90
        1
176
     1
 90
        6
176
     1
 90
        2
176
     1
 62
     7
176
     1
 90
        3
176
     1
 90
        0
176
     1
 90
        0
176
     1
290
     0
176
     1
 90
        5
176
     1
 40
0.0
176
     1
 90
        0
176
     1
290
     0
176
     1
290
     1
176
     1
290
     1
176
     1
290
     0
176
     1
290
     0
176
     1
290
     0
176
     1
290
     0
176
     1
290
     0
176
     1
290
     0
176
     1
 90
       50
176
     1
 40
0.0
176
     1
 40
1.0
176
     1
 90
        0
176
     1
 62
    18
420
        0
176
     1
 90
       50
176
     1
 90
        3
176
     1
 62
     5
420
      255
176
     1
290
     0
176
     1
 90
       50
176
     1
 90
       50
176
     1
 90
       50
176
     1
290
     0
176
     1
 90
       50
176
     1
 62
   256
176
     0
 40
1.0
176
     0
 90
        2
176
     1
  1
strokes_ogs.tif
176
     1
290
     0
176
     1
 40
1.0
176
     1
 40
1.0
176
     1
  0
VISUALSTYLE
  5
6E5
102
{ACAD_REACTORS
330
6D1
102
}
330
6D1
100
AcDbVisualStyle
  2
Shades of Gray
 70
    23
177
     3
291
     0
 70
    58
 90
        2
176
     1
 90
        2
176
     1
 90
        3
176
     1
 90
        0
176
     1
 40
0.6
176
     1
 40
30.0
176
     1
 62
     7
420
 16777215
176
     1
 90
        2
176
     1
 90
        2
176
     1
 62
     7
176
     1
 62
     7
176
     1
 90
        1
176
     1
 90
        1
176
     1
 40
40.0
176
     1
 90
        8
176
     1
 62
     7
176
     1
 40
1.0
176
     1
 90
        1
176
     1
 90
        6
176
     1
 90
        2
176
     1
 62
     7
176
     1
 90
        3
176
     1
 90
        0
176
     1
 90
        0
176
     1
290
     0
176
     1
 90
        1
176
     1
 40
0.0
176
     1
 90
        0
176
     1
290
     0
176
     1
290
     1
176
     1
290
     1
176
     1
290
     0
176
     1
290
     0
176
     1
290
     0
176
     1
290
     0
176
     1
290
     0
176
     1
290
     0
176
     1
 90
       50
176
     1
 40
0.0
176
     1
 40
1.0
176
     1
 90
        0
176
     1
 62
    18
420
        0
176
     1
 90
       50
176
     1
 90
        3
176
     1
 62
     5
420
      255
176
     1
290
     0
176
     1
 90
       50
176
     1
 90
       50
176
     1
 90
       50
176
     1
290
     0
176
     1
 90
       50
176
     1
 62
   256
176
     0
 40
1.0
176
     0
 90
        2
176
     1
  1
strokes_ogs.tif
176
     1
290
     0
176
     1
 40
1.0
176
     1
 40
1.0
176
     1
  0
VISUALSTYLE
  5
6E6
102
{ACAD_REACTORS
330
6D1
102
}
330
6D1
100
AcDbVisualStyle
  2
Sketchy
 70
    24
177
     3
291
     0
 70
    58
 90
        1
176
     1
 90
        2
176
     1
 90
        2
176
     1
 90
        0
176
     1
 40
0.6
176
     1
 40
30.0
176
     1
 62
     7
420
 16777215
176
     1
 90
        2
176
     1
 90
        2
176
     1
 62
     7
176
     1
 62
     7
176
     1
 90
        1
176
     1
 90
        1
176
     1
 40
40.0
176
     1
 90
       11
176
     1
 62
     7
176
     1
 40
1.0
176
     1
 90
        1
176
     1
 90
        6
176
     1
 90
        2
176
     1
 62
     7
176
     1
 90
        6
176
     1
 90
        0
176
     1
 90
        0
176
     1
290
     0
176
     1
 90
        1
176
     1
 40
0.0
176
     1
 90
        0
176
     1
290
     0
176
     1
290
     1
176
     1
290
     1
176
     1
290
     0
176
     1
290
     0
176
     1
290
     0
176
     1
290
     0
176
     1
290
     0
176
     1
290
     0
176
     1
 90
       50
176
     1
 40
0.0
176
     1
 40
1.0
176
     1
 90
        0
176
     1
 62
    18
420
        0
176
     1
 90
       50
176
     1
 90
        3
176
     1
 62
     5
420
      255
176
     1
290
     0
176
     1
 90
       50
176
     1
 90
       50
176
     1
 90
       50
176
     1
290
     0
176
     1
 90
       50
176
     1
 62
   256
176
     0
 40
1.0
176
     0
 90
        2
176
     1
  1
strokes_ogs.tif
176
     1
290
     0
176
     1
 40
1.0
176
     1
 40
1.0
176
     1
  0
VISUALSTYLE
  5
6DE
102
{ACAD_REACTORS
330
6D1
102
}
330
6D1
100
AcDbVisualStyle
  2
Thicken
 70
    13
177
     3
291
     1
 70
    58
 90
        2
176
     1
 90
        2
176
     1
 90
        0
176
     1
 90
        0
176
     1
 40
0.6
176
     1
 40
30.0
176
     1
 62
     7
420
 16777215
176
     1
 90
        1
176
     1
 90
        4
176
     1
 62
     7
176
     1
 62
   257
176
     1
 90
        1
176
     1
 90
        1
176
     1
 40
1.0
176
     1
 90
       12
176
     1
 62
     7
176
     1
 40
1.0
176
     1
 90
        1
176
     1
 90
        6
176
     1
 90
        2
176
     1
 62
     7
176
     1
 90
        5
176
     1
 90
        0
176
     1
 90
        0
176
     1
290
     0
176
     1
 90
        1
176
     1
 40
0.0
176
     1
 90
        0
176
     1
290
     0
176
     1
290
     1
176
     1
290
     1
176
     1
290
     0
176
     1
290
     0
176
     1
290
     0
176
     1
290
     0
176
     1
290
     0
176
     1
290
     0
176
     1
 90
       50
176
     1
 40
0.0
176
     1
 40
1.0
176
     1
 90
        0
176
     1
 62
    18
420
        0
176
     1
 90
       50
176
     1
 90
        3
176
     1
 62
     5
420
      255
176
     1
290
     0
176
     1
 90
       50
176
     1
 90
       50
176
     1
 90
       50
176
     1
290
     0
176
     1
 90
       50
176
     1
 62
   256
176
     0
 40
1.0
176
     0
 90
        2
176
     1
  1
strokes_ogs.tif
176
     1
290
     0
176
     1
 40
1.0
176
     1
 40
1.0
176
     1
  0
VISUALSTYLE
  5
6D7
102
{ACAD_REACTORS
330
6D1
102
}
330
6D1
100
AcDbVisualStyle
  2
Wireframe
 70
     5
177
     3
291
     0
 70
    58
 90
        0
176
     1
 90
        2
176
     1
 90
        0
176
     1
 90
        0
176
     1
 40
0.6
176
     1
 40
30.0
176
     1
 62
     7
420
 16777215
176
     1
 90
        1
176
     1
 90
        4
176
     1
 62
     7
176
     1
 62
   257
176
     1
 90
        1
176
     1
 90
        1
176
     1
 40
1.0
176
     1
 90
        0
176
     1
 62
   257
176
     1
 40
1.0
176
     1
 90
        1
176
     1
 90
        6
176
     1
 90
        2
176
     1
 62
     7
176
     1
 90
        3
176
     1
 90
        0
176
     1
 90
        0
176
     1
290
     0
176
     1
 90
        1
176
     1
 40
0.0
176
     1
 90
        0
176
     1
290
     0
176
     1
290
     1
176
     1
290
     1
176
     1
290
     0
176
     1
290
     0
176
     1
290
     0
176
     1
290
     0
176
     1
290
     0
176
     1
290
     0
176
     1
 90
       50
176
     1
 40
0.0
176
     1
 40
1.0
176
     1
 90
        0
176
     1
 62
    18
420
        0
176
     1
 90
       50
176
     1
 90
        3
176
     1
 62
     5
420
      255
176
     1
290
     0
176
     1
 90
       50
176
     1
 90
       50
176
     1
 90
       50
176
     1
290
     0
176
     1
 90
       50
176
     1
 62
   256
176
     0
 40
1.0
176
     0
 90
        2
176
     1
  1
strokes_ogs.tif
176
     1
290
     0
176
     1
 40
1.0
176
     1
 40
1.0
176
     1
  0
VISUALSTYLE
  5
6E7
102
{ACAD_REACTORS
330
6D1
102
}
330
6D1
100
AcDbVisualStyle
  2
X-Ray
 70
    25
177
     3
291
     0
 70
    58
 90
        2
176
     1
 90
        2
176
     1
 90
        1
176
     1
 90
        1
176
     1
 40
0.5
176
     1
 40
30.0
176
     1
 62
     7
420
 16777215
176
     1
 90
        1
176
     1
 90
        0
176
     1
 62
     7
176
     1
 62
   257
176
     1
 90
        1
176
     1
 90
        1
176
     1
 40
1.0
176
     1
 90
        8
176
     1
 62
     7
176
     1
 40
1.0
176
     1
 90
        1
176
     1
 90
        6
176
     1
 90
        2
176
     1
 62
     7
176
     1
 90
        3
176
     1
 90
        0
176
     1
 90
        0
176
     1
290
     0
176
     1
 90
       13
176
     1
 40
0.0
176
     1
 90
        0
176
     1
290
     0
176
     1
290
     1
176
     1
290
     1
176
     1
290
     0
176
     1
290
     0
176
     1
290
     0
176
     1
290
     0
176
     1
290
     0
176
     1
290
     0
176
     1
 90
       50
176
     1
 40
0.0
176
     1
 40
1.0
176
     1
 90
        0
176
     1
 62
    18
420
        0
176
     1
 90
       50
176
     1
 90
        3
176
     1
 62
     5
420
      255
176
     1
290
     0
176
     1
 90
       50
176
     1
 90
       50
176
     1
 90
       50
176
     1
290
     0
176
     1
 90
       50
176
     1
 62
   256
176
     0
 40
1.0
176
     0
 90
        2
176
     1
  1
strokes_ogs.tif
176
     1
290
     0
176
     1
 40
1.0
176
     1
 40
1.0
176
     1
  0
DICTIONARYVAR
  5
6F3
102
{ACAD_REACTORS
330
6F2
102
}
330
6F2
100
DictionaryVariables
280
     0
  1
1:1
  0
DICTIONARYVAR
  5
6F8
102
{ACAD_REACTORS
330
6F2
102
}
330
6F2
100
DictionaryVariables
280
     0
  1
Standard
  0
DICTIONARYVAR
  5
6F7
102
{ACAD_REACTORS
330
6F2
102
}
330
6F2
100
DictionaryVariables
280
     0
  1
Standard
  0
DICTIONARYVAR
  5
6F9
102
{ACAD_REACTORS
330
6F2
102
}
330
6F2
100
DictionaryVariables
280
     0
  1
0
  0
DICTIONARYVAR
  5
702
330
701
100
DictionaryVariables
280
     0
  1
1.4.2 @ 2025-10-22T02:44:15.503013+00:00
  0
DICTIONARY
  5
858
330
6EF
100
AcDbDictionary
280
     1
281
     1
  3
ACAD_ROUNDTRIP_2008_TABLESTYLE_CELLSTYLEMAP
360
859
  0
CELLSTYLEMAP
  5
859
102
{ACAD_REACTORS
330
858
102
}
330
858
100
AcDbCellStyleMap
 90
        3
300
CELLSTYLE
  1
TABLEFORMAT_BEGIN
 90
        5
170
     1
 91
        0
 92
    32768
 62
   257
 93
        1
300
CONTENTFORMAT
  1
CONTENTFORMAT_BEGIN
 90
        0
 91
        0
 92
        4
 93
        0
300

 40
0.0
140
1.0
 94
        5
 62
     0
340
11
144
6.0
309
CONTENTFORMAT_END
171
     1
301
MARGIN
  1
CELLMARGIN_BEGIN
 40
1.5
 40
1.5
 40
1.5
 40
1.5
 40
1.5
 40
1.5
309
CELLMARGIN_END
 94
        6
 95
        1
302
GRIDFORMAT
  1
GRIDFORMAT_BEGIN
 90
        0
 91
        1
 62
     0
 92
       -2
340
14
 93
        0
 40
0.045
309
GRIDFORMAT_END
 95
        2
302
GRIDFORMAT
  1
GRIDFORMAT_BEGIN
 90
        0
 91
        1
 62
     0
 92
       -2
340
14
 93
        0
 40
0.045
309
GRIDFORMAT_END
 95
        4
302
GRIDFORMAT
  1
GRIDFORMAT_BEGIN
 90
        0
 91
        1
 62
     0
 92
       -2
340
14
 93
        0
 40
0.045
309
GRIDFORMAT_END
 95
        8
302
GRIDFORMAT
  1
GRIDFORMAT_BEGIN
 90
        0
 91
        1
 62
     0
 92
       -2
340
14
 93
        0
 40
0.045
309
GRIDFORMAT_END
 95
       16
302
GRIDFORMAT
  1
GRIDFORMAT_BEGIN
 90
        0
 91
        1
 62
     0
 92
       -2
340
14
 93
        0
 40
0.045
309
GRIDFORMAT_END
 95
       32
302
GRIDFORMAT
  1
GRIDFORMAT_BEGIN
 90
        0
 91
        1
 62
     0
 92
       -2
340
14
 93
        0
 40
0.045
309
GRIDFORMAT_END
309
TABLEFORMAT_END
  1
CELLSTYLE_BEGIN
 90
        1
 91
        1
300
_TITLE
309
CELLSTYLE_END
300
CELLSTYLE
  1
TABLEFORMAT_BEGIN
 90
        5
170
     1
 91
        0
 92
        0
 62
   257
 93
        1
300
CONTENTFORMAT
  1
CONTENTFORMAT_BEGIN
 90
        0
 91
        0
 92
        4
 93
        0
300

 40
0.0
140
1.0
 94
        5
 62
     0
340
11
144
4.5
309
CONTENTFORMAT_END
171
     1
301
MARGIN
  1
CELLMARGIN_BEGIN
 40
1.5
 40
1.5
 40
1.5
 40
1.5
 40
1.5
 40
1.5
309
CELLMARGIN_END
 94
        6
 95
        1
302
GRIDFORMAT
  1
GRIDFORMAT_BEGIN
 90
        0
 91
        1
 62
     0
 92
       -2
340
14
 93
        0
 40
0.045
309
GRIDFORMAT_END
 95
        2
302
GRIDFORMAT
  1
GRIDFORMAT_BEGIN
 90
        0
 91
        1
 62
     0
 92
       -2
340
14
 93
        0
 40
0.045
309
GRIDFORMAT_END
 95
        4
302
GRIDFORMAT
  1
GRIDFORMAT_BEGIN
 90
        0
 91
        1
 62
     0
 92
       -2
340
14
 93
        0
 40
0.045
309
GRIDFORMAT_END
 95
        8
302
GRIDFORMAT
  1
GRIDFORMAT_BEGIN
 90
        0
 91
        1
 62
     0
 92
       -2
340
14
 93
        0
 40
0.045
309
GRIDFORMAT_END
 95
       16
302
GRIDFORMAT
  1
GRIDFORMAT_BEGIN
 90
        0
 91
        1
 62
     0
 92
       -2
340
14
 93
        0
 40
0.045
309
GRIDFORMAT_END
 95
       32
302
GRIDFORMAT
  1
GRIDFORMAT_BEGIN
 90
        0
 91
        1
 62
     0
 92
       -2
340
14
 93
        0
 40
0.045
309
GRIDFORMAT_END
309
TABLEFORMAT_END
  1
CELLSTYLE_BEGIN
 90
        2
 91
        1
300
_HEADER
309
CELLSTYLE_END
300
CELLSTYLE
  1
TABLEFORMAT_BEGIN
 90
        5
170
     1
 91
        0
 92
        0
 62
   257
 93
        1
300
CONTENTFORMAT
  1
CONTENTFORMAT_BEGIN
 90
        0
 91
        0
 92
        4
 93
        0
300

 40
0.0
140
1.0
 94
        2
 62
     0
340
11
144
4.5
309
CONTENTFORMAT_END
171
     1
301
MARGIN
  1
CELLMARGIN_BEGIN
 40
1.5
 40
1.5
 40
1.5
 40
1.5
 40
1.5
 40
1.5
309
CELLMARGIN_END
 94
        6
 95
        1
302
GRIDFORMAT
  1
GRIDFORMAT_BEGIN
 90
        0
 91
        1
 62
     0
 92
       -2
340
14
 93
        0
 40
0.045
309
GRIDFORMAT_END
 95
        2
302
GRIDFORMAT
  1
GRIDFORMAT_BEGIN
 90
        0
 91
        1
 62
     0
 92
       -2
340
14
 93
        0
 40
0.045
309
GRIDFORMAT_END
 95
        4
302
GRIDFORMAT
  1
GRIDFORMAT_BEGIN
 90
        0
 91
        1
 62
     0
 92
       -2
340
14
 93
        0
 40
0.045
309
GRIDFORMAT_END
 95
        8
302
GRIDFORMAT
  1
GRIDFORMAT_BEGIN
 90
        0
 91
        1
 62
     0
 92
       -2
340
14
 93
        0
 40
0.045
309
GRIDFORMAT_END
 95
       16
302
GRIDFORMAT
  1
GRIDFORMAT_BEGIN
 90
        0
 91
        1
 62
     0
 92
       -2
340
14
 93
        0
 40
0.045
309
GRIDFORMAT_END
 95
       32
302
GRIDFORMAT
  1
GRIDFORMAT_BEGIN
 90
        0
 91
        1
 62
     0
 92
       -2
340
14
 93
        0
 40
0.045
309
GRIDFORMAT_END
309
TABLEFORMAT_END
  1
CELLSTYLE_BEGIN
 90
        3
 91
        2
300
_DATA
309
CELLSTYLE_END
  0
ENDSEC
  0
EOF
