  0
SECTION
  2
HEADER
  9
$ACADVER
  1
AC1032
  9
$ACADMAINTVER
 90
       55
  9
$DWGCODEPAGE
  3
ANSI_1252
  9
$LASTSAVEDBY
  1
cipulot
  9
$REQUIREDVERSIONS
160
                 0
  9
$INSBASE
 10
0.0
 20
0.0
 30
0.0
  9
$EXTMIN
 10
1.000000000000000E+20
 20
1.000000000000000E+20
 30
1.000000000000000E+20
  9
$EXTMAX
 10
-1.000000000000000E+20
 20
-1.000000000000000E+20
 30
-1.000000000000000E+20
  9
$LIMMIN
 10
0.0
 20
0.0
  9
$LIMMAX
 10
12.0
 20
9.0
  9
$ORTHOMODE
 70
     0
  9
$REGENMODE
 70
     1
  9
$FILLMODE
 70
     1
  9
$QTEXTMODE
 70
     0
  9
$MIRRTEXT
 70
     1
  9
$LTSCALE
 40
1.0
  9
$ATTMODE
 70
     1
  9
$TEXTSIZE
 40
0.2
  9
$TRACEWID
 40
0.05
  9
$TEXTSTYLE
  7
Standard
  9
$CLAYER
  8
0
  9
$CELTYPE
  6
ByBlock
  9
$CECOLOR
 62
   256
  9
$CELTSCALE
 40
1.0
  9
$DISPSILH
 70
     0
  9
$DIMSCALE
 40
1.0
  9
$DIMASZ
 40
0.18
  9
$DIMEXO
 40
0.0625
  9
$DIMDLI
 40
0.38
  9
$DIMRND
 40
0.0
  9
$DIMDLE
 40
0.0
  9
$DIMEXE
 40
0.18
  9
$DIMTP
 40
0.0
  9
$DIMTM
 40
0.0
  9
$DIMTXT
 40
0.18
  9
$DIMCEN
 40
0.09
  9
$DIMTSZ
 40
0.0
  9
$DIMTOL
 70
     0
  9
$DIMLIM
 70
     0
  9
$DIMTIH
 70
     1
  9
$DIMTOH
 70
     1
  9
$DIMSE1
 70
     0
  9
$DIMSE2
 70
     0
  9
$DIMTAD
 70
     0
  9
$DIMZIN
 70
     0
  9
$DIMBLK
  1

  9
$DIMASO
 70
     1
  9
$DIMSHO
 70
     1
  9
$DIMPOST
  1

  9
$DIMAPOST
  1

  9
$DIMALT
 70
     0
  9
$DIMALTD
 70
     2
  9
$DIMALTF
 40
25.4
  9
$DIMLFAC
 40
1.0
  9
$DIMTOFL
 70
     0
  9
$DIMTVP
 40
0.0
  9
$DIMTIX
 70
     0
  9
$DIMSOXD
 70
     0
  9
$DIMSAH
 70
     0
  9
$DIMBLK1
  1

  9
$DIMBLK2
  1

  9
$DIMSTYLE
  2
ISO-25
  9
$DIMCLRD
 70
     0
  9
$DIMCLRE
 70
     0
  9
$DIMCLRT
 70
     0
  9
$DIMTFAC
 40
1.0
  9
$DIMGAP
 40
0.09
  9
$DIMJUST
 70
     0
  9
$DIMSD1
 70
     0
  9
$DIMSD2
 70
     0
  9
$DIMTOLJ
 70
     1
  9
$DIMTZIN
 70
     0
  9
$DIMALTZ
 70
     0
  9
$DIMALTTZ
 70
     0
  9
$DIMUPT
 70
     0
  9
$DIMDEC
 70
     4
  9
$DIMTDEC
 70
     4
  9
$DIMALTU
 70
     2
  9
$DIMALTTD
 70
     2
  9
$DIMTXSTY
  7
Standard
  9
$DIMAUNIT
 70
     0
  9
$DIMADEC
 70
     0
  9
$DIMALTRND
 40
0.0
  9
$DIMAZIN
 70
     0
  9
$DIMDSEP
 70
    46
  9
$DIMATFIT
 70
     3
  9
$DIMFRAC
 70
     0
  9
$DIMLDRBLK
  1

  9
$DIMLUNIT
 70
     2
  9
$DIMLWD
 70
    -2
  9
$DIMLWE
 70
    -2
  9
$DIMTMOVE
 70
     2
  9
$DIMFXL
 40
1.0
  9
$DIMFXLON
 70
     0
  9
$DIMJOGANG
 40
0.7853981633974483
  9
$DIMTFILL
 70
     0
  9
$DIMTFILLCLR
 70
     0
  9
$DIMARCSYM
 70
     0
  9
$DIMLTYPE
  6

  9
$DIMLTEX1
  6

  9
$DIMLTEX2
  6

  9
$DIMTXTDIRECTION
 70
     0
  9
$LUNITS
 70
     2
  9
$LUPREC
 70
     4
  9
$SKETCHINC
 40
0.1
  9
$FILLETRAD
 40
0.0
  9
$AUNITS
 70
     0
  9
$AUPREC
 70
     0
  9
$MENU
  1
.
  9
$ELEVATION
 40
0.0
  9
$PELEVATION
 40
0.0
  9
$THICKNESS
 40
0.0
  9
$LIMCHECK
 70
     0
  9
$CHAMFERA
 40
0.0
  9
$CHAMFERB
 40
0.0
  9
$CHAMFERC
 40
0.0
  9
$CHAMFERD
 40
0.0
  9
$SKPOLY
 70
     0
  9
$TDCREATE
 40
2461011.741408947
  9
$TDUCREATE
 40
2461011.408075614
  9
$TDUPDATE
 40
2461011.765619653
  9
$TDUUPDATE
 40
2461011.43228632
  9
$TDINDWG
 40
0.0000000116
  9
$TDUSRTIMER
 40
0.0000000116
  9
$USRTIMER
 70
     1
  9
$ANGBASE
 50
0.0
  9
$ANGDIR
 70
     1
  9
$PDMODE
 70
     0
  9
$PDSIZE
 40
0.0
  9
$PLINEWID
 40
0.0
  9
$SPLFRAME
 70
     0
  9
$SPLINETYPE
 70
     6
  9
$SPLINESEGS
 70
     8
  9
$HANDSEED
  5
799
  9
$SURFTAB1
 70
     6
  9
$SURFTAB2
 70
     6
  9
$SURFTYPE
 70
     6
  9
$SURFU
 70
     6
  9
$SURFV
 70
     6
  9
$UCSBASE
  2

  9
$UCSNAME
  2

  9
$UCSORG
 10
0.0
 20
0.0
 30
0.0
  9
$UCSXDIR
 10
1.0
 20
0.0
 30
0.0
  9
$UCSYDIR
 10
0.0
 20
1.0
 30
0.0
  9
$UCSORTHOREF
  2

  9
$UCSORTHOVIEW
 70
     0
  9
$UCSORGTOP
 10
0.0
 20
0.0
 30
0.0
  9
$UCSORGBOTTOM
 10
0.0
 20
0.0
 30
0.0
  9
$UCSORGLEFT
 10
0.0
 20
0.0
 30
0.0
  9
$UCSORGRIGHT
 10
0.0
 20
0.0
 30
0.0
  9
$UCSORGFRONT
 10
0.0
 20
0.0
 30
0.0
  9
$UCSORGBACK
 10
0.0
 20
0.0
 30
0.0
  9
$PUCSBASE
  2

  9
$PUCSNAME
  2

  9
$PUCSORG
 10
0.0
 20
0.0
 30
0.0
  9
$PUCSXDIR
 10
1.0
 20
0.0
 30
0.0
  9
$PUCSYDIR
 10
0.0
 20
1.0
 30
0.0
  9
$PUCSORTHOREF
  2

  9
$PUCSORTHOVIEW
 70
     0
  9
$PUCSORGTOP
 10
0.0
 20
0.0
 30
0.0
  9
$PUCSORGBOTTOM
 10
0.0
 20
0.0
 30
0.0
  9
$PUCSORGLEFT
 10
0.0
 20
0.0
 30
0.0
  9
$PUCSORGRIGHT
 10
0.0
 20
0.0
 30
0.0
  9
$PUCSORGFRONT
 10
0.0
 20
0.0
 30
0.0
  9
$PUCSORGBACK
 10
0.0
 20
0.0
 30
0.0
  9
$USERI1
 70
     0
  9
$USERI2
 70
     0
  9
$USERI3
 70
     0
  9
$USERI4
 70
     0
  9
$USERI5
 70
     0
  9
$USERR1
 40
0.0
  9
$USERR2
 40
0.0
  9
$USERR3
 40
0.0
  9
$USERR4
 40
0.0
  9
$USERR5
 40
0.0
  9
$WORLDVIEW
 70
     1
  9
$SHADEDGE
 70
     3
  9
$SHADEDIF
 70
    70
  9
$TILEMODE
 70
     1
  9
$MAXACTVP
 70
    64
  9
$PINSBASE
 10
0.0
 20
0.0
 30
0.0
  9
$PLIMCHECK
 70
     0
  9
$PEXTMIN
 10
1.000000000000000E+20
 20
1.000000000000000E+20
 30
1.000000000000000E+20
  9
$PEXTMAX
 10
-1.000000000000000E+20
 20
-1.000000000000000E+20
 30
-1.000000000000000E+20
  9
$PLIMMIN
 10
0.0
 20
0.0
  9
$PLIMMAX
 10
12.0
 20
9.0
  9
$UNITMODE
 70
     0
  9
$VISRETAIN
 70
     1
  9
$PLINEGEN
 70
     0
  9
$PSLTSCALE
 70
     1
  9
$TREEDEPTH
 70
  3020
  9
$CMLSTYLE
  2
Standard
  9
$CMLJUST
 70
     0
  9
$CMLSCALE
 40
1.0
  9
$PROXYGRAPHICS
 70
     1
  9
$MEASUREMENT
 70
     1
  9
$CELWEIGHT
370
    -1
  9
$ENDCAPS
280
     0
  9
$JOINSTYLE
280
     0
  9
$LWDISPLAY
290
     0
  9
$INSUNITS
 70
     4
  9
$HYPERLINKBASE
  1

  9
$STYLESHEET
  1

  9
$XEDIT
290
     1
  9
$CEPSNTYPE
380
     0
  9
$PSTYLEMODE
290
     1
  9
$FINGERPRINTGUID
  2
{22c3d967-ed91-cd40-9fd7-b6c4f1196c0d}
  9
$VERSIONGUID
  2
{FD9E1B9A-DCDB-49F7-89CC-BA2D07ABC516}
  9
$EXTNAMES
290
     1
  9
$PSVPSCALE
 40
0.0
  9
$OLESTARTUP
290
     0
  9
$SORTENTS
280
   127
  9
$INDEXCTL
280
     0
  9
$HIDETEXT
280
     1
  9
$XCLIPFRAME
280
     2
  9
$HALOGAP
280
     0
  9
$OBSCOLOR
 70
   257
  9
$OBSLTYPE
280
     0
  9
$INTERSECTIONDISPLAY
280
     0
  9
$INTERSECTIONCOLOR
 70
   257
  9
$DIMASSOC
280
     2
  9
$PROJECTNAME
  1

  9
$CAMERADISPLAY
290
     0
  9
$LENSLENGTH
 40
50.0
  9
$CAMERAHEIGHT
 40
0.0
  9
$STEPSPERSEC
 40
2.0
  9
$STEPSIZE
 40
6.0
  9
$3DDWFPREC
 40
2.0
  9
$PSOLWIDTH
 40
0.25
  9
$PSOLHEIGHT
 40
4.0
  9
$LOFTANG1
 40
1.570796326794897
  9
$LOFTANG2
 40
1.570796326794897
  9
$LOFTMAG1
 40
0.0
  9
$LOFTMAG2
 40
0.0
  9
$LOFTPARAM
 70
     7
  9
$LOFTNORMALS
280
     1
  9
$LATITUDE
 40
37.795
  9
$LONGITUDE
 40
-122.394
  9
$NORTHDIRECTION
 40
0.0
  9
$TIMEZONE
 70
 -8000
  9
$LIGHTGLYPHDISPLAY
280
     1
  9
$TILEMODELIGHTSYNCH
280
     1
  9
$CMATERIAL
347
754
  9
$SOLIDHIST
280
     0
  9
$SHOWHIST
280
     1
  9
$DWFFRAME
280
     2
  9
$DGNFRAME
280
     2
  9
$REALWORLDSCALE
290
     1
  9
$INTERFERECOLOR
 62
   256
  9
$CSHADOW
280
     0
  9
$SHADOWPLANELOCATION
 40
0.0
  0
ENDSEC
  0
SECTION
  2
CLASSES
  0
CLASS
  1
ACDBDICTIONARYWDFLT
  2
AcDbDictionaryWithDefault
  3
ObjectDBX Classes
 90
        0
 91
        3
280
     0
281
     0
  0
CLASS
  1
SCALE
  2
AcDbScale
  3
ObjectDBX Classes
 90
     1153
 91
        3
280
     0
281
     0
  0
CLASS
  1
VISUALSTYLE
  2
AcDbVisualStyle
  3
ObjectDBX Classes
 90
     4095
 91
        3
280
     0
281
     0
  0
CLASS
  1
MATERIAL
  2
AcDbMaterial
  3
ObjectDBX Classes
 90
     1153
 91
        3
280
     0
281
     0
  0
CLASS
  1
TABLESTYLE
  2
AcDbTableStyle
  3
ObjectDBX Classes
 90
     4095
 91
        3
280
     0
281
     0
  0
CLASS
  1
MLEADERSTYLE
  2
AcDbMLeaderStyle
  3
ACDB_MLEADERSTYLE_CLASS
 90
     4095
 91
        3
280
     0
281
     0
  0
CLASS
  1
DICTIONARYVAR
  2
AcDbDictionaryVar
  3
ObjectDBX Classes
 90
        0
 91
        3
280
     0
281
     0
  0
CLASS
  1
CELLSTYLEMAP
  2
AcDbCellStyleMap
  3
ObjectDBX Classes
 90
     1152
 91
        3
280
     0
281
     0
  0
CLASS
  1
SUN
  2
AcDbSun
  3
SCENEOE
 90
     1153
 91
        3
280
     0
281
     0
  0
CLASS
  1
MENTALRAYRENDERSETTINGS
  2
AcDbMentalRayRenderSettings
  3
SCENEOE
 90
     1024
 91
        3
280
     0
281
     0
  0
CLASS
  1
ACDBDETAILVIEWSTYLE
  2
AcDbDetailViewStyle
  3
ObjectDBX Classes
 90
     1025
 91
        3
280
     0
281
     0
  0
CLASS
  1
ACDBSECTIONVIEWSTYLE
  2
AcDbSectionViewStyle
  3
ObjectDBX Classes
 90
     1025
 91
        3
280
     0
281
     0
  0
CLASS
  1
RASTERVARIABLES
  2
AcDbRasterVariables
  3
ISM
 90
        0
 91
        3
280
     0
281
     0
  0
CLASS
  1
LAYOUT
  2
AcDbLayout
  3
ObjectDBX Classes
 90
        0
 91
        1
280
     0
281
     0
  0
CLASS
  1
ACDBPLACEHOLDER
  2
AcDbPlaceHolder
  3
ObjectDBX Classes
 90
        0
 91
        1
280
     0
281
     0
  0
ENDSEC
  0
SECTION
  2
TABLES
  0
TABLE
  2
VPORT
  5
8
330
0
100
AcDbSymbolTable
 70
     1
  0
VPORT
  5
442
330
8
100
AcDbSymbolTableRecord
100
AcDbViewportTableRecord
  2
*Active
 70
     0
 10
0.0
 20
0.0
 11
1.0
 21
1.0
 12
344.1869158878504
 22
148.5
 13
0.0
 23
0.0
 14
10.0
 24
10.0
 15
10.0
 25
10.0
 16
0.0
 26
0.0
 36
1.0
 17
0.0
 27
0.0
 37
0.0
 40
297.0
 41
1.972972972850329
 42
50.0
 43
0.0
 44
0.0
 50
0.0
 51
0.0
 71
     0
 72
   100
 73
     1
 74
     3
 75
     0
 76
     0
 77
     0
 78
     0
281
     0
 65
     1
110
0.0
120
0.0
130
0.0
111
1.0
121
0.0
131
0.0
112
0.0
122
1.0
132
0.0
 79
     0
146
0.0
348
73F
 60
     3
 61
     5
292
     1
282
     1
141
0.0
142
0.0
 63
   250
  0
ENDTAB
  0
TABLE
  2
LTYPE
  5
5
330
0
100
AcDbSymbolTable
 70
     4
  0
LTYPE
  5
14
330
5
100
AcDbSymbolTableRecord
100
AcDbLinetypeTableRecord
  2
ByBlock
 70
     0
  3

 72
    65
 73
     0
 40
0.0
  0
LTYPE
  5
15
330
5
100
AcDbSymbolTableRecord
100
AcDbLinetypeTableRecord
  2
ByLayer
 70
     0
  3

 72
    65
 73
     0
 40
0.0
  0
LTYPE
  5
16
330
5
100
AcDbSymbolTableRecord
100
AcDbLinetypeTableRecord
  2
CONTINUOUS
 70
     0
  3
Solid line
 72
    65
 73
     0
 40
0.0
  0
LTYPE
  5
410
330
5
100
AcDbSymbolTableRecord
100
AcDbLinetypeTableRecord
  2
DASHDOT
 70
     0
  3
Dash Dot ____ _ ____ _
 72
    65
 73
     4
 40
2.0
 49
1.25
 74
     0
 49
-0.25
 74
     0
 49
0.25
 74
     0
 49
-0.25
 74
     0
  0
LTYPE
  5
411
330
5
100
AcDbSymbolTableRecord
100
AcDbLinetypeTableRecord
  2
DASHED
 70
     0
  3
Dashed __ __ __ __ __
 72
    65
 73
     2
 40
0.75
 49
0.5
 74
     0
 49
-0.25
 74
     0
  0
LTYPE
  5
43B
330
5
100
AcDbSymbolTableRecord
100
AcDbLinetypeTableRecord
  2
DOTTED
 70
     0
  3
Dotted .  .  .  .
 72
    65
 73
     2
 40
0.2
 49
0.0
 74
     0
 49
-0.2
 74
     0
  0
ENDTAB
  0
TABLE
  2
LAYER
  5
2
330
0
100
AcDbSymbolTable
 70
     3
  0
LAYER
  5
10
330
2
100
AcDbSymbolTableRecord
100
AcDbLayerTableRecord
  2
0
 70
     0
 62
     7
  6
CONTINUOUS
370
    -3
390
F
347
756
348
0
  0
LAYER
  5
440
330
2
100
AcDbSymbolTableRecord
100
AcDbLayerTableRecord
  2
BLACK
 70
     0
 62
     7
  6
CONTINUOUS
370
    -3
390
F
347
756
348
0
  0
LAYER
  5
766
330
2
100
AcDbSymbolTableRecord
100
AcDbLayerTableRecord
  2
Defpoints
 70
     0
 62
     7
  6
CONTINUOUS
290
     0
370
    -3
390
F
347
756
348
0
  0
ENDTAB
  0
TABLE
  2
STYLE
  5
3
330
0
100
AcDbSymbolTable
 70
     5
  0
STYLE
  5
11
330
3
100
AcDbSymbolTableRecord
100
AcDbTextStyleTableRecord
  2
Standard
 70
     0
 40
0.0
 41
1.0
 50
0.0
 71
     0
 42
0.2
  3
txt
  4

  0
STYLE
  5
43C
330
3
100
AcDbSymbolTableRecord
100
AcDbTextStyleTableRecord
  2
KICAD
 70
     0
 40
0.0
 41
1.0
 50
0.0
 71
     0
 42
1.0
  3
isocp.shx
  4

  0
STYLE
  5
43D
330
3
100
AcDbSymbolTableRecord
100
AcDbTextStyleTableRecord
  2
KICADB
 70
     0
 40
0.0
 41
1.0
 50
0.0
 71
     0
 42
1.0
  3
isocp.shx
  4

  0
STYLE
  5
43E
330
3
100
AcDbSymbolTableRecord
100
AcDbTextStyleTableRecord
  2
KICADI
 70
     0
 40
0.0
 41
1.0
 50
15.0
 71
     0
 42
1.0
  3
isocp.shx
  4

  0
STYLE
  5
43F
330
3
100
AcDbSymbolTableRecord
100
AcDbTextStyleTableRecord
  2
KICADBI
 70
     0
 40
0.0
 41
1.0
 50
15.0
 71
     0
 42
1.0
  3
isocp.shx
  4

  0
ENDTAB
  0
TABLE
  2
VIEW
  5
6
330
0
100
AcDbSymbolTable
 70
     0
  0
ENDTAB
  0
TABLE
  2
UCS
  5
7
330
0
100
AcDbSymbolTable
 70
     0
  0
ENDTAB
  0
TABLE
  2
APPID
  5
9
330
0
100
AcDbSymbolTable
 70
     3
  0
APPID
  5
12
330
9
100
AcDbSymbolTableRecord
100
AcDbRegAppTableRecord
  2
ACAD
 70
     0
  0
APPID
  5
768
330
9
100
AcDbSymbolTableRecord
100
AcDbRegAppTableRecord
  2
HATCHBACKGROUNDCOLOR
 70
     0
  0
APPID
  5
769
330
9
100
AcDbSymbolTableRecord
100
AcDbRegAppTableRecord
  2
EZDXF
 70
     0
  0
ENDTAB
  0
TABLE
  2
DIMSTYLE
  5
A
330
0
100
AcDbSymbolTable
 70
     2
100
AcDbDimStyleTable
  0
DIMSTYLE
105
441
330
A
100
AcDbSymbolTableRecord
100
AcDbDimStyleTableRecord
  2
ISO-25
 70
     0
 41
2.5
 42
0.625
 43
3.75
 44
1.25
 49
2.5
 73
     0
 74
     0
 77
     1
 78
     8
 79
     3
140
2.5
141
2.5
143
0.03937007874016
147
0.625
171
     3
172
     1
178
     0
179
     2
271
     2
272
     2
274
     3
278
    44
283
     0
284
     8
340
11
  0
DIMSTYLE
105
767
330
A
100
AcDbSymbolTableRecord
100
AcDbDimStyleTableRecord
  2
Standard
 70
     0
 41
2.5
 42
0.625
 43
3.75
 44
1.25
 49
2.5
 73
     0
 74
     0
 77
     1
 78
     8
 79
     3
140
2.5
141
2.5
143
0.03937007874
147
0.625
171
     3
172
     1
178
     0
179
     2
271
     2
272
     2
274
     3
278
    44
283
     0
284
     8
340
11
  0
ENDTAB
  0
TABLE
  2
BLOCK_RECORD
  5
1
330
0
100
AcDbSymbolTable
 70
     0
  0
BLOCK_RECORD
  5
1D
330
1
100
AcDbSymbolTableRecord
100
AcDbBlockTableRecord
  2
*Model_Space
340
1E
 70
     0
280
     1
281
     0
  0
BLOCK_RECORD
  5
1B
330
1
100
AcDbSymbolTableRecord
100
AcDbBlockTableRecord
  2
*Paper_Space
340
1C
 70
     0
280
     1
281
     0
  0
ENDTAB
  0
ENDSEC
  0
SECTION
  2
BLOCKS
  0
BLOCK
  5
736
330
1D
100
AcDbEntity
  8
0
100
AcDbBlockBegin
  2
*Model_Space
 70
     0
 10
0.0
 20
0.0
 30
0.0
  3
*Model_Space
  1

  0
ENDBLK
  5
737
330
1D
100
AcDbEntity
  8
0
100
AcDbBlockEnd
  0
BLOCK
  5
738
330
1B
100
AcDbEntity
 67
     1
  8
0
100
AcDbBlockBegin
  2
*Paper_Space
 70
     0
 10
0.0
 20
0.0
 30
0.0
  3
*Paper_Space
  1

  0
ENDBLK
  5
739
330
1B
100
AcDbEntity
 67
     1
  8
0
100
AcDbBlockEnd
  0
ENDSEC
  0
SECTION
  2
ENTITIES
  0
ARC
  5
443
330
1D
100
AcDbEntity
  8
BLACK
100
AcDbCircle
 10
97.2875
 20
-68.4125
 30
0.0
 40
0.5
100
AcDbArc
 50
270.0
 51
0.0
  0
LINE
  5
444
330
1D
100
AcDbEntity
  8
BLACK
  6
Continuous
100
AcDbLine
 10
97.7875
 20
-68.4125
 30
0.0
 11
97.7875
 21
-55.41249999999999
 31
0.0
  0
ARC
  5
445
330
1D
100
AcDbEntity
  8
BLACK
100
AcDbCircle
 10
97.2875
 20
-55.41249999999999
 30
0.0
 40
0.5
100
AcDbArc
 50
0.0
 51
90.0
  0
LINE
  5
446
330
1D
100
AcDbEntity
  8
BLACK
  6
Continuous
100
AcDbLine
 10
97.2875
 20
-54.91249999999999
 30
0.0
 11
83.6875
 21
-54.91249999999999
 31
0.0
  0
ARC
  5
447
330
1D
100
AcDbEntity
  8
BLACK
100
AcDbCircle
 10
83.6875
 20
-55.41249999999999
 30
0.0
 40
0.5
100
AcDbArc
 50
90.0
 51
180.0
  0
LINE
  5
448
330
1D
100
AcDbEntity
  8
BLACK
  6
Continuous
100
AcDbLine
 10
83.1875
 20
-55.41249999999999
 30
0.0
 11
83.1875
 21
-68.4125
 31
0.0
  0
ARC
  5
449
330
1D
100
AcDbEntity
  8
BLACK
100
AcDbCircle
 10
83.6875
 20
-68.4125
 30
0.0
 40
0.5
100
AcDbArc
 50
180.0
 51
270.0
  0
LINE
  5
44A
330
1D
100
AcDbEntity
  8
BLACK
  6
Continuous
100
AcDbLine
 10
83.6875
 20
-68.9125
 30
0.0
 11
97.2875
 21
-68.9125
 31
0.0
  0
ARC
  5
44B
330
1D
100
AcDbEntity
  8
BLACK
100
AcDbCircle
 10
93.21249999999999
 20
-74.46249999999999
 30
0.0
 40
0.5
100
AcDbArc
 50
90.0
 51
180.0
  0
LINE
  5
44C
330
1D
100
AcDbEntity
  8
BLACK
  6
Continuous
100
AcDbLine
 10
92.71249999999999
 20
-74.46249999999999
 30
0.0
 11
92.71249999999999
 21
-87.46249999999999
 31
0.0
  0
ARC
  5
44D
330
1D
100
AcDbEntity
  8
BLACK
100
AcDbCircle
 10
93.21249999999999
 20
-87.46249999999999
 30
0.0
 40
0.5
100
AcDbArc
 50
180.0
 51
270.0
  0
LINE
  5
44E
330
1D
100
AcDbEntity
  8
BLACK
  6
Continuous
100
AcDbLine
 10
93.21249999999999
 20
-87.96249999999999
 30
0.0
 11
106.8125
 21
-87.96249999999999
 31
0.0
  0
ARC
  5
44F
330
1D
100
AcDbEntity
  8
BLACK
100
AcDbCircle
 10
106.8125
 20
-87.46249999999999
 30
0.0
 40
0.5
100
AcDbArc
 50
270.0
 51
0.0
  0
LINE
  5
450
330
1D
100
AcDbEntity
  8
BLACK
  6
Continuous
100
AcDbLine
 10
107.3125
 20
-87.46249999999999
 30
0.0
 11
107.3125
 21
-74.46249999999999
 31
0.0
  0
ARC
  5
451
330
1D
100
AcDbEntity
  8
BLACK
100
AcDbCircle
 10
106.8125
 20
-74.46249999999999
 30
0.0
 40
0.5
100
AcDbArc
 50
0.0
 51
90.0
  0
LINE
  5
452
330
1D
100
AcDbEntity
  8
BLACK
  6
Continuous
100
AcDbLine
 10
106.8125
 20
-73.96249999999999
 30
0.0
 11
93.21249999999999
 21
-73.96249999999999
 31
0.0
  0
ARC
  5
453
330
1D
100
AcDbEntity
  8
BLACK
100
AcDbCircle
 10
102.7375
 20
-68.4125
 30
0.0
 40
0.5
100
AcDbArc
 50
180.0
 51
270.0
  0
LINE
  5
454
330
1D
100
AcDbEntity
  8
BLACK
  6
Continuous
100
AcDbLine
 10
102.7375
 20
-68.9125
 30
0.0
 11
116.3375
 21
-68.9125
 31
0.0
  0
ARC
  5
455
330
1D
100
AcDbEntity
  8
BLACK
100
AcDbCircle
 10
116.3375
 20
-68.4125
 30
0.0
 40
0.5
100
AcDbArc
 50
270.0
 51
0.0
  0
LINE
  5
456
330
1D
100
AcDbEntity
  8
BLACK
  6
Continuous
100
AcDbLine
 10
116.8375
 20
-68.4125
 30
0.0
 11
116.8375
 21
-55.41249999999999
 31
0.0
  0
ARC
  5
457
330
1D
100
AcDbEntity
  8
BLACK
100
AcDbCircle
 10
116.3375
 20
-55.41249999999999
 30
0.0
 40
0.5
100
AcDbArc
 50
0.0
 51
90.0
  0
LINE
  5
458
330
1D
100
AcDbEntity
  8
BLACK
  6
Continuous
100
AcDbLine
 10
116.3375
 20
-54.91249999999999
 30
0.0
 11
102.7375
 21
-54.91249999999999
 31
0.0
  0
ARC
  5
459
330
1D
100
AcDbEntity
  8
BLACK
100
AcDbCircle
 10
102.7375
 20
-55.41249999999999
 30
0.0
 40
0.5
100
AcDbArc
 50
90.0
 51
180.0
  0
LINE
  5
45A
330
1D
100
AcDbEntity
  8
BLACK
  6
Continuous
100
AcDbLine
 10
102.2375
 20
-55.41249999999999
 30
0.0
 11
102.2375
 21
-68.4125
 31
0.0
  0
LINE
  5
45B
330
1D
100
AcDbEntity
  8
BLACK
  6
Continuous
100
AcDbLine
 10
97.975
 20
-49.8625
 30
0.0
 11
111.575
 21
-49.8625
 31
0.0
  0
ARC
  5
45C
330
1D
100
AcDbEntity
  8
BLACK
100
AcDbCircle
 10
111.575
 20
-49.3625
 30
0.0
 40
0.5
100
AcDbArc
 50
270.0
 51
0.0
  0
LINE
  5
45D
330
1D
100
AcDbEntity
  8
BLACK
  6
Continuous
100
AcDbLine
 10
112.075
 20
-49.3625
 30
0.0
 11
112.075
 21
-36.3625
 31
0.0
  0
ARC
  5
45E
330
1D
100
AcDbEntity
  8
BLACK
100
AcDbCircle
 10
111.575
 20
-36.3625
 30
0.0
 40
0.5
100
AcDbArc
 50
0.0
 51
90.0
  0
LINE
  5
45F
330
1D
100
AcDbEntity
  8
BLACK
  6
Continuous
100
AcDbLine
 10
111.575
 20
-35.8625
 30
0.0
 11
97.975
 21
-35.8625
 31
0.0
  0
ARC
  5
460
330
1D
100
AcDbEntity
  8
BLACK
100
AcDbCircle
 10
97.975
 20
-36.3625
 30
0.0
 40
0.5
100
AcDbArc
 50
90.0
 51
180.0
  0
LINE
  5
461
330
1D
100
AcDbEntity
  8
BLACK
  6
Continuous
100
AcDbLine
 10
97.475
 20
-36.3625
 30
0.0
 11
97.475
 21
-49.3625
 31
0.0
  0
ARC
  5
462
330
1D
100
AcDbEntity
  8
BLACK
100
AcDbCircle
 10
97.975
 20
-49.3625
 30
0.0
 40
0.5
100
AcDbArc
 50
180.0
 51
270.0
  0
ARC
  5
463
330
1D
100
AcDbEntity
  8
BLACK
100
AcDbCircle
 10
78.925
 20
-49.3625
 30
0.0
 40
0.5
100
AcDbArc
 50
180.0
 51
270.0
  0
LINE
  5
464
330
1D
100
AcDbEntity
  8
BLACK
  6
Continuous
100
AcDbLine
 10
78.925
 20
-49.8625
 30
0.0
 11
92.52499999999999
 21
-49.8625
 31
0.0
  0
ARC
  5
465
330
1D
100
AcDbEntity
  8
BLACK
100
AcDbCircle
 10
92.52499999999999
 20
-49.3625
 30
0.0
 40
0.5
100
AcDbArc
 50
270.0
 51
0.0
  0
LINE
  5
466
330
1D
100
AcDbEntity
  8
BLACK
  6
Continuous
100
AcDbLine
 10
93.02499999999999
 20
-49.3625
 30
0.0
 11
93.02499999999999
 21
-36.3625
 31
0.0
  0
ARC
  5
467
330
1D
100
AcDbEntity
  8
BLACK
100
AcDbCircle
 10
92.52499999999999
 20
-36.3625
 30
0.0
 40
0.5
100
AcDbArc
 50
0.0
 51
90.0
  0
LINE
  5
468
330
1D
100
AcDbEntity
  8
BLACK
  6
Continuous
100
AcDbLine
 10
92.52499999999999
 20
-35.8625
 30
0.0
 11
78.925
 21
-35.8625
 31
0.0
  0
ARC
  5
469
330
1D
100
AcDbEntity
  8
BLACK
100
AcDbCircle
 10
78.925
 20
-36.3625
 30
0.0
 40
0.5
100
AcDbArc
 50
90.0
 51
180.0
  0
LINE
  5
46A
330
1D
100
AcDbEntity
  8
BLACK
  6
Continuous
100
AcDbLine
 10
78.425
 20
-36.3625
 30
0.0
 11
78.425
 21
-49.3625
 31
0.0
  0
ARC
  5
46B
330
1D
100
AcDbEntity
  8
BLACK
100
AcDbCircle
 10
64.6375
 20
-55.41249999999999
 30
0.0
 40
0.5
100
AcDbArc
 50
90.0
 51
180.0
  0
LINE
  5
46C
330
1D
100
AcDbEntity
  8
BLACK
  6
Continuous
100
AcDbLine
 10
64.1375
 20
-55.41249999999999
 30
0.0
 11
64.1375
 21
-68.4125
 31
0.0
  0
ARC
  5
46D
330
1D
100
AcDbEntity
  8
BLACK
100
AcDbCircle
 10
64.6375
 20
-68.4125
 30
0.0
 40
0.5
100
AcDbArc
 50
180.0
 51
270.0
  0
LINE
  5
46E
330
1D
100
AcDbEntity
  8
BLACK
  6
Continuous
100
AcDbLine
 10
64.6375
 20
-68.9125
 30
0.0
 11
78.2375
 21
-68.9125
 31
0.0
  0
ARC
  5
46F
330
1D
100
AcDbEntity
  8
BLACK
100
AcDbCircle
 10
78.2375
 20
-68.4125
 30
0.0
 40
0.5
100
AcDbArc
 50
270.0
 51
0.0
  0
LINE
  5
470
330
1D
100
AcDbEntity
  8
BLACK
  6
Continuous
100
AcDbLine
 10
78.7375
 20
-68.4125
 30
0.0
 11
78.7375
 21
-55.41249999999999
 31
0.0
  0
ARC
  5
471
330
1D
100
AcDbEntity
  8
BLACK
100
AcDbCircle
 10
78.2375
 20
-55.41249999999999
 30
0.0
 40
0.5
100
AcDbArc
 50
0.0
 51
90.0
  0
LINE
  5
472
330
1D
100
AcDbEntity
  8
BLACK
  6
Continuous
100
AcDbLine
 10
78.2375
 20
-54.91249999999999
 30
0.0
 11
64.6375
 21
-54.91249999999999
 31
0.0
  0
LINE
  5
473
330
1D
100
AcDbEntity
  8
BLACK
  6
Continuous
100
AcDbLine
 10
159.2
 20
-16.8125
 30
0.0
 11
145.6
 21
-16.8125
 31
0.0
  0
ARC
  5
474
330
1D
100
AcDbEntity
  8
BLACK
100
AcDbCircle
 10
145.6
 20
-17.3125
 30
0.0
 40
0.5
100
AcDbArc
 50
90.0
 51
180.0
  0
LINE
  5
475
330
1D
100
AcDbEntity
  8
BLACK
  6
Continuous
100
AcDbLine
 10
145.1
 20
-17.3125
 30
0.0
 11
145.1
 21
-30.3125
 31
0.0
  0
ARC
  5
476
330
1D
100
AcDbEntity
  8
BLACK
100
AcDbCircle
 10
145.6
 20
-30.3125
 30
0.0
 40
0.5
100
AcDbArc
 50
180.0
 51
270.0
  0
LINE
  5
477
330
1D
100
AcDbEntity
  8
BLACK
  6
Continuous
100
AcDbLine
 10
145.6
 20
-30.8125
 30
0.0
 11
159.2
 21
-30.8125
 31
0.0
  0
ARC
  5
478
330
1D
100
AcDbEntity
  8
BLACK
100
AcDbCircle
 10
159.2
 20
-30.3125
 30
0.0
 40
0.5
100
AcDbArc
 50
270.0
 51
0.0
  0
LINE
  5
479
330
1D
100
AcDbEntity
  8
BLACK
  6
Continuous
100
AcDbLine
 10
159.7
 20
-30.3125
 30
0.0
 11
159.7
 21
-17.3125
 31
0.0
  0
ARC
  5
47A
330
1D
100
AcDbEntity
  8
BLACK
100
AcDbCircle
 10
159.2
 20
-17.3125
 30
0.0
 40
0.5
100
AcDbArc
 50
0.0
 51
90.0
  0
ARC
  5
47B
330
1D
100
AcDbEntity
  8
BLACK
100
AcDbCircle
 10
112.2625
 20
-74.46249999999999
 30
0.0
 40
0.5
100
AcDbArc
 50
90.0
 51
180.0
  0
LINE
  5
47C
330
1D
100
AcDbEntity
  8
BLACK
  6
Continuous
100
AcDbLine
 10
111.7625
 20
-74.46249999999999
 30
0.0
 11
111.7625
 21
-87.46249999999999
 31
0.0
  0
ARC
  5
47D
330
1D
100
AcDbEntity
  8
BLACK
100
AcDbCircle
 10
112.2625
 20
-87.46249999999999
 30
0.0
 40
0.5
100
AcDbArc
 50
180.0
 51
270.0
  0
LINE
  5
47E
330
1D
100
AcDbEntity
  8
BLACK
  6
Continuous
100
AcDbLine
 10
112.2625
 20
-87.96249999999999
 30
0.0
 11
125.8625
 21
-87.96249999999999
 31
0.0
  0
ARC
  5
47F
330
1D
100
AcDbEntity
  8
BLACK
100
AcDbCircle
 10
125.8625
 20
-87.46249999999999
 30
0.0
 40
0.5
100
AcDbArc
 50
270.0
 51
0.0
  0
LINE
  5
480
330
1D
100
AcDbEntity
  8
BLACK
  6
Continuous
100
AcDbLine
 10
126.3625
 20
-87.46249999999999
 30
0.0
 11
126.3625
 21
-74.46249999999999
 31
0.0
  0
ARC
  5
481
330
1D
100
AcDbEntity
  8
BLACK
100
AcDbCircle
 10
125.8625
 20
-74.46249999999999
 30
0.0
 40
0.5
100
AcDbArc
 50
0.0
 51
90.0
  0
LINE
  5
482
330
1D
100
AcDbEntity
  8
BLACK
  6
Continuous
100
AcDbLine
 10
125.8625
 20
-73.96249999999999
 30
0.0
 11
112.2625
 21
-73.96249999999999
 31
0.0
  0
ARC
  5
483
330
1D
100
AcDbEntity
  8
BLACK
100
AcDbCircle
 10
68.71249999999999
 20
-74.46249999999999
 30
0.0
 40
0.5
100
AcDbArc
 50
0.0
 51
90.0
  0
LINE
  5
484
330
1D
100
AcDbEntity
  8
BLACK
  6
Continuous
100
AcDbLine
 10
68.71249999999999
 20
-73.96249999999999
 30
0.0
 11
55.1125
 21
-73.96249999999999
 31
0.0
  0
ARC
  5
485
330
1D
100
AcDbEntity
  8
BLACK
100
AcDbCircle
 10
55.1125
 20
-74.46249999999999
 30
0.0
 40
0.5
100
AcDbArc
 50
90.0
 51
180.0
  0
LINE
  5
486
330
1D
100
AcDbEntity
  8
BLACK
  6
Continuous
100
AcDbLine
 10
54.6125
 20
-74.46249999999999
 30
0.0
 11
54.6125
 21
-87.46249999999999
 31
0.0
  0
ARC
  5
487
330
1D
100
AcDbEntity
  8
BLACK
100
AcDbCircle
 10
55.1125
 20
-87.46249999999999
 30
0.0
 40
0.5
100
AcDbArc
 50
180.0
 51
270.0
  0
LINE
  5
488
330
1D
100
AcDbEntity
  8
BLACK
  6
Continuous
100
AcDbLine
 10
55.1125
 20
-87.96249999999999
 30
0.0
 11
68.71249999999999
 21
-87.96249999999999
 31
0.0
  0
ARC
  5
489
330
1D
100
AcDbEntity
  8
BLACK
100
AcDbCircle
 10
68.71249999999999
 20
-87.46249999999999
 30
0.0
 40
0.5
100
AcDbArc
 50
270.0
 51
0.0
  0
LINE
  5
48A
330
1D
100
AcDbEntity
  8
BLACK
  6
Continuous
100
AcDbLine
 10
69.21249999999999
 20
-87.46249999999999
 30
0.0
 11
69.21249999999999
 21
-74.46249999999999
 31
0.0
  0
ARC
  5
48B
330
1D
100
AcDbEntity
  8
BLACK
100
AcDbCircle
 10
73.475
 20
-49.3625
 30
0.0
 40
0.5
100
AcDbArc
 50
270.0
 51
0.0
  0
LINE
  5
48C
330
1D
100
AcDbEntity
  8
BLACK
  6
Continuous
100
AcDbLine
 10
73.975
 20
-49.3625
 30
0.0
 11
73.975
 21
-36.3625
 31
0.0
  0
ARC
  5
48D
330
1D
100
AcDbEntity
  8
BLACK
100
AcDbCircle
 10
73.475
 20
-36.3625
 30
0.0
 40
0.5
100
AcDbArc
 50
0.0
 51
90.0
  0
LINE
  5
48E
330
1D
100
AcDbEntity
  8
BLACK
  6
Continuous
100
AcDbLine
 10
73.475
 20
-35.8625
 30
0.0
 11
59.875
 21
-35.8625
 31
0.0
  0
ARC
  5
48F
330
1D
100
AcDbEntity
  8
BLACK
100
AcDbCircle
 10
59.875
 20
-36.3625
 30
0.0
 40
0.5
100
AcDbArc
 50
90.0
 51
180.0
  0
LINE
  5
490
330
1D
100
AcDbEntity
  8
BLACK
  6
Continuous
100
AcDbLine
 10
59.375
 20
-36.3625
 30
0.0
 11
59.375
 21
-49.3625
 31
0.0
  0
ARC
  5
491
330
1D
100
AcDbEntity
  8
BLACK
100
AcDbCircle
 10
59.875
 20
-49.3625
 30
0.0
 40
0.5
100
AcDbArc
 50
180.0
 51
270.0
  0
LINE
  5
492
330
1D
100
AcDbEntity
  8
BLACK
  6
Continuous
100
AcDbLine
 10
59.875
 20
-49.8625
 30
0.0
 11
73.475
 21
-49.8625
 31
0.0
  0
LINE
  5
493
330
1D
100
AcDbEntity
  8
BLACK
  6
Continuous
100
AcDbLine
 10
87.7625
 20
-73.96249999999999
 30
0.0
 11
74.1625
 21
-73.96249999999999
 31
0.0
  0
ARC
  5
494
330
1D
100
AcDbEntity
  8
BLACK
100
AcDbCircle
 10
74.1625
 20
-74.46249999999999
 30
0.0
 40
0.5
100
AcDbArc
 50
90.0
 51
180.0
  0
LINE
  5
495
330
1D
100
AcDbEntity
  8
BLACK
  6
Continuous
100
AcDbLine
 10
73.6625
 20
-74.46249999999999
 30
0.0
 11
73.6625
 21
-87.46249999999999
 31
0.0
  0
ARC
  5
496
330
1D
100
AcDbEntity
  8
BLACK
100
AcDbCircle
 10
74.1625
 20
-87.46249999999999
 30
0.0
 40
0.5
100
AcDbArc
 50
180.0
 51
270.0
  0
LINE
  5
497
330
1D
100
AcDbEntity
  8
BLACK
  6
Continuous
100
AcDbLine
 10
74.1625
 20
-87.96249999999999
 30
0.0
 11
87.7625
 21
-87.96249999999999
 31
0.0
  0
ARC
  5
498
330
1D
100
AcDbEntity
  8
BLACK
100
AcDbCircle
 10
87.7625
 20
-87.46249999999999
 30
0.0
 40
0.5
100
AcDbArc
 50
270.0
 51
0.0
  0
LINE
  5
499
330
1D
100
AcDbEntity
  8
BLACK
  6
Continuous
100
AcDbLine
 10
88.2625
 20
-87.46249999999999
 30
0.0
 11
88.2625
 21
-74.46249999999999
 31
0.0
  0
ARC
  5
49A
330
1D
100
AcDbEntity
  8
BLACK
100
AcDbCircle
 10
87.7625
 20
-74.46249999999999
 30
0.0
 40
0.5
100
AcDbArc
 50
0.0
 51
90.0
  0
ARC
  5
49B
330
1D
100
AcDbEntity
  8
BLACK
100
AcDbCircle
 10
121.7875
 20
-68.4125
 30
0.0
 40
0.5
100
AcDbArc
 50
180.0
 51
270.0
  0
LINE
  5
49C
330
1D
100
AcDbEntity
  8
BLACK
  6
Continuous
100
AcDbLine
 10
121.7875
 20
-68.9125
 30
0.0
 11
135.3875
 21
-68.9125
 31
0.0
  0
ARC
  5
49D
330
1D
100
AcDbEntity
  8
BLACK
100
AcDbCircle
 10
135.3875
 20
-68.4125
 30
0.0
 40
0.5
100
AcDbArc
 50
270.0
 51
0.0
  0
LINE
  5
49E
330
1D
100
AcDbEntity
  8
BLACK
  6
Continuous
100
AcDbLine
 10
135.8875
 20
-68.4125
 30
0.0
 11
135.8875
 21
-55.41249999999999
 31
0.0
  0
ARC
  5
49F
330
1D
100
AcDbEntity
  8
BLACK
100
AcDbCircle
 10
135.3875
 20
-55.41249999999999
 30
0.0
 40
0.5
100
AcDbArc
 50
0.0
 51
90.0
  0
LINE
  5
4A0
330
1D
100
AcDbEntity
  8
BLACK
  6
Continuous
100
AcDbLine
 10
135.3875
 20
-54.91249999999999
 30
0.0
 11
121.7875
 21
-54.91249999999999
 31
0.0
  0
ARC
  5
4A1
330
1D
100
AcDbEntity
  8
BLACK
100
AcDbCircle
 10
121.7875
 20
-55.41249999999999
 30
0.0
 40
0.5
100
AcDbArc
 50
90.0
 51
180.0
  0
LINE
  5
4A2
330
1D
100
AcDbEntity
  8
BLACK
  6
Continuous
100
AcDbLine
 10
121.2875
 20
-55.41249999999999
 30
0.0
 11
121.2875
 21
-68.4125
 31
0.0
  0
ARC
  5
4A3
330
1D
100
AcDbEntity
  8
BLACK
100
AcDbCircle
 10
117.025
 20
-49.3625
 30
0.0
 40
0.5
100
AcDbArc
 50
180.0
 51
270.0
  0
LINE
  5
4A4
330
1D
100
AcDbEntity
  8
BLACK
  6
Continuous
100
AcDbLine
 10
117.025
 20
-49.8625
 30
0.0
 11
130.625
 21
-49.8625
 31
0.0
  0
ARC
  5
4A5
330
1D
100
AcDbEntity
  8
BLACK
100
AcDbCircle
 10
130.625
 20
-49.3625
 30
0.0
 40
0.5
100
AcDbArc
 50
270.0
 51
0.0
  0
LINE
  5
4A6
330
1D
100
AcDbEntity
  8
BLACK
  6
Continuous
100
AcDbLine
 10
131.125
 20
-49.3625
 30
0.0
 11
131.125
 21
-36.3625
 31
0.0
  0
ARC
  5
4A7
330
1D
100
AcDbEntity
  8
BLACK
100
AcDbCircle
 10
130.625
 20
-36.3625
 30
0.0
 40
0.5
100
AcDbArc
 50
0.0
 51
90.0
  0
LINE
  5
4A8
330
1D
100
AcDbEntity
  8
BLACK
  6
Continuous
100
AcDbLine
 10
130.625
 20
-35.8625
 30
0.0
 11
117.025
 21
-35.8625
 31
0.0
  0
ARC
  5
4A9
330
1D
100
AcDbEntity
  8
BLACK
100
AcDbCircle
 10
117.025
 20
-36.3625
 30
0.0
 40
0.5
100
AcDbArc
 50
90.0
 51
180.0
  0
LINE
  5
4AA
330
1D
100
AcDbEntity
  8
BLACK
  6
Continuous
100
AcDbLine
 10
116.525
 20
-36.3625
 30
0.0
 11
116.525
 21
-49.3625
 31
0.0
  0
CIRCLE
  5
4AB
330
1D
100
AcDbEntity
  8
BLACK
100
AcDbCircle
 10
90.4875
 20
-80.96249999999999
 30
0.0
 40
1.0
  0
ARC
  5
4AC
330
1D
100
AcDbEntity
  8
BLACK
100
AcDbCircle
 10
131.3125
 20
-74.46249999999999
 30
0.0
 40
0.5
100
AcDbArc
 50
90.0
 51
180.0
  0
LINE
  5
4AD
330
1D
100
AcDbEntity
  8
BLACK
  6
Continuous
100
AcDbLine
 10
130.8125
 20
-74.46249999999999
 30
0.0
 11
130.8125
 21
-87.46249999999999
 31
0.0
  0
ARC
  5
4AE
330
1D
100
AcDbEntity
  8
BLACK
100
AcDbCircle
 10
131.3125
 20
-87.46249999999999
 30
0.0
 40
0.5
100
AcDbArc
 50
180.0
 51
270.0
  0
LINE
  5
4AF
330
1D
100
AcDbEntity
  8
BLACK
  6
Continuous
100
AcDbLine
 10
131.3125
 20
-87.96249999999999
 30
0.0
 11
144.9125
 21
-87.96249999999999
 31
0.0
  0
ARC
  5
4B0
330
1D
100
AcDbEntity
  8
BLACK
100
AcDbCircle
 10
144.9125
 20
-87.46249999999999
 30
0.0
 40
0.5
100
AcDbArc
 50
270.0
 51
0.0
  0
LINE
  5
4B1
330
1D
100
AcDbEntity
  8
BLACK
  6
Continuous
100
AcDbLine
 10
145.4125
 20
-87.46249999999999
 30
0.0
 11
145.4125
 21
-74.46249999999999
 31
0.0
  0
ARC
  5
4B2
330
1D
100
AcDbEntity
  8
BLACK
100
AcDbCircle
 10
144.9125
 20
-74.46249999999999
 30
0.0
 40
0.5
100
AcDbArc
 50
0.0
 51
90.0
  0
LINE
  5
4B3
330
1D
100
AcDbEntity
  8
BLACK
  6
Continuous
100
AcDbLine
 10
144.9125
 20
-73.96249999999999
 30
0.0
 11
131.3125
 21
-73.96249999999999
 31
0.0
  0
ARC
  5
4B4
330
1D
100
AcDbEntity
  8
BLACK
100
AcDbCircle
 10
26.5375
 20
-55.41249999999999
 30
0.0
 40
0.5
100
AcDbArc
 50
90.0
 51
180.0
  0
LINE
  5
4B5
330
1D
100
AcDbEntity
  8
BLACK
  6
Continuous
100
AcDbLine
 10
26.0375
 20
-55.41249999999999
 30
0.0
 11
26.0375
 21
-68.4125
 31
0.0
  0
ARC
  5
4B6
330
1D
100
AcDbEntity
  8
BLACK
100
AcDbCircle
 10
26.5375
 20
-68.4125
 30
0.0
 40
0.5
100
AcDbArc
 50
180.0
 51
270.0
  0
LINE
  5
4B7
330
1D
100
AcDbEntity
  8
BLACK
  6
Continuous
100
AcDbLine
 10
26.5375
 20
-68.9125
 30
0.0
 11
40.1375
 21
-68.9125
 31
0.0
  0
ARC
  5
4B8
330
1D
100
AcDbEntity
  8
BLACK
100
AcDbCircle
 10
40.1375
 20
-68.4125
 30
0.0
 40
0.5
100
AcDbArc
 50
270.0
 51
0.0
  0
LINE
  5
4B9
330
1D
100
AcDbEntity
  8
BLACK
  6
Continuous
100
AcDbLine
 10
40.6375
 20
-68.4125
 30
0.0
 11
40.6375
 21
-55.41249999999999
 31
0.0
  0
ARC
  5
4BA
330
1D
100
AcDbEntity
  8
BLACK
100
AcDbCircle
 10
40.1375
 20
-55.41249999999999
 30
0.0
 40
0.5
100
AcDbArc
 50
0.0
 51
90.0
  0
LINE
  5
4BB
330
1D
100
AcDbEntity
  8
BLACK
  6
Continuous
100
AcDbLine
 10
40.1375
 20
-54.91249999999999
 30
0.0
 11
26.5375
 21
-54.91249999999999
 31
0.0
  0
LINE
  5
4BC
330
1D
100
AcDbEntity
  8
BLACK
  6
Continuous
100
AcDbLine
 10
163.9625
 20
-73.96249999999999
 30
0.0
 11
150.3625
 21
-73.96249999999999
 31
0.0
  0
ARC
  5
4BD
330
1D
100
AcDbEntity
  8
BLACK
100
AcDbCircle
 10
150.3625
 20
-74.46249999999999
 30
0.0
 40
0.5
100
AcDbArc
 50
90.0
 51
180.0
  0
LINE
  5
4BE
330
1D
100
AcDbEntity
  8
BLACK
  6
Continuous
100
AcDbLine
 10
149.8625
 20
-74.46249999999999
 30
0.0
 11
149.8625
 21
-87.46249999999999
 31
0.0
  0
ARC
  5
4BF
330
1D
100
AcDbEntity
  8
BLACK
100
AcDbCircle
 10
150.3625
 20
-87.46249999999999
 30
0.0
 40
0.5
100
AcDbArc
 50
180.0
 51
270.0
  0
LINE
  5
4C0
330
1D
100
AcDbEntity
  8
BLACK
  6
Continuous
100
AcDbLine
 10
150.3625
 20
-87.96249999999999
 30
0.0
 11
163.9625
 21
-87.96249999999999
 31
0.0
  0
ARC
  5
4C1
330
1D
100
AcDbEntity
  8
BLACK
100
AcDbCircle
 10
163.9625
 20
-87.46249999999999
 30
0.0
 40
0.5
100
AcDbArc
 50
270.0
 51
0.0
  0
LINE
  5
4C2
330
1D
100
AcDbEntity
  8
BLACK
  6
Continuous
100
AcDbLine
 10
164.4625
 20
-87.46249999999999
 30
0.0
 11
164.4625
 21
-74.46249999999999
 31
0.0
  0
ARC
  5
4C3
330
1D
100
AcDbEntity
  8
BLACK
100
AcDbCircle
 10
163.9625
 20
-74.46249999999999
 30
0.0
 40
0.5
100
AcDbArc
 50
0.0
 51
90.0
  0
ARC
  5
4C4
330
1D
100
AcDbEntity
  8
BLACK
100
AcDbCircle
 10
283.7125
 20
-93.5125
 30
0.0
 40
0.5
100
AcDbArc
 50
90.0
 51
180.0
  0
LINE
  5
4C5
330
1D
100
AcDbEntity
  8
BLACK
  6
Continuous
100
AcDbLine
 10
283.2125
 20
-93.5125
 30
0.0
 11
283.2125
 21
-106.5125
 31
0.0
  0
ARC
  5
4C6
330
1D
100
AcDbEntity
  8
BLACK
100
AcDbCircle
 10
283.7125
 20
-106.5125
 30
0.0
 40
0.5
100
AcDbArc
 50
180.0
 51
270.0
  0
LINE
  5
4C7
330
1D
100
AcDbEntity
  8
BLACK
  6
Continuous
100
AcDbLine
 10
283.7125
 20
-107.0125
 30
0.0
 11
297.3125
 21
-107.0125
 31
0.0
  0
ARC
  5
4C8
330
1D
100
AcDbEntity
  8
BLACK
100
AcDbCircle
 10
297.3125
 20
-106.5125
 30
0.0
 40
0.5
100
AcDbArc
 50
270.0
 51
0.0
  0
LINE
  5
4C9
330
1D
100
AcDbEntity
  8
BLACK
  6
Continuous
100
AcDbLine
 10
297.8125
 20
-106.5125
 30
0.0
 11
297.8125
 21
-93.5125
 31
0.0
  0
ARC
  5
4CA
330
1D
100
AcDbEntity
  8
BLACK
100
AcDbCircle
 10
297.3125
 20
-93.5125
 30
0.0
 40
0.5
100
AcDbArc
 50
0.0
 51
90.0
  0
LINE
  5
4CB
330
1D
100
AcDbEntity
  8
BLACK
  6
Continuous
100
AcDbLine
 10
297.3125
 20
-93.0125
 30
0.0
 11
283.7125
 21
-93.0125
 31
0.0
  0
ARC
  5
4CC
330
1D
100
AcDbEntity
  8
BLACK
100
AcDbCircle
 10
187.775
 20
-49.3625
 30
0.0
 40
0.5
100
AcDbArc
 50
270.0
 51
0.0
  0
LINE
  5
4CD
330
1D
100
AcDbEntity
  8
BLACK
  6
Continuous
100
AcDbLine
 10
188.275
 20
-49.3625
 30
0.0
 11
188.275
 21
-36.3625
 31
0.0
  0
ARC
  5
4CE
330
1D
100
AcDbEntity
  8
BLACK
100
AcDbCircle
 10
187.775
 20
-36.3625
 30
0.0
 40
0.5
100
AcDbArc
 50
0.0
 51
90.0
  0
LINE
  5
4CF
330
1D
100
AcDbEntity
  8
BLACK
  6
Continuous
100
AcDbLine
 10
187.775
 20
-35.8625
 30
0.0
 11
174.175
 21
-35.8625
 31
0.0
  0
ARC
  5
4D0
330
1D
100
AcDbEntity
  8
BLACK
100
AcDbCircle
 10
174.175
 20
-36.3625
 30
0.0
 40
0.5
100
AcDbArc
 50
90.0
 51
180.0
  0
LINE
  5
4D1
330
1D
100
AcDbEntity
  8
BLACK
  6
Continuous
100
AcDbLine
 10
173.675
 20
-36.3625
 30
0.0
 11
173.675
 21
-49.3625
 31
0.0
  0
ARC
  5
4D2
330
1D
100
AcDbEntity
  8
BLACK
100
AcDbCircle
 10
174.175
 20
-49.3625
 30
0.0
 40
0.5
100
AcDbArc
 50
180.0
 51
270.0
  0
LINE
  5
4D3
330
1D
100
AcDbEntity
  8
BLACK
  6
Continuous
100
AcDbLine
 10
174.175
 20
-49.8625
 30
0.0
 11
187.775
 21
-49.8625
 31
0.0
  0
LINE
  5
4D4
330
1D
100
AcDbEntity
  8
BLACK
  6
Continuous
100
AcDbLine
 10
297.8125
 20
-49.3625
 30
0.0
 11
297.8125
 21
-36.3625
 31
0.0
  0
ARC
  5
4D5
330
1D
100
AcDbEntity
  8
BLACK
100
AcDbCircle
 10
297.3125
 20
-36.3625
 30
0.0
 40
0.5
100
AcDbArc
 50
0.0
 51
90.0
  0
LINE
  5
4D6
330
1D
100
AcDbEntity
  8
BLACK
  6
Continuous
100
AcDbLine
 10
297.3125
 20
-35.8625
 30
0.0
 11
283.7125
 21
-35.8625
 31
0.0
  0
ARC
  5
4D7
330
1D
100
AcDbEntity
  8
BLACK
100
AcDbCircle
 10
283.7125
 20
-36.3625
 30
0.0
 40
0.5
100
AcDbArc
 50
90.0
 51
180.0
  0
LINE
  5
4D8
330
1D
100
AcDbEntity
  8
BLACK
  6
Continuous
100
AcDbLine
 10
283.2125
 20
-36.3625
 30
0.0
 11
283.2125
 21
-49.3625
 31
0.0
  0
ARC
  5
4D9
330
1D
100
AcDbEntity
  8
BLACK
100
AcDbCircle
 10
283.7125
 20
-49.3625
 30
0.0
 40
0.5
100
AcDbArc
 50
180.0
 51
270.0
  0
LINE
  5
4DA
330
1D
100
AcDbEntity
  8
BLACK
  6
Continuous
100
AcDbLine
 10
283.7125
 20
-49.8625
 30
0.0
 11
297.3125
 21
-49.8625
 31
0.0
  0
ARC
  5
4DB
330
1D
100
AcDbEntity
  8
BLACK
100
AcDbCircle
 10
297.3125
 20
-49.3625
 30
0.0
 40
0.5
100
AcDbArc
 50
270.0
 51
0.0
  0
LINE
  5
4DC
330
1D
100
AcDbEntity
  8
BLACK
  6
Continuous
100
AcDbLine
 10
126.55
 20
-30.8125
 30
0.0
 11
140.15
 21
-30.8125
 31
0.0
  0
ARC
  5
4DD
330
1D
100
AcDbEntity
  8
BLACK
100
AcDbCircle
 10
140.15
 20
-30.3125
 30
0.0
 40
0.5
100
AcDbArc
 50
270.0
 51
0.0
  0
LINE
  5
4DE
330
1D
100
AcDbEntity
  8
BLACK
  6
Continuous
100
AcDbLine
 10
140.65
 20
-30.3125
 30
0.0
 11
140.65
 21
-17.3125
 31
0.0
  0
ARC
  5
4DF
330
1D
100
AcDbEntity
  8
BLACK
100
AcDbCircle
 10
140.15
 20
-17.3125
 30
0.0
 40
0.5
100
AcDbArc
 50
0.0
 51
90.0
  0
LINE
  5
4E0
330
1D
100
AcDbEntity
  8
BLACK
  6
Continuous
100
AcDbLine
 10
140.15
 20
-16.8125
 30
0.0
 11
126.55
 21
-16.8125
 31
0.0
  0
ARC
  5
4E1
330
1D
100
AcDbEntity
  8
BLACK
100
AcDbCircle
 10
126.55
 20
-17.3125
 30
0.0
 40
0.5
100
AcDbArc
 50
90.0
 51
180.0
  0
LINE
  5
4E2
330
1D
100
AcDbEntity
  8
BLACK
  6
Continuous
100
AcDbLine
 10
126.05
 20
-17.3125
 30
0.0
 11
126.05
 21
-30.3125
 31
0.0
  0
ARC
  5
4E3
330
1D
100
AcDbEntity
  8
BLACK
100
AcDbCircle
 10
126.55
 20
-30.3125
 30
0.0
 40
0.5
100
AcDbArc
 50
180.0
 51
270.0
  0
LINE
  5
4E4
330
1D
100
AcDbEntity
  8
BLACK
  6
Continuous
100
AcDbLine
 10
45.0875
 20
-55.41249999999999
 30
0.0
 11
45.0875
 21
-68.4125
 31
0.0
  0
ARC
  5
4E5
330
1D
100
AcDbEntity
  8
BLACK
100
AcDbCircle
 10
45.5875
 20
-68.4125
 30
0.0
 40
0.5
100
AcDbArc
 50
180.0
 51
270.0
  0
LINE
  5
4E6
330
1D
100
AcDbEntity
  8
BLACK
  6
Continuous
100
AcDbLine
 10
45.5875
 20
-68.9125
 30
0.0
 11
59.1875
 21
-68.9125
 31
0.0
  0
ARC
  5
4E7
330
1D
100
AcDbEntity
  8
BLACK
100
AcDbCircle
 10
59.1875
 20
-68.4125
 30
0.0
 40
0.5
100
AcDbArc
 50
270.0
 51
0.0
  0
LINE
  5
4E8
330
1D
100
AcDbEntity
  8
BLACK
  6
Continuous
100
AcDbLine
 10
59.6875
 20
-68.4125
 30
0.0
 11
59.6875
 21
-55.41249999999999
 31
0.0
  0
ARC
  5
4E9
330
1D
100
AcDbEntity
  8
BLACK
100
AcDbCircle
 10
59.1875
 20
-55.41249999999999
 30
0.0
 40
0.5
100
AcDbArc
 50
0.0
 51
90.0
  0
LINE
  5
4EA
330
1D
100
AcDbEntity
  8
BLACK
  6
Continuous
100
AcDbLine
 10
59.1875
 20
-54.91249999999999
 30
0.0
 11
45.5875
 21
-54.91249999999999
 31
0.0
  0
ARC
  5
4EB
330
1D
100
AcDbEntity
  8
BLACK
100
AcDbCircle
 10
45.5875
 20
-55.41249999999999
 30
0.0
 40
0.5
100
AcDbArc
 50
90.0
 51
180.0
  0
LINE
  5
4EC
330
1D
100
AcDbEntity
  8
BLACK
  6
Continuous
100
AcDbLine
 10
-6.799999
 20
-30.8125
 30
0.0
 11
6.8
 21
-30.8125
 31
0.0
  0
ARC
  5
4ED
330
1D
100
AcDbEntity
  8
BLACK
100
AcDbCircle
 10
6.8
 20
-30.3125
 30
0.0
 40
0.5
100
AcDbArc
 50
270.0
 51
0.0
  0
LINE
  5
4EE
330
1D
100
AcDbEntity
  8
BLACK
  6
Continuous
100
AcDbLine
 10
7.3
 20
-30.3125
 30
0.0
 11
7.3
 21
-17.3125
 31
0.0
  0
ARC
  5
4EF
330
1D
100
AcDbEntity
  8
BLACK
100
AcDbCircle
 10
6.8
 20
-17.3125
 30
0.0
 40
0.5
100
AcDbArc
 50
0.0
 51
90.0
  0
LINE
  5
4F0
330
1D
100
AcDbEntity
  8
BLACK
  6
Continuous
100
AcDbLine
 10
6.8
 20
-16.8125
 30
0.0
 11
-6.799999
 21
-16.8125
 31
0.0
  0
ARC
  5
4F1
330
1D
100
AcDbEntity
  8
BLACK
100
AcDbCircle
 10
-6.799999
 20
-17.312501
 30
0.0
 40
0.500001
100
AcDbArc
 50
90.0
 51
180.0
  0
LINE
  5
4F2
330
1D
100
AcDbEntity
  8
BLACK
  6
Continuous
100
AcDbLine
 10
-7.3
 20
-17.312501
 30
0.0
 11
-7.3
 21
-30.3125
 31
0.0
  0
ARC
  5
4F3
330
1D
100
AcDbEntity
  8
BLACK
100
AcDbCircle
 10
-6.799999
 20
-30.312499
 30
0.0
 40
0.500001
100
AcDbArc
 50
180.00011459
 51
270.0
  0
CIRCLE
  5
4F4
330
1D
100
AcDbEntity
  8
BLACK
100
AcDbCircle
 10
33.3375
 20
-80.96249999999999
 30
0.0
 40
1.0
  0
LINE
  5
4F5
330
1D
100
AcDbEntity
  8
BLACK
  6
Continuous
100
AcDbLine
 10
150.175
 20
-6.5
 30
0.0
 11
150.175
 21
6.5
 31
0.0
  0
ARC
  5
4F6
330
1D
100
AcDbEntity
  8
BLACK
100
AcDbCircle
 10
149.675
 20
6.5
 30
0.0
 40
0.5
100
AcDbArc
 50
0.0
 51
90.0
  0
LINE
  5
4F7
330
1D
100
AcDbEntity
  8
BLACK
  6
Continuous
100
AcDbLine
 10
149.675
 20
7.0
 30
0.0
 11
136.075
 21
7.0
 31
0.0
  0
ARC
  5
4F8
330
1D
100
AcDbEntity
  8
BLACK
100
AcDbCircle
 10
136.075
 20
6.5
 30
0.0
 40
0.5
100
AcDbArc
 50
90.0
 51
180.0
  0
LINE
  5
4F9
330
1D
100
AcDbEntity
  8
BLACK
  6
Continuous
100
AcDbLine
 10
135.575
 20
6.5
 30
0.0
 11
135.575
 21
-6.5
 31
0.0
  0
ARC
  5
4FA
330
1D
100
AcDbEntity
  8
BLACK
100
AcDbCircle
 10
136.075
 20
-6.5
 30
0.0
 40
0.5
100
AcDbArc
 50
180.0
 51
270.0
  0
LINE
  5
4FB
330
1D
100
AcDbEntity
  8
BLACK
  6
Continuous
100
AcDbLine
 10
136.075
 20
-7.0
 30
0.0
 11
149.675
 21
-7.0
 31
0.0
  0
ARC
  5
4FC
330
1D
100
AcDbEntity
  8
BLACK
100
AcDbCircle
 10
149.675
 20
-6.5
 30
0.0
 40
0.5
100
AcDbArc
 50
270.0
 51
0.0
  0
CIRCLE
  5
4FD
330
1D
100
AcDbEntity
  8
BLACK
100
AcDbCircle
 10
195.2625
 20
0.0
 30
0.0
 40
1.0
  0
LINE
  5
4FE
330
1D
100
AcDbEntity
  8
BLACK
  6
Continuous
100
AcDbLine
 10
168.725
 20
7.0
 30
0.0
 11
155.125
 21
7.0
 31
0.0
  0
ARC
  5
4FF
330
1D
100
AcDbEntity
  8
BLACK
100
AcDbCircle
 10
155.125
 20
6.5
 30
0.0
 40
0.5
100
AcDbArc
 50
90.0
 51
180.0
  0
LINE
  5
500
330
1D
100
AcDbEntity
  8
BLACK
  6
Continuous
100
AcDbLine
 10
154.625
 20
6.5
 30
0.0
 11
154.625
 21
-6.5
 31
0.0
  0
ARC
  5
501
330
1D
100
AcDbEntity
  8
BLACK
100
AcDbCircle
 10
155.125
 20
-6.5
 30
0.0
 40
0.5
100
AcDbArc
 50
180.0
 51
270.0
  0
LINE
  5
502
330
1D
100
AcDbEntity
  8
BLACK
  6
Continuous
100
AcDbLine
 10
155.125
 20
-7.0
 30
0.0
 11
168.725
 21
-7.0
 31
0.0
  0
ARC
  5
503
330
1D
100
AcDbEntity
  8
BLACK
100
AcDbCircle
 10
168.725
 20
-6.5
 30
0.0
 40
0.5
100
AcDbArc
 50
270.0
 51
0.0
  0
LINE
  5
504
330
1D
100
AcDbEntity
  8
BLACK
  6
Continuous
100
AcDbLine
 10
169.225
 20
-6.5
 30
0.0
 11
169.225
 21
6.5
 31
0.0
  0
ARC
  5
505
330
1D
100
AcDbEntity
  8
BLACK
100
AcDbCircle
 10
168.725
 20
6.5
 30
0.0
 40
0.5
100
AcDbArc
 50
0.0
 51
90.0
  0
LINE
  5
506
330
1D
100
AcDbEntity
  8
BLACK
  6
Continuous
100
AcDbLine
 10
183.5125
 20
-87.46249999999999
 30
0.0
 11
183.5125
 21
-74.46249999999999
 31
0.0
  0
ARC
  5
507
330
1D
100
AcDbEntity
  8
BLACK
100
AcDbCircle
 10
183.0125
 20
-74.46249999999999
 30
0.0
 40
0.5
100
AcDbArc
 50
0.0
 51
90.0
  0
LINE
  5
508
330
1D
100
AcDbEntity
  8
BLACK
  6
Continuous
100
AcDbLine
 10
183.0125
 20
-73.96249999999999
 30
0.0
 11
169.4125
 21
-73.96249999999999
 31
0.0
  0
ARC
  5
509
330
1D
100
AcDbEntity
  8
BLACK
100
AcDbCircle
 10
169.4125
 20
-74.46249999999999
 30
0.0
 40
0.5
100
AcDbArc
 50
90.0
 51
180.0
  0
LINE
  5
50A
330
1D
100
AcDbEntity
  8
BLACK
  6
Continuous
100
AcDbLine
 10
168.9125
 20
-74.46249999999999
 30
0.0
 11
168.9125
 21
-87.46249999999999
 31
0.0
  0
ARC
  5
50B
330
1D
100
AcDbEntity
  8
BLACK
100
AcDbCircle
 10
169.4125
 20
-87.46249999999999
 30
0.0
 40
0.5
100
AcDbArc
 50
180.0
 51
270.0
  0
LINE
  5
50C
330
1D
100
AcDbEntity
  8
BLACK
  6
Continuous
100
AcDbLine
 10
169.4125
 20
-87.96249999999999
 30
0.0
 11
183.0125
 21
-87.96249999999999
 31
0.0
  0
ARC
  5
50D
330
1D
100
AcDbEntity
  8
BLACK
100
AcDbCircle
 10
183.0125
 20
-87.46249999999999
 30
0.0
 40
0.5
100
AcDbArc
 50
270.0
 51
0.0
  0
LINE
  5
50E
330
1D
100
AcDbEntity
  8
BLACK
  6
Continuous
100
AcDbLine
 10
88.45
 20
-30.8125
 30
0.0
 11
102.05
 21
-30.8125
 31
0.0
  0
ARC
  5
50F
330
1D
100
AcDbEntity
  8
BLACK
100
AcDbCircle
 10
102.05
 20
-30.3125
 30
0.0
 40
0.5
100
AcDbArc
 50
270.0
 51
0.0
  0
LINE
  5
510
330
1D
100
AcDbEntity
  8
BLACK
  6
Continuous
100
AcDbLine
 10
102.55
 20
-30.3125
 30
0.0
 11
102.55
 21
-17.3125
 31
0.0
  0
ARC
  5
511
330
1D
100
AcDbEntity
  8
BLACK
100
AcDbCircle
 10
102.05
 20
-17.3125
 30
0.0
 40
0.5
100
AcDbArc
 50
0.0
 51
90.0
  0
LINE
  5
512
330
1D
100
AcDbEntity
  8
BLACK
  6
Continuous
100
AcDbLine
 10
102.05
 20
-16.8125
 30
0.0
 11
88.45
 21
-16.8125
 31
0.0
  0
ARC
  5
513
330
1D
100
AcDbEntity
  8
BLACK
100
AcDbCircle
 10
88.45
 20
-17.3125
 30
0.0
 40
0.5
100
AcDbArc
 50
90.0
 51
180.0
  0
LINE
  5
514
330
1D
100
AcDbEntity
  8
BLACK
  6
Continuous
100
AcDbLine
 10
87.95
 20
-17.3125
 30
0.0
 11
87.95
 21
-30.3125
 31
0.0
  0
ARC
  5
515
330
1D
100
AcDbEntity
  8
BLACK
100
AcDbCircle
 10
88.45
 20
-30.3125
 30
0.0
 40
0.5
100
AcDbArc
 50
180.0
 51
270.0
  0
CIRCLE
  5
516
330
1D
100
AcDbEntity
  8
BLACK
100
AcDbCircle
 10
138.1125
 20
-61.91249999999999
 30
0.0
 40
1.0
  0
LINE
  5
517
330
1D
100
AcDbEntity
  8
BLACK
  6
Continuous
100
AcDbLine
 10
192.5375
 20
-54.91249999999999
 30
0.0
 11
178.9375
 21
-54.91249999999999
 31
0.0
  0
ARC
  5
518
330
1D
100
AcDbEntity
  8
BLACK
100
AcDbCircle
 10
178.9375
 20
-55.41249999999999
 30
0.0
 40
0.5
100
AcDbArc
 50
90.0
 51
180.0
  0
LINE
  5
519
330
1D
100
AcDbEntity
  8
BLACK
  6
Continuous
100
AcDbLine
 10
178.4375
 20
-55.41249999999999
 30
0.0
 11
178.4375
 21
-68.4125
 31
0.0
  0
ARC
  5
51A
330
1D
100
AcDbEntity
  8
BLACK
100
AcDbCircle
 10
178.9375
 20
-68.4125
 30
0.0
 40
0.5
100
AcDbArc
 50
180.0
 51
270.0
  0
LINE
  5
51B
330
1D
100
AcDbEntity
  8
BLACK
  6
Continuous
100
AcDbLine
 10
178.9375
 20
-68.9125
 30
0.0
 11
192.5375
 21
-68.9125
 31
0.0
  0
ARC
  5
51C
330
1D
100
AcDbEntity
  8
BLACK
100
AcDbCircle
 10
192.5375
 20
-68.4125
 30
0.0
 40
0.5
100
AcDbArc
 50
270.0
 51
0.0
  0
LINE
  5
51D
330
1D
100
AcDbEntity
  8
BLACK
  6
Continuous
100
AcDbLine
 10
193.0375
 20
-68.4125
 30
0.0
 11
193.0375
 21
-55.41249999999999
 31
0.0
  0
ARC
  5
51E
330
1D
100
AcDbEntity
  8
BLACK
100
AcDbCircle
 10
192.5375
 20
-55.41249999999999
 30
0.0
 40
0.5
100
AcDbArc
 50
0.0
 51
90.0
  0
ARC
  5
51F
330
1D
100
AcDbEntity
  8
BLACK
100
AcDbCircle
 10
321.8125
 20
-49.3625
 30
0.0
 40
0.5
100
AcDbArc
 50
180.0
 51
270.0
  0
LINE
  5
520
330
1D
100
AcDbEntity
  8
BLACK
  6
Continuous
100
AcDbLine
 10
321.8125
 20
-49.8625
 30
0.0
 11
335.4125
 21
-49.8625
 31
0.0
  0
ARC
  5
521
330
1D
100
AcDbEntity
  8
BLACK
100
AcDbCircle
 10
335.4125
 20
-49.3625
 30
0.0
 40
0.5
100
AcDbArc
 50
270.0
 51
0.0
  0
LINE
  5
522
330
1D
100
AcDbEntity
  8
BLACK
  6
Continuous
100
AcDbLine
 10
335.9125
 20
-49.3625
 30
0.0
 11
335.9125
 21
-36.3625
 31
0.0
  0
ARC
  5
523
330
1D
100
AcDbEntity
  8
BLACK
100
AcDbCircle
 10
335.4125
 20
-36.3625
 30
0.0
 40
0.5
100
AcDbArc
 50
0.0
 51
90.0
  0
LINE
  5
524
330
1D
100
AcDbEntity
  8
BLACK
  6
Continuous
100
AcDbLine
 10
335.4125
 20
-35.8625
 30
0.0
 11
321.8125
 21
-35.8625
 31
0.0
  0
ARC
  5
525
330
1D
100
AcDbEntity
  8
BLACK
100
AcDbCircle
 10
321.8125
 20
-36.3625
 30
0.0
 40
0.5
100
AcDbArc
 50
90.0
 51
180.0
  0
LINE
  5
526
330
1D
100
AcDbEntity
  8
BLACK
  6
Continuous
100
AcDbLine
 10
321.3125
 20
-36.3625
 30
0.0
 11
321.3125
 21
-49.3625
 31
0.0
  0
LINE
  5
527
330
1D
100
AcDbEntity
  8
BLACK
  6
Continuous
100
AcDbLine
 10
140.3375
 20
-55.41249999999999
 30
0.0
 11
140.3375
 21
-68.4125
 31
0.0
  0
ARC
  5
528
330
1D
100
AcDbEntity
  8
BLACK
100
AcDbCircle
 10
140.8375
 20
-68.4125
 30
0.0
 40
0.5
100
AcDbArc
 50
180.0
 51
270.0
  0
LINE
  5
529
330
1D
100
AcDbEntity
  8
BLACK
  6
Continuous
100
AcDbLine
 10
140.8375
 20
-68.9125
 30
0.0
 11
154.4375
 21
-68.9125
 31
0.0
  0
ARC
  5
52A
330
1D
100
AcDbEntity
  8
BLACK
100
AcDbCircle
 10
154.4375
 20
-68.4125
 30
0.0
 40
0.5
100
AcDbArc
 50
270.0
 51
0.0
  0
LINE
  5
52B
330
1D
100
AcDbEntity
  8
BLACK
  6
Continuous
100
AcDbLine
 10
154.9375
 20
-68.4125
 30
0.0
 11
154.9375
 21
-55.41249999999999
 31
0.0
  0
ARC
  5
52C
330
1D
100
AcDbEntity
  8
BLACK
100
AcDbCircle
 10
154.4375
 20
-55.41249999999999
 30
0.0
 40
0.5
100
AcDbArc
 50
0.0
 51
90.0
  0
LINE
  5
52D
330
1D
100
AcDbEntity
  8
BLACK
  6
Continuous
100
AcDbLine
 10
154.4375
 20
-54.91249999999999
 30
0.0
 11
140.8375
 21
-54.91249999999999
 31
0.0
  0
ARC
  5
52E
330
1D
100
AcDbEntity
  8
BLACK
100
AcDbCircle
 10
140.8375
 20
-55.41249999999999
 30
0.0
 40
0.5
100
AcDbArc
 50
90.0
 51
180.0
  0
LINE
  5
52F
330
1D
100
AcDbEntity
  8
BLACK
  6
Continuous
100
AcDbLine
 10
169.225
 20
-49.3625
 30
0.0
 11
169.225
 21
-36.3625
 31
0.0
  0
ARC
  5
530
330
1D
100
AcDbEntity
  8
BLACK
100
AcDbCircle
 10
168.725
 20
-36.3625
 30
0.0
 40
0.5
100
AcDbArc
 50
0.0
 51
90.0
  0
LINE
  5
531
330
1D
100
AcDbEntity
  8
BLACK
  6
Continuous
100
AcDbLine
 10
168.725
 20
-35.8625
 30
0.0
 11
155.125
 21
-35.8625
 31
0.0
  0
ARC
  5
532
330
1D
100
AcDbEntity
  8
BLACK
100
AcDbCircle
 10
155.125
 20
-36.3625
 30
0.0
 40
0.5
100
AcDbArc
 50
90.0
 51
180.0
  0
LINE
  5
533
330
1D
100
AcDbEntity
  8
BLACK
  6
Continuous
100
AcDbLine
 10
154.625
 20
-36.3625
 30
0.0
 11
154.625
 21
-49.3625
 31
0.0
  0
ARC
  5
534
330
1D
100
AcDbEntity
  8
BLACK
100
AcDbCircle
 10
155.125
 20
-49.3625
 30
0.0
 40
0.5
100
AcDbArc
 50
180.0
 51
270.0
  0
LINE
  5
535
330
1D
100
AcDbEntity
  8
BLACK
  6
Continuous
100
AcDbLine
 10
155.125
 20
-49.8625
 30
0.0
 11
168.725
 21
-49.8625
 31
0.0
  0
ARC
  5
536
330
1D
100
AcDbEntity
  8
BLACK
100
AcDbCircle
 10
168.725
 20
-49.3625
 30
0.0
 40
0.5
100
AcDbArc
 50
270.0
 51
0.0
  0
ARC
  5
537
330
1D
100
AcDbEntity
  8
BLACK
100
AcDbCircle
 10
130.625
 20
-6.5
 30
0.0
 40
0.5
100
AcDbArc
 50
270.0
 51
0.0
  0
LINE
  5
538
330
1D
100
AcDbEntity
  8
BLACK
  6
Continuous
100
AcDbLine
 10
131.125
 20
-6.5
 30
0.0
 11
131.125
 21
6.5
 31
0.0
  0
ARC
  5
539
330
1D
100
AcDbEntity
  8
BLACK
100
AcDbCircle
 10
130.625
 20
6.5
 30
0.0
 40
0.5
100
AcDbArc
 50
0.0
 51
90.0
  0
LINE
  5
53A
330
1D
100
AcDbEntity
  8
BLACK
  6
Continuous
100
AcDbLine
 10
130.625
 20
7.0
 30
0.0
 11
117.025
 21
7.0
 31
0.0
  0
ARC
  5
53B
330
1D
100
AcDbEntity
  8
BLACK
100
AcDbCircle
 10
117.025
 20
6.5
 30
0.0
 40
0.5
100
AcDbArc
 50
90.0
 51
180.0
  0
LINE
  5
53C
330
1D
100
AcDbEntity
  8
BLACK
  6
Continuous
100
AcDbLine
 10
116.525
 20
6.5
 30
0.0
 11
116.525
 21
-6.5
 31
0.0
  0
ARC
  5
53D
330
1D
100
AcDbEntity
  8
BLACK
100
AcDbCircle
 10
117.025
 20
-6.5
 30
0.0
 40
0.5
100
AcDbArc
 50
180.0
 51
270.0
  0
LINE
  5
53E
330
1D
100
AcDbEntity
  8
BLACK
  6
Continuous
100
AcDbLine
 10
117.025
 20
-7.0
 30
0.0
 11
130.625
 21
-7.0
 31
0.0
  0
LINE
  5
53F
330
1D
100
AcDbEntity
  8
BLACK
  6
Continuous
100
AcDbLine
 10
6.8
 20
7.0
 30
0.0
 11
-6.8
 21
7.0
 31
0.0
  0
ARC
  5
540
330
1D
100
AcDbEntity
  8
BLACK
100
AcDbCircle
 10
-6.799999
 20
6.499999
 30
0.0
 40
0.500001
100
AcDbArc
 50
90.00011459
 51
180.0
  0
LINE
  5
541
330
1D
100
AcDbEntity
  8
BLACK
  6
Continuous
100
AcDbLine
 10
-7.3
 20
6.499999
 30
0.0
 11
-7.3
 21
-6.5
 31
0.0
  0
ARC
  5
542
330
1D
100
AcDbEntity
  8
BLACK
100
AcDbCircle
 10
-6.799999
 20
-6.499999
 30
0.0
 40
0.500001
100
AcDbArc
 50
180.00011459
 51
270.0
  0
LINE
  5
543
330
1D
100
AcDbEntity
  8
BLACK
  6
Continuous
100
AcDbLine
 10
-6.799999
 20
-7.0
 30
0.0
 11
6.8
 21
-7.0
 31
0.0
  0
ARC
  5
544
330
1D
100
AcDbEntity
  8
BLACK
100
AcDbCircle
 10
6.8
 20
-6.5
 30
0.0
 40
0.5
100
AcDbArc
 50
270.0
 51
0.0
  0
LINE
  5
545
330
1D
100
AcDbEntity
  8
BLACK
  6
Continuous
100
AcDbLine
 10
7.3
 20
-6.5
 30
0.0
 11
7.3
 21
6.5
 31
0.0
  0
ARC
  5
546
330
1D
100
AcDbEntity
  8
BLACK
100
AcDbCircle
 10
6.8
 20
6.5
 30
0.0
 40
0.5
100
AcDbArc
 50
0.0
 51
90.0
  0
ARC
  5
547
330
1D
100
AcDbEntity
  8
BLACK
100
AcDbCircle
 10
31.3
 20
-17.3125
 30
0.0
 40
0.5
100
AcDbArc
 50
90.0
 51
180.0
  0
LINE
  5
548
330
1D
100
AcDbEntity
  8
BLACK
  6
Continuous
100
AcDbLine
 10
30.8
 20
-17.3125
 30
0.0
 11
30.8
 21
-30.3125
 31
0.0
  0
ARC
  5
549
330
1D
100
AcDbEntity
  8
BLACK
100
AcDbCircle
 10
31.3
 20
-30.3125
 30
0.0
 40
0.5
100
AcDbArc
 50
180.0
 51
270.0
  0
LINE
  5
54A
330
1D
100
AcDbEntity
  8
BLACK
  6
Continuous
100
AcDbLine
 10
31.3
 20
-30.8125
 30
0.0
 11
44.9
 21
-30.8125
 31
0.0
  0
ARC
  5
54B
330
1D
100
AcDbEntity
  8
BLACK
100
AcDbCircle
 10
44.9
 20
-30.3125
 30
0.0
 40
0.5
100
AcDbArc
 50
270.0
 51
0.0
  0
LINE
  5
54C
330
1D
100
AcDbEntity
  8
BLACK
  6
Continuous
100
AcDbLine
 10
45.4
 20
-30.3125
 30
0.0
 11
45.4
 21
-17.3125
 31
0.0
  0
ARC
  5
54D
330
1D
100
AcDbEntity
  8
BLACK
100
AcDbCircle
 10
44.9
 20
-17.3125
 30
0.0
 40
0.5
100
AcDbArc
 50
0.0
 51
90.0
  0
LINE
  5
54E
330
1D
100
AcDbEntity
  8
BLACK
  6
Continuous
100
AcDbLine
 10
44.9
 20
-16.8125
 30
0.0
 11
31.3
 21
-16.8125
 31
0.0
  0
CIRCLE
  5
54F
330
1D
100
AcDbEntity
  8
BLACK
100
AcDbCircle
 10
114.3
 20
0.0
 30
0.0
 40
1.0
  0
ARC
  5
550
330
1D
100
AcDbEntity
  8
BLACK
100
AcDbCircle
 10
164.65
 20
-17.3125
 30
0.0
 40
0.5
100
AcDbArc
 50
90.0
 51
180.0
  0
LINE
  5
551
330
1D
100
AcDbEntity
  8
BLACK
  6
Continuous
100
AcDbLine
 10
164.15
 20
-17.3125
 30
0.0
 11
164.15
 21
-30.3125
 31
0.0
  0
ARC
  5
552
330
1D
100
AcDbEntity
  8
BLACK
100
AcDbCircle
 10
164.65
 20
-30.3125
 30
0.0
 40
0.5
100
AcDbArc
 50
180.0
 51
270.0
  0
LINE
  5
553
330
1D
100
AcDbEntity
  8
BLACK
  6
Continuous
100
AcDbLine
 10
164.65
 20
-30.8125
 30
0.0
 11
178.25
 21
-30.8125
 31
0.0
  0
ARC
  5
554
330
1D
100
AcDbEntity
  8
BLACK
100
AcDbCircle
 10
178.25
 20
-30.3125
 30
0.0
 40
0.5
100
AcDbArc
 50
270.0
 51
0.0
  0
LINE
  5
555
330
1D
100
AcDbEntity
  8
BLACK
  6
Continuous
100
AcDbLine
 10
178.75
 20
-30.3125
 30
0.0
 11
178.75
 21
-17.3125
 31
0.0
  0
ARC
  5
556
330
1D
100
AcDbEntity
  8
BLACK
100
AcDbCircle
 10
178.25
 20
-17.3125
 30
0.0
 40
0.5
100
AcDbArc
 50
0.0
 51
90.0
  0
LINE
  5
557
330
1D
100
AcDbEntity
  8
BLACK
  6
Continuous
100
AcDbLine
 10
178.25
 20
-16.8125
 30
0.0
 11
164.65
 21
-16.8125
 31
0.0
  0
LINE
  5
558
330
1D
100
AcDbEntity
  8
BLACK
  6
Continuous
100
AcDbLine
 10
183.7
 20
-30.8125
 30
0.0
 11
197.3
 21
-30.8125
 31
0.0
  0
ARC
  5
559
330
1D
100
AcDbEntity
  8
BLACK
100
AcDbCircle
 10
197.3
 20
-30.3125
 30
0.0
 40
0.5
100
AcDbArc
 50
270.0
 51
0.0
  0
LINE
  5
55A
330
1D
100
AcDbEntity
  8
BLACK
  6
Continuous
100
AcDbLine
 10
197.8
 20
-30.3125
 30
0.0
 11
197.8
 21
-17.3125
 31
0.0
  0
ARC
  5
55B
330
1D
100
AcDbEntity
  8
BLACK
100
AcDbCircle
 10
197.3
 20
-17.3125
 30
0.0
 40
0.5
100
AcDbArc
 50
0.0
 51
90.0
  0
LINE
  5
55C
330
1D
100
AcDbEntity
  8
BLACK
  6
Continuous
100
AcDbLine
 10
197.3
 20
-16.8125
 30
0.0
 11
183.7
 21
-16.8125
 31
0.0
  0
ARC
  5
55D
330
1D
100
AcDbEntity
  8
BLACK
100
AcDbCircle
 10
183.7
 20
-17.3125
 30
0.0
 40
0.5
100
AcDbArc
 50
90.0
 51
180.0
  0
LINE
  5
55E
330
1D
100
AcDbEntity
  8
BLACK
  6
Continuous
100
AcDbLine
 10
183.2
 20
-17.3125
 30
0.0
 11
183.2
 21
-30.3125
 31
0.0
  0
ARC
  5
55F
330
1D
100
AcDbEntity
  8
BLACK
100
AcDbCircle
 10
183.7
 20
-30.3125
 30
0.0
 40
0.5
100
AcDbArc
 50
180.0
 51
270.0
  0
CIRCLE
  5
560
330
1D
100
AcDbEntity
  8
BLACK
100
AcDbCircle
 10
185.7375
 20
-80.96249999999999
 30
0.0
 40
1.0
  0
ARC
  5
561
330
1D
100
AcDbEntity
  8
BLACK
100
AcDbCircle
 10
173.4875
 20
-68.4125
 30
0.0
 40
0.5
100
AcDbArc
 50
270.0
 51
0.0
  0
LINE
  5
562
330
1D
100
AcDbEntity
  8
BLACK
  6
Continuous
100
AcDbLine
 10
173.9875
 20
-68.4125
 30
0.0
 11
173.9875
 21
-55.41249999999999
 31
0.0
  0
ARC
  5
563
330
1D
100
AcDbEntity
  8
BLACK
100
AcDbCircle
 10
173.4875
 20
-55.41249999999999
 30
0.0
 40
0.5
100
AcDbArc
 50
0.0
 51
90.0
  0
LINE
  5
564
330
1D
100
AcDbEntity
  8
BLACK
  6
Continuous
100
AcDbLine
 10
173.4875
 20
-54.91249999999999
 30
0.0
 11
159.8875
 21
-54.91249999999999
 31
0.0
  0
ARC
  5
565
330
1D
100
AcDbEntity
  8
BLACK
100
AcDbCircle
 10
159.8875
 20
-55.41249999999999
 30
0.0
 40
0.5
100
AcDbArc
 50
90.0
 51
180.0
  0
LINE
  5
566
330
1D
100
AcDbEntity
  8
BLACK
  6
Continuous
100
AcDbLine
 10
159.3875
 20
-55.41249999999999
 30
0.0
 11
159.3875
 21
-68.4125
 31
0.0
  0
ARC
  5
567
330
1D
100
AcDbEntity
  8
BLACK
100
AcDbCircle
 10
159.8875
 20
-68.4125
 30
0.0
 40
0.5
100
AcDbArc
 50
180.0
 51
270.0
  0
LINE
  5
568
330
1D
100
AcDbEntity
  8
BLACK
  6
Continuous
100
AcDbLine
 10
159.8875
 20
-68.9125
 30
0.0
 11
173.4875
 21
-68.9125
 31
0.0
  0
LINE
  5
569
330
1D
100
AcDbEntity
  8
BLACK
  6
Continuous
100
AcDbLine
 10
49.84999999999999
 20
-17.3125
 30
0.0
 11
49.84999999999999
 21
-30.3125
 31
0.0
  0
ARC
  5
56A
330
1D
100
AcDbEntity
  8
BLACK
100
AcDbCircle
 10
50.34999999999999
 20
-30.3125
 30
0.0
 40
0.5
100
AcDbArc
 50
180.0
 51
270.0
  0
LINE
  5
56B
330
1D
100
AcDbEntity
  8
BLACK
  6
Continuous
100
AcDbLine
 10
50.34999999999999
 20
-30.8125
 30
0.0
 11
63.95
 21
-30.8125
 31
0.0
  0
ARC
  5
56C
330
1D
100
AcDbEntity
  8
BLACK
100
AcDbCircle
 10
63.95
 20
-30.3125
 30
0.0
 40
0.5
100
AcDbArc
 50
270.0
 51
0.0
  0
LINE
  5
56D
330
1D
100
AcDbEntity
  8
BLACK
  6
Continuous
100
AcDbLine
 10
64.45
 20
-30.3125
 30
0.0
 11
64.45
 21
-17.3125
 31
0.0
  0
ARC
  5
56E
330
1D
100
AcDbEntity
  8
BLACK
100
AcDbCircle
 10
63.95
 20
-17.3125
 30
0.0
 40
0.5
100
AcDbArc
 50
0.0
 51
90.0
  0
LINE
  5
56F
330
1D
100
AcDbEntity
  8
BLACK
  6
Continuous
100
AcDbLine
 10
63.95
 20
-16.8125
 30
0.0
 11
50.34999999999999
 21
-16.8125
 31
0.0
  0
ARC
  5
570
330
1D
100
AcDbEntity
  8
BLACK
100
AcDbCircle
 10
50.34999999999999
 20
-17.3125
 30
0.0
 40
0.5
100
AcDbArc
 50
90.0
 51
180.0
  0
LINE
  5
571
330
1D
100
AcDbEntity
  8
BLACK
  6
Continuous
100
AcDbLine
 10
192.725
 20
-36.3625
 30
0.0
 11
192.725
 21
-49.3625
 31
0.0
  0
ARC
  5
572
330
1D
100
AcDbEntity
  8
BLACK
100
AcDbCircle
 10
193.225
 20
-49.3625
 30
0.0
 40
0.5
100
AcDbArc
 50
180.0
 51
270.0
  0
LINE
  5
573
330
1D
100
AcDbEntity
  8
BLACK
  6
Continuous
100
AcDbLine
 10
193.225
 20
-49.8625
 30
0.0
 11
206.825
 21
-49.8625
 31
0.0
  0
ARC
  5
574
330
1D
100
AcDbEntity
  8
BLACK
100
AcDbCircle
 10
206.825
 20
-49.3625
 30
0.0
 40
0.5
100
AcDbArc
 50
270.0
 51
0.0
  0
LINE
  5
575
330
1D
100
AcDbEntity
  8
BLACK
  6
Continuous
100
AcDbLine
 10
207.325
 20
-49.3625
 30
0.0
 11
207.325
 21
-36.3625
 31
0.0
  0
ARC
  5
576
330
1D
100
AcDbEntity
  8
BLACK
100
AcDbCircle
 10
206.825
 20
-36.3625
 30
0.0
 40
0.5
100
AcDbArc
 50
0.0
 51
90.0
  0
LINE
  5
577
330
1D
100
AcDbEntity
  8
BLACK
  6
Continuous
100
AcDbLine
 10
206.825
 20
-35.8625
 30
0.0
 11
193.225
 21
-35.8625
 31
0.0
  0
ARC
  5
578
330
1D
100
AcDbEntity
  8
BLACK
100
AcDbCircle
 10
193.225
 20
-36.3625
 30
0.0
 40
0.5
100
AcDbArc
 50
90.0
 51
180.0
  0
LINE
  5
579
330
1D
100
AcDbEntity
  8
BLACK
  6
Continuous
100
AcDbLine
 10
40.325
 20
-36.3625
 30
0.0
 11
40.325
 21
-49.3625
 31
0.0
  0
ARC
  5
57A
330
1D
100
AcDbEntity
  8
BLACK
100
AcDbCircle
 10
40.825
 20
-49.3625
 30
0.0
 40
0.5
100
AcDbArc
 50
180.0
 51
270.0
  0
LINE
  5
57B
330
1D
100
AcDbEntity
  8
BLACK
  6
Continuous
100
AcDbLine
 10
40.825
 20
-49.8625
 30
0.0
 11
54.425
 21
-49.8625
 31
0.0
  0
ARC
  5
57C
330
1D
100
AcDbEntity
  8
BLACK
100
AcDbCircle
 10
54.425
 20
-49.3625
 30
0.0
 40
0.5
100
AcDbArc
 50
270.0
 51
0.0
  0
LINE
  5
57D
330
1D
100
AcDbEntity
  8
BLACK
  6
Continuous
100
AcDbLine
 10
54.925
 20
-49.3625
 30
0.0
 11
54.925
 21
-36.3625
 31
0.0
  0
ARC
  5
57E
330
1D
100
AcDbEntity
  8
BLACK
100
AcDbCircle
 10
54.425
 20
-36.3625
 30
0.0
 40
0.5
100
AcDbArc
 50
0.0
 51
90.0
  0
LINE
  5
57F
330
1D
100
AcDbEntity
  8
BLACK
  6
Continuous
100
AcDbLine
 10
54.425
 20
-35.8625
 30
0.0
 11
40.825
 21
-35.8625
 31
0.0
  0
ARC
  5
580
330
1D
100
AcDbEntity
  8
BLACK
100
AcDbCircle
 10
40.825
 20
-36.3625
 30
0.0
 40
0.5
100
AcDbArc
 50
90.0
 51
180.0
  0
LINE
  5
581
330
1D
100
AcDbEntity
  8
BLACK
  6
Continuous
100
AcDbLine
 10
21.775
 20
-49.8625
 30
0.0
 11
35.375
 21
-49.8625
 31
0.0
  0
ARC
  5
582
330
1D
100
AcDbEntity
  8
BLACK
100
AcDbCircle
 10
35.375
 20
-49.3625
 30
0.0
 40
0.5
100
AcDbArc
 50
270.0
 51
0.0
  0
LINE
  5
583
330
1D
100
AcDbEntity
  8
BLACK
  6
Continuous
100
AcDbLine
 10
35.875
 20
-49.3625
 30
0.0
 11
35.875
 21
-36.3625
 31
0.0
  0
ARC
  5
584
330
1D
100
AcDbEntity
  8
BLACK
100
AcDbCircle
 10
35.375
 20
-36.3625
 30
0.0
 40
0.5
100
AcDbArc
 50
0.0
 51
90.0
  0
LINE
  5
585
330
1D
100
AcDbEntity
  8
BLACK
  6
Continuous
100
AcDbLine
 10
35.375
 20
-35.8625
 30
0.0
 11
21.775
 21
-35.8625
 31
0.0
  0
ARC
  5
586
330
1D
100
AcDbEntity
  8
BLACK
100
AcDbCircle
 10
21.775
 20
-36.3625
 30
0.0
 40
0.5
100
AcDbArc
 50
90.0
 51
180.0
  0
LINE
  5
587
330
1D
100
AcDbEntity
  8
BLACK
  6
Continuous
100
AcDbLine
 10
21.275
 20
-36.3625
 30
0.0
 11
21.275
 21
-49.3625
 31
0.0
  0
ARC
  5
588
330
1D
100
AcDbEntity
  8
BLACK
100
AcDbCircle
 10
21.775
 20
-49.3625
 30
0.0
 40
0.5
100
AcDbArc
 50
180.0
 51
270.0
  0
ARC
  5
589
330
1D
100
AcDbEntity
  8
BLACK
100
AcDbCircle
 10
136.075
 20
-36.3625
 30
0.0
 40
0.5
100
AcDbArc
 50
90.0
 51
180.0
  0
LINE
  5
58A
330
1D
100
AcDbEntity
  8
BLACK
  6
Continuous
100
AcDbLine
 10
135.575
 20
-36.3625
 30
0.0
 11
135.575
 21
-49.3625
 31
0.0
  0
ARC
  5
58B
330
1D
100
AcDbEntity
  8
BLACK
100
AcDbCircle
 10
136.075
 20
-49.3625
 30
0.0
 40
0.5
100
AcDbArc
 50
180.0
 51
270.0
  0
LINE
  5
58C
330
1D
100
AcDbEntity
  8
BLACK
  6
Continuous
100
AcDbLine
 10
136.075
 20
-49.8625
 30
0.0
 11
149.675
 21
-49.8625
 31
0.0
  0
ARC
  5
58D
330
1D
100
AcDbEntity
  8
BLACK
100
AcDbCircle
 10
149.675
 20
-49.3625
 30
0.0
 40
0.5
100
AcDbArc
 50
270.0
 51
0.0
  0
LINE
  5
58E
330
1D
100
AcDbEntity
  8
BLACK
  6
Continuous
100
AcDbLine
 10
150.175
 20
-49.3625
 30
0.0
 11
150.175
 21
-36.3625
 31
0.0
  0
ARC
  5
58F
330
1D
100
AcDbEntity
  8
BLACK
100
AcDbCircle
 10
149.675
 20
-36.3625
 30
0.0
 40
0.5
100
AcDbArc
 50
0.0
 51
90.0
  0
LINE
  5
590
330
1D
100
AcDbEntity
  8
BLACK
  6
Continuous
100
AcDbLine
 10
149.675
 20
-35.8625
 30
0.0
 11
136.075
 21
-35.8625
 31
0.0
  0
LINE
  5
591
330
1D
100
AcDbEntity
  8
BLACK
  6
Continuous
100
AcDbLine
 10
211.775
 20
-36.3625
 30
0.0
 11
211.775
 21
-49.3625
 31
0.0
  0
ARC
  5
592
330
1D
100
AcDbEntity
  8
BLACK
100
AcDbCircle
 10
212.275
 20
-49.3625
 30
0.0
 40
0.5
100
AcDbArc
 50
180.0
 51
270.0
  0
LINE
  5
593
330
1D
100
AcDbEntity
  8
BLACK
  6
Continuous
100
AcDbLine
 10
212.275
 20
-49.8625
 30
0.0
 11
225.875
 21
-49.8625
 31
0.0
  0
ARC
  5
594
330
1D
100
AcDbEntity
  8
BLACK
100
AcDbCircle
 10
225.875
 20
-49.3625
 30
0.0
 40
0.5
100
AcDbArc
 50
270.0
 51
0.0
  0
LINE
  5
595
330
1D
100
AcDbEntity
  8
BLACK
  6
Continuous
100
AcDbLine
 10
226.375
 20
-49.3625
 30
0.0
 11
226.375
 21
-36.3625
 31
0.0
  0
ARC
  5
596
330
1D
100
AcDbEntity
  8
BLACK
100
AcDbCircle
 10
225.875
 20
-36.3625
 30
0.0
 40
0.5
100
AcDbArc
 50
0.0
 51
90.0
  0
LINE
  5
597
330
1D
100
AcDbEntity
  8
BLACK
  6
Continuous
100
AcDbLine
 10
225.875
 20
-35.8625
 30
0.0
 11
212.275
 21
-35.8625
 31
0.0
  0
ARC
  5
598
330
1D
100
AcDbEntity
  8
BLACK
100
AcDbCircle
 10
212.275
 20
-36.3625
 30
0.0
 40
0.5
100
AcDbArc
 50
90.0
 51
180.0
  0
LINE
  5
599
330
1D
100
AcDbEntity
  8
BLACK
  6
Continuous
100
AcDbLine
 10
230.825
 20
-36.3625
 30
0.0
 11
230.825
 21
-49.3625
 31
0.0
  0
ARC
  5
59A
330
1D
100
AcDbEntity
  8
BLACK
100
AcDbCircle
 10
231.325
 20
-49.3625
 30
0.0
 40
0.5
100
AcDbArc
 50
180.0
 51
270.0
  0
LINE
  5
59B
330
1D
100
AcDbEntity
  8
BLACK
  6
Continuous
100
AcDbLine
 10
231.325
 20
-49.8625
 30
0.0
 11
244.925
 21
-49.8625
 31
0.0
  0
ARC
  5
59C
330
1D
100
AcDbEntity
  8
BLACK
100
AcDbCircle
 10
244.925
 20
-49.3625
 30
0.0
 40
0.5
100
AcDbArc
 50
270.0
 51
0.0
  0
LINE
  5
59D
330
1D
100
AcDbEntity
  8
BLACK
  6
Continuous
100
AcDbLine
 10
245.425
 20
-49.3625
 30
0.0
 11
245.425
 21
-36.3625
 31
0.0
  0
ARC
  5
59E
330
1D
100
AcDbEntity
  8
BLACK
100
AcDbCircle
 10
244.925
 20
-36.3625
 30
0.0
 40
0.5
100
AcDbArc
 50
0.0
 51
90.0
  0
LINE
  5
59F
330
1D
100
AcDbEntity
  8
BLACK
  6
Continuous
100
AcDbLine
 10
244.925
 20
-35.8625
 30
0.0
 11
231.325
 21
-35.8625
 31
0.0
  0
ARC
  5
5A0
330
1D
100
AcDbEntity
  8
BLACK
100
AcDbCircle
 10
231.325
 20
-36.3625
 30
0.0
 40
0.5
100
AcDbArc
 50
90.0
 51
180.0
  0
ARC
  5
5A1
330
1D
100
AcDbEntity
  8
BLACK
100
AcDbCircle
 10
316.3625
 20
-87.46249999999999
 30
0.0
 40
0.5
100
AcDbArc
 50
270.0
 51
0.0
  0
LINE
  5
5A2
330
1D
100
AcDbEntity
  8
BLACK
  6
Continuous
100
AcDbLine
 10
316.8625
 20
-87.46249999999999
 30
0.0
 11
316.8625
 21
-74.46249999999999
 31
0.0
  0
ARC
  5
5A3
330
1D
100
AcDbEntity
  8
BLACK
100
AcDbCircle
 10
316.3625
 20
-74.46249999999999
 30
0.0
 40
0.5
100
AcDbArc
 50
0.0
 51
90.0
  0
LINE
  5
5A4
330
1D
100
AcDbEntity
  8
BLACK
  6
Continuous
100
AcDbLine
 10
316.3625
 20
-73.96249999999999
 30
0.0
 11
302.7625
 21
-73.96249999999999
 31
0.0
  0
ARC
  5
5A5
330
1D
100
AcDbEntity
  8
BLACK
100
AcDbCircle
 10
302.7625
 20
-74.46249999999999
 30
0.0
 40
0.5
100
AcDbArc
 50
90.0
 51
180.0
  0
LINE
  5
5A6
330
1D
100
AcDbEntity
  8
BLACK
  6
Continuous
100
AcDbLine
 10
302.2625
 20
-74.46249999999999
 30
0.0
 11
302.2625
 21
-87.46249999999999
 31
0.0
  0
ARC
  5
5A7
330
1D
100
AcDbEntity
  8
BLACK
100
AcDbCircle
 10
302.7625
 20
-87.46249999999999
 30
0.0
 40
0.5
100
AcDbArc
 50
180.0
 51
270.0
  0
LINE
  5
5A8
330
1D
100
AcDbEntity
  8
BLACK
  6
Continuous
100
AcDbLine
 10
302.7625
 20
-87.96249999999999
 30
0.0
 11
316.3625
 21
-87.96249999999999
 31
0.0
  0
LINE
  5
5A9
330
1D
100
AcDbEntity
  8
BLACK
  6
Continuous
100
AcDbLine
 10
283.7125
 20
-30.8125
 30
0.0
 11
297.3125
 21
-30.8125
 31
0.0
  0
ARC
  5
5AA
330
1D
100
AcDbEntity
  8
BLACK
100
AcDbCircle
 10
297.3125
 20
-30.3125
 30
0.0
 40
0.5
100
AcDbArc
 50
270.0
 51
0.0
  0
LINE
  5
5AB
330
1D
100
AcDbEntity
  8
BLACK
  6
Continuous
100
AcDbLine
 10
297.8125
 20
-30.3125
 30
0.0
 11
297.8125
 21
-17.3125
 31
0.0
  0
ARC
  5
5AC
330
1D
100
AcDbEntity
  8
BLACK
100
AcDbCircle
 10
297.3125
 20
-17.3125
 30
0.0
 40
0.5
100
AcDbArc
 50
0.0
 51
90.0
  0
LINE
  5
5AD
330
1D
100
AcDbEntity
  8
BLACK
  6
Continuous
100
AcDbLine
 10
297.3125
 20
-16.8125
 30
0.0
 11
283.7125
 21
-16.8125
 31
0.0
  0
ARC
  5
5AE
330
1D
100
AcDbEntity
  8
BLACK
100
AcDbCircle
 10
283.7125
 20
-17.3125
 30
0.0
 40
0.5
100
AcDbArc
 50
90.0
 51
180.0
  0
LINE
  5
5AF
330
1D
100
AcDbEntity
  8
BLACK
  6
Continuous
100
AcDbLine
 10
283.2125
 20
-17.3125
 30
0.0
 11
283.2125
 21
-30.3125
 31
0.0
  0
ARC
  5
5B0
330
1D
100
AcDbEntity
  8
BLACK
100
AcDbCircle
 10
283.7125
 20
-30.3125
 30
0.0
 40
0.5
100
AcDbArc
 50
180.0
 51
270.0
  0
ARC
  5
5B1
330
1D
100
AcDbEntity
  8
BLACK
100
AcDbCircle
 10
197.9875
 20
-68.4125
 30
0.0
 40
0.5
100
AcDbArc
 50
180.0
 51
270.0
  0
LINE
  5
5B2
330
1D
100
AcDbEntity
  8
BLACK
  6
Continuous
100
AcDbLine
 10
197.9875
 20
-68.9125
 30
0.0
 11
211.5875
 21
-68.9125
 31
0.0
  0
ARC
  5
5B3
330
1D
100
AcDbEntity
  8
BLACK
100
AcDbCircle
 10
211.5875
 20
-68.4125
 30
0.0
 40
0.5
100
AcDbArc
 50
270.0
 51
0.0
  0
LINE
  5
5B4
330
1D
100
AcDbEntity
  8
BLACK
  6
Continuous
100
AcDbLine
 10
212.0875
 20
-68.4125
 30
0.0
 11
212.0875
 21
-55.41249999999999
 31
0.0
  0
ARC
  5
5B5
330
1D
100
AcDbEntity
  8
BLACK
100
AcDbCircle
 10
211.5875
 20
-55.41249999999999
 30
0.0
 40
0.5
100
AcDbArc
 50
0.0
 51
90.0
  0
LINE
  5
5B6
330
1D
100
AcDbEntity
  8
BLACK
  6
Continuous
100
AcDbLine
 10
211.5875
 20
-54.91249999999999
 30
0.0
 11
197.9875
 21
-54.91249999999999
 31
0.0
  0
ARC
  5
5B7
330
1D
100
AcDbEntity
  8
BLACK
100
AcDbCircle
 10
197.9875
 20
-55.41249999999999
 30
0.0
 40
0.5
100
AcDbArc
 50
90.0
 51
180.0
  0
LINE
  5
5B8
330
1D
100
AcDbEntity
  8
BLACK
  6
Continuous
100
AcDbLine
 10
197.4875
 20
-55.41249999999999
 30
0.0
 11
197.4875
 21
-68.4125
 31
0.0
  0
ARC
  5
5B9
330
1D
100
AcDbEntity
  8
BLACK
100
AcDbCircle
 10
235.4
 20
-30.3125
 30
0.0
 40
0.5
100
AcDbArc
 50
270.0
 51
0.0
  0
LINE
  5
5BA
330
1D
100
AcDbEntity
  8
BLACK
  6
Continuous
100
AcDbLine
 10
235.9
 20
-30.3125
 30
0.0
 11
235.9
 21
-17.3125
 31
0.0
  0
ARC
  5
5BB
330
1D
100
AcDbEntity
  8
BLACK
100
AcDbCircle
 10
235.4
 20
-17.3125
 30
0.0
 40
0.5
100
AcDbArc
 50
0.0
 51
90.0
  0
LINE
  5
5BC
330
1D
100
AcDbEntity
  8
BLACK
  6
Continuous
100
AcDbLine
 10
235.4
 20
-16.8125
 30
0.0
 11
221.8
 21
-16.8125
 31
0.0
  0
ARC
  5
5BD
330
1D
100
AcDbEntity
  8
BLACK
100
AcDbCircle
 10
221.8
 20
-17.3125
 30
0.0
 40
0.5
100
AcDbArc
 50
90.0
 51
180.0
  0
LINE
  5
5BE
330
1D
100
AcDbEntity
  8
BLACK
  6
Continuous
100
AcDbLine
 10
221.3
 20
-17.3125
 30
0.0
 11
221.3
 21
-30.3125
 31
0.0
  0
ARC
  5
5BF
330
1D
100
AcDbEntity
  8
BLACK
100
AcDbCircle
 10
221.8
 20
-30.3125
 30
0.0
 40
0.5
100
AcDbArc
 50
180.0
 51
270.0
  0
LINE
  5
5C0
330
1D
100
AcDbEntity
  8
BLACK
  6
Continuous
100
AcDbLine
 10
221.8
 20
-30.8125
 30
0.0
 11
235.4
 21
-30.8125
 31
0.0
  0
ARC
  5
5C1
330
1D
100
AcDbEntity
  8
BLACK
100
AcDbCircle
 10
273.5
 20
6.5
 30
0.0
 40
0.5
100
AcDbArc
 50
0.0
 51
90.0
  0
LINE
  5
5C2
330
1D
100
AcDbEntity
  8
BLACK
  6
Continuous
100
AcDbLine
 10
273.5
 20
7.0
 30
0.0
 11
259.9
 21
7.0
 31
0.0
  0
ARC
  5
5C3
330
1D
100
AcDbEntity
  8
BLACK
100
AcDbCircle
 10
259.9
 20
6.5
 30
0.0
 40
0.5
100
AcDbArc
 50
90.0
 51
180.0
  0
LINE
  5
5C4
330
1D
100
AcDbEntity
  8
BLACK
  6
Continuous
100
AcDbLine
 10
259.4
 20
6.5
 30
0.0
 11
259.4
 21
-6.5
 31
0.0
  0
ARC
  5
5C5
330
1D
100
AcDbEntity
  8
BLACK
100
AcDbCircle
 10
259.9
 20
-6.5
 30
0.0
 40
0.5
100
AcDbArc
 50
180.0
 51
270.0
  0
LINE
  5
5C6
330
1D
100
AcDbEntity
  8
BLACK
  6
Continuous
100
AcDbLine
 10
259.9
 20
-7.0
 30
0.0
 11
273.5
 21
-7.0
 31
0.0
  0
ARC
  5
5C7
330
1D
100
AcDbEntity
  8
BLACK
100
AcDbCircle
 10
273.5
 20
-6.5
 30
0.0
 40
0.5
100
AcDbArc
 50
270.0
 51
0.0
  0
LINE
  5
5C8
330
1D
100
AcDbEntity
  8
BLACK
  6
Continuous
100
AcDbLine
 10
274.0
 20
-6.5
 30
0.0
 11
274.0
 21
6.5
 31
0.0
  0
ARC
  5
5C9
330
1D
100
AcDbEntity
  8
BLACK
100
AcDbCircle
 10
302.7625
 20
-17.3125
 30
0.0
 40
0.5
100
AcDbArc
 50
90.0
 51
180.0
  0
LINE
  5
5CA
330
1D
100
AcDbEntity
  8
BLACK
  6
Continuous
100
AcDbLine
 10
302.2625
 20
-17.3125
 30
0.0
 11
302.2625
 21
-30.3125
 31
0.0
  0
ARC
  5
5CB
330
1D
100
AcDbEntity
  8
BLACK
100
AcDbCircle
 10
302.7625
 20
-30.3125
 30
0.0
 40
0.5
100
AcDbArc
 50
180.0
 51
270.0
  0
LINE
  5
5CC
330
1D
100
AcDbEntity
  8
BLACK
  6
Continuous
100
AcDbLine
 10
302.7625
 20
-30.8125
 30
0.0
 11
316.3625
 21
-30.8125
 31
0.0
  0
ARC
  5
5CD
330
1D
100
AcDbEntity
  8
BLACK
100
AcDbCircle
 10
316.3625
 20
-30.3125
 30
0.0
 40
0.5
100
AcDbArc
 50
270.0
 51
0.0
  0
LINE
  5
5CE
330
1D
100
AcDbEntity
  8
BLACK
  6
Continuous
100
AcDbLine
 10
316.8625
 20
-30.3125
 30
0.0
 11
316.8625
 21
-17.3125
 31
0.0
  0
ARC
  5
5CF
330
1D
100
AcDbEntity
  8
BLACK
100
AcDbCircle
 10
316.3625
 20
-17.3125
 30
0.0
 40
0.5
100
AcDbArc
 50
0.0
 51
90.0
  0
LINE
  5
5D0
330
1D
100
AcDbEntity
  8
BLACK
  6
Continuous
100
AcDbLine
 10
316.3625
 20
-16.8125
 30
0.0
 11
302.7625
 21
-16.8125
 31
0.0
  0
LINE
  5
5D1
330
1D
100
AcDbEntity
  8
BLACK
  6
Continuous
100
AcDbLine
 10
316.8625
 20
-106.5125
 30
0.0
 11
316.8625
 21
-93.5125
 31
0.0
  0
ARC
  5
5D2
330
1D
100
AcDbEntity
  8
BLACK
100
AcDbCircle
 10
316.3625
 20
-93.5125
 30
0.0
 40
0.5
100
AcDbArc
 50
0.0
 51
90.0
  0
LINE
  5
5D3
330
1D
100
AcDbEntity
  8
BLACK
  6
Continuous
100
AcDbLine
 10
316.3625
 20
-93.0125
 30
0.0
 11
302.7625
 21
-93.0125
 31
0.0
  0
ARC
  5
5D4
330
1D
100
AcDbEntity
  8
BLACK
100
AcDbCircle
 10
302.7625
 20
-93.5125
 30
0.0
 40
0.5
100
AcDbArc
 50
90.0
 51
180.0
  0
LINE
  5
5D5
330
1D
100
AcDbEntity
  8
BLACK
  6
Continuous
100
AcDbLine
 10
302.2625
 20
-93.5125
 30
0.0
 11
302.2625
 21
-106.5125
 31
0.0
  0
ARC
  5
5D6
330
1D
100
AcDbEntity
  8
BLACK
100
AcDbCircle
 10
302.7625
 20
-106.5125
 30
0.0
 40
0.5
100
AcDbArc
 50
180.0
 51
270.0
  0
LINE
  5
5D7
330
1D
100
AcDbEntity
  8
BLACK
  6
Continuous
100
AcDbLine
 10
302.7625
 20
-107.0125
 30
0.0
 11
316.3625
 21
-107.0125
 31
0.0
  0
ARC
  5
5D8
330
1D
100
AcDbEntity
  8
BLACK
100
AcDbCircle
 10
316.3625
 20
-106.5125
 30
0.0
 40
0.5
100
AcDbArc
 50
270.0
 51
0.0
  0
ARC
  5
5D9
330
1D
100
AcDbEntity
  8
BLACK
100
AcDbCircle
 10
221.1125
 20
-74.46249999999999
 30
0.0
 40
0.5
100
AcDbArc
 50
0.0
 51
90.0
  0
LINE
  5
5DA
330
1D
100
AcDbEntity
  8
BLACK
  6
Continuous
100
AcDbLine
 10
221.1125
 20
-73.96249999999999
 30
0.0
 11
207.5125
 21
-73.96249999999999
 31
0.0
  0
ARC
  5
5DB
330
1D
100
AcDbEntity
  8
BLACK
100
AcDbCircle
 10
207.5125
 20
-74.46249999999999
 30
0.0
 40
0.5
100
AcDbArc
 50
90.0
 51
180.0
  0
LINE
  5
5DC
330
1D
100
AcDbEntity
  8
BLACK
  6
Continuous
100
AcDbLine
 10
207.0125
 20
-74.46249999999999
 30
0.0
 11
207.0125
 21
-87.46249999999999
 31
0.0
  0
ARC
  5
5DD
330
1D
100
AcDbEntity
  8
BLACK
100
AcDbCircle
 10
207.5125
 20
-87.46249999999999
 30
0.0
 40
0.5
100
AcDbArc
 50
180.0
 51
270.0
  0
LINE
  5
5DE
330
1D
100
AcDbEntity
  8
BLACK
  6
Continuous
100
AcDbLine
 10
207.5125
 20
-87.96249999999999
 30
0.0
 11
221.1125
 21
-87.96249999999999
 31
0.0
  0
ARC
  5
5DF
330
1D
100
AcDbEntity
  8
BLACK
100
AcDbCircle
 10
221.1125
 20
-87.46249999999999
 30
0.0
 40
0.5
100
AcDbArc
 50
270.0
 51
0.0
  0
LINE
  5
5E0
330
1D
100
AcDbEntity
  8
BLACK
  6
Continuous
100
AcDbLine
 10
221.6125
 20
-87.46249999999999
 30
0.0
 11
221.6125
 21
-74.46249999999999
 31
0.0
  0
ARC
  5
5E1
330
1D
100
AcDbEntity
  8
BLACK
100
AcDbCircle
 10
335.4125
 20
-30.3125
 30
0.0
 40
0.5
100
AcDbArc
 50
270.0
 51
0.0
  0
LINE
  5
5E2
330
1D
100
AcDbEntity
  8
BLACK
  6
Continuous
100
AcDbLine
 10
335.9125
 20
-30.3125
 30
0.0
 11
335.9125
 21
-17.3125
 31
0.0
  0
ARC
  5
5E3
330
1D
100
AcDbEntity
  8
BLACK
100
AcDbCircle
 10
335.4125
 20
-17.3125
 30
0.0
 40
0.5
100
AcDbArc
 50
0.0
 51
90.0
  0
LINE
  5
5E4
330
1D
100
AcDbEntity
  8
BLACK
  6
Continuous
100
AcDbLine
 10
335.4125
 20
-16.8125
 30
0.0
 11
321.8125
 21
-16.8125
 31
0.0
  0
ARC
  5
5E5
330
1D
100
AcDbEntity
  8
BLACK
100
AcDbCircle
 10
321.8125
 20
-17.3125
 30
0.0
 40
0.5
100
AcDbArc
 50
90.0
 51
180.0
  0
LINE
  5
5E6
330
1D
100
AcDbEntity
  8
BLACK
  6
Continuous
100
AcDbLine
 10
321.3125
 20
-17.3125
 30
0.0
 11
321.3125
 21
-30.3125
 31
0.0
  0
ARC
  5
5E7
330
1D
100
AcDbEntity
  8
BLACK
100
AcDbCircle
 10
321.8125
 20
-30.3125
 30
0.0
 40
0.5
100
AcDbArc
 50
180.0
 51
270.0
  0
LINE
  5
5E8
330
1D
100
AcDbEntity
  8
BLACK
  6
Continuous
100
AcDbLine
 10
321.8125
 20
-30.8125
 30
0.0
 11
335.4125
 21
-30.8125
 31
0.0
  0
LINE
  5
5E9
330
1D
100
AcDbEntity
  8
BLACK
  6
Continuous
100
AcDbLine
 10
230.6375
 20
-54.91249999999999
 30
0.0
 11
217.0375
 21
-54.91249999999999
 31
0.0
  0
ARC
  5
5EA
330
1D
100
AcDbEntity
  8
BLACK
100
AcDbCircle
 10
217.0375
 20
-55.41249999999999
 30
0.0
 40
0.5
100
AcDbArc
 50
90.0
 51
180.0
  0
LINE
  5
5EB
330
1D
100
AcDbEntity
  8
BLACK
  6
Continuous
100
AcDbLine
 10
216.5375
 20
-55.41249999999999
 30
0.0
 11
216.5375
 21
-68.4125
 31
0.0
  0
ARC
  5
5EC
330
1D
100
AcDbEntity
  8
BLACK
100
AcDbCircle
 10
217.0375
 20
-68.4125
 30
0.0
 40
0.5
100
AcDbArc
 50
180.0
 51
270.0
  0
LINE
  5
5ED
330
1D
100
AcDbEntity
  8
BLACK
  6
Continuous
100
AcDbLine
 10
217.0375
 20
-68.9125
 30
0.0
 11
230.6375
 21
-68.9125
 31
0.0
  0
ARC
  5
5EE
330
1D
100
AcDbEntity
  8
BLACK
100
AcDbCircle
 10
230.6375
 20
-68.4125
 30
0.0
 40
0.5
100
AcDbArc
 50
270.0
 51
0.0
  0
LINE
  5
5EF
330
1D
100
AcDbEntity
  8
BLACK
  6
Continuous
100
AcDbLine
 10
231.1375
 20
-68.4125
 30
0.0
 11
231.1375
 21
-55.41249999999999
 31
0.0
  0
ARC
  5
5F0
330
1D
100
AcDbEntity
  8
BLACK
100
AcDbCircle
 10
230.6375
 20
-55.41249999999999
 30
0.0
 40
0.5
100
AcDbArc
 50
0.0
 51
90.0
  0
ARC
  5
5F1
330
1D
100
AcDbEntity
  8
BLACK
100
AcDbCircle
 10
302.7625
 20
6.5
 30
0.0
 40
0.5
100
AcDbArc
 50
90.0
 51
180.0
  0
LINE
  5
5F2
330
1D
100
AcDbEntity
  8
BLACK
  6
Continuous
100
AcDbLine
 10
302.2625
 20
6.5
 30
0.0
 11
302.2625
 21
-6.5
 31
0.0
  0
ARC
  5
5F3
330
1D
100
AcDbEntity
  8
BLACK
100
AcDbCircle
 10
302.7625
 20
-6.5
 30
0.0
 40
0.5
100
AcDbArc
 50
180.0
 51
270.0
  0
LINE
  5
5F4
330
1D
100
AcDbEntity
  8
BLACK
  6
Continuous
100
AcDbLine
 10
302.7625
 20
-7.0
 30
0.0
 11
316.3625
 21
-7.0
 31
0.0
  0
ARC
  5
5F5
330
1D
100
AcDbEntity
  8
BLACK
100
AcDbCircle
 10
316.3625
 20
-6.5
 30
0.0
 40
0.5
100
AcDbArc
 50
270.0
 51
0.0
  0
LINE
  5
5F6
330
1D
100
AcDbEntity
  8
BLACK
  6
Continuous
100
AcDbLine
 10
316.8625
 20
-6.5
 30
0.0
 11
316.8625
 21
6.5
 31
0.0
  0
ARC
  5
5F7
330
1D
100
AcDbEntity
  8
BLACK
100
AcDbCircle
 10
316.3625
 20
6.5
 30
0.0
 40
0.5
100
AcDbArc
 50
0.0
 51
90.0
  0
LINE
  5
5F8
330
1D
100
AcDbEntity
  8
BLACK
  6
Continuous
100
AcDbLine
 10
316.3625
 20
7.0
 30
0.0
 11
302.7625
 21
7.0
 31
0.0
  0
CIRCLE
  5
5F9
330
1D
100
AcDbEntity
  8
BLACK
100
AcDbCircle
 10
300.0375
 20
-23.8125
 30
0.0
 40
1.0
  0
CIRCLE
  5
5FA
330
1D
100
AcDbEntity
  8
BLACK
100
AcDbCircle
 10
319.0875
 20
-100.0125
 30
0.0
 40
1.0
  0
ARC
  5
5FB
330
1D
100
AcDbEntity
  8
BLACK
100
AcDbCircle
 10
297.3125
 20
-6.5
 30
0.0
 40
0.5
100
AcDbArc
 50
270.0
 51
0.0
  0
LINE
  5
5FC
330
1D
100
AcDbEntity
  8
BLACK
  6
Continuous
100
AcDbLine
 10
297.8125
 20
-6.5
 30
0.0
 11
297.8125
 21
6.5
 31
0.0
  0
ARC
  5
5FD
330
1D
100
AcDbEntity
  8
BLACK
100
AcDbCircle
 10
297.3125
 20
6.5
 30
0.0
 40
0.5
100
AcDbArc
 50
0.0
 51
90.0
  0
LINE
  5
5FE
330
1D
100
AcDbEntity
  8
BLACK
  6
Continuous
100
AcDbLine
 10
297.3125
 20
7.0
 30
0.0
 11
283.7125
 21
7.0
 31
0.0
  0
ARC
  5
5FF
330
1D
100
AcDbEntity
  8
BLACK
100
AcDbCircle
 10
283.7125
 20
6.5
 30
0.0
 40
0.5
100
AcDbArc
 50
90.0
 51
180.0
  0
LINE
  5
600
330
1D
100
AcDbEntity
  8
BLACK
  6
Continuous
100
AcDbLine
 10
283.2125
 20
6.5
 30
0.0
 11
283.2125
 21
-6.5
 31
0.0
  0
ARC
  5
601
330
1D
100
AcDbEntity
  8
BLACK
100
AcDbCircle
 10
283.7125
 20
-6.5
 30
0.0
 40
0.5
100
AcDbArc
 50
180.0
 51
270.0
  0
LINE
  5
602
330
1D
100
AcDbEntity
  8
BLACK
  6
Continuous
100
AcDbLine
 10
283.7125
 20
-7.0
 30
0.0
 11
297.3125
 21
-7.0
 31
0.0
  0
ARC
  5
603
330
1D
100
AcDbEntity
  8
BLACK
100
AcDbCircle
 10
335.4125
 20
-106.5125
 30
0.0
 40
0.5
100
AcDbArc
 50
270.0
 51
0.0
  0
LINE
  5
604
330
1D
100
AcDbEntity
  8
BLACK
  6
Continuous
100
AcDbLine
 10
335.9125
 20
-106.5125
 30
0.0
 11
335.9125
 21
-93.5125
 31
0.0
  0
ARC
  5
605
330
1D
100
AcDbEntity
  8
BLACK
100
AcDbCircle
 10
335.4125
 20
-93.5125
 30
0.0
 40
0.5
100
AcDbArc
 50
0.0
 51
90.0
  0
LINE
  5
606
330
1D
100
AcDbEntity
  8
BLACK
  6
Continuous
100
AcDbLine
 10
335.4125
 20
-93.0125
 30
0.0
 11
321.8125
 21
-93.0125
 31
0.0
  0
ARC
  5
607
330
1D
100
AcDbEntity
  8
BLACK
100
AcDbCircle
 10
321.8125
 20
-93.5125
 30
0.0
 40
0.5
100
AcDbArc
 50
90.0
 51
180.0
  0
LINE
  5
608
330
1D
100
AcDbEntity
  8
BLACK
  6
Continuous
100
AcDbLine
 10
321.3125
 20
-93.5125
 30
0.0
 11
321.3125
 21
-106.5125
 31
0.0
  0
ARC
  5
609
330
1D
100
AcDbEntity
  8
BLACK
100
AcDbCircle
 10
321.8125
 20
-106.5125
 30
0.0
 40
0.5
100
AcDbArc
 50
180.0
 51
270.0
  0
LINE
  5
60A
330
1D
100
AcDbEntity
  8
BLACK
  6
Continuous
100
AcDbLine
 10
321.8125
 20
-107.0125
 30
0.0
 11
335.4125
 21
-107.0125
 31
0.0
  0
CIRCLE
  5
60B
330
1D
100
AcDbEntity
  8
BLACK
100
AcDbCircle
 10
319.0875
 20
-42.8625
 30
0.0
 40
1.0
  0
LINE
  5
60C
330
1D
100
AcDbEntity
  8
BLACK
  6
Continuous
100
AcDbLine
 10
202.0625
 20
-73.96249999999999
 30
0.0
 11
188.4625
 21
-73.96249999999999
 31
0.0
  0
ARC
  5
60D
330
1D
100
AcDbEntity
  8
BLACK
100
AcDbCircle
 10
188.4625
 20
-74.46249999999999
 30
0.0
 40
0.5
100
AcDbArc
 50
90.0
 51
180.0
  0
LINE
  5
60E
330
1D
100
AcDbEntity
  8
BLACK
  6
Continuous
100
AcDbLine
 10
187.9625
 20
-74.46249999999999
 30
0.0
 11
187.9625
 21
-87.46249999999999
 31
0.0
  0
ARC
  5
60F
330
1D
100
AcDbEntity
  8
BLACK
100
AcDbCircle
 10
188.4625
 20
-87.46249999999999
 30
0.0
 40
0.5
100
AcDbArc
 50
180.0
 51
270.0
  0
LINE
  5
610
330
1D
100
AcDbEntity
  8
BLACK
  6
Continuous
100
AcDbLine
 10
188.4625
 20
-87.96249999999999
 30
0.0
 11
202.0625
 21
-87.96249999999999
 31
0.0
  0
ARC
  5
611
330
1D
100
AcDbEntity
  8
BLACK
100
AcDbCircle
 10
202.0625
 20
-87.46249999999999
 30
0.0
 40
0.5
100
AcDbArc
 50
270.0
 51
0.0
  0
LINE
  5
612
330
1D
100
AcDbEntity
  8
BLACK
  6
Continuous
100
AcDbLine
 10
202.5625
 20
-87.46249999999999
 30
0.0
 11
202.5625
 21
-74.46249999999999
 31
0.0
  0
ARC
  5
613
330
1D
100
AcDbEntity
  8
BLACK
100
AcDbCircle
 10
202.0625
 20
-74.46249999999999
 30
0.0
 40
0.5
100
AcDbArc
 50
0.0
 51
90.0
  0
ARC
  5
614
330
1D
100
AcDbEntity
  8
BLACK
100
AcDbCircle
 10
202.75
 20
-30.3125
 30
0.0
 40
0.5
100
AcDbArc
 50
180.0
 51
270.0
  0
LINE
  5
615
330
1D
100
AcDbEntity
  8
BLACK
  6
Continuous
100
AcDbLine
 10
202.75
 20
-30.8125
 30
0.0
 11
216.35
 21
-30.8125
 31
0.0
  0
ARC
  5
616
330
1D
100
AcDbEntity
  8
BLACK
100
AcDbCircle
 10
216.35
 20
-30.3125
 30
0.0
 40
0.5
100
AcDbArc
 50
270.0
 51
0.0
  0
LINE
  5
617
330
1D
100
AcDbEntity
  8
BLACK
  6
Continuous
100
AcDbLine
 10
216.85
 20
-30.3125
 30
0.0
 11
216.85
 21
-17.3125
 31
0.0
  0
ARC
  5
618
330
1D
100
AcDbEntity
  8
BLACK
100
AcDbCircle
 10
216.35
 20
-17.3125
 30
0.0
 40
0.5
100
AcDbArc
 50
0.0
 51
90.0
  0
LINE
  5
619
330
1D
100
AcDbEntity
  8
BLACK
  6
Continuous
100
AcDbLine
 10
216.35
 20
-16.8125
 30
0.0
 11
202.75
 21
-16.8125
 31
0.0
  0
ARC
  5
61A
330
1D
100
AcDbEntity
  8
BLACK
100
AcDbCircle
 10
202.75
 20
-17.3125
 30
0.0
 40
0.5
100
AcDbArc
 50
90.0
 51
180.0
  0
LINE
  5
61B
330
1D
100
AcDbEntity
  8
BLACK
  6
Continuous
100
AcDbLine
 10
202.25
 20
-17.3125
 30
0.0
 11
202.25
 21
-30.3125
 31
0.0
  0
ARC
  5
61C
330
1D
100
AcDbEntity
  8
BLACK
100
AcDbCircle
 10
11.5625
 20
-36.3625
 30
0.0
 40
0.5
100
AcDbArc
 50
0.0
 51
90.0
  0
LINE
  5
61D
330
1D
100
AcDbEntity
  8
BLACK
  6
Continuous
100
AcDbLine
 10
11.5625
 20
-35.8625
 30
0.0
 11
-2.037499
 21
-35.8625
 31
0.0
  0
ARC
  5
61E
330
1D
100
AcDbEntity
  8
BLACK
100
AcDbCircle
 10
-2.037499
 20
-36.362501
 30
0.0
 40
0.500001
100
AcDbArc
 50
90.0
 51
180.0
  0
LINE
  5
61F
330
1D
100
AcDbEntity
  8
BLACK
  6
Continuous
100
AcDbLine
 10
-2.5375
 20
-36.362501
 30
0.0
 11
-2.5375
 21
-49.3625
 31
0.0
  0
ARC
  5
620
330
1D
100
AcDbEntity
  8
BLACK
100
AcDbCircle
 10
-2.037499
 20
-49.362499
 30
0.0
 40
0.500001
100
AcDbArc
 50
180.00011459
 51
270.0
  0
LINE
  5
621
330
1D
100
AcDbEntity
  8
BLACK
  6
Continuous
100
AcDbLine
 10
-2.037499
 20
-49.8625
 30
0.0
 11
11.5625
 21
-49.8625
 31
0.0
  0
ARC
  5
622
330
1D
100
AcDbEntity
  8
BLACK
100
AcDbCircle
 10
11.5625
 20
-49.3625
 30
0.0
 40
0.5
100
AcDbArc
 50
270.0
 51
0.0
  0
LINE
  5
623
330
1D
100
AcDbEntity
  8
BLACK
  6
Continuous
100
AcDbLine
 10
12.0625
 20
-49.3625
 30
0.0
 11
12.0625
 21
-36.3625
 31
0.0
  0
LINE
  5
624
330
1D
100
AcDbEntity
  8
BLACK
  6
Continuous
100
AcDbLine
 10
26.35
 20
-30.3125
 30
0.0
 11
26.35
 21
-17.3125
 31
0.0
  0
ARC
  5
625
330
1D
100
AcDbEntity
  8
BLACK
100
AcDbCircle
 10
25.85
 20
-17.3125
 30
0.0
 40
0.5
100
AcDbArc
 50
0.0
 51
90.0
  0
LINE
  5
626
330
1D
100
AcDbEntity
  8
BLACK
  6
Continuous
100
AcDbLine
 10
25.85
 20
-16.8125
 30
0.0
 11
12.25
 21
-16.8125
 31
0.0
  0
ARC
  5
627
330
1D
100
AcDbEntity
  8
BLACK
100
AcDbCircle
 10
12.25
 20
-17.3125
 30
0.0
 40
0.5
100
AcDbArc
 50
90.0
 51
180.0
  0
LINE
  5
628
330
1D
100
AcDbEntity
  8
BLACK
  6
Continuous
100
AcDbLine
 10
11.75
 20
-17.3125
 30
0.0
 11
11.75
 21
-30.3125
 31
0.0
  0
ARC
  5
629
330
1D
100
AcDbEntity
  8
BLACK
100
AcDbCircle
 10
12.25
 20
-30.3125
 30
0.0
 40
0.5
100
AcDbArc
 50
180.0
 51
270.0
  0
LINE
  5
62A
330
1D
100
AcDbEntity
  8
BLACK
  6
Continuous
100
AcDbLine
 10
12.25
 20
-30.8125
 30
0.0
 11
25.85
 21
-30.8125
 31
0.0
  0
ARC
  5
62B
330
1D
100
AcDbEntity
  8
BLACK
100
AcDbCircle
 10
25.85
 20
-30.3125
 30
0.0
 40
0.5
100
AcDbArc
 50
270.0
 51
0.0
  0
CIRCLE
  5
62C
330
1D
100
AcDbEntity
  8
BLACK
100
AcDbCircle
 10
219.0842
 20
-23.4625
 30
0.0
 40
1.0
  0
LINE
  5
62D
330
1D
100
AcDbEntity
  8
BLACK
  6
Continuous
100
AcDbLine
 10
50.16249999999999
 20
-87.46249999999999
 30
0.0
 11
50.16249999999999
 21
-74.46249999999999
 31
0.0
  0
ARC
  5
62E
330
1D
100
AcDbEntity
  8
BLACK
100
AcDbCircle
 10
49.66249999999999
 20
-74.46249999999999
 30
0.0
 40
0.5
100
AcDbArc
 50
0.0
 51
90.0
  0
LINE
  5
62F
330
1D
100
AcDbEntity
  8
BLACK
  6
Continuous
100
AcDbLine
 10
49.66249999999999
 20
-73.96249999999999
 30
0.0
 11
36.0625
 21
-73.96249999999999
 31
0.0
  0
ARC
  5
630
330
1D
100
AcDbEntity
  8
BLACK
100
AcDbCircle
 10
36.0625
 20
-74.46249999999999
 30
0.0
 40
0.5
100
AcDbArc
 50
90.0
 51
180.0
  0
LINE
  5
631
330
1D
100
AcDbEntity
  8
BLACK
  6
Continuous
100
AcDbLine
 10
35.5625
 20
-74.46249999999999
 30
0.0
 11
35.5625
 21
-87.46249999999999
 31
0.0
  0
ARC
  5
632
330
1D
100
AcDbEntity
  8
BLACK
100
AcDbCircle
 10
36.0625
 20
-87.46249999999999
 30
0.0
 40
0.5
100
AcDbArc
 50
180.0
 51
270.0
  0
LINE
  5
633
330
1D
100
AcDbEntity
  8
BLACK
  6
Continuous
100
AcDbLine
 10
36.0625
 20
-87.96249999999999
 30
0.0
 11
49.66249999999999
 21
-87.96249999999999
 31
0.0
  0
ARC
  5
634
330
1D
100
AcDbEntity
  8
BLACK
100
AcDbCircle
 10
49.66249999999999
 20
-87.46249999999999
 30
0.0
 40
0.5
100
AcDbArc
 50
270.0
 51
0.0
  0
CIRCLE
  5
635
330
1D
100
AcDbEntity
  8
BLACK
100
AcDbCircle
 10
-7.14375
 20
-61.91249999999999
 30
0.0
 40
1.0
  0
CIRCLE
  5
636
330
1D
100
AcDbEntity
  8
BLACK
100
AcDbCircle
 10
11.90625
 20
0.0
 30
0.0
 40
1.0
  0
CIRCLE
  5
637
330
1D
100
AcDbEntity
  8
BLACK
100
AcDbCircle
 10
277.415625
 20
-100.0125
 30
0.0
 40
1.0
  0
CIRCLE
  5
638
330
1D
100
AcDbEntity
  8
BLACK
100
AcDbCircle
 10
42.8625
 20
-61.91249999999999
 30
0.0
 40
1.0
  0
CIRCLE
  5
639
330
1D
100
AcDbEntity
  8
BLACK
100
AcDbCircle
 10
142.875
 20
-23.8125
 30
0.0
 40
1.0
  0
LINE
  5
63A
330
1D
100
AcDbEntity
  8
BLACK
  6
Continuous
100
AcDbLine
 10
121.6
 20
-30.3125
 30
0.0
 11
121.6
 21
-17.3125
 31
0.0
  0
ARC
  5
63B
330
1D
100
AcDbEntity
  8
BLACK
100
AcDbCircle
 10
121.1
 20
-17.3125
 30
0.0
 40
0.5
100
AcDbArc
 50
0.0
 51
90.0
  0
LINE
  5
63C
330
1D
100
AcDbEntity
  8
BLACK
  6
Continuous
100
AcDbLine
 10
121.1
 20
-16.8125
 30
0.0
 11
107.5
 21
-16.8125
 31
0.0
  0
ARC
  5
63D
330
1D
100
AcDbEntity
  8
BLACK
100
AcDbCircle
 10
107.5
 20
-17.3125
 30
0.0
 40
0.5
100
AcDbArc
 50
90.0
 51
180.0
  0
LINE
  5
63E
330
1D
100
AcDbEntity
  8
BLACK
  6
Continuous
100
AcDbLine
 10
107.0
 20
-17.3125
 30
0.0
 11
107.0
 21
-30.3125
 31
0.0
  0
ARC
  5
63F
330
1D
100
AcDbEntity
  8
BLACK
100
AcDbCircle
 10
107.5
 20
-30.3125
 30
0.0
 40
0.5
100
AcDbArc
 50
180.0
 51
270.0
  0
LINE
  5
640
330
1D
100
AcDbEntity
  8
BLACK
  6
Continuous
100
AcDbLine
 10
107.5
 20
-30.8125
 30
0.0
 11
121.1
 21
-30.8125
 31
0.0
  0
ARC
  5
641
330
1D
100
AcDbEntity
  8
BLACK
100
AcDbCircle
 10
121.1
 20
-30.3125
 30
0.0
 40
0.5
100
AcDbArc
 50
270.0
 51
0.0
  0
ARC
  5
642
330
1D
100
AcDbEntity
  8
BLACK
100
AcDbCircle
 10
302.7625
 20
-49.3625
 30
0.0
 40
0.5
100
AcDbArc
 50
180.0
 51
270.0
  0
LINE
  5
643
330
1D
100
AcDbEntity
  8
BLACK
  6
Continuous
100
AcDbLine
 10
302.7625
 20
-49.8625
 30
0.0
 11
316.3625
 21
-49.8625
 31
0.0
  0
ARC
  5
644
330
1D
100
AcDbEntity
  8
BLACK
100
AcDbCircle
 10
316.3625
 20
-49.3625
 30
0.0
 40
0.5
100
AcDbArc
 50
270.0
 51
0.0
  0
LINE
  5
645
330
1D
100
AcDbEntity
  8
BLACK
  6
Continuous
100
AcDbLine
 10
316.8625
 20
-49.3625
 30
0.0
 11
316.8625
 21
-36.3625
 31
0.0
  0
ARC
  5
646
330
1D
100
AcDbEntity
  8
BLACK
100
AcDbCircle
 10
316.3625
 20
-36.3625
 30
0.0
 40
0.5
100
AcDbArc
 50
0.0
 51
90.0
  0
LINE
  5
647
330
1D
100
AcDbEntity
  8
BLACK
  6
Continuous
100
AcDbLine
 10
316.3625
 20
-35.8625
 30
0.0
 11
302.7625
 21
-35.8625
 31
0.0
  0
ARC
  5
648
330
1D
100
AcDbEntity
  8
BLACK
100
AcDbCircle
 10
302.7625
 20
-36.3625
 30
0.0
 40
0.5
100
AcDbArc
 50
90.0
 51
180.0
  0
LINE
  5
649
330
1D
100
AcDbEntity
  8
BLACK
  6
Continuous
100
AcDbLine
 10
302.2625
 20
-36.3625
 30
0.0
 11
302.2625
 21
-49.3625
 31
0.0
  0
LINE
  5
64A
330
1D
100
AcDbEntity
  8
BLACK
  6
Continuous
100
AcDbLine
 10
69.39999999999999
 20
-30.8125
 30
0.0
 11
83.0
 21
-30.8125
 31
0.0
  0
ARC
  5
64B
330
1D
100
AcDbEntity
  8
BLACK
100
AcDbCircle
 10
83.0
 20
-30.3125
 30
0.0
 40
0.5
100
AcDbArc
 50
270.0
 51
0.0
  0
LINE
  5
64C
330
1D
100
AcDbEntity
  8
BLACK
  6
Continuous
100
AcDbLine
 10
83.5
 20
-30.3125
 30
0.0
 11
83.5
 21
-17.3125
 31
0.0
  0
ARC
  5
64D
330
1D
100
AcDbEntity
  8
BLACK
100
AcDbCircle
 10
83.0
 20
-17.3125
 30
0.0
 40
0.5
100
AcDbArc
 50
0.0
 51
90.0
  0
LINE
  5
64E
330
1D
100
AcDbEntity
  8
BLACK
  6
Continuous
100
AcDbLine
 10
83.0
 20
-16.8125
 30
0.0
 11
69.39999999999999
 21
-16.8125
 31
0.0
  0
ARC
  5
64F
330
1D
100
AcDbEntity
  8
BLACK
100
AcDbCircle
 10
69.39999999999999
 20
-17.3125
 30
0.0
 40
0.5
100
AcDbArc
 50
90.0
 51
180.0
  0
LINE
  5
650
330
1D
100
AcDbEntity
  8
BLACK
  6
Continuous
100
AcDbLine
 10
68.89999999999999
 20
-17.3125
 30
0.0
 11
68.89999999999999
 21
-30.3125
 31
0.0
  0
ARC
  5
651
330
1D
100
AcDbEntity
  8
BLACK
100
AcDbCircle
 10
69.39999999999999
 20
-30.3125
 30
0.0
 40
0.5
100
AcDbArc
 50
180.0
 51
270.0
  0
CIRCLE
  5
652
330
1D
100
AcDbEntity
  8
BLACK
100
AcDbCircle
 10
66.675
 20
-23.8125
 30
0.0
 40
1.0
  0
CIRCLE
  5
653
330
1D
100
AcDbEntity
  8
BLACK
100
AcDbCircle
 10
95.25
 20
-42.8625
 30
0.0
 40
1.0
  0
CIRCLE
  5
654
330
1D
100
AcDbEntity
  8
BLACK
100
AcDbCircle
 10
319.0875
 20
0.0
 30
0.0
 40
1.0
  0
ARC
  5
655
330
1D
100
AcDbEntity
  8
BLACK
100
AcDbCircle
 10
335.4125
 20
-6.5
 30
0.0
 40
0.5
100
AcDbArc
 50
270.0
 51
0.0
  0
LINE
  5
656
330
1D
100
AcDbEntity
  8
BLACK
  6
Continuous
100
AcDbLine
 10
335.9125
 20
-6.5
 30
0.0
 11
335.9125
 21
6.5
 31
0.0
  0
ARC
  5
657
330
1D
100
AcDbEntity
  8
BLACK
100
AcDbCircle
 10
335.4125
 20
6.5
 30
0.0
 40
0.5
100
AcDbArc
 50
0.0
 51
90.0
  0
LINE
  5
658
330
1D
100
AcDbEntity
  8
BLACK
  6
Continuous
100
AcDbLine
 10
335.4125
 20
7.0
 30
0.0
 11
321.8125
 21
7.0
 31
0.0
  0
ARC
  5
659
330
1D
100
AcDbEntity
  8
BLACK
100
AcDbCircle
 10
321.8125
 20
6.5
 30
0.0
 40
0.5
100
AcDbArc
 50
90.0
 51
180.0
  0
LINE
  5
65A
330
1D
100
AcDbEntity
  8
BLACK
  6
Continuous
100
AcDbLine
 10
321.3125
 20
6.5
 30
0.0
 11
321.3125
 21
-6.5
 31
0.0
  0
ARC
  5
65B
330
1D
100
AcDbEntity
  8
BLACK
100
AcDbCircle
 10
321.8125
 20
-6.5
 30
0.0
 40
0.5
100
AcDbArc
 50
180.0
 51
270.0
  0
LINE
  5
65C
330
1D
100
AcDbEntity
  8
BLACK
  6
Continuous
100
AcDbLine
 10
321.8125
 20
-7.0
 30
0.0
 11
335.4125
 21
-7.0
 31
0.0
  0
CIRCLE
  5
65D
330
1D
100
AcDbEntity
  8
BLACK
100
AcDbCircle
 10
303.609375
 20
-58.340625
 30
0.0
 40
1.0
  0
CIRCLE
  5
65E
330
1D
100
AcDbEntity
  8
BLACK
100
AcDbCircle
 10
278.60625
 20
0.0
 30
0.0
 40
1.0
  0
CIRCLE
  5
65F
330
1D
100
AcDbEntity
  8
BLACK
100
AcDbCircle
 10
328.6125
 20
-80.96249999999999
 30
0.0
 40
1.0
  0
CIRCLE
  5
660
330
1D
100
AcDbEntity
  8
BLACK
100
AcDbCircle
 10
9.525
 20
-23.8125
 30
0.0
 40
1.0
  0
CIRCLE
  5
661
330
1D
100
AcDbEntity
  8
BLACK
100
AcDbCircle
 10
171.45
 20
-42.8625
 30
0.0
 40
1.0
  0
CIRCLE
  5
662
330
1D
100
AcDbEntity
  8
BLACK
100
AcDbCircle
 10
228.6
 20
-42.8625
 30
0.0
 40
1.0
  0
CIRCLE
  5
663
330
1D
100
AcDbEntity
  8
BLACK
100
AcDbCircle
 10
16.66875
 20
-42.8625
 30
0.0
 40
1.0
  0
LINE
  5
664
330
1D
100
AcDbEntity
  8
BLACK
  6
Continuous
100
AcDbLine
 10
-9.5
 20
-108.0
 30
0.0
 11
-9.5
 21
8.000001
 31
0.0
  0
LINE
  5
665
330
1D
100
AcDbEntity
  8
BLACK
  6
Continuous
100
AcDbLine
 10
337.5
 20
8.0
 30
0.0
 11
337.5
 21
-108.0
 31
0.0
  0
ARC
  5
666
330
1D
100
AcDbEntity
  8
BLACK
100
AcDbCircle
 10
-7.500000999999999
 20
-108.000001
 30
0.0
 40
1.999999
100
AcDbArc
 50
179.99997135
 51
270.0
  0
ARC
  5
667
330
1D
100
AcDbEntity
  8
BLACK
100
AcDbCircle
 10
-7.500000999999999
 20
8.000001
 30
0.0
 40
1.999999
100
AcDbArc
 50
89.99997135000002
 51
180.0
  0
ARC
  5
668
330
1D
100
AcDbEntity
  8
BLACK
100
AcDbCircle
 10
-7.000000999999999
 20
-111.500001
 30
0.0
 40
1.500001000000333
100
AcDbArc
 50
0.0
 51
90.0000382
  0
ARC
  5
669
330
1D
100
AcDbEntity
  8
BLACK
100
AcDbCircle
 10
1.0
 20
-111.5
 30
0.0
 40
1.5
100
AcDbArc
 50
90.0
 51
180.0
  0
ARC
  5
66A
330
1D
100
AcDbEntity
  8
BLACK
100
AcDbCircle
 10
335.5
 20
8.0
 30
0.0
 40
2.0
100
AcDbArc
 50
0.0
 51
90.0
  0
LINE
  5
66B
330
1D
100
AcDbEntity
  8
BLACK
  6
Continuous
100
AcDbLine
 10
20.0
 20
10.25
 30
0.0
 11
20.0
 21
11.25
 31
0.0
  0
LINE
  5
66C
330
1D
100
AcDbEntity
  8
BLACK
  6
Continuous
100
AcDbLine
 10
30.0
 20
11.25
 30
0.0
 11
30.0
 21
10.25
 31
0.0
  0
LINE
  5
66D
330
1D
100
AcDbEntity
  8
BLACK
  6
Continuous
100
AcDbLine
 10
30.0
 20
-110.25
 30
0.0
 11
30.0
 21
-111.25
 31
0.0
  0
LINE
  5
66E
330
1D
100
AcDbEntity
  8
BLACK
  6
Continuous
100
AcDbLine
 10
93.5
 20
14.0
 30
0.0
 11
93.5
 21
12.5
 31
0.0
  0
LINE
  5
66F
330
1D
100
AcDbEntity
  8
BLACK
  6
Continuous
100
AcDbLine
 10
93.5
 20
-112.5
 30
0.0
 11
93.5
 21
-114.0
 31
0.0
  0
LINE
  5
670
330
1D
100
AcDbEntity
  8
BLACK
  6
Continuous
100
AcDbLine
 10
6.0
 20
-115.0
 30
0.0
 11
44.0
 21
-115.0
 31
0.0
  0
LINE
  5
671
330
1D
100
AcDbEntity
  8
BLACK
  6
Continuous
100
AcDbLine
 10
94.5
 20
-115.0
 30
0.0
 11
134.2
 21
-115.0
 31
0.0
  0
LINE
  5
672
330
1D
100
AcDbEntity
  8
BLACK
  6
Continuous
100
AcDbLine
 10
284.0
 20
-115.0
 30
0.0
 11
322.0
 21
-115.0
 31
0.0
  0
LINE
  5
673
330
1D
100
AcDbEntity
  8
BLACK
  6
Continuous
100
AcDbLine
 10
322.0
 20
-111.5
 30
0.0
 11
308.25
 21
-111.5
 31
0.0
  0
LINE
  5
674
330
1D
100
AcDbEntity
  8
BLACK
  6
Continuous
100
AcDbLine
 10
297.75
 20
-111.5
 30
0.0
 11
284.0
 21
-111.5
 31
0.0
  0
LINE
  5
675
330
1D
100
AcDbEntity
  8
BLACK
  6
Continuous
100
AcDbLine
 10
134.2
 20
-111.5
 30
0.0
 11
119.6
 21
-111.5
 31
0.0
  0
LINE
  5
676
330
1D
100
AcDbEntity
  8
BLACK
  6
Continuous
100
AcDbLine
 10
109.1
 20
-111.5
 30
0.0
 11
94.5
 21
-111.5
 31
0.0
  0
LINE
  5
677
330
1D
100
AcDbEntity
  8
BLACK
  6
Continuous
100
AcDbLine
 10
44.0
 20
-111.5
 30
0.0
 11
30.25
 21
-111.5
 31
0.0
  0
LINE
  5
678
330
1D
100
AcDbEntity
  8
BLACK
  6
Continuous
100
AcDbLine
 10
19.5
 20
-111.5
 30
0.0
 11
6.0
 21
-111.5
 31
0.0
  0
LINE
  5
679
330
1D
100
AcDbEntity
  8
BLACK
  6
Continuous
100
AcDbLine
 10
109.35
 20
-111.25
 30
0.0
 11
109.35
 21
-110.25
 31
0.0
  0
ARC
  5
67A
330
1D
100
AcDbEntity
  8
BLACK
100
AcDbCircle
 10
109.1
 20
-110.25
 30
0.0
 40
0.25
100
AcDbArc
 50
0.0
 51
90.0
  0
LINE
  5
67B
330
1D
100
AcDbEntity
  8
BLACK
  6
Continuous
100
AcDbLine
 10
109.35
 20
10.25
 30
0.0
 11
109.35
 21
11.25
 31
0.0
  0
ARC
  5
67C
330
1D
100
AcDbEntity
  8
BLACK
100
AcDbCircle
 10
109.1
 20
10.25
 30
0.0
 40
0.25
100
AcDbArc
 50
270.0
 51
0.0
  0
LINE
  5
67D
330
1D
100
AcDbEntity
  8
BLACK
  6
Continuous
100
AcDbLine
 10
327.0
 20
-110.0
 30
0.0
 11
308.25
 21
-110.0
 31
0.0
  0
ARC
  5
67E
330
1D
100
AcDbEntity
  8
BLACK
100
AcDbCircle
 10
308.25
 20
-110.25
 30
0.0
 40
0.25
100
AcDbArc
 50
90.0
 51
180.0
  0
LINE
  5
67F
330
1D
100
AcDbEntity
  8
BLACK
  6
Continuous
100
AcDbLine
 10
297.75
 20
-110.0
 30
0.0
 11
218.9
 21
-110.0
 31
0.0
  0
ARC
  5
680
330
1D
100
AcDbEntity
  8
BLACK
100
AcDbCircle
 10
119.6
 20
-110.25
 30
0.0
 40
0.25
100
AcDbArc
 50
90.0
 51
180.0
  0
ARC
  5
681
330
1D
100
AcDbEntity
  8
BLACK
100
AcDbCircle
 10
30.25
 20
-110.25
 30
0.0
 40
0.25
100
AcDbArc
 50
90.0
 51
180.0
  0
LINE
  5
682
330
1D
100
AcDbEntity
  8
BLACK
  6
Continuous
100
AcDbLine
 10
119.35
 20
11.25
 30
0.0
 11
119.35
 21
10.25
 31
0.0
  0
LINE
  5
683
330
1D
100
AcDbEntity
  8
BLACK
  6
Continuous
100
AcDbLine
 10
119.35
 20
-110.25
 30
0.0
 11
119.35
 21
-111.25
 31
0.0
  0
LINE
  5
684
330
1D
100
AcDbEntity
  8
BLACK
  6
Continuous
100
AcDbLine
 10
135.2
 20
-114.0
 30
0.0
 11
135.2
 21
-112.5
 31
0.0
  0
LINE
  5
685
330
1D
100
AcDbEntity
  8
BLACK
  6
Continuous
100
AcDbLine
 10
135.2
 20
12.5
 30
0.0
 11
135.2
 21
14.0
 31
0.0
  0
LINE
  5
686
330
1D
100
AcDbEntity
  8
BLACK
  6
Continuous
100
AcDbLine
 10
192.8
 20
14.0
 30
0.0
 11
192.8
 21
12.5
 31
0.0
  0
LINE
  5
687
330
1D
100
AcDbEntity
  8
BLACK
  6
Continuous
100
AcDbLine
 10
208.65
 20
10.25
 30
0.0
 11
208.65
 21
11.25
 31
0.0
  0
ARC
  5
688
330
1D
100
AcDbEntity
  8
BLACK
100
AcDbCircle
 10
208.4
 20
10.25
 30
0.0
 40
0.25
100
AcDbArc
 50
270.0
 51
0.0
  0
LINE
  5
689
330
1D
100
AcDbEntity
  8
BLACK
  6
Continuous
100
AcDbLine
 10
218.65
 20
11.25
 30
0.0
 11
218.65
 21
10.25
 31
0.0
  0
LINE
  5
68A
330
1D
100
AcDbEntity
  8
BLACK
  6
Continuous
100
AcDbLine
 10
1.0
 20
10.0
 30
0.0
 11
19.75
 21
10.0
 31
0.0
  0
ARC
  5
68B
330
1D
100
AcDbEntity
  8
BLACK
100
AcDbCircle
 10
19.75
 20
10.25
 30
0.0
 40
0.25
100
AcDbArc
 50
270.0
 51
0.0
  0
LINE
  5
68C
330
1D
100
AcDbEntity
  8
BLACK
  6
Continuous
100
AcDbLine
 10
30.25
 20
10.0
 30
0.0
 11
59.75
 21
10.0
 31
0.0
  0
ARC
  5
68D
330
1D
100
AcDbEntity
  8
BLACK
100
AcDbCircle
 10
30.25
 20
10.25
 30
0.0
 40
0.25
100
AcDbArc
 50
180.0
 51
270.0
  0
LINE
  5
68E
330
1D
100
AcDbEntity
  8
BLACK
  6
Continuous
100
AcDbLine
 10
68.25
 20
10.0
 30
0.0
 11
109.1
 21
10.0
 31
0.0
  0
LINE
  5
68F
330
1D
100
AcDbEntity
  8
BLACK
  6
Continuous
100
AcDbLine
 10
119.6
 20
10.0
 30
0.0
 11
182.0
 21
10.0
 31
0.0
  0
ARC
  5
690
330
1D
100
AcDbEntity
  8
BLACK
100
AcDbCircle
 10
119.6
 20
10.25
 30
0.0
 40
0.25
100
AcDbArc
 50
180.0
 51
270.0
  0
LINE
  5
691
330
1D
100
AcDbEntity
  8
BLACK
  6
Continuous
100
AcDbLine
 10
190.0
 20
10.0
 30
0.0
 11
208.4
 21
10.0
 31
0.0
  0
LINE
  5
692
330
1D
100
AcDbEntity
  8
BLACK
  6
Continuous
100
AcDbLine
 10
218.9
 20
10.0
 30
0.0
 11
297.75
 21
10.0
 31
0.0
  0
ARC
  5
693
330
1D
100
AcDbEntity
  8
BLACK
100
AcDbCircle
 10
218.9
 20
10.25
 30
0.0
 40
0.25
100
AcDbArc
 50
180.0
 51
270.0
  0
LINE
  5
694
330
1D
100
AcDbEntity
  8
BLACK
  6
Continuous
100
AcDbLine
 10
308.25
 20
10.0
 30
0.0
 11
326.75
 21
10.0
 31
0.0
  0
ARC
  5
695
330
1D
100
AcDbEntity
  8
BLACK
100
AcDbCircle
 10
308.25
 20
10.25
 30
0.0
 40
0.25
100
AcDbArc
 50
180.0
 51
270.0
  0
LINE
  5
696
330
1D
100
AcDbEntity
  8
BLACK
  6
Continuous
100
AcDbLine
 10
6.0
 20
11.5
 30
0.0
 11
19.75
 21
11.5
 31
0.0
  0
LINE
  5
697
330
1D
100
AcDbEntity
  8
BLACK
  6
Continuous
100
AcDbLine
 10
30.25
 20
11.5
 30
0.0
 11
44.0
 21
11.5
 31
0.0
  0
LINE
  5
698
330
1D
100
AcDbEntity
  8
BLACK
  6
Continuous
100
AcDbLine
 10
94.5
 20
11.5
 30
0.0
 11
109.1
 21
11.5
 31
0.0
  0
LINE
  5
699
330
1D
100
AcDbEntity
  8
BLACK
  6
Continuous
100
AcDbLine
 10
119.6
 20
11.5
 30
0.0
 11
134.2
 21
11.5
 31
0.0
  0
LINE
  5
69A
330
1D
100
AcDbEntity
  8
BLACK
  6
Continuous
100
AcDbLine
 10
193.8
 20
11.5
 30
0.0
 11
208.4
 21
11.5
 31
0.0
  0
LINE
  5
69B
330
1D
100
AcDbEntity
  8
BLACK
  6
Continuous
100
AcDbLine
 10
218.9
 20
11.5
 30
0.0
 11
233.5
 21
11.5
 31
0.0
  0
LINE
  5
69C
330
1D
100
AcDbEntity
  8
BLACK
  6
Continuous
100
AcDbLine
 10
284.0
 20
11.5
 30
0.0
 11
297.75
 21
11.5
 31
0.0
  0
LINE
  5
69D
330
1D
100
AcDbEntity
  8
BLACK
  6
Continuous
100
AcDbLine
 10
308.25
 20
11.5
 30
0.0
 11
322.0
 21
11.5
 31
0.0
  0
LINE
  5
69E
330
1D
100
AcDbEntity
  8
BLACK
  6
Continuous
100
AcDbLine
 10
234.5
 20
12.5
 30
0.0
 11
234.5
 21
14.0
 31
0.0
  0
LINE
  5
69F
330
1D
100
AcDbEntity
  8
BLACK
  6
Continuous
100
AcDbLine
 10
322.0
 20
15.0
 30
0.0
 11
284.0
 21
15.0
 31
0.0
  0
LINE
  5
6A0
330
1D
100
AcDbEntity
  8
BLACK
  6
Continuous
100
AcDbLine
 10
233.5
 20
15.0
 30
0.0
 11
193.8
 21
15.0
 31
0.0
  0
LINE
  5
6A1
330
1D
100
AcDbEntity
  8
BLACK
  6
Continuous
100
AcDbLine
 10
134.2
 20
15.0
 30
0.0
 11
94.5
 21
15.0
 31
0.0
  0
LINE
  5
6A2
330
1D
100
AcDbEntity
  8
BLACK
  6
Continuous
100
AcDbLine
 10
44.0
 20
15.0
 30
0.0
 11
6.0
 21
15.0
 31
0.0
  0
LINE
  5
6A3
330
1D
100
AcDbEntity
  8
BLACK
  6
Continuous
100
AcDbLine
 10
298.0
 20
-111.25
 30
0.0
 11
298.0
 21
-110.25
 31
0.0
  0
ARC
  5
6A4
330
1D
100
AcDbEntity
  8
BLACK
100
AcDbCircle
 10
297.75
 20
-110.25
 30
0.0
 40
0.25
100
AcDbArc
 50
0.0
 51
90.0
  0
LINE
  5
6A5
330
1D
100
AcDbEntity
  8
BLACK
  6
Continuous
100
AcDbLine
 10
298.0
 20
10.25
 30
0.0
 11
298.0
 21
11.25
 31
0.0
  0
ARC
  5
6A6
330
1D
100
AcDbEntity
  8
BLACK
100
AcDbCircle
 10
297.75
 20
10.25
 30
0.0
 40
0.25
100
AcDbArc
 50
270.0
 51
0.0
  0
LINE
  5
6A7
330
1D
100
AcDbEntity
  8
BLACK
  6
Continuous
100
AcDbLine
 10
308.0
 20
11.25
 30
0.0
 11
308.0
 21
10.25
 31
0.0
  0
LINE
  5
6A8
330
1D
100
AcDbEntity
  8
BLACK
  6
Continuous
100
AcDbLine
 10
308.0
 20
-110.25
 30
0.0
 11
308.0
 21
-111.25
 31
0.0
  0
ARC
  5
6A9
330
1D
100
AcDbEntity
  8
BLACK
100
AcDbCircle
 10
30.25
 20
-111.25
 30
0.0
 40
0.25
100
AcDbArc
 50
180.0
 51
270.0
  0
ARC
  5
6AA
330
1D
100
AcDbEntity
  8
BLACK
100
AcDbCircle
 10
134.2
 20
-112.5
 30
0.0
 40
1.0
100
AcDbArc
 50
0.0
 51
90.0
  0
ARC
  5
6AB
330
1D
100
AcDbEntity
  8
BLACK
100
AcDbCircle
 10
134.2
 20
-114.0
 30
0.0
 40
1.0
100
AcDbArc
 50
270.0
 51
0.0
  0
ARC
  5
6AC
330
1D
100
AcDbEntity
  8
BLACK
100
AcDbCircle
 10
94.5
 20
-114.0
 30
0.0
 40
1.0
100
AcDbArc
 50
180.0
 51
270.0
  0
ARC
  5
6AD
330
1D
100
AcDbEntity
  8
BLACK
100
AcDbCircle
 10
94.5
 20
-112.5
 30
0.0
 40
1.0
100
AcDbArc
 50
90.0
 51
180.0
  0
ARC
  5
6AE
330
1D
100
AcDbEntity
  8
BLACK
100
AcDbCircle
 10
109.1
 20
-111.25
 30
0.0
 40
0.25
100
AcDbArc
 50
270.0
 51
0.0
  0
ARC
  5
6AF
330
1D
100
AcDbEntity
  8
BLACK
100
AcDbCircle
 10
119.6
 20
-111.25
 30
0.0
 40
0.25
100
AcDbArc
 50
180.0
 51
270.0
  0
ARC
  5
6B0
330
1D
100
AcDbEntity
  8
BLACK
100
AcDbCircle
 10
19.75
 20
11.25
 30
0.0
 40
0.25
100
AcDbArc
 50
0.0
 51
90.0
  0
ARC
  5
6B1
330
1D
100
AcDbEntity
  8
BLACK
100
AcDbCircle
 10
30.25
 20
11.25
 30
0.0
 40
0.25
100
AcDbArc
 50
90.0
 51
180.0
  0
ARC
  5
6B2
330
1D
100
AcDbEntity
  8
BLACK
100
AcDbCircle
 10
94.5
 20
12.5
 30
0.0
 40
1.0
100
AcDbArc
 50
180.0
 51
270.0
  0
ARC
  5
6B3
330
1D
100
AcDbEntity
  8
BLACK
100
AcDbCircle
 10
94.5
 20
14.0
 30
0.0
 40
1.0
100
AcDbArc
 50
90.0
 51
180.0
  0
ARC
  5
6B4
330
1D
100
AcDbEntity
  8
BLACK
100
AcDbCircle
 10
109.1
 20
11.25
 30
0.0
 40
0.25
100
AcDbArc
 50
0.0
 51
90.0
  0
ARC
  5
6B5
330
1D
100
AcDbEntity
  8
BLACK
100
AcDbCircle
 10
134.2
 20
14.0
 30
0.0
 40
1.0
100
AcDbArc
 50
0.0
 51
90.0
  0
ARC
  5
6B6
330
1D
100
AcDbEntity
  8
BLACK
100
AcDbCircle
 10
134.2
 20
12.5
 30
0.0
 40
1.0
100
AcDbArc
 50
270.0
 51
0.0
  0
ARC
  5
6B7
330
1D
100
AcDbEntity
  8
BLACK
100
AcDbCircle
 10
119.6
 20
11.25
 30
0.0
 40
0.25
100
AcDbArc
 50
90.0
 51
180.0
  0
ARC
  5
6B8
330
1D
100
AcDbEntity
  8
BLACK
100
AcDbCircle
 10
335.5
 20
-108.0
 30
0.0
 40
2.0
100
AcDbArc
 50
270.0
 51
0.0
  0
ARC
  5
6B9
330
1D
100
AcDbEntity
  8
BLACK
100
AcDbCircle
 10
297.75
 20
-111.25
 30
0.0
 40
0.25
100
AcDbArc
 50
270.0
 51
0.0
  0
ARC
  5
6BA
330
1D
100
AcDbEntity
  8
BLACK
100
AcDbCircle
 10
308.25
 20
-111.25
 30
0.0
 40
0.25
100
AcDbArc
 50
180.0
 51
270.0
  0
ARC
  5
6BB
330
1D
100
AcDbEntity
  8
BLACK
100
AcDbCircle
 10
193.8
 20
12.5
 30
0.0
 40
1.0
100
AcDbArc
 50
180.0
 51
270.0
  0
ARC
  5
6BC
330
1D
100
AcDbEntity
  8
BLACK
100
AcDbCircle
 10
193.8
 20
14.0
 30
0.0
 40
1.0
100
AcDbArc
 50
90.0
 51
180.0
  0
ARC
  5
6BD
330
1D
100
AcDbEntity
  8
BLACK
100
AcDbCircle
 10
208.4
 20
11.25
 30
0.0
 40
0.25
100
AcDbArc
 50
0.0
 51
90.0
  0
ARC
  5
6BE
330
1D
100
AcDbEntity
  8
BLACK
100
AcDbCircle
 10
233.5
 20
14.0
 30
0.0
 40
1.0
100
AcDbArc
 50
0.0
 51
90.0
  0
ARC
  5
6BF
330
1D
100
AcDbEntity
  8
BLACK
100
AcDbCircle
 10
233.5
 20
12.5
 30
0.0
 40
1.0
100
AcDbArc
 50
270.0
 51
0.0
  0
ARC
  5
6C0
330
1D
100
AcDbEntity
  8
BLACK
100
AcDbCircle
 10
218.9
 20
11.25
 30
0.0
 40
0.25
100
AcDbArc
 50
90.0
 51
180.0
  0
ARC
  5
6C1
330
1D
100
AcDbEntity
  8
BLACK
100
AcDbCircle
 10
297.75
 20
11.25
 30
0.0
 40
0.25
100
AcDbArc
 50
0.0
 51
90.0
  0
ARC
  5
6C2
330
1D
100
AcDbEntity
  8
BLACK
100
AcDbCircle
 10
308.25
 20
11.25
 30
0.0
 40
0.25
100
AcDbArc
 50
90.0
 51
180.0
  0
LINE
  5
6C3
330
1D
100
AcDbEntity
  8
BLACK
  6
Continuous
100
AcDbLine
 10
333.75
 20
14.0
 30
0.0
 11
333.75
 21
11.5
 31
0.0
  0
LINE
  5
6C4
330
1D
100
AcDbEntity
  8
BLACK
  6
Continuous
100
AcDbLine
 10
328.25
 20
11.5
 30
0.0
 11
328.25
 21
14.0
 31
0.0
  0
LINE
  5
6C5
330
1D
100
AcDbEntity
  8
BLACK
  6
Continuous
100
AcDbLine
 10
188.5
 20
14.0
 30
0.0
 11
188.5
 21
11.5
 31
0.0
  0
LINE
  5
6C6
330
1D
100
AcDbEntity
  8
BLACK
  6
Continuous
100
AcDbLine
 10
183.5
 20
-114.0
 30
0.0
 11
183.5
 21
-111.5
 31
0.0
  0
LINE
  5
6C7
330
1D
100
AcDbEntity
  8
BLACK
  6
Continuous
100
AcDbLine
 10
183.5
 20
11.5
 30
0.0
 11
183.5
 21
14.0
 31
0.0
  0
LINE
  5
6C8
330
1D
100
AcDbEntity
  8
BLACK
  6
Continuous
100
AcDbLine
 10
66.75
 20
14.0
 30
0.0
 11
66.75
 21
11.5
 31
0.0
  0
LINE
  5
6C9
330
1D
100
AcDbEntity
  8
BLACK
  6
Continuous
100
AcDbLine
 10
66.5
 20
-111.5
 30
0.0
 11
66.5
 21
-114.0
 31
0.0
  0
LINE
  5
6CA
330
1D
100
AcDbEntity
  8
BLACK
  6
Continuous
100
AcDbLine
 10
61.5
 20
-114.0
 30
0.0
 11
61.5
 21
-111.5
 31
0.0
  0
LINE
  5
6CB
330
1D
100
AcDbEntity
  8
BLACK
  6
Continuous
100
AcDbLine
 10
61.25
 20
11.5
 30
0.0
 11
61.25
 21
14.0
 31
0.0
  0
LINE
  5
6CC
330
1D
100
AcDbEntity
  8
BLACK
  6
Continuous
100
AcDbLine
 10
-0.5
 20
14.0
 30
0.0
 11
-0.5
 21
11.5
 31
0.0
  0
LINE
  5
6CD
330
1D
100
AcDbEntity
  8
BLACK
  6
Continuous
100
AcDbLine
 10
-0.5
 20
-111.5
 30
0.0
 11
-0.5
 21
-114.0
 31
0.0
  0
LINE
  5
6CE
330
1D
100
AcDbEntity
  8
BLACK
  6
Continuous
100
AcDbLine
 10
-5.5
 20
11.500002
 30
0.0
 11
-5.5
 21
14.0
 31
0.0
  0
ARC
  5
6CF
330
1D
100
AcDbEntity
  8
BLACK
100
AcDbCircle
 10
331.0
 20
-114.0
 30
0.0
 40
2.5
100
AcDbArc
 50
180.0
 51
0.0
  0
ARC
  5
6D0
330
1D
100
AcDbEntity
  8
BLACK
100
AcDbCircle
 10
335.0
 20
-111.5
 30
0.0
 40
1.5
100
AcDbArc
 50
90.0
 51
180.0
  0
ARC
  5
6D1
330
1D
100
AcDbEntity
  8
BLACK
100
AcDbCircle
 10
327.0
 20
-111.5
 30
0.0
 40
1.5
100
AcDbArc
 50
0.0
 51
90.0
  0
ARC
  5
6D2
330
1D
100
AcDbEntity
  8
BLACK
100
AcDbCircle
 10
186.0
 20
-114.0
 30
0.0
 40
2.5
100
AcDbArc
 50
180.0
 51
0.0
  0
ARC
  5
6D3
330
1D
100
AcDbEntity
  8
BLACK
100
AcDbCircle
 10
182.0
 20
-111.5
 30
0.0
 40
1.5
100
AcDbArc
 50
0.0
 51
90.0
  0
ARC
  5
6D4
330
1D
100
AcDbEntity
  8
BLACK
100
AcDbCircle
 10
331.0
 20
14.0
 30
0.0
 40
2.75
100
AcDbArc
 50
0.0
 51
180.0
  0
ARC
  5
6D5
330
1D
100
AcDbEntity
  8
BLACK
100
AcDbCircle
 10
326.75
 20
11.5
 30
0.0
 40
1.5
100
AcDbArc
 50
270.0
 51
0.0
  0
ARC
  5
6D6
330
1D
100
AcDbEntity
  8
BLACK
100
AcDbCircle
 10
335.25
 20
11.5
 30
0.0
 40
1.5
100
AcDbArc
 50
180.0
 51
270.0
  0
ARC
  5
6D7
330
1D
100
AcDbEntity
  8
BLACK
100
AcDbCircle
 10
186.0
 20
14.0
 30
0.0
 40
2.5
100
AcDbArc
 50
0.0
 51
180.0
  0
ARC
  5
6D8
330
1D
100
AcDbEntity
  8
BLACK
100
AcDbCircle
 10
190.0
 20
11.5
 30
0.0
 40
1.5
100
AcDbArc
 50
180.0
 51
270.0
  0
ARC
  5
6D9
330
1D
100
AcDbEntity
  8
BLACK
100
AcDbCircle
 10
182.0
 20
11.5
 30
0.0
 40
1.5
100
AcDbArc
 50
270.0
 51
0.0
  0
ARC
  5
6DA
330
1D
100
AcDbEntity
  8
BLACK
100
AcDbCircle
 10
64.0
 20
-114.0
 30
0.0
 40
2.5
100
AcDbArc
 50
180.0
 51
0.0
  0
ARC
  5
6DB
330
1D
100
AcDbEntity
  8
BLACK
100
AcDbCircle
 10
60.0
 20
-111.5
 30
0.0
 40
1.5
100
AcDbArc
 50
0.0
 51
90.0
  0
ARC
  5
6DC
330
1D
100
AcDbEntity
  8
BLACK
100
AcDbCircle
 10
68.0
 20
-111.5
 30
0.0
 40
1.5
100
AcDbArc
 50
90.0
 51
180.0
  0
ARC
  5
6DD
330
1D
100
AcDbEntity
  8
BLACK
100
AcDbCircle
 10
64.0
 20
14.0
 30
0.0
 40
2.75
100
AcDbArc
 50
0.0
 51
180.0
  0
ARC
  5
6DE
330
1D
100
AcDbEntity
  8
BLACK
100
AcDbCircle
 10
59.75
 20
11.5
 30
0.0
 40
1.5
100
AcDbArc
 50
270.0
 51
0.0
  0
ARC
  5
6DF
330
1D
100
AcDbEntity
  8
BLACK
100
AcDbCircle
 10
68.25
 20
11.5
 30
0.0
 40
1.5
100
AcDbArc
 50
180.0
 51
270.0
  0
ARC
  5
6E0
330
1D
100
AcDbEntity
  8
BLACK
100
AcDbCircle
 10
1.0
 20
11.5
 30
0.0
 40
1.5
100
AcDbArc
 50
180.0
 51
270.0
  0
ARC
  5
6E1
330
1D
100
AcDbEntity
  8
BLACK
100
AcDbCircle
 10
-7.000000999999999
 20
11.500001
 30
0.0
 40
1.500001000000333
100
AcDbArc
 50
270.0
 51
0.0000382
  0
ARC
  5
6E2
330
1D
100
AcDbEntity
  8
BLACK
100
AcDbCircle
 10
190.0
 20
-111.5
 30
0.0
 40
1.5
100
AcDbArc
 50
90.0
 51
180.0
  0
LINE
  5
6E3
330
1D
100
AcDbEntity
  8
BLACK
  6
Continuous
100
AcDbLine
 10
188.5
 20
-114.0
 30
0.0
 11
188.5
 21
-111.5
 31
0.0
  0
LINE
  5
6E4
330
1D
100
AcDbEntity
  8
BLACK
  6
Continuous
100
AcDbLine
 10
19.75
 20
-111.25
 30
0.0
 11
19.75
 21
-110.25
 31
0.0
  0
ARC
  5
6E5
330
1D
100
AcDbEntity
  8
BLACK
100
AcDbCircle
 10
19.5
 20
-110.25
 30
0.0
 40
0.25
100
AcDbArc
 50
0.0
 51
90.0
  0
ARC
  5
6E6
330
1D
100
AcDbEntity
  8
BLACK
100
AcDbCircle
 10
19.5
 20
-111.25
 30
0.0
 40
0.25
100
AcDbArc
 50
270.0
 51
0.0
  0
LINE
  5
6E7
330
1D
100
AcDbEntity
  8
BLACK
  6
Continuous
100
AcDbLine
 10
335.25
 20
10.0
 30
0.0
 11
335.5
 21
10.0
 31
0.0
  0
LINE
  5
6E8
330
1D
100
AcDbEntity
  8
BLACK
  6
Continuous
100
AcDbLine
 10
192.8
 20
-114.0
 30
0.0
 11
192.8
 21
-112.5
 31
0.0
  0
LINE
  5
6E9
330
1D
100
AcDbEntity
  8
BLACK
  6
Continuous
100
AcDbLine
 10
208.65
 20
-110.25
 30
0.0
 11
208.65
 21
-111.25
 31
0.0
  0
ARC
  5
6EA
330
1D
100
AcDbEntity
  8
BLACK
100
AcDbCircle
 10
208.4
 20
-110.25
 30
0.0
 40
0.25
100
AcDbArc
 50
0.0
 51
90.0
  0
LINE
  5
6EB
330
1D
100
AcDbEntity
  8
BLACK
  6
Continuous
100
AcDbLine
 10
218.65
 20
-111.25
 30
0.0
 11
218.65
 21
-110.25
 31
0.0
  0
ARC
  5
6EC
330
1D
100
AcDbEntity
  8
BLACK
100
AcDbCircle
 10
218.9
 20
-110.25
 30
0.0
 40
0.25
100
AcDbArc
 50
90.0
 51
180.0
  0
LINE
  5
6ED
330
1D
100
AcDbEntity
  8
BLACK
  6
Continuous
100
AcDbLine
 10
193.8
 20
-111.5
 30
0.0
 11
208.4
 21
-111.5
 31
0.0
  0
LINE
  5
6EE
330
1D
100
AcDbEntity
  8
BLACK
  6
Continuous
100
AcDbLine
 10
218.9
 20
-111.5
 30
0.0
 11
233.5
 21
-111.5
 31
0.0
  0
LINE
  5
6EF
330
1D
100
AcDbEntity
  8
BLACK
  6
Continuous
100
AcDbLine
 10
234.5
 20
-112.5
 30
0.0
 11
234.5
 21
-114.0
 31
0.0
  0
LINE
  5
6F0
330
1D
100
AcDbEntity
  8
BLACK
  6
Continuous
100
AcDbLine
 10
233.5
 20
-115.0
 30
0.0
 11
193.8
 21
-115.0
 31
0.0
  0
ARC
  5
6F1
330
1D
100
AcDbEntity
  8
BLACK
100
AcDbCircle
 10
193.8
 20
-112.5
 30
0.0
 40
1.0
100
AcDbArc
 50
90.0
 51
180.0
  0
ARC
  5
6F2
330
1D
100
AcDbEntity
  8
BLACK
100
AcDbCircle
 10
193.8
 20
-114.0
 30
0.0
 40
1.0
100
AcDbArc
 50
180.0
 51
270.0
  0
ARC
  5
6F3
330
1D
100
AcDbEntity
  8
BLACK
100
AcDbCircle
 10
208.4
 20
-111.25
 30
0.0
 40
0.25
100
AcDbArc
 50
270.0
 51
0.0
  0
ARC
  5
6F4
330
1D
100
AcDbEntity
  8
BLACK
100
AcDbCircle
 10
233.5
 20
-114.0
 30
0.0
 40
1.0
100
AcDbArc
 50
270.0
 51
0.0
  0
ARC
  5
6F5
330
1D
100
AcDbEntity
  8
BLACK
100
AcDbCircle
 10
233.5
 20
-112.5
 30
0.0
 40
1.0
100
AcDbArc
 50
0.0
 51
90.0
  0
ARC
  5
6F6
330
1D
100
AcDbEntity
  8
BLACK
100
AcDbCircle
 10
218.9
 20
-111.25
 30
0.0
 40
0.25
100
AcDbArc
 50
180.0
 51
270.0
  0
LINE
  5
6F7
330
1D
100
AcDbEntity
  8
BLACK
  6
Continuous
100
AcDbLine
 10
-7.5
 20
10.0
 30
0.0
 11
-7.000000999999999
 21
10.0
 31
0.0
  0
CIRCLE
  5
6F8
330
1D
100
AcDbEntity
  8
BLACK
100
AcDbCircle
 10
186.0
 20
-114.0
 30
0.0
 40
1.25
  0
CIRCLE
  5
6F9
330
1D
100
AcDbEntity
  8
BLACK
100
AcDbCircle
 10
331.0
 20
-114.0
 30
0.0
 40
1.25
  0
CIRCLE
  5
6FA
330
1D
100
AcDbEntity
  8
BLACK
100
AcDbCircle
 10
64.0
 20
-114.0
 30
0.0
 40
1.25
  0
CIRCLE
  5
6FB
330
1D
100
AcDbEntity
  8
BLACK
100
AcDbCircle
 10
-3.0
 20
-114.0
 30
0.0
 40
1.25
  0
CIRCLE
  5
6FC
330
1D
100
AcDbEntity
  8
BLACK
100
AcDbCircle
 10
-3.0
 20
14.0
 30
0.0
 40
1.25
  0
CIRCLE
  5
6FD
330
1D
100
AcDbEntity
  8
BLACK
100
AcDbCircle
 10
64.0
 20
14.0
 30
0.0
 40
1.25
  0
CIRCLE
  5
6FE
330
1D
100
AcDbEntity
  8
BLACK
100
AcDbCircle
 10
186.0
 20
14.0
 30
0.0
 40
1.25
  0
LINE
  5
6FF
330
1D
100
AcDbEntity
  8
BLACK
  6
Continuous
100
AcDbLine
 10
5.0
 20
14.0
 30
0.0
 11
5.0
 21
12.5
 31
0.0
  0
LINE
  5
700
330
1D
100
AcDbEntity
  8
BLACK
  6
Continuous
100
AcDbLine
 10
5.0
 20
-112.5
 30
0.0
 11
5.0
 21
-114.0
 31
0.0
  0
LINE
  5
701
330
1D
100
AcDbEntity
  8
BLACK
  6
Continuous
100
AcDbLine
 10
45.0
 20
-114.0
 30
0.0
 11
45.0
 21
-112.5
 31
0.0
  0
LINE
  5
702
330
1D
100
AcDbEntity
  8
BLACK
  6
Continuous
100
AcDbLine
 10
45.0
 20
12.5
 30
0.0
 11
45.0
 21
14.0
 31
0.0
  0
LINE
  5
703
330
1D
100
AcDbEntity
  8
BLACK
  6
Continuous
100
AcDbLine
 10
283.0
 20
14.0
 30
0.0
 11
283.0
 21
12.5
 31
0.0
  0
LINE
  5
704
330
1D
100
AcDbEntity
  8
BLACK
  6
Continuous
100
AcDbLine
 10
283.0
 20
-112.5
 30
0.0
 11
283.0
 21
-114.0
 31
0.0
  0
LINE
  5
705
330
1D
100
AcDbEntity
  8
BLACK
  6
Continuous
100
AcDbLine
 10
323.0
 20
-114.0
 30
0.0
 11
323.0
 21
-112.5
 31
0.0
  0
LINE
  5
706
330
1D
100
AcDbEntity
  8
BLACK
  6
Continuous
100
AcDbLine
 10
323.0
 20
12.5
 30
0.0
 11
323.0
 21
14.0
 31
0.0
  0
ARC
  5
707
330
1D
100
AcDbEntity
  8
BLACK
100
AcDbCircle
 10
44.0
 20
-112.5
 30
0.0
 40
1.0
100
AcDbArc
 50
0.0
 51
90.0
  0
ARC
  5
708
330
1D
100
AcDbEntity
  8
BLACK
100
AcDbCircle
 10
44.0
 20
-114.0
 30
0.0
 40
1.0
100
AcDbArc
 50
270.0
 51
0.0
  0
ARC
  5
709
330
1D
100
AcDbEntity
  8
BLACK
100
AcDbCircle
 10
6.0
 20
-114.0
 30
0.0
 40
1.0
100
AcDbArc
 50
180.0
 51
270.0
  0
ARC
  5
70A
330
1D
100
AcDbEntity
  8
BLACK
100
AcDbCircle
 10
6.0
 20
-112.5
 30
0.0
 40
1.0
100
AcDbArc
 50
90.0
 51
180.0
  0
ARC
  5
70B
330
1D
100
AcDbEntity
  8
BLACK
100
AcDbCircle
 10
6.0
 20
12.5
 30
0.0
 40
1.0
100
AcDbArc
 50
180.0
 51
270.0
  0
ARC
  5
70C
330
1D
100
AcDbEntity
  8
BLACK
100
AcDbCircle
 10
6.0
 20
14.0
 30
0.0
 40
1.0
100
AcDbArc
 50
90.0
 51
180.0
  0
ARC
  5
70D
330
1D
100
AcDbEntity
  8
BLACK
100
AcDbCircle
 10
44.0
 20
14.0
 30
0.0
 40
1.0
100
AcDbArc
 50
0.0
 51
90.0
  0
ARC
  5
70E
330
1D
100
AcDbEntity
  8
BLACK
100
AcDbCircle
 10
44.0
 20
12.5
 30
0.0
 40
1.0
100
AcDbArc
 50
270.0
 51
0.0
  0
ARC
  5
70F
330
1D
100
AcDbEntity
  8
BLACK
100
AcDbCircle
 10
322.0
 20
-112.5
 30
0.0
 40
1.0
100
AcDbArc
 50
0.0
 51
90.0
  0
ARC
  5
710
330
1D
100
AcDbEntity
  8
BLACK
100
AcDbCircle
 10
322.0
 20
-114.0
 30
0.0
 40
1.0
100
AcDbArc
 50
270.0
 51
0.0
  0
ARC
  5
711
330
1D
100
AcDbEntity
  8
BLACK
100
AcDbCircle
 10
284.0
 20
-114.0
 30
0.0
 40
1.0
100
AcDbArc
 50
180.0
 51
270.0
  0
ARC
  5
712
330
1D
100
AcDbEntity
  8
BLACK
100
AcDbCircle
 10
284.0
 20
-112.5
 30
0.0
 40
1.0
100
AcDbArc
 50
90.0
 51
180.0
  0
ARC
  5
713
330
1D
100
AcDbEntity
  8
BLACK
100
AcDbCircle
 10
284.0
 20
12.5
 30
0.0
 40
1.0
100
AcDbArc
 50
180.0
 51
270.0
  0
ARC
  5
714
330
1D
100
AcDbEntity
  8
BLACK
100
AcDbCircle
 10
284.0
 20
14.0
 30
0.0
 40
1.0
100
AcDbArc
 50
90.0
 51
180.0
  0
ARC
  5
715
330
1D
100
AcDbEntity
  8
BLACK
100
AcDbCircle
 10
322.0
 20
14.0
 30
0.0
 40
1.0
100
AcDbArc
 50
0.0
 51
90.0
  0
ARC
  5
716
330
1D
100
AcDbEntity
  8
BLACK
100
AcDbCircle
 10
322.0
 20
12.5
 30
0.0
 40
1.0
100
AcDbArc
 50
270.0
 51
0.0
  0
LINE
  5
717
330
1D
100
AcDbEntity
  8
BLACK
  6
Continuous
100
AcDbLine
 10
333.5
 20
-111.5
 30
0.0
 11
333.5
 21
-114.0
 31
0.0
  0
LINE
  5
718
330
1D
100
AcDbEntity
  8
BLACK
  6
Continuous
100
AcDbLine
 10
328.5
 20
-114.0
 30
0.0
 11
328.5
 21
-111.5
 31
0.0
  0
LINE
  5
719
330
1D
100
AcDbEntity
  8
BLACK
  6
Continuous
100
AcDbLine
 10
-5.5
 20
-114.0
 30
0.0
 11
-5.5
 21
-111.500001
 31
0.0
  0
ARC
  5
71A
330
1D
100
AcDbEntity
  8
BLACK
100
AcDbCircle
 10
-3.0
 20
-114.0
 30
0.0
 40
2.5
100
AcDbArc
 50
180.0
 51
0.0
  0
ARC
  5
71B
330
1D
100
AcDbEntity
  8
BLACK
100
AcDbCircle
 10
-3.0
 20
14.0
 30
0.0
 40
2.5
100
AcDbArc
 50
0.0
 51
180.0
  0
CIRCLE
  5
71C
330
1D
100
AcDbEntity
  8
BLACK
100
AcDbCircle
 10
331.0
 20
14.0
 30
0.0
 40
1.25
  0
LINE
  5
71D
330
1D
100
AcDbEntity
  8
BLACK
  6
Continuous
100
AcDbLine
 10
19.5
 20
-110.0
 30
0.0
 11
1.0
 21
-110.0
 31
0.0
  0
LINE
  5
71E
330
1D
100
AcDbEntity
  8
BLACK
  6
Continuous
100
AcDbLine
 10
68.0
 20
-110.0
 30
0.0
 11
109.1
 21
-110.0
 31
0.0
  0
LINE
  5
71F
330
1D
100
AcDbEntity
  8
BLACK
  6
Continuous
100
AcDbLine
 10
119.6
 20
-110.0
 30
0.0
 11
182.0
 21
-110.0
 31
0.0
  0
LINE
  5
720
330
1D
100
AcDbEntity
  8
BLACK
  6
Continuous
100
AcDbLine
 10
30.25
 20
-110.0
 30
0.0
 11
60.0
 21
-110.0
 31
0.0
  0
LINE
  5
721
330
1D
100
AcDbEntity
  8
BLACK
  6
Continuous
100
AcDbLine
 10
190.0
 20
-110.0
 30
0.0
 11
208.4
 21
-110.0
 31
0.0
  0
LINE
  5
722
330
1D
100
AcDbEntity
  8
BLACK
  6
Continuous
100
AcDbLine
 10
-7.500000999999999
 20
-110.0
 30
0.0
 11
-7.000001999999999
 21
-110.0
 31
0.0
  0
LINE
  5
723
330
1D
100
AcDbEntity
  8
BLACK
  6
Continuous
100
AcDbLine
 10
335.0
 20
-110.0
 30
0.0
 11
335.5
 21
-110.0
 31
0.0
  0
ARC
  5
76C
330
1D
100
AcDbEntity
  8
BLACK
100
AcDbCircle
 10
13.94375
 20
-55.41249999999999
 30
0.0
 40
0.500001
100
AcDbArc
 50
0.00011459
 51
90.0
  0
ARC
  5
76D
330
1D
100
AcDbEntity
  8
BLACK
100
AcDbCircle
 10
13.94375
 20
-68.4125
 30
0.0
 40
0.500000000001
100
AcDbArc
 50
270.0
 51
0.00011459
  0
ARC
  5
76E
330
1D
100
AcDbEntity
  8
BLACK
100
AcDbCircle
 10
0.343751
 20
-55.41249999999999
 30
0.0
 40
0.500001
100
AcDbArc
 50
90.00011459
 51
180.0
  0
ARC
  5
76F
330
1D
100
AcDbEntity
  8
BLACK
100
AcDbCircle
 10
0.343751
 20
-68.412498
 30
0.0
 40
0.500001
100
AcDbArc
 50
180.00011459
 51
270.0
  0
LINE
  5
770
330
1D
100
AcDbEntity
  8
BLACK
  6
Continuous
100
AcDbLine
 10
14.44375
 20
-68.412499
 30
0.0
 11
14.44375
 21
-55.412499
 31
0.0
  0
LINE
  5
771
330
1D
100
AcDbEntity
  8
BLACK
  6
Continuous
100
AcDbLine
 10
13.94375
 20
-54.912499
 30
0.0
 11
0.34375
 21
-54.912499
 31
0.0
  0
LINE
  5
772
330
1D
100
AcDbEntity
  8
BLACK
  6
Continuous
100
AcDbLine
 10
-0.15625
 20
-55.41249999999999
 30
0.0
 11
-0.15625
 21
-68.412499
 31
0.0
  0
LINE
  5
773
330
1D
100
AcDbEntity
  8
BLACK
  6
Continuous
100
AcDbLine
 10
0.343751
 20
-68.912499
 30
0.0
 11
13.94375
 21
-68.912499
 31
0.0
  0
LWPOLYLINE
  5
774
330
1D
100
AcDbEntity
  8
0
100
AcDbPolyline
 90
        8
 70
     1
 43
0.0
 10
240.3499999999999
 20
6.499999999999999
 10
240.3499999999999
 20
-6.499999999999999
 42
0.4142123908030215
 10
240.85
 20
-7.000000000000001
 10
254.45
 20
-7.000000000000001
 42
0.4142135623730951
 10
254.9500000000001
 20
-6.499999999999999
 10
254.9500000000001
 20
6.499999999999999
 42
0.4142135623730951
 10
254.45
 20
7.000000000000001
 10
240.85
 20
7.000000000000001
 42
0.4142123908030215
  0
LWPOLYLINE
  5
775
330
1D
100
AcDbEntity
  8
0
100
AcDbPolyline
 90
        8
 70
     1
 43
0.0
 10
221.3
 20
6.499999999999999
 10
221.3
 20
-6.499999999999999
 42
0.4142123908030423
 10
221.8
 20
-7.000000000000001
 10
235.3999999999999
 20
-7.000000000000001
 42
0.4142135623731159
 10
235.9000000000001
 20
-6.499999999999999
 10
235.9000000000001
 20
6.499999999999999
 42
0.4142135623730951
 10
235.4
 20
7.000000000000001
 10
221.8
 20
7.000000000000001
 42
0.4142123908030632
  0
LWPOLYLINE
  5
776
330
1D
100
AcDbEntity
  8
0
100
AcDbPolyline
 90
        8
 70
     1
 43
0.0
 10
49.85
 20
6.499999999999999
 10
49.85
 20
-6.499999999999999
 42
0.4142123908030527
 10
50.35
 20
-7.000000000000001
 10
63.95
 20
-7.000000000000001
 42
0.4142135623731002
 10
64.45
 20
-6.499999999999999
 10
64.45
 20
6.499999999999999
 42
0.4142135623730951
 10
63.95
 20
7.000000000000001
 10
50.35
 20
7.000000000000001
 42
0.4142123908030527
  0
LWPOLYLINE
  5
777
330
1D
100
AcDbEntity
  8
0
100
AcDbPolyline
 90
        8
 70
     1
 43
0.0
 10
202.25
 20
6.499999999999999
 10
202.25
 20
-6.499999999999999
 42
0.4142123908030215
 10
202.7499999999999
 20
-7.000000000000001
 10
216.35
 20
-7.000000000000001
 42
0.4142135623730951
 10
216.8500000000001
 20
-6.499999999999999
 10
216.8500000000001
 20
6.499999999999999
 42
0.4142135623730951
 10
216.35
 20
7.000000000000001
 10
202.7499999999999
 20
7.000000000000001
 42
0.4142123908030215
  0
LWPOLYLINE
  5
778
330
1D
100
AcDbEntity
  8
0
100
AcDbPolyline
 90
        8
 70
     1
 43
0.0
 10
173.675
 20
6.499999999999999
 10
173.675
 20
-6.499999999999999
 42
0.4142123908030215
 10
174.175
 20
-7.000000000000001
 10
187.775
 20
-7.000000000000001
 42
0.4142135623730951
 10
188.275
 20
-6.499999999999999
 10
188.275
 20
6.499999999999999
 42
0.4142135623730951
 10
187.775
 20
7.000000000000001
 10
174.175
 20
7.000000000000001
 42
0.4142123908030215
  0
LWPOLYLINE
  5
779
330
1D
100
AcDbEntity
  8
0
100
AcDbPolyline
 90
        8
 70
     1
 43
0.0
 10
87.95
 20
6.499999999999999
 10
87.95
 20
-6.499999999999999
 42
0.4142123908030527
 10
88.45
 20
-7.000000000000001
 10
102.05
 20
-7.000000000000001
 42
0.4142135623730847
 10
102.55
 20
-6.499999999999999
 10
102.55
 20
6.499999999999999
 42
0.4142135623730951
 10
102.05
 20
7.000000000000001
 10
88.44999999999999
 20
7.000000000000001
 42
0.4142123908030423
  0
LWPOLYLINE
  5
77A
330
1D
100
AcDbEntity
  8
0
100
AcDbPolyline
 90
        8
 70
     1
 43
0.0
 10
30.8
 20
6.499999999999999
 10
30.8
 20
-6.499999999999999
 42
0.4142123908030476
 10
31.3
 20
-7.000000000000001
 10
44.90000000000001
 20
-7.000000000000001
 42
0.4142135623730951
 10
45.4
 20
-6.499999999999999
 10
45.4
 20
6.499999999999999
 42
0.4142135623730951
 10
44.90000000000001
 20
7.000000000000001
 10
31.3
 20
7.000000000000001
 42
0.4142123908030501
  0
LWPOLYLINE
  5
77B
330
1D
100
AcDbEntity
  8
0
100
AcDbPolyline
 90
        8
 70
     1
 43
0.0
 10
68.89999999999999
 20
6.499999999999999
 10
68.89999999999999
 20
-6.499999999999999
 42
0.4142123908030476
 10
69.39999999999999
 20
-7.000000000000001
 10
83.0
 20
-7.000000000000001
 42
0.4142135623730951
 10
83.5
 20
-6.499999999999999
 10
83.5
 20
6.499999999999999
 42
0.4142135623730951
 10
83.0
 20
7.000000000000001
 10
69.4
 20
7.000000000000001
 42
0.4142123908030527
  0
CIRCLE
  5
77C
330
1D
100
AcDbEntity
  8
0
100
AcDbCircle
 10
273.6
 20
-31.0125
 30
0.0
 40
1.0
  0
LWPOLYLINE
  5
77D
330
1D
100
AcDbEntity
  8
0
100
AcDbPolyline
 90
        8
 70
     1
 43
0.0
 10
241.2
 20
-17.3375
 10
241.2
 20
-29.0555
 10
244.2
 20
-30.7875
 10
270.2
 20
-30.7875
 10
273.2
 20
-29.0555
 10
273.2
 20
-17.3375
 42
0.4142135623730951
 10
272.7
 20
-16.8375
 10
241.7
 20
-16.8375
 42
0.4142123908030632
  0
CIRCLE
  5
77E
330
1D
100
AcDbEntity
  8
0
100
AcDbCircle
 10
-4.49375
 20
-88.1625
 30
0.0
 40
1.0
  0
LWPOLYLINE
  5
77F
330
1D
100
AcDbEntity
  8
0
100
AcDbPolyline
 90
        8
 70
     1
 43
0.0
 10
-4.09375
 20
-74.48750000000001
 10
-4.09375
 20
-86.20550000000001
 10
-1.09375
 20
-87.93750000000001
 10
24.90625
 20
-87.93750000000001
 10
27.90625
 20
-86.20550000000001
 10
27.90625
 20
-74.48750000000001
 42
0.4142135623730951
 10
27.40625
 20
-73.98750000000001
 10
-3.59375
 20
-73.98750000000001
 42
0.4142123908030466
  0
LWPOLYLINE
  5
780
330
1D
100
AcDbEntity
  8
0
100
AcDbPolyline
 90
        8
 70
     1
 43
0.0
 10
252.257046
 20
-74.4625
 10
252.257046
 20
-87.4625
 42
0.4142123908030345
 10
252.757046
 20
-87.9625
 10
266.357046
 20
-87.9625
 42
0.4142135623730951
 10
266.857046
 20
-87.4625
 10
266.857046
 20
-74.4625
 42
0.4142135623730951
 10
266.357046
 20
-73.9625
 10
252.757046
 20
-73.9625
 42
0.4142123908030189
  0
LWPOLYLINE
  5
781
330
1D
100
AcDbEntity
  8
0
100
AcDbPolyline
 90
        8
 70
     1
 43
0.0
 10
226.065834
 20
-74.46254800000001
 10
226.065834
 20
-87.46254800000001
 42
0.4142123908030554
 10
226.565834
 20
-87.962548
 10
240.165834
 20
-87.962548
 42
0.4142135623730951
 10
240.665834
 20
-87.46254800000001
 10
240.665834
 20
-74.46254800000001
 42
0.4142135623730951
 10
240.165834
 20
-73.962548
 10
226.565834
 20
-73.962548
 42
0.4142123908030605
  0
CIRCLE
  5
782
330
1D
100
AcDbEntity
  8
0
100
AcDbCircle
 10
233.3625
 20
-61.9125
 30
0.0
 40
1.0
  0
CIRCLE
  5
783
330
1D
100
AcDbEntity
  8
0
100
AcDbCircle
 10
271.5187500000001
 20
-68.7875
 30
0.0
 40
1.0
  0
LWPOLYLINE
  5
784
330
1D
100
AcDbEntity
  8
0
100
AcDbPolyline
 90
        8
 70
     1
 43
0.0
 10
235.59375
 20
-55.41249999999999
 10
235.59375
 20
-68.41250000000001
 42
0.4142123908030345
 10
236.09375
 20
-68.91250000000001
 10
249.69375
 20
-68.91250000000001
 42
0.4142135623730951
 10
250.19375
 20
-68.41250000000001
 10
250.19375
 20
-55.41249999999999
 42
0.4142135623730951
 10
249.69375
 20
-54.91250000000001
 10
236.09375
 20
-54.91250000000001
 42
0.4142123908030397
  0
LWPOLYLINE
  5
785
330
1D
100
AcDbEntity
  8
0
100
AcDbPolyline
 90
        8
 70
     1
 43
0.0
 10
257.34375
 20
-67.8875
 10
257.34375
 20
-36.8875
 42
-0.4142135623730951
 10
257.84375
 20
-36.3875
 10
269.56175
 20
-36.3875
 10
271.29375
 20
-39.3875
 10
271.29375
 20
-65.3875
 10
269.56175
 20
-68.38750000000002
 10
257.84375
 20
-68.38750000000003
 42
-0.4142123908030449
  0
CIRCLE
  5
786
330
1D
100
AcDbEntity
  8
0
100
AcDbCircle
 10
61.9125
 20
-100.0125
 30
0.0
 40
1.0
  0
CIRCLE
  5
787
330
1D
100
AcDbEntity
  8
0
100
AcDbCircle
 10
251.221875
 20
-100.0125
 30
0.0
 40
1.0
  0
CIRCLE
  5
788
330
1D
100
AcDbEntity
  8
0
100
AcDbCircle
 10
228.6
 20
-100.0125
 30
0.0
 40
1.0
  0
CIRCLE
  5
789
330
1D
100
AcDbEntity
  8
0
100
AcDbCircle
 10
204.7875
 20
-100.0125
 30
0.0
 40
1.0
  0
CIRCLE
  5
78A
330
1D
100
AcDbEntity
  8
0
100
AcDbCircle
 10
39.290625
 20
-100.0125
 30
0.0
 40
1.0
  0
CIRCLE
  5
78B
330
1D
100
AcDbEntity
  8
0
100
AcDbCircle
 10
15.478125
 20
-100.0125
 30
0.0
 40
1.0
  0
CIRCLE
  5
78C
330
1D
100
AcDbEntity
  8
0
100
AcDbCircle
 10
140.7625
 20
-107.2125
 30
0.0
 40
1.0
  0
CIRCLE
  5
78D
330
1D
100
AcDbEntity
  8
0
100
AcDbCircle
 10
106.8875
 20
-107.2125
 30
0.0
 40
1.0
  0
CIRCLE
  5
78E
330
1D
100
AcDbEntity
  8
0
100
AcDbCircle
 10
74.08749999999999
 20
-107.2125
 30
0.0
 40
1.0
  0
LWPOLYLINE
  5
78F
330
1D
100
AcDbEntity
  8
0
100
AcDbPolyline
 90
        8
 70
     1
 43
0.0
 10
170.1625
 20
-106.9875
 10
144.1625
 20
-106.9875
 10
141.1625
 20
-105.2555
 10
141.1625
 20
-93.5375
 42
-0.4142123908030449
 10
141.6625
 20
-93.03750000000001
 10
172.6625
 20
-93.0375
 42
-0.4142135623730951
 10
173.1625
 20
-93.5375
 10
173.1625
 20
-105.2555
  0
LWPOLYLINE
  5
790
330
1D
100
AcDbEntity
  8
0
100
AcDbPolyline
 90
        8
 70
     1
 43
0.0
 10
117.025
 20
-93.01249999999999
 42
0.4142123908030345
 10
116.525
 20
-93.51249999999999
 10
116.525
 20
-106.5125
 42
0.4142123908030554
 10
117.025
 20
-107.0125
 10
130.625
 20
-107.0125
 42
0.4142135623730951
 10
131.125
 20
-106.5125
 10
131.125
 20
-93.51249999999999
 42
0.4142135623730951
 10
130.625
 20
-93.01249999999999
  0
LWPOLYLINE
  5
791
330
1D
100
AcDbEntity
  8
0
100
AcDbPolyline
 90
        8
 70
     1
 43
0.0
 10
202.5625
 20
-93.51249999999999
 42
0.4142135623730951
 10
202.0625
 20
-93.01249999999999
 10
188.4624999999999
 20
-93.01249999999999
 42
0.4142123908029825
 10
187.9625
 20
-93.51249999999999
 10
187.9625
 20
-106.5125
 42
0.4142123908030241
 10
188.4625
 20
-107.0125
 10
202.0625
 20
-107.0125
 42
0.4142135623730743
 10
202.5625
 20
-106.5125
  0
LWPOLYLINE
  5
792
330
1D
100
AcDbEntity
  8
0
100
AcDbPolyline
 90
        8
 70
     1
 43
0.0
 10
21.275
 20
-93.51249999999999
 10
21.275
 20
-106.5125
 42
0.4142123908030501
 10
21.775
 20
-107.0125
 10
35.375
 20
-107.0125
 42
0.4142135623730951
 10
35.875
 20
-106.5125
 10
35.875
 20
-93.51249999999999
 42
0.4142135623730951
 10
35.375
 20
-93.01249999999999
 10
21.775
 20
-93.01249999999999
 42
0.4142123908030293
  0
LWPOLYLINE
  5
793
330
1D
100
AcDbEntity
  8
0
100
AcDbPolyline
 90
        8
 70
     1
 43
0.0
 10
106.4875
 20
-105.2555
 10
103.4875
 20
-106.9875
 10
77.4875
 20
-106.9875
 10
74.4875
 20
-105.2555
 10
74.48749999999998
 20
-93.5375
 42
-0.4142123908030449
 10
74.9875
 20
-93.03750000000001
 10
105.9875
 20
-93.0375
 42
-0.4142135623730951
 10
106.4875
 20
-93.5375
  0
LWPOLYLINE
  5
794
330
1D
100
AcDbEntity
  8
0
100
AcDbPolyline
 90
        8
 70
     1
 43
0.0
 10
45.0875
 20
-93.51249999999999
 10
45.0875
 20
-106.5125
 42
0.4142123908030501
 10
45.5875
 20
-107.0125
 10
59.18749999999999
 20
-107.0125
 42
0.4142135623730951
 10
59.6875
 20
-106.5125
 10
59.6875
 20
-93.51249999999999
 42
0.4142135623730951
 10
59.18749999999999
 20
-93.01249999999999
 10
45.5875
 20
-93.01249999999999
 42
0.4142123908030293
  0
LWPOLYLINE
  5
795
330
1D
100
AcDbEntity
  8
0
100
AcDbPolyline
 90
        8
 70
     1
 43
0.0
 10
212.275
 20
-93.01249999999999
 42
0.4142123908030449
 10
211.7749999999999
 20
-93.51249999999999
 10
211.7749999999999
 20
-106.5125
 42
0.4142123908030658
 10
212.275
 20
-107.0125
 10
225.875
 20
-107.0125
 42
0.4142135623730951
 10
226.3750000000001
 20
-106.5125
 10
226.3750000000001
 20
-93.51249999999999
 42
0.4142135623730951
 10
225.875
 20
-93.01249999999999
  0
ENDSEC
  0
SECTION
  2
OBJECTS
  0
DICTIONARY
  5
C
330
0
100
AcDbDictionary
281
     1
  3
ACAD_COLOR
350
765
  3
ACAD_DETAILVIEWSTYLE
350
763
  3
ACAD_GROUP
350
D
  3
ACAD_LAYOUT
350
1A
  3
ACAD_MATERIAL
350
753
  3
ACAD_MLEADERSTYLE
350
759
  3
ACAD_MLINESTYLE
350
17
  3
ACAD_PLOTSETTINGS
350
19
  3
ACAD_PLOTSTYLENAME
350
E
  3
ACAD_SCALELIST
350
724
  3
ACAD_SECTIONVIEWSTYLE
350
764
  3
ACAD_TABLESTYLE
350
757
  3
ACAD_VISUALSTYLE
350
73A
  3
AcDbVariableDictionary
350
75B
  3
ACDB_RECOMPOSE_DATA
350
798
  3
EZDXF_META
350
76A
  0
DICTIONARY
  5
765
330
C
100
AcDbDictionary
281
     1
  0
DICTIONARY
  5
763
102
{ACAD_REACTORS
330
C
102
}
330
C
100
AcDbDictionary
281
     1
  0
DICTIONARY
  5
D
102
{ACAD_REACTORS
330
C
102
}
330
C
100
AcDbDictionary
281
     1
  0
DICTIONARY
  5
1A
102
{ACAD_REACTORS
330
C
102
}
330
C
100
AcDbDictionary
281
     1
  3
Layout1
350
1C
  3
Model
350
1E
  0
DICTIONARY
  5
753
102
{ACAD_REACTORS
330
C
102
}
330
C
100
AcDbDictionary
281
     1
  3
ByBlock
350
755
  3
ByLayer
350
754
  3
Global
350
756
  0
DICTIONARY
  5
759
102
{ACAD_REACTORS
330
C
102
}
330
C
100
AcDbDictionary
281
     1
  3
Standard
350
75A
  0
DICTIONARY
  5
17
102
{ACAD_REACTORS
330
C
102
}
330
C
100
AcDbDictionary
281
     1
  3
Standard
350
18
  0
DICTIONARY
  5
19
102
{ACAD_REACTORS
330
C
102
}
330
C
100
AcDbDictionary
281
     1
  0
ACDBDICTIONARYWDFLT
  5
E
102
{ACAD_REACTORS
330
C
102
}
330
C
100
AcDbDictionary
281
     1
  3
Normal
350
F
100
AcDbDictionaryWithDefault
340
F
  0
DICTIONARY
  5
724
102
{ACAD_REACTORS
330
C
102
}
330
C
100
AcDbDictionary
281
     1
  3
A0
350
725
  3
A1
350
726
  3
A2
350
727
  3
A3
350
728
  3
A4
350
729
  3
A5
350
72A
  3
A6
350
72B
  3
A7
350
72C
  3
A8
350
72D
  3
A9
350
72E
  3
B0
350
72F
  3
B1
350
730
  3
B2
350
731
  3
B3
350
732
  3
B4
350
733
  3
B5
350
734
  3
B6
350
735
  0
DICTIONARY
  5
764
102
{ACAD_REACTORS
330
C
102
}
330
C
100
AcDbDictionary
281
     1
  0
DICTIONARY
  5
757
102
{ACAD_REACTORS
330
C
102
}
330
C
100
AcDbDictionary
281
     1
  3
Standard
350
758
  0
DICTIONARY
  5
73A
102
{ACAD_REACTORS
330
C
102
}
330
C
100
AcDbDictionary
281
     1
  3
2dWireframe
350
73F
  3
Basic
350
742
  3
Brighten
350
746
  3
ColorChange
350
74A
  3
Conceptual
350
744
  3
Dim
350
745
  3
EdgeColorOff
350
74D
  3
Facepattern
350
749
  3
Flat
350
73B
  3
FlatWithEdges
350
73C
  3
Gouraud
350
73D
  3
GouraudWithEdges
350
73E
  3
Hidden
350
741
  3
JitterOff
350
74B
  3
Linepattern
350
748
  3
OverhangOff
350
74C
  3
Realistic
350
743
  3
Shaded
350
752
  3
Shaded with edges
350
751
  3
Shades of Gray
350
74E
  3
Sketchy
350
74F
  3
Thicken
350
747
  3
Wireframe
350
740
  3
X-Ray
350
750
  0
DICTIONARY
  5
75B
102
{ACAD_REACTORS
330
C
102
}
330
C
100
AcDbDictionary
281
     1
  3
CANNOSCALE
350
75C
  3
CMLEADERSTYLE
350
761
  3
CTABLESTYLE
350
760
  3
MSLTSCALE
350
762
  0
XRECORD
  5
798
102
{ACAD_REACTORS
330
C
102
}
330
C
100
AcDbXrecord
280
     1
 90
        1
330
758
  0
DICTIONARY
  5
76A
330
C
100
AcDbDictionary
280
     1
281
     1
  3
WRITTEN_BY_EZDXF
360
76B
  0
LAYOUT
  5
1C
102
{ACAD_REACTORS
330
1A
102
}
330
1A
100
AcDbPlotSettings
  1

  2
none_device
  4

  6

 40
0.0
 41
0.0
 42
0.0
 43
0.0
 44
0.0
 45
0.0
 46
0.0
 47
0.0
 48
0.0
 49
0.0
140
0.0
141
0.0
142
1.0
143
1.0
 70
   688
 72
     0
 73
     0
 74
     5
  7

 75
    16
 76
     0
 77
     2
 78
   300
147
1.0
148
0.0
149
0.0
100
AcDbLayout
  1
Layout1
 70
     1
 71
     1
 10
0.0
 20
0.0
 11
12.0
 21
9.0
 12
0.0
 22
0.0
 32
0.0
 14
1.000000000000000E+20
 24
1.000000000000000E+20
 34
1.000000000000000E+20
 15
-1.000000000000000E+20
 25
-1.000000000000000E+20
 35
-1.000000000000000E+20
146
0.0
 13
0.0
 23
0.0
 33
0.0
 16
1.0
 26
0.0
 36
0.0
 17
0.0
 27
1.0
 37
0.0
 76
     0
330
1B
  0
LAYOUT
  5
1E
102
{ACAD_REACTORS
330
1A
102
}
330
1A
100
AcDbPlotSettings
  1

  2
none_device
  4
Letter_(8.50_x_11.00_Inches)
  6

 40
6.35
 41
6.35
 42
6.35000508
 43
6.35000508
 44
215.9
 45
279.4
 46
0.0
 47
0.0
 48
0.0
 49
0.0
140
0.0
141
0.0
142
1.0
143
1.0
 70
  1712
 72
     0
 73
     0
 74
     0
  7

 75
     0
 76
     0
 77
     2
 78
   300
147
1.0
148
0.0
149
0.0
100
AcDbLayout
  1
Model
 70
     1
 71
     0
 10
0.0
 20
0.0
 11
12.0
 21
9.0
 12
0.0
 22
0.0
 32
0.0
 14
1.000000000000000E+20
 24
1.000000000000000E+20
 34
1.000000000000000E+20
 15
-1.000000000000000E+20
 25
-1.000000000000000E+20
 35
-1.000000000000000E+20
146
0.0
 13
0.0
 23
0.0
 33
0.0
 16
1.0
 26
0.0
 36
0.0
 17
0.0
 27
1.0
 37
0.0
 76
     0
330
1D
331
442
  0
MATERIAL
  5
755
102
{ACAD_REACTORS
330
753
102
}
330
753
100
AcDbMaterial
  1
ByBlock
 72
     1
273
     1
 94
      127
  0
MATERIAL
  5
754
102
{ACAD_REACTORS
330
753
102
}
330
753
100
AcDbMaterial
  1
ByLayer
 72
     1
273
     1
 94
      127
  0
MATERIAL
  5
756
102
{ACAD_REACTORS
330
753
102
}
330
753
100
AcDbMaterial
  1
Global
 72
     1
273
     1
 94
      127
  0
MLEADERSTYLE
  5
75A
102
{ACAD_REACTORS
330
759
102
}
330
759
100
AcDbMLeaderStyle
179
     2
170
     2
171
     1
172
     0
 90
        2
 40
0.0
 41
0.0
173
     1
 91
-1056964608
340
14
 92
       -2
290
     1
 42
2.0
291
     1
 43
8.0
  3
Standard
341
0
 44
4.0
300

342
11
174
     1
178
     6
175
     1
176
     0
 93
-1056964608
 45
4.0
292
     0
297
     0
 46
4.0
343
0
 94
-1056964608
 47
1.0
 49
1.0
140
1.0
293
     1
141
0.0
294
     1
177
     0
142
1.0
295
     0
296
     0
143
3.75
271
     0
272
     9
273
     9
298
     0
  0
MLINESTYLE
  5
18
102
{ACAD_REACTORS
330
17
102
}
330
17
100
AcDbMlineStyle
  2
Standard
 70
     0
  3

 62
   256
 51
90.0
 52
90.0
 71
     2
 49
0.5
 62
   256
  6
BYLAYER
 49
-0.5
 62
   256
  6
BYLAYER
  0
ACDBPLACEHOLDER
  5
F
102
{ACAD_REACTORS
330
E
102
}
330
E
  0
SCALE
  5
725
102
{ACAD_REACTORS
330
724
102
}
330
724
100
AcDbScale
 70
     0
300
1:1
140
1.0
141
1.0
290
     1
  0
SCALE
  5
726
102
{ACAD_REACTORS
330
724
102
}
330
724
100
AcDbScale
 70
     0
300
1:2
140
1.0
141
2.0
290
     0
  0
SCALE
  5
727
102
{ACAD_REACTORS
330
724
102
}
330
724
100
AcDbScale
 70
     0
300
1:4
140
1.0
141
4.0
290
     0
  0
SCALE
  5
728
102
{ACAD_REACTORS
330
724
102
}
330
724
100
AcDbScale
 70
     0
300
1:5
140
1.0
141
5.0
290
     0
  0
SCALE
  5
729
102
{ACAD_REACTORS
330
724
102
}
330
724
100
AcDbScale
 70
     0
300
1:8
140
1.0
141
8.0
290
     0
  0
SCALE
  5
72A
102
{ACAD_REACTORS
330
724
102
}
330
724
100
AcDbScale
 70
     0
300
1:10
140
1.0
141
10.0
290
     0
  0
SCALE
  5
72B
102
{ACAD_REACTORS
330
724
102
}
330
724
100
AcDbScale
 70
     0
300
1:16
140
1.0
141
16.0
290
     0
  0
SCALE
  5
72C
102
{ACAD_REACTORS
330
724
102
}
330
724
100
AcDbScale
 70
     0
300
1:20
140
1.0
141
20.0
290
     0
  0
SCALE
  5
72D
102
{ACAD_REACTORS
330
724
102
}
330
724
100
AcDbScale
 70
     0
300
1:30
140
1.0
141
30.0
290
     0
  0
SCALE
  5
72E
102
{ACAD_REACTORS
330
724
102
}
330
724
100
AcDbScale
 70
     0
300
1:40
140
1.0
141
40.0
290
     0
  0
SCALE
  5
72F
102
{ACAD_REACTORS
330
724
102
}
330
724
100
AcDbScale
 70
     0
300
1:50
140
1.0
141
50.0
290
     0
  0
SCALE
  5
730
102
{ACAD_REACTORS
330
724
102
}
330
724
100
AcDbScale
 70
     0
300
1:100
140
1.0
141
100.0
290
     0
  0
SCALE
  5
731
102
{ACAD_REACTORS
330
724
102
}
330
724
100
AcDbScale
 70
     0
300
2:1
140
2.0
141
1.0
290
     0
  0
SCALE
  5
732
102
{ACAD_REACTORS
330
724
102
}
330
724
100
AcDbScale
 70
     0
300
4:1
140
4.0
141
1.0
290
     0
  0
SCALE
  5
733
102
{ACAD_REACTORS
330
724
102
}
330
724
100
AcDbScale
 70
     0
300
8:1
140
8.0
141
1.0
290
     0
  0
SCALE
  5
734
102
{ACAD_REACTORS
330
724
102
}
330
724
100
AcDbScale
 70
     0
300
10:1
140
10.0
141
1.0
290
     0
  0
SCALE
  5
735
102
{ACAD_REACTORS
330
724
102
}
330
724
100
AcDbScale
 70
     0
300
100:1
140
100.0
141
1.0
290
     0
  0
TABLESTYLE
  5
758
102
{ACAD_REACTORS
330
757
102
}
102
{ACAD_XDICTIONARY
360
796
102
}
330
757
100
AcDbTableStyle
  3
Standard
 70
     0
 71
     0
 40
0.06
 41
0.06
280
     0
281
     0
  7
Standard
140
4.5
170
     2
 62
     0
 63
   257
283
     0
 90
        4
 91
        0
  1

274
    -2
284
     1
 64
     0
275
    -2
285
     1
 65
     0
276
    -2
286
     1
 66
     0
277
    -2
287
     1
 67
     0
278
    -2
288
     1
 68
     0
279
    -2
289
     1
 69
     0
  7
Standard
140
6.0
170
     5
 62
     0
 63
   257
283
     0
 90
        4
 91
        0
  1

274
    -2
284
     1
 64
     0
275
    -2
285
     1
 65
     0
276
    -2
286
     1
 66
     0
277
    -2
287
     1
 67
     0
278
    -2
288
     1
 68
     0
279
    -2
289
     1
 69
     0
  7
Standard
140
4.5
170
     5
 62
     0
 63
   257
283
     0
 90
        4
 91
        0
  1

274
    -2
284
     1
 64
     0
275
    -2
285
     1
 65
     0
276
    -2
286
     1
 66
     0
277
    -2
287
     1
 67
     0
278
    -2
288
     1
 68
     0
279
    -2
289
     1
 69
     0
  0
VISUALSTYLE
  5
73F
102
{ACAD_REACTORS
330
73A
102
}
330
73A
100
AcDbVisualStyle
  2
2dWireframe
 70
     4
177
     3
291
     0
 70
    58
 90
        0
176
     1
 90
        2
176
     1
 90
        0
176
     1
 90
        0
176
     1
 40
0.6
176
     1
 40
30.0
176
     1
 62
     7
420
 16777215
176
     1
 90
        1
176
     1
 90
        4
176
     1
 62
     7
176
     1
 62
   257
176
     1
 90
        1
176
     1
 90
        1
176
     1
 40
1.0
176
     1
 90
        0
176
     1
 62
   257
176
     1
 40
1.0
176
     1
 90
        1
176
     1
 90
        6
176
     1
 90
        2
176
     1
 62
     7
176
     1
 90
        5
176
     1
 90
        0
176
     1
 90
        0
176
     1
290
     0
176
     1
 90
        1
176
     1
 40
0.0
176
     1
 90
        0
176
     1
290
     1
176
     1
290
     1
176
     1
290
     0
176
     1
290
     0
176
     1
290
     0
176
     1
290
     0
176
     1
290
     0
176
     1
290
     0
176
     1
290
     0
176
     1
 90
       50
176
     1
 40
0.0
176
     1
 40
1.0
176
     1
 90
        0
176
     1
 62
    18
420
        0
176
     1
 90
       50
176
     1
 90
        3
176
     1
 62
     5
420
      255
176
     1
290
     0
176
     1
 90
       50
176
     1
 90
       50
176
     1
 90
       50
176
     1
290
     0
176
     1
 90
       50
176
     1
 62
   256
176
     0
 40
1.0
176
     0
 90
        2
176
     1
  1
strokes_ogs.tif
176
     1
290
     0
176
     1
 40
1.0
176
     1
 40
1.0
176
     1
  0
VISUALSTYLE
  5
742
102
{ACAD_REACTORS
330
73A
102
}
330
73A
100
AcDbVisualStyle
  2
Basic
 70
     7
177
     3
291
     1
 70
    58
 90
        1
176
     1
 90
        0
176
     1
 90
        1
176
     1
 90
        0
176
     1
 40
0.6
176
     1
 40
30.0
176
     1
 62
     7
420
 16777215
176
     1
 90
        0
176
     1
 90
        4
176
     1
 62
     7
176
     1
 62
   257
176
     1
 90
        1
176
     1
 90
        1
176
     1
 40
1.0
176
     1
 90
        8
176
     1
 62
     7
176
     1
 40
1.0
176
     1
 90
        1
176
     1
 90
        6
176
     1
 90
        2
176
     1
 62
     7
176
     1
 90
        5
176
     1
 90
        0
176
     1
 90
        0
176
     1
290
     0
176
     1
 90
        1
176
     1
 40
0.0
176
     1
 90
        0
176
     1
290
     0
176
     1
290
     1
176
     1
290
     1
176
     1
290
     0
176
     1
290
     0
176
     1
290
     0
176
     1
290
     0
176
     1
290
     0
176
     1
290
     0
176
     1
 90
       50
176
     1
 40
0.0
176
     1
 40
1.0
176
     1
 90
        0
176
     1
 62
    18
420
        0
176
     1
 90
       50
176
     1
 90
        3
176
     1
 62
     5
420
      255
176
     1
290
     0
176
     1
 90
       50
176
     1
 90
       50
176
     1
 90
       50
176
     1
290
     0
176
     1
 90
       50
176
     1
 62
   256
176
     0
 40
1.0
176
     0
 90
        2
176
     1
  1
strokes_ogs.tif
176
     1
290
     0
176
     1
 40
1.0
176
     1
 40
1.0
176
     1
  0
VISUALSTYLE
  5
746
102
{ACAD_REACTORS
330
73A
102
}
330
73A
100
AcDbVisualStyle
  2
Brighten
 70
    12
177
     3
291
     1
 70
    58
 90
        2
176
     1
 90
        2
176
     1
 90
        0
176
     1
 90
        0
176
     1
 40
0.6
176
     1
 40
30.0
176
     1
 62
     7
420
 16777215
176
     1
 90
        1
176
     1
 90
        4
176
     1
 62
     7
176
     1
 62
   257
176
     1
 90
        1
176
     1
 90
        1
176
     1
 40
1.0
176
     1
 90
        8
176
     1
 62
     7
176
     1
 40
1.0
176
     1
 90
        1
176
     1
 90
        6
176
     1
 90
        2
176
     1
 62
     7
176
     1
 90
        5
176
     1
 90
        0
176
     1
 90
        0
176
     1
290
     0
176
     1
 90
        1
176
     1
 40
50.0
176
     1
 90
        0
176
     1
290
     0
176
     1
290
     1
176
     1
290
     1
176
     1
290
     0
176
     1
290
     0
176
     1
290
     0
176
     1
290
     0
176
     1
290
     0
176
     1
290
     0
176
     1
 90
       50
176
     1
 40
0.0
176
     1
 40
1.0
176
     1
 90
        0
176
     1
 62
    18
420
        0
176
     1
 90
       50
176
     1
 90
        3
176
     1
 62
     5
420
      255
176
     1
290
     0
176
     1
 90
       50
176
     1
 90
       50
176
     1
 90
       50
176
     1
290
     0
176
     1
 90
       50
176
     1
 62
   256
176
     0
 40
1.0
176
     0
 90
        2
176
     1
  1
strokes_ogs.tif
176
     1
290
     0
176
     1
 40
1.0
176
     1
 40
1.0
176
     1
  0
VISUALSTYLE
  5
74A
102
{ACAD_REACTORS
330
73A
102
}
330
73A
100
AcDbVisualStyle
  2
ColorChange
 70
    16
177
     3
291
     1
 70
    58
 90
        2
176
     1
 90
        2
176
     1
 90
        3
176
     1
 90
        0
176
     1
 40
0.6
176
     1
 40
30.0
176
     1
 62
     8
420
  8421504
176
     1
 90
        1
176
     1
 90
        4
176
     1
 62
     7
176
     1
 62
   257
176
     1
 90
        1
176
     1
 90
        1
176
     1
 40
1.0
176
     1
 90
        8
176
     1
 62
     8
420
  8421504
176
     1
 40
1.0
176
     1
 90
        1
176
     1
 90
        6
176
     1
 90
        2
176
     1
 62
     7
176
     1
 90
        5
176
     1
 90
        0
176
     1
 90
        0
176
     1
290
     0
176
     1
 90
        1
176
     1
 40
0.0
176
     1
 90
        0
176
     1
290
     0
176
     1
290
     1
176
     1
290
     1
176
     1
290
     0
176
     1
290
     0
176
     1
290
     0
176
     1
290
     0
176
     1
290
     0
176
     1
290
     0
176
     1
 90
       50
176
     1
 40
0.0
176
     1
 40
1.0
176
     1
 90
        0
176
     1
 62
    18
420
        0
176
     1
 90
       50
176
     1
 90
        3
176
     1
 62
     5
420
      255
176
     1
290
     0
176
     1
 90
       50
176
     1
 90
       50
176
     1
 90
       50
176
     1
290
     0
176
     1
 90
       50
176
     1
 62
   256
176
     0
 40
1.0
176
     0
 90
        2
176
     1
  1
strokes_ogs.tif
176
     1
290
     0
176
     1
 40
1.0
176
     1
 40
1.0
176
     1
  0
VISUALSTYLE
  5
744
102
{ACAD_REACTORS
330
73A
102
}
330
73A
100
AcDbVisualStyle
  2
Conceptual
 70
     9
177
     3
291
     0
 70
    58
 90
        3
176
     1
 90
        2
176
     1
 90
        0
176
     1
 90
        0
176
     1
 40
0.6
176
     1
 40
30.0
176
     1
 62
     7
420
 16777215
176
     1
 90
        2
176
     1
 90
        2
176
     1
 62
     7
176
     1
 62
   257
176
     1
 90
        1
176
     1
 90
        1
176
     1
 40
179.0
176
     1
 90
        8
176
     1
 62
     7
176
     1
 40
1.0
176
     1
 90
        1
176
     1
 90
        6
176
     1
 90
        2
176
     1
 62
     7
176
     1
 90
        3
176
     1
 90
        0
176
     1
 90
        0
176
     1
290
     0
176
     1
 90
        1
176
     1
 40
0.0
176
     1
 90
        0
176
     1
290
     0
176
     1
290
     1
176
     1
290
     1
176
     1
290
     0
176
     1
290
     0
176
     1
290
     0
176
     1
290
     0
176
     1
290
     0
176
     1
290
     0
176
     1
 90
       50
176
     1
 40
0.0
176
     1
 40
1.0
176
     1
 90
        0
176
     1
 62
    18
420
        0
176
     1
 90
       50
176
     1
 90
        3
176
     1
 62
     5
420
      255
176
     1
290
     0
176
     1
 90
       50
176
     1
 90
       50
176
     1
 90
       50
176
     1
290
     0
176
     1
 90
       50
176
     1
 62
   256
176
     0
 40
1.0
176
     0
 90
        2
176
     1
  1
strokes_ogs.tif
176
     1
290
     0
176
     1
 40
1.0
176
     1
 40
1.0
176
     1
  0
VISUALSTYLE
  5
745
102
{ACAD_REACTORS
330
73A
102
}
330
73A
100
AcDbVisualStyle
  2
Dim
 70
    11
177
     3
291
     1
 70
    58
 90
        2
176
     1
 90
        2
176
     1
 90
        0
176
     1
 90
        0
176
     1
 40
0.6
176
     1
 40
30.0
176
     1
 62
     7
420
 16777215
176
     1
 90
        1
176
     1
 90
        4
176
     1
 62
     7
176
     1
 62
   257
176
     1
 90
        1
176
     1
 90
        1
176
     1
 40
1.0
176
     1
 90
        8
176
     1
 62
     7
176
     1
 40
1.0
176
     1
 90
        1
176
     1
 90
        6
176
     1
 90
        2
176
     1
 62
     7
176
     1
 90
        5
176
     1
 90
        0
176
     1
 90
        0
176
     1
290
     0
176
     1
 90
        1
176
     1
 40
-50.0
176
     1
 90
        0
176
     1
290
     0
176
     1
290
     1
176
     1
290
     1
176
     1
290
     0
176
     1
290
     0
176
     1
290
     0
176
     1
290
     0
176
     1
290
     0
176
     1
290
     0
176
     1
 90
       50
176
     1
 40
0.0
176
     1
 40
1.0
176
     1
 90
        0
176
     1
 62
    18
420
        0
176
     1
 90
       50
176
     1
 90
        3
176
     1
 62
     5
420
      255
176
     1
290
     0
176
     1
 90
       50
176
     1
 90
       50
176
     1
 90
       50
176
     1
290
     0
176
     1
 90
       50
176
     1
 62
   256
176
     0
 40
1.0
176
     0
 90
        2
176
     1
  1
strokes_ogs.tif
176
     1
290
     0
176
     1
 40
1.0
176
     1
 40
1.0
176
     1
  0
VISUALSTYLE
  5
74D
102
{ACAD_REACTORS
330
73A
102
}
330
73A
100
AcDbVisualStyle
  2
EdgeColorOff
 70
    22
177
     3
291
     1
 70
    58
 90
        2
176
     0
 90
        2
176
     0
 90
        0
176
     0
 90
        0
176
     0
 40
0.6
176
     0
 40
30.0
176
     0
 62
     7
420
 16777215
176
     0
 90
        1
176
     0
 90
        4
176
     0
 62
     7
176
     0
 62
   257
176
     0
 90
        1
176
     0
 90
        1
176
     0
 40
1.0
176
     0
 90
        8
176
     2
 62
     7
176
     0
 40
1.0
176
     0
 90
        1
176
     0
 90
        6
176
     0
 90
        2
176
     0
 62
     7
176
     0
 90
        5
176
     0
 90
        0
176
     0
 90
        0
176
     0
290
     0
176
     0
 90
        1
176
     0
 40
0.0
176
     0
 90
        0
176
     0
290
     0
176
     0
290
     1
176
     0
290
     1
176
     0
290
     0
176
     0
290
     0
176
     0
290
     0
176
     0
290
     0
176
     0
290
     0
176
     0
290
     0
176
     0
 90
       50
176
     0
 40
0.0
176
     0
 40
1.0
176
     0
 90
        0
176
     0
 62
    18
420
        0
176
     0
 90
       50
176
     0
 90
        3
176
     0
 62
     5
420
      255
176
     0
290
     0
176
     0
 90
       50
176
     0
 90
       50
176
     0
 90
       50
176
     0
290
     0
176
     0
 90
       50
176
     0
 62
   256
176
     0
 40
1.0
176
     0
 90
        2
176
     0
  1
strokes_ogs.tif
176
     0
290
     0
176
     0
 40
1.0
176
     0
 40
1.0
176
     0
  0
VISUALSTYLE
  5
749
102
{ACAD_REACTORS
330
73A
102
}
330
73A
100
AcDbVisualStyle
  2
Facepattern
 70
    15
177
     3
291
     1
 70
    58
 90
        2
176
     1
 90
        2
176
     1
 90
        0
176
     1
 90
        0
176
     1
 40
0.6
176
     1
 40
30.0
176
     1
 62
     7
420
 16777215
176
     1
 90
        1
176
     1
 90
        4
176
     1
 62
     7
176
     1
 62
   257
176
     1
 90
        1
176
     1
 90
        1
176
     1
 40
1.0
176
     1
 90
        8
176
     1
 62
     7
176
     1
 40
1.0
176
     1
 90
        1
176
     1
 90
        6
176
     1
 90
        2
176
     1
 62
     7
176
     1
 90
        5
176
     1
 90
        0
176
     1
 90
        0
176
     1
290
     0
176
     1
 90
        1
176
     1
 40
0.0
176
     1
 90
        0
176
     1
290
     0
176
     1
290
     1
176
     1
290
     1
176
     1
290
     0
176
     1
290
     0
176
     1
290
     0
176
     1
290
     0
176
     1
290
     0
176
     1
290
     0
176
     1
 90
       50
176
     1
 40
0.0
176
     1
 40
1.0
176
     1
 90
        0
176
     1
 62
    18
420
        0
176
     1
 90
       50
176
     1
 90
        3
176
     1
 62
     5
420
      255
176
     1
290
     0
176
     1
 90
       50
176
     1
 90
       50
176
     1
 90
       50
176
     1
290
     0
176
     1
 90
       50
176
     1
 62
   256
176
     0
 40
1.0
176
     0
 90
        2
176
     1
  1
strokes_ogs.tif
176
     1
290
     0
176
     1
 40
1.0
176
     1
 40
1.0
176
     1
  0
VISUALSTYLE
  5
73B
102
{ACAD_REACTORS
330
73A
102
}
330
73A
100
AcDbVisualStyle
  2
Flat
 70
     0
177
     3
291
     1
 70
    58
 90
        2
176
     1
 90
        1
176
     1
 90
        1
176
     1
 90
        2
176
     1
 40
0.6
176
     1
 40
30.0
176
     1
 62
     7
420
 16777215
176
     1
 90
        0
176
     1
 90
        0
176
     1
 62
     7
176
     1
 62
   257
176
     1
 90
        1
176
     1
 90
        1
176
     1
 40
1.0
176
     1
 90
        8
176
     1
 62
     7
176
     1
 40
1.0
176
     1
 90
        1
176
     1
 90
        6
176
     1
 90
        2
176
     1
 62
     7
176
     1
 90
        5
176
     1
 90
        0
176
     1
 90
        0
176
     1
290
     0
176
     1
 90
       13
176
     1
 40
0.0
176
     1
 90
        0
176
     1
290
     0
176
     1
290
     1
176
     1
290
     1
176
     1
290
     0
176
     1
290
     0
176
     1
290
     0
176
     1
290
     0
176
     1
290
     0
176
     1
290
     0
176
     1
 90
       50
176
     1
 40
0.0
176
     1
 40
1.0
176
     1
 90
        0
176
     1
 62
    18
420
        0
176
     1
 90
       50
176
     1
 90
        3
176
     1
 62
     5
420
      255
176
     1
290
     0
176
     1
 90
       50
176
     1
 90
       50
176
     1
 90
       50
176
     1
290
     0
176
     1
 90
       50
176
     1
 62
   256
176
     0
 40
1.0
176
     0
 90
        2
176
     1
  1
strokes_ogs.tif
176
     1
290
     0
176
     1
 40
1.0
176
     1
 40
1.0
176
     1
  0
VISUALSTYLE
  5
73C
102
{ACAD_REACTORS
330
73A
102
}
330
73A
100
AcDbVisualStyle
  2
FlatWithEdges
 70
     1
177
     3
291
     1
 70
    58
 90
        2
176
     1
 90
        1
176
     1
 90
        1
176
     1
 90
        2
176
     1
 40
0.6
176
     1
 40
30.0
176
     1
 62
     7
420
 16777215
176
     1
 90
        1
176
     1
 90
        0
176
     1
 62
     7
176
     1
 62
   257
176
     1
 90
        1
176
     1
 90
        1
176
     1
 40
1.0
176
     1
 90
        0
176
     1
 62
   257
176
     1
 40
1.0
176
     1
 90
        1
176
     1
 90
        6
176
     1
 90
        2
176
     1
 62
     7
176
     1
 90
        5
176
     1
 90
        0
176
     1
 90
        0
176
     1
290
     0
176
     1
 90
       13
176
     1
 40
0.0
176
     1
 90
        0
176
     1
290
     0
176
     1
290
     1
176
     1
290
     1
176
     1
290
     0
176
     1
290
     0
176
     1
290
     0
176
     1
290
     0
176
     1
290
     0
176
     1
290
     0
176
     1
 90
       50
176
     1
 40
0.0
176
     1
 40
1.0
176
     1
 90
        0
176
     1
 62
    18
420
        0
176
     1
 90
       50
176
     1
 90
        3
176
     1
 62
     5
420
      255
176
     1
290
     0
176
     1
 90
       50
176
     1
 90
       50
176
     1
 90
       50
176
     1
290
     0
176
     1
 90
       50
176
     1
 62
   256
176
     0
 40
1.0
176
     0
 90
        2
176
     1
  1
strokes_ogs.tif
176
     1
290
     0
176
     1
 40
1.0
176
     1
 40
1.0
176
     1
  0
VISUALSTYLE
  5
73D
102
{ACAD_REACTORS
330
73A
102
}
330
73A
100
AcDbVisualStyle
  2
Gouraud
 70
     2
177
     3
291
     1
 70
    58
 90
        2
176
     1
 90
        2
176
     1
 90
        1
176
     1
 90
        2
176
     1
 40
0.6
176
     1
 40
30.0
176
     1
 62
     7
420
 16777215
176
     1
 90
        0
176
     1
 90
        0
176
     1
 62
     7
176
     1
 62
   257
176
     1
 90
        1
176
     1
 90
        1
176
     1
 40
1.0
176
     1
 90
        0
176
     1
 62
     7
176
     1
 40
1.0
176
     1
 90
        1
176
     1
 90
        6
176
     1
 90
        2
176
     1
 62
     7
176
     1
 90
        5
176
     1
 90
        0
176
     1
 90
        0
176
     1
290
     0
176
     1
 90
       13
176
     1
 40
0.0
176
     1
 90
        0
176
     1
290
     0
176
     1
290
     1
176
     1
290
     1
176
     1
290
     0
176
     1
290
     0
176
     1
290
     0
176
     1
290
     0
176
     1
290
     0
176
     1
290
     0
176
     1
 90
       50
176
     1
 40
0.0
176
     1
 40
1.0
176
     1
 90
        0
176
     1
 62
    18
420
        0
176
     1
 90
       50
176
     1
 90
        3
176
     1
 62
     5
420
      255
176
     1
290
     0
176
     1
 90
       50
176
     1
 90
       50
176
     1
 90
       50
176
     1
290
     0
176
     1
 90
       50
176
     1
 62
   256
176
     0
 40
1.0
176
     0
 90
        2
176
     1
  1
strokes_ogs.tif
176
     1
290
     0
176
     1
 40
1.0
176
     1
 40
1.0
176
     1
  0
VISUALSTYLE
  5
73E
102
{ACAD_REACTORS
330
73A
102
}
330
73A
100
AcDbVisualStyle
  2
GouraudWithEdges
 70
     3
177
     3
291
     1
 70
    58
 90
        2
176
     1
 90
        2
176
     1
 90
        1
176
     1
 90
        2
176
     1
 40
0.6
176
     1
 40
30.0
176
     1
 62
     7
420
 16777215
176
     1
 90
        1
176
     1
 90
        0
176
     1
 62
     7
176
     1
 62
   257
176
     1
 90
        1
176
     1
 90
        1
176
     1
 40
1.0
176
     1
 90
        0
176
     1
 62
   257
176
     1
 40
1.0
176
     1
 90
        1
176
     1
 90
        6
176
     1
 90
        2
176
     1
 62
     7
176
     1
 90
        5
176
     1
 90
        0
176
     1
 90
        0
176
     1
290
     0
176
     1
 90
       13
176
     1
 40
0.0
176
     1
 90
        0
176
     1
290
     0
176
     1
290
     1
176
     1
290
     1
176
     1
290
     0
176
     1
290
     0
176
     1
290
     0
176
     1
290
     0
176
     1
290
     0
176
     1
290
     0
176
     1
 90
       50
176
     1
 40
0.0
176
     1
 40
1.0
176
     1
 90
        0
176
     1
 62
    18
420
        0
176
     1
 90
       50
176
     1
 90
        3
176
     1
 62
     5
420
      255
176
     1
290
     0
176
     1
 90
       50
176
     1
 90
       50
176
     1
 90
       50
176
     1
290
     0
176
     1
 90
       50
176
     1
 62
   256
176
     0
 40
1.0
176
     0
 90
        2
176
     1
  1
strokes_ogs.tif
176
     1
290
     0
176
     1
 40
1.0
176
     1
 40
1.0
176
     1
  0
VISUALSTYLE
  5
741
102
{ACAD_REACTORS
330
73A
102
}
330
73A
100
AcDbVisualStyle
  2
Hidden
 70
     6
177
     3
291
     0
 70
    58
 90
        1
176
     1
 90
        2
176
     1
 90
        2
176
     1
 90
        0
176
     1
 40
0.6
176
     1
 40
30.0
176
     1
 62
     7
420
 16777215
176
     1
 90
        2
176
     1
 90
        2
176
     1
 62
     7
176
     1
 62
   257
176
     1
 90
        2
176
     1
 90
        1
176
     1
 40
40.0
176
     1
 90
        0
176
     1
 62
   257
176
     1
 40
1.0
176
     1
 90
        1
176
     1
 90
        6
176
     1
 90
        2
176
     1
 62
     7
176
     1
 90
        3
176
     1
 90
        0
176
     1
 90
        0
176
     1
290
     0
176
     1
 90
        1
176
     1
 40
0.0
176
     1
 90
        0
176
     1
290
     0
176
     1
290
     1
176
     1
290
     1
176
     1
290
     0
176
     1
290
     0
176
     1
290
     0
176
     1
290
     0
176
     1
290
     0
176
     1
290
     0
176
     1
 90
       50
176
     1
 40
0.0
176
     1
 40
1.0
176
     1
 90
        0
176
     1
 62
    18
420
        0
176
     1
 90
       50
176
     1
 90
        3
176
     1
 62
     5
420
      255
176
     1
290
     0
176
     1
 90
       50
176
     1
 90
       50
176
     1
 90
       50
176
     1
290
     0
176
     1
 90
       50
176
     1
 62
   256
176
     0
 40
1.0
176
     0
 90
        2
176
     1
  1
strokes_ogs.tif
176
     1
290
     0
176
     1
 40
1.0
176
     1
 40
1.0
176
     1
  0
VISUALSTYLE
  5
74B
102
{ACAD_REACTORS
330
73A
102
}
330
73A
100
AcDbVisualStyle
  2
JitterOff
 70
    20
177
     3
291
     1
 70
    58
 90
        2
176
     0
 90
        2
176
     0
 90
        0
176
     0
 90
        0
176
     0
 40
0.6
176
     0
 40
30.0
176
     0
 62
     7
420
 16777215
176
     0
 90
        1
176
     0
 90
        4
176
     0
 62
     7
176
     0
 62
   257
176
     0
 90
        1
176
     0
 90
        1
176
     0
 40
1.0
176
     0
 90
       10
176
     2
 62
     7
176
     0
 40
1.0
176
     0
 90
        1
176
     0
 90
        6
176
     0
 90
        2
176
     0
 62
     7
176
     0
 90
        5
176
     0
 90
        0
176
     0
 90
        0
176
     0
290
     0
176
     0
 90
        1
176
     0
 40
0.0
176
     0
 90
        0
176
     0
290
     0
176
     0
290
     1
176
     0
290
     1
176
     0
290
     0
176
     0
290
     0
176
     0
290
     0
176
     0
290
     0
176
     0
290
     0
176
     0
290
     0
176
     0
 90
       50
176
     0
 40
0.0
176
     0
 40
1.0
176
     0
 90
        0
176
     0
 62
    18
420
        0
176
     0
 90
       50
176
     0
 90
        3
176
     0
 62
     5
420
      255
176
     0
290
     0
176
     0
 90
       50
176
     0
 90
       50
176
     0
 90
       50
176
     0
290
     0
176
     0
 90
       50
176
     0
 62
   256
176
     0
 40
1.0
176
     0
 90
        2
176
     0
  1
strokes_ogs.tif
176
     0
290
     0
176
     0
 40
1.0
176
     0
 40
1.0
176
     0
  0
VISUALSTYLE
  5
748
102
{ACAD_REACTORS
330
73A
102
}
330
73A
100
AcDbVisualStyle
  2
Linepattern
 70
    14
177
     3
291
     1
 70
    58
 90
        2
176
     1
 90
        2
176
     1
 90
        0
176
     1
 90
        0
176
     1
 40
0.6
176
     1
 40
30.0
176
     1
 62
     7
420
 16777215
176
     1
 90
        1
176
     1
 90
        4
176
     1
 62
     7
176
     1
 62
   257
176
     1
 90
        7
176
     1
 90
        7
176
     1
 40
1.0
176
     1
 90
        8
176
     1
 62
     7
176
     1
 40
1.0
176
     1
 90
        1
176
     1
 90
        6
176
     1
 90
        2
176
     1
 62
     7
176
     1
 90
        5
176
     1
 90
        0
176
     1
 90
        0
176
     1
290
     0
176
     1
 90
        1
176
     1
 40
0.0
176
     1
 90
        0
176
     1
290
     0
176
     1
290
     1
176
     1
290
     1
176
     1
290
     0
176
     1
290
     0
176
     1
290
     0
176
     1
290
     0
176
     1
290
     0
176
     1
290
     0
176
     1
 90
       50
176
     1
 40
0.0
176
     1
 40
1.0
176
     1
 90
        0
176
     1
 62
    18
420
        0
176
     1
 90
       50
176
     1
 90
        3
176
     1
 62
     5
420
      255
176
     1
290
     0
176
     1
 90
       50
176
     1
 90
       50
176
     1
 90
       50
176
     1
290
     0
176
     1
 90
       50
176
     1
 62
   256
176
     0
 40
1.0
176
     0
 90
        2
176
     1
  1
strokes_ogs.tif
176
     1
290
     0
176
     1
 40
1.0
176
     1
 40
1.0
176
     1
  0
VISUALSTYLE
  5
74C
102
{ACAD_REACTORS
330
73A
102
}
330
73A
100
AcDbVisualStyle
  2
OverhangOff
 70
    21
177
     3
291
     1
 70
    58
 90
        2
176
     0
 90
        2
176
     0
 90
        0
176
     0
 90
        0
176
     0
 40
0.6
176
     0
 40
30.0
176
     0
 62
     7
420
 16777215
176
     0
 90
        1
176
     0
 90
        4
176
     0
 62
     7
176
     0
 62
   257
176
     0
 90
        1
176
     0
 90
        1
176
     0
 40
1.0
176
     0
 90
        9
176
     2
 62
     7
176
     0
 40
1.0
176
     0
 90
        1
176
     0
 90
        6
176
     0
 90
        2
176
     0
 62
     7
176
     0
 90
        5
176
     0
 90
        0
176
     0
 90
        0
176
     0
290
     0
176
     0
 90
        1
176
     0
 40
0.0
176
     0
 90
        0
176
     0
290
     0
176
     0
290
     1
176
     0
290
     1
176
     0
290
     0
176
     0
290
     0
176
     0
290
     0
176
     0
290
     0
176
     0
290
     0
176
     0
290
     0
176
     0
 90
       50
176
     0
 40
0.0
176
     0
 40
1.0
176
     0
 90
        0
176
     0
 62
    18
420
        0
176
     0
 90
       50
176
     0
 90
        3
176
     0
 62
     5
420
      255
176
     0
290
     0
176
     0
 90
       50
176
     0
 90
       50
176
     0
 90
       50
176
     0
290
     0
176
     0
 90
       50
176
     0
 62
   256
176
     0
 40
1.0
176
     0
 90
        2
176
     0
  1
strokes_ogs.tif
176
     0
290
     0
176
     0
 40
1.0
176
     0
 40
1.0
176
     0
  0
VISUALSTYLE
  5
743
102
{ACAD_REACTORS
330
73A
102
}
330
73A
100
AcDbVisualStyle
  2
Realistic
 70
     8
177
     3
291
     0
 70
    58
 90
        2
176
     1
 90
        3
176
     1
 90
        0
176
     1
 90
        2
176
     1
 40
0.6
176
     1
 40
30.0
176
     1
 62
     7
420
 16777215
176
     1
 90
        0
176
     1
 90
        0
176
     1
 62
     7
176
     1
 62
   257
176
     1
 90
        1
176
     1
 90
        1
176
     1
 40
1.0
176
     1
 90
        8
176
     1
 62
   257
176
     1
 40
1.0
176
     1
 90
        1
176
     1
 90
        6
176
     1
 90
        2
176
     1
 62
     7
176
     1
 90
        3
176
     1
 90
        0
176
     1
 90
        0
176
     1
290
     0
176
     1
 90
       13
176
     1
 40
0.0
176
     1
 90
        0
176
     1
290
     0
176
     1
290
     1
176
     1
290
     1
176
     1
290
     0
176
     1
290
     0
176
     1
290
     0
176
     1
290
     0
176
     1
290
     0
176
     1
290
     0
176
     1
 90
       50
176
     1
 40
0.0
176
     1
 40
1.0
176
     1
 90
        0
176
     1
 62
    18
420
        0
176
     1
 90
       50
176
     1
 90
        3
176
     1
 62
     5
420
      255
176
     1
290
     0
176
     1
 90
       50
176
     1
 90
       50
176
     1
 90
       50
176
     1
290
     0
176
     1
 90
       50
176
     1
 62
   256
176
     0
 40
1.0
176
     0
 90
        2
176
     1
  1
strokes_ogs.tif
176
     1
290
     0
176
     1
 40
1.0
176
     1
 40
1.0
176
     1
  0
VISUALSTYLE
  5
752
102
{ACAD_REACTORS
330
73A
102
}
330
73A
100
AcDbVisualStyle
  2
Shaded
 70
    27
177
     3
291
     0
 70
    58
 90
        2
176
     1
 90
        2
176
     1
 90
        1
176
     1
 90
        2
176
     1
 40
0.6
176
     1
 40
30.0
176
     1
 62
     7
420
 16777215
176
     1
 90
        0
176
     1
 90
        4
176
     1
 62
     7
176
     1
 62
   257
176
     1
 90
        1
176
     1
 90
        1
176
     1
 40
1.0
176
     1
 90
        8
176
     1
 62
   257
176
     1
 40
1.0
176
     1
 90
        1
176
     1
 90
        6
176
     1
 90
        2
176
     1
 62
     8
420
  7895160
176
     1
 90
        3
176
     1
 90
        0
176
     1
 90
        0
176
     1
290
     0
176
     1
 90
        5
176
     1
 40
0.0
176
     1
 90
        0
176
     1
290
     0
176
     1
290
     1
176
     1
290
     1
176
     1
290
     0
176
     1
290
     0
176
     1
290
     0
176
     1
290
     0
176
     1
290
     0
176
     1
290
     0
176
     1
 90
       50
176
     1
 40
0.0
176
     1
 40
1.0
176
     1
 90
        0
176
     1
 62
    18
420
        0
176
     1
 90
       50
176
     1
 90
        3
176
     1
 62
     5
420
      255
176
     1
290
     0
176
     1
 90
       50
176
     1
 90
       50
176
     1
 90
       50
176
     1
290
     0
176
     1
 90
       50
176
     1
 62
   256
176
     0
 40
1.0
176
     0
 90
        2
176
     1
  1
strokes_ogs.tif
176
     1
290
     0
176
     1
 40
1.0
176
     1
 40
1.0
176
     1
  0
VISUALSTYLE
  5
751
102
{ACAD_REACTORS
330
73A
102
}
330
73A
100
AcDbVisualStyle
  2
Shaded with edges
 70
    26
177
     3
291
     0
 70
    58
 90
        2
176
     1
 90
        2
176
     1
 90
        1
176
     1
 90
        2
176
     1
 40
0.6
176
     1
 40
30.0
176
     1
 62
     7
420
 16777215
176
     1
 90
        1
176
     1
 90
       10
176
     1
 62
     7
176
     1
 62
   257
176
     1
 90
        2
176
     1
 90
        1
176
     1
 40
1.0
176
     1
 90
        8
176
     1
 62
   257
176
     1
 40
1.0
176
     1
 90
        1
176
     1
 90
        6
176
     1
 90
        2
176
     1
 62
     7
176
     1
 90
        3
176
     1
 90
        0
176
     1
 90
        0
176
     1
290
     0
176
     1
 90
        5
176
     1
 40
0.0
176
     1
 90
        0
176
     1
290
     0
176
     1
290
     1
176
     1
290
     1
176
     1
290
     0
176
     1
290
     0
176
     1
290
     0
176
     1
290
     0
176
     1
290
     0
176
     1
290
     0
176
     1
 90
       50
176
     1
 40
0.0
176
     1
 40
1.0
176
     1
 90
        0
176
     1
 62
    18
420
        0
176
     1
 90
       50
176
     1
 90
        3
176
     1
 62
     5
420
      255
176
     1
290
     0
176
     1
 90
       50
176
     1
 90
       50
176
     1
 90
       50
176
     1
290
     0
176
     1
 90
       50
176
     1
 62
   256
176
     0
 40
1.0
176
     0
 90
        2
176
     1
  1
strokes_ogs.tif
176
     1
290
     0
176
     1
 40
1.0
176
     1
 40
1.0
176
     1
  0
VISUALSTYLE
  5
74E
102
{ACAD_REACTORS
330
73A
102
}
330
73A
100
AcDbVisualStyle
  2
Shades of Gray
 70
    23
177
     3
291
     0
 70
    58
 90
        2
176
     1
 90
        2
176
     1
 90
        3
176
     1
 90
        0
176
     1
 40
0.6
176
     1
 40
30.0
176
     1
 62
     7
420
 16777215
176
     1
 90
        2
176
     1
 90
        2
176
     1
 62
     7
176
     1
 62
     7
176
     1
 90
        1
176
     1
 90
        1
176
     1
 40
40.0
176
     1
 90
        8
176
     1
 62
     7
176
     1
 40
1.0
176
     1
 90
        1
176
     1
 90
        6
176
     1
 90
        2
176
     1
 62
     7
176
     1
 90
        3
176
     1
 90
        0
176
     1
 90
        0
176
     1
290
     0
176
     1
 90
        1
176
     1
 40
0.0
176
     1
 90
        0
176
     1
290
     0
176
     1
290
     1
176
     1
290
     1
176
     1
290
     0
176
     1
290
     0
176
     1
290
     0
176
     1
290
     0
176
     1
290
     0
176
     1
290
     0
176
     1
 90
       50
176
     1
 40
0.0
176
     1
 40
1.0
176
     1
 90
        0
176
     1
 62
    18
420
        0
176
     1
 90
       50
176
     1
 90
        3
176
     1
 62
     5
420
      255
176
     1
290
     0
176
     1
 90
       50
176
     1
 90
       50
176
     1
 90
       50
176
     1
290
     0
176
     1
 90
       50
176
     1
 62
   256
176
     0
 40
1.0
176
     0
 90
        2
176
     1
  1
strokes_ogs.tif
176
     1
290
     0
176
     1
 40
1.0
176
     1
 40
1.0
176
     1
  0
VISUALSTYLE
  5
74F
102
{ACAD_REACTORS
330
73A
102
}
330
73A
100
AcDbVisualStyle
  2
Sketchy
 70
    24
177
     3
291
     0
 70
    58
 90
        1
176
     1
 90
        2
176
     1
 90
        2
176
     1
 90
        0
176
     1
 40
0.6
176
     1
 40
30.0
176
     1
 62
     7
420
 16777215
176
     1
 90
        2
176
     1
 90
        2
176
     1
 62
     7
176
     1
 62
     7
176
     1
 90
        1
176
     1
 90
        1
176
     1
 40
40.0
176
     1
 90
       11
176
     1
 62
     7
176
     1
 40
1.0
176
     1
 90
        1
176
     1
 90
        6
176
     1
 90
        2
176
     1
 62
     7
176
     1
 90
        6
176
     1
 90
        0
176
     1
 90
        0
176
     1
290
     0
176
     1
 90
        1
176
     1
 40
0.0
176
     1
 90
        0
176
     1
290
     0
176
     1
290
     1
176
     1
290
     1
176
     1
290
     0
176
     1
290
     0
176
     1
290
     0
176
     1
290
     0
176
     1
290
     0
176
     1
290
     0
176
     1
 90
       50
176
     1
 40
0.0
176
     1
 40
1.0
176
     1
 90
        0
176
     1
 62
    18
420
        0
176
     1
 90
       50
176
     1
 90
        3
176
     1
 62
     5
420
      255
176
     1
290
     0
176
     1
 90
       50
176
     1
 90
       50
176
     1
 90
       50
176
     1
290
     0
176
     1
 90
       50
176
     1
 62
   256
176
     0
 40
1.0
176
     0
 90
        2
176
     1
  1
strokes_ogs.tif
176
     1
290
     0
176
     1
 40
1.0
176
     1
 40
1.0
176
     1
  0
VISUALSTYLE
  5
747
102
{ACAD_REACTORS
330
73A
102
}
330
73A
100
AcDbVisualStyle
  2
Thicken
 70
    13
177
     3
291
     1
 70
    58
 90
        2
176
     1
 90
        2
176
     1
 90
        0
176
     1
 90
        0
176
     1
 40
0.6
176
     1
 40
30.0
176
     1
 62
     7
420
 16777215
176
     1
 90
        1
176
     1
 90
        4
176
     1
 62
     7
176
     1
 62
   257
176
     1
 90
        1
176
     1
 90
        1
176
     1
 40
1.0
176
     1
 90
       12
176
     1
 62
     7
176
     1
 40
1.0
176
     1
 90
        1
176
     1
 90
        6
176
     1
 90
        2
176
     1
 62
     7
176
     1
 90
        5
176
     1
 90
        0
176
     1
 90
        0
176
     1
290
     0
176
     1
 90
        1
176
     1
 40
0.0
176
     1
 90
        0
176
     1
290
     0
176
     1
290
     1
176
     1
290
     1
176
     1
290
     0
176
     1
290
     0
176
     1
290
     0
176
     1
290
     0
176
     1
290
     0
176
     1
290
     0
176
     1
 90
       50
176
     1
 40
0.0
176
     1
 40
1.0
176
     1
 90
        0
176
     1
 62
    18
420
        0
176
     1
 90
       50
176
     1
 90
        3
176
     1
 62
     5
420
      255
176
     1
290
     0
176
     1
 90
       50
176
     1
 90
       50
176
     1
 90
       50
176
     1
290
     0
176
     1
 90
       50
176
     1
 62
   256
176
     0
 40
1.0
176
     0
 90
        2
176
     1
  1
strokes_ogs.tif
176
     1
290
     0
176
     1
 40
1.0
176
     1
 40
1.0
176
     1
  0
VISUALSTYLE
  5
740
102
{ACAD_REACTORS
330
73A
102
}
330
73A
100
AcDbVisualStyle
  2
Wireframe
 70
     5
177
     3
291
     0
 70
    58
 90
        0
176
     1
 90
        2
176
     1
 90
        0
176
     1
 90
        0
176
     1
 40
0.6
176
     1
 40
30.0
176
     1
 62
     7
420
 16777215
176
     1
 90
        1
176
     1
 90
        4
176
     1
 62
     7
176
     1
 62
   257
176
     1
 90
        1
176
     1
 90
        1
176
     1
 40
1.0
176
     1
 90
        0
176
     1
 62
   257
176
     1
 40
1.0
176
     1
 90
        1
176
     1
 90
        6
176
     1
 90
        2
176
     1
 62
     7
176
     1
 90
        3
176
     1
 90
        0
176
     1
 90
        0
176
     1
290
     0
176
     1
 90
        1
176
     1
 40
0.0
176
     1
 90
        0
176
     1
290
     0
176
     1
290
     1
176
     1
290
     1
176
     1
290
     0
176
     1
290
     0
176
     1
290
     0
176
     1
290
     0
176
     1
290
     0
176
     1
290
     0
176
     1
 90
       50
176
     1
 40
0.0
176
     1
 40
1.0
176
     1
 90
        0
176
     1
 62
    18
420
        0
176
     1
 90
       50
176
     1
 90
        3
176
     1
 62
     5
420
      255
176
     1
290
     0
176
     1
 90
       50
176
     1
 90
       50
176
     1
 90
       50
176
     1
290
     0
176
     1
 90
       50
176
     1
 62
   256
176
     0
 40
1.0
176
     0
 90
        2
176
     1
  1
strokes_ogs.tif
176
     1
290
     0
176
     1
 40
1.0
176
     1
 40
1.0
176
     1
  0
VISUALSTYLE
  5
750
102
{ACAD_REACTORS
330
73A
102
}
330
73A
100
AcDbVisualStyle
  2
X-Ray
 70
    25
177
     3
291
     0
 70
    58
 90
        2
176
     1
 90
        2
176
     1
 90
        1
176
     1
 90
        1
176
     1
 40
0.5
176
     1
 40
30.0
176
     1
 62
     7
420
 16777215
176
     1
 90
        1
176
     1
 90
        0
176
     1
 62
     7
176
     1
 62
   257
176
     1
 90
        1
176
     1
 90
        1
176
     1
 40
1.0
176
     1
 90
        8
176
     1
 62
     7
176
     1
 40
1.0
176
     1
 90
        1
176
     1
 90
        6
176
     1
 90
        2
176
     1
 62
     7
176
     1
 90
        3
176
     1
 90
        0
176
     1
 90
        0
176
     1
290
     0
176
     1
 90
       13
176
     1
 40
0.0
176
     1
 90
        0
176
     1
290
     0
176
     1
290
     1
176
     1
290
     1
176
     1
290
     0
176
     1
290
     0
176
     1
290
     0
176
     1
290
     0
176
     1
290
     0
176
     1
290
     0
176
     1
 90
       50
176
     1
 40
0.0
176
     1
 40
1.0
176
     1
 90
        0
176
     1
 62
    18
420
        0
176
     1
 90
       50
176
     1
 90
        3
176
     1
 62
     5
420
      255
176
     1
290
     0
176
     1
 90
       50
176
     1
 90
       50
176
     1
 90
       50
176
     1
290
     0
176
     1
 90
       50
176
     1
 62
   256
176
     0
 40
1.0
176
     0
 90
        2
176
     1
  1
strokes_ogs.tif
176
     1
290
     0
176
     1
 40
1.0
176
     1
 40
1.0
176
     1
  0
DICTIONARYVAR
  5
75C
102
{ACAD_REACTORS
330
75B
102
}
330
75B
100
DictionaryVariables
280
     0
  1
1:1
  0
DICTIONARYVAR
  5
761
102
{ACAD_REACTORS
330
75B
102
}
330
75B
100
DictionaryVariables
280
     0
  1
Standard
  0
DICTIONARYVAR
  5
760
102
{ACAD_REACTORS
330
75B
102
}
330
75B
100
DictionaryVariables
280
     0
  1
Standard
  0
DICTIONARYVAR
  5
762
102
{ACAD_REACTORS
330
75B
102
}
330
75B
100
DictionaryVariables
280
     0
  1
0
  0
DICTIONARYVAR
  5
76B
330
76A
100
DictionaryVariables
280
     0
  1
1.4.3 @ 2025-12-01T09:48:35.522319+00:00
  0
DICTIONARY
  5
796
330
758
100
AcDbDictionary
280
     1
281
     1
  3
ACAD_ROUNDTRIP_2008_TABLESTYLE_CELLSTYLEMAP
360
797
  0
CELLSTYLEMAP
  5
797
102
{ACAD_REACTORS
330
796
102
}
330
796
100
AcDbCellStyleMap
 90
        3
300
CELLSTYLE
  1
TABLEFORMAT_BEGIN
 90
        5
170
     1
 91
        0
 92
    32768
 62
   257
 93
        1
300
CONTENTFORMAT
  1
CONTENTFORMAT_BEGIN
 90
        0
 91
        0
 92
        4
 93
        0
300

 40
0.0
140
1.0
 94
        5
 62
     0
340
11
144
6.0
309
CONTENTFORMAT_END
171
     1
301
MARGIN
  1
CELLMARGIN_BEGIN
 40
1.5
 40
1.5
 40
1.5
 40
1.5
 40
1.5
 40
1.5
309
CELLMARGIN_END
 94
        6
 95
        1
302
GRIDFORMAT
  1
GRIDFORMAT_BEGIN
 90
        0
 91
        1
 62
     0
 92
       -2
340
14
 93
        0
 40
0.045
309
GRIDFORMAT_END
 95
        2
302
GRIDFORMAT
  1
GRIDFORMAT_BEGIN
 90
        0
 91
        1
 62
     0
 92
       -2
340
14
 93
        0
 40
0.045
309
GRIDFORMAT_END
 95
        4
302
GRIDFORMAT
  1
GRIDFORMAT_BEGIN
 90
        0
 91
        1
 62
     0
 92
       -2
340
14
 93
        0
 40
0.045
309
GRIDFORMAT_END
 95
        8
302
GRIDFORMAT
  1
GRIDFORMAT_BEGIN
 90
        0
 91
        1
 62
     0
 92
       -2
340
14
 93
        0
 40
0.045
309
GRIDFORMAT_END
 95
       16
302
GRIDFORMAT
  1
GRIDFORMAT_BEGIN
 90
        0
 91
        1
 62
     0
 92
       -2
340
14
 93
        0
 40
0.045
309
GRIDFORMAT_END
 95
       32
302
GRIDFORMAT
  1
GRIDFORMAT_BEGIN
 90
        0
 91
        1
 62
     0
 92
       -2
340
14
 93
        0
 40
0.045
309
GRIDFORMAT_END
309
TABLEFORMAT_END
  1
CELLSTYLE_BEGIN
 90
        1
 91
        1
300
_TITLE
309
CELLSTYLE_END
300
CELLSTYLE
  1
TABLEFORMAT_BEGIN
 90
        5
170
     1
 91
        0
 92
        0
 62
   257
 93
        1
300
CONTENTFORMAT
  1
CONTENTFORMAT_BEGIN
 90
        0
 91
        0
 92
        4
 93
        0
300

 40
0.0
140
1.0
 94
        5
 62
     0
340
11
144
4.5
309
CONTENTFORMAT_END
171
     1
301
MARGIN
  1
CELLMARGIN_BEGIN
 40
1.5
 40
1.5
 40
1.5
 40
1.5
 40
1.5
 40
1.5
309
CELLMARGIN_END
 94
        6
 95
        1
302
GRIDFORMAT
  1
GRIDFORMAT_BEGIN
 90
        0
 91
        1
 62
     0
 92
       -2
340
14
 93
        0
 40
0.045
309
GRIDFORMAT_END
 95
        2
302
GRIDFORMAT
  1
GRIDFORMAT_BEGIN
 90
        0
 91
        1
 62
     0
 92
       -2
340
14
 93
        0
 40
0.045
309
GRIDFORMAT_END
 95
        4
302
GRIDFORMAT
  1
GRIDFORMAT_BEGIN
 90
        0
 91
        1
 62
     0
 92
       -2
340
14
 93
        0
 40
0.045
309
GRIDFORMAT_END
 95
        8
302
GRIDFORMAT
  1
GRIDFORMAT_BEGIN
 90
        0
 91
        1
 62
     0
 92
       -2
340
14
 93
        0
 40
0.045
309
GRIDFORMAT_END
 95
       16
302
GRIDFORMAT
  1
GRIDFORMAT_BEGIN
 90
        0
 91
        1
 62
     0
 92
       -2
340
14
 93
        0
 40
0.045
309
GRIDFORMAT_END
 95
       32
302
GRIDFORMAT
  1
GRIDFORMAT_BEGIN
 90
        0
 91
        1
 62
     0
 92
       -2
340
14
 93
        0
 40
0.045
309
GRIDFORMAT_END
309
TABLEFORMAT_END
  1
CELLSTYLE_BEGIN
 90
        2
 91
        1
300
_HEADER
309
CELLSTYLE_END
300
CELLSTYLE
  1
TABLEFORMAT_BEGIN
 90
        5
170
     1
 91
        0
 92
        0
 62
   257
 93
        1
300
CONTENTFORMAT
  1
CONTENTFORMAT_BEGIN
 90
        0
 91
        0
 92
        4
 93
        0
300

 40
0.0
140
1.0
 94
        2
 62
     0
340
11
144
4.5
309
CONTENTFORMAT_END
171
     1
301
MARGIN
  1
CELLMARGIN_BEGIN
 40
1.5
 40
1.5
 40
1.5
 40
1.5
 40
1.5
 40
1.5
309
CELLMARGIN_END
 94
        6
 95
        1
302
GRIDFORMAT
  1
GRIDFORMAT_BEGIN
 90
        0
 91
        1
 62
     0
 92
       -2
340
14
 93
        0
 40
0.045
309
GRIDFORMAT_END
 95
        2
302
GRIDFORMAT
  1
GRIDFORMAT_BEGIN
 90
        0
 91
        1
 62
     0
 92
       -2
340
14
 93
        0
 40
0.045
309
GRIDFORMAT_END
 95
        4
302
GRIDFORMAT
  1
GRIDFORMAT_BEGIN
 90
        0
 91
        1
 62
     0
 92
       -2
340
14
 93
        0
 40
0.045
309
GRIDFORMAT_END
 95
        8
302
GRIDFORMAT
  1
GRIDFORMAT_BEGIN
 90
        0
 91
        1
 62
     0
 92
       -2
340
14
 93
        0
 40
0.045
309
GRIDFORMAT_END
 95
       16
302
GRIDFORMAT
  1
GRIDFORMAT_BEGIN
 90
        0
 91
        1
 62
     0
 92
       -2
340
14
 93
        0
 40
0.045
309
GRIDFORMAT_END
 95
       32
302
GRIDFORMAT
  1
GRIDFORMAT_BEGIN
 90
        0
 91
        1
 62
     0
 92
       -2
340
14
 93
        0
 40
0.045
309
GRIDFORMAT_END
309
TABLEFORMAT_END
  1
CELLSTYLE_BEGIN
 90
        3
 91
        2
300
_DATA
309
CELLSTYLE_END
  0
ENDSEC
  0
EOF
